<?xml version="1.0" encoding="UTF-8"?>
<svg width="82px" height="82px" viewBox="0 0 82 82" version="1.1" xmlns="http://www.w3.org/2000/svg" xmlns:xlink="http://www.w3.org/1999/xlink">
    <title>56C6917D-A85B-45F2-850F-87C52B2225AF</title>
    <g id="Specifications" stroke="none" stroke-width="1" fill="none" fill-rule="evenodd">
        <g id="Teams" transform="translate(-623.000000, -596.000000)">
            <g id="Group-6-Copy-3" transform="translate(624.000000, 512.000000)">
                <g id="Group-3" transform="translate(0.000000, 48.000000)">
                    <g id="Group" transform="translate(0.000000, 37.000000)">
                        <rect id="Rectangle" fill-rule="nonzero" x="0" y="0" width="80" height="80" rx="20"></rect>
                        <g id="Group-2">
                            <path d="M40.0003755,80.0000309 C22.9885796,80.0000309 7.80371659,69.1961668 2.21371792,53.1160373 C-5.01644701,32.2848423 6.04936701,9.45338107 26.881212,2.2227828 C31.1293943,0.747283155 35.5428933,0 39.9995089,0 C57.0152048,0 72.1994178,10.8029974 77.7852998,26.8820436 L77.9753165,27.4260934 L77.9703331,27.4319434 C84.8228482,48.1123385 73.7728508,70.6090498 53.1245224,77.7763814 C48.8728734,79.2527477 44.4578578,80.0000309 40.0003755,80.0000309 Z" id="Path" fill="#C4CDD3" fill-rule="nonzero"></path>
                            <path d="M40.0003755,80.0000309 C22.9885796,80.0000309 7.80371659,69.1961668 2.21371792,53.1160373 C-5.01644701,32.2848423 6.04936701,9.45338107 26.881212,2.2227828 C31.1293943,0.747283155 35.5428933,0 39.9995089,0 C57.0152048,0 72.1994178,10.8029974 77.7852998,26.8820436 L77.9753165,27.4260934 L77.9703331,27.4319434 C84.8228482,48.1123385 73.7728508,70.6090498 53.1245224,77.7763814 C48.8728734,79.2527477 44.4578578,80.0000309 40.0003755,80.0000309" id="Path" stroke="#FFFFFF" stroke-width="0.5"></path>
                            <path d="M73.1599009,49.6654048 C72.2839178,52.6738207 71.0289848,55.4679534 69.4715852,58.0196361 C67.6414023,51.3961377 63.4190033,44.5546727 57.9865212,38.3044908 C58.4764045,37.471191 59.0373543,36.6311746 59.6782542,35.7354748 C61.1606872,34.1262918 61.8590037,35.6186915 61.8590037,35.6186915 C63.0489367,32.3912256 62.2923369,30.766226 61.7155704,30.0711595 C61.4997704,29.7520095 61.2397705,29.6371762 61.2397705,29.6371762 C60.7405706,27.3671601 58.6831044,26.1754937 58.6831044,26.1754937 C58.6831044,26.1754937 59.3922542,22.9861612 59.0490543,19.6845953 C70.174885,24.3312275 73.4623675,32.7370255 74.418084,37.1479244 C74.7597672,41.2487735 74.379084,45.4787558 73.1599009,49.6654048 Z M58.3264712,69.2637668 C58.0781712,65.2361511 57.408238,61.9811685 57.408238,61.9811685 C57.7698546,62.1278518 58.6763877,62.779585 58.6763877,62.779585 C58.5039211,55.2454368 55.3364719,52.5921374 55.4231385,48.4828384 C55.4948552,45.0421726 55.9648051,42.6486565 56.8730715,40.4986736 C62.3705535,46.9728888 66.4772525,53.9896371 67.7948022,60.5128189 C65.1948029,64.0353847 61.9664703,66.9855173 58.3264712,69.2637668 Z M6.17070031,33.0930087 C8.50983308,29.9220928 14.5372816,22.8329779 21.18743,23.5429944 C20.6615802,24.4913441 20.2189303,25.3070939 19.9556803,25.8288272 C18.2123808,28.5245932 16.5765478,31.7587757 15.3606148,35.5846748 C14.0948484,39.5696072 13.4363986,43.7170395 13.3648986,48.0020552 C11.9481156,49.1688049 10.4864826,50.252138 8.9906163,51.1987544 C8.9906163,51.1987544 11.654099,53.5745038 14.3039317,54.509637 C14.3039317,54.509637 12.4830655,57.3720196 11.3206491,59.2394692 C6.32236694,51.7746543 4.25406744,42.4205065 6.17070031,33.0930087 Z M14.414865,16.801196 C15.1781815,16.7487627 16.2632479,16.7086793 17.5606476,16.744646 C20.7163968,17.0278293 21.8597466,17.8979624 23.6923128,19.0995954 C23.2366629,19.8969286 22.7833963,20.6955617 22.3322964,21.4954949 C16.4664812,20.3480285 11.1865324,24.2228942 7.67566662,27.8654933 C9.24389957,23.6794943 11.5522657,19.9521786 14.414865,16.801196 Z M30.0098779,6.95218167 C29.8423946,8.01038142 29.8215947,9.34699776 30.3363945,10.6612974 C30.6622611,11.4896139 31.164061,12.2078637 31.8248942,12.8195136 C30.3082279,13.4630134 28.9423615,14.0629633 27.8189451,14.5680132 C25.1589291,14.4603299 20.5040635,14.3262132 17.234781,14.5196965 C17.0581977,14.5170965 16.8714311,14.5095132 16.7039478,14.5095132 C20.5190135,11.031364 25.0757291,8.44956464 30.0098779,6.95218167 L30.0098779,6.95218167 Z M32.4172607,6.31453182 C36.4656764,5.39954871 40.718192,5.20303209 44.993241,5.83201527 C46.5473906,6.06038188 48.1030569,6.39881514 49.6539566,6.85121503 C49.7122399,6.86789836 49.7681399,6.88783169 49.8264232,6.90451501 C47.6465404,7.24121493 44.8415744,7.87626478 41.6840918,9.02784784 C39.1848424,9.86461431 36.590693,10.8580307 34.2041103,11.8304305 C33.3339771,11.3229973 32.7156106,10.6721308 32.3973274,9.86786431 C31.8682275,8.53449796 32.1839108,7.06788164 32.4172607,6.31453182 Z M41.1632253,23.4153777 C39.9873756,22.6195613 38.8074092,21.8612281 37.6298261,21.1520783 C36.7456097,20.1580118 34.9630934,18.2938123 34.0290436,17.3211959 C34.4890269,16.5929794 35.1015434,15.7245796 35.8449265,14.9029798 C39.4890423,16.1596461 42.5132749,16.3945127 44.4147412,16.5238627 C44.7848077,16.549646 45.114791,16.5713127 45.4005743,16.599696 L45.6763909,16.6228794 C46.1781907,16.665346 46.661574,16.7195127 47.1473405,16.7730293 C45.3206243,18.6861955 43.3998747,20.7404117 41.1632253,23.4153777 Z M29.8813946,30.7413093 C26.8205454,33.8138586 21.7665799,40.438007 15.693198,45.9812057 C16.2222979,37.8096243 18.9824139,30.9254759 22.7781963,25.5855105 C23.1781629,25.192044 23.6539628,24.8020441 24.1798127,24.4220108 C26.5481954,25.6154105 28.4048117,27.89366 29.8813946,30.7413093 Z M31.5605609,29.257143 C30.1507112,26.6703603 28.418245,24.5036941 26.2606788,23.0871278 C27.2582119,22.5112279 28.2932283,21.9845114 29.2389781,21.5338448 C30.5931445,21.7180115 34.5423269,22.292178 36.1972265,22.8871445 C37.3774095,23.5936944 38.5588926,24.3528942 39.7390756,25.1528273 C39.437259,25.5261439 39.1324091,25.9079105 38.8197592,26.3061437 C38.8197592,26.3061437 35.3190767,26.349477 31.5605609,29.257143 Z M54.5631887,8.73123124 L54.5649221,8.69049792 C62.4297035,12.336347 68.4198854,18.7163122 71.7091013,26.322827 C68.1081022,21.8486614 63.23397,19.0404454 58.5814878,17.2778625 C58.0190212,15.4320796 56.9556215,13.80123 55.0372553,12.9978302 C54.663072,12.1411304 54.1389555,11.5420472 53.1106557,11.156164 C51.979006,11.4079306 50.1340898,12.721147 48.9907401,14.7996298 C47.7490237,14.6096132 46.6806406,14.4928299 45.8605575,14.4228465 L45.6113909,14.4011799 C45.3089243,14.3721466 44.9572744,14.3487466 44.5648911,14.3212299 C42.8956915,14.2070466 40.5706421,14.0395633 37.7548428,13.2153635 C37.9082427,13.1111469 38.0631593,13.0121302 38.2215426,12.9196136 C47.2073572,8.56288128 54.4674221,8.72863124 54.5631887,8.73123124 Z M72.9456177,21.9229781 C68.1139522,13.1228469 60.1456041,6.73118172 50.505673,3.92383239 C48.8449234,3.44131584 47.1397572,3.06799927 45.4406576,2.81796599 L45.4397909,2.81796599 L45.4365409,2.81709933 C26.986512,0.0996666428 9.1340496,11.5721639 3.91390085,29.5037096 C1.10741819,39.1429906 2.22238459,49.2970715 7.05318343,58.0978528 C11.8848489,66.898634 19.8540637,73.2902991 29.4922614,76.0969985 C31.1547443,76.5812483 32.8599106,76.9536983 34.5613935,77.2037315 C38.3331259,77.7594814 42.0764751,77.7128981 45.6956742,77.1495649 C45.7407408,77.1712315 45.7840742,77.1970149 45.8289242,77.2178149 L45.8722575,77.1220482 C59.8814875,74.8695821 71.9480846,64.7254678 76.0855502,50.5171212 C78.8922496,40.8787069 77.7772832,30.7237593 72.9456177,21.9229781 Z" id="Shape" fill="#002A5B" fill-rule="nonzero"></path>
                            <path d="M34.2043269,11.8302138 C36.5911264,10.8575974 39.1844091,9.86526431 41.6843085,9.02763117 C44.8411411,7.87604812 47.6461071,7.24099827 49.8268565,6.90516501 C49.7677065,6.88761502 49.7126732,6.86681502 49.6552566,6.85099836 C48.1026236,6.39946514 46.548474,6.06103188 44.9934577,5.83266527 C40.7177587,5.20259876 36.4652431,5.40019871 32.417694,6.31518182 C32.1843441,7.06766498 31.8677942,8.53428129 32.396894,9.86764764 C32.716044,10.6727808 33.3344105,11.3234306 34.2043269,11.8302138 Z M15.3603981,35.5846748 C16.5769812,31.7581257 18.2128141,28.5245932 19.9554637,25.8288272 C20.2195803,25.3070939 20.6611468,24.4904775 21.1869967,23.5429944 C14.5379316,22.8329779 8.51048308,29.9220928 6.17113364,33.0930087 C4.2536341,42.4205065 6.32280027,51.7746543 11.3212991,59.2396858 C12.4828488,57.3722363 14.303715,54.509637 14.303715,54.509637 C11.6536657,53.5747205 8.9912663,51.1996211 8.9912663,51.1996211 C10.4871326,50.252138 11.9487656,49.1688049 13.3644653,48.0022718 C13.4361819,43.7172562 14.0946317,39.5696072 15.3603981,35.5846748 L15.3603981,35.5846748 Z M16.7043811,14.5099465 C16.8709977,14.5108132 17.0577644,14.5166632 17.233481,14.5201299 C20.5042802,14.3257799 25.1584958,14.4601132 27.8185118,14.5675798 C28.9427949,14.06253 30.3084445,13.4625801 31.8251108,12.8199469 C31.1642777,12.2074304 30.6626944,11.4900473 30.3368279,10.6608641 C29.8218113,9.3467811 29.8426113,8.00994808 30.0103113,6.952615 C25.0752958,8.44913131 20.5194469,11.0309307 16.7043811,14.5099465 L16.7043811,14.5099465 Z M58.3266878,69.2633334 C61.966687,66.9859506 65.1958862,64.035818 67.7941522,60.5126022 C66.4774692,53.9892037 62.3707702,46.9726721 56.8741548,40.498457 C55.9650217,42.6493065 55.4942052,45.0417392 55.4233552,48.4826217 C55.3366885,52.5925707 58.5041378,55.2458701 58.6759544,62.7800183 C58.6759544,62.7800183 57.7692046,62.1276351 57.4067214,61.9818185 C57.4067214,61.9818185 58.0775212,65.2350677 58.3266878,69.2633334 Z M29.2389781,21.5331948 C28.2938783,21.9840781 27.2582119,22.5107946 26.2606788,23.0882111 C28.4180283,24.5032608 30.1507112,26.6714436 31.5596942,29.2582263 C35.31821,26.3490437 38.8197592,26.306577 38.8197592,26.306577 C39.1330591,25.9081271 39.437259,25.5265772 39.7382089,25.152394 C38.5606259,24.3539775 37.3771928,23.5941277 36.1972265,22.8873612 C34.5423269,22.2932613 30.5931445,21.7182281 29.2389781,21.5331948 Z M47.1475572,16.773246 C46.661574,16.719946 46.1781907,16.6657793 45.6757409,16.623096 L45.4007909,16.5999127 C45.1150077,16.5706627 44.7850244,16.548996 44.4149578,16.524946 C42.5124083,16.3940794 39.4890423,16.1607295 35.8449265,14.9040631 C35.1015434,15.7239296 34.4898935,16.593196 34.0299103,17.3216292 C34.9633101,18.2931623 36.7458263,20.1582285 37.6300428,21.1522949 C38.8082758,21.8607948 39.9873756,22.6197779 41.1623586,23.4164611 C43.3998747,20.7397617 45.3217076,18.6866289 47.1473405,16.773246" id="Shape" fill="#004F83" fill-rule="nonzero"></path>
                            <path d="M7.67566662,27.86571 C11.1863158,24.2233275 16.4664812,20.3482451 22.3322964,21.4948449 C22.7963963,20.6715117 23.2648296,19.8481786 23.6923128,19.0991621 C21.8597466,17.8973124 20.7163968,17.0273959 17.5606476,16.743996 C16.2630312,16.708246 15.1773148,16.749846 14.4146483,16.802496 C11.5522657,19.9523952 9.24389957,23.6799277 7.67566662,27.86571 Z M73.1599009,49.6654048 C74.3788673,45.4787558 74.7597672,41.2487735 74.418084,37.1479244 C73.4623675,32.7370255 70.174885,24.3312275 59.0490543,19.6845953 C59.3922542,22.9861612 58.6831044,26.1754937 58.6831044,26.1754937 C58.6831044,26.1754937 60.7405706,27.3671601 61.2397705,29.6371762 C61.2397705,29.6371762 61.4997704,29.7520095 61.7155704,30.0711595 C62.2923369,30.766226 63.0489367,32.3912256 61.8590037,35.6186915 C61.8590037,35.6186915 61.1606872,34.1262918 59.6780375,35.7354748 C59.0373543,36.6311746 58.4764045,37.471191 57.9865212,38.3044908 C63.4190033,44.554456 67.6414023,51.3961377 69.4713685,58.0196361 C71.0289848,55.4679534 72.2839178,52.6738207 73.1596843,49.6654048" id="Shape" fill="#004F83" fill-rule="nonzero"></path>
                            <path d="M53.1108724,11.156814 C54.1376555,11.5418306 54.6626387,12.1409138 55.0385553,12.9976136 C56.9551882,13.80188 58.0192379,15.431863 58.5810544,17.2785125 C63.2335367,19.0400121 68.1085355,21.8484448 71.7084513,26.3226104 C68.4201021,18.7167455 62.4292702,12.3359137 54.5642721,8.69093125 L54.5625387,8.73188124 C54.4676388,8.72841458 47.2067072,8.56266462 38.2217593,12.9193969 C38.062726,13.0116969 37.9075927,13.1109302 37.7550594,13.2160135 C40.5702087,14.0393466 42.8943915,14.2076966 44.5642411,14.3218799 C44.9577077,14.3493966 45.3084909,14.3725799 45.6109575,14.4018299 L45.8609908,14.4234965 C46.6793406,14.4917465 47.7483737,14.6091798 48.9909567,14.8000631 C50.1343065,12.721797 51.9792227,11.4083639 53.1108724,11.156814 Z M29.881828,30.740876 C28.405245,27.8934433 26.5484121,25.6158439 24.1793793,24.4217942 C23.6543961,24.8026941 23.1783796,25.192694 22.7775463,25.5850772 C18.9817639,30.9250426 16.2227312,37.809191 15.691898,45.9818557 C21.7667966,40.4375737 26.8192454,33.8134252 29.881828,30.740876 Z" id="Shape" fill="#004F83" fill-rule="nonzero"></path>
                            <path d="M33.2700605,14.10023 L30.8817444,17.5645125 C30.8817444,17.5645125 32.686794,18.8185788 34.1709603,20.5152951 C31.5735609,19.9844619 28.7217949,19.5045453 28.7217949,19.5045453 L24.201046,21.9628447 L26.3202622,18.4461289 C26.3202622,18.4461289 24.8943792,17.2286792 23.2500962,16.1678795 C25.0527625,16.2203128 28.4810783,16.5045794 28.4810783,16.5045794 L33.2700605,14.10023 L33.2700605,14.10023 Z M37.7366428,29.4226763 C37.7366428,29.4226763 37.2309429,30.8216926 37.1642096,32.1216923 C37.1642096,32.1216923 33.9941603,32.5892589 32.468394,33.6275253 C32.468394,33.6275253 35.6334599,30.4735094 37.7366428,29.4226763 Z" id="Shape" fill="#7AC142" fill-rule="nonzero"></path>
                            <path d="M59.1045219,29.7990414 C59.4583541,29.6794147 59.7225866,29.6598284 59.9200541,29.6794147 C59.8606834,29.454625 59.7510758,29.1174404 59.5536083,28.7847758 C59.2726303,28.3131995 58.8635593,27.9597433 58.8635593,27.9597433 C59.1271393,28.5229229 59.1345335,29.300647 59.1045219,29.7990414 L59.1045219,29.7990414 Z M56.234066,31.8055757 C56.6446593,31.413851 57.0195866,31.0893222 57.3599354,30.8250587 C57.297955,30.6210605 57.2018309,30.3266644 57.0578623,29.9707976 C56.7853658,29.2940178 56.0742217,28.7040202 56.0742217,28.7040202 C56.3678133,29.9084229 56.3051804,31.1297 56.234066,31.8055757 Z" id="Shape" fill="#FEFEFE" fill-rule="nonzero"></path>
                            <path d="M22.2287298,52.1224042 C19.5338304,53.2239373 13.1562486,51.7224376 13.1562486,51.7224376 C19.5988304,51.3515044 25.9005789,46.7356388 25.9005789,46.7356388 C25.8955956,46.7464721 25.8897456,46.7581721 25.8862789,46.7681388 C23.9971627,49.6656214 21.3939133,51.3415377 21.3939133,51.3415377 C21.6805633,51.7081376 21.9695965,51.9523209 22.2287298,52.1224042 Z" id="Path" fill="#C4CDD3" fill-rule="nonzero"></path>
                            <path d="M54.3528054,13.6824967 C54.3528054,13.6824967 52.7687558,12.4407804 50.9712896,14.3665132 C52.8970225,10.8565141 54.0096055,12.8691303 54.3528054,13.6824967 Z" id="Path" fill="#7AC142" fill-rule="nonzero"></path>
                            <path d="M60.6077539,30.7055593 C60.6077539,30.7055593 60.442004,30.5931093 60.406904,30.573826 C59.4020042,30.0388761 57.6004213,31.6006091 56.423705,32.2480089 C55.2487219,32.8956255 53.536189,34.2747085 52.6994225,32.3747589 C51.8637394,30.4748094 53.7862222,27.5030101 54.4529054,25.6329605 C55.9227717,21.4989615 55.9760717,19.0647121 55.6662385,17.7488958 C57.0245215,19.2831121 57.4520047,22.223928 57.4520047,22.223928 C57.4520047,22.223928 57.9570546,16.700446 55.2560886,15.2455297 C55.3187052,15.4413963 55.2478552,16.1297461 55.1928219,16.6722793 C55.1928219,16.6722793 55.1878386,16.664696 55.1845886,16.6605793 C53.9261889,16.8904626 51.1519895,16.575646 50.2510898,16.1039628 C46.8403239,19.7621619 43.1218915,24.8529607 40.3227755,29.5279763 C39.1085758,32.0005757 37.920376,34.9004416 37.6228928,37.2579911 C37.6228928,37.2579911 37.2361429,36.192208 37.1444929,34.7704417 C35.5961933,35.3680082 30.3311945,37.9554409 29.2053948,45.8889057 C29.2053948,45.8889057 32.5511607,42.4363232 36.2503098,41.0914735 C36.2503098,41.0914735 33.907927,47.2263887 38.3794926,58.1013194 C38.3794926,58.1013194 40.1895255,51.432971 43.9762079,49.7505548 C46.2687574,61.137252 52.9895391,61.323802 54.9495053,69.0713668 C54.9495053,69.0713668 57.0037215,65.0580511 54.5311221,58.2363027 C54.5311221,58.2363027 55.3837052,58.474636 56.1069384,59.3263525 C56.1069384,59.3263525 55.9944884,57.3306363 54.1294222,53.0263373 C52.9145725,50.7223045 52.5336725,47.6122719 52.5336725,47.6122719 C51.4418895,48.601355 51.1619562,51.9421376 51.1619562,51.9421376 C47.8252903,42.8898064 57.2962214,33.9180752 59.025221,32.5955422 C59.8687041,31.9481424 60.388704,31.937309 60.7037373,32.0922257 C61.0287372,31.4179591 60.9994872,30.9872259 60.6077539,30.7055593" id="Path" fill="#C4CDD3" fill-rule="nonzero"></path>
                        </g>
                    </g>
                </g>
            </g>
        </g>
    </g>
</svg>