<?xml version="1.0" encoding="UTF-8"?>
<svg width="80px" height="80px" viewBox="0 0 80 80" version="1.1" xmlns="http://www.w3.org/2000/svg" xmlns:xlink="http://www.w3.org/1999/xlink">
    <title>7FC49888-3E8E-4F14-BCE9-C3ED04EFE0EE</title>
    <g id="Specifications" stroke="none" stroke-width="1" fill="none" fill-rule="evenodd">
        <g id="Teams" transform="translate(-48.000000, -1399.000000)" fill-rule="nonzero">
            <g id="Group-6-Copy-2" transform="translate(48.000000, 1314.000000)">
                <g id="Group-3" transform="translate(0.000000, 48.000000)">
                    <g id="Group" transform="translate(0.000000, 37.000000)">
                        <rect id="Rectangle" x="0" y="0" width="80" height="80" rx="20"></rect>
                        <g id="Group-2">
                            <path d="M2.7737888,53.6629829 C2.1333941,52.7091835 0,49.0818464 0,43.2351335 C0,41.0405807 0.30276086,38.5362366 1.0893843,35.7491089 C1.09750812,35.7306405 1.09968768,35.7161439 1.1016691,35.6954911 L1.44564348,34.3453179 L1.53005194,34.4299147 L1.69470788,33.9344474 C1.97071958,33.10238 2.25901608,32.2270213 2.32697876,32.0226783 C2.37235326,31.8431583 2.62339908,30.8418973 2.82332428,30.1440728 C2.882965,29.9355595 2.9344819,29.7641814 2.98798022,29.6154419 L3.00026501,29.5163484 C3.06426486,28.9982425 3.14649375,28.4986049 3.24338516,28.0154498 C3.27825813,27.7574891 3.32165122,27.5096562 3.35652419,27.2969726 L3.37296997,27.2040352 L3.41002251,27.1194384 C3.43280884,27.0616504 3.4534156,27.0183591 3.46986137,26.9812239 C4.46453383,22.9058811 6.32805863,20.4944744 7.37622941,19.3980916 L7.39069377,19.3857794 L7.40297857,19.3734672 C7.60686661,19.1834222 8.18345961,18.6424791 8.84664063,18.2296228 C9.15138291,17.8290787 10.1418944,16.5428495 11.0499788,15.5209357 C11.3588821,15.1783782 11.6553024,14.8666011 11.9332955,14.6126121 C12.0836852,14.2678701 12.4441054,13.5307259 13.1235341,12.6801902 C14.0215133,11.5550128 15.4897449,10.2254922 17.7301357,9.40176541 C19.4496113,8.2332966 21.2721207,7.19470178 23.1645742,6.30087476 C23.5249944,5.9271395 24.8985142,4.56663986 27.0297287,3.19779969 C29.5090786,1.61031843 33.0324383,0.00198584095 37.1983723,0 C37.3568858,0 37.5175789,0.00198584095 37.6760924,0.00615610696 L39.1938596,0.0494474398 L37.3156723,2.58258616 C38.3145057,2.50831571 39.325624,2.46701022 40.3470456,2.46701022 C45.7339301,2.46701022 50.8759111,3.52407336 55.5566178,5.42968634 L55.579206,5.43782828 L55.5998128,5.44616882 C55.783094,5.53493591 56.1064617,5.69797345 56.4399345,5.90231648 C56.7242682,6.08620536 57.0125647,6.26989564 57.2657901,6.55069355 C57.5869781,6.58584294 58.2727473,6.69923446 59.0409436,7.04417503 L59.0635317,7.0545014 L59.0841385,7.06482778 C64.1520145,9.72803908 68.5648333,13.4338169 72.0101251,17.8952072 L72.0410352,17.9323424 L72.0656048,17.9778182 C72.1191031,18.0685711 72.2550285,18.3432129 72.3703471,18.9212912 C72.4280064,18.9564406 72.5104334,19.0100583 72.6031638,19.0678463 C72.7884265,19.195933 72.9964756,19.336332 73.2003636,19.5426608 L73.2455399,19.5901224 L73.2847721,19.6417543 C77.5226315,25.8125565 80,33.242779 80,41.2345973 C80,48.8072046 77.7738755,55.8823588 73.9271482,61.8529882 L73.9128819,61.8736409 L73.8984176,61.8921093 C73.8365973,61.9727344 73.8098481,61.9995433 73.7521888,62.0511751 C73.7026534,62.102807 73.6410312,62.1544389 73.5605856,62.2161985 C73.445267,62.3049656 73.2928959,62.4082293 73.0993112,62.5259897 C73.0828654,62.6002601 73.0622587,62.6993536 73.0335281,62.8087734 C72.9697264,63.0504503 72.8976027,63.3310496 72.7059995,63.6428266 L72.6956961,63.6593091 L72.6814299,63.6799619 C65.4966056,73.5628965 53.6847711,80 40.3470456,80 C22.9010454,80 8.07844439,68.9879162 2.7737888,53.6629829 Z" id="Path" fill="#FEFEFE"></path>
                            <path d="M72.6334795,20.0943274 C72.4050219,19.8590053 71.8696424,19.5410722 71.8696424,19.5410722 C71.6718968,19.4666031 71.6328628,19.2870831 71.6328628,19.2870831 C71.525668,18.6182519 71.3855817,18.3807453 71.3855817,18.3807453 C68.0084508,14.0101079 63.6840033,10.3786006 58.7171796,7.7650353 C57.8295038,7.36647702 57.0305956,7.32318569 57.0305956,7.32318569 C56.8514753,7.32735595 56.7670668,7.186957 56.7670668,7.186957 C56.4746094,6.77191624 55.5910945,6.32192468 55.2596031,6.16504324 C50.6696454,4.29656549 45.6305,3.26233952 40.3464512,3.26233952 C38.7422941,3.26233952 37.1670658,3.35924856 35.6164071,3.54313743 L37.653108,0.797315143 C29.5025399,0.553652458 23.6522015,6.93912405 23.6522015,6.93912405 L23.6563625,6.94746458 C21.7020887,7.85797265 19.8302419,8.92317774 18.0673732,10.1329521 L18.0715342,10.1226257 C13.8233713,11.6503331 12.5960803,15.085838 12.5960803,15.085838 C11.5189808,15.9899914 9.38558666,18.828751 9.38558666,18.828751 C8.77412068,19.1818335 8.13986838,19.7660679 7.94826514,19.9497582 C6.97023661,20.9696861 5.17645777,23.271673 4.22101741,27.2354115 C4.19624967,27.2995542 4.16533953,27.3634983 4.13660895,27.4316126 C4.09955641,27.6504523 4.05636147,27.9002711 4.02327177,28.1459196 C3.93073949,28.6187483 3.84831245,29.1058751 3.78451075,29.6138532 L3.82354471,29.5600369 C3.80927849,29.6674709 3.79679555,29.731415 3.79679555,29.731415 C3.69792273,29.7975435 3.08645675,32.2419151 3.08645675,32.2419151 C2.98758393,32.5495219 1.87759287,35.8960611 1.87759287,35.8960611 L1.86927091,35.889905 C1.86728949,35.8960611 1.86728949,35.9044016 1.86728949,35.9105577 C-1.05470946,46.1443905 2.82689083,52.3503421 3.48789229,53.3041415 C8.6484987,68.3586032 23.2012305,79.2076495 40.3464512,79.2076495 C53.4289698,79.2076495 65.0020433,72.8922781 72.0426203,63.213885 C72.2423474,62.8959519 72.3432016,62.2559153 72.3432016,62.2559153 C72.349344,62.0432318 72.5078576,61.9483086 72.5078576,61.9483086 C73.051559,61.6551984 73.2390013,61.4528412 73.2615894,61.423848 C77.0320321,55.5751492 79.2088193,48.6548906 79.2088193,41.2330086 C79.2088193,33.4064123 76.7849491,26.1372415 72.6334795,20.0943274" id="Path" fill="#051821"></path>
                            <path d="M24.0360024,12.7395669 C24.1368566,12.6321329 24.229587,12.5350253 24.3098345,12.4462582 C24.4415989,12.3122139 24.4911344,12.2770645 24.5075802,12.2873909 C24.517091,12.2788518 24.5266018,12.2705113 24.5365089,12.2625679 C24.5694004,10.3136636 25.0100681,8.74882091 25.0100681,8.74882091 C28.5417497,3.80209109 34.3714814,2.48905305 34.3714814,2.48905305 C35.0962846,2.28272418 34.6288678,2.60264315 34.6288678,2.60264315 C30.9570998,6.72544756 31.3401081,10.1299733 31.3401081,10.1299733 L34.8430592,22.9444064 C34.8430592,22.9444064 32.0032892,21.9451312 29.8163967,17.4404496 C28.8052785,26.4251884 37.2544464,33.7066714 37.2544464,33.7066714 C37.6229904,34.0246046 37.044416,33.682047 37.044416,33.682047 C34.9274677,32.6227994 32.4913127,30.3891255 31.8261503,29.7614012 C32.0032892,30.4550555 36.1177062,51.184852 36.1280096,51.2428386 C36.1486164,51.3397476 36.2040961,51.5421048 36.2474892,51.6721774 L37.6723277,48.1252668 L38.8502815,58.5924359 C33.494109,63.590599 27.7880179,61.6107156 27.4359197,61.4786572 C27.5738264,61.7058374 27.6808231,61.8688749 27.6808231,61.8688749 C27.6808231,61.8688749 32.3163534,70.9920268 51.1871921,70.0237308 C51.1871921,70.0237308 51.6381631,70.0195605 51.5703986,70.0773485 C51.576541,70.093831 51.5517732,70.1166682 51.4673648,70.1476473 C51.1111056,70.2755354 50.5571008,70.3664869 50.5571008,70.3664869 C27.7735535,76.4650045 15.9678614,57.0007844 15.4572496,56.1335677 C15.3130023,55.9353807 14.2071722,54.3725239 13.5893657,52.7973549 C13.5709385,52.7540635 13.5441894,52.5991679 13.651186,52.7167297 C13.651186,52.7167297 16.0708952,55.2458968 22.9095655,55.8714367 C22.9610824,55.8672664 22.9900112,55.8589259 22.9900112,55.8589259 C17.6996218,49.9482688 15.4530887,45.6644127 15.1215972,45.0098796 C15.1215972,45.0078937 15.1194177,45.0078937 15.1132753,45.0078937 C15.1132753,45.0078937 14.479023,44.049924 13.7252911,41.3350809 C13.7252911,41.3350809 13.7458978,41.1968663 13.8096995,41.3350809 C14.0670859,41.8718537 15.8174717,44.4607945 17.9469029,45.0408587 L17.9508658,45.0408587 C16.1450003,42.1175022 15.0227244,37.4889041 14.8784771,36.8139168 C17.3413812,40.2718616 21.7028812,40.5216804 21.7028812,40.5216804 C21.6967388,40.5071838 21.6905964,40.4990418 21.6802931,40.4845452 C21.6905964,40.5010277 21.6945593,40.5093682 21.6945593,40.5093682 C14.5180569,33.3351206 16.0645546,25.5208364 18.9764484,19.880651 C20.691763,16.5505943 22.8828164,13.9761501 24.0360024,12.7395669 Z" id="Path" fill="#FEFEFE"></path>
                            <path d="M45.5074539,60.2436627 L40.799998,65.2108467 L40.8103014,65.2005203 L46.6214077,60.7288036 L43.6130189,50.3297489 L44.9266999,37.8229226 L42.6306313,49.7683517 L45.5074539,60.2436627 Z M46.5530488,29.6406621 C46.1432913,31.7774269 45.4719864,33.9658237 44.3106766,34.9402758 C44.3950851,34.8969845 44.5001003,34.8431682 44.6195799,34.7710822 C44.9694985,34.5645547 45.4329525,34.2343094 45.9003693,33.7489698 C46.8290605,32.7808724 47.7638941,31.1973628 47.7638941,28.7075154 C47.7638941,27.5968346 47.57665,26.300279 47.1193384,24.7993804 C47.074162,25.6582566 46.9340757,27.6278137 46.5530488,29.6406621 L46.5530488,29.6406621 Z M46.5039096,13.6830399 C48.1451191,11.1973628 50.8406419,10.980509 51.9835245,10.9721684 C50.9951926,10.6810442 50.0787862,10.5757946 49.2592712,10.5757946 C47.5273126,10.5757946 46.2382013,11.0527936 45.7069828,11.2901016 C45.6287167,11.3232651 45.5668964,11.3542442 45.5217201,11.3768828 C45.9437624,11.9672733 46.3598604,13.2247078 46.5039096,13.6830399 L46.5039096,13.6830399 Z M46.5228445,13.960596 L46.6652838,13.9204125 L46.5228445,13.960596 Z M42.4321822,20.3425774 L42.5602017,20.2692602 L42.4321822,20.3425774 L42.4321822,20.3425774 Z M44.4301562,18.9014328 C44.4713697,18.9056031 44.5022799,18.938568 44.5044594,18.9798735 C44.5084223,19.211224 44.5106018,19.4382056 44.5106018,19.6735277 C44.5084223,25.0206031 43.0917075,30.8798268 42.5521671,32.9174982 C44.5969917,28.2289277 45.1468355,23.8521343 45.1468355,20.4910985 C45.1468355,18.5215414 44.9574119,16.903081 44.7679882,15.7757191 C44.6691154,15.1894989 44.5702426,14.7393087 44.5002985,14.4400425 C43.9813648,18.4657393 42.4532942,20.2909257 42.4451704,20.3012521 C42.4287246,20.3238907 42.3997959,20.334217 42.3750282,20.3322312 C42.3462976,20.3280609 42.3237094,20.3115784 42.3092451,20.2867554 C39.7970036,15.6375046 36.0903626,12.8007308 34.3954566,11.6755533 C34.1725469,11.5260195 33.9460707,11.3822446 33.7160279,11.2442286 C38.4975889,21.6595673 39.8956783,29.6968614 40.2560984,32.3435902 C40.2664018,32.0399551 40.2725442,31.7303625 40.2725442,31.4165996 C40.2725442,26.657929 39.0597175,20.9206359 38.4502329,18.3523478 C38.2483263,17.4954574 38.1145805,16.993834 38.1145805,16.993834 L38.1145805,16.9918481 C38.1062586,16.9566987 38.1185434,16.9215494 38.1494535,16.903081 C38.1762027,16.8824283 38.2154348,16.8844141 38.2463449,16.9070527 C40.3942034,18.5793294 41.9034504,23.3340284 42.1691587,24.2155432 C42.5707924,23.7178914 43.0978499,22.4709819 43.5242513,21.3251517 C43.9875072,20.0885685 44.3417849,18.9592208 44.3417849,18.9572349 C44.3540697,18.9200997 44.3849799,18.8994469 44.420051,18.8994469 C44.4240138,18.8994469 44.4281748,18.9014328 44.4303544,18.9014328 L44.4301562,18.9014328 Z" id="Shape" fill="#C4CDD3"></path>
                            <path d="M4.20278835,40.5016234 C4.20476977,45.4545093 5.05539305,50.6385472 9.30553732,57.2531848 L9.31187787,57.2615253 C13.3274221,65.7446407 20.7304007,70.3092947 24.1816367,72.0578277 C25.3306617,72.6420621 26.0370377,72.9125336 26.0431801,72.9147181 C31.526956,75.5056448 36.6853828,76.4594442 41.3064488,76.4594442 C50.9870688,76.4594442 58.3240661,72.2788518 61.3841699,70.1853783 C62.407573,69.4895396 62.9512744,69.0272358 62.9512744,69.0272358 L63.0047727,69.089194 L62.9512744,69.0250514 C63.1551625,68.8578436 63.3075336,68.7236007 63.4186912,68.6245073 C63.3590505,68.6576708 63.2972302,68.694806 63.2373914,68.7319413 C63.0170575,68.8620138 62.8153491,68.9940723 62.8153491,68.9940723 C55.2928909,73.4205118 48.3593106,74.7726709 42.7025568,74.7726709 C33.8374889,74.7726709 28.1004877,71.4590966 28.0963267,71.4571108 C9.30157449,61.5741761 9.02556278,44.4470922 9.02556278,44.4345814 C9.02556278,44.3974462 9.05033053,44.3644812 9.08936448,44.3541549 C9.12641702,44.3458143 9.16346956,44.3622968 9.18209491,44.3974462 C11.6057669,49.1066694 14.5463912,50.7128176 15.8561093,51.2227816 C16.0063009,51.281761 16.1588702,51.334783 16.3132228,51.3816488 C10.8480722,44.4758869 9.28294914,38.6663092 9.28294914,34.2833596 C9.28294914,28.4821225 12.0238464,25.1975415 12.0299888,25.189201 C12.0527751,25.1602077 12.0937905,25.1498813 12.1268802,25.1665624 C12.1639327,25.1830449 12.1803785,25.222166 12.1742361,25.2573153 C11.7829058,27.3011429 11.6325161,29.1076624 11.6305347,30.6705192 C11.6325161,34.4918729 12.5263343,36.8723005 12.9711629,37.8177594 C12.9834477,37.8467527 12.9957325,37.8735615 13.0101969,37.8983845 C12.8497019,36.5611192 12.7692563,35.2153148 12.7692563,33.8685175 C12.7692563,20.9528065 20.3184636,12.9941517 21.9123172,11.4600896 C20.7181159,11.9597271 19.2702928,13.2439705 18.0903577,14.4557306 C16.7828191,15.7955775 15.7964686,17.0405012 15.7942891,17.0426857 C15.7736823,17.0694945 15.7366298,17.0798209 15.7037382,17.0694945 C15.6728281,17.0591681 15.6480603,17.0260046 15.6502399,16.9910538 C15.6625247,15.9649698 16.2452601,14.6745703 16.5624853,14.0510163 C15.590401,14.9367013 14.7853504,16.3242084 14.2107388,17.5359685 C13.5745051,18.8799857 13.2243883,20.0031773 13.2243883,20.007149 L13.2079425,20.0361423 C10.2179809,23.4281572 8.77015784,27.0513241 8.23477837,28.6473444 C8.05565807,29.1819328 7.97957157,29.4833835 7.97957157,29.4833835 C7.91160889,29.7580253 7.87237679,29.894254 7.83532425,29.9623683 C7.81887847,29.9830211 7.81887847,30.0201563 7.74061241,30.0304827 C7.67879213,30.0284968 7.66234635,29.9830211 7.65402439,29.9685244 C7.64590057,29.9500561 7.64372101,29.9355595 7.64173959,29.919077 C7.63757861,29.8859134 7.63559719,29.8467924 7.63559719,29.8033025 C7.63559719,29.6444352 7.65402439,29.4275813 7.65402439,29.4275813 C7.71168369,26.9893658 8.72280192,24.2477138 9.130578,23.2341406 C6.26405879,26.3247049 5.56184381,30.5136378 5.56184381,33.8621628 C5.56184381,35.4456724 5.72055549,36.8413214 5.87688947,37.8344404 C6.03342159,38.8315312 6.18797229,39.4280778 6.18797229,39.4302622 L6.18995371,39.450915 C6.19827567,41.420472 6.58544499,43.8525315 6.96845333,45.7930952 C7.35344309,47.733659 7.73229045,49.1747838 7.73229045,49.172798 C7.86009199,49.5485191 7.90744791,49.721883 7.91160889,49.8148203 C7.90942933,49.8332887 7.90942933,49.8477853 7.90130551,49.8726083 C7.89298355,49.8952469 7.85394959,49.9303963 7.81471749,49.9284104 C7.75091579,49.9200699 7.74259383,49.8952469 7.72198707,49.8787644 C7.70217287,49.8563244 7.68414196,49.8320971 7.66848875,49.8064798 C7.63143621,49.7528621 7.59022269,49.6825633 7.55118873,49.6124631 C7.50165325,49.523696 7.4537029,49.4343332 7.40694141,49.3439774 C5.40550983,46.2698956 4.42926457,41.1994479 4.20694933,39.9215593 C4.20476977,40.1155759 4.20278835,40.3076068 4.20278835,40.501822" id="Path" fill="#C4CDD3"></path>
                            <path d="M48.2907535,16.3101089 L48.2495399,16.2729737 L48.2701467,16.2191574 C49.1885345,13.7583033 53.5068396,11.5699066 54.34498,11.1590361 C52.3352264,10.0277025 50.4096832,9.6891166 48.8096872,9.6891166 C47.5988419,9.6891166 46.5795998,9.88531768 45.8629205,10.0793343 C45.1462411,10.2755354 44.7364836,10.4695521 44.7364836,10.4695521 L44.6788243,10.4985454 L44.6397904,10.4469135 C43.8963619,9.51575268 42.9284386,8.58876213 42.1459761,7.89709372 C41.3964052,7.2344186 40.8217936,6.78641288 40.7724563,6.74927765 C40.6632801,6.67917746 40.593336,6.63568755 40.585014,6.53242382 C40.585014,6.47265001 40.628209,6.43134451 40.6612987,6.41486203 C40.6961717,6.39619513 40.7312428,6.38586876 40.7724563,6.37772681 C40.8527038,6.36323017 40.9474156,6.3590599 41.0318241,6.3590599 C41.1348579,6.3590599 41.2234273,6.36740043 41.2440341,6.36938628 C58.463558,6.3715707 67.6169223,18.7048345 67.6189037,18.7090048 C67.7383833,18.8474179 67.798024,18.9816608 67.798024,19.1095489 C67.7837578,19.4810998 67.3634988,19.6586339 66.98267,19.7783801 C66.5974821,19.8961405 66.2144738,19.9394319 66.2144738,19.9394319 C64.550676,20.1707823 63.0083393,20.2718616 61.5833026,20.2718616 C52.6316467,20.2718616 48.3010568,16.3182509 48.2907535,16.3101089 L48.2907535,16.3101089 Z M42.4215915,66.1771569 C42.3928609,66.1668305 42.3722542,66.1439933 42.3661118,66.1130142 C42.3599694,66.0842195 42.3722542,66.0532404 42.3948424,66.0325877 L48.1710757,61.3730104 L45.2407548,50.4908006 L45.2407548,50.4598215 L46.0501646,43.1638418 C46.052146,43.137033 46.0644308,43.1143944 46.0850376,43.1018836 C46.1056443,43.0875855 46.1304121,43.0834152 46.1530002,43.0915572 C47.4688608,43.4962716 48.0846859,45.2882945 48.4017129,46.9605711 C48.6262077,48.1600191 48.6900094,49.3078351 48.7086348,49.869431 C50.2426496,46.5393743 50.7431561,43.8658366 50.7431561,41.7930158 C50.7431561,38.859333 49.7401616,37.1250981 49.2440143,36.4439546 C49.0791602,36.2187602 48.9721635,36.1115248 48.9721635,36.1115248 C48.9412534,36.0805457 48.9412534,36.0289138 48.9721635,35.9959489 C49.0030737,35.9627853 49.0545906,35.9627853 49.0874821,35.9937645 C55.967366,42.5279755 57.3492078,51.6759505 57.3492078,57.9809955 C57.3492078,62.2400286 56.7191165,65.2088608 56.7191165,65.2108467 L56.7169369,65.221173 C56.4904607,65.8941745 55.7965677,66.0635668 55.7840847,66.067737 C52.9835468,66.6891067 50.5145003,66.8934497 48.4861214,66.8934497 C44.6806076,66.8934497 42.4279321,66.1791427 42.4215915,66.1771569" id="Shape" fill="#007DC5"></path>
                            <path d="M58.5988889,65.3867922 C58.4918923,65.3021953 58.4239296,65.1576261 58.425911,64.9552689 C58.425911,64.864516 58.438394,64.757082 58.4671245,64.63535 C58.4671245,64.6331655 58.6916193,63.7703176 58.9161141,62.2817313 C59.136448,60.791159 59.3609428,58.6853733 59.3609428,56.2078381 C59.3609428,49.6386762 57.7896773,40.4742188 50.4895344,33.3474328 C50.4608038,33.3309503 50.35777,33.2586657 50.2919869,33.1843953 C50.2672192,33.1556006 50.24047,33.1285931 50.2362186,33.0688193 C50.2343276,33.0294997 50.2652377,32.9820381 50.2981293,32.9697259 C50.3310209,32.9532434 50.3599496,32.9510589 50.3948226,32.9510589 C50.4669462,32.9510589 50.565819,32.9675414 50.7243326,33.0068611 C50.730475,33.0110313 52.6702844,33.6014219 54.0335008,35.1352854 C54.021216,35.0403622 54.0047703,34.920616 53.9861449,34.7782312 C53.9245228,34.3860276 53.821489,33.8389284 53.6382077,33.2008777 C53.2758061,31.9229891 52.5983589,30.2878476 51.3627459,28.8612195 C51.3607644,28.8592337 51.189768,28.6797136 51.0970375,28.5557972 C51.068307,28.5061511 51.0415578,28.4896687 51.0332358,28.4195685 C51.0332358,28.4050718 51.0373968,28.3740927 51.059985,28.3514541 C51.0825732,28.3308014 51.1115019,28.3266311 51.1259663,28.3266311 C51.185607,28.3308014 51.2103747,28.3514541 51.2700154,28.3864049 C51.3256933,28.4215543 51.3997984,28.4731862 51.5006526,28.5474566 C51.9373574,28.7601402 70.2749962,37.6541261 70.9173723,55.6174476 C70.9173723,55.6216179 70.9256943,55.7226972 70.9256943,55.8837489 C70.9235147,56.3214282 70.8555521,57.1989713 70.2769776,57.6964245 C70.0998388,57.9194344 65.7547845,63.3387944 59.3609428,65.4197571 C59.3567818,65.4197571 59.1673581,65.4942262 58.9551481,65.4942262 C58.8356685,65.4942262 58.7039041,65.471389 58.5988889,65.3867922 Z" id="Path" fill="#007DC5"></path>
                            <path d="M72.392539,52.7415527 C72.3430035,52.6136646 72.3162543,52.433946 72.3101119,52.1924677 C71.8920325,34.9083038 52.992265,24.0302642 48.2661839,21.5839067 C47.5928976,21.2349945 47.2118707,21.0574603 47.2118707,21.0574603 L46.8803792,20.9047491 L47.2449604,20.9005789 L47.2901367,20.9005789 C49.7675052,20.9025647 51.2850742,22.4034633 51.7360452,22.9217678 L51.7360452,22.9195834 C51.7360452,22.4654215 51.6454944,21.9886211 51.5569249,21.6252122 C51.4641945,21.2598175 51.3736437,21.014169 51.3736437,21.014169 L51.3140029,20.8447767 L51.4808384,20.906735 C53.4596818,21.6623475 56.0089758,21.9121663 58.5089325,21.9121663 C60.9244807,21.9121663 63.2968339,21.6788299 65.0614859,21.4454936 C66.8283175,21.2101715 67.9856644,20.9768352 67.9876459,20.9768352 L67.9918068,20.9748493 L67.9959678,20.9748493 C68.0886982,20.9665088 68.1772677,20.9625371 68.2594966,20.9625371 C69.2644724,20.9603527 69.5856605,21.530289 69.6290536,21.6271981 C71.9909053,24.2697566 74.9170652,30.3930972 75.4072683,37.744879 C75.4669091,38.6698837 75.4958378,39.5637107 75.4958378,40.4287431 C75.4896954,46.8803432 73.9513215,51.5834103 73.0452185,52.6982614 C72.9134541,52.8593131 72.7939745,52.9562221 72.6519067,52.9603924 C72.5304457,52.9603924 72.4398949,52.867455 72.392539,52.7415527 Z" id="Path" fill="#007DC5"></path>
                            <path d="M32.1574436,4.29596974 C32.167747,4.2814731 32.1841927,4.26697646 32.1903351,4.25049398 L32.1841927,4.2526784 C31.9741623,4.31245222 28.209862,5.42531749 27.0937286,11.1832633 C27.0937286,11.1832633 27.0856047,11.2885129 27.1472269,11.1914053 C27.4850589,10.6319939 28.660833,8.84612711 29.7440749,9.37475798 C29.7440749,9.37475798 29.7502173,9.32928222 29.7583412,9.25699761 C29.81818,8.76987082 30.1702782,6.76933464 32.1574436,4.29596974 L32.1574436,4.29596974 Z M29.269525,56.3321518 C28.4561524,54.6930386 23.2297629,43.2452613 23.2297629,43.2452613 C21.6030177,43.765353 19.5849422,42.4380169 19.5849422,42.4380169 L19.5849422,42.444173 C22.1590039,49.2901612 28.2110509,55.277273 29.1769928,56.3651167 C29.1851166,56.3734572 29.1872961,56.3734572 29.191259,56.3796134 C29.356113,56.559332 29.356113,56.4951893 29.356113,56.4951893 C29.3313453,56.4602385 29.3087571,56.4024505 29.269525,56.3321518 Z M24.0883119,19.0539454 C19.3685712,29.8658564 29.9879876,34.3230765 30.128074,34.3788786 L30.132235,34.381063 L29.5701063,31.8912156 L29.2487201,30.4645875 C28.979049,30.3778062 28.7359288,30.2808972 28.4930068,30.1714774 C28.4105798,30.136328 28.3323137,30.0970083 28.2520662,30.0598731 C28.1531934,30.0145959 28.0543206,29.9649499 27.9617883,29.9174883 C23.3222952,27.4441234 23.7710866,21.5211542 24.0574017,19.5990587 C24.0574017,19.5825762 24.0574017,19.5722499 24.0593831,19.5577532 C24.0718661,19.5019511 24.0799899,19.4483334 24.0883119,19.3967015 C24.1170424,19.2169829 24.1398288,19.093265 24.154095,19.0291224 C24.1604355,19.0003277 24.1643984,18.9796749 24.1643984,18.9796749 L24.1643984,18.9735188 C24.1768813,18.8309354 24.1089186,18.9919871 24.0883119,19.0539454 Z" id="Shape" fill="#051821"></path>
                            <path d="M31.0734091,49.4895396 L30.309572,35.9030115 L34.8666381,51.0523964 C34.8666381,51.0523964 33.3716573,47.4725209 31.0734091,49.4895396 Z M31.3490245,10.4270551 L32.3579632,18.5509319 C32.3579632,18.5509319 32.8523273,20.7703077 29.8169912,17.4422369 C32.0038836,21.9449326 34.8436536,22.9461936 34.8436536,22.9461936 L31.3674517,10.230854 C31.3613093,10.2515068 31.3367397,10.2741453 31.3490245,10.4270551 L31.3490245,10.4270551 Z M26.5064359,25.2455989 C26.2223004,24.5765691 26.1089632,23.9655258 26.1089632,23.4184266 C26.1089632,21.4446993 27.5587677,20.3340184 27.5649101,20.3278623 L27.608105,20.2946988 C27.608105,20.3133657 27.5339999,19.0416332 27.6534795,17.0059476 C26.4880087,18.7256859 24.0189622,22.7990428 26.9738527,25.9845303 C26.9264968,25.9205862 26.8852833,25.8608124 26.8442679,25.8030244 C26.6918967,25.5820003 26.5868815,25.4024803 26.5064359,25.2455989 Z" id="Shape" fill="#C4CDD3"></path>
                            <path d="M29.5954685,26.8988115 C29.0929806,26.0172967 27.811993,23.20336 27.612266,20.354274 C27.6102846,20.3356071 27.6083031,20.3129685 27.6083031,20.2964861 L27.5649101,20.3274652 C27.5587677,20.3336213 26.1091613,21.4423163 26.1091613,23.4180295 C26.1091613,23.9651286 26.2244799,24.5781577 26.5064359,25.2450031 C26.5868815,25.4020831 26.6938782,25.5816032 26.8442679,25.8024287 C26.8854814,25.8602167 26.9286763,25.9201891 26.9760323,25.9883034 C27.0295306,26.0586022 27.0933323,26.1225462 27.1634745,26.1968167 C27.6596219,26.74193 28.4999418,27.3033273 29.879604,27.3632997 C29.879604,27.3632997 29.7662668,27.1980777 29.5954685,26.8988115 Z" id="Path" fill="#051821"></path>
                            <path d="M33.7180094,52.7010416 C34.1895871,52.7073963 34.5480259,53.1367351 34.8424648,53.737452 C35.1369037,54.3403533 35.3736833,55.1392571 35.5569646,55.9341892 C35.7856203,56.9209536 35.9318491,57.9118882 36.0101151,58.5147896 C36.0079356,58.7872469 36.0059542,58.9876183 35.9998118,59.1051801 L35.9998118,59.1155064 C36.0984864,58.4589874 37.0582859,52.1086652 33.8396685,51.2146396 C33.8396685,51.2146396 31.5990796,50.6407316 31.743327,55.3209615 C31.7575932,55.2115417 31.7700761,55.1186044 31.7781999,55.0320217 C32.5135046,53.3762275 33.1291316,52.7135524 33.7180094,52.7010416 Z" id="Path" fill="#C4CDD3"></path>
                            <path d="M36.0107096,58.5155839 C35.9982266,58.317397 35.7840352,56.9217479 35.5555776,55.9327991 C35.3722963,55.1380656 35.1374981,54.3411476 34.8408797,53.7382463 C34.5486203,53.1375294 34.1882002,52.7081906 33.7186038,52.7018359 C33.1277446,52.7121623 32.514099,53.3770218 31.7787944,55.032816 C31.733618,55.1525622 31.7439214,55.1690447 31.7439214,55.31977 L32.8517329,57.7683119 C32.8517329,57.7683119 33.4901462,51.2112637 35.9940656,59.0936622 C35.9962452,59.1101447 35.9962452,59.1226555 35.9982266,59.1266271 L35.9982266,59.1123291 L35.9982266,59.1164994 L35.9982266,59.1039886 C36.0065486,58.9884126 36.0332978,58.8438434 36.0107096,58.5155839" id="Shape" fill="#051821"></path>
                        </g>
                    </g>
                </g>
            </g>
        </g>
    </g>
</svg>