<?xml version="1.0" encoding="UTF-8"?>
<svg width="80px" height="80px" viewBox="0 0 80 80" version="1.1" xmlns="http://www.w3.org/2000/svg" xmlns:xlink="http://www.w3.org/1999/xlink">
    <title>A0BF6425-DEB9-4E0F-BEC0-B9C3F901DB0F</title>
    <defs>
        <polygon id="path-1" points="-6.83155323e-15 31.7459834 80 31.7459834 80 0 -6.83155323e-15 0"></polygon>
    </defs>
    <g id="Specifications" stroke="none" stroke-width="1" fill="none" fill-rule="evenodd">
        <g id="Teams" transform="translate(-624.000000, -797.000000)">
            <g id="Group-6-Copy-5" transform="translate(624.000000, 712.000000)">
                <g id="Group-3" transform="translate(0.000000, 48.000000)">
                    <g id="Assets-exportable/Logos/Club-logos/West-Conference/New-Orleans-Pelicans/transparent" transform="translate(0.000000, 37.000000)">
                        <g id="Group" fill-rule="nonzero">
                            <rect id="Rectangle" x="0" y="0" width="80" height="80" rx="20"></rect>
                        </g>
                        <g id="Group-2" transform="translate(0.000000, 24.000000)">
                            <g id="Clipped">
                                <mask id="mask-2" fill="white">
                                    <use xlink:href="#path-1"></use>
                                </mask>
                                <g id="Path"></g>
                                <path d="M78.8776608,9.27099629 C68.3846544,3.14828651 53.1350064,0.11986147 46.0311311,0 C44.3078821,0 43.5116366,0.813070989 43.145322,1.49778765 C42.9987,1.77404591 42.8998303,2.06264284 42.8485527,2.36085433 C42.456439,2.11520242 42.1340309,1.95255617 42.1144813,1.94149943 L41.0568801,1.40725058 L41.1498208,2.01985807 C40.7248574,1.78878823 40.3242509,1.54906528 40.3205653,1.54666165 L40.0092139,1.35837658 L39.6965806,1.54425801 C39.6965806,1.54425801 39.2825137,1.78878823 38.8525828,2.02097976 L38.9479272,1.403565 L37.8877621,1.94149943 C37.8670908,1.95255617 37.5446826,2.11520242 37.152569,2.36085433 C37.1012914,2.06264284 37.0011397,1.77276396 36.854678,1.49650571 C36.490767,0.813070989 35.6945215,0 33.8687172,0 C26.8648334,0.11986147 11.6164673,3.14828651 1.11128248,9.27836745 L-6.83155323e-15,9.96548775 L0.185560939,10.4410878 C0.227063775,10.546207 1.12474286,12.7763033 3.29971577,13.830219 L3.43415932,14.0502321 C3.49024423,14.1394872 4.63581863,15.9708999 6.52027169,16.8096097 L6.65086942,17.02113 C6.71320379,17.1214419 8.02719317,19.204756 10.5796977,20.0849686 L10.8654102,20.3943971 C10.9460123,20.4810884 12.6093305,22.2514487 15.2789724,22.9079627 L15.2546155,22.9263906 L15.9665734,23.4019906 C16.0482971,23.4569538 17.7507146,24.5768894 20.3727644,25.1233167 L20.0490743,25.4119136 L21.0090878,25.7628449 C21.2435227,25.8495362 26.601074,27.7740499 31.4311067,26.2958119 C32.9784093,29.57726 36.3527981,31.7463039 40.0018428,31.7463039 C43.6496055,31.7463039 47.0227124,29.57726 48.570015,26.2958119 C53.3963621,27.7740499 58.757599,25.8495362 58.9921942,25.7628449 L59.9507655,25.4119136 L59.6283573,25.1245986 C62.2491252,24.5768894 63.9515426,23.4569538 64.0334266,23.4019906 L64.7453845,22.9263906 L64.7221493,22.9079627 C67.3906695,22.2514487 69.0539877,20.4810884 69.1345898,20.3943971 L69.4178987,20.0862506 C71.9728068,19.2060379 73.2867962,17.1214419 73.3478486,17.02113 L73.4784464,16.8108917 C75.3641814,15.9721819 76.5108775,14.1394872 76.5658407,14.0502321 L76.7014059,13.830219 C78.8763788,12.7763033 79.772776,10.546207 79.8142788,10.4410878 L80,9.96548775 L78.8776608,9.27099629 L78.8776608,9.27099629 Z" id="Path" fill="#FEFEFE" fill-rule="nonzero" mask="url(#mask-2)"></path>
                            </g>
                            <path d="M79.2460585,10.2178699 L78.5695142,9.79851495 C68.1646413,3.7270828 53.0577695,0.729264106 46.1223092,0.611806275 L46.0308106,0.611806275 C44.8902038,0.611806275 44.1000475,1.0068043 43.6846986,1.78430143 C43.3342481,2.44578292 43.3746292,3.1083861 43.5456081,3.66955571 C43.4259068,3.53270852 43.2525243,3.38720823 43.0631176,3.24779716 C42.5001853,2.82235304 41.8382231,2.48728575 41.8382231,2.48728575 C41.8382231,2.48728575 41.9249143,3.03499498 41.7234894,2.96785333 C41.629427,2.93852893 41.5134113,2.888373 41.3852172,2.8297242 C40.8221247,2.55939492 40.0063296,2.07049473 40.0063296,2.07049473 C40.0063296,2.07049473 39.178356,2.55939492 38.6165454,2.8297242 C38.4883514,2.888373 38.3710538,2.93852893 38.2771516,2.96785333 C38.0755664,3.03499498 38.1635396,2.48728575 38.1635396,2.48728575 C38.1635396,2.48728575 37.5015774,2.82235304 36.9373632,3.24779716 C36.7481166,3.38720823 36.5747341,3.53270852 36.4550329,3.66955571 C36.6260118,3.1083861 36.6675146,2.44578292 36.3157821,1.78430143 C35.9005935,1.0068043 35.1104372,0.611806275 33.9698303,0.611806275 L33.8781716,0.611806275 C26.9427113,0.729264106 11.8359997,3.7270828 1.43224842,9.79851495 L0.754422195,10.2178699 C0.754422195,10.2178699 1.77532785,12.8219725 4.297226,13.5629343 L3.95398634,13.7292661 C3.95398634,13.7292661 5.37918408,16.0436501 7.59453813,16.5240574 L7.17085668,16.700164 C7.17085668,16.700164 8.73274137,19.22719 11.760205,19.7615991 L11.3132883,19.9779266 C11.3132883,19.9779266 13.4736792,22.3155457 16.7868553,22.5246623 L16.3056467,22.8925794 C16.3056467,22.8925794 18.5014512,24.357357 21.7389928,24.7252741 L21.2188453,25.1886957 C21.2188453,25.1886957 26.9598572,27.2902775 31.7679367,25.5383451 C33.0941045,28.8773203 36.3535993,31.1341771 39.9991187,31.1341771 L40.0015223,31.1341771 C43.6468814,31.1341771 46.9063763,28.8773203 48.2327043,25.5383451 C53.0406235,27.2902775 58.7817956,25.1886957 58.7817956,25.1886957 L58.2614879,24.7252741 C61.4990295,24.357357 63.694834,22.8925794 63.694834,22.8925794 L63.2136254,22.5246623 C66.5269618,22.3155457 68.6860707,19.9779266 68.6860707,19.9779266 L68.2402758,19.7615991 C71.2677394,19.22719 72.8285024,16.700164 72.8285024,16.700164 L72.4059426,16.5240574 C74.6212966,16.0436501 76.0464944,13.7292661 76.0464944,13.7292661 L75.7032547,13.5629343 C78.2251529,12.8219725 79.2460585,10.2178699 79.2460585,10.2178699 Z" id="Path" fill="#B49759" fill-rule="nonzero"></path>
                            <path d="M78.151281,10.5175235 C67.9733116,4.58181687 53.0204329,1.56204494 46.1107717,1.4445871 C45.2778306,1.43112673 44.7112128,1.63415411 44.4205327,2.17689582 C43.9393241,3.08162558 44.6182721,4.09147449 44.9078305,4.52685366 C45.5342188,5.46090781 46.3634743,6.92312161 46.3634743,8.68114325 C46.3634743,12.0911059 43.6095449,14.6133246 40.2181703,14.6133246 C40.1449394,14.6133246 40.0728303,14.6144463 40.0008813,14.6144463 C39.9274902,14.6144463 39.8555413,14.6133246 39.7821502,14.6133246 C36.3920576,14.6133246 33.6368462,12.0911059 33.6381281,8.68114325 C33.6381281,6.92312161 34.4673836,5.46090781 35.0926503,4.52685366 C35.3820484,4.09147449 36.0622783,3.08162558 35.579948,2.17689582 C35.2905499,1.63415411 34.7237718,1.43112673 33.889709,1.4445871 C26.9798875,1.56204494 12.0282908,4.58181687 1.84919969,10.5175235 C1.85769255,10.5431623 3.48078992,13.3233716 6.72073519,13.0862125 C6.22125899,13.329621 5.72290448,13.5789585 5.22711385,13.8356672 C5.23576695,13.8662735 6.71336403,16.300519 10.2818067,15.9483057 C9.68714634,16.2295315 9.09601136,16.5157248 8.50615832,16.8128146 C8.51352948,16.8458246 10.2183506,19.2384069 13.9773217,19.1760726 C13.1115309,19.6149771 12.5875375,19.8937992 12.5912231,19.8925173 C12.5936268,19.9107849 15.075304,22.314424 19.0869777,21.6531028 C18.6535214,21.9697422 18.2162194,22.3059312 17.6984755,22.667759 C17.6997574,22.6740084 20.645337,24.2852479 24.1112244,23.784009 C23.6627053,24.1237233 23.2161092,24.4661618 22.7715962,24.8110039 C22.7629431,24.7658154 28.0789916,26.2684104 31.8600762,24.6020475 C35.1134818,23.1665942 36.9208582,19.6503907 37.3336431,18.7652105 C37.9760557,18.9070252 38.5365844,18.9890695 38.9639514,19.0390651 C38.9628297,19.0855355 39.6528344,19.1454662 40.0008813,19.1308842 C40.3476463,19.1454662 41.0389329,19.0855355 41.037651,19.0390651 C41.4638963,18.9890695 42.0257069,18.9070252 42.6668376,18.7652105 C43.0783406,19.6503907 44.8869989,23.1665942 48.1404046,24.6020475 C51.9213289,26.2684104 57.2362557,24.7658154 57.2288845,24.8110039 C56.784692,24.4655208 56.3382561,24.1232426 55.8892563,23.784009 C59.3551437,24.2852479 62.3007233,22.6740084 62.3007233,22.667759 C61.7853831,22.3059312 61.3469593,21.9697422 60.9133428,21.6531028 C64.9251767,22.314424 67.4066937,19.9107849 67.4090974,19.8925173 C67.412783,19.8937992 66.8889499,19.6149771 66.0229988,19.1760726 C69.7819699,19.2384069 71.4869512,16.8458246 71.4941622,16.8128146 C70.9055911,16.5157248 70.3133344,16.2295315 69.7197958,15.9483057 C73.2869565,16.300519 74.7647138,13.8662735 74.7720849,13.8356672 C74.2777365,13.5797598 73.7801832,13.3299415 73.2797455,13.0862125 C76.5196908,13.3233716 78.1426279,10.5431623 78.151281,10.5175235 Z" id="Path" fill="#002A5B" fill-rule="nonzero"></path>
                            <path d="M37.0714862,16.9696921 C37.0714862,16.9696921 27.9756351,13.9217175 31.9275383,4.22399513 C31.9275383,4.22399513 22.3115397,4.62380043 9.12934182,9.94834179 C9.12934182,9.94834179 8.20490222,10.3334048 7.66632682,10.5264971 C7.12662972,10.7197497 6.25955697,11.0645918 5.01623458,10.4678483 C5.01623458,10.4678483 17.0724076,4.15797517 32.5625797,2.69463968 C34.6045513,2.5013871 34.8743998,2.81065533 34.3347027,3.58222349 C33.8925934,4.21422033 28.3614993,11.2600878 37.0714862,16.9696921 Z" id="Path" fill="#FEFEFE" fill-rule="nonzero"></path>
                            <path d="M28.990772,6.97039318 C21.1968921,7.98520961 13.5751127,10.7030845 13.5751127,10.7030845 C14.8732381,13.0137829 18.3928067,12.0441549 18.3928067,12.0441549 C24.9960841,10.172361 27.9429456,9.53780023 28.8882168,9.35448269 C28.8516814,8.61848839 28.8821275,7.8238453 28.990772,6.97039318 L28.990772,6.97039318 Z M29.0487799,10.7695852 C27.7468087,11.0213263 22.2903876,12.1425438 16.7862143,14.20743 C16.7862143,14.20743 18.5216418,16.185625 21.9642939,15.2075042 C24.8598779,14.3859403 28.5723786,13.1999848 29.6801357,12.8442462 C29.402916,12.2194603 29.1867487,11.5288146 29.0487799,10.7695852 Z M30.2579706,13.9382225 C29.0819501,14.3184782 23.2016874,16.2258459 20.7188884,17.1794497 C20.7188884,17.1794497 22.1428042,19.0916247 26.2547898,17.471572 C29.1186456,16.3431435 30.6963943,15.6842259 31.3924882,15.3858542 C30.9785816,14.9567245 30.595121,14.4750352 30.2579706,13.9382225 Z M32.3004228,16.2175133 C31.2732677,16.6636287 27.4569298,18.3325555 25.2502288,19.3975279 C25.2502288,19.3975279 28.0272332,20.7643973 31.5213233,18.6027245 L33.6938926,17.1759243 C33.2211769,16.8996661 32.7510251,16.5817448 32.3004228,16.2175133 Z M34.7505323,17.7314855 C34.0520348,18.1678261 31.1577328,19.990746 29.7447135,21.0361688 C29.7447135,21.0361688 32.1432248,22.0288717 34.6040706,19.7083985 C35.4051234,18.9539763 35.8424254,18.5261286 36.0829496,18.2815983 C35.6591079,18.1287269 35.2109093,17.947813 34.7505323,17.7314855 Z" id="Shape" fill="#B49759" fill-rule="nonzero"></path>
                            <path d="M42.9296355,16.9696921 C42.9296355,16.9696921 52.0254866,13.9217175 48.0734232,4.22399513 C48.0734232,4.22399513 57.689582,4.62380043 70.8704979,9.94834179 C70.8704979,9.94834179 71.7949375,10.3334048 72.3346346,10.5264971 C72.874492,10.7197497 73.7415647,11.0645918 74.9836052,10.4678483 C74.9836052,10.4678483 62.9274321,4.15797517 47.4383817,2.69463968 C45.3952885,2.5013871 45.1265616,2.81065533 45.665137,3.58222349 C46.1085283,4.21422033 51.6394621,11.2600878 42.9296355,16.9696921" id="Path" fill="#FEFEFE" fill-rule="nonzero"></path>
                            <path d="M51.0097087,6.97039318 C58.8035886,7.98520961 66.425368,10.7030845 66.425368,10.7030845 C65.1283643,13.0137829 61.6075138,12.0441549 61.6075138,12.0441549 C55.0042364,10.172361 52.0586568,9.53780023 51.1133857,9.35448269 C51.1500812,8.61848839 51.1183532,7.8238453 51.0097087,6.97039318 L51.0097087,6.97039318 Z M50.9523418,10.7695852 C52.2530311,11.0213263 57.7094521,12.1425438 63.2149074,14.20743 C63.2149074,14.20743 61.478198,16.185625 58.0368278,15.2075042 C55.1412438,14.3859403 51.4285829,13.1999848 50.320986,12.8442462 C50.5969237,12.2194603 50.813091,11.5288146 50.9523418,10.7695852 Z M49.7429909,13.9382225 C50.9178897,14.3184782 56.7994343,16.2258459 59.2809514,17.1794497 C59.2809514,17.1794497 57.8583175,19.0916247 53.7463319,17.471572 C50.8824761,16.3431435 49.3047274,15.6842259 48.6084732,15.3858542 C49.0225401,14.9567245 49.4060007,14.4750352 49.7431511,13.9382225 L49.7429909,13.9382225 Z M47.7006989,16.2175133 C48.7276937,16.6636287 52.5441919,18.3325555 54.7508929,19.3975279 C54.7508929,19.3975279 51.9737282,20.7643973 48.4785165,18.6027245 L46.3072291,17.1759243 C46.7797846,16.8996661 47.2488147,16.5817448 47.7006989,16.2175133 Z M45.2504291,17.7314855 C45.9490869,18.1678261 48.8433889,19.990746 50.2564082,21.0361688 C50.2564082,21.0361688 47.8566149,22.0288717 45.3946475,19.7083985 C44.5958381,18.9539763 44.1586963,18.5261286 43.9181721,18.2815983 C44.3418536,18.1287269 44.7900521,17.947813 45.2504291,17.7314855 Z" id="Shape" fill="#B49759" fill-rule="nonzero"></path>
                            <path d="M47.448477,22.2636271 C47.448477,26.3837851 44.1144693,29.7227603 40.0000801,29.7227603 C35.8856909,29.7227603 32.5518435,26.3837851 32.5518435,22.2636271 C32.5518435,18.1458729 35.8858512,14.8057759 40.0000801,14.8057759 C44.1144693,14.8057759 47.448477,18.1458729 47.448477,22.2636271 Z" id="Path" fill="#FEFEFE" fill-rule="nonzero"></path>
                            <path d="M45.9075841,23.8062827 C45.9075841,27.0755524 43.2624594,29.7224398 40.0004006,29.7224398 C36.7372202,29.7224398 34.0933774,27.0755524 34.0933774,23.8062827 C34.0933774,20.5406986 36.7373804,17.8925293 40.0004006,17.8925293 C43.2624594,17.8925293 45.9075841,20.5406986 45.9075841,23.8062827 Z" id="Path" fill="#B49759" fill-rule="nonzero"></path>
                            <path d="M43.920736,27.907532 C43.6214028,27.6727766 43.1964394,27.2571073 43.1208049,26.7436899 C43.1134337,26.6983413 43.1097482,26.6531529 43.1036589,26.6066825 C44.6179516,25.9710001 45.8966876,24.8754214 46.7613567,23.4718564 C46.435263,25.3021475 45.3861546,26.8829408 43.9205758,27.907532 L43.920736,27.907532 Z M33.2384831,23.4657672 C34.1031522,24.8730177 35.3817279,25.9697182 36.8985845,26.6066825 C36.8924952,26.6531529 36.8888097,26.6983413 36.8814385,26.7448116 C36.804522,27.2595109 36.3806804,27.6740585 36.0815074,27.907532 C34.6135249,26.8829408 33.5632948,25.2997438 33.2384831,23.4657672 Z M34.8211993,17.7537592 C34.5146552,19.4520103 35.2181202,21.0523533 35.8629365,22.515849 C36.3111351,23.5354727 36.7409057,24.5135936 36.8790349,25.5038929 C35.1057902,24.6174308 33.7587908,22.9951346 33.2567507,20.9619764 C33.490064,19.7491001 34.0420997,18.6487142 34.8211993,17.7537592 Z M42.0888425,25.9073838 C41.5783096,26.0711517 41.0447017,26.1788348 40.4963515,26.2190557 L40.4963515,15.4063652 C41.5978592,15.4858456 42.6274179,15.8245984 43.5249368,16.3636546 C44.8879604,18.3344784 44.1197573,20.0939422 43.2294494,22.1147617 C42.6958415,23.327638 42.148613,24.574646 42.0888425,25.9073838 Z M40.4963515,27.2130405 C41.065373,27.1789089 41.6174088,27.0872501 42.148613,26.9417498 C42.2598214,27.5811178 42.6541784,28.0897278 43.0206533,28.4380953 C42.2487646,28.8196329 41.396274,29.0580739 40.4963515,29.1228119 L40.4963515,27.2130405 Z M37.8534702,26.9417498 C38.3848346,27.0872501 38.9367102,27.1789089 39.5034883,27.2130405 L39.5034883,29.1228119 C38.6045273,29.0580739 37.7521968,28.8196329 36.9803082,28.4380953 C37.3479047,28.0897278 37.742422,27.5811178 37.8534702,26.9417498 Z M36.4771464,16.3636546 C37.3735435,15.8245984 38.4043842,15.4858456 39.5034883,15.4063652 L39.5034883,26.2190557 C38.9551381,26.1812384 38.4226519,26.0772409 37.9134009,25.9195622 C37.8571557,24.5820172 37.3076838,23.3326056 36.7715121,22.1147617 C35.8800824,20.093782 35.1130011,18.3344784 36.4771464,16.3636546 Z M46.7453324,20.9680657 C46.2495418,22.9584391 44.8879604,24.5832991 43.1256122,25.4806577 C43.2672666,24.4977296 43.693512,23.5269798 44.138025,22.515849 C44.7828412,21.0512316 45.4863063,19.4507284 45.1784802,17.7537592 C45.9601437,18.6511178 46.5121794,19.7527857 46.7453324,20.9680657 Z M40.0004006,14.2253772 C35.57466,14.2253772 31.9732074,17.8321178 31.9732074,22.2639476 C31.9732074,26.6959376 35.57466,30.3013963 40.0005608,30.3013963 C44.4274231,30.3013963 48.0288757,26.6959376 48.0288757,22.2639476 C48.0288757,17.8321178 44.4274231,14.2253772 40.0005608,14.2253772 L40.0004006,14.2253772 Z" id="Shape" fill="#002A5B" fill-rule="nonzero"></path>
                            <path d="M42.3852913,3.79198106 C42.3852913,3.79198106 42.3253606,4.04516438 42.1715277,4.04516438 C42.0176948,4.04516438 41.0539957,3.58174276 40.5912151,3.32984138 C40.3933155,3.22344029 40.1160958,3.06207598 40.0196297,3.00583083 C40.0196297,3.00583083 39.6068448,3.22344029 39.4091054,3.32984138 C38.9461645,3.58174276 37.9839076,4.04516438 37.8287928,4.04516438 C37.6749599,4.04516438 37.6150292,3.79198106 37.6150292,3.79198106 C37.6150292,3.79198106 35.0859201,5.32021481 35.0859201,9.54308824 C35.0859201,12.6864072 36.7199139,14.1132074 36.7199139,14.1132074 L36.9421704,15.0020731 L43.0568681,15.0020731 L43.2791246,14.1132074 C43.2791246,14.1132074 44.9144004,12.6864072 44.9144004,9.54308824 C44.9144004,5.32021481 42.3852913,3.79198106 42.3852913,3.79198106 Z" id="Path" fill="#002A5B" fill-rule="nonzero"></path>
                            <path d="M43.5903157,8.47587247 C43.5903157,7.17149765 43.0603934,6.10780722 42.4888081,5.47436819 C42.4888081,5.47436819 42.4692585,5.84853468 41.8463954,5.43158342 C41.309102,5.06126275 40.6764642,4.84477499 39.9975162,4.84477499 C39.3147225,4.84477499 38.680963,5.06238445 38.1423876,5.4341473 C37.5414778,5.8437274 37.5121534,5.47452844 37.5121534,5.47452844 C36.94185,6.10780722 36.4106457,7.17149765 36.4106457,8.47603271 C36.4106457,9.56039444 36.675687,10.0935216 36.7684675,10.2462328 C37.3046392,11.6265626 38.5478014,12.5949087 39.9975162,12.5949087 C41.4288032,12.5949087 42.6597869,11.6473942 43.2068552,10.2890176 C43.2385832,10.2451111 43.5903157,9.72544432 43.5903157,8.47587247 Z" id="Path" fill="#FEFEFE" fill-rule="nonzero"></path>
                            <path d="M41.3510855,11.4238557 C41.3475602,11.4164846 41.3413107,11.4091134 41.3377854,11.4017422 C41.3377854,11.4017422 40.9823673,10.7341715 41.5672528,10.2720319 C41.5672528,10.2720319 42.8911772,10.5484504 42.9229053,8.79155041 C42.9229053,8.79155041 42.8911772,8.60438704 43.0767382,8.23647002 C43.0767382,8.23647002 42.7373443,7.92720178 41.9984657,8.48340387 C41.2583051,9.03608063 40.8589805,10.6095028 40.458374,10.2403038 C40.062735,9.87350849 40.208075,7.82560797 40.0016825,7.74740958 L39.9943114,7.74740958 C39.7904828,7.82688991 39.9356626,9.87350849 39.5389019,10.2403038 C39.1395773,10.6095028 38.7376889,9.03608063 37.9988102,8.48340387 C37.2588098,7.92720178 36.9216594,8.23647002 36.9216594,8.23647002 C37.1060986,8.60438704 37.0743706,8.79155041 37.0743706,8.79155041 C37.1060986,10.5484504 38.4300231,10.2720319 38.4300231,10.2720319 C39.0161905,10.7341715 38.6620544,11.4043061 38.6620544,11.4043061 C38.6583688,11.411517 38.6534012,11.4188882 38.6497157,11.4249774 C37.0695633,9.72560457 36.1510527,9.95667441 36.6042188,11.8601963 C37.0500137,13.7308685 38.7596421,21.7585424 39.0307726,23.6205615 C38.9942373,25.2954173 38.8000232,25.8932824 38.7498673,26.0216368 L38.5764848,26.3677608 L38.7670133,26.7478563 C39.0685898,27.1867608 39.2762643,27.6771031 39.3507771,27.8641063 L40.0029645,29.5219763 L40.6489024,27.8677918 C40.7258189,27.6771031 40.9347752,27.186921 41.2339482,26.7478563 L41.4329695,26.3860284 L41.2534978,26.0229187 C41.2022202,25.896968 41.0140953,25.3212163 40.9713106,23.7061311 C41.1961309,22.0372043 42.9437368,13.7625966 43.3967427,11.8601963 C43.8486268,9.95667441 42.9313981,9.72560457 41.3510855,11.4238557 Z" id="Path" fill="#002A5B" fill-rule="nonzero"></path>
                            <path d="M38.9290185,19.7933271 C38.3611187,16.8065651 37.9142021,14.5960184 37.5526948,12.9932718 C37.2778787,11.7693388 38.0130718,12.2583992 38.4087108,13.0237179 L38.9290185,19.7933271 Z M41.0721032,19.7933271 C41.640003,16.8065651 42.0869196,14.5960184 42.4484269,12.9932718 C42.723243,11.7693388 41.9880499,12.2583992 41.5924109,13.0237179 L41.0721032,19.7933271 L41.0721032,19.7933271 Z M38.0316599,9.67576911 C37.9204516,9.64516278 37.8533099,9.52914713 37.8863199,9.41537488 C37.8984983,9.3725901 37.9254191,9.33829818 37.9582688,9.31025573 C37.883756,9.22708981 37.7970648,9.1428022 37.6921058,9.06812915 C37.6921058,9.06812915 37.5076666,9.93247777 38.2782733,9.8396973 C38.2782733,9.8396973 38.2515128,9.76262061 38.1939857,9.65253394 C38.1463936,9.68073664 38.0890268,9.69051143 38.0316599,9.67576911 L38.0316599,9.67576911 Z M42.3077339,9.06812915 C42.2026148,9.1428022 42.1159235,9.22708981 42.0414107,9.31025573 C42.0757026,9.33829818 42.1024631,9.3725901 42.1159235,9.41665682 C42.1465298,9.52914713 42.079228,9.64516278 41.9681798,9.67576911 C41.910813,9.69051143 41.8534461,9.68185833 41.8069758,9.65381588 C41.7496089,9.76133867 41.7226881,9.8396973 41.7226881,9.8396973 C42.4932948,9.93247777 42.3077339,9.06812915 42.3077339,9.06812915 Z M40.3614272,20.9014047 C40.6056369,16.2872188 40.9732335,13.0181094 40.9732335,12.609651 C40.9732335,12.4654327 40.9573695,12.2771476 40.896317,12.0717166 L40.6288721,12.9495256 L40.5457062,11.3980567 C40.4114229,11.2245139 40.2282656,11.0508109 39.9962343,10.8846393 L39.981492,10.8846393 C39.7507426,11.0508109 39.5882566,11.2245139 39.4526914,11.3980567 L39.3733713,12.9495256 L39.1035227,12.0705949 C39.043592,12.2771476 39.0266063,12.4654327 39.0266063,12.609651 C39.0266063,13.0181094 39.3929209,16.2872188 39.6371306,20.9014047 C39.8826223,25.5167123 39.3110369,26.3749717 39.3110369,26.3749717 C39.6420981,26.8542573 39.9999199,27.7077095 39.9999199,27.7077095 C39.9999199,27.7077095 40.3577416,26.8542573 40.6886426,26.3749717 C40.6886426,26.3749717 40.1170572,25.5167123 40.3614272,20.9014047 Z" id="Shape" fill="#E21836" fill-rule="nonzero"></path>
                            <path d="M78.151281,10.5175235 C67.9733116,4.58181687 53.0204329,1.56204494 46.1107717,1.4445871 C45.2778306,1.43112673 44.7112128,1.63415411 44.4205327,2.17689582 C43.9393241,3.08162558 44.6182721,4.09147449 44.9078305,4.52685366 C45.5342188,5.46090781 46.3634743,6.92312161 46.3634743,8.68114325 C46.3634743,12.0911059 43.6095449,14.6133246 40.2181703,14.6133246 C40.1449394,14.6133246 40.0728303,14.6144463 40.0008813,14.6144463 C39.9274902,14.6144463 39.8555413,14.6133246 39.7821502,14.6133246 C36.3920576,14.6133246 33.6368462,12.0911059 33.6381281,8.68114325 C33.6381281,6.92312161 34.4673836,5.46090781 35.0926503,4.52685366 C35.3820484,4.09147449 36.0622783,3.08162558 35.579948,2.17689582 C35.2905499,1.63415411 34.7237718,1.43112673 33.889709,1.4445871 C26.9798875,1.56204494 12.0282908,4.58181687 1.84919969,10.5175235 C1.85769255,10.5431623 3.48078992,13.3233716 6.72073519,13.0862125 C6.22125899,13.329621 5.72290448,13.5789585 5.22711385,13.8356672 C5.23576695,13.8662735 6.71336403,16.300519 10.2818067,15.9483057 C9.68714634,16.2295315 9.09601136,16.5157248 8.50615832,16.8128146 C8.51352948,16.8458246 10.2183506,19.2384069 13.9773217,19.1760726 C13.1115309,19.6149771 12.5875375,19.8937992 12.5912231,19.8925173 C12.5936268,19.9107849 15.075304,22.314424 19.0869777,21.6531028 C18.6535214,21.9697422 18.2162194,22.3059312 17.6984755,22.667759 C17.6997574,22.6740084 20.645337,24.2852479 24.1112244,23.784009 C23.6627053,24.1237233 23.2161092,24.4661618 22.7715962,24.8110039 C22.7629431,24.7658154 28.0789916,26.2684104 31.8600762,24.6020475 C35.1134818,23.1665942 36.9208582,19.6503907 37.3336431,18.7652105 C37.9760557,18.9070252 38.5365844,18.9890695 38.9639514,19.0390651 C38.9628297,19.0855355 39.6528344,19.1454662 40.0008813,19.1308842 C40.3476463,19.1454662 41.0389329,19.0855355 41.037651,19.0390651 C41.4638963,18.9890695 42.0257069,18.9070252 42.6668376,18.7652105 C43.0783406,19.6503907 44.8869989,23.1665942 48.1404046,24.6020475 C51.9213289,26.2684104 57.2362557,24.7658154 57.2288845,24.8110039 C56.784692,24.4655208 56.3382561,24.1232426 55.8892563,23.784009 C59.3551437,24.2852479 62.3007233,22.6740084 62.3007233,22.667759 C61.7853831,22.3059312 61.3469593,21.9697422 60.9133428,21.6531028 C64.9251767,22.314424 67.4066937,19.9107849 67.4090974,19.8925173 C67.412783,19.8937992 66.8889499,19.6149771 66.0229988,19.1760726 C69.7819699,19.2384069 71.4869512,16.8458246 71.4941622,16.8128146 C70.9055911,16.5157248 70.3133344,16.2295315 69.7197958,15.9483057 C73.2869565,16.300519 74.7647138,13.8662735 74.7720849,13.8356672 C74.2777365,13.5797598 73.7801832,13.3299415 73.2797455,13.0862125 C76.5196908,13.3233716 78.1426279,10.5431623 78.151281,10.5175235 Z" id="Path" fill="#002A5B" fill-rule="nonzero"></path>
                            <path d="M37.0714862,16.9696921 C37.0714862,16.9696921 27.9756351,13.9217175 31.9275383,4.22399513 C31.9275383,4.22399513 22.3115397,4.62380043 9.12934182,9.94834179 C9.12934182,9.94834179 8.20490222,10.3334048 7.66632682,10.5264971 C7.12662972,10.7197497 6.25955697,11.0645918 5.01623458,10.4678483 C5.01623458,10.4678483 17.0724076,4.15797517 32.5625797,2.69463968 C34.6045513,2.5013871 34.8743998,2.81065533 34.3347027,3.58222349 C33.8925934,4.21422033 28.3614993,11.2600878 37.0714862,16.9696921 Z" id="Path" fill="#FEFEFE" fill-rule="nonzero"></path>
                            <path d="M28.990772,6.97039318 C21.1968921,7.98520961 13.5751127,10.7030845 13.5751127,10.7030845 C14.8732381,13.0137829 18.3928067,12.0441549 18.3928067,12.0441549 C24.9960841,10.172361 27.9429456,9.53780023 28.8882168,9.35448269 C28.8516814,8.61848839 28.8821275,7.8238453 28.990772,6.97039318 L28.990772,6.97039318 Z M29.0487799,10.7695852 C27.7468087,11.0213263 22.2903876,12.1425438 16.7862143,14.20743 C16.7862143,14.20743 18.5216418,16.185625 21.9642939,15.2075042 C24.8598779,14.3859403 28.5723786,13.1999848 29.6801357,12.8442462 C29.402916,12.2194603 29.1867487,11.5288146 29.0487799,10.7695852 Z M30.2579706,13.9382225 C29.0819501,14.3184782 23.2016874,16.2258459 20.7188884,17.1794497 C20.7188884,17.1794497 22.1428042,19.0916247 26.2547898,17.471572 C29.1186456,16.3431435 30.6963943,15.6842259 31.3924882,15.3858542 C30.9785816,14.9567245 30.595121,14.4750352 30.2579706,13.9382225 Z M32.3004228,16.2175133 C31.2732677,16.6636287 27.4569298,18.3325555 25.2502288,19.3975279 C25.2502288,19.3975279 28.0272332,20.7643973 31.5213233,18.6027245 L33.6938926,17.1759243 C33.2211769,16.8996661 32.7510251,16.5817448 32.3004228,16.2175133 Z M34.7505323,17.7314855 C34.0520348,18.1678261 31.1577328,19.990746 29.7447135,21.0361688 C29.7447135,21.0361688 32.1432248,22.0288717 34.6040706,19.7083985 C35.4051234,18.9539763 35.8424254,18.5261286 36.0829496,18.2815983 C35.6591079,18.1287269 35.2109093,17.947813 34.7505323,17.7314855 Z" id="Shape" fill="#B49759" fill-rule="nonzero"></path>
                            <path d="M42.9296355,16.9696921 C42.9296355,16.9696921 52.0254866,13.9217175 48.0734232,4.22399513 C48.0734232,4.22399513 57.689582,4.62380043 70.8704979,9.94834179 C70.8704979,9.94834179 71.7949375,10.3334048 72.3346346,10.5264971 C72.874492,10.7197497 73.7415647,11.0645918 74.9836052,10.4678483 C74.9836052,10.4678483 62.9274321,4.15797517 47.4383817,2.69463968 C45.3952885,2.5013871 45.1265616,2.81065533 45.665137,3.58222349 C46.1085283,4.21422033 51.6394621,11.2600878 42.9296355,16.9696921" id="Path" fill="#FEFEFE" fill-rule="nonzero"></path>
                            <path d="M51.0097087,6.97039318 C58.8035886,7.98520961 66.425368,10.7030845 66.425368,10.7030845 C65.1283643,13.0137829 61.6075138,12.0441549 61.6075138,12.0441549 C55.0042364,10.172361 52.0586568,9.53780023 51.1133857,9.35448269 C51.1500812,8.61848839 51.1183532,7.8238453 51.0097087,6.97039318 L51.0097087,6.97039318 Z M50.9523418,10.7695852 C52.2530311,11.0213263 57.7094521,12.1425438 63.2149074,14.20743 C63.2149074,14.20743 61.478198,16.185625 58.0368278,15.2075042 C55.1412438,14.3859403 51.4285829,13.1999848 50.320986,12.8442462 C50.5969237,12.2194603 50.813091,11.5288146 50.9523418,10.7695852 Z M49.7429909,13.9382225 C50.9178897,14.3184782 56.7994343,16.2258459 59.2809514,17.1794497 C59.2809514,17.1794497 57.8583175,19.0916247 53.7463319,17.471572 C50.8824761,16.3431435 49.3047274,15.6842259 48.6084732,15.3858542 C49.0225401,14.9567245 49.4060007,14.4750352 49.7431511,13.9382225 L49.7429909,13.9382225 Z M47.7006989,16.2175133 C48.7276937,16.6636287 52.5441919,18.3325555 54.7508929,19.3975279 C54.7508929,19.3975279 51.9737282,20.7643973 48.4785165,18.6027245 L46.3072291,17.1759243 C46.7797846,16.8996661 47.2488147,16.5817448 47.7006989,16.2175133 Z M45.2504291,17.7314855 C45.9490869,18.1678261 48.8433889,19.990746 50.2564082,21.0361688 C50.2564082,21.0361688 47.8566149,22.0288717 45.3946475,19.7083985 C44.5958381,18.9539763 44.1586963,18.5261286 43.9181721,18.2815983 C44.3418536,18.1287269 44.7900521,17.947813 45.2504291,17.7314855 Z" id="Shape" fill="#B49759" fill-rule="nonzero"></path>
                            <path d="M47.448477,22.2636271 C47.448477,26.3837851 44.1144693,29.7227603 40.0000801,29.7227603 C35.8856909,29.7227603 32.5518435,26.3837851 32.5518435,22.2636271 C32.5518435,18.1458729 35.8858512,14.8057759 40.0000801,14.8057759 C44.1144693,14.8057759 47.448477,18.1458729 47.448477,22.2636271 Z" id="Path" fill="#FEFEFE" fill-rule="nonzero"></path>
                            <path d="M45.9075841,23.8062827 C45.9075841,27.0755524 43.2624594,29.7224398 40.0004006,29.7224398 C36.7372202,29.7224398 34.0933774,27.0755524 34.0933774,23.8062827 C34.0933774,20.5406986 36.7373804,17.8925293 40.0004006,17.8925293 C43.2624594,17.8925293 45.9075841,20.5406986 45.9075841,23.8062827 Z" id="Path" fill="#B49759" fill-rule="nonzero"></path>
                            <path d="M43.920736,27.907532 C43.6214028,27.6727766 43.1964394,27.2571073 43.1208049,26.7436899 C43.1134337,26.6983413 43.1097482,26.6531529 43.1036589,26.6066825 C44.6179516,25.9710001 45.8966876,24.8754214 46.7613567,23.4718564 C46.435263,25.3021475 45.3861546,26.8829408 43.9205758,27.907532 L43.920736,27.907532 Z M33.2384831,23.4657672 C34.1031522,24.8730177 35.3817279,25.9697182 36.8985845,26.6066825 C36.8924952,26.6531529 36.8888097,26.6983413 36.8814385,26.7448116 C36.804522,27.2595109 36.3806804,27.6740585 36.0815074,27.907532 C34.6135249,26.8829408 33.5632948,25.2997438 33.2384831,23.4657672 Z M34.8211993,17.7537592 C34.5146552,19.4520103 35.2181202,21.0523533 35.8629365,22.515849 C36.3111351,23.5354727 36.7409057,24.5135936 36.8790349,25.5038929 C35.1057902,24.6174308 33.7587908,22.9951346 33.2567507,20.9619764 C33.490064,19.7491001 34.0420997,18.6487142 34.8211993,17.7537592 Z M42.0888425,25.9073838 C41.5783096,26.0711517 41.0447017,26.1788348 40.4963515,26.2190557 L40.4963515,15.4063652 C41.5978592,15.4858456 42.6274179,15.8245984 43.5249368,16.3636546 C44.8879604,18.3344784 44.1197573,20.0939422 43.2294494,22.1147617 C42.6958415,23.327638 42.148613,24.574646 42.0888425,25.9073838 Z M40.4963515,27.2130405 C41.065373,27.1789089 41.6174088,27.0872501 42.148613,26.9417498 C42.2598214,27.5811178 42.6541784,28.0897278 43.0206533,28.4380953 C42.2487646,28.8196329 41.396274,29.0580739 40.4963515,29.1228119 L40.4963515,27.2130405 Z M37.8534702,26.9417498 C38.3848346,27.0872501 38.9367102,27.1789089 39.5034883,27.2130405 L39.5034883,29.1228119 C38.6045273,29.0580739 37.7521968,28.8196329 36.9803082,28.4380953 C37.3479047,28.0897278 37.742422,27.5811178 37.8534702,26.9417498 Z M36.4771464,16.3636546 C37.3735435,15.8245984 38.4043842,15.4858456 39.5034883,15.4063652 L39.5034883,26.2190557 C38.9551381,26.1812384 38.4226519,26.0772409 37.9134009,25.9195622 C37.8571557,24.5820172 37.3076838,23.3326056 36.7715121,22.1147617 C35.8800824,20.093782 35.1130011,18.3344784 36.4771464,16.3636546 Z M46.7453324,20.9680657 C46.2495418,22.9584391 44.8879604,24.5832991 43.1256122,25.4806577 C43.2672666,24.4977296 43.693512,23.5269798 44.138025,22.515849 C44.7828412,21.0512316 45.4863063,19.4507284 45.1784802,17.7537592 C45.9601437,18.6511178 46.5121794,19.7527857 46.7453324,20.9680657 Z M40.0004006,14.2253772 C35.57466,14.2253772 31.9732074,17.8321178 31.9732074,22.2639476 C31.9732074,26.6959376 35.57466,30.3013963 40.0005608,30.3013963 C44.4274231,30.3013963 48.0288757,26.6959376 48.0288757,22.2639476 C48.0288757,17.8321178 44.4274231,14.2253772 40.0005608,14.2253772 L40.0004006,14.2253772 Z" id="Shape" fill="#002A5B" fill-rule="nonzero"></path>
                            <path d="M42.3852913,3.79198106 C42.3852913,3.79198106 42.3253606,4.04516438 42.1715277,4.04516438 C42.0176948,4.04516438 41.0539957,3.58174276 40.5912151,3.32984138 C40.3933155,3.22344029 40.1160958,3.06207598 40.0196297,3.00583083 C40.0196297,3.00583083 39.6068448,3.22344029 39.4091054,3.32984138 C38.9461645,3.58174276 37.9839076,4.04516438 37.8287928,4.04516438 C37.6749599,4.04516438 37.6150292,3.79198106 37.6150292,3.79198106 C37.6150292,3.79198106 35.0859201,5.32021481 35.0859201,9.54308824 C35.0859201,12.6864072 36.7199139,14.1132074 36.7199139,14.1132074 L36.9421704,15.0020731 L43.0568681,15.0020731 L43.2791246,14.1132074 C43.2791246,14.1132074 44.9144004,12.6864072 44.9144004,9.54308824 C44.9144004,5.32021481 42.3852913,3.79198106 42.3852913,3.79198106 Z" id="Path" fill="#002A5B" fill-rule="nonzero"></path>
                            <path d="M43.5903157,8.47587247 C43.5903157,7.17149765 43.0603934,6.10780722 42.4888081,5.47436819 C42.4888081,5.47436819 42.4692585,5.84853468 41.8463954,5.43158342 C41.309102,5.06126275 40.6764642,4.84477499 39.9975162,4.84477499 C39.3147225,4.84477499 38.680963,5.06238445 38.1423876,5.4341473 C37.5414778,5.8437274 37.5121534,5.47452844 37.5121534,5.47452844 C36.94185,6.10780722 36.4106457,7.17149765 36.4106457,8.47603271 C36.4106457,9.56039444 36.675687,10.0935216 36.7684675,10.2462328 C37.3046392,11.6265626 38.5478014,12.5949087 39.9975162,12.5949087 C41.4288032,12.5949087 42.6597869,11.6473942 43.2068552,10.2890176 C43.2385832,10.2451111 43.5903157,9.72544432 43.5903157,8.47587247 Z" id="Path" fill="#FEFEFE" fill-rule="nonzero"></path>
                            <path d="M41.3510855,11.4238557 C41.3475602,11.4164846 41.3413107,11.4091134 41.3377854,11.4017422 C41.3377854,11.4017422 40.9823673,10.7341715 41.5672528,10.2720319 C41.5672528,10.2720319 42.8911772,10.5484504 42.9229053,8.79155041 C42.9229053,8.79155041 42.8911772,8.60438704 43.0767382,8.23647002 C43.0767382,8.23647002 42.7373443,7.92720178 41.9984657,8.48340387 C41.2583051,9.03608063 40.8589805,10.6095028 40.458374,10.2403038 C40.062735,9.87350849 40.208075,7.82560797 40.0016825,7.74740958 L39.9943114,7.74740958 C39.7904828,7.82688991 39.9356626,9.87350849 39.5389019,10.2403038 C39.1395773,10.6095028 38.7376889,9.03608063 37.9988102,8.48340387 C37.2588098,7.92720178 36.9216594,8.23647002 36.9216594,8.23647002 C37.1060986,8.60438704 37.0743706,8.79155041 37.0743706,8.79155041 C37.1060986,10.5484504 38.4300231,10.2720319 38.4300231,10.2720319 C39.0161905,10.7341715 38.6620544,11.4043061 38.6620544,11.4043061 C38.6583688,11.411517 38.6534012,11.4188882 38.6497157,11.4249774 C37.0695633,9.72560457 36.1510527,9.95667441 36.6042188,11.8601963 C37.0500137,13.7308685 38.7596421,21.7585424 39.0307726,23.6205615 C38.9942373,25.2954173 38.8000232,25.8932824 38.7498673,26.0216368 L38.5764848,26.3677608 L38.7670133,26.7478563 C39.0685898,27.1867608 39.2762643,27.6771031 39.3507771,27.8641063 L40.0029645,29.5219763 L40.6489024,27.8677918 C40.7258189,27.6771031 40.9347752,27.186921 41.2339482,26.7478563 L41.4329695,26.3860284 L41.2534978,26.0229187 C41.2022202,25.896968 41.0140953,25.3212163 40.9713106,23.7061311 C41.1961309,22.0372043 42.9437368,13.7625966 43.3967427,11.8601963 C43.8486268,9.95667441 42.9313981,9.72560457 41.3510855,11.4238557 Z" id="Path" fill="#002A5B" fill-rule="nonzero"></path>
                            <path d="M38.9290185,19.7933271 C38.3611187,16.8065651 37.9142021,14.5960184 37.5526948,12.9932718 C37.2778787,11.7693388 38.0130718,12.2583992 38.4087108,13.0237179 L38.9290185,19.7933271 Z M41.0721032,19.7933271 C41.640003,16.8065651 42.0869196,14.5960184 42.4484269,12.9932718 C42.723243,11.7693388 41.9880499,12.2583992 41.5924109,13.0237179 L41.0721032,19.7933271 L41.0721032,19.7933271 Z M38.0316599,9.67576911 C37.9204516,9.64516278 37.8533099,9.52914713 37.8863199,9.41537488 C37.8984983,9.3725901 37.9254191,9.33829818 37.9582688,9.31025573 C37.883756,9.22708981 37.7970648,9.1428022 37.6921058,9.06812915 C37.6921058,9.06812915 37.5076666,9.93247777 38.2782733,9.8396973 C38.2782733,9.8396973 38.2515128,9.76262061 38.1939857,9.65253394 C38.1463936,9.68073664 38.0890268,9.69051143 38.0316599,9.67576911 L38.0316599,9.67576911 Z M42.3077339,9.06812915 C42.2026148,9.1428022 42.1159235,9.22708981 42.0414107,9.31025573 C42.0757026,9.33829818 42.1024631,9.3725901 42.1159235,9.41665682 C42.1465298,9.52914713 42.079228,9.64516278 41.9681798,9.67576911 C41.910813,9.69051143 41.8534461,9.68185833 41.8069758,9.65381588 C41.7496089,9.76133867 41.7226881,9.8396973 41.7226881,9.8396973 C42.4932948,9.93247777 42.3077339,9.06812915 42.3077339,9.06812915 Z M40.3614272,20.9014047 C40.6056369,16.2872188 40.9732335,13.0181094 40.9732335,12.609651 C40.9732335,12.4654327 40.9573695,12.2771476 40.896317,12.0717166 L40.6288721,12.9495256 L40.5457062,11.3980567 C40.4114229,11.2245139 40.2282656,11.0508109 39.9962343,10.8846393 L39.981492,10.8846393 C39.7507426,11.0508109 39.5882566,11.2245139 39.4526914,11.3980567 L39.3733713,12.9495256 L39.1035227,12.0705949 C39.043592,12.2771476 39.0266063,12.4654327 39.0266063,12.609651 C39.0266063,13.0181094 39.3929209,16.2872188 39.6371306,20.9014047 C39.8826223,25.5167123 39.3110369,26.3749717 39.3110369,26.3749717 C39.6420981,26.8542573 39.9999199,27.7077095 39.9999199,27.7077095 C39.9999199,27.7077095 40.3577416,26.8542573 40.6886426,26.3749717 C40.6886426,26.3749717 40.1170572,25.5167123 40.3614272,20.9014047 Z" id="Shape" fill="#E21836" fill-rule="nonzero"></path>
                        </g>
                    </g>
                </g>
            </g>
        </g>
    </g>
</svg>