<?xml version="1.0" encoding="UTF-8"?>
<svg width="80px" height="80px" viewBox="0 0 80 80" version="1.1" xmlns="http://www.w3.org/2000/svg" xmlns:xlink="http://www.w3.org/1999/xlink">
    <title>E10A89E0-D78A-422E-9B14-FA5D2AF33920</title>
    <defs>
        <path d="M2.31584078,21.5163535 C0.834630938,18.5507329 -9.09746424e-15,15.197325 -9.09746424e-15,11.6462625 C-9.09746424e-15,7.36619819 1.21249549,3.37293327 3.30827538,0 L20.4981517,0 L20.4981517,21.5163535 L2.31584078,21.5163535 Z" id="path-1"></path>
        <path d="M8.37575753,18.0094631 C10.5650033,14.5862759 11.836075,10.5043465 11.836075,6.12169384 C11.836075,3.99678589 11.5372723,1.94277756 10.9799981,0 L0,0 L0,18.0094631 L8.37575753,18.0094631 Z" id="path-3"></path>
        <path d="M2.62408607,3.21240886 C2.1655592,2.09818056 1.61596713,1.02380328 0.980911413,-9.09746424e-15 L-9.09746424e-15,-9.09746424e-15 L-9.09746424e-15,3.21240886 L2.62408607,3.21240886 L2.62408607,3.21240886 Z" id="path-5"></path>
        <path d="M34.7452938,8.72833508 C30.8026029,3.42718828 24.5367092,0 17.4795565,0 C10.2942084,0 3.92748671,3.55538376 -9.09746424e-15,9.02489714 L-9.09746424e-15,9.23791608 L34.7452938,9.23791608 L34.7452938,8.72833508 L34.7452938,8.72833508 Z" id="path-7"></path>
        <path d="M0,3.87387188 C3.73447331,10.4201632 10.7178456,14.824902 18.7155785,14.824902 C26.9165677,14.824902 34.0491012,10.1965813 37.7086738,3.3777346 L37.7086738,0 L0,0 L0,3.87387188 Z" id="path-9"></path>
    </defs>
    <g id="Specifications" stroke="none" stroke-width="1" fill="none" fill-rule="evenodd">
        <g id="Teams" transform="translate(-48.000000, -2799.000000)">
            <g id="Group-6-Copy-16" transform="translate(48.000000, 2714.000000)">
                <g id="Group-3" transform="translate(0.000000, 48.000000)">
                    <g id="Assets-exportable/Logos/Club-logos/West-Conference/Los-Angeles-Lakers/transparent" transform="translate(0.000000, 37.000000)">
                        <g id="Group" fill-rule="nonzero">
                            <rect id="Rectangle" x="0" y="0" width="80" height="80" rx="20"></rect>
                        </g>
                        <g id="Group-2" transform="translate(0.000000, 16.000000)">
                            <path d="M17.4060962,11.1149154 C17.4060962,11.1149154 24.2169407,0 38.1622393,0 C52.1076979,0 58.5947729,10.791786 58.5947729,10.791786 L77.5140877,10.791786 L76.756118,15.4292292 C76.756118,15.4292292 76.2153284,17.2652572 75.3507692,17.4806768 L76.6482482,17.4806768 C76.6482482,17.4806768 77.0811679,19.1000049 74.48637,24.7105173 L80,24.7105173 C80,24.7105173 80.2154752,34.5277937 68.3241849,39.1677975 C68.3241849,39.1677975 62.1619999,41.110255 59.0264123,37.7664498 C59.0264123,37.7664498 52.7563574,49.4197542 38.1622393,49.4197542 C23.5681212,49.4197542 16.9731764,37.4433204 16.9731764,37.4433204 L0,37.4433204 L2.70410821,32.5878969 L0.865839573,32.5878969 L3.02771775,28.5954322 L6.70297468,28.5954322 L7.35163416,27.0823735 L5.62267576,27.0823735 L9.83856228,19.3139841 L12.2163402,19.3139841 L13.1900496,16.9408474 L11.1360413,16.9408474 L14.2703485,11.1149154 L17.4060962,11.1149154 Z" id="Path" fill="#FEFEFE" fill-rule="nonzero"></path>
                            <path d="M38.3658156,46.8201549 C50.2979172,46.8201549 59.9695533,37.0212836 59.9695533,24.9307382 C59.9695533,12.8427535 50.2979172,3.04260187 38.3658156,3.04260187 C26.4349944,3.04260187 16.762238,12.8427535 16.762238,24.9307382 C16.762238,37.0212836 26.4349944,46.8201549 38.3658156,46.8201549 Z" id="Path" fill="#FEC42F" fill-rule="nonzero"></path>
                            <path d="M40.7496752,24.8228684 L39.8074945,24.8150262 C39.740436,24.8150262 39.686501,24.8688011 39.686501,24.9344192 C39.686501,25.0001974 39.740436,25.0539723 39.8074945,25.0539723 L40.7627988,25.0448498 C41.085128,25.0448498 41.3826504,25.085501 41.3010278,25.2287407 L38.8245025,29.9487667 C38.5165773,30.5122826 37.8653571,30.369043 37.7613284,29.9199587 L36.534909,23.5935682 L40.8482625,20.2524838 C41.2773412,19.884702 42.1010891,19.2858163 42.523446,19.2936585 L43.4641863,19.2883362 C44.0366647,19.2845359 44.2392808,19.5524501 44.1050036,19.8965453 L43.9391977,20.2169539 C43.8313279,20.3955633 43.491874,20.4179695 43.2050746,20.4179695 L42.6615642,20.4179695 C42.595786,20.4179695 42.5418511,20.4717444 42.5418511,20.5400833 C42.5418511,20.6057015 42.595786,20.6596364 42.6615642,20.6596364 L43.1970724,20.6596364 C43.4286565,20.6596364 43.7194569,20.6647578 43.6128674,20.8382458 L41.6115137,24.6468196 C41.5194882,24.7953407 41.1036932,24.8228684 40.7496752,24.8228684 Z M48.2131803,27.1724785 C46.1947018,29.6152344 45.0511854,30.4517858 43.0010181,30.4517858 C42.3037052,30.4517858 41.9405647,30.2955826 42.1351786,29.9580492 L44.5668914,25.0789392 L45.4946681,25.0789392 C46.5301546,25.0789392 46.386755,25.9484598 46.1052371,27.1263857 C46.0538629,27.2918715 46.1801378,27.3024344 46.303852,27.1579144 L48.6158517,23.1036727 C48.7277227,22.8488822 48.4369222,22.797668 48.2933625,22.9934022 C47.1354421,24.5602357 45.917025,24.4446837 45.403763,24.4446837 L44.9854072,24.4446837 L47.5802052,19.4972348 L48.627695,19.4972348 C49.9461398,19.5799777 50.5605498,20.6975669 50.1790043,23.3899919 L50.7277961,23.3899919 L52.635684,19.6339126 C52.7896466,19.317345 52.4633163,19.0270247 52.1041769,19.0270247 L39.1482721,19.0323061 C38.399585,19.0323061 38.3666158,19.6049446 39.0837743,19.6049446 C39.6666555,19.6049446 39.6364072,20.4402157 39.1127423,20.8433672 L33.6137808,25.201053 L34.7230477,30.3480771 C34.8059506,30.7368247 35.0546594,30.9219959 35.4862989,30.9219959 L46.1985429,30.9219959 C46.6407452,30.9219959 46.8222355,30.7421062 46.9657952,30.5582153 L48.9066522,27.2131297 C49.1737661,26.7325167 48.5526343,26.7626051 48.2131803,27.1724785" id="Shape" fill="#542582" fill-rule="nonzero"></path>
                            <path d="M24.5115822,25.7682499 L21.1021589,25.7682499 L25.414232,20.0932397 L24.5115822,25.7682499 Z M23.7220838,29.2932253 C23.6193353,29.8762666 23.032453,30.2637338 22.2943287,30.4567472 L21.5323579,30.6471999 L22.1574909,29.5230489 C22.3220164,29.2157638 21.9614366,29.0344337 21.5678877,29.4928005 C18.9178745,32.5699719 18.0744411,34.0449401 13.9886706,34.0540626 L12.8912469,34.0566233 C12.5596352,34.0566233 12.1952144,33.9279477 12.4202366,33.6100997 L13.8662367,30.9243966 L19.3546353,30.9243966 C20.1034825,30.9243966 19.9112693,30.3623211 19.4705074,30.3464767 C19.1809873,30.3373542 18.8626592,30.170428 18.6376369,29.8159299 C18.5756998,29.7173426 18.4388619,29.3273147 18.6533213,29.0265915 L20.7547027,26.2397404 L24.2495897,26.2397404 L23.7219237,29.2932253 L23.7220838,29.2932253 Z M31.8552142,30.3464767 C31.5658541,30.3373542 31.3789224,30.1376189 31.3144245,29.9471662 C31.2223991,29.6701296 31.2289609,29.1827947 31.3421122,28.9675352 L36.339655,20.119487 C36.4212776,19.9567219 36.6238936,19.6126267 36.8726025,19.6151874 C37.3133644,19.6164678 37.5042972,19.0372675 36.7568904,19.0372675 L32.7540229,19.0372675 C32.0053357,19.0372675 31.9973335,19.6046245 32.7144919,19.6046245 C33.0080131,19.6046245 33.1224448,19.8909437 33.0408222,20.0657121 L31.934276,22.0659455 C31.7961578,22.2864866 31.489513,22.3023309 31.1670237,22.3023309 L30.2131598,22.2996102 C30.1473816,22.2996102 30.0932867,22.3535451 30.0932867,22.4204436 C30.0932867,22.4862218 30.1472216,22.5399967 30.2131598,22.5399967 L31.1591816,22.5399967 C31.4157326,22.5399967 31.619789,22.6161778 31.4711079,22.9143403 L27.781447,29.6214761 C27.5156134,29.9905382 26.9866671,30.0720008 27.0169154,29.3666856 L28.3287984,19.541567 C28.3801726,19.234282 28.2985501,19.0268646 27.9709394,19.0268646 L25.9918318,19.0294253 C25.7564067,19.0294253 25.6102862,19.1449773 25.4971349,19.2973395 L24.789099,20.1851051 C24.6970735,20.2771306 24.4970182,20.2771306 24.2772774,20.2771306 L22.6166579,20.2744098 C22.5508797,20.2744098 22.4969448,20.3283447 22.4969448,20.3939629 C22.4969448,20.4597411 22.5508797,20.513516 22.6166579,20.513516 L23.9720729,20.513516 C24.2127795,20.513516 24.4944575,20.5700116 24.3931495,20.6830029 L22.490383,23.0719839 C22.4324469,23.1388824 22.2469556,23.1572875 22.1338043,23.1572875 L21.5968557,23.1545667 C21.5310775,23.1545667 21.4758623,23.2085017 21.4758623,23.2728395 C21.4758623,23.3411784 21.5310775,23.3949533 21.5968557,23.3949533 L22.0456199,23.3949533 C22.1837381,23.3949533 22.1850185,23.4632922 22.1285228,23.5250693 L20.3403481,25.7682499 C20.2481626,25.8548339 20.069233,25.873239 19.8941446,25.873239 L18.3164281,25.8719586 C18.2493695,25.8719586 18.1967149,25.9244532 18.1967149,25.9915117 C18.1967149,26.0071961 18.1997558,26.0227203 18.2058375,26.0372844 C18.2117591,26.0518484 18.2205615,26.064972 18.2317646,26.0761751 C18.2429677,26.0872182 18.2560914,26.0960206 18.2706554,26.1019423 C18.2852194,26.1080239 18.3007437,26.1110648 18.3165881,26.1109047 L19.6718431,26.1109047 C19.8771799,26.1109047 20.0362639,26.1489953 19.9283941,26.2869535 L17.3848103,29.4705543 C16.9072381,30.0772822 14.604521,30.3858476 14.1570372,30.3858476 L22.7562165,14.3250837 C22.8391195,14.1399124 23.1574475,13.8588747 23.4890593,13.8588747 L25.3142043,13.8588747 C26.1760428,13.8588747 26.1510759,13.2862362 25.4023887,13.2862362 L16.2230488,13.2862362 C15.4743617,13.2862362 15.4439533,13.8588747 16.3059518,13.8588747 L18.0046618,13.8588747 C18.486235,13.8588747 18.6429184,14.1503153 18.5177638,14.3867007 L18.2757768,14.8293832 C18.1928739,14.9739032 18.0797226,15.0316792 17.6138337,15.0316792 L14.6098025,15.0289584 C14.5440243,15.0289584 14.4900893,15.0828934 14.4900893,15.1485115 C14.4900893,15.2141297 14.5440243,15.2680646 14.6098025,15.2680646 L17.6059915,15.2680646 C17.7690766,15.2680646 18.012504,15.3114366 17.8585414,15.6028772 L17.4389053,16.3830931 C17.3664052,16.4999254 17.1821942,16.5564211 16.9730163,16.5564211 L15.6097591,16.5538604 C15.5427006,16.5538604 15.4887657,16.6063549 15.4887657,16.6732534 C15.4887657,16.7390316 15.5427006,16.7928065 15.6097591,16.7928065 L16.9651742,16.7928065 C17.1599481,16.7928065 17.1637891,16.9214821 17.0519182,17.1000915 L16.0847706,18.8941879 C16.0018676,19.0478304 15.8453443,19.0662355 15.5374191,19.0662355 L14.9940688,19.0635148 C14.9282906,19.0635148 14.8741956,19.1174497 14.8741956,19.1843482 C14.8741956,19.2514068 14.9281305,19.3051816 14.9940688,19.3051816 L15.529577,19.3051816 C15.7347537,19.3051816 15.7888487,19.4194533 15.6966632,19.6126267 L14.9018833,21.0848741 C14.7834505,21.2962926 14.6150839,21.3803158 14.0861376,21.3803158 L11.0832267,21.3777551 C11.0675423,21.3775951 11.052018,21.3806359 11.037454,21.3867176 C11.02289,21.3926392 11.0096063,21.4014417 10.9985632,21.4124847 C10.9873601,21.4236878 10.9785577,21.4368115 10.9726361,21.4513755 C10.9665544,21.4659395 10.9635135,21.4814638 10.9635135,21.4971481 C10.9635135,21.5642067 11.0161681,21.6179816 11.0832267,21.6179816 L14.0781353,21.6179816 C14.4175893,21.623263 14.5427439,21.7730645 14.4084667,22.013291 L12.8584379,24.9224159 C12.7662524,25.0498111 12.5122621,25.0694966 12.082063,25.0694966 L9.0793122,25.0669359 C9.0120936,25.0669359 8.95815867,25.1207108 8.95815867,25.1863289 C8.95815867,25.2521071 9.0120936,25.3046016 9.0793122,25.3046016 L12.0740608,25.3071624 C12.4333602,25.3071624 12.6518207,25.3217264 12.5452312,25.5107387 L11.651704,27.1878427 C11.4873385,27.4440736 11.026731,27.4440736 10.8465212,27.4440736 L9.89377755,27.4413529 C9.82799935,27.4413529 9.77406443,27.492567 9.77406443,27.5596256 C9.77406443,27.6265241 9.82799935,27.680459 9.89377755,27.680459 L10.838519,27.680459 C11.1714111,27.680459 11.3490602,27.738235 11.2608758,27.9181248 L10.068706,30.156024 C9.96083611,30.3557593 9.49366685,30.3648818 9.13452747,30.3648818 L4.49084259,30.3623211 C4.42506439,30.3623211 4.37112947,30.416096 4.37112947,30.4817141 C4.37112947,30.5474923 4.42506439,30.6012672 4.49084259,30.6012672 L9.1266853,30.6025476 C9.43461051,30.6025476 9.82271789,30.6406381 9.68059857,30.8850257 L8.91878778,32.3151814 C8.84628772,32.4334542 8.58573563,32.4425767 8.21219227,32.4425767 L7.25944865,32.4412963 C7.1923901,32.4412963 7.13845517,32.4950712 7.13845517,32.5608494 C7.13845517,32.6264676 7.1923901,32.6802424 7.25944865,32.6802424 L8.20419006,32.6802424 C8.43577413,32.6802424 8.71601167,32.7064897 8.61742439,32.8812581 L8.14241296,33.7939906 C7.98845036,34.0199731 7.83448776,34.2208287 7.46606582,34.2208287 L5.13566101,34.2208287 C4.2751029,34.2208287 4.30407091,34.7960279 5.05275807,34.7960279 L18.7362242,34.8025897 C19.1363349,34.8025897 19.1494586,34.7488148 19.3376706,34.4559338 L21.3667121,30.9243966 L31.7395021,30.9243966 C32.4881893,30.9243966 32.2961362,30.3623211 31.8552142,30.3464767 Z M58.3420629,23.8699647 C57.9656388,24.1785301 57.373635,24.5331882 57.2590433,24.4201969 C57.0985189,24.261273 56.6011012,23.9184581 56.3339873,23.7963443 L58.5670852,19.7196963 C58.6591107,19.5753364 58.7657002,19.4977149 59.0118483,19.4977149 C59.8815289,19.4977149 60.1670479,20.4394155 59.7578147,21.61222 C59.4722957,22.4343675 59.0078472,23.3235735 58.3420629,23.8699647 Z M76.3824146,27.524896 C76.3257589,27.2451386 76.2231705,27.4146255 76.0389596,27.7678432 C75.9823039,27.8742727 75.802094,27.8768334 75.6231645,27.8768334 L75.0743727,27.8795541 C75.0085945,27.8795541 74.9546595,27.933329 74.9546595,27.9991072 C74.9546595,28.0647254 75.0085945,28.1185002 75.0743727,28.1185002 L75.613882,28.1185002 C75.8192188,28.1185002 75.8217795,28.2551781 75.7257529,28.4600347 C75.3493288,29.2637771 74.959941,29.8023261 74.4441183,30.4444238 C74.3624957,30.5482925 74.1545982,30.6335962 73.9900727,30.6335962 L73.4401605,30.6375973 C73.3729419,30.6375973 73.319007,30.6886514 73.319007,30.7569903 C73.319007,30.8227685 73.3729419,30.8765434 73.4401605,30.8765434 L73.9782294,30.8765434 C74.2506247,30.8765434 73.9756687,31.0433095 73.9295759,31.1050866 C72.9729912,32.3790391 72.3137688,32.9476764 71.609734,33.5177542 C71.5281114,33.5833723 71.1307215,33.5609661 70.8532047,33.5596858 L70.3109747,33.5624065 C70.2439161,33.5624065 70.1899812,33.6149011 70.1899812,33.6817996 C70.1899812,33.7475778 70.2439161,33.8013527 70.3109747,33.8013527 L70.8464828,33.8013527 C71.2557161,33.8013527 70.9492313,34.0364577 70.8872941,34.0876719 C69.3964816,35.3275349 67.1739467,35.7279657 66.159426,35.6005705 C62.8580325,35.1882964 62.1791246,32.6888848 61.9356973,31.6895683 C61.8843231,31.4807105 61.7263594,31.0538724 61.6737048,30.788519 C61.5723968,30.2658144 63.0606485,30.1174533 63.4711621,30.3919293 C64.0962951,30.8082045 65.5490171,31.2337622 66.6923734,31.2390437 C67.7504262,31.2430448 69.9148651,30.4759525 70.5412784,28.6608903 C71.1820957,26.8078976 69.5715701,24.7484478 68.8582527,24.0380112 C67.9503215,23.1304001 67.0937645,21.6871207 67.4543443,20.6273075 C67.7267396,19.8301269 68.183346,19.4676266 69.1596161,19.4676266 C70.4215653,19.4676266 71.3400594,20.2766504 71.3400594,21.4257684 C71.3400594,21.5281967 71.2768419,21.6503105 71.193939,21.6503105 L70.7478956,21.6530313 C70.6821174,21.6530313 70.6281824,21.7068062 70.6281824,21.7724243 C70.6281824,21.8382025 70.6821174,21.8919774 70.7478956,21.8919774 L71.1676917,21.8919774 C71.2846841,21.8919774 71.3584645,21.9812821 71.3282161,22.1245217 C71.2453132,22.5092682 71.2189059,22.779743 71.1347226,23.1659299 C71.0860691,23.3891917 71.4149601,23.5441145 71.5281114,23.3800691 L73.5112202,19.8458112 C73.6546198,19.5791775 73.3361317,19.5082778 73.1005465,19.5897404 C72.5584765,19.7787527 71.6742319,19.9075883 71.3623056,19.6828861 C70.6201802,19.1536197 69.9451134,18.8109649 68.9083466,18.8109649 C67.1464191,18.8109649 65.9107171,19.2443648 65.118658,20.6929256 C65.0581612,20.8059169 64.8843532,20.8044765 64.7358321,20.8044765 L64.3976585,20.8031961 C64.3816541,20.8031961 64.3659697,20.806237 64.3512456,20.8123187 C64.3365216,20.8184003 64.3232379,20.8272028 64.3118747,20.8384059 C64.3006716,20.849769 64.2917092,20.8630527 64.2856275,20.8777768 C64.2795458,20.8925008 64.276505,20.9081852 64.276505,20.9240296 C64.276505,20.9898078 64.3304399,21.0435826 64.3976585,21.0435826 L64.6857382,21.0410219 C64.8081721,21.0410219 64.891075,21.0751114 64.8291379,21.2169106 C64.7739226,21.348307 64.7265495,21.4861051 64.6804567,21.6280644 C64.479121,22.2544777 64.5448992,23.1331208 64.8581059,23.9184581 C64.8792317,23.9696723 64.8134535,23.9946392 64.6923,23.9933588 L64.1515104,23.9959195 C64.0857322,23.9959195 64.0317973,24.0498545 64.0317973,24.1154726 C64.0317973,24.1825312 64.0857322,24.2363061 64.1515104,24.2363061 L64.6897393,24.2363061 C64.9357274,24.2363061 64.992383,24.261273 65.0949714,24.4043526 C65.3726483,24.7945405 65.6581673,25.0847008 66.0174667,25.5390665 C66.1291776,25.6835865 65.6476043,25.7229574 65.3910534,25.7203967 L63.2541421,25.7203967 C63.2382977,25.7203967 63.2227734,25.7234375 63.2082094,25.7293592 C63.1936453,25.7352808 63.1805217,25.7440832 63.1693186,25.7552863 C63.1582756,25.7663294 63.1494731,25.779453 63.1433914,25.7940171 C63.1374698,25.8085811 63.1342689,25.8241054 63.134429,25.8399498 C63.134429,25.9068483 63.1869235,25.9593428 63.2541421,25.9593428 L65.418741,25.9567821 C65.7673175,25.9567821 66.3634824,25.9515006 66.430541,26.0276817 C66.9542059,26.6305685 67.587181,27.5604258 67.6937705,28.341762 C67.7252992,28.5677445 67.6398356,28.6608903 67.3621587,28.6608903 L67.0726386,28.6608903 C67.0068604,28.6608903 66.9529255,28.7148252 66.9529255,28.7817237 C66.9529255,28.8487823 67.0068604,28.9012768 67.0726386,28.9012768 L67.3279093,28.9012768 C67.5476501,28.9012768 67.6688036,28.9353663 67.6174294,29.0995717 C67.3371918,29.9966199 66.9161153,30.6441591 65.2028413,30.6335962 C63.4068243,30.625754 63.0409631,28.8684677 63.5671887,27.0350004 C63.6712175,26.6699394 63.5620673,26.5135762 63.3988221,26.798615 L62.1487162,28.7607579 C62.1171875,28.8066907 61.996194,28.9184016 61.8067016,28.9184016 L61.6290524,28.9171212 C61.5632742,28.9171212 61.5093393,28.9708961 61.5093393,29.0379546 C61.5093393,29.1035728 61.5645546,29.1560673 61.6303328,29.1560673 C61.7895768,29.1560673 61.8513539,29.2413709 61.7908572,29.3281149 L61.3302497,30.0425526 C60.5762811,28.3182355 59.3104909,26.1944479 58.6354241,25.4209538 L58.6472674,25.3841437 C60.311888,25.2829957 62.7698481,23.7267251 63.1712391,22.3346599 C63.8698324,19.9194316 61.5197422,19.0262245 60.239548,19.0262245 L54.60903,19.0289452 C53.8616232,19.0289452 53.8062479,19.5935814 54.5246867,19.5935814 C54.9116738,19.5935814 55.2511277,19.9325552 55.07876,20.27521 L53.8313749,22.5183907 C53.7286264,22.703562 53.3430797,22.6918787 52.8403806,22.6918787 L52.2944696,22.6918787 C52.2285314,22.6918787 52.1745964,22.7456536 52.1745964,22.8112718 C52.1745964,22.87705 52.2285314,22.9308248 52.2944696,22.9308248 L52.8312581,22.9308248 C53.1905575,22.9308248 53.5852267,22.953231 53.45239,23.2093019 L51.9785422,25.8649167 C51.9062022,25.9883108 51.7154294,26.0001541 51.2127303,26.0001541 L50.6693799,26.0014345 C50.6036017,26.0014345 50.5495068,26.0552093 50.5495068,26.1209875 C50.5495068,26.187886 50.6034417,26.241821 50.6693799,26.241821 L51.200887,26.2405406 C51.5969966,26.2405406 51.7443974,26.2930351 51.6312461,26.4978918 L49.661421,30.0531155 C49.4258359,30.3091864 49.1455983,30.3563995 48.6640251,30.3563995 C47.9468666,30.3563995 47.9547088,30.9237564 48.703396,30.9237564 L53.52473,30.9237564 C54.2734172,30.9237564 54.0826444,30.3459966 53.6418824,30.3459966 C53.3826107,30.3472769 53.1076546,29.870505 53.2800223,29.5854661 L55.7419835,24.9310583 L55.9919727,24.9310583 C57.0866756,24.9310583 57.3512288,26.7237143 57.5578459,28.6820162 C57.5722499,28.8212547 57.3038557,28.8278165 56.7590649,28.8278165 L55.3905263,28.8290969 C55.3247481,28.8290969 55.2708131,28.8828717 55.2708131,28.9512106 C55.2708131,29.0168288 55.3247481,29.0693233 55.3905263,29.0693233 L56.7446609,29.0693233 C57.1038003,29.0693233 57.6064994,29.0733244 57.6183427,29.1888764 C57.7130889,30.0478341 57.7841486,30.803083 57.9472337,31.4912735 C57.9998883,31.706533 57.6156219,31.6724436 57.2051083,31.6724436 L55.4628663,31.6764447 C55.3958077,31.6764447 55.3431532,31.7302196 55.3431532,31.7945574 C55.3431532,31.8616159 55.3958077,31.9153908 55.4628663,31.9153908 L57.203828,31.9181116 C57.7511794,31.9181116 58.0328574,31.9166712 58.0643861,32.0296624 C58.8143536,34.7745819 62.0302834,36.9350197 65.1581889,36.8154666 C67.8411713,36.7130383 70.1070783,35.2564753 71.2675593,34.3280584 C72.8124668,33.0909161 75.0796541,30.5021998 76.0019893,28.6202391 C76.1717963,28.2748635 76.4441917,27.832181 76.3824146,27.524896" id="Shape" fill="#542582" fill-rule="nonzero"></path>
                            <path d="M31.1903902,15.4037821 C30.7390653,15.9882639 30.1390593,16.1366249 29.4665532,16.1366249 L29.2757805,16.1366249 L30.4626689,13.7922963 C30.5193245,13.6847465 30.6443191,13.6020036 30.7982817,13.6020036 C30.9469629,13.6020036 30.9298381,13.3051215 30.7350642,13.3051215 L28.8652669,13.3051215 C28.7060228,13.3051215 28.6495272,13.6020036 28.7982083,13.6020036 C28.9574524,13.6020036 28.9877007,13.7778923 28.9100793,13.924973 L27.8481854,16.0172319 C27.7771258,16.1300631 27.658693,16.1590311 27.528417,16.1918402 C27.3717336,16.2324914 27.2625834,16.5149696 27.4415129,16.5149696 L30.427139,16.5149696 C30.6574427,16.5149696 30.7113777,16.429506 30.7718744,16.3480434 L31.3720405,15.4209069 C31.4587845,15.3079156 31.2772943,15.2909509 31.1903902,15.4037821 Z M40.181518,13.3875443 C40.0907729,13.4361977 39.8775939,13.4650057 39.7855685,13.3875443 C39.5474226,13.1892494 39.0789729,13.0368872 38.8341052,13.0368872 C38.1302304,13.0368872 37.6196892,13.1761258 37.3143247,13.8393493 C37.0524922,14.4028652 37.3208865,14.8769164 37.9420184,15.1632356 C38.2104126,15.2866297 38.5669913,15.4495548 38.4301534,15.7726842 C38.3301257,16.0090696 38.0551697,16.0340365 37.8064608,16.0313158 C37.4735687,16.0287551 36.97231,15.7778056 36.8945285,15.3090359 C36.8682813,15.1553934 36.6893517,15.1894828 36.6379775,15.2735061 L36.2143403,16.1167794 C36.1471217,16.2296106 36.3222102,16.3557255 36.3919895,16.2808248 C36.5353891,16.1284627 36.8471554,16.0918125 37.001118,16.1942409 C37.2130166,16.3334794 37.756527,16.5817081 38.0814169,16.5790095 C38.7947343,16.5737059 39.2644643,16.389815 39.6540121,15.779246 C40.0118711,15.2235723 39.7921303,14.6707793 39.1420304,14.3633343 C38.797295,14.2018496 38.5039338,13.9155304 38.6578964,13.6016835 C38.7564837,13.3968268 39.0631286,13.4401988 39.2158108,13.4677264 C39.5066113,13.5162199 39.8788743,13.7894155 39.9224063,14.0285216 C39.9408114,14.13095 40.0710875,14.1506354 40.1275831,14.0600503 L40.351325,13.5373457 C40.4026992,13.4361977 40.2381737,13.3574559 40.181518,13.3875443 Z M60.8934889,14.2276167 L61.1527606,13.7495644 C61.2659119,13.5394263 61.0802606,13.3017605 60.7828983,13.3017605 L57.2972939,13.3017605 C57.0458643,13.3017605 57.1196447,13.5631128 57.2222331,13.5631128 C57.445975,13.5631128 57.5130335,13.834868 57.377476,14.0646916 L56.3287058,15.9901844 C56.1721825,16.1726349 56.0721549,16.2528171 55.848573,16.2528171 C55.6694834,16.2528171 55.6051456,16.5141694 55.8564152,16.5141694 L59.3893927,16.5141694 C59.531512,16.5141694 59.5947295,16.4629552 59.6461038,16.3920556 L60.1263966,15.7550793 C60.243389,15.6014368 59.9908391,15.6014368 59.9132177,15.6776179 C59.3039291,16.2869065 58.6512685,16.2685014 58.1775374,16.2685014 L57.7657435,16.2685014 L58.2498774,15.1915634 L58.3526259,15.1915634 C58.6631118,15.1915634 59.0209708,15.1877224 59.115717,15.4241078 C59.1406839,15.479163 59.2946465,15.5252558 59.3553033,15.4241078 L59.7670972,14.6005199 C59.8341558,14.4784061 59.6486645,14.4561599 59.5987306,14.5441843 C59.4354855,14.8343446 58.7196074,14.7568831 58.5315554,14.7568831 L58.4288069,14.7568831 L59.0315337,13.570955 L59.7025994,13.570955 C60.1196748,13.570955 60.4789742,13.8651164 60.5961266,14.1869655 C60.6250946,14.2631465 60.8473961,14.3247636 60.8934889,14.2276167 Z M43.6615209,14.8381856 L44.8234424,13.8899233 L44.8287239,14.8381856 L43.6615209,14.8381856 Z M51.9763016,13.3016005 L50.7354782,13.3016005 C50.4842087,13.3016005 50.5591094,13.5629528 50.6618579,13.5629528 C50.926251,13.5629528 51.1671177,13.8727985 51.0224376,14.1591178 L50.5091756,15.0969773 L49.3762221,13.4433997 C49.299881,13.3409714 49.1209515,13.2910376 48.9682693,13.2910376 L47.7471314,13.2910376 C47.4958618,13.2910376 47.5550782,13.5511095 47.6576666,13.5511095 C47.915658,13.5511095 47.8498798,13.7441229 47.785382,13.8820811 L46.8129529,15.7509182 C46.7511758,15.902 46.4866226,15.9216854 46.4037197,15.7325131 L45.6510314,13.2844757 C45.6195027,13.1873289 45.1800211,13.1926103 45.0681501,13.2844757 L43.181228,14.8369053 L42.2047978,14.8381856 C42.0100239,14.8381856 41.9338429,14.9183678 41.9338429,15.0207962 C41.9338429,15.1232245 42.0074632,15.2163703 42.2128001,15.2163703 L42.7233413,15.2150899 L42.2128001,15.6353662 C41.9285614,15.8467847 41.6377609,16.137105 41.4442674,16.137105 L41.3258346,16.137105 C41.1403433,16.137105 41.0375949,16.165913 41.0375949,16.3144341 C41.0375949,16.4627952 41.1153764,16.5140093 41.2890245,16.5140093 L42.8115257,16.5140093 C43.0970447,16.5140093 43.0416694,16.1409461 42.8982697,16.1409461 C42.7417464,16.1409461 42.4811943,15.9413709 42.7219009,15.6590528 L43.1865095,15.2163703 L44.1022829,15.2163703 C44.6445129,15.2163703 45.0247781,15.8455044 44.7010085,16.0385178 L44.449739,16.1777563 C44.3325866,16.238253 44.279932,16.5140093 44.449739,16.5140093 L47.4235218,16.5140093 C47.6432626,16.5140093 47.5984502,16.223689 47.4958618,16.223689 C47.1919378,16.223689 47.3353374,15.786448 47.3932735,15.6694557 L48.1747697,14.1933672 L49.2721934,16.3144341 C49.343253,16.4496715 49.4077509,16.5140093 49.5367466,16.5140093 L49.9565427,16.5140093 C50.0906598,16.5140093 50.1341919,16.4378283 50.1972493,16.3353999 L51.4460749,14.0829367 C51.6474106,13.6810655 51.8013732,13.5642332 52.053923,13.5642332 C52.1566715,13.5642332 52.2277311,13.3016005 51.9763016,13.3016005 Z M34.6638313,15.1678769 C34.3322195,15.8283796 33.7770259,16.2198479 33.4242883,16.0437992 C33.0702704,15.8664702 33.0533057,15.1875623 33.383477,14.5281799 C33.7150888,13.8676771 34.2704424,13.4762088 34.6243004,13.6522575 C34.977038,13.8281462 34.9954431,14.5072141 34.6638313,15.1678769 Z M34.3677494,13.1598012 C33.3229803,13.1598012 32.2452421,13.6745037 32.0307827,14.7698467 C31.8440111,15.7221102 32.5032335,16.7110239 33.6717168,16.7110239 C34.7822641,16.7110239 35.8086281,15.9847429 36.0152452,14.9327718 C36.2218624,13.8767996 35.4336443,13.1598012 34.3677494,13.1598012 Z M55.5111996,14.7573633 L54.1676279,14.7573633 C53.9163584,14.7573633 53.9899787,15.0187156 54.0925671,15.0187156 C54.1991566,15.0187156 54.2979039,15.0752112 54.2979039,15.2434178 C54.2979039,15.7858078 54.0663199,15.9945056 53.600431,15.9945056 C53.0886093,15.9945056 52.9043984,15.3759344 53.2491337,14.6168444 C53.4688745,14.13095 54.0504755,13.6778646 54.7413866,13.6778646 C55.1637435,13.6778646 55.5190418,13.7684497 55.5729767,14.1650394 C55.5861004,14.2609059 55.7322208,14.2609059 55.783435,14.1703209 L56.1019231,13.5989628 C56.1374529,13.5386261 56.0822377,13.4664461 55.9847707,13.4611646 C55.9031481,13.4558832 55.7190972,13.5595919 55.5979437,13.4715675 C55.3295494,13.2707119 54.7439474,13.0789789 54.3031854,13.0789789 C53.5820259,13.0789789 52.5755074,13.2417439 51.8951591,14.4185495 C51.2805891,15.4849246 52.1753967,16.6117964 53.0057064,16.6130813 C53.4675942,16.6145171 54.0031024,16.2729826 54.3097472,16.1455874 L54.6519219,16.375411 C54.7031361,16.4371881 54.811166,16.5133692 54.9137543,16.5133692 L55.0413096,16.5133692 C55.1597424,16.5133692 55.2058352,16.3544452 55.2519279,16.2520168 L55.7781535,14.9780643 C55.8453721,14.8506691 55.8085619,14.7573633 55.5111996,14.7573633 Z M73.9111708,13.3875443 C73.8204257,13.4361977 73.6072467,13.4650057 73.5150612,13.3875443 C73.2769153,13.1892494 72.8084657,13.0368872 72.563758,13.0368872 C71.8610036,13.0368872 71.3491819,13.1761258 71.0439775,13.8393493 C70.782145,14.4028652 71.0505393,14.8769164 71.6715111,15.1632356 C71.9400654,15.2866297 72.2979244,15.4495548 72.1598062,15.7726842 C72.0597786,16.0090696 71.7848225,16.0340365 71.5361137,16.0313158 C71.2032215,16.0287551 70.7030832,15.7778056 70.6241813,15.3090359 C70.5992144,15.1553934 70.4202849,15.1894828 70.3689107,15.2735061 L69.9425527,16.1167794 C69.8767745,16.2296106 70.051863,16.3557255 70.1214822,16.2808248 C70.2648819,16.1284627 70.5780886,16.0918125 70.7307708,16.1942409 C70.9426695,16.3334794 71.4860198,16.5817081 71.8110697,16.5790095 C72.5242271,16.5737059 72.993957,16.389815 73.3847852,15.779246 C73.7413638,15.2235723 73.521623,14.6707793 72.8716832,14.3633343 C72.5269478,14.2018496 72.2334266,13.9155304 72.3873892,13.6016835 C72.4874169,13.3968268 72.7940617,13.4401988 72.9465839,13.4677264 C73.236104,13.5162199 73.6085271,13.7894155 73.6518991,14.0285216 C73.6703042,14.13095 73.8005802,14.1506354 73.8572359,14.0600503 L74.0822582,13.5373457 C74.132192,13.4361977 73.9676665,13.3574559 73.9111708,13.3875443 Z M64.5717867,15.4037821 C64.1204618,15.9882639 63.5204558,16.1366249 62.8479497,16.1366249 L62.6571769,16.1366249 L63.8440653,13.7922963 C63.900721,13.6847465 64.0257156,13.6020036 64.1796782,13.6020036 C64.3283593,13.6020036 64.3099542,13.3051215 64.1151803,13.3051215 L62.2466633,13.3051215 C62.0874193,13.3051215 62.0309236,13.6020036 62.1796048,13.6020036 C62.3388488,13.6020036 62.3678168,13.7778923 62.2914757,13.924973 L61.2295819,16.0172319 C61.1572419,16.1300631 61.0400895,16.1590311 60.9098134,16.1918402 C60.7518497,16.2324914 60.6439799,16.5149696 60.8229094,16.5149696 L63.8072551,16.5149696 C64.0388392,16.5149696 64.0914938,16.429506 64.1534309,16.3480434 L64.7534369,15.4209069 C64.8401809,15.3079156 64.6586907,15.2909509 64.5717867,15.4037821 Z M69.0731922,13.570955 C69.4902676,13.570955 69.849567,13.8651164 69.9667194,14.1869655 C69.9956874,14.2631465 70.2179889,14.3234832 70.2640817,14.2276167 L70.5246338,13.7495644 C70.6363447,13.5407066 70.4508534,13.3017605 70.1534911,13.3017605 L66.6678866,13.3017605 C66.4164571,13.3017605 66.4915178,13.5616724 66.5928259,13.5616724 C66.8165678,13.5616724 66.8836263,13.834868 66.7480688,14.0646916 L65.700739,15.9900244 C65.5440557,16.1726349 65.4427477,16.2528171 65.2190057,16.2528171 C65.0400762,16.2528171 64.9755784,16.5141694 65.2282883,16.5141694 L68.7587052,16.5141694 C68.9033852,16.5141694 68.9653223,16.4629552 69.0179769,16.3906152 L69.4968294,15.7536389 C69.6152622,15.6027172 69.3614319,15.6027172 69.2850908,15.6774579 C68.6745219,16.2869065 68.0218613,16.2697818 67.5481302,16.2697818 L67.1363363,16.2697818 L67.6204702,15.1902831 L67.7230586,15.1902831 C68.0337046,15.1902831 68.3915636,15.1877224 68.4850294,15.4226674 C68.5112767,15.479163 68.6639589,15.5252558 68.725736,15.4226674 L69.1389704,14.5992395 C69.2047486,14.4771257 69.0179769,14.4574403 68.9691634,14.5441843 C68.8060783,14.8356249 68.0902002,14.7568831 67.9021482,14.7568831 L67.7993997,14.7568831 L68.4008461,13.570955 L69.0731922,13.570955 L69.0731922,13.570955 Z" id="Shape" fill="#542582" fill-rule="nonzero"></path>
                            <path d="M40.7496752,24.8228684 L39.8074945,24.8150262 C39.740436,24.8150262 39.686501,24.8688011 39.686501,24.9344192 C39.686501,25.0001974 39.740436,25.0539723 39.8074945,25.0539723 L40.7627988,25.0448498 C41.085128,25.0448498 41.3826504,25.085501 41.3010278,25.2287407 L38.8245025,29.9487667 C38.5165773,30.5122826 37.8653571,30.369043 37.7613284,29.9199587 L36.534909,23.5935682 L40.8482625,20.2524838 C41.2773412,19.884702 42.1010891,19.2858163 42.523446,19.2936585 L43.4641863,19.2883362 C44.0366647,19.2845359 44.2392808,19.5524501 44.1050036,19.8965453 L43.9391977,20.2169539 C43.8313279,20.3955633 43.491874,20.4179695 43.2050746,20.4179695 L42.6615642,20.4179695 C42.595786,20.4179695 42.5418511,20.4717444 42.5418511,20.5400833 C42.5418511,20.6057015 42.595786,20.6596364 42.6615642,20.6596364 L43.1970724,20.6596364 C43.4286565,20.6596364 43.7194569,20.6647578 43.6128674,20.8382458 L41.6115137,24.6468196 C41.5194882,24.7953407 41.1036932,24.8228684 40.7496752,24.8228684 Z M48.2131803,27.1724785 C46.1947018,29.6152344 45.0511854,30.4517858 43.0010181,30.4517858 C42.3037052,30.4517858 41.9405647,30.2955826 42.1351786,29.9580492 L44.5668914,25.0789392 L45.4946681,25.0789392 C46.5301546,25.0789392 46.386755,25.9484598 46.1052371,27.1263857 C46.0538629,27.2918715 46.1801378,27.3024344 46.303852,27.1579144 L48.6158517,23.1036727 C48.7277227,22.8488822 48.4369222,22.797668 48.2933625,22.9934022 C47.1354421,24.5602357 45.917025,24.4446837 45.403763,24.4446837 L44.9854072,24.4446837 L47.5802052,19.4972348 L48.627695,19.4972348 C49.9461398,19.5799777 50.5605498,20.6975669 50.1790043,23.3899919 L50.7277961,23.3899919 L52.635684,19.6339126 C52.7896466,19.317345 52.4633163,19.0270247 52.1041769,19.0270247 L39.1482721,19.0323061 C38.399585,19.0323061 38.3666158,19.6049446 39.0837743,19.6049446 C39.6666555,19.6049446 39.6364072,20.4402157 39.1127423,20.8433672 L33.6137808,25.201053 L34.7230477,30.3480771 C34.8059506,30.7368247 35.0546594,30.9219959 35.4862989,30.9219959 L46.1985429,30.9219959 C46.6407452,30.9219959 46.8222355,30.7421062 46.9657952,30.5582153 L48.9066522,27.2131297 C49.1737661,26.7325167 48.5526343,26.7626051 48.2131803,27.1724785" id="Shape" fill="#542582" fill-rule="nonzero"></path>
                            <g id="Clipped" transform="translate(16.762558, 13.286236)">
                                <mask id="mask-2" fill="white">
                                    <use xlink:href="#path-1"></use>
                                </mask>
                                <g id="Path"></g>
                                <path d="M7.74902411,12.4820137 L4.33960074,12.4820137 L8.65167387,6.80700346 L7.74902411,12.4820137 Z M6.95952566,16.006989 C6.85677723,16.5900304 6.26989485,16.9774976 5.53177061,17.170511 L4.76995982,17.3609637 L5.39493275,16.2368126 C5.55945827,15.9295276 5.1988785,15.7481974 4.80548965,16.2065643 C2.15531636,19.2837357 1.31188299,20.7587038 -2.77388752,20.7678263 L-3.87131117,20.7703871 C-4.20292293,20.7703871 -4.56734376,20.6417115 -4.3423215,20.3238635 L-2.8963214,17.6381604 L2.59207721,17.6381604 C3.34092442,17.6381604 3.14871123,17.0760849 2.70794927,17.0602405 C2.41842917,17.051118 2.10010109,16.8841918 1.87507882,16.5296937 C1.81314169,16.4311064 1.67630382,16.0410785 1.89076316,15.7403553 L3.99230465,12.9535042 L7.48719167,12.9535042 L6.95952566,16.006989 L6.95952566,16.006989 Z M15.0928161,17.0602405 C14.803296,17.051118 14.6163643,16.8513827 14.5518664,16.66093 C14.459841,16.3838933 14.4664028,15.8965585 14.5795541,15.6812989 L19.5770969,6.83325072 C19.6587195,6.67048569 19.8613355,6.32639048 20.1100443,6.32895119 C20.5508063,6.33023154 20.7417391,5.75103128 19.9943323,5.75103128 L15.9914648,5.75103128 C15.2427776,5.75103128 15.2347754,6.31838826 15.9519338,6.31838826 C16.245455,6.31838826 16.3598867,6.60470749 16.2782641,6.77947584 L15.1717179,8.7797093 C15.0335997,9.00025032 14.7269549,9.0160947 14.4046257,9.0160947 L13.4506017,9.01337395 C13.3848235,9.01337395 13.3308886,9.06730888 13.3308886,9.13420739 C13.3308886,9.19998559 13.3848235,9.25376047 13.4506017,9.25376047 L14.3966235,9.25376047 C14.6531745,9.25376047 14.8572309,9.32994154 14.7085498,9.62810404 L11.0188889,16.3352399 C10.7530553,16.704302 10.224109,16.7857645 10.2543573,16.0804494 L11.5662403,6.25533082 C11.6176145,5.94804579 11.5359919,5.7406284 11.2083813,5.7406284 L9.22927369,5.74318911 C8.99384855,5.74318911 8.84772812,5.85874108 8.73457681,6.01110324 L8.02670094,6.89886888 C7.93451544,6.99089434 7.73446008,6.99089434 7.51471928,6.99089434 L5.8540998,6.98817359 C5.7883216,6.98817359 5.73438667,7.04210851 5.73438667,7.10772667 C5.73438667,7.17350487 5.7883216,7.22727975 5.8540998,7.22727975 L7.20951483,7.22727975 C7.45022144,7.22727975 7.73189937,7.28377538 7.63059134,7.39676665 L5.72782486,9.78574766 C5.66988883,9.85264617 5.4843975,9.87105127 5.37124619,9.87105127 L4.83429762,9.86849056 C4.76851942,9.86849056 4.71330415,9.92226544 4.71330415,9.98660324 C4.71330415,10.0549421 4.76851942,10.108717 4.83429762,10.108717 L5.28306179,10.108717 C5.42118001,10.108717 5.42262041,10.1770559 5.36596473,10.238833 L3.57778996,12.4820137 C3.48560445,12.5685977 3.30667494,12.5870028 3.13158649,12.5870028 L1.55386995,12.5857224 C1.48681139,12.5857224 1.43415682,12.6382169 1.43415682,12.7052755 C1.43415682,12.7209598 1.43719766,12.7364841 1.44327935,12.7510481 C1.44920099,12.7656122 1.45800342,12.7787358 1.46920652,12.7899389 C1.48040962,12.800982 1.49353325,12.8097844 1.50809728,12.8158661 C1.52266131,12.8217877 1.53818561,12.8248286 1.55402999,12.8248286 L2.90928498,12.8248286 C3.1146218,12.8248286 3.27370582,12.8629191 3.16583597,13.0007172 L0.622412218,16.1843181 C0.144680032,16.791046 -2.15803712,17.0996114 -2.60536089,17.0996114 L5.99365841,1.03884744 C6.07656135,0.853676208 6.39488943,0.572638446 6.72650119,0.572638446 L8.55164619,0.572638446 C9.41348466,0.572638446 9.38851775,0 8.63983059,0 L-0.539509279,0 C-1.28835648,0 -1.31860485,0.572638446 -0.456606341,0.572638446 L1.24210368,0.572638446 C1.72367693,0.572638446 1.88036029,0.864079086 1.75520566,1.10046449 L1.5132187,1.54314698 C1.43031576,1.68766697 1.31716445,1.74544295 0.851275543,1.74544295 L-2.15275566,1.7427222 C-2.21853386,1.7427222 -2.27246878,1.79665713 -2.27246878,1.86227528 C-2.27246878,1.92789344 -2.21853386,1.98182836 -2.15275566,1.98182836 L0.843433373,1.98182836 C1.0065185,1.98182836 1.24994585,2.02520036 1.09598325,2.316641 L0.676347142,3.09685688 C0.603847081,3.21368921 0.419636111,3.27018484 0.210458233,3.27018484 L-1.15279897,3.26762413 C-1.21985753,3.26762413 -1.27379245,3.32011866 -1.27379245,3.38701717 C-1.27379245,3.45279537 -1.21985753,3.50657025 -1.15279897,3.50657025 L0.202616063,3.50657025 C0.397389956,3.50657025 0.401231018,3.63524585 0.289360064,3.81385527 L-0.67778754,5.60795169 C-0.760690479,5.7615942 -0.917213788,5.77999929 -1.22513899,5.77999929 L-1.76848933,5.77727854 C-1.83442758,5.77727854 -1.8883625,5.83121347 -1.8883625,5.89811198 C-1.8883625,5.96517053 -1.83442758,6.01894541 -1.76848933,6.01894541 L-1.23298116,6.01894541 C-1.02780439,6.01894541 -0.973869464,6.13321703 -1.06589493,6.32639048 L-1.86067484,7.79863784 C-1.97910761,8.01005634 -2.14747419,8.09407959 -2.6765806,8.09407959 L-5.67933144,8.09151888 C-5.69501578,8.09135884 -5.71054008,8.09439968 -5.72510411,8.10048136 C-5.73966814,8.106403 -5.75295181,8.11520543 -5.76399487,8.12624849 C-5.77519797,8.13745159 -5.7840004,8.15057522 -5.78992204,8.16513925 C-5.79600372,8.17970328 -5.79904456,8.19522758 -5.79904456,8.21091192 C-5.79904456,8.27797047 -5.74639,8.33174535 -5.67933144,8.33174535 L-2.68442277,8.33174535 C-2.34496884,8.33702681 -2.21997425,8.48682826 -2.35409136,8.72705473 L-3.90412025,11.6361797 C-3.99630576,11.7635749 -4.25029603,11.7832604 -4.68049507,11.7832604 L-7.68324591,11.7806997 C-7.75046451,11.7806997 -7.80439944,11.8344745 -7.80439944,11.9000927 C-7.80439944,11.9658709 -7.75046451,12.0183654 -7.68324591,12.0183654 L-4.68849728,12.0209261 C-4.32919787,12.0209261 -4.11073742,12.0354902 -4.21732691,12.2245025 L-5.11085415,13.9016065 C-5.27537967,14.1578374 -5.73582707,14.1578374 -5.91619698,14.1578374 L-6.86878055,14.1551166 C-6.93455875,14.1551166 -6.98849368,14.2063308 -6.98849368,14.2733894 C-6.98849368,14.3402879 -6.93455875,14.3942228 -6.86878055,14.3942228 L-5.92403915,14.3942228 C-5.59114704,14.3942228 -5.41349789,14.4519988 -5.50168229,14.6318886 L-6.69385215,16.8697878 C-6.801722,17.069523 -7.26889126,17.0786456 -7.62803063,17.0786456 L-12.2717155,17.0760849 C-12.3374937,17.0760849 -12.3914286,17.1298597 -12.3914286,17.1954779 C-12.3914286,17.2612561 -12.3374937,17.315031 -12.2717155,17.315031 L-7.6358728,17.3163113 C-7.3279476,17.3163113 -6.93984022,17.3544019 -7.08195954,17.5987895 L-7.84377033,19.0289452 C-7.91627039,19.1472179 -8.17682248,19.1563405 -8.55052588,19.1563405 L-9.50310946,19.1550601 C-9.57016801,19.1550601 -9.62426298,19.208835 -9.62426298,19.2746132 C-9.62426298,19.3402313 -9.57032806,19.3940062 -9.50310946,19.3940062 L-8.55836805,19.3940062 C-8.32678398,19.3940062 -8.04654644,19.4204135 -8.14513371,19.5950218 L-8.62014515,20.5077544 C-8.77410775,20.7337369 -8.92807035,20.9345925 -9.29649229,20.9345925 L-11.6268971,20.9345925 C-12.4874552,20.9345925 -12.4584872,21.5099517 -11.7098,21.5099517 L1.9736661,21.5165135 C2.37377681,21.5165135 2.38690044,21.4625786 2.57511252,21.1696975 L4.60415394,17.6381604 L14.976944,17.6381604 C15.7256312,17.6381604 15.5335781,17.0760849 15.0928161,17.0602405 L15.0928161,17.0602405 Z" id="Shape" fill="#542582" fill-rule="nonzero" mask="url(#mask-2)"></path>
                            </g>
                            <g id="Clipped" transform="translate(48.133798, 18.810805)">
                                <mask id="mask-4" fill="white">
                                    <use xlink:href="#path-3"></use>
                                </mask>
                                <g id="Path"></g>
                                <path d="M10.2082646,5.0589998 C9.83184042,5.36772522 9.23983661,5.72222331 9.12524491,5.60939209 C8.96472049,5.45046812 8.46730286,5.10765326 8.20018895,4.98553947 L10.4332868,0.908891485 C10.5253123,0.764371497 10.6319018,0.686910064 10.8780499,0.686910064 C11.7477305,0.686910064 12.0332495,1.62861063 11.6240163,2.80141514 C11.3384973,3.62356262 10.8740488,4.51276866 10.2082646,5.0589998 Z M28.2484562,8.71409114 C28.1919606,8.43433373 28.0893722,8.60382063 27.9051612,8.95703836 C27.8485055,9.06346781 27.6682957,9.06602852 27.4893662,9.06602852 L26.9405743,9.06874927 C26.8747961,9.06874927 26.8208612,9.12252415 26.8208612,9.18814231 C26.8208612,9.25392051 26.8747961,9.30769539 26.9405743,9.30769539 L27.4800836,9.30769539 C27.6854204,9.30769539 27.6879811,9.44437321 27.5919545,9.64922989 C27.2155304,10.4529723 26.8261426,10.9913613 26.3103199,11.633619 C26.2286973,11.7373277 26.0207998,11.8227913 25.8562743,11.8227913 L25.3063621,11.8266324 C25.2391435,11.8266324 25.1852086,11.8778465 25.1852086,11.9461854 C25.1852086,12.0119636 25.2391435,12.0657385 25.3063621,12.0657385 L25.844431,12.0657385 C26.1168264,12.0657385 25.8418703,12.2325047 25.7957776,12.2942818 C24.8391929,13.5682343 24.1799705,14.1368716 23.4759357,14.7067893 C23.3943131,14.7725675 22.9969231,14.7501613 22.7192463,14.7488809 L22.1771763,14.7514416 C22.1101178,14.7514416 22.0561828,14.8040962 22.0561828,14.8709947 C22.0561828,14.9367729 22.1101178,14.9905478 22.1771763,14.9905478 L22.7126845,14.9905478 C23.1219177,14.9905478 22.8154329,15.2256529 22.7534958,15.276867 C21.2626833,16.51657 19.0401483,16.9171609 18.0256276,16.7897656 C14.7242341,16.3774916 14.0451662,13.87808 13.8017389,12.8787635 C13.7505247,12.6699057 13.592561,12.2430676 13.5399064,11.9777142 C13.4385984,11.4550095 14.9268502,11.3066485 15.3373638,11.5811244 C15.9624967,11.9973996 17.4150587,12.4229574 18.5585751,12.4282388 C19.6166278,12.4320799 21.7810667,11.6651477 22.40748,9.85008547 C23.0482973,7.99693271 21.4376117,5.93764291 20.7244543,5.22720634 C19.8165231,4.31959521 18.9599661,2.87631586 19.3205459,1.81650262 C19.5929413,1.019162 20.0493876,0.656821739 21.0258177,0.656821739 C22.2877669,0.656821739 23.206261,1.46584559 23.206261,2.61496355 C23.206261,2.71739189 23.1430436,2.83950568 23.0601406,2.83950568 L22.6140972,2.84206638 C22.548319,2.84206638 22.4943841,2.89600131 22.4943841,2.96161946 C22.4943841,3.02739766 22.548319,3.08117254 22.6140972,3.08117254 L23.0338934,3.08117254 C23.1508857,3.08117254 23.2246661,3.17047725 23.1944178,3.31355684 C23.1115148,3.69846334 23.0851075,3.96893818 23.0009242,4.35512504 C22.9522708,4.57838681 23.2811618,4.73330968 23.3943131,4.56926429 L25.3774218,1.03500638 C25.5208215,0.768372605 25.2023333,0.697472987 24.9667482,0.778935527 C24.4246782,0.967947826 23.5404335,1.09678347 23.2285072,0.8720813 C22.4863819,0.342814855 21.8113151,-9.09746424e-15 20.7745482,-9.09746424e-15 C19.0126207,-9.09746424e-15 17.7769188,0.433399919 16.9848596,1.88212077 C16.9243629,1.99511204 16.7505548,1.99367164 16.6018736,1.99367164 L16.2637001,1.99239128 C16.2478557,1.99239128 16.2321714,1.99543213 16.2174473,2.00151381 C16.2027232,2.00759549 16.1894395,2.01639793 16.1780764,2.02760103 C16.1668733,2.03896417 16.1579108,2.05224785 16.1518291,2.06697192 C16.1457474,2.08169599 16.1427066,2.09738033 16.1427066,2.11322472 C16.1427066,2.17884287 16.1966415,2.2327778 16.2637001,2.2327778 L16.5519398,2.23005704 C16.6743737,2.23005704 16.7572766,2.26430652 16.6953395,2.40610576 C16.6401242,2.53750211 16.5927511,2.67530024 16.5466584,2.81725952 C16.3453227,3.44367285 16.4111009,4.32231596 16.7243075,5.10765326 C16.7454334,5.15886743 16.6794951,5.18383434 16.5585016,5.18255398 L16.017712,5.18511469 C15.9519338,5.18511469 15.8979989,5.23904962 15.8979989,5.30466777 C15.8979989,5.37156628 15.9519338,5.42550121 16.017712,5.42550121 L16.5559409,5.42550121 C16.801929,5.42550121 16.8585847,5.45046812 16.9611731,5.5935477 C17.2388499,5.98357562 17.5243689,6.27389595 17.8835083,6.72826167 C17.9953792,6.87278166 17.513806,6.91215256 17.257255,6.90959185 L15.1203437,6.90959185 C15.1044993,6.9094318 15.088975,6.91247264 15.074411,6.91855433 C15.059847,6.92447597 15.0467233,6.9332784 15.0355202,6.9444815 C15.0244772,6.95552456 15.0156748,6.96864819 15.0095931,6.98321222 C15.0035114,6.99777625 15.0004705,7.01330054 15.0004705,7.02914493 C15.0004705,7.09604344 15.0531251,7.14853796 15.1203437,7.14853796 L17.2849427,7.14597725 C17.6335191,7.14597725 18.2296841,7.14069579 18.2967426,7.21687687 C18.8204075,7.81976369 19.4533826,8.74962097 19.5599721,9.53095716 C19.5915009,9.75693969 19.5060372,9.85008547 19.2283604,9.85008547 L18.9388403,9.85008547 C18.8730621,9.85008547 18.8191272,9.90402039 18.8191272,9.9709189 C18.8191272,10.0379775 18.8730621,10.090472 18.9388403,10.090472 L19.1941109,10.090472 C19.4138517,10.090472 19.5350052,10.1245614 19.483631,10.2887668 C19.2033935,11.1858151 18.782317,11.8331942 17.0690429,11.8227913 C15.2728659,11.8149491 14.9071647,10.0576629 15.4333903,8.22419559 C15.5374191,7.85913458 15.4282689,7.70277132 15.2650237,7.98781018 L14.0149179,9.9499531 C13.9833891,9.99588581 13.8623957,10.1075967 13.6729032,10.1075967 L13.4952541,10.1061563 C13.4294759,10.1061563 13.3755409,10.1600912 13.3755409,10.2269898 C13.3755409,10.292768 13.4307562,10.3452625 13.4965344,10.3452625 C13.6557785,10.3452625 13.7175556,10.4305661 13.6570588,10.5173101 L13.1966114,11.2317478 C12.4424828,9.50727061 11.1766925,7.38364301 10.5016257,6.61014899 L10.513469,6.57333881 C12.1780896,6.47219082 14.6360497,4.91592021 15.0374408,3.52385503 C15.7360341,1.10846671 13.3859438,0.215419605 12.1057496,0.215419605 L6.47507162,0.218140358 C5.72766481,0.218140358 5.67244954,0.78277659 6.39088832,0.78277659 C6.77771536,0.78277659 7.11732933,1.12159034 6.94496163,1.46440519 L5.69741644,3.70758587 C5.59482806,3.8927571 5.20928138,3.88107387 4.70658229,3.88107387 L4.16051119,3.88107387 C4.09473299,3.88107387 4.04079807,3.93484875 4.04079807,4.00046691 C4.04079807,4.06624511 4.09473299,4.12001999 4.16051119,4.12001999 L4.69745976,4.12001999 C5.05659913,4.12001999 5.45142838,4.14242619 5.31843158,4.39849704 L3.84474382,7.05395179 C3.7724038,7.17750598 3.58163102,7.18934925 3.07893192,7.18934925 L2.53542154,7.19062961 C2.46964334,7.19062961 2.41570841,7.24440449 2.41570841,7.31018269 C2.41570841,7.3770812 2.46964334,7.43101612 2.53542154,7.43101612 L3.06708865,7.42957572 C3.46319825,7.42957572 3.61059903,7.48223029 3.49744772,7.68708698 L1.52762268,11.2423107 C1.2920375,11.4983815 1.01179996,11.5455946 0.530066667,11.5455946 C-0.186931723,11.5455946 -0.179089553,12.1129516 0.569597605,12.1129516 L5.39093164,12.1129516 C6.1396188,12.1129516 5.94884601,11.5351917 5.50808406,11.5351917 C5.24881232,11.5364721 4.97385624,11.0597002 5.14622393,10.7746613 L7.6080251,6.12025344 L7.85801427,6.12025344 C8.95287721,6.12025344 9.21743041,7.91290946 9.42388754,9.87121131 C9.43845157,10.0102898 9.17005731,10.0168516 8.62526656,10.0168516 L7.2567279,10.018292 C7.1909497,10.018292 7.13701477,10.0720669 7.13701477,10.1404058 C7.13701477,10.206024 7.1909497,10.2585185 7.2567279,10.2585185 L8.61070253,10.2585185 C8.97000195,10.2585185 9.47270105,10.2625196 9.48454432,10.3780716 C9.57929054,11.2370292 9.6503502,11.9921182 9.81343532,12.6803086 C9.86608989,12.8957282 9.48182357,12.8616387 9.07130998,12.8616387 L7.32906791,12.8654798 C7.26200936,12.8654798 7.20935479,12.9194147 7.20935479,12.9837525 C7.20935479,13.0508111 7.26200936,13.104586 7.32906791,13.104586 L9.07002963,13.1071467 C9.61738108,13.1071467 9.89905902,13.1058663 9.93058774,13.2188576 C10.6805553,15.9637771 13.8964851,18.1242149 17.0242305,18.0046618 C19.7073729,17.9022335 21.9732799,16.4456704 23.133761,15.5172535 C24.6786685,14.2799512 26.9458558,11.6913949 27.868191,9.80943422 C28.037998,9.46405865 28.3103933,9.02137617 28.2484562,8.71409114" id="Shape" fill="#542582" fill-rule="nonzero" mask="url(#mask-4)"></path>
                            </g>
                            <path d="M31.1903902,15.4037821 C30.7390653,15.9882639 30.1390593,16.1366249 29.4665532,16.1366249 L29.2757805,16.1366249 L30.4626689,13.7922963 C30.5193245,13.6847465 30.6443191,13.6020036 30.7982817,13.6020036 C30.9469629,13.6020036 30.9298381,13.3051215 30.7350642,13.3051215 L28.8652669,13.3051215 C28.7060228,13.3051215 28.6495272,13.6020036 28.7982083,13.6020036 C28.9574524,13.6020036 28.9877007,13.7778923 28.9100793,13.924973 L27.8481854,16.0172319 C27.7771258,16.1300631 27.658693,16.1590311 27.528417,16.1918402 C27.3717336,16.2324914 27.2625834,16.5149696 27.4415129,16.5149696 L30.427139,16.5149696 C30.6574427,16.5149696 30.7113777,16.429506 30.7718744,16.3482035 L31.3720405,15.4209069 C31.4587845,15.3079156 31.2772943,15.2909509 31.1903902,15.4037821 Z M40.181518,13.3875443 C40.0907729,13.4361977 39.8775939,13.4650057 39.7855685,13.3875443 C39.5474226,13.1892494 39.0789729,13.0368872 38.8341052,13.0368872 C38.1302304,13.0368872 37.6196892,13.1761258 37.3143247,13.8393493 C37.0524922,14.4028652 37.3208865,14.8769164 37.9420184,15.1632356 C38.2104126,15.2866297 38.5669913,15.4495548 38.4301534,15.7726842 C38.3301257,16.0090696 38.0551697,16.0340365 37.8064608,16.0313158 C37.4735687,16.0287551 36.97231,15.7778056 36.8945285,15.3090359 C36.8682813,15.1553934 36.6893517,15.1894828 36.6379775,15.2735061 L36.2143403,16.1167794 C36.1471217,16.2296106 36.3222102,16.3557255 36.3919895,16.2808248 C36.5353891,16.1284627 36.8471554,16.0918125 37.001118,16.1942409 C37.2130166,16.3334794 37.756527,16.5817081 38.0814169,16.5790095 C38.7947343,16.5737059 39.2644643,16.389815 39.6540121,15.779246 C40.0118711,15.2235723 39.7921303,14.6707793 39.1420304,14.3633343 C38.797295,14.2018496 38.5039338,13.9155304 38.6578964,13.6016835 C38.7564837,13.3968268 39.0631286,13.4401988 39.2158108,13.4677264 C39.5066113,13.5162199 39.8788743,13.7894155 39.9224063,14.0285216 C39.9408114,14.13095 40.0710875,14.1506354 40.1275831,14.0600503 L40.351325,13.5373457 C40.4026992,13.4361977 40.2381737,13.3574559 40.181518,13.3875443 Z" id="Shape" fill="#542582" fill-rule="nonzero"></path>
                            <g id="Clipped" transform="translate(55.690449, 13.301761)">
                                <mask id="mask-6" fill="white">
                                    <use xlink:href="#path-5"></use>
                                </mask>
                                <g id="Path"></g>
                                <path d="M5.20303965,0.925856179 L5.46231139,0.447803905 C5.5754627,0.237665761 5.38981133,-9.09746424e-15 5.09244905,-9.09746424e-15 L1.60684461,-9.09746424e-15 C1.35541504,-9.09746424e-15 1.42919545,0.261352315 1.53178384,0.261352315 C1.75552574,0.261352315 1.8225843,0.533107508 1.68702679,0.762931099 L0.638416646,2.68842387 C0.481733293,2.87087436 0.381705616,2.95105654 0.158123752,2.95105654 C-0.0209658011,2.95105654 -0.085303603,3.21240886 0.165965922,3.21240886 L3.69894348,3.21240886 C3.8410628,3.21240886 3.90428029,3.16119469 3.95565451,3.09029507 L4.4359474,2.45331882 C4.55293977,2.29967631 4.30038989,2.29967631 4.22276842,2.37585739 C3.61347983,2.98514597 2.96081924,2.96674088 2.48708816,2.96674088 L2.07529422,2.96674088 L2.55942818,1.8898029 L2.66217661,1.8898029 C2.97266252,1.8898029 3.33052154,1.88596184 3.42526775,2.12234724 C3.45023466,2.17740248 3.60419726,2.22349523 3.66485405,2.12234724 L4.07664799,1.2989194 C4.14370654,1.17664557 3.95821522,1.15439942 3.9082814,1.24242377 C3.74503623,1.53258406 3.02915815,1.45512262 2.84110612,1.45512262 L2.73835769,1.45512262 L3.34108446,0.269194485 L4.01215014,0.269194485 C4.42922554,0.269194485 4.78852496,0.563355878 4.90567737,0.885204931 C4.93464539,0.96138601 5.1569469,1.02300306 5.20303965,0.925856179" id="Path" fill="#542582" fill-rule="nonzero" mask="url(#mask-6)"></path>
                            </g>
                            <path d="M43.6615209,14.8381856 L44.8234424,13.8899233 L44.8287239,14.8381856 L43.6615209,14.8381856 Z M51.9763016,13.3016005 L50.7354782,13.3016005 C50.4842087,13.3016005 50.5591094,13.5629528 50.6618579,13.5629528 C50.926251,13.5629528 51.1671177,13.8727985 51.0224376,14.1591178 L50.5091756,15.0969773 L49.3762221,13.4433997 C49.299881,13.3409714 49.1209515,13.2910376 48.9682693,13.2910376 L47.7471314,13.2910376 C47.4958618,13.2910376 47.5550782,13.5511095 47.6576666,13.5511095 C47.915658,13.5511095 47.8498798,13.7441229 47.785382,13.8820811 L46.8129529,15.7509182 C46.7511758,15.902 46.4866226,15.9216854 46.4037197,15.7325131 L45.6510314,13.2844757 C45.6195027,13.1873289 45.1800211,13.1926103 45.0681501,13.2844757 L43.181228,14.8369053 L42.2047978,14.8381856 C42.0100239,14.8381856 41.9338429,14.9183678 41.9338429,15.0207962 C41.9338429,15.1232245 42.0074632,15.2163703 42.2128001,15.2163703 L42.7233413,15.2150899 L42.2128001,15.6353662 C41.9285614,15.8467847 41.6377609,16.137105 41.4442674,16.137105 L41.3258346,16.137105 C41.1403433,16.137105 41.0377549,16.165913 41.0377549,16.3144341 C41.0377549,16.4627952 41.1153764,16.5140093 41.2890245,16.5140093 L42.8115257,16.5140093 C43.0970447,16.5140093 43.0416694,16.1409461 42.8982697,16.1409461 C42.7417464,16.1409461 42.4811943,15.9413709 42.7219009,15.6590528 L43.1865095,15.2163703 L44.1022829,15.2163703 C44.6445129,15.2163703 45.0247781,15.8455044 44.7010085,16.0385178 L44.449739,16.1777563 C44.3325866,16.238253 44.279932,16.5140093 44.449739,16.5140093 L47.4235218,16.5140093 C47.6432626,16.5140093 47.5984502,16.223689 47.4958618,16.223689 C47.1919378,16.223689 47.3353374,15.786448 47.3932735,15.6694557 L48.1749297,14.1933672 L49.2723534,16.3144341 C49.3434131,16.4496715 49.4077509,16.5140093 49.5367466,16.5140093 L49.9565427,16.5140093 C50.0906598,16.5140093 50.1341919,16.4378283 50.1972493,16.3353999 L51.4460749,14.0829367 C51.6474106,13.6810655 51.8013732,13.5642332 52.053923,13.5642332 C52.1566715,13.5642332 52.2277311,13.3016005 51.9763016,13.3016005 Z M34.6638313,15.1678769 C34.3322195,15.8283796 33.7770259,16.2198479 33.4242883,16.0437992 C33.0702704,15.8664702 33.0533057,15.1875623 33.383477,14.5281799 C33.7150888,13.8676771 34.2704424,13.4762088 34.6243004,13.6522575 C34.977038,13.8281462 34.9954431,14.5072141 34.6638313,15.1678769 Z M34.3677494,13.1598012 C33.3229803,13.1598012 32.2452421,13.6745037 32.0307827,14.7698467 C31.8440111,15.7221102 32.5032335,16.7110239 33.6717168,16.7110239 C34.7822641,16.7110239 35.8086281,15.9847429 36.0152452,14.9327718 C36.2218624,13.8767996 35.4336443,13.1598012 34.3677494,13.1598012 Z M55.5110396,14.7573633 L54.1676279,14.7573633 C53.9163584,14.7573633 53.9899787,15.0187156 54.0925671,15.0187156 C54.1991566,15.0187156 54.2979039,15.0752112 54.2979039,15.2434178 C54.2979039,15.7858078 54.0663199,15.9945056 53.600431,15.9945056 C53.0886093,15.9945056 52.9043984,15.3759344 53.2491337,14.6168444 C53.4688745,14.13095 54.0504755,13.6778646 54.7413866,13.6778646 C55.1637435,13.6778646 55.5190418,13.7684497 55.5729767,14.1650394 C55.5861004,14.2609059 55.7322208,14.2609059 55.783435,14.1703209 L56.1019231,13.5989628 C56.1374529,13.5386261 56.0822377,13.4664461 55.9847707,13.4611646 C55.9033081,13.4558832 55.7190972,13.5595919 55.5979437,13.4715675 C55.3295494,13.2707119 54.7439474,13.0789789 54.3031854,13.0789789 C53.5820259,13.0789789 52.5755074,13.2417439 51.8951591,14.4185495 C51.2805891,15.4849246 52.1753967,16.6117964 53.0057064,16.6130813 C53.4675942,16.6145171 54.0031024,16.2729826 54.3097472,16.1455874 L54.6519219,16.375411 C54.7031361,16.4371881 54.811166,16.5133692 54.9137543,16.5133692 L55.0413096,16.5133692 C55.1597424,16.5133692 55.2058352,16.3544452 55.2519279,16.2520168 L55.7783136,14.9780643 C55.8453721,14.8506691 55.8085619,14.7573633 55.5111996,14.7573633 L55.5110396,14.7573633 Z M73.9111708,13.3875443 C73.8204257,13.4361977 73.6072467,13.4650057 73.5150612,13.3875443 C73.2769153,13.1892494 72.8084657,13.0368872 72.563758,13.0368872 C71.8610036,13.0368872 71.3491819,13.1761258 71.0439775,13.8393493 C70.782145,14.4028652 71.0505393,14.8769164 71.6716712,15.1632356 C71.9400654,15.2866297 72.2979244,15.4495548 72.1598062,15.7726842 C72.0597786,16.0090696 71.7848225,16.0340365 71.5361137,16.0313158 C71.2032215,16.0287551 70.7030832,15.7778056 70.6241813,15.3090359 C70.5992144,15.1553934 70.4202849,15.1894828 70.3689107,15.2735061 L69.9425527,16.1167794 C69.8767745,16.2296106 70.051863,16.3557255 70.1214822,16.2808248 C70.2648819,16.1284627 70.5780886,16.0918125 70.7307708,16.1942409 C70.9426695,16.3334794 71.4860198,16.5817081 71.8110697,16.5790095 C72.5242271,16.5737059 72.993957,16.389815 73.3847852,15.779246 C73.7413638,15.2235723 73.521623,14.6707793 72.8716832,14.3633343 C72.5269478,14.2018496 72.2334266,13.9155304 72.3873892,13.6016835 C72.4874169,13.3968268 72.7940617,13.4401988 72.9465839,13.4677264 C73.236104,13.5162199 73.6085271,13.7894155 73.6518991,14.0285216 C73.6703042,14.13095 73.8005802,14.1506354 73.8572359,14.0600503 L74.0822582,13.5373457 C74.132192,13.4361977 73.9678265,13.3574559 73.9111708,13.3875443 L73.9111708,13.3875443 Z M64.5717867,15.4037821 C64.1204618,15.9882639 63.5204558,16.1366249 62.8481097,16.1366249 L62.6571769,16.1366249 L63.8440653,13.7922963 C63.900721,13.6847465 64.0257156,13.6020036 64.1796782,13.6020036 C64.3283593,13.6020036 64.3099542,13.3051215 64.1151803,13.3051215 L62.2466633,13.3051215 C62.0874193,13.3051215 62.0309236,13.6020036 62.1796048,13.6020036 C62.3388488,13.6020036 62.3678168,13.7778923 62.2914757,13.924973 L61.2295819,16.0172319 C61.1572419,16.1300631 61.0400895,16.1590311 60.9098134,16.1918402 C60.7518497,16.2324914 60.6439799,16.5149696 60.8229094,16.5149696 L63.8072551,16.5149696 C64.0388392,16.5149696 64.0914938,16.429506 64.1534309,16.3482035 L64.7534369,15.4209069 C64.8401809,15.3079156 64.6586907,15.2909509 64.5717867,15.4037821 Z M69.0731922,13.570955 C69.4902676,13.570955 69.849567,13.8651164 69.9667194,14.1869655 C69.9956874,14.2631465 70.2179889,14.3234832 70.2640817,14.2276167 L70.5246338,13.7495644 C70.6363447,13.5407066 70.4508534,13.3017605 70.1534911,13.3017605 L66.6678866,13.3017605 C66.4164571,13.3017605 66.4915178,13.5616724 66.5928259,13.5616724 C66.8165678,13.5616724 66.8836263,13.834868 66.7480688,14.0646916 L65.700739,15.9900244 C65.5440557,16.1726349 65.4427477,16.2528171 65.2190057,16.2528171 C65.0400762,16.2528171 64.9755784,16.5141694 65.2282883,16.5141694 L68.7587052,16.5141694 C68.9033852,16.5141694 68.9653223,16.4629552 69.0179769,16.3906152 L69.4968294,15.7536389 C69.6152622,15.6027172 69.3614319,15.6027172 69.2850908,15.6774579 C68.6745219,16.2869065 68.0218613,16.2697818 67.5481302,16.2697818 L67.1363363,16.2697818 L67.6204702,15.1902831 L67.7230586,15.1902831 C68.0337046,15.1902831 68.3915636,15.1877224 68.4850294,15.4226674 C68.5112767,15.479163 68.6639589,15.5252558 68.725736,15.4226674 L69.1389704,14.5992395 C69.2047486,14.4771257 69.0179769,14.4574403 68.9691634,14.5441843 C68.8060783,14.8356249 68.0902002,14.7568831 67.9021482,14.7568831 L67.7993997,14.7568831 L68.4008461,13.570955 L69.0731922,13.570955 L69.0731922,13.570955 Z" id="Shape" fill="#542582" fill-rule="nonzero"></path>
                            <path d="M42.1188541,5.27153861 C40.4739189,5.15470628 39.1305072,5.10733317 37.9554621,5.23088736 C38.2961964,4.3744904 38.9765446,3.57474911 39.5014898,3.22409209 C40.6213197,3.2700248 41.7792401,3.43278983 42.6951735,3.61412001 C45.6294254,4.19187987 50.188927,5.97541336 52.1534706,8.6073416 C49.5349861,6.86189865 45.183382,5.48951892 42.1188541,5.27153861 Z M37.1934912,5.3333157 C36.2040975,5.39365239 34.4119216,5.78239996 33.7723846,5.96757119 C33.6078591,5.53689203 33.1552539,4.2064439 33.0104138,3.77688504 C34.8302773,3.26218263 36.9462228,3.08213281 38.5738732,3.22409209 C38.1212679,3.57202836 37.3580168,4.94312774 37.1934912,5.3333157 Z M28.908959,7.76822943 C28.7063429,7.42669493 27.741756,6.54933216 27.2193715,6.37600421 C28.4352279,5.47639529 31.2590492,4.18675845 32.3302256,3.96205628 C32.5157169,4.26806095 33.0104138,5.57882363 33.1749393,6.13049628 C32.2274772,6.33535296 29.7130214,7.23624223 28.908959,7.76822943 L28.908959,7.76822943 Z M55.3482746,10.7560962 C55.0798803,10.4486511 54.7088977,9.79471014 52.0508822,7.4819102 C48.1427608,4.08160936 42.9635678,2.52933985 38.1001421,2.52933985 C34.51451,2.52933985 31.3762016,3.33180189 27.8997197,5.24401099 C23.4692138,7.67620396 21.6349463,10.473618 21.182341,11.0424154 C20.8480085,11.4612513 20.8006354,11.7056389 21.0165352,11.8303134 C21.1717781,11.9196181 21.4691404,11.593928 21.7480976,11.2261462 C23.065262,9.48998583 24.7982215,7.76822943 26.6220862,6.75562925 C27.1891231,6.83709179 27.9826226,7.62498979 28.2905478,8.04398573 C27.1233449,8.67968162 25.19033,10.1479279 24.4587676,10.7152849 C23.8257925,11.2039001 23.607332,11.478376 23.7784194,11.6766709 C23.9192583,11.8421567 24.4035523,11.5164665 24.8087845,11.185495 C25.5088182,10.6128565 27.5905141,9.1393288 28.6208792,8.5863758 C29.3221933,9.40596258 29.0944503,10.9188612 28.8471819,11.2472721 C28.7141851,11.4231607 28.69578,11.6110527 28.8471819,11.6976367 C28.9918619,11.7790992 29.1483852,11.5716818 29.3524417,11.2773604 C29.8300138,10.58917 29.639241,8.92134849 29.2287274,8.32102238 C30.4853951,7.5422469 32.2894143,7.02082262 33.3815565,6.77531469 C33.473582,6.94992301 34.7974683,10.8111514 35.0500182,11.5124654 C35.1881364,11.8973719 35.3251343,12.3570191 35.6066522,12.2702751 C35.7934238,12.2124991 35.6698697,11.7922228 35.5131863,11.3693858 C35.3211332,10.8466812 34.3184557,7.60402399 34.0092502,6.64263798 C34.3711103,6.44834422 36.5461121,6.00694209 37.0909029,6.02806793 C36.8225086,7.44109891 37.8239057,8.02029917 38.9554188,8.76114416 C39.5568652,9.15501314 43.3806432,11.3469796 44.1794242,11.8408763 C44.6347502,12.1219141 44.9886081,12.3030842 45.0860751,12.1678468 C45.197786,12.016765 44.8873001,11.6976367 44.4675039,11.4521287 C44.1320511,11.2563946 40.5752269,9.19582444 39.0884156,8.25940533 C38.0252414,7.58817961 37.452763,6.86990086 37.7080336,5.92563959 C38.0593308,5.82449161 39.1305072,5.81520904 40.2437752,5.82449161 C47.8269935,5.8848283 53.9061155,10.224109 54.5864638,10.9188612 C54.9299188,11.272239 55.4102117,11.5742425 55.595703,11.4311629 C55.7128554,11.3404178 55.5102394,10.9412674 55.3482746,10.7560962 L55.3482746,10.7560962 Z M56.9888885,36.6672656 C57.2692861,36.1525632 57.4968691,35.8596822 57.2574428,35.7270055 C57.037702,35.6048917 56.8230826,36.082944 56.5559687,36.5451518 C55.6704437,38.0791763 54.7032961,39.346567 52.5177314,41.3349572 C50.0965815,43.5347658 47.3135714,44.8127194 46.3464238,45.1409703 C45.5213955,42.8281703 42.3790861,32.9780849 42.2961831,32.6970471 C42.1724689,32.2782112 42.0671598,32.1559374 41.9250404,32.2071515 C41.7657964,32.2636472 41.8632633,32.4921904 41.9461663,32.8612525 C42.0277889,33.2290343 45.7686639,44.8848994 45.8923782,45.2933324 C45.1502528,45.6636749 42.1356587,46.5029471 40.0289958,46.5725664 C38.1551973,46.6343435 35.9497871,46.5725664 34.8366791,46.3177759 C33.5326383,45.2658048 30.5654173,41.0841678 29.4390256,38.8579518 C28.1112982,36.2338657 27.232335,33.8200778 27.0060324,32.7981951 C26.8967222,32.3082995 26.7573236,31.9550818 26.5111755,32.0010145 C26.245502,32.0522287 26.3980242,32.4396959 26.5532671,32.9649612 C26.9520975,34.3125341 27.6033177,36.2234628 28.98498,38.9499772 C30.4495452,41.836696 33.0641887,45.2224328 33.8259995,46.1430075 C31.4378187,45.6427091 28.5336551,44.5264002 25.7743316,42.4736722 C23.3979941,40.7045427 21.355669,38.4522395 20.329305,36.8117856 C20.1530963,36.5294675 19.9464791,36.130157 19.6912085,36.2996439 C19.5753364,36.375825 19.7174557,36.6949533 19.8963852,37.0166423 C21.3873578,39.6893818 25.0243641,43.4744291 29.6850137,45.5506836 C35.1169167,47.969913 41.0395154,47.8412374 46.3358609,45.7950712 C50.9675424,44.0049759 54.9980977,40.322357 56.9888885,36.6672656 Z" id="Shape" fill="#2D2925" fill-rule="nonzero"></path>
                            <g id="Clipped" transform="translate(20.885299, 3.043082)">
                                <mask id="mask-8" fill="white">
                                    <use xlink:href="#path-7"></use>
                                </mask>
                                <g id="Path"></g>
                                <path d="M21.2335552,2.2284566 C19.5886201,2.11162428 18.2452084,2.06425117 17.0701632,2.18764531 C17.4108975,1.33140839 18.0912458,0.531667109 18.616191,0.181010085 C19.7360209,0.226942794 20.8939412,0.38970783 21.8098747,0.571038003 C24.7441266,1.14879787 29.3036282,2.93233136 31.2681717,5.5642596 C28.6496872,3.81881665 24.2980831,2.44643692 21.2335552,2.2284566 Z M16.3081924,2.2902337 C15.3187986,2.35057039 13.5266227,2.73931795 12.8870858,2.92448919 C12.7225603,2.49381002 12.269955,1.1633619 12.125115,0.733803039 C13.9449785,0.219100624 16.060924,0.0390508051 17.6885743,0.181010085 C17.2359691,0.528946357 16.4727179,1.90004573 16.3081924,2.2902337 Z M8.0236601,4.72514742 C7.82104404,4.38361292 6.85645714,3.50625016 6.3340726,3.3329222 C7.54992902,2.43331328 10.3737504,1.14367645 11.4449267,0.918974275 C11.6304181,1.22497895 12.125115,2.53574163 12.2896405,3.08741427 C11.3421783,3.29227095 8.82756254,4.19316022 8.0236601,4.72514742 Z M34.4629757,7.71301415 C34.1945815,7.40556908 33.8234388,6.75162814 31.1654233,4.4388282 C27.257462,1.03852735 22.0782689,-0.51374215 17.2148433,-0.51374215 C13.6292111,-0.51374215 10.4909028,0.288719887 7.01442085,2.20092899 C2.58391496,4.63312196 0.749647423,7.43053599 0.29704219,7.99933337 C-0.037290318,8.41816926 -0.0846634259,8.66255688 0.131236312,8.78723138 C0.286479267,8.87653609 0.583841546,8.55084597 0.862798732,8.18306421 C2.17996318,6.44690382 3.91292268,4.72514742 5.73678734,3.71254724 C6.30382423,3.79400978 7.09732379,4.58190779 7.40524899,5.00090372 C6.23804603,5.63659962 4.30503118,7.10484587 3.57346876,7.67220286 C2.94049362,8.16081805 2.72203317,8.435294 2.89312051,8.63358887 C3.03395948,8.79907466 3.51825348,8.47338454 3.92348561,8.14241296 C4.6235193,7.56977452 6.7052153,6.0962468 7.73542035,5.5432938 C8.43689444,6.36288057 8.20915143,7.87577919 7.96188301,8.20419006 C7.82888621,8.38007872 7.81048112,8.56797071 7.96188301,8.65455467 C8.10656304,8.73601721 8.26308635,8.52859982 8.46714281,8.23427838 C8.94471495,7.54608796 8.75394217,5.87826648 8.34342858,5.27810042 C9.60009629,4.49916489 11.4041155,3.97790066 12.4962576,3.73223269 C12.5882831,3.906841 13.9121694,7.76806938 14.1647193,8.46938343 C14.3028375,8.85428993 14.4398354,9.31393712 14.7213533,9.22719311 C14.908125,9.16941713 14.7845708,8.74914084 14.6278875,8.32630384 C14.4358343,7.80359921 13.4331569,4.56094199 13.1239513,3.59955598 C13.4858115,3.40526222 15.6608133,2.96386008 16.205604,2.98498593 C15.9372097,4.39801691 16.9386068,4.97721717 18.0701199,5.71806216 C18.6715663,6.11193114 22.4953443,8.30389764 23.2941254,8.7977943 C23.7494513,9.07883206 24.1033093,9.26000219 24.2007762,9.12476477 C24.3126472,8.97384301 24.0020012,8.65455467 23.5823651,8.40904674 C23.2467523,8.21331258 19.6900881,6.15274243 18.2031167,5.21632333 C17.1399425,4.54525765 16.5674641,3.82681886 16.8227348,2.88255759 C17.174032,2.7814096 18.2452084,2.77212703 19.3583163,2.7814096 C26.9416946,2.8417463 33.0208167,7.18102695 33.7011649,7.87577919 C34.04462,8.22915696 34.5249129,8.53116053 34.7104042,8.38808094 C34.8275566,8.29733583 34.6249405,7.89818539 34.4629757,7.71301415" id="Shape" fill="#2D2925" fill-rule="nonzero" mask="url(#mask-8)"></path>
                            </g>
                            <g id="Clipped" transform="translate(19.649277, 31.997013)">
                                <mask id="mask-10" fill="white">
                                    <use xlink:href="#path-9"></use>
                                </mask>
                                <g id="Path"></g>
                                <path d="M37.3396117,4.67025223 C37.6200093,4.15554982 37.8475922,3.86266878 37.608166,3.72999207 C37.3884252,3.60787828 37.1738058,4.08593055 36.9066919,4.54813845 C36.0211669,6.0821629 35.0540193,7.34955358 32.8684545,9.33794376 C30.4473046,11.5377524 27.6641345,12.815706 26.6969869,13.1439569 C25.8719586,10.8311569 22.7298092,0.981071457 22.6469063,0.700033696 C22.523192,0.281197806 22.4178829,0.158923973 22.2757636,0.210138144 C22.1165195,0.266633776 22.2139865,0.495177013 22.2968894,0.86423913 C22.378512,1.23202089 26.1193871,12.887886 26.2431013,13.296319 C25.500976,13.6666615 22.4863819,14.5059337 20.379719,14.575553 C18.5059205,14.6373301 16.3005103,14.575553 15.1874023,14.3207625 C13.8833615,13.2687914 10.9161404,9.08715437 9.78974877,6.86093838 C8.4620214,4.23685231 7.58305819,1.82306443 7.35675557,0.801181683 C7.24744533,0.311286131 7.10804676,-0.0419316022 6.86189865,0.00400110708 C6.5960651,0.0552152778 6.74874734,0.442682488 6.9039903,0.967947826 C7.30282065,2.31552069 7.95404084,4.22644944 9.33570314,6.95296385 C10.8002684,9.83968259 13.4149118,13.2254194 14.1767226,14.1459941 C11.7885418,13.6456957 8.88437826,12.5293868 6.12505477,10.4766588 C3.74871725,8.70752933 1.70639215,6.45522613 0.68002816,4.81477222 C0.503819404,4.53245411 0.297202234,4.13314362 0.0419316022,4.30263051 C-0.0739404589,4.37881159 0.0681788647,4.69793989 0.247108374,5.0196289 C1.73808092,7.69236844 5.37508726,11.4774157 10.0357368,13.5536702 C15.4676398,15.9728996 21.3902386,15.844224 26.686584,13.7980578 C31.3182656,12.0079625 35.3488208,8.32534358 37.3396117,4.67025223" id="Path" fill="#2D2925" fill-rule="nonzero" mask="url(#mask-10)"></path>
                            </g>
                        </g>
                    </g>
                </g>
            </g>
        </g>
    </g>
</svg>