<?xml version="1.0" encoding="UTF-8"?>
<svg width="80px" height="80px" viewBox="0 0 80 80" version="1.1" xmlns="http://www.w3.org/2000/svg" xmlns:xlink="http://www.w3.org/1999/xlink">
    <title>5C3719A3-FD05-4157-928A-C60084621B73</title>
    <defs>
        <polygon id="path-1" points="80 0 0 0 0 80 80 80"></polygon>
    </defs>
    <g id="Specifications" stroke="none" stroke-width="1" fill="none" fill-rule="evenodd">
        <g id="Teams" transform="translate(-48.000000, -999.000000)">
            <g id="Group-6" transform="translate(48.000000, 914.000000)">
                <g id="Group-3" transform="translate(0.000000, 48.000000)">
                    <g id="Group-5" transform="translate(0.000000, 37.000000)">
                        <g id="Clipped">
                            <mask id="mask-2" fill="white">
                                <use xlink:href="#path-1"></use>
                            </mask>
                            <g id="Path"></g>
                            <path d="M70.4798922,38.3540015 C75.3528619,36.3941036 80.4388018,32.4803225 79.9699269,24.2986368 C79.6463106,18.636793 77.1623519,13.6893993 75.6762891,10.7284065 L70.2784595,-0.000187963742 L71.3518216,11.560146 C71.685084,15.1831472 71.564981,19.9574262 70.1931579,22.5486944 C68.3621061,26.3316526 62.2899969,25.9156889 60.1160366,25.7713327 C56.2757642,25.5172057 43.7689671,25.0937234 39.975412,25.0937234 C34.9066837,25.1149633 29.3460056,25.521153 24.8218077,25.8521571 C22.66922,26.0100467 20.8111214,26.1466963 19.5614819,26.1929354 C19.4317327,26.1968826 19.2437289,26.2141753 18.9917961,26.2372948 C11.0613992,26.9649025 9.71302929,23.2725427 9.26722935,22.0577331 C8.44579994,19.8188969 8.46717261,14.8000771 8.47681869,12.6381181 L9.64550677,-0.000187963742 L4.34981204,10.8652441 C3.11360144,13.1386656 0.813863867,17.366346 0.0310187484,24.5065247 C-0.497813084,34.5614571 5.87275693,37.4895563 7.96519848,38.4502389 C8.24814999,38.5810617 8.5311015,38.7022983 8.81386387,38.8160164 C8.6415585,38.869774 8.47871007,38.92184 8.32380547,38.9757856 C6.9597371,39.4378004 5.5432773,40.0808244 5.1152564,40.2791262 L2.73778282,41.4033373 L4.28985507,43.5478156 C4.4854245,43.8117167 5.00271887,44.489326 5.57240466,45.0456987 C7.01004799,46.4509156 10.637161,48.6822332 15.0720855,48.1354467 C16.6241577,47.9448514 17.8505331,47.6676049 18.7981181,47.3847195 C18.9626687,47.8621474 19.1448093,48.3626948 19.3309218,48.8207625 C20.6910183,52.1781708 23.7813557,58.5696899 24.9439913,60.7912334 C25.7092465,62.2543431 26.4726104,63.5883218 27.0634797,64.6029501 L27.0112774,64.6471216 C26.8813391,64.7627193 26.7689907,64.8629039 26.6121947,65.0206055 L26.0850651,65.6444572 L26.052155,66.381651 C26.0192449,67.0767409 25.8603683,73.296837 30.1906991,77.9286396 L30.5511975,78.2750567 L30.9676809,78.4329463 C33.0020569,79.206793 35.6526468,80 39.8957846,80 C44.2688607,80 47.9326666,78.9566133 49.3394803,78.2500576 L49.7482091,78.0325835 L50.0156512,77.7186841 C52.9548668,74.2631586 54.2472516,69.2001673 54.3053172,67.086327 L54.3518453,67.0265546 L54.3072085,66.9919692 L54.249143,66.142937 L53.4352791,65.3228512 C53.2571104,65.1534959 53.121498,65.0245528 53.011041,64.8474909 C53.315176,64.250706 53.6872119,63.4824982 54.0921578,62.6411725 L54.175568,62.4680579 C54.4138828,61.975217 54.6153155,61.5554939 54.7335272,61.3263661 C55.8572003,59.1529414 59.1355415,52.1648254 60.435681,48.8632423 C60.7108778,48.1681524 60.9414379,47.594487 61.1370074,47.1247656 C62.0728657,47.4057714 63.3051044,47.6753114 64.8823321,47.8371482 C69.3134738,48.2952159 73.5100835,45.5731249 74.9613448,43.5902954 C75.0388916,43.4863515 75.1474573,43.3553408 75.2229236,43.2649302 L77.2206067,40.9354955 L74.5002246,39.715047 C74.4633426,39.6996339 74.29482,39.6283957 73.66896,39.4165605 L70.4798922,38.3540015 Z" id="Path" fill="#FEFEFE" fill-rule="nonzero" mask="url(#mask-2)"></path>
                        </g>
                        <g id="Group-4" transform="translate(1.936019, 10.019219)" fill-rule="nonzero">
                            <path d="M76.100154,14.3884365 C75.7979103,9.11736926 73.4225172,4.3893293 72.0041661,1.56329444 L71.8356435,1.22627545 L71.2175382,0 L71.3435045,1.36687233 C71.5178904,3.25534404 71.9383458,9.70832726 70.0027002,13.364222 C67.6040431,18.3232694 60.547467,17.8439619 58.2282481,17.6841927 L58.0519709,17.672539 C54.2408259,17.4204796 41.8444857,16.9834639 38.0469587,16.9988769 C33.0249477,17.0199289 27.4835618,17.4261185 23.029156,17.7514837 C20.8493324,17.9112529 18.9641869,18.0499702 17.6950661,18.0980889 C17.5923638,18.1018482 17.441242,18.1153815 17.2358373,18.1345538 C10.9912337,18.7121664 7.04636764,16.8832792 5.5099939,12.6980785 C4.56827226,10.1299299 4.59342771,5.0534052 4.60307378,2.61438768 L4.60515431,1.88471244 L4.60893708,0.86049801 L4.11868955,1.76140822 C2.94470558,3.91754031 0.762990564,7.93150601 0.0285649542,14.5886179 C-0.382055184,22.4353522 3.71960687,25.2499213 6.84285438,26.6840846 C10.1037949,28.1838473 13.4364189,28.3994417 14.5311538,28.47068 L14.610592,28.4763189 L14.5795733,28.4725596 C14.8042701,28.5129718 15.061877,28.5244376 15.3332911,28.5360914 C15.6703362,28.5515044 16.0346174,28.5706767 16.4085446,28.6400353 C15.8176753,28.7535654 15.0406935,28.8864558 14.3586593,29.0018655 C13.6319884,29.1251698 12.9461714,29.2426471 12.5896449,29.3176446 C11.8495452,29.4736545 8.70681637,30.2031418 7.0134575,30.7768072 C5.57581417,31.2658888 4.02771383,31.9916168 4.01220446,31.9974437 L3.72925295,32.1303341 L3.91347405,32.3823934 C3.93465758,32.4113399 4.45403248,33.1274817 4.99459091,33.654908 C6.10086323,34.7368273 9.17966314,36.6658991 12.8977519,36.2057639 C15.8698776,35.8399865 17.4626147,35.1546707 18.076748,34.8311851 C18.2685347,35.4665025 18.7296549,36.9373188 19.1928556,38.0827698 C20.5315794,41.3899919 23.5793605,47.6909124 24.7264868,49.8818178 C25.6544013,51.6548798 26.5747503,53.22964 27.1851009,54.2709591 L27.4041235,54.6465107 C27.204393,55.3259996 26.7279526,55.7494819 26.3714262,56.0594341 C26.2764785,56.1423261 26.1949597,56.2135644 26.1253567,56.2848027 L26.0555645,56.3539733 L26.0515926,56.4522784 C26.0226544,57.0624087 25.8792872,62.5394841 29.6283947,66.5513822 L29.6690596,66.5957417 L29.7252337,66.6167936 C31.5929785,67.3271086 34.0323004,68.0567838 37.9597657,68.0567838 C41.9666693,68.0567838 45.3359863,67.1115142 46.5179141,66.5186765 L46.5663336,66.495557 L46.6011351,66.4551448 C49.2169235,63.3806219 50.4064168,58.7565259 50.4355442,57.0759421 L50.4355442,56.9680509 L50.3600778,56.8911737 C50.2959598,56.8257623 50.2282481,56.760163 50.1565646,56.6928719 C49.7497272,56.303975 49.2458617,55.8225998 48.957236,54.6848553 C49.2768804,54.142016 49.900849,52.8463819 50.4084973,51.7915294 C50.6931511,51.2003834 50.9373292,50.6902499 51.0729416,50.4284164 C52.1812945,48.2858177 55.4131076,41.3976984 56.6956572,38.1423543 C57.5076297,36.0845273 57.9628865,35.054486 58.1605365,34.629124 C58.7281418,34.9332494 60.2569499,35.6070994 63.1458546,35.9035182 C66.8928816,36.288468 70.4657118,33.7955048 71.4598249,32.4382187 C71.6264561,32.2090909 71.9111098,31.8799664 71.9131903,31.8780867 L72.1378871,31.6162532 L71.824106,31.4756563 C71.8027333,31.4660702 71.6748756,31.4121246 71.1167272,31.2215294 L69.0435778,30.5324543 L66.9762917,29.8431912 C66.4124693,29.652596 63.8819825,29.1078771 62.0375018,28.709394 L60.6386319,28.4071483 L61.0957801,28.3242563 C65.3739086,27.5716494 76.7394428,25.5713393 76.100154,14.3884365 Z" id="Path" fill="#2D2925"></path>
                            <path d="M0.998279118,12.1230975 C1.62205858,8.91775177 2.65286455,5.92029398 4.05948913,3.04238112 L4.07499851,3.00760783 L4.1428993,3.00760783 L4.1428993,3.06925994 L4.1428993,3.00760783 L4.2049368,3.00760783 L4.20285628,3.07113958 C4.16408284,3.93163759 4.13892739,4.81732274 4.13892739,5.71052644 C4.13892739,7.83395283 4.28626645,9.99384419 4.76289599,11.9343819 L4.80942412,12.1230975 L4.66397645,11.9941543 C4.04208837,11.4415409 3.42398307,10.8082911 2.78072232,10.2596249 C2.21500844,10.8891155 1.67255862,11.5725517 1.10098144,12.1751634 L0.957614296,12.3272261 L0.998279118,12.1230975 Z M74.9997449,10.8082911 L74.9416794,10.8216365 L74.9978536,10.8043438 C74.1724522,8.09766596 73.4342438,5.35621479 72.0836043,2.87283783 L71.9693645,2.90366388 C72.0236473,3.76416189 72.0506942,4.61902099 72.0506942,5.46805321 C72.0506942,7.54524052 71.8880349,9.58201563 71.5489092,11.5590183 L71.529617,11.674616 L71.6361021,11.62255 C72.2988442,11.3048913 72.9265955,10.8774617 73.6046578,10.5906291 L75.2361683,11.7631469 L74.9997449,10.8082911 Z M48.3275933,39.7580907 L48.2016269,39.8139159 C47.2735232,40.2202935 46.3221555,40.6244156 45.3166941,40.8227173 C44.6656787,40.9883134 44.0050172,41.0749646 43.3519212,41.0749646 C41.311682,41.073085 39.3626076,40.2357065 38.1574157,38.4009924 L38.1186423,38.34122 L38.06644,38.3893387 C37.8241533,38.6011738 37.6770034,38.864887 37.4250706,39.0900675 C36.1404405,40.5590042 34.2764785,41.1230834 32.3720409,41.1230834 C30.8935436,41.1230834 29.3919713,40.7823051 28.1364686,40.2625853 L28.0067194,40.2105194 L28.0551389,40.3415301 C29.0201246,42.8767851 29.610994,45.6913541 29.610994,48.5194566 C29.610994,49.7880239 29.4927823,51.0567791 29.2351754,52.3061741 C29.0587089,53.1820852 28.76422,54.0907019 28.5298771,54.945373 L28.4911037,55.0782634 L28.6151787,55.0147317 C31.3334802,53.5843276 34.6524863,52.8585996 37.9618463,52.8585996 C41.0947399,52.8585996 44.2200679,53.5074504 46.8201577,54.8183095 C47.2483678,54.9934918 47.649531,55.2900985 48.040859,55.4150944 L48.1569901,55.4517474 L48.1184058,55.3382173 C47.3607162,53.1068997 46.913214,50.7370528 46.913214,48.2557435 L46.913214,48.1497319 C46.9092421,47.9925942 46.9073507,47.8352686 46.9073507,47.6781309 C46.9073507,44.9656261 47.4789279,42.2954132 48.2829565,39.8872218 L48.3275933,39.7580907 Z M21.7477413,42.3811247 C21.4570351,42.0230538 21.2206117,41.6322771 21.1334187,41.1760891 L21.1063719,41.0373719 L21.226475,41.1125574 C21.7148311,41.4262689 22.2514176,41.555212 22.8016221,41.555212 C23.9370218,41.555212 25.1306762,41.0009069 26.0237892,40.3770553 L26.064454,40.3482968 L26.0994447,40.3847618 L26.1304634,40.4137082 L26.0858267,40.456 L26.1304634,40.4137082 L26.1497556,40.4328805 L26.1478642,40.4618269 C26.0237892,41.6149845 25.6110885,42.9337381 24.3807412,43.3859788 C24.1967093,43.4322179 24.0185406,43.4534578 23.8441547,43.4534578 C23.0187534,43.4534578 22.3019177,42.9760299 21.7477413,42.3811247 L21.7477413,42.3811247 Z M50.6250612,41.9424173 C50.3615909,41.5516407 50.2163324,41.130038 50.1310309,40.6544897 L50.1019035,40.4966002 L50.2278699,40.5949052 C50.8382205,41.0742128 51.6074476,41.2821007 52.3940755,41.2821007 C53.3182072,41.2821007 54.2637117,40.995268 54.9903826,40.5293059 L55.1356411,40.4370157 L55.0813583,40.6005442 C54.7210491,41.6441188 53.8103462,42.7106251 52.7040739,42.9493391 C52.6091262,42.9626845 52.5122872,42.970391 52.4173396,42.970391 C51.6927492,42.970391 51.0396532,42.581494 50.6250612,41.9424173 Z" id="Shape" fill="#C21F32"></path>
                            <path d="M52.0396296,43.4737579 C52.1829967,43.504584 52.3282552,43.5160498 52.4735138,43.5160498 C52.8901863,43.5160498 53.3085612,43.4064669 53.7174791,43.2794034 L53.8394735,43.2408708 L53.791054,43.3583482 C52.2662177,47.1469454 50.4255198,50.8103587 48.5248649,54.4468932 L48.460936,54.5683178 L48.4144079,54.4391867 C48.0308346,53.3939203 47.922269,52.2830546 47.922269,51.1473777 C47.922269,50.3137585 47.9803346,49.4666059 48.0346174,48.6196413 C48.3079228,46.1766765 48.9006835,43.8241223 49.6351092,41.5621667 L49.6795568,41.4234494 L49.7474575,41.5525805 C50.1989316,42.4264239 51.0553517,43.3275221 52.0356577,43.4737579 L52.0396296,43.4737579 Z M27.9603804,54.4611784 C25.6606429,50.974827 23.9130012,47.2882941 22.2253165,43.5476277 L22.1517415,43.3859788 L22.3087267,43.4686829 C22.7658749,43.7132237 23.3801975,43.9056986 23.9633121,43.9056986 C24.358612,43.9056986 24.736322,43.8190473 25.0521837,43.6055205 C25.790392,43.0914397 26.2244654,42.2830076 26.517063,41.4666811 L26.5634019,41.3319111 L26.6273308,41.4608542 C27.8964516,44.0096425 28.5049108,47.0976989 28.5049108,50.1507939 C28.5049108,51.596611 28.367407,53.0366012 28.0999648,54.4093004 L28.0959929,54.4265931 L28.0844554,54.4399385 L28.0010453,54.5228305 L27.9603804,54.4611784 Z M29.981895,66.1342907 L29.9701684,66.1286518 L29.9605223,66.1188777 C27.6180394,63.5642625 26.7345725,60.279972 26.6067147,56.8052743 L26.6067147,56.7725686 L26.6337615,56.7532083 C29.7144528,54.5239583 33.8337048,53.3458016 37.894702,53.3458016 C40.5608013,53.3458016 43.2036365,53.8540556 45.5111287,54.9070284 C46.9856541,55.5615182 48.4058967,56.27766 49.7079276,57.3172875 L49.6710455,57.3654062 L49.7079276,57.3172875 L49.7349744,57.3385274 L49.7311916,57.3712331 C49.3358917,60.6419902 48.1598272,63.5565559 46.0827059,66.0842923 L46.0730598,66.0978257 L46.059631,66.1034646 C43.5872098,67.0603881 40.6731497,67.5782282 37.7727076,67.5782282 C35.0388967,67.5782282 32.3166232,67.1199726 29.981895,66.1342907 L29.981895,66.1342907 Z M71.1931393,31.7794058 C71.1931393,31.7794058 69.7437693,31.2269803 69.3717335,31.0882631 C65.3998206,29.6022217 60.292508,28.6954846 55.9523421,28.5915407 C55.53775,23.7883152 54.9816822,20.7850306 54.0401497,18.0706462 L54.0265317,18.0341812 L53.9877583,18.030234 C51.7498691,17.9012908 41.825761,17.5046873 37.9894605,17.5046873 C34.1512687,17.5046873 24.4055184,18.1054195 22.1695206,18.2343626 L22.1307471,18.2362422 L22.1171292,18.2747748 C21.2162615,20.8620957 20.1913188,24.0866137 19.7146893,28.8358936 C15.3281843,29.1035539 9.42440863,30.3510693 5.45060434,31.8372986 C5.16178953,31.9450018 4.95260212,32.0470661 4.80923498,32.1220637 C4.73944279,32.1605962 4.68515998,32.1914223 4.64638655,32.2126622 C4.63674047,32.2164215 4.62898579,32.2222483 4.6212311,32.2260076 L4.50112802,32.089358 L4.54368423,32.30702 C4.54519734,32.3186737 4.55068236,32.3295756 4.5591936,32.3376581 C5.16765283,33.0231618 7.40554204,35.6894275 11.5614869,35.7817177 C11.6293877,35.7837853 11.6991799,35.7837853 11.7727548,35.7837853 C13.1309599,35.7837853 15.4306975,35.5219518 16.9691518,34.8539287 C17.343079,34.6883326 18.0697499,34.3919138 18.2673999,34.312969 C18.3409748,34.4514983 18.5598083,34.873101 18.6683739,35.1753467 C19.1139847,36.4055694 19.6448971,38.1728045 20.0362251,38.9447716 C20.6136656,40.0902226 21.5553872,41.0103051 23.0821149,41.0450784 L23.142261,41.0450784 C24.5216496,41.0411312 25.4730173,39.9477461 25.6396485,39.714859 L25.7035774,39.6263281 L25.5931204,39.6205012 C21.7509566,39.4280263 20.1795922,37.4008374 19.9182025,34.3379682 L19.9142306,34.2917291 L19.8695939,34.2840226 C19.4162284,34.2031982 19.1276027,34.1396665 18.9492449,34.043429 C18.7710762,33.9471916 18.691638,33.8278346 18.6314919,33.5928799 C18.6063364,33.488936 18.594799,33.384992 18.594799,33.2791684 C18.594799,32.9038049 18.7478122,32.4955476 19.0326551,32.0239466 C19.3290354,31.6292227 19.7670807,31.2405137 20.638821,31.2384461 C20.9993194,31.2384461 21.4332036,31.3059251 21.9622246,31.4734008 C23.1575812,31.8487644 24.1167036,32.6149046 24.7832284,33.1962764 C25.5815829,33.8892988 27.8989104,36.2899717 29.3034544,37.1294177 C30.1288558,37.6201911 31.3824671,38.0784467 32.6593426,38.0784467 C33.6805024,38.0784467 34.7169826,37.7839075 35.5482472,36.9734078 C37.3346623,35.2330515 37.5516044,33.7353564 37.7861364,32.8094471 L37.8035372,32.7363292 L37.7278817,32.7342616 C34.645299,32.6476103 31.7253756,32.3474322 29.0362014,31.9777075 C28.7241226,31.933536 28.6312555,31.8025253 28.6312555,31.6927545 C28.6331468,31.5579845 28.7823773,31.3982153 29.0303381,31.3982153 C29.0768663,31.3982153 29.1271771,31.4040422 29.18146,31.4175755 C29.1892146,31.4194552 34.2655085,32.0874783 37.8209379,32.1087182 L37.8771121,32.1087182 L37.881084,32.052893 C37.9100223,31.6408765 37.9158856,30.9189077 37.941041,30.1065285 L37.9429324,30.0448763 L37.881084,30.0429967 C35.7748354,29.9967576 32.2351044,29.7753363 28.8811077,29.1035539 C28.5905906,29.0437815 28.4761617,28.8706668 28.4761617,28.7261227 C28.4801336,28.5857138 28.5750813,28.4624096 28.7842687,28.46053 C28.8307968,28.46053 28.8829991,28.4663568 28.9412538,28.4817699 C29.4411474,28.6125926 34.9030951,29.3808004 37.8771121,29.3808004 L37.9003762,29.3808004 L37.9624137,29.3826801 L37.9624137,29.3229076 C37.9760317,28.6915374 37.9817058,27.802093 37.9856778,26.9474218 L37.9856778,26.8876494 L37.7375278,26.8876494 C35.8155002,26.8876494 33.0332698,26.6951745 29.0768663,26.09651 C28.7532499,26.0465116 28.6390101,25.8905017 28.6390101,25.7711447 C28.6390101,25.6480285 28.7551413,25.5151381 29.0032913,25.5132585 C29.0244748,25.5132585 29.0458475,25.5151381 29.071003,25.5170178 C29.0691116,25.5170178 33.8993359,26.23128 37.6658442,26.23128 C37.7530371,26.23128 37.8383387,26.23128 37.9255316,26.2294003 L37.9856778,26.2294003 L37.9856778,26.1696279 C37.9856778,25.5901357 37.9817058,24.914406 37.9758425,24.2330374 L37.9758425,24.2213837 C37.9779231,23.8537266 38.1424737,23.7054232 38.262766,23.7054232 C38.3751144,23.7054232 38.5203729,23.8345543 38.5222643,24.173265 C38.5222643,24.4313392 38.5377736,25.1647737 38.5377736,26.081097 L38.5377736,26.1946271 L38.5998111,26.1927474 C42.240353,26.0829766 45.4432279,25.6594943 46.9466915,25.3918339 C47.0338845,25.3764209 47.10954,25.3687144 47.1753602,25.3687144 C47.4738211,25.3745413 47.5511789,25.4938982 47.5551508,25.6094959 C47.5551508,25.7267853 47.4543398,25.8636229 47.303218,25.8905017 C46.8110791,25.9790326 42.5912053,26.7895323 38.5765471,26.8761836 L38.5165901,26.8761836 L38.5184815,26.9357681 C38.5184815,27.6404442 38.5455283,28.5548878 38.5572549,29.299976 L38.5591463,29.3614402 L38.6191033,29.3595605 C41.3181127,29.2633231 44.4434407,29.1631384 47.1269407,28.5740601 C47.2529071,28.5471812 47.3612836,28.5336479 47.4562312,28.5336479 C47.7683101,28.5375951 47.8844413,28.6607113 47.8844413,28.7646553 C47.8903046,28.8860799 47.7274561,29.0708482 47.3438828,29.13438 C44.7127742,29.5693281 40.91903,30.0179975 38.6385846,30.0352902 L38.5765471,30.0352902 L38.5784385,30.0969423 C38.5939478,30.7495524 38.5998111,31.5406918 38.6327213,32.0585319 L38.6366932,32.1164247 L38.6947588,32.1164247 C42.9999341,32.0143604 47.0764407,31.4059218 47.7702015,31.2865648 C47.8205124,31.2788583 47.8670405,31.275099 47.9116772,31.275099 C48.1810108,31.2769787 48.3048966,31.4213348 48.3048966,31.5561048 C48.3048966,31.6889952 48.1866849,31.850644 47.8611772,31.8968831 C47.1036767,32.000827 42.0525383,32.6476103 38.8188338,32.7286226 L38.7393955,32.7305023 L38.760579,32.8054998 C39.0804126,33.893246 39.142261,35.4775924 40.7310261,36.8348786 C41.5080079,37.4989545 42.5524319,37.7974409 43.6295768,37.7974409 C44.6914016,37.7974409 45.7861364,37.506661 46.6928674,36.9869412 C48.11311,36.1706147 50.3568625,33.7276499 51.1531364,33.0346276 C51.8156893,32.457015 53.3270968,31.0690908 55.3459634,31.0690908 C55.3750907,31.0690908 55.4021375,31.0690908 55.4312649,31.0709704 C56.467745,31.0922103 56.9735019,31.36363 57.2388636,31.6581691 C57.5063057,31.954588 57.5354331,32.2818328 57.5993619,32.4590826 C57.6457009,32.5840785 57.6844744,32.7536218 57.6844744,32.9248568 C57.682583,33.1752245 57.6050361,33.421645 57.3532925,33.5755873 C57.0005488,33.7930613 56.6672864,33.7353564 56.2933591,33.9047118 L56.2644209,33.9182452 L56.2585576,33.9490712 C55.9950874,35.6238282 55.4660664,37.5279009 54.1447434,38.5231689 C53.4316905,39.0622489 52.5113415,39.3644946 51.7691612,39.5319703 C51.0290614,39.699446 50.4692109,39.7282044 50.4692109,39.7282044 L50.3413531,39.7359109 L50.4264655,39.8302687 C50.4264655,39.8302687 50.7404358,40.171047 50.8450295,40.2712317 C51.0795615,40.4905854 51.7440058,40.8101237 52.6140438,40.8121913 C52.7071001,40.8121913 52.8018586,40.8082441 52.8988867,40.8024172 C53.8500653,40.7215928 54.9468807,40.0035713 55.413675,39.5261434 C56.1208646,38.6135794 56.7699887,36.7192809 57.2505902,35.5007119 C57.4191127,35.0655759 57.8045774,34.312969 57.9615626,33.9259517 C58.3530797,34.1088404 58.5815593,34.230077 59.3296029,34.5304431 C60.8833774,35.1484679 62.8538244,35.4198875 64.177228,35.4198875 C64.2526943,35.4198875 64.3264584,35.4198875 64.398142,35.4180079 C66.5603757,35.3621826 69.005561,34.0626013 70.4800863,32.7055031 C70.7376933,32.4667892 71.2162142,31.8756432 71.2182947,31.8737636 L71.270497,31.8083522 L71.1929501,31.7794058 L71.1931393,31.7794058 Z" id="Shape" fill="#C21F32"></path>
                            <path d="M40.2846588,58.1680114 C40.0561792,58.5492019 39.9553683,58.9862176 39.9553683,59.4309398 C39.9553683,60.1510289 40.2226213,60.8882227 40.6411852,61.425423 C40.6663407,61.4600084 40.7013313,61.4754214 40.7419962,61.477301 C40.7885243,61.477301 40.8407266,61.4523019 40.8795,61.41001 L40.8795,61.3714774 C40.8834719,60.9461155 40.6063837,60.5763908 40.6024118,60.1085491 C40.6024118,60.0008458 40.6179212,59.8852481 40.658586,59.7677708 L40.69944,59.6427749 L40.7671516,59.7544254 C41.1894984,60.4474477 41.8677498,60.8844634 42.5768308,61.1192301 C42.853919,61.1904684 43.1310072,61.2271213 43.4003407,61.2271213 C44.3458451,61.2252417 45.2234488,60.8015714 45.8434454,60.0431377 C46.1379344,59.6330008 46.3628203,59.113281 46.3628203,58.6050271 C46.3628203,58.3663131 46.3144008,58.1296668 46.1980805,57.9042983 C45.7524697,57.0419206 44.8476301,56.5432528 43.9388186,56.3949494 C43.783914,56.3776568 43.6288203,56.3699502 43.4739157,56.3699502 C42.1582668,56.3699502 40.9279195,56.9552693 40.2846588,58.1680114 Z M35.1325203,61.7667652 C35.2081758,61.7705245 35.2991515,61.6838732 35.361189,61.5780496 C35.706178,61.0389696 35.9405209,60.3382408 35.9405209,59.6548046 C35.9405209,59.2063231 35.8398991,58.7653602 35.6072585,58.3804104 L35.6596499,58.3495844 L35.6053671,58.3766511 C35.2429773,57.6873881 34.5028776,57.1310154 33.7975793,56.8962487 C33.3947139,56.7671176 32.9683952,56.6998266 32.5460485,56.6998266 C31.5345346,56.6998266 30.546474,57.0847763 29.9225054,57.9125687 C29.6822993,58.2264681 29.5621962,58.6305902 29.5621962,59.0330205 C29.5621962,59.2427881 29.5951063,59.4527436 29.6630071,59.6489777 C29.994189,60.5692482 30.8738731,61.2970438 31.8059487,61.472226 C32.0151361,61.508691 32.2205407,61.5280512 32.4200821,61.5280512 C33.5051709,61.5280512 34.4603213,61.000437 35.1383836,60.0745276 L35.2062844,59.9820495 L35.2450578,60.0899407 C35.2739961,60.1707651 35.2857227,60.2574163 35.2857227,60.342188 C35.2838313,60.5327832 35.2352226,60.7252581 35.2159305,60.8792004 C35.1830204,61.15062 34.9679696,61.3605755 34.9757243,61.5472235 C34.9757243,61.6088756 34.9931251,61.6684602 35.0474079,61.7396984 C35.080318,61.7590587 35.1073649,61.7667652 35.1325203,61.7667652 Z M30.227397,65.3200318 C32.5950354,64.3324703 35.4256853,63.7606846 38.2370431,63.7606846 C40.3588011,63.7606846 42.4667521,64.0860498 44.3596523,64.8061389 C44.8343904,65.0063203 45.3361754,65.1698487 45.8148855,65.3181521 C45.9349886,65.1621422 45.9930542,65.1275569 46.0743838,64.9909073 C43.7650002,63.8646285 41.0523728,63.3411495 38.3263166,63.3411495 C35.4179306,63.3411495 32.4942245,63.9379344 30.0297471,65.0275602 C30.0781666,65.1506764 30.1402041,65.2296212 30.227397,65.3200318 Z M32.2924135,47.9245514 C33.7086841,49.6782531 35.8245789,50.4541674 37.9868126,50.456047 C38.7811952,50.456047 39.581441,50.3502234 40.354451,50.1500421 C43.9601913,49.1566537 46.136043,45.2524588 46.8801147,41.8373456 C46.775521,41.7411081 46.6824648,41.7198682 46.5468523,41.679456 C46.0953782,43.6891644 45.2330948,45.6625957 43.9564085,47.3238192 C42.4294917,49.1720667 40.1762823,50.1056826 37.9576852,50.1056826 C37.1691659,50.1056826 36.3844294,49.9882053 35.636575,49.751371 C32.3368611,48.7292241 30.6223186,45.1331018 30.3024851,41.8777578 C30.1668726,41.8796374 30.0758969,41.8873439 29.9692227,41.9604618 C30.1941086,44.2032452 30.8702795,46.2014877 32.2924135,47.9245514 Z" id="Shape" fill="#2D2925"></path>
                            <path d="M5.47500324,14.1854356 C7.36620119,17.8105044 11.1792376,18.9790749 15.0580942,18.7941186 C17.2280827,18.7749463 19.3129586,18.5516454 21.4559002,18.4149957 L21.4540088,18.5631112 C20.3630568,21.6163942 19.6577585,24.7255025 19.2064736,27.9269009 C13.5915127,28.1310295 7.83507605,27.6900666 3.68669674,23.9650012 C0.877230344,21.1254329 0.160394635,17.2310121 0.770745251,13.3845221 C1.44105284,12.5952624 2.12895032,11.9330661 2.82838527,11.1438064 C3.74873423,12.089076 5.22117909,12.8610431 5.47500324,14.1854356 L5.47500324,14.1854356 Z M75.3023669,12.5582335 C75.4438426,13.1183655 75.4708895,13.6478593 75.5251723,14.2348701 C75.7924253,18.527962 73.926761,22.4859145 70.2395019,24.670993 C66.2036601,27.0889585 61.540067,27.9167509 56.5916309,28.0379875 C56.5082207,27.5972125 56.4539379,27.0368926 56.3977637,26.5384127 C56.0064357,23.7142575 55.4715515,20.8592762 54.6752775,18.1505308 C59.9724853,18.0909463 66.4168194,19.4788705 69.9139942,14.6468866 C70.3809777,13.9730366 70.8479611,13.3570794 71.2566899,12.6255245 C72.039535,12.2770398 72.7932528,11.7804396 73.5488619,11.3721823 C74.184368,11.6996151 74.6668608,12.2020422 75.3023669,12.5580456 L75.3023669,12.5582335 Z M55.1711992,34.2907893 C55.1923827,35.9367878 54.6635509,37.6386115 53.1812708,38.424112 C52.4856186,38.8032349 51.6757267,38.9457114 50.8930707,38.911126 C50.8658347,38.7667699 50.8077692,38.5876404 50.8679153,38.4124582 C52.0827532,38.4491112 53.2433083,38.0139751 53.8846777,37.0187071 C54.3225338,36.2852726 54.4988111,35.4631192 54.5046744,34.5526228 C54.7079985,34.4351455 54.9385586,34.3484942 55.1711992,34.2907893 L55.1711992,34.2907893 Z M25.2759347,38.7603791 C25.0569121,38.7968441 24.9523184,38.8526693 24.5415091,38.7622588 C22.5924347,38.7622588 20.5540869,37.2106181 20.6722986,34.5810053 C20.9028586,34.4922864 21.1625461,34.5270597 21.4008609,34.6041249 C21.4008609,36.0959931 22.0072396,38.1346478 25.1964965,38.1346478 C25.4134386,38.481253 25.2042512,38.5158383 25.2759347,38.7603791" id="Shape" fill="#FEFEFE"></path>
                        </g>
                    </g>
                </g>
            </g>
        </g>
    </g>
</svg>