<?xml version="1.0" encoding="UTF-8"?>
<svg width="80px" height="80px" viewBox="0 0 80 80" version="1.1" xmlns="http://www.w3.org/2000/svg" xmlns:xlink="http://www.w3.org/1999/xlink">
    <title>695C2295-D108-4EE0-B86C-FDAAA8975117</title>
    <defs>
        <polygon id="path-1" points="48 0 0 0 0 48 48 48"></polygon>
    </defs>
    <g id="iOS" stroke="none" stroke-width="1" fill="none" fill-rule="evenodd">
        <g id="Pick-teams" transform="translate(-294.000000, -233.000000)">
            <g id="Group" transform="translate(8.000000, 195.000000)">
                <g id="Group-10" transform="translate(8.000000, 36.000000)">
                    <g id="Container/Player-&amp;-Team-tiles/Teams/Team-tile/Large/Unselected" transform="translate(276.000000, 0.000000)">
                        <g id="Group" transform="translate(2.000000, 2.000000)">
                            <rect id="Rectangle" fill="#CE1141" fill-rule="nonzero" x="0" y="0" width="80" height="80" rx="8"></rect>
                            <g id="Group-5" transform="translate(16.000000, 16.000000)">
                                <g id="Clipped">
                                    <mask id="mask-2" fill="white">
                                        <use xlink:href="#path-1"></use>
                                    </mask>
                                    <g id="Path"></g>
                                    <path d="M42.2879353,23.0124009 C45.2117171,21.8364621 48.2632811,19.4881935 47.9819562,14.5791821 C47.7877864,11.1820758 46.2974112,8.21363959 45.4057735,6.43704389 L42.1670757,-0.000112778245 L42.811093,6.93608763 C43.0110504,9.1098883 42.9389886,11.9744557 42.1158947,13.5292166 C41.0172636,15.7989916 37.3739982,15.5494133 36.069622,15.4627996 C33.7654585,15.3103234 26.2613802,15.0562341 23.9852472,15.0562341 C20.9440102,15.068978 17.6076034,15.3126918 14.8930846,15.5112943 C13.601532,15.606028 12.4866728,15.6880178 11.7368891,15.7157612 C11.6590396,15.7181296 11.5462373,15.7285052 11.3950777,15.7423769 C6.63683949,16.1789415 5.82781758,13.9635256 5.56033761,13.2346398 C5.06747996,11.8913382 5.08030357,8.88004624 5.08609121,7.58287086 L5.78730406,-0.000112778245 L2.60988723,6.51914646 C1.86816086,7.88319933 0.48831832,10.4198076 0.018611249,14.7039148 C-0.29868785,20.7368743 3.52365416,22.4937338 4.77911909,23.0701434 C4.94888999,23.148637 5.1186609,23.221379 5.28831832,23.2896098 C5.1849351,23.3218644 5.08722604,23.353104 4.99428328,23.3854713 C4.17584226,23.6626803 3.32596638,24.0484946 3.06915384,24.1674757 L1.64266969,24.8420024 L2.57391304,26.1286894 C2.6912547,26.28703 3.00163132,26.6935956 3.3434428,27.0274192 C4.2060288,27.8705494 6.38229662,29.2093399 9.04325129,28.881268 C9.97449465,28.7669109 10.7103199,28.600563 11.2788708,28.4308317 C11.3776012,28.7172884 11.4868856,29.0176169 11.5985531,29.2924575 C12.414611,31.3069025 14.2688134,35.1418139 14.9663948,36.47474 C15.4255479,37.3526059 15.8835662,38.1529931 16.2380878,38.7617701 L16.2067664,38.7882729 C16.1288035,38.8576316 16.0613944,38.9177424 15.9673168,39.0123633 L15.6510391,39.3866743 L15.631293,39.8289906 C15.6115469,40.2460445 15.516221,43.9781022 18.1144195,46.7571837 L18.3307185,46.965034 L18.5806086,47.0597678 C19.8012341,47.5240758 21.3915881,48 23.9374707,48 C26.5613164,48 28.7596,47.373968 29.6036882,46.9500345 L29.8489255,46.8195501 L30.0093907,46.6312104 C31.7729201,44.5578952 32.5483509,41.5201004 32.5831903,40.2517962 L32.6111072,40.2159327 L32.5843251,40.1951815 L32.5494858,39.6857622 L32.0611675,39.1937107 C31.9542663,39.0920975 31.8728988,39.0147317 31.8066246,38.9084946 C31.9891056,38.5504236 32.2123271,38.0894989 32.4552947,37.5847035 L32.5053408,37.4808347 C32.6483297,37.1851302 32.7691893,36.9332964 32.8401163,36.7958197 C33.5143202,35.4917648 35.4813249,31.2988952 36.2614086,29.3179454 C36.4265267,28.9008914 36.5648628,28.5566922 36.6822044,28.2748594 C37.2437194,28.4434629 37.9830626,28.6051869 38.9293992,28.7022889 C41.5880843,28.9771295 44.1060501,27.343875 44.9768069,26.1541773 C45.023335,26.0918109 45.0884744,26.0132045 45.1337542,25.9589581 L46.332364,24.5612973 L44.7001348,23.8290282 C44.6780055,23.8197804 44.576892,23.7770374 44.201376,23.6499363 L42.2879353,23.0124009 Z" id="Path" fill="#FEFEFE" fill-rule="nonzero" mask="url(#mask-2)"></path>
                                </g>
                                <g id="Group-4" transform="translate(1.161611, 6.011532)" fill-rule="nonzero">
                                    <path d="M45.6600924,8.63306188 C45.4787462,5.47042156 44.0535103,2.63359758 43.2024996,0.937976664 L43.1013861,0.735765271 L42.7305229,0 L42.8061027,0.820123398 C42.9107343,1.95320643 43.1630075,5.82499636 42.0016201,8.01853322 C40.5624259,10.9939617 36.3284802,10.7063771 34.9369489,10.6105156 L34.8311825,10.6035234 C32.5444955,10.4522878 25.1066914,10.1900783 22.8281752,10.1993261 C19.8149686,10.2119573 16.4901371,10.4556711 13.8174936,10.6508902 C12.5095994,10.7467518 11.3785121,10.8299821 10.6170397,10.8588533 C10.5554183,10.8611089 10.4647452,10.8692289 10.3415024,10.8807323 C6.59474022,11.2272999 4.22782058,10.1299675 3.30599634,7.61884712 C2.74096336,6.07795796 2.75605663,3.03204312 2.76184427,1.56863261 L2.76309259,1.13082746 L2.76536225,0.516298806 L2.47121373,1.05684493 C1.76682335,2.35052418 0.457794338,4.75890361 0.0171389725,8.75317071 C-0.229233111,13.4612113 2.23176412,15.1499528 4.10571263,16.0104508 C6.06227693,16.9103084 8.06185136,17.039665 8.71869227,17.082408 L8.76635523,17.0857914 L8.74774398,17.0835358 C8.88256205,17.1077831 9.03712621,17.1146626 9.19997463,17.1216548 C9.40220174,17.1309026 9.62077044,17.142406 9.84512677,17.1840212 C9.49060518,17.2521393 9.02441608,17.3318735 8.61519557,17.4011193 C8.17919302,17.4751019 7.76770284,17.5455883 7.55378696,17.5905868 C7.1097271,17.6841927 5.22408982,18.1218851 4.2080745,18.4660843 C3.3454885,18.7595333 2.4166283,19.1949701 2.40732267,19.1984662 L2.23755177,19.2782004 L2.34808443,19.4294361 C2.36079455,19.4468039 2.67241949,19.876489 2.99675455,20.1929448 C3.66051794,20.8420964 5.50779788,21.9995395 7.73865114,21.7234583 C9.52192655,21.5039919 10.4775688,21.0928024 10.8460488,20.898711 C10.9611208,21.2799015 11.2377929,22.1623913 11.5157133,22.8496619 C12.3189476,24.8339951 14.1476163,28.6145475 14.8358921,29.9290907 C15.3926408,30.9929279 15.9448502,31.937784 16.3110605,32.5625755 L16.4424741,32.7879064 C16.3226358,33.1955998 16.0367716,33.4496892 15.8228557,33.6356605 C15.7658871,33.6853957 15.7169758,33.7281386 15.675214,33.7708816 L15.6333387,33.812384 L15.6309556,33.871367 C15.6135926,34.2374452 15.5275723,37.5236905 17.7770368,39.9308293 L17.8014357,39.957445 L17.8351402,39.9700762 C18.9557871,40.3962652 20.4193803,40.8340703 22.7758594,40.8340703 C25.1800016,40.8340703 27.2015918,40.2669085 27.9107484,39.9112059 L27.9398002,39.8973342 L27.9606811,39.8730869 C29.5301541,38.0283731 30.2438501,35.2539155 30.2613265,34.2455652 L30.2613265,34.1808305 L30.2160467,34.1347042 C30.1775759,34.0954574 30.1369489,34.0560978 30.0939387,34.0157232 C29.8498363,33.782385 29.547517,33.4935599 29.3743416,32.8109132 C29.5661283,32.4852096 29.9405094,31.7078292 30.2450984,31.0749176 C30.4158907,30.7202301 30.5623975,30.4141499 30.643765,30.2570498 C31.3087767,28.9714906 33.2478646,24.838619 34.0173943,22.8854126 C34.5045778,21.6507164 34.7777319,21.0326916 34.8963219,20.7774744 C35.2368851,20.9599496 36.15417,21.3642596 37.8875128,21.5421109 C40.1357289,21.7730808 42.2794271,20.2773029 42.8758949,19.4629312 C42.9758736,19.3254545 43.1466659,19.1279798 43.1479142,19.126852 L43.2827323,18.9697519 L43.0944636,18.8853938 C43.08164,18.8796421 43.0049253,18.8472748 42.6700363,18.7329176 L41.4261467,18.3194726 L40.185775,17.9059147 C39.8474816,17.7915576 38.3291895,17.4647263 37.2225011,17.2256364 L36.3831791,17.044289 L36.6574681,16.9945538 C39.2243452,16.5429897 46.0436657,15.3428036 45.6600924,8.63306188 Z" id="Path" fill="#2D2925"></path>
                                    <path d="M0.598967471,7.27385847 C0.97323515,5.35065106 1.59171873,3.55217639 2.43569348,1.82542867 L2.4449991,1.8045647 L2.48573958,1.8045647 L2.48573958,1.84155596 L2.48573958,1.8045647 L2.52296208,1.8045647 L2.52171377,1.84268375 C2.4984497,2.35898255 2.48335643,2.89039364 2.48335643,3.42631586 C2.48335643,4.7003717 2.57175987,5.99630651 2.8577376,7.16062911 L2.88565447,7.27385847 L2.79838587,7.1964926 C2.42525302,6.86492456 2.05438984,6.48497465 1.66843339,6.15577495 C1.32900506,6.53346929 1.00353517,6.94353099 0.660588863,7.30509805 L0.574568577,7.39633565 L0.598967471,7.27385847 Z M44.999847,6.48497465 L44.9650076,6.4929819 L44.9987121,6.48260631 C44.5034713,4.85859958 44.0605463,3.21372887 43.2501626,1.7237027 L43.1816187,1.74219833 C43.2141884,2.25849714 43.2304165,2.77141259 43.2304165,3.28083193 C43.2304165,4.52714431 43.1328209,5.74920938 42.9293455,6.93541096 L42.9177702,7.00476958 L42.9816613,6.97353001 C43.3793065,6.78293477 43.7559573,6.52647704 44.1627947,6.35437744 L45.141701,7.05788813 L44.999847,6.48497465 Z M28.996556,23.8548544 L28.9209761,23.8883495 C28.3641139,24.1321761 27.7932933,24.3746493 27.1900165,24.4936304 C26.7994072,24.592988 26.4030103,24.6449788 26.0111527,24.6449788 C24.7870092,24.643851 23.6175645,24.1414239 22.8944494,23.0405955 L22.8711854,23.004732 L22.839864,23.0336032 C22.694492,23.1607043 22.606202,23.3189322 22.4550424,23.4540405 C21.6842643,24.3354025 20.5658871,24.67385 19.4232245,24.67385 C18.5361261,24.67385 17.6351828,24.4693831 16.8818812,24.1575512 L16.8040317,24.1263116 L16.8330834,24.2049181 C17.4120748,25.726071 17.7665964,27.4148125 17.7665964,29.111674 C17.7665964,29.8728143 17.6956694,30.6340675 17.5411052,31.3837045 C17.4352254,31.9092511 17.258532,32.4544211 17.1179263,32.9672238 L17.0946622,33.046958 L17.1691072,33.008839 C18.8000881,32.1505965 20.7914918,31.7151597 22.7771078,31.7151597 C24.6568439,31.7151597 26.5320407,32.1044702 28.0920946,32.8909857 C28.3490207,32.9960951 28.5897186,33.1740591 28.8245154,33.2490567 L28.8941941,33.2710484 L28.8710435,33.2029304 C28.4164297,31.8641398 28.1479284,30.4422317 28.1479284,28.9534461 L28.1479284,28.8898392 C28.1455452,28.7955565 28.1444104,28.7011611 28.1444104,28.6068785 C28.1444104,26.9793757 28.4873567,25.3772479 28.9697739,23.9323331 L28.996556,23.8548544 Z M13.0486448,25.4286748 C12.874221,25.2138323 12.732367,24.9793663 12.6800512,24.7056535 L12.6638231,24.6224231 L12.735885,24.6675344 C13.0288987,24.8557613 13.3508506,24.9331272 13.6809733,24.9331272 C14.3622131,24.9331272 15.0784057,24.6005442 15.6142735,24.2262332 L15.6386724,24.2089781 L15.6596668,24.2308571 L15.6782781,24.2482249 L15.651496,24.2736 L15.6782781,24.2482249 L15.6898533,24.2597283 L15.6887185,24.2770961 C15.6142735,24.9689907 15.3666531,25.7602428 14.6284447,26.0315873 C14.5180256,26.0593308 14.4111244,26.0720747 14.3064928,26.0720747 C13.811252,26.0720747 13.3811506,25.785618 13.0486448,25.4286748 L13.0486448,25.4286748 Z M30.3750367,25.1654504 C30.2169546,24.9309844 30.1297994,24.6780228 30.0786185,24.3926938 L30.0611421,24.2979601 L30.1367219,24.3569431 C30.5029323,24.6445277 30.9644686,24.7692604 31.4364453,24.7692604 C31.9909243,24.7692604 32.558227,24.5971608 32.9942295,24.3175835 L33.0813847,24.2622094 L33.048815,24.3603265 C32.8326294,24.9864713 32.2862077,25.6263751 31.6224443,25.7696034 C31.5654757,25.7776107 31.5073723,25.7822346 31.4504037,25.7822346 C31.0156495,25.7822346 30.6237919,25.5488964 30.3750367,25.1654504 Z" id="Shape" fill="#C21F32"></path>
                                    <path d="M31.2237777,26.0842547 C31.309798,26.1027504 31.3969531,26.1096299 31.4841083,26.1096299 C31.7341118,26.1096299 31.9851367,26.0438801 32.2304874,25.967642 L32.3036841,25.9445225 L32.2746324,26.0150089 C31.3597306,28.2881672 30.2553119,30.4862152 29.114919,32.6681359 L29.0765616,32.7409907 L29.0486448,32.663512 C28.8185008,32.0363522 28.7533614,31.3698328 28.7533614,30.6884266 C28.7533614,30.1882551 28.7882007,29.6799635 28.8207704,29.1717848 C28.9847537,27.7060059 29.3404101,26.2944734 29.7810655,24.9373 L29.8077341,24.8540696 L29.8484745,24.9315483 C30.119359,25.4558544 30.633211,25.9965133 31.2213946,26.0842547 L31.2237777,26.0842547 Z M16.7762283,32.6767071 C15.3963857,30.5848962 14.3478007,28.3729765 13.3351899,26.1285766 L13.2910449,26.0315873 L13.385236,26.0812097 C13.659525,26.2279342 14.0281185,26.3434192 14.3779873,26.3434192 C14.6151672,26.3434192 14.8417932,26.2914284 15.0313102,26.1633123 C15.4742352,25.8548638 15.7346792,25.3698046 15.9102378,24.8800086 L15.9380412,24.7991466 L15.9763985,24.8765125 C16.7378709,26.4057855 17.1029465,28.2586193 17.1029465,30.0904763 C17.1029465,30.9579666 17.0204442,31.8219607 16.8599789,32.6455803 L16.8575957,32.6559559 L16.8506733,32.6639631 L16.8006272,32.7136983 L16.7762283,32.6767071 Z M17.989137,39.6805744 L17.982101,39.6771911 L17.9763134,39.6713266 C16.5708236,38.1385575 16.0407435,36.1679832 15.9640288,34.0831646 L15.9640288,34.0635411 L15.9802569,34.051925 C17.8286717,32.714375 20.3002229,32.007481 22.7368212,32.007481 C24.3364808,32.007481 25.9221819,32.3124333 27.3066772,32.9442171 C28.1913925,33.3369109 29.043538,33.766596 29.8247565,34.3903725 L29.8026273,34.4192437 L29.8247565,34.3903725 L29.8409846,34.4031164 L29.838715,34.4227399 C29.601535,36.3851941 28.8958963,38.1339336 27.6496235,39.6505754 L27.6438359,39.6586954 L27.6357786,39.6620788 C26.1523259,40.2362328 24.4038898,40.5469369 22.6636245,40.5469369 C21.023338,40.5469369 19.3899739,40.2719835 17.989137,39.6805744 L17.989137,39.6805744 Z M42.7158836,19.0676435 C42.7158836,19.0676435 41.8462616,18.7361882 41.6230401,18.6529578 C39.2398924,17.761333 36.1755048,17.2172908 33.5714052,17.1549244 C33.32265,14.2729891 32.9890093,12.4710183 32.4240898,10.8423877 L32.415919,10.8205087 L32.392655,10.8181404 C31.0499214,10.7407745 25.0954566,10.5028124 22.7936763,10.5028124 C20.4907612,10.5028124 14.643311,10.8632517 13.3017123,10.9406176 L13.2784483,10.9417453 L13.2702775,10.9648649 C12.7297569,12.5172574 12.1147913,14.4519682 11.8288136,17.3015361 C9.19691059,17.4621324 5.65464518,18.2106416 3.27036261,19.1023792 C3.09707372,19.1670011 2.97156127,19.2282397 2.88554099,19.2732382 C2.84366568,19.2963577 2.81109599,19.3148534 2.78783193,19.3275973 C2.78204428,19.3298529 2.77739147,19.333349 2.77273866,19.3356046 L2.70067681,19.2536148 L2.72621054,19.384212 C2.7271184,19.3912042 2.73040942,19.3977454 2.73551616,19.4025948 C3.1005917,19.8138971 4.44332523,21.4136565 6.93689215,21.4690306 C6.97763262,21.4702712 7.01950793,21.4702712 7.06365291,21.4702712 C7.87857595,21.4702712 9.2584185,21.3131711 10.1814911,20.9123572 C10.4058474,20.8129996 10.8418499,20.6351483 10.9604399,20.5877814 C11.0045849,20.670899 11.135885,20.9238606 11.2010244,21.105208 C11.4683908,21.8433416 11.7869382,22.9036827 12.021735,23.3668629 C12.3681993,24.0541336 12.9332323,24.6061831 13.8492689,24.627047 L13.8853566,24.627047 C14.7129897,24.6246787 15.2838104,23.9686476 15.3837891,23.8289154 L15.4221464,23.7757968 L15.3558722,23.7723007 C13.050574,23.6568158 12.1077553,22.4405024 11.9509215,20.6027809 L11.9485384,20.5750375 L11.9217563,20.5704136 C11.649737,20.5219189 11.4765616,20.4837999 11.3695469,20.4260574 C11.2626457,20.368315 11.2149828,20.2967008 11.1788951,20.155728 C11.1638019,20.0933616 11.1568794,20.0309952 11.1568794,19.9675011 C11.1568794,19.7422829 11.2486873,19.4973286 11.419593,19.2143679 C11.5974213,18.9775336 11.8602484,18.7443082 12.3832926,18.7430677 C12.5995916,18.7430677 12.8599221,18.7835551 13.1773347,18.8840405 C13.8945487,19.1092586 14.4700222,19.5689428 14.869937,19.9177659 C15.3489497,20.3335793 16.7393462,21.773983 17.5820727,22.2776506 C18.0773135,22.5721146 18.8294803,22.847068 19.5956055,22.847068 C20.2083015,22.847068 20.8301895,22.6703445 21.3289483,22.1840447 C22.4007974,21.1398309 22.5309626,20.2412139 22.6716818,19.6856682 L22.6821223,19.6417975 L22.636729,19.6405569 C20.7871794,19.5885662 19.0352254,19.4084593 17.4217209,19.1866245 C17.2344735,19.1601216 17.1787533,19.0815152 17.1787533,19.0156527 C17.1798881,18.9347907 17.2694264,18.8389292 17.4182029,18.8389292 C17.4461198,18.8389292 17.4763063,18.8424253 17.508876,18.8505453 C17.5135288,18.8516731 20.5593051,19.252487 22.6925628,19.2652309 L22.7262673,19.2652309 L22.7286504,19.2317358 C22.7460134,18.9845259 22.7495313,18.5513446 22.7646246,18.0639171 L22.7657594,18.0269258 L22.7286504,18.025798 C21.4649012,17.9980546 19.3410627,17.8652018 17.3286646,17.4621324 C17.1543544,17.4262689 17.085697,17.3224001 17.085697,17.2356736 C17.0880802,17.1514283 17.1450488,17.0774458 17.2705612,17.076318 C17.2984781,17.076318 17.3297994,17.0798141 17.3647523,17.0890619 C17.6646884,17.1675556 20.941857,17.6284803 22.7262673,17.6284803 L22.7402257,17.6284803 L22.7774482,17.629608 L22.7774482,17.5937446 C22.785619,17.2149224 22.7890235,16.6812558 22.7914067,16.1684531 L22.7914067,16.1325896 L22.6425167,16.1325896 C21.4893001,16.1325896 19.8199619,16.0171047 17.4461198,15.657906 C17.25195,15.627907 17.1834061,15.534301 17.1834061,15.4626868 C17.1834061,15.3888171 17.2530848,15.3090829 17.4019748,15.3079551 C17.4146849,15.3079551 17.4275085,15.3090829 17.4426018,15.3102107 C17.4414669,15.3102107 20.3396016,15.738768 22.5995065,15.738768 C22.6518223,15.738768 22.7030032,15.738768 22.755319,15.7376402 L22.7914067,15.7376402 L22.7914067,15.7017767 C22.7914067,15.3540814 22.7890235,14.9486436 22.7855055,14.5398225 L22.7855055,14.5328302 C22.7867538,14.312236 22.8854842,14.2232539 22.9576596,14.2232539 C23.0250686,14.2232539 23.1122237,14.3007326 23.1133586,14.503959 C23.1133586,14.6588035 23.1226642,15.0988642 23.1226642,15.6486582 L23.1226642,15.7167762 L23.1598867,15.7156485 C25.3442118,15.649786 27.2659368,15.3956966 28.1680149,15.2351003 C28.2203307,15.2258525 28.265724,15.2212286 28.3052161,15.2212286 C28.4842927,15.2247248 28.5307073,15.2963389 28.5330905,15.3656976 C28.5330905,15.4360712 28.4726039,15.5181737 28.3819308,15.534301 C28.0866474,15.5874196 25.5547232,16.0737194 23.1459282,16.1257102 L23.1099541,16.1257102 L23.1110889,16.1614609 C23.1110889,16.5842665 23.127317,17.1329327 23.134353,17.5799856 L23.1354878,17.6168641 L23.171462,17.6157363 C24.7908676,17.5579939 26.6660644,17.4978831 28.2761644,17.144436 C28.3517443,17.1283087 28.4167702,17.1201887 28.4737387,17.1201887 C28.6609861,17.1225571 28.7306648,17.1964268 28.7306648,17.2587932 C28.7341827,17.3316479 28.6364737,17.4425089 28.4063297,17.480628 C26.8276645,17.7415968 24.551418,18.0107985 23.1831507,18.0211741 L23.1459282,18.0211741 L23.1470631,18.0581654 C23.1563687,18.4497314 23.1598867,18.9244151 23.1796328,19.2351191 L23.1820159,19.2698548 L23.2168553,19.2698548 C25.7999604,19.2086163 28.2458644,18.8435531 28.6621209,18.7719389 C28.6923074,18.767315 28.7202243,18.7650594 28.7470063,18.7650594 C28.9086065,18.7661872 28.982938,18.8528009 28.982938,18.9336629 C28.982938,19.0133971 28.9120109,19.1103864 28.7167063,19.1381299 C28.262206,19.2004962 25.231523,19.5885662 23.2913003,19.6371736 L23.2436373,19.6383014 L23.2563474,19.6832999 C23.4482476,20.3359476 23.4853566,21.2865554 24.4386157,22.1009271 C24.9048048,22.4993727 25.5314591,22.6784645 26.1777461,22.6784645 C26.8148409,22.6784645 27.4716818,22.5039966 28.0157204,22.1921647 C28.867866,21.7023688 30.2141175,20.23659 30.6918819,19.8207766 C31.0894136,19.474209 31.9962581,18.6414545 33.207578,18.6414545 C33.2250544,18.6414545 33.2412825,18.6414545 33.2587589,18.6425822 C33.880647,18.6553262 34.1841012,18.818178 34.3433181,18.9949015 C34.5037834,19.1727528 34.5212598,19.3690997 34.5596172,19.4754496 C34.5874206,19.5504471 34.6106846,19.6521731 34.6106846,19.7549141 C34.6095498,19.9051347 34.5630217,20.052987 34.4119755,20.1453524 C34.2003293,20.2758368 34.0003718,20.2412139 33.7760155,20.3428271 L33.7586526,20.3509471 L33.7551346,20.3694427 C33.5970524,21.3742969 33.2796399,22.5167405 32.486846,23.1139013 C32.0590143,23.4373493 31.5068049,23.6186968 31.0614967,23.7191822 C30.6174369,23.8196676 30.2815265,23.8369227 30.2815265,23.8369227 L30.2048119,23.8415466 L30.2558793,23.8981612 C30.2558793,23.8981612 30.4442615,24.1026282 30.5070177,24.162739 C30.6477369,24.2943512 31.0464035,24.4860742 31.5684263,24.4873148 C31.62426,24.4873148 31.6811151,24.4849465 31.739332,24.4814503 C32.3100392,24.4329557 32.9681284,24.0021428 33.248205,23.715686 C33.6725188,23.1681477 34.0619932,22.0315685 34.3503541,21.3004271 C34.4514676,21.0393455 34.6827465,20.5877814 34.7769375,20.355571 C35.0118478,20.4653042 35.1489356,20.5380462 35.5977617,20.7182658 C36.5300264,21.0890807 37.7122947,21.2519325 38.5063368,21.2519325 C38.5516166,21.2519325 38.5958751,21.2519325 38.6388852,21.2508047 C39.9362254,21.2173096 41.4033366,20.4375608 42.2880518,19.6233019 C42.442616,19.4800735 42.7297285,19.1253859 42.7309768,19.1242581 L42.7622982,19.0850113 L42.7157701,19.0676435 L42.7158836,19.0676435 Z" id="Shape" fill="#C21F32"></path>
                                    <path d="M24.1707953,34.9008068 C24.0337075,35.1295211 23.973221,35.3917305 23.973221,35.6585639 C23.973221,36.0906173 24.1335728,36.5329336 24.3847111,36.8552538 C24.3998044,36.876005 24.4207988,36.8852528 24.4451977,36.8863806 C24.4731146,36.8863806 24.5044359,36.8713811 24.5277,36.846006 L24.5277,36.8228865 C24.5300832,36.5676693 24.3638302,36.3458345 24.3614471,36.0651294 C24.3614471,36.0005075 24.3707527,35.9311489 24.3951516,35.8606625 L24.419664,35.7856649 L24.460291,35.8526552 C24.713699,36.2684686 25.1206499,36.530678 25.5460985,36.6715381 C25.7123514,36.714281 25.8786043,36.7362728 26.0402044,36.7362728 C26.6075071,36.735145 27.1340693,36.4809428 27.5060673,36.0258826 C27.6827606,35.7798005 27.8176922,35.4679686 27.8176922,35.1630163 C27.8176922,35.0197879 27.7886405,34.8778001 27.7188483,34.742579 C27.4514818,34.2251524 26.9085781,33.9259517 26.3632912,33.8369696 C26.2703484,33.8265941 26.1772922,33.8219701 26.0843494,33.8219701 C25.2949601,33.8219701 24.5567517,34.1731616 24.1707953,34.9008068 Z M21.0795122,37.0600591 C21.1249055,37.0623147 21.1794909,37.0103239 21.2167134,36.9468298 C21.4237068,36.6233817 21.5643125,36.2029445 21.5643125,35.7928828 C21.5643125,35.5237939 21.5039395,35.2592161 21.3643551,35.0282463 L21.3957899,35.0097506 L21.3632203,35.0259907 C21.1457864,34.6124329 20.7017265,34.2786093 20.2785476,34.1377492 C20.0368283,34.0602706 19.7810371,34.019896 19.5276291,34.019896 C18.9207208,34.019896 18.3278844,34.2508658 17.9535033,34.7475412 C17.8093796,34.9358809 17.7373177,35.1783541 17.7373177,35.4198123 C17.7373177,35.5456728 17.7570638,35.6716461 17.7978043,35.7893866 C17.9965134,36.3415489 18.5243239,36.7782263 19.0835692,36.8833356 C19.2090817,36.9052146 19.3323244,36.9168307 19.4520492,36.9168307 C20.1031025,36.9168307 20.6761928,36.6002622 21.0830302,36.0447166 L21.1237706,35.9892297 L21.1470347,36.0539644 C21.1643976,36.102459 21.1714336,36.1544498 21.1714336,36.2053128 C21.1702988,36.3196699 21.1411336,36.4351549 21.1295583,36.5275202 C21.1098122,36.690372 20.9807818,36.8163453 20.9854346,36.9283341 C20.9854346,36.9653254 20.9958751,37.0010761 21.0284447,37.043819 C21.0481908,37.0554352 21.0644189,37.0600591 21.0795122,37.0600591 Z M18.1364382,39.1920191 C19.5570212,38.5994822 21.2554112,38.2564107 22.9422259,38.2564107 C24.2152807,38.2564107 25.4800512,38.4516299 26.6157914,38.8836833 C26.9006343,39.0037922 27.2017053,39.1019092 27.4889313,39.1908913 C27.5609931,39.0972853 27.5958325,39.0765341 27.6446303,38.9945444 C26.2590001,38.3187771 24.6314237,38.0046897 22.9957899,38.0046897 C21.2507584,38.0046897 19.4965347,38.3627606 18.0178482,39.0165361 C18.0468999,39.0904059 18.0841224,39.1377727 18.1364382,39.1920191 Z M19.3754481,28.7547308 C20.2252105,29.8069518 21.4947473,30.2725004 22.7920876,30.2736282 C23.2687171,30.2736282 23.7488646,30.2101341 24.2126706,30.0900252 C26.3761148,29.4939922 27.6816258,27.1514753 28.1280688,25.1024073 C28.0653126,25.0446649 28.0094789,25.0319209 27.9281114,25.0076736 C27.6572269,26.2134986 27.1398569,27.3975574 26.3738451,28.3942915 C25.457695,29.50324 24.1057694,30.0634096 22.7746111,30.0634096 C22.3014996,30.0634096 21.8306577,29.9929232 21.381945,29.8508226 C19.4021166,29.2375345 18.3733912,27.0798611 18.1814911,25.1266547 C18.1001236,25.1277825 18.0455381,25.1324064 17.9815336,25.1762771 C18.1164652,26.5219471 18.5221677,27.7208926 19.3754481,28.7547308 Z" id="Shape" fill="#2D2925"></path>
                                    <path d="M3.28500194,8.51126138 C4.41972072,10.6863026 6.70754255,11.387445 9.03485654,11.2764712 C10.3368496,11.2649678 11.5877752,11.1309872 12.8735401,11.0489974 L12.8724053,11.1378667 C12.2178341,12.9698365 11.7946551,14.8353015 11.5238841,16.7561405 C8.15490761,16.8786177 4.70104563,16.61404 2.21201804,14.3790007 C0.526338207,12.6752597 0.0962367809,10.3386073 0.46244715,8.03071328 C0.864631703,7.55715742 1.27737019,7.15983967 1.69703116,6.68628382 C2.24924054,7.25344561 3.13270745,7.71662586 3.28500194,8.51126138 L3.28500194,8.51126138 Z M45.1814201,7.53494011 C45.2663056,7.87101928 45.2825337,8.1887156 45.3151034,8.54092206 C45.4754552,11.1167772 44.3560566,13.4915487 42.1437011,14.8025958 C39.7221961,16.2533751 36.9240402,16.7500505 33.9549785,16.8227925 C33.9049324,16.5583275 33.8723627,16.2221356 33.8386582,15.9230476 C33.6038614,14.2285545 33.2829309,12.5155657 32.8051665,10.8903185 C35.9834912,10.8545678 39.8500917,11.6873223 41.9483965,8.78813197 C42.2285866,8.38382196 42.5087767,8.01424765 42.7540139,7.57531472 C43.223721,7.36622386 43.6759517,7.06826373 44.1293171,6.82330938 C44.5106208,7.01976909 44.8001165,7.32122534 45.1814201,7.53482733 L45.1814201,7.53494011 Z M33.1027195,20.5744736 C33.1154296,21.5620727 32.7981305,22.5831669 31.9087625,23.0544672 C31.4913712,23.2819409 31.005436,23.3674268 30.5358424,23.3466756 C30.5195008,23.2600619 30.4846615,23.1525843 30.5207492,23.0474749 C31.2496519,23.0694667 31.945985,22.8083851 32.3308066,22.2112243 C32.5935203,21.7711635 32.6992866,21.2778715 32.7028046,20.7315737 C32.8247991,20.6610873 32.9631351,20.6090965 33.1027195,20.5744736 L33.1027195,20.5744736 Z M15.1655608,23.2562275 C15.0341473,23.2781065 14.971391,23.3116016 14.7249055,23.2573553 C13.5554608,23.2573553 12.3324521,22.3263708 12.4033791,20.7486032 C12.5417152,20.6953719 12.6975277,20.7162358 12.8405165,20.7624749 C12.8405165,21.6575958 13.2043437,22.8807887 15.1178979,22.8807887 C15.2480632,23.0887518 15.1225507,23.109503 15.1655608,23.2562275" id="Shape" fill="#FEFEFE"></path>
                                </g>
                            </g>
                        </g>
                    </g>
                </g>
            </g>
        </g>
    </g>
</svg>