<?xml version="1.0" encoding="UTF-8"?>
<svg width="80px" height="80px" viewBox="0 0 80 80" version="1.1" xmlns="http://www.w3.org/2000/svg" xmlns:xlink="http://www.w3.org/1999/xlink">
    <title>0AEC4F23-4EB5-4A18-B884-60D7DBD7DC40</title>
    <defs>
        <polygon id="path-1" points="80 1.18237811e-14 1.18237811e-14 1.18237811e-14 1.18237811e-14 74.3160238 80 74.3160238"></polygon>
    </defs>
    <g id="Specifications" stroke="none" stroke-width="1" fill="none" fill-rule="evenodd">
        <g id="Teams" transform="translate(-48.000000, -2399.000000)">
            <g id="Group-6-Copy-12" transform="translate(48.000000, 2314.000000)">
                <g id="Group-3" transform="translate(0.000000, 48.000000)">
                    <g id="Assets-exportable/Logos/Club-logos/Eastern-Conference/Indiana-Pacers/transparent" transform="translate(0.000000, 37.000000)">
                        <g id="Group" transform="translate(0.000000, 2.000000)">
                            <g id="Group-6" transform="translate(0.000000, -0.000000)">
                                <g id="Clipped">
                                    <mask id="mask-2" fill="white">
                                        <use xlink:href="#path-1"></use>
                                    </mask>
                                    <g id="Path"></g>
                                    <path d="M73.6639245,10.3670269 C68.1390729,3.69626941 60.2140383,0.0147684371 51.3438238,-0.000624018471 L16.3316034,0.00187205541 L1.18237811e-14,74.2981352 L31.6131918,74.3160238 L35.775395,56.959782 L48.8874791,56.9622781 L49.189504,56.9622781 C59.1586151,56.9622781 67.365498,53.5166561 72.8982538,47.0202078 C83.1361088,35.8604695 81.3279113,19.6218448 73.6641325,10.3670269" id="Path" fill="#FEFEFE" fill-rule="nonzero" mask="url(#mask-2)"></path>
                                </g>
                                <path d="M72.6788073,11.1857391 C67.4152115,4.83031898 59.8358831,1.29504633 51.3421597,1.28214995 L17.3597778,1.28464603 L1.59415919,73.0145292 L30.6022818,73.0351218 L34.764693,55.676176 C38.6606484,55.676176 48.9061996,55.6788801 48.8935112,55.6788801 C58.614055,55.7481461 66.5852669,52.4562407 71.9539058,46.1521981 C81.7027384,35.5280756 79.9891837,20.0151844 72.6788073,11.1857391" id="Path" fill="#B3B1B1" fill-rule="nonzero"></path>
                                <path d="M33.2805691,53.7856081 L29.1181579,71.1418498 L3.93942861,71.1520421 L18.8800949,3.17292592 L51.3359195,3.1960146 C59.4171667,3.20870298 66.3406517,6.49041612 71.2254683,12.3919668 C78.4256014,21.0855841 79.1274142,35.5370199 70.5159593,44.9278739 C65.2342669,51.1270814 57.4910297,53.849674 48.9103597,53.7881041 L33.2805691,53.7856081 Z" id="Path" fill="#081E3F" fill-rule="nonzero"></path>
                                <path d="M15.5345238,18.2739649 L29.7606889,18.2866533 C31.3949933,18.2866533 33.1341328,19.6582459 32.3784464,21.7374754 C31.9150087,23.0219134 31.5564061,24.5114455 31.3922892,25.9086229 C31.2616613,27.0008632 32.4809934,27.6904036 33.1776061,27.6904036 L62.1730403,27.7109962 C62.7186405,27.7109962 63.005481,27.5570717 63.005481,27.2956079 C63.005481,27.0366403 62.9798962,26.0752358 62.8773492,25.4010879 C62.7750101,24.7575168 62.669967,24.6472736 62.1499516,24.6472736 C58.5358447,24.6420734 57.0629531,23.0321058 53.2745369,20.5863694 C49.4863288,18.140633 43.9304843,16.7357594 39.156119,16.7305592 L15.8804381,16.7176628 L15.5345238,18.2739649 Z M33.0987717,37.0677372 C32.5968529,35.9933854 32.1332071,34.7141475 31.8488627,33.5374567 C31.4902601,32.0300361 30.2172624,30.8044638 28.040062,30.8044638 L12.7790663,30.7942715 L13.1580535,29.0817568 L62.6115173,29.1150378 C63.1059479,29.1150378 63.0009048,29.3226279 62.9753201,29.8688521 C62.9470312,30.4148683 62.8216035,31.4274423 62.7421452,32.0248359 C62.6626868,32.6197335 62.1709603,32.4787054 61.6996183,32.4888977 C60.5880334,32.5144824 58.5183721,32.7786502 57.3119364,33.683477 C55.2628678,35.2243866 50.8930744,37.9315868 48.4365217,38.7186821 C45.8008757,39.559651 35.9522002,42.5744922 33.0679868,37.0188558" id="Shape" fill="#FCB424" fill-rule="nonzero"></path>
                                <path d="M10.0446173,43.2632006 L35.8689977,43.2810891 C37.0088715,43.2810891 37.9898285,43.5527452 38.750507,44.1861239 C40.9329076,45.9882893 43.7632474,47.295816 46.7651922,48.1648657 C48.1126561,48.5546692 50.4306767,48.0521263 52.5028341,46.8779316 C57.6717871,43.952741 60.9965575,38.3869123 62.0902539,34.8029662 C62.3745983,33.8671465 61.8289981,33.9441087 61.1065928,33.9952783 C58.9268962,34.1516989 56.6369565,36.1231812 53.6273154,38.0459902 C50.6124741,39.9635989 44.4856528,41.7813647 38.6710487,41.7736685 L10.3751391,41.75578 L10.0446173,43.2632006 Z M47.9275307,8.64764797 C48.2913334,8.58358207 49.5976121,8.50412372 50.3250096,8.78867614 C55.2302108,10.7216774 59.8714522,15.8363408 61.8129817,21.2688376 C62.1869767,22.3121964 62.2793315,22.9813522 61.8129817,23.0352258 C59.5642271,23.2840012 58.514004,22.1738723 55.8706618,20.3791952 C53.2246154,18.5872222 50.7861593,17.3618579 47.4358041,16.2952023 C44.1341224,15.2441472 38.1198323,15.0929268 37.3412653,15.067342 C36.5651943,15.0415492 36.6625412,14.7160196 37.0032553,14.3775936 C39.8847646,11.4985804 43.7576312,9.40915851 47.9275307,8.64764797 L47.9275307,8.64764797 Z M71.4638433,27.2745993 C71.4792358,27.4821895 71.2562532,27.7180685 70.9949975,27.7180685 C70.9719088,27.7180685 65.33931,27.7130763 65.33931,27.7130763 C64.6144086,27.7130763 64.6017202,27.3746503 64.5761355,26.959262 C64.5478466,26.5438737 64.4326112,25.7133051 64.4070264,25.2184585 C64.3814417,24.7390043 64.2073405,24.190492 64.8475835,23.9213321 C66.4228141,23.2546723 67.9110982,21.7139707 68.5898223,20.3910516 C68.817797,19.9448784 69.1585111,19.2066645 69.5451945,19.832139 C70.8849622,21.9754345 71.3049266,24.6185687 71.4638433,27.2745993 L71.4638433,27.2745993 Z M69.4389034,37.4475564 C69.3415565,37.6399621 68.9804578,37.7809903 68.8627263,37.4706451 C68.0377739,35.2607877 66.0758598,33.7404707 64.7258999,32.9868644 C64.3186238,32.7586817 64.2828468,32.4920178 64.3340163,32.0895258 C64.390386,31.6870339 64.559495,30.4000998 64.5850797,29.8565798 C64.6054643,29.425799 64.7797735,29.1156618 65.102391,29.1156618 L70.9962455,29.1181579 C71.2063317,29.120654 71.4675874,29.3078595 71.4675874,29.4642801 C71.4675874,32.2767314 70.6120581,35.0556936 69.4389034,37.4475564" id="Shape" fill="#FCB424" fill-rule="nonzero"></path>
                                <path d="M54.1103057,48.5188922 C53.6953334,48.5779659 52.7886345,48.4342337 54.2178448,47.6061611 C58.5006916,45.1142474 62.3171886,39.2665703 63.3366268,35.9081029 C63.7233102,34.6261609 63.7642874,34.559599 64.256222,34.7006271 C64.9118574,34.8876247 65.9441919,35.7799711 66.7329513,36.8720034 C67.5271188,37.9615397 67.8678329,40.0869466 67.4118834,40.6970286 C64.3329763,44.832399 59.4406714,47.736997 54.1103057,48.5188922 Z M65.0067082,22.0505247 C64.0103587,22.5863486 63.8156649,22.4862976 63.6030827,21.7376834 C61.7435076,15.202754 56.2542251,10.3651548 54.0104627,8.93448846 C53.5828021,8.66532849 53.6928373,8.48332311 54.0027665,8.52430032 C59.3741095,9.23963349 64.6377053,12.1725203 67.2889518,16.1872471 C68.8001165,18.4894593 65.9672806,21.5300933 65.0067082,22.0505247" id="Shape" fill="#FCB424" fill-rule="nonzero"></path>
                            </g>
                        </g>
                    </g>
                </g>
            </g>
        </g>
    </g>
</svg>