<?xml version="1.0" encoding="UTF-8"?>
<svg width="80px" height="80px" viewBox="0 0 80 80" version="1.1" xmlns="http://www.w3.org/2000/svg" xmlns:xlink="http://www.w3.org/1999/xlink">
    <title>E17983F4-49D5-49A2-900A-BECC6980E37A</title>
    <defs>
        <polygon id="path-1" points="3.76962325e-05 2.67847841e-15 67.8196876 2.67847841e-15 67.8196876 75.3923707 0 75.3923707"></polygon>
        <polygon id="path-3" points="3.76962325e-05 2.67847841e-15 67.8196876 2.67847841e-15 67.8196876 75.3923707 0 75.3923707"></polygon>
    </defs>
    <g id="Specifications" stroke="none" stroke-width="1" fill="none" fill-rule="evenodd">
        <g id="Teams" transform="translate(-48.000000, -397.000000)">
            <g id="Group-5" transform="translate(48.000000, 312.000000)">
                <g id="Group-2" transform="translate(0.000000, 48.000000)">
                    <g id="Assets-exportable/Logos/Club-logos/Eastern-Conference/Boston-Celtics/transparent" transform="translate(0.000000, 37.000000)">
                        <g id="Celtics-Logo" transform="translate(4.000000, 0.000000)">
                            <path d="M72.3991202,37.7351727 C72.3991202,28.0723089 68.633455,18.986763 61.7957354,12.1501743 C56.0308506,6.38772083 48.7620746,2.83008235 40.7393739,1.83394056 C40.6223271,1.74520363 40.5018876,1.66097139 40.3784325,1.5813758 C36.8372484,-0.697512237 33.7331521,0.831786217 32.0688635,1.65554314 L31.7060372,1.83192381 C29.2256251,2.14059941 26.781213,2.70779577 24.4152089,3.52356109 C24.2987276,3.39727871 24.1784766,3.27101518 24.0561523,3.1487663 C22.0248908,1.11637392 19.3260291,0 16.4524453,0 C10.5232049,0 5.69874679,4.82236593 5.69874679,10.7490995 C5.69874679,12.6873456 6.19803339,14.5312568 7.15649779,16.1627497 C2.53254598,22.3760312 0,29.9784189 0,37.7351727 C0,47.3999212 3.76574053,56.4875405 10.6034978,63.3222444 C13.5811232,66.2985504 16.9879202,68.6998004 20.7417111,70.4715233 C20.7435959,71.1329037 20.807868,71.7462214 20.932077,72.2954555 C20.7816691,72.5340727 20.6514286,72.8066164 20.557188,73.1211915 C19.666803,74.7526844 20.5010206,76.5545644 23.1397569,78.5609463 C24.7459934,79.789655 25.9952465,80 27.0279348,80 C27.3066984,80 27.571326,79.9839791 27.8220059,79.9700315 L28.196895,79.949864 C30.0095183,79.8757909 31.4894724,78.6410508 32.6082966,77.338269 L34.3568363,77.0757148 C35.0706145,76.9695999 35.9549681,76.7952548 37.1099806,76.308031 C38.8664366,75.5684309 39.582288,74.5662766 39.8550203,73.7365825 C44.069836,73.3217355 48.1042753,72.1893406 51.894066,70.3612618 C52.0003694,70.944611 52.1106309,71.7582842 52.2009134,72.8085013 C52.3232377,74.241712 52.5718443,75.2236989 53.2094761,77.2741854 C53.7509825,79.0180131 54.6592732,79.8196235 55.9286938,79.6652575 C56.5101582,79.5932577 57.8755157,79.1663478 58.0059447,76.6427735 C58.0400598,75.9593408 58.1303423,74.14144 58.0521226,72.7585537 C57.9418611,70.8763809 58.0259237,69.5877352 58.1201643,69.2750449 C58.3086454,68.6756748 58.4750743,67.6233845 57.8796623,66.717544 C59.2651873,65.6792013 60.5766393,64.5407751 61.7957354,63.3222444 C68.633455,56.4854672 72.3991202,47.3999212 72.3991202,37.7351727" id="Path" fill="#FEFEFE" fill-rule="nonzero"></path>
                            <g id="Clipped" transform="translate(2.174978, 2.174903)">
                                <mask id="mask-2" fill="white">
                                    <use xlink:href="#path-1"></use>
                                </mask>
                                <g id="Path"></g>
                                <path d="M67.8198761,35.4496312 C67.8198761,26.3923575 64.2916972,17.877344 57.8869188,11.4727541 C52.3557507,5.94005922 45.2500108,2.55753859 37.5803354,1.73838061 C37.4025976,1.56149104 37.2033731,1.39837944 36.9771957,1.25339973 C34.262313,-0.492953632 31.996204,0.803947549 30.4252135,1.56729626 C30.3121248,1.6223893 30.180188,1.68762263 30.0316648,1.76375017 C27.0745839,2.10156496 24.2328534,2.82286352 21.554913,3.87400411 C21.2350605,3.39480961 20.8686531,2.94827888 20.4611569,2.54087685 C18.8226901,0.902523197 16.6444133,2.67847841e-15 14.3266605,2.67847841e-15 C9.54300857,2.67847841e-15 5.65151341,3.892136 5.65151341,8.67593868 C5.65151341,10.6803793 6.32789691,12.5810233 7.57111865,14.1178987 C2.83952525,19.9485635 0,27.3724595 0,35.4496312 C0,44.5076589 3.5274815,53.0234263 9.93146825,59.4282047 C13.0595016,62.5554841 16.6936069,64.9955613 20.645303,66.6751169 C20.42478,68.4671958 20.7156064,69.6828993 21.0431867,70.1816204 C20.5444655,70.601368 20.3348745,70.8631683 20.2559009,71.3343712 C19.4701229,72.4094678 21.3832067,73.7721866 22.1689847,74.3745724 C23.7840798,75.6128936 24.6329989,75.3974597 25.8907337,75.3452504 C27.44363,75.2800359 28.904359,73.4568576 29.7444195,72.2780964 C31.4213364,72.042495 31.7359115,72.3042953 31.7881208,72.5136979 C32.3122869,72.4354782 33.0458556,72.3042953 34.04179,71.8845477 C36.3065797,70.93121 35.6664977,69.7626268 35.4314617,69.5524703 C35.3700168,69.4987532 35.3206347,69.4226068 35.2727605,69.3313819 C40.6488087,69.1197176 45.8016952,67.6618158 50.3998816,65.0956448 C50.5615985,65.2767752 50.7297237,65.4841044 50.8942677,65.7263027 C51.392235,66.4606253 51.6540353,68.844912 51.7590193,70.0766364 C51.8641918,71.3081724 52.0737828,72.1484214 52.6761686,74.0861962 C53.2785544,76.0260443 53.5149098,74.6109278 53.5416741,74.0861962 C53.567873,73.562784 53.6721031,71.6757106 53.5938834,70.3122379 C53.5149098,68.9493306 53.4887109,66.9840375 53.7512652,66.1452964 C54.013631,65.3073091 53.5416741,65.0969641 53.4104912,64.9405248 C53.2785544,64.7823891 53.4104912,64.7301798 53.0689634,63.6558372 C53.0501153,63.5964656 53.0350368,63.5333244 53.022597,63.4696178 C54.7471996,62.2865215 56.3768078,60.9388812 57.8869188,59.4282047 C64.2916972,53.0234263 67.8198761,44.5076589 67.8198761,35.4496312 Z" id="Path" fill="#FFFFFF" fill-rule="nonzero" mask="url(#mask-2)"></path>
                            </g>
                            <g id="Clipped" transform="translate(2.174978, 2.174903)">
                                <mask id="mask-4" fill="white">
                                    <use xlink:href="#path-3"></use>
                                </mask>
                                <g id="Path"></g>
                                <path d="M67.8198761,35.4496312 C67.8198761,26.3923575 64.2916972,17.877344 57.8869188,11.4727541 C52.3557507,5.94005922 45.2500108,2.55753859 37.5803354,1.73838061 C37.4025976,1.56149104 37.2033731,1.39837944 36.9771957,1.25339973 C34.262313,-0.492953632 31.996204,0.803947549 30.4252135,1.56729626 C30.3121248,1.6223893 30.180188,1.68762263 30.0316648,1.76375017 C27.0745839,2.10156496 24.2328534,2.82286352 21.554913,3.87400411 C21.2350605,3.39480961 20.8686531,2.94827888 20.4611569,2.54087685 C18.8226901,0.902523197 16.6444133,2.67847841e-15 14.3266605,2.67847841e-15 C9.54300857,2.67847841e-15 5.65151341,3.892136 5.65151341,8.67593868 C5.65151341,10.6803793 6.32789691,12.5810233 7.57111865,14.1178987 C2.83952525,19.9485635 0,27.3724595 0,35.4496312 C0,44.5076589 3.5274815,53.0234263 9.93146825,59.4282047 C13.0595016,62.5554841 16.6936069,64.9955613 20.645303,66.6751169 C20.42478,68.4671958 20.7156064,69.6828993 21.0431867,70.1816204 C20.5444655,70.601368 20.3348745,70.8631683 20.2559009,71.3343712 C19.4701229,72.4094678 21.3832067,73.7721866 22.1689847,74.3745724 C23.7840798,75.6128936 24.6329989,75.3974597 25.8907337,75.3452504 C27.44363,75.2800359 28.904359,73.4568576 29.7444195,72.2780964 C31.4213364,72.042495 31.7359115,72.3042953 31.7881208,72.5136979 C32.3122869,72.4354782 33.0458556,72.3042953 34.04179,71.8845477 C36.3065797,70.93121 35.6664977,69.7626268 35.4314617,69.5524703 C35.3700168,69.4987532 35.3206347,69.4226068 35.2727605,69.3313819 C40.6488087,69.1197176 45.8016952,67.6618158 50.3998816,65.0956448 C50.5615985,65.2767752 50.7297237,65.4841044 50.8942677,65.7263027 C51.392235,66.4606253 51.6540353,68.844912 51.7590193,70.0766364 C51.8641918,71.3081724 52.0737828,72.1484214 52.6761686,74.0861962 C53.2785544,76.0260443 53.5149098,74.6109278 53.5416741,74.0861962 C53.567873,73.562784 53.6721031,71.6757106 53.5938834,70.3122379 C53.5149098,68.9493306 53.4887109,66.9840375 53.7512652,66.1452964 C54.013631,65.3073091 53.5416741,65.0969641 53.4104912,64.9405248 C53.2785544,64.7823891 53.4104912,64.7301798 53.0689634,63.6558372 C53.0501153,63.5964656 53.0350368,63.5333244 53.022597,63.4696178 C54.7471996,62.2865215 56.3768078,60.9388812 57.8869188,59.4282047 C64.2916972,53.0234263 67.8198761,44.5076589 67.8198761,35.4496312 Z" id="Path" fill="#061922" fill-rule="nonzero" mask="url(#mask-4)"></path>
                            </g>
                            <path d="M28.0655236,69.2639245 C29.3247662,69.2111498 31.0797143,68.8189205 31.8794399,68.4773926 C31.9844239,68.5043454 32.1548109,68.608764 32.4171767,68.7129941 C32.5208413,67.8750068 31.9844239,66.13231 31.6828541,65.332019 C31.4828755,64.80201 31.2893054,64.4418225 31.0537039,63.8916459 C30.3461457,63.7597091 29.4682004,63.380485 28.8390503,63.1181193 C28.8390503,63.6160865 28.9310291,64.9137793 29.0362016,65.7777769 C28.7745897,65.8047297 28.4070515,65.8307401 27.9603511,65.8307401 C28.0133143,66.7738999 28.1192407,68.4773926 28.0655236,69.2639245 Z M51.7853124,66.4860891 C51.548957,66.2497338 52.0731232,65.5154112 52.3094785,64.1532578 C52.5443261,62.7903505 52.5703365,60.5097285 51.5751559,59.2252293 C51.0901939,58.6004143 50.8551579,58.2066771 50.7733571,57.9254632 C47.6690723,60.183656 44.1126213,61.6826467 40.3315007,62.3257445 C40.2864537,62.405472 40.2415952,62.4750215 40.2008832,62.5279847 C39.6499528,63.2362969 38.5756102,64.2584303 37.7883243,64.6774239 C37.0025464,65.0964175 36.0855855,65.4117465 35.5874298,65.5691283 C35.4831997,66.4071155 35.3467394,68.278922 35.5621733,68.9225851 C35.6411469,69.1589405 36.6097516,69.7358813 36.9503371,70.3652199 C36.98596,70.4296805 37.0178134,70.4935756 37.0489127,70.5572823 C42.3966888,70.4029162 47.4298897,68.9689515 51.8505269,66.5484764 C51.8280976,66.5273665 51.8041605,66.5041833 51.7853124,66.4860891 L51.7853124,66.4860891 Z M59.3822341,14.3271317 C54.2155885,9.16048606 47.6340148,5.92296398 40.5122541,4.97258541 C41.0827866,6.10130486 41.1711842,7.39818719 41.2228281,8.22460169 C42.2449614,7.77876835 43.0307394,7.54245067 43.4504869,6.8617321 C43.8702345,6.17958108 44.4464214,6.31080167 44.8133942,6.80882544 C45.1809325,7.30611414 45.1809325,7.93607473 44.2108199,8.53849822 C43.2408959,9.14163794 42.5340915,9.43014605 42.323935,9.535262 C42.1135901,9.63892664 42.2977362,9.82307273 42.5340915,10.2159806 C42.7689391,10.6088884 43.3692516,11.5802826 43.4772513,13.6231545 C43.4780052,13.6427566 43.479513,13.6629241 43.479513,13.6825261 C47.332445,14.8686381 50.8636395,16.9839621 53.7945216,19.9148442 C58.5267181,24.6464753 61.1328472,30.9387304 61.1328472,37.6305656 C61.1328472,41.4733195 60.2709228,45.1843252 58.643388,48.5443788 C58.8601413,48.6559597 59.1545489,49.4172351 59.2546324,50.4197664 C59.3068417,50.9439325 59.2798889,51.5208733 59.124015,51.8869038 C58.9668217,52.254442 57.7292543,54.110416 57.1051932,54.6656815 C56.8695918,54.875838 56.3179074,54.8498276 56.0830599,54.5090537 C55.8474584,54.1675258 55.8212595,54.3511065 55.6371134,54.5337447 C55.4537213,54.7178908 54.8245712,55.6348517 54.6686972,55.8712071 C54.51075,56.1075624 53.9865839,56.34241 54.3266039,57.2863236 C54.6686972,58.2308027 55.0601726,58.9376071 54.9303091,59.4617732 C54.7983723,59.9866932 54.746163,60.1438865 55.4537213,60.7470262 C56.1627874,61.3486581 56.1360231,62.0824153 55.8212595,62.5543721 C55.6241082,62.850099 55.3146222,63.6381388 55.1941827,64.4506811 C63.5650081,58.4699853 69.0330351,48.6732999 69.0330351,37.6247227 C69.0330351,28.8241603 65.6049397,20.5498372 59.3822341,14.3271317 Z M21.5397403,61.9510439 C21.447573,61.0629207 21.312809,59.4587575 21.933289,58.3141114 C20.6691458,57.4440824 19.4730444,56.4545562 18.3638327,55.3455331 C13.6322016,50.6123941 11.0260726,44.3222123 11.0260726,37.6303771 C11.0260726,30.4645118 14.0504413,23.9924457 18.8887528,19.4223429 C18.9343652,19.3252751 18.9924174,19.2325424 19.0634748,19.1426369 C18.2441472,19.3948247 17.3837307,19.5260076 16.5014504,19.5260076 C14.19331,19.5260076 12.0229495,18.6294027 10.3867445,17.0033757 C5.68992587,22.8325326 3.13672235,30.032513 3.13672235,37.6245342 C3.13672235,46.4252851 6.56346066,54.6996081 12.7868636,60.9223137 C15.769955,63.9054051 19.2257571,66.2448333 22.9836945,67.8729335 C23.128825,67.1712182 23.3461438,66.4035344 23.6629806,65.5691283 C23.9515453,64.8080414 23.5057873,63.0529048 22.7714647,62.13519 C22.3784815,62.0292636 21.8812682,61.9778082 21.5397403,61.9510439 L21.5397403,61.9510439 Z M30.2764076,5.1853995 C28.2061305,5.5510341 26.1761884,6.11596869 24.2144765,6.8723059 C24.8423072,8.08800939 25.1772383,9.44290623 25.1772383,10.8507286 C25.1772383,12.7167486 24.5914388,14.4928066 23.5076721,15.9688026 C25.3208609,14.9125542 27.2772954,14.0758863 29.3405987,13.4989454 C29.4746088,13.3677626 29.6088073,13.2414802 29.7435714,13.1255643 C28.9830499,11.8663216 27.9609165,9.8488758 28.8526209,7.1224204 C29.1034894,6.35473663 29.6559276,5.70881168 30.2764076,5.1853995 Z" id="Shape" fill="#008348" fill-rule="nonzero"></path>
                            <path d="M43.4508639,15.1166793 C44.1844326,15.4834636 45.0050796,16.2816813 44.6816459,17.7633317 C44.5512169,18.3664715 44.0474068,18.946428 44.0017943,19.1799562 C43.9226323,19.5721855 43.0970848,20.2405397 42.8345305,20.7647058 C42.5744265,21.2843483 42.5337146,21.7272791 42.609861,21.9513832 C42.6106149,21.9542104 42.6121227,21.9557182 42.6126882,21.9570376 C43.0311164,22.3507748 43.9748415,22.8749409 44.4982537,23.0575791 C44.9085772,23.2010133 44.8795511,23.3120287 44.7078448,23.5824991 C44.9969749,23.6085095 45.1449326,23.7860588 45.4167224,24.1064768 C45.7037792,24.4480046 46.4643007,24.2376597 46.9362576,24.0014928 C47.4082144,23.7658913 48.0106002,23.6867292 48.4833109,24.2638585 C48.9545138,24.8402339 49.6626376,25.915142 50.0026576,26.911265 C50.3441855,27.906634 50.7109698,28.7191763 50.8161423,28.8758041 C50.9203724,29.0339398 50.4484155,31.9169477 50.3164787,33.0702639 C50.1860498,34.2228262 50.0810657,34.7209819 50.0548669,34.9043741 C50.0288565,35.0877663 50.7891895,34.249779 50.8161423,35.2449595 C50.8355558,36.0395961 51.2068637,38.586919 51.6358469,40.4739924 C51.7446005,40.9538655 51.8571237,41.3901994 51.9687046,41.7447324 C52.2840336,41.7976956 52.5443261,42.4268457 52.7284722,43.3962044 C52.9118643,44.3661284 53.3046591,44.9692681 53.3316119,45.4404711 C53.3576223,45.911674 53.4888052,45.9906476 53.645433,46.0688672 C53.8028148,46.1485948 53.7506055,46.3841962 53.2794026,46.9338073 C53.3838212,47.0127809 53.5410144,47.1709166 53.645433,47.2738273 C53.7773698,47.1432099 54.1434002,46.7257241 54.1434002,46.7257241 C54.1434002,46.7257241 55.5852811,47.3013456 55.9000447,47.4057641 C56.2146197,47.5107481 56.5885664,46.7343942 57.5245638,47.1432099 C57.7810867,47.2557331 58.0645623,47.6100777 58.2660487,47.9602757 C59.7333745,44.8198026 60.5560948,41.3198959 60.5560948,37.6300002 C60.5560948,31.0927195 58.0095258,24.9459719 53.3866484,20.3230944 C50.5652739,17.5024738 47.1777019,15.4566993 43.4797015,14.2881161 C43.4689581,14.6484921 43.4508639,14.9898314 43.4508639,15.1166793 Z M51.024414,56.3427869 C50.6581951,56.1593947 50.4190125,56.4253417 50.2384475,54.9806336 C50.1862382,54.5616399 49.8464067,54.0099556 49.5838524,53.7489092 C49.3214867,53.4865434 49.2896333,52.9957384 49.4259052,52.5688286 C49.6353078,51.9134796 49.6890249,51.3118477 49.662826,50.7876816 C49.6353078,50.2627616 49.7404803,49.6081665 50.474049,49.2920836 C50.2124371,49.0050268 50.0812542,48.6374885 50.0028461,48.3496778 C48.9285034,47.9951447 48.7140119,47.9647993 48.4957507,47.4449682 C48.1297203,46.572112 47.9035429,45.2977908 47.7947892,44.6032377 C47.7410721,44.2603905 47.7048837,43.9435537 47.6969675,43.6580047 C47.3526124,43.0069908 46.5885098,41.5607748 45.9968674,40.4741809 C45.8166795,40.1351033 45.6319679,39.7984759 45.4431098,39.4642988 C44.9181898,38.5471495 45.4431098,37.341624 45.7041562,36.6340657 C45.966522,35.9266959 46.1766785,35.2973573 45.9403231,34.589799 C45.7041562,33.8822407 45.7041562,33.7242935 45.6525124,33.4364828 C45.6004916,33.1479181 45.3633823,32.7811338 45.0501266,33.7780107 C44.7347976,34.7731912 44.1324118,36.241271 43.7910724,37.7613715 C43.5982562,38.6248037 43.4633037,39.5643823 43.5083507,40.4741809 C43.5422773,41.1672261 43.6808109,41.8412348 43.9744646,42.4524792 C44.655824,43.8674073 45.4685547,45.1781053 45.3633823,45.9646372 C45.2589637,46.7506036 45.0872574,46.7781219 45.0755715,46.9077969 C44.9443886,48.428086 44.2890396,51.3378581 43.9482657,52.1758454 C43.6076802,53.0138326 42.2715373,56.0542223 41.9829726,57.3387214 C41.7626381,58.322593 41.1566712,60.429247 40.638348,61.6783117 C44.5600755,60.9366383 48.1557307,59.2576481 51.179534,56.8814661 C51.2679316,56.6609431 51.2519107,56.4566295 51.024414,56.3427869 L51.024414,56.3427869 Z M21.8969121,21.9511947 C22.1862307,22.328157 22.5652663,22.6740199 23.0596524,22.9277156 C24.34434,23.5823107 24.6067058,24.0542675 24.6067058,25.1808194 C24.6067058,26.3073713 24.8162968,28.6147577 25.1838351,29.0075524 C25.4186826,28.771951 25.6818023,28.4306116 25.7332577,28.326193 C26.100042,29.0075524 26.8394536,30.2690569 28.0131258,31.0520076 C28.0920994,31.1047823 28.056665,31.393347 28.2494812,31.4448023 C28.6424644,31.5499748 31.1846983,31.9427696 31.263672,32.4676896 C31.788592,31.9427696 32.6265792,30.6328255 32.783961,30.1863136 C32.9405889,29.7420635 33.8583036,28.326193 34.539663,27.5404151 C34.539663,27.2250861 34.539663,27.0416939 34.5664274,26.9632858 C34.3822813,27.1206675 34.094659,27.5134623 33.6749115,27.6970429 C33.2551639,27.8804351 31.788592,28.5095852 30.7396943,29.0337513 C30.3727215,29.2171435 29.717561,29.4273 29.4550067,27.5134623 C29.1926409,25.6003785 29.4550067,24.604444 29.6383989,24.1592515 C29.8217911,23.7134936 30.162565,23.3197564 30.8186679,23.5039025 C31.473263,23.6872947 32.5208413,24.0802779 32.8099714,24.0802779 C32.8621807,23.8708753 33.0463268,23.4771382 32.3387685,23.3989185 C31.8349584,23.3423741 30.5214331,22.968239 29.7776865,21.9511947 C29.4768705,21.5436984 29.2680334,21.027637 29.2456041,20.3845393 C27.7522679,20.6208946 24.3181411,21.0668411 23.558562,21.2494793 C22.7987945,21.4336254 22.1543774,21.5887454 21.907844,19.8605616 C21.8026715,19.1268045 21.6192794,18.1046711 22.1434455,18.4714555 C22.5624391,18.1568804 23.1431496,17.7872689 24.1609478,17.9480433 C24.3471672,17.9770694 24.5799415,18.1329433 24.6530721,18.2786392 C24.7088626,18.5330888 24.6002974,18.9485013 24.4755229,19.3363955 C24.2500994,20.0388648 23.8079226,20.541921 25.2360444,20.2143408 C26.7307,19.8713051 28.6292707,19.5857561 29.1274265,19.4805836 C29.1926409,18.9703651 29.6123885,18.1830793 30.1103557,17.6067039 C30.6098308,17.0275013 30.687485,16.5583717 30.7134954,16.3749795 C30.7396943,16.1915873 30.5670456,16.1510639 30.3207007,16.3749795 C30.032136,16.6367798 29.1666305,17.1615114 28.3538998,16.9513549 C28.0400786,16.8708734 27.6470954,16.2699955 27.4375044,15.9299755 C27.6093992,15.5695995 28.0436598,14.9476117 28.5785693,14.3205348 C25.7877287,15.2150664 23.1757568,16.6120888 20.8538574,18.4642932 C20.8385904,18.7549311 20.8770405,19.4306361 21.0683489,20.1751367 C21.1967046,20.6746118 21.4351333,21.3508822 21.8969121,21.9511947 L21.8969121,21.9511947 Z M23.7159438,57.7579035 C24.7895325,57.3389099 25.6371323,57.3585119 26.4677688,58.4662157 C26.7033702,58.7800368 26.8867624,59.6985055 28.9050187,58.8852093 C27.8306761,57.6012756 27.186259,56.0796672 26.5991401,54.0361545 C25.6704935,50.8108648 23.5717557,47.1428329 24.3445285,45.4666699 C23.899336,45.0463569 23.3753583,43.4224032 22.8244279,43.6057954 C22.4546279,43.7290621 21.9342314,43.7364129 22.3524711,42.5046885 C22.5417062,41.9509308 22.8527001,41.2803148 23.4405728,40.4741809 C24.1583091,39.4918171 25.2920233,38.3094748 27.1223639,36.895866 C27.2804996,36.7646832 27.30651,36.6610185 27.2015259,36.5552806 C27.0181338,36.3724539 26.8347416,36.1630513 26.6511609,36.0578788 C26.4677688,35.9527063 26.2836227,36.0049156 26.1264294,36.1630513 C25.9690476,36.3202446 25.7074358,36.5038252 25.550054,36.6080553 C25.3928607,36.7124739 24.1349374,35.480938 23.4797769,34.5899875 C22.8244279,33.699037 22.143634,33.4112263 21.9342314,33.3060538 C22.1958432,33.0174892 22.7872971,32.3919202 22.5626276,32.4673127 C22.1698328,32.5977416 21.4811227,32.6855738 20.7799727,31.9425811 C19.9152212,31.0261857 20.2565606,30.5534749 20.0726029,30.423046 C19.8892108,30.2918631 18.9452971,30.5012657 18.2384928,29.4009126 C17.5301805,28.2998057 17.2467049,27.8204981 17.8179913,27.041317 C18.1073099,26.6483337 18.2117284,26.4649416 18.1333203,25.9669743 C18.0543467,25.4688186 18.1333203,25.1549975 18.7886693,24.5258474 C19.4440183,23.8972627 19.8370015,23.3201334 20.1246237,23.3723427 C20.3538168,23.414374 19.6913056,22.5814757 19.2904061,21.9508177 C19.1852336,21.7826925 19.0989093,21.6311537 19.0497157,21.5114681 C18.946805,21.2577725 18.7820724,20.8214386 18.7443762,20.3515551 C14.1390275,24.9716053 11.6032019,31.1059132 11.6032019,37.6301887 C11.6032019,44.1669038 14.1492055,50.3136515 18.7720829,54.936529 C19.8443523,56.0089868 21.0129355,56.9806072 22.2633195,57.8391389 C22.8004908,57.2561666 23.439065,57.4817786 23.7159438,57.7579035 Z" id="Shape" fill="#FFFFFF" fill-rule="nonzero"></path>
                            <path d="M9.78831681,6.06826411 C11.9370021,6.61847832 13.5479506,8.35538877 14.254001,9.32461545 C14.4351314,9.57182734 14.6215393,9.53484734 14.6997589,9.35145517 C14.8665648,8.96216618 15.1717158,7.70005862 15.1717158,6.73011571 C15.1717158,4.52922118 15.4732856,3.65787276 16.0242161,2.6364368 C13.452956,2.77708144 11.1968365,4.09935219 9.78831681,6.06824526 L9.78831681,6.06826411 Z M8.49100097,12.8117431 C12.5267596,13.1785275 13.7822326,10.9239535 14.0447869,10.582501 C14.3056448,10.2425187 13.9918237,10.0323057 13.8606408,9.84889465 C13.1632605,8.87169522 11.6009401,7.1434549 9.45168945,6.59325954 C8.69833025,7.83576505 8.25690736,9.28854016 8.25690736,10.848561 C8.25690736,11.5256419 8.3366349,12.1824045 8.49100097,12.8117431 Z" id="Shape" fill="#A73832" fill-rule="nonzero"></path>
                            <path d="M24.504926,12.6541729 C22.8012447,11.9458607 20.7801612,12.6004557 19.3390343,13.8589445 C17.8971534,15.1166793 17.1643386,16.0830222 16.6661829,19.0712025 C16.6045496,19.0727104 16.5429162,19.0727104 16.4820368,19.0727104 C14.3465452,19.0727104 12.4080165,18.2599796 10.9450257,16.9245906 C13.4097939,16.2954405 15.4868563,15.1696425 17.8181798,12.967994 C20.151765,10.7664398 21.3043273,8.198007 21.6189024,6.99246264 C21.9334775,5.78689943 21.4869656,6.49443886 21.2521181,7.043918 C20.8868416,7.89572091 19.6790543,10.1893859 17.2947676,12.4170636 C14.908973,14.6454764 13.0756168,15.74451 10.5869115,16.5832512 C9.75552108,15.729997 9.11543906,14.6948584 8.71661292,13.5451233 C9.55535409,13.5973326 12.19786,13.2927471 13.5200553,12.207661 C15.259171,10.7816502 15.4599035,9.08895745 15.6955049,6.67711481 C15.9311064,4.26672346 16.2856394,3.54906259 16.8620148,2.63202634 C21.227427,2.83064779 24.7064123,6.43282437 24.7064123,10.8483537 C24.7064123,11.4688902 24.6353549,12.0727085 24.504926,12.6541729 Z" id="Path" fill="#A73832" fill-rule="nonzero"></path>
                            <path d="M24.2774292,13.4785895 C23.883692,12.928413 22.4825231,12.6637854 20.2561836,14.0549649 C20.046781,14.1869017 19.9016505,14.2781266 20.151765,14.5267332 C20.6229679,14.999444 21.3320341,15.8919023 21.8300013,17.0974278 C22.9427941,16.1433362 23.7981216,14.8980411 24.2774292,13.4785895 L24.2774292,13.4785895 Z M21.1727675,17.6057615 C20.7015646,16.4524453 20.3085814,15.614458 19.8635773,15.0380826 C19.6228869,14.7270887 19.5750127,14.5930786 19.1292547,14.9858733 C17.8901796,16.0790641 17.4125683,17.7361905 17.1502025,19.0461345 C18.6376959,18.9266375 20.0143623,18.4118954 21.1727675,17.6057615 Z" id="Shape" fill="#A73832" fill-rule="nonzero"></path>
                            <path d="M18.9198522,26.8062809 C18.5790782,26.7011085 18.3167124,27.0933378 18.1593307,27.4086667 C18.0019489,27.7239957 17.8178028,28.0640157 18.3167124,28.771574 C18.8146797,29.4796978 19.1241657,29.9009531 19.9941948,29.8459166 C20.4139423,29.8197178 20.7799727,29.5051427 20.9111556,29.3225045 C21.0423385,29.1383584 21.0685374,29.4529334 20.8589464,29.7675085 C20.6493553,30.0815181 20.492162,30.8158407 20.8849568,31.3138079 C21.2786939,31.8117752 22.0906707,32.2307688 23.1650134,31.6023726 C24.239356,30.9737879 24.6858679,30.2134549 24.8685061,29.8719271 C25.0518983,29.531907 25.0518983,29.3747137 24.8685061,29.1651227 C24.6858679,28.9549662 24.0827282,27.9573354 23.9515453,25.9935502 C23.8731371,24.8134696 24.0827282,24.054456 23.3484055,23.6347084 C22.6146484,23.2149609 20.9358467,22.223173 20.7277635,20.2797437 C20.6493553,19.5459866 20.7015646,18.4194347 19.9679959,19.0220089 C19.2336733,19.6251487 19.2336733,20.0441423 19.1554536,20.4891463 C19.0762915,20.9356582 19.4438298,21.5374785 19.7585933,21.9572261 C20.0724145,22.3769736 20.4391988,23.2939345 20.7277635,23.5295359 C21.0163281,23.7658913 21.1997203,23.9492835 21.4360757,23.9752939 C21.6709232,24.0014928 22.6146484,24.0014928 22.8502498,24.0804664 C23.0866052,24.15944 23.2177881,24.4480046 22.6408473,24.4480046 C22.0644719,24.4480046 21.1735214,24.6038786 20.7799727,24.6568418 C20.3877434,24.7090511 20.0209591,24.7350615 19.836813,25.5215933 C19.6534208,26.3073713 19.3910551,27.2252746 19.3648562,27.5136507 C19.3388458,27.8014615 19.181464,27.9588433 19.181464,28.116225 C19.181464,28.2734183 19.4960391,29.0339398 20.2035974,28.2734183 C20.9111556,27.5136507 21.1997203,26.7540717 21.3309032,26.3865334 C21.4613321,26.0197491 21.6194678,26.0717699 21.487531,26.6488992 C21.3569136,27.2252746 21.317898,28.6671555 21.592515,29.1651227 C21.8889959,29.7000322 22.4864812,30.2511511 23.243987,29.8719271 C23.4011803,29.7937074 23.6629806,29.662336 23.8731371,29.6885349 C24.0827282,29.7145453 23.8333676,30.0815181 23.6499754,30.2394653 C23.4665832,30.3968471 22.864009,31.0636934 21.80286,30.1082824 C21.5397403,29.8719271 21.1765371,29.3477609 21.0945478,28.6931659 C21.0685374,28.4830094 20.7799727,28.4046012 20.6493553,28.5879934 C20.5181724,28.7713855 19.8106141,29.4267345 19.3126469,28.9549662 C18.8146797,28.4830094 18.6081043,28.221963 18.8936533,27.2252746 C18.9451086,27.0418824 19.0472654,26.8452965 18.9198522,26.8062809 Z" id="Path" fill="#FAB383" fill-rule="nonzero"></path>
                            <path d="M19.4438298,25.3378242 C19.3307411,25.6765249 19.2336733,26.1237907 19.181464,26.2817379 C19.1285008,26.4391196 18.8936533,26.7797051 18.6834968,26.3347011 C18.4746597,25.8887546 18.4848376,25.5372373 18.8146797,25.2073952 C18.9198522,25.1022228 19.0762915,24.8928202 19.181464,24.9972388 C19.2866365,25.1022228 19.4700287,25.2596045 19.4438298,25.3378242 Z M20.6229679,24.1326757 C20.4069685,24.2406754 19.9459436,24.2399214 19.7842268,24.6038786 C19.6790543,24.8402339 19.2600607,24.5791875 19.4696517,24.2898689 C19.6790543,24.0014928 19.83719,24.0275032 19.9676189,23.9492835 C20.0988018,23.8708753 20.151765,23.6345199 20.4135654,23.7658913 C20.6751772,23.8970742 20.7273865,24.0804664 20.6229679,24.1326757 Z M37.8942508,11.1593288 C37.1604936,11.2376427 36.4791342,11.6842488 35.7977748,12.1554517 C35.115473,12.6266546 32.6529666,14.6976856 32.0758373,15.1166793 C32.6784116,15.4312543 32.8356048,16.0605929 32.6262023,17.1087367 C32.579082,17.3415109 32.6262023,17.4235002 32.7841495,17.2661184 C32.9407773,17.1087367 33.674346,16.3229587 33.6490895,15.6938086 C33.6221367,15.06447 33.334326,14.6976856 33.2815513,14.618712 C33.229342,14.5403039 33.4917078,14.2257288 33.7802724,14.8810778 C34.0680832,15.5364268 33.9889211,16.4533877 33.1249234,17.4757095 C32.2599834,18.4978428 31.57787,18.47089 31.2110857,18.6550361 C30.8443014,18.8384283 30.4780825,19.126239 30.8188564,19.6771695 C31.1588764,20.2280999 31.8142254,20.0179434 32.0758373,19.8345512 C32.3383915,19.6504051 32.7051759,19.4408141 33.5439171,19.5199762 C34.3819043,19.5981959 34.6617988,19.0653596 34.0940936,18.4978428 C33.9107014,18.3144507 33.4387446,17.8947031 34.01512,17.8947031 C34.3564593,17.8947031 34.775453,18.6550361 35.0110544,18.8646272 C35.2474098,19.0740297 35.7715759,19.1524379 36.4791342,19.2052126 C37.1866925,19.2574219 38.2877994,19.5192223 38.2877994,20.2013356 C38.2877994,20.6203292 38.061622,20.742842 37.7628794,20.4114921 C37.6454556,20.2795553 37.4773304,20.4868845 37.3438858,20.6203292 C36.8981278,21.0668411 35.7578168,22.2718011 34.9458399,22.4812037 C34.1340516,22.6907948 33.8317278,22.4551933 32.7573852,21.8788179 C31.6830425,21.3024425 30.6869196,20.7255017 30.3991089,20.5421095 C30.1105442,20.3587173 29.5074045,19.9389698 29.7959691,20.7784649 C30.0845338,21.6164521 30.7920921,22.4812037 32.2072087,22.9539145 C33.6221367,23.4243635 33.8317278,23.5824991 34.1463028,23.7396924 C34.4608779,23.8970742 34.2782397,24.0542675 33.8584921,24.0014928 C33.4937811,23.9564458 33.0979706,23.6345199 33.4134881,24.3428322 C33.7265553,25.0503904 34.1992661,25.8094041 35.6411469,25.6267658 C37.08152,25.4433737 37.1243052,25.1380342 38.0254336,23.6345199 C38.1820615,23.3721542 38.3407626,23.5563003 38.2355901,24.2376597 C38.9423945,23.8970742 39.3353777,23.7919017 39.7543713,23.6867292 C40.1748728,23.5824991 41.2642939,23.2119452 41.9835381,21.8788179 C42.3495685,21.1974585 42.5474737,20.9631764 42.4807514,20.2542988 C42.4554949,19.9896712 42.8475357,19.4677669 43.2412729,19.1002286 C43.6340676,18.7340097 44.7078448,17.3443381 44.1589876,16.3484037 C43.6073033,15.3522807 42.6903424,15.8510019 42.2451499,16.584759 C41.799392,17.3190816 41.3014247,18.13087 41.2752258,19.3887933 C40.9606508,19.2843747 40.6394789,19.3995367 40.4894479,19.6504051 C40.4104743,19.782342 39.2569696,19.6249602 38.8634209,19.7293787 C38.4711916,19.8345512 38.3407626,19.5981959 38.7590023,19.0480193 C39.1787499,18.4978428 40.6554998,16.5035237 40.5676676,15.0115068 C40.5416572,14.5665028 40.6010287,14.4837595 40.6720861,14.1475091 C40.7642534,13.7147564 40.8047769,13.7081595 40.2660977,13.4131865 C39.9160882,13.2216897 39.8949783,12.6758482 39.8340989,12.2596818 C39.7681305,11.8146778 39.683314,11.812416 39.1787499,11.9190963 C38.8053687,11.99807 38.1820615,11.6305317 37.8942508,11.1593288" id="Shape" fill="#FAB383" fill-rule="nonzero"></path>
                            <path d="M34.8282277,19.3625944 C34.684605,19.6903631 34.2880407,20.0041843 33.3731531,19.8997657 C32.9149554,19.8475564 32.4671242,19.841902 32.3909778,20.2013356 C32.3387685,20.4506962 32.1299314,20.4361831 31.8406128,20.4246858 C31.5384775,20.4116806 31.2114627,20.3325185 31.1977035,20.437691 C31.1846983,20.5421095 32.4829566,21.3148823 32.9149554,21.5112797 C33.3478966,21.708431 33.9778007,22.1768066 34.4874538,22.1276131 C35.1688132,22.0622101 35.7625288,21.7252058 36.7680758,20.6595333 C37.1827344,20.2209376 37.5146497,19.991933 37.121855,19.8077869 C36.8542117,19.6837663 36.5839297,19.6504051 36.2309045,19.6504051 C35.8763714,19.6504051 35.1158499,19.5981959 34.8282277,19.3625944 L34.8282277,19.3625944 Z M29.9397803,19.3759766 C29.5860011,19.3622174 29.546797,19.1006056 29.7823985,18.7076224 C30.018,18.3140737 30.2421041,17.9480433 30.5559252,17.7116879 C30.6081345,17.8820749 30.713307,18.0914774 30.8706887,18.1828908 C30.6610977,18.4060525 30.3842188,18.6851931 30.4364281,19.2361235 L29.9397803,19.3759766 Z" id="Shape" fill="#FAB383" fill-rule="nonzero"></path>
                            <path d="M37.9181879,17.7482533 C37.4680949,17.7482533 36.7997406,17.6018034 36.321187,17.2747886 C35.8369789,16.9441926 35.675262,16.7847375 35.7608325,16.2954405 C35.8130418,15.9931167 35.8398061,15.8300805 35.8586542,15.7183111 C35.8718479,15.6372642 35.8812719,15.5835471 35.8920154,15.5226677 C35.9327273,15.2921552 35.9195336,15.1406164 35.850738,15.059381 C35.8145496,15.0152764 35.7623403,14.9926587 35.7014609,14.9926587 C35.6013774,14.9926587 35.4686867,15.0565538 35.2982997,15.1869827 C35.0214209,14.9796535 34.759809,14.7468792 34.565485,14.5751729 C34.4147,14.4409743 34.3059464,14.3446604 34.2377162,14.2996134 C34.1834336,14.263425 34.1174652,14.2053728 34.1101145,14.1343154 C34.10446,14.0800329 34.1334861,14.0219807 34.194931,13.9595934 C34.2326272,13.9218972 34.2820093,13.913981 34.3487316,13.913981 L34.3790771,13.9147349 L34.410365,13.9147349 C34.4574852,13.9147349 34.545129,13.9147349 34.6024273,13.8480126 C34.6589716,13.783552 34.6727307,13.6747984 34.6472858,13.4957413 C34.6480397,13.4855633 34.6676417,13.4659612 34.7858194,13.4659612 C34.8176727,13.4659612 34.8510339,13.4667152 34.8828872,13.468223 C34.9177562,13.4697309 34.9503635,13.4710502 34.9793896,13.4710502 C35.0476198,13.4710502 35.0896511,13.463888 35.1207505,13.448621 C35.1795566,13.4195949 35.1946351,13.3622966 35.2048131,13.3210192 C35.22008,13.262967 35.2266769,13.2390299 35.3163939,13.2390299 C35.3672838,13.2390299 35.4353255,13.2499618 35.5188227,13.2710717 C35.5329588,13.2746529 35.5474718,13.2767262 35.5621733,13.2767262 C35.6477438,13.2767262 35.6890212,13.2094384 35.7188012,13.1600563 L35.7348221,13.1353653 C35.7681832,13.0839099 35.8000366,13.0563917 35.8731673,13.0563917 C35.890696,13.0563917 35.9095441,13.0578995 35.9304655,13.0614807 C36.0015229,13.0731665 36.0646641,13.0889989 36.1204545,13.1021926 C36.1966009,13.1210407 36.2618154,13.1368731 36.3198676,13.1368731 C36.4742337,13.1368731 36.5228618,13.0209572 36.5452911,12.9325596 C36.5924114,12.7555757 36.6285998,12.7020471 36.7004111,12.7020471 C36.7633638,12.7020471 36.8576044,12.7403088 36.9801171,12.8164552 C37.0875514,12.8831775 37.1780223,12.9150308 37.2577499,12.9150308 C37.3781893,12.9150308 37.4637598,12.8396383 37.4905241,12.7063822 C37.491278,12.7033665 37.4933513,12.6946963 37.5267125,12.6946963 C37.6043667,12.6946963 37.7429004,12.7469056 37.8855806,12.8309682 L37.956638,12.8709262 C38.2024175,13.0107792 38.7135784,13.3014172 39.2963621,13.9822111 C39.4298068,14.1373311 39.4680685,14.2562628 39.458079,14.2830271 C39.4558172,14.2822732 39.452236,14.2822732 39.4492203,14.2822732 C39.4392308,14.2822732 39.4260372,14.2845349 39.413032,14.2866082 C39.3238804,14.3003673 39.1904357,14.3207233 39.1629175,14.5446389 C39.147085,14.6679056 39.1086349,14.7404709 39.0897868,14.7519682 C39.0897868,14.7483871 39.0709387,14.733874 39.0434204,14.6795914 C39.0077975,14.609288 38.9606772,14.5374767 38.8809496,14.5374767 C38.8671905,14.5374767 38.8536199,14.5395499 38.8404262,14.5433196 C38.8353372,14.5331416 38.8244053,14.5150474 38.8106462,14.4773512 C38.7983949,14.4424821 38.7591908,14.3373097 38.6613691,14.3373097 C38.6148142,14.3373097 38.5765526,14.3642625 38.5488458,14.3831106 C38.5435684,14.3863148 38.5384794,14.3898959 38.5337673,14.393854 C38.5185004,14.3548384 38.477223,14.2583361 38.3837363,14.2583361 C38.3590453,14.2583361 38.3386893,14.264179 38.3228569,14.269268 C38.3164486,14.2715297 38.3098517,14.2732261 38.3032549,14.2743569 C38.3032549,14.2720952 38.2959041,14.2626711 38.2851607,14.2379801 C38.266878,14.1959488 38.2286163,14.1720117 38.1777264,14.1720117 C38.141538,14.1720117 38.10158,14.1844514 38.0595487,14.1974566 C38.0146902,14.2112158 37.976994,14.2221477 37.9494757,14.2221477 C37.9262926,14.2221477 37.9204496,14.2155508 37.9153606,14.2061268 C37.8791723,14.1394044 37.8254551,14.1294149 37.796429,14.1294149 C37.7500627,14.1294149 37.7072774,14.1525981 37.6660001,14.1742735 C37.6333928,14.1908598 37.597016,14.2112158 37.5717595,14.2112158 C37.5651626,14.2112158 37.5506496,14.2112158 37.5304821,14.1836975 C37.5159691,14.1656033 37.4731838,14.1098129 37.4100427,14.1098129 C37.3476554,14.1098129 37.3099592,14.1605143 37.2796137,14.2010378 L37.2671739,14.2185665 C37.2368285,14.2583361 37.2157186,14.273603 37.1925354,14.273603 C37.1823574,14.273603 37.171614,14.2707758 37.1591742,14.2656868 C37.1244937,14.2532471 37.0947137,14.2474041 37.0671954,14.2474041 C36.976536,14.2474041 36.9360125,14.3133725 36.9135833,14.3489955 C36.8917195,14.3838645 36.8881383,14.3851839 36.8802221,14.3851839 C36.8743792,14.3851839 36.8598661,14.3838645 36.8338557,14.3729326 C36.8018139,14.3584195 36.7722224,14.3510688 36.7439502,14.3510688 C36.6387777,14.3510688 36.5944847,14.4424821 36.5654586,14.5026076 C36.5351131,14.5649949 36.5221079,14.5817697 36.5025059,14.5817697 C36.4960975,14.5815812 36.4896891,14.5806388 36.4836577,14.578754 C36.4401186,14.5672567 36.4067574,14.5621677 36.3769774,14.5621677 C36.2284542,14.5621677 36.2088522,14.6875077 36.1871769,14.8209523 C36.1834072,14.8441355 36.1798261,14.8680726 36.1747371,14.894083 C36.1377948,15.1065013 36.0428003,15.9836926 36.0573134,16.2091161 C36.0703186,16.4194611 36.3443702,16.4194611 36.4480348,16.4194611 C36.6423589,16.4194611 36.9077404,16.3838381 37.2368285,16.3382257 C37.8819995,16.2483202 39.0686769,15.890206 39.6812407,15.379045 C39.8378685,15.2486161 39.9596273,15.234103 40.0046743,15.234103 C40.042936,15.234103 40.0612187,15.2435271 40.0647998,15.2471082 C40.0698888,15.2783961 39.9958157,15.4450134 39.8414496,15.574877 C39.8269366,15.5886361 39.8088424,15.6031491 39.7899943,15.6204894 C39.5986859,15.7886146 39.1514201,16.1838596 38.2480299,16.3591471 C37.3840323,16.5274608 36.5858145,16.6788111 36.3176058,16.6788111 C36.2827368,16.6788111 36.2653966,16.6759839 36.2582343,16.6744761 C36.2422134,16.6708949 36.2284542,16.6688216 36.2146951,16.6688216 C36.170402,16.6688216 36.1357215,16.6912509 36.1219624,16.7281932 C36.1044336,16.7768213 36.1313864,16.8341196 36.1966009,16.8891561 C36.2827368,16.9615329 36.4039302,17.0043181 36.5198461,17.0043181 C36.5554691,17.0043181 36.5901496,17.000737 36.6242647,16.9928208 C36.6546102,16.9935747 36.7496047,17.0819723 36.8185888,17.1464329 C37.0048082,17.3211549 37.286776,17.5842746 37.6586493,17.5842746 C38.1262711,17.5842746 38.80273,17.0812184 38.9976195,16.9276063 C39.087525,16.8573028 39.292781,16.7521303 39.4102047,16.7187691 C39.3906027,16.7434602 39.3608227,16.7775753 39.3137024,16.8246956 L39.2795873,16.8586222 C38.8490963,17.2900555 38.4039038,17.7358135 37.9711511,17.7474993 C37.9538108,17.7482533 37.9362821,17.7482533 37.9181879,17.7482533 Z M43.4506754,17.1613229 C43.1470323,17.3758145 42.9789071,17.4496991 42.9527082,17.815918 C42.9266978,18.1827023 42.8541325,18.8090252 42.7163528,18.8648157 C42.5380496,18.9373809 42.5627407,18.5247956 42.5077042,18.6554131 C42.4285421,18.8388053 42.2053804,18.7596432 42.1407313,18.5900101 C42.1111398,18.5161255 41.4593719,18.5234763 41.9835381,17.7637087 C42.4575682,17.0757525 42.8215253,16.7153765 43.1622992,16.5581832 C43.5028847,16.4008014 44.080014,16.7153765 43.4506754,17.1613229 Z" id="Shape" fill="#061922" fill-rule="nonzero"></path>
                            <path d="M56.2792688,48.3104737 C56.1582639,48.0024955 56.3712476,47.4841723 57.0265966,47.8509566 C57.6826995,48.2184949 58.1801013,48.5338239 57.7088984,49.9741969 C57.2354337,51.4153239 56.8961676,52.2540651 56.7120215,52.8572048 C56.5293833,53.4603445 55.8210711,54.2201121 56.0566725,53.1979787 C56.2937818,52.1758454 56.4178024,50.9405398 56.3184729,50.3149709 C56.1364,49.1624086 56.5062001,49.2304503 56.3851952,48.7034569 C56.3474989,48.5409862 56.3243158,48.4207352 56.2792688,48.3104737 Z M58.7570421,49.5550148 C58.9455233,50.1212122 59.1500254,51.4153239 58.8354503,51.9393015 C58.5206867,52.4642216 57.5507627,53.9053485 57.1847323,54.2728868 C56.817194,54.6396711 56.5293833,54.4824778 56.7642308,54.0887407 C57.0005862,53.695946 57.3151612,53.1717798 57.3151612,52.9883877 C57.3151612,52.8049955 57.2899048,52.5954045 57.6037259,51.9922647 C57.917547,51.3898789 58.4684775,49.3708687 58.5206867,49.2144294 C58.572896,49.0570476 58.7040789,49.3978215 58.7570421,49.5550148 Z M51.9941495,54.4036927 C51.8375217,53.9324898 51.7585481,53.2503765 51.4969362,52.8575817 C51.7063388,52.2804524 52.3973108,50.7313258 53.5672133,50.2629501 C53.6976423,50.2099869 53.7775583,50.078804 53.7245951,49.9743854 C53.670878,49.8694014 53.8817884,49.7917472 53.9862069,50.1585315 C54.0921334,50.5239965 54.2747716,51.5728941 54.2747716,51.5728941 C54.3269809,51.8092495 54.2225623,51.9926417 54.170353,52.3072168 C54.1173898,52.6219803 53.9862069,53.3293501 54.0651806,53.695569 C54.1435887,54.0623533 54.2747716,54.325473 55.0075864,54.1680913 C55.3758786,54.0883637 55.3498682,53.9846991 55.4535328,53.6693701 C55.5587053,53.355549 55.8470815,52.4638446 55.952254,51.9658774 C56.0566725,51.4677217 55.9660131,50.2499449 55.8608406,49.9353698 C55.7551027,49.6206063 55.9000447,48.5587034 55.8210711,48.3491123 C55.7426629,48.1397098 55.6898882,47.8264541 55.0352931,47.6162976 C54.3799441,47.4059526 54.1965519,47.3531779 53.7506055,47.7989358 C53.3048475,48.2454477 53.1489736,48.4282744 52.9388171,48.637677 C52.7284722,48.8472681 52.204306,48.663122 52.6494985,48.2454477 C53.0960104,47.8264541 53.515758,47.4059526 53.6448676,47.2740158 L53.515758,46.9334303 L53.2786487,46.9334303 C52.5705249,47.642308 51.6273652,48.0613016 50.9980266,48.1919191 C50.7618597,48.2411126 50.3166672,48.2701387 50.6312423,48.6898863 C50.7102159,48.7958127 50.7364147,49.083435 50.9205608,48.9792049 C51.1031991,48.8732785 51.3910098,48.4020756 51.6533756,48.6116666 C51.9164953,48.8203153 51.6019202,49.3197903 51.2865913,49.5553918 C50.9735241,49.7917472 50.6312423,50.0265947 50.3963947,50.1585315 C50.1600394,50.289149 50.0288565,50.4195779 50.0550553,50.8393255 C50.0810657,51.2583191 50.1072646,52.019406 49.8709093,52.5957814 C49.6353078,53.1721568 49.7672446,53.3293501 49.9758933,53.7223333 C50.1862382,54.115882 50.5268237,54.455902 50.6312423,55.0852406 C50.7364147,55.7136368 50.789378,55.8710186 51.2083716,55.8188093 C51.6273652,55.7666 51.7853124,55.5824539 51.9426942,55.3208421 L51.9941495,54.4036927 L51.9941495,54.4036927 Z" id="Shape" fill="#FAB383" fill-rule="nonzero"></path>
                            <path d="M52.1513428,55.6086528 C51.9687046,55.9239818 51.6533756,56.4211951 51.6533756,56.8671415 C51.6533756,57.3128995 51.2081831,57.7848563 51.2603924,57.9942589 C51.3133556,58.203096 51.8904849,58.7540264 52.2303164,59.3311557 C52.5703365,59.9073427 53.015529,60.7715288 53.015529,62.2134097 C53.015529,63.6560445 52.5443261,65.6205837 52.4928707,65.8829494 C52.4391536,66.1447498 52.3094785,66.3549063 52.7022733,66.7216906 C53.0960104,67.0892289 53.7244066,67.7700228 53.960762,69.3155684 C54.1963634,70.8626217 54.3537452,71.675164 54.4587292,71.7533837 C54.5639017,71.8325458 54.5371374,71.9629748 54.5371374,72.2515394 C54.5371374,72.5393502 54.7981838,74.1913875 54.9828953,74.5052087 C55.1657221,74.8205377 55.1395232,72.7234963 55.1127589,72.1203565 C55.08656,71.5177823 55.1395232,68.6355283 55.2446957,68.2165347 C55.3496797,67.7960332 55.4540982,67.3240764 55.08656,66.8000988 C54.7212835,66.2759327 54.0919449,65.3582179 54.5639017,63.8394367 C55.0358585,62.3178282 55.7948722,62.3453465 55.5585168,61.7422068 C55.3229154,61.1390671 54.9039217,60.7200734 54.5901006,60.3800534 C54.2753371,60.038714 54.5248861,59.2267372 54.5109385,58.8852093 C54.4849281,58.2553053 53.9862069,58.1516406 53.9339977,57.4433284 C53.8817884,56.7359586 53.8288252,56.1595832 54.3537452,55.4520249 C54.8779113,54.7452206 54.170353,54.7706655 53.9339977,54.3247191 C53.6976423,53.8797151 53.5723023,53.2837377 53.7773698,52.359426 C53.8817884,51.8869038 53.8288252,51.7570402 53.6976423,51.704077 C53.5672133,51.6518678 53.015529,51.5468837 53.015529,51.5468837 L52.204306,53.1721568 C52.3362429,53.4859779 52.3876982,53.9586887 52.3876982,54.2725098 L52.1513428,55.6086528 L52.1513428,55.6086528 Z" id="Path" fill="#A73832" fill-rule="nonzero"></path>
                            <path d="M44.5777928,23.7134936 C43.9318678,24.5740985 42.9272632,26.7538832 42.4545525,28.1160365 C41.9833496,29.4796978 40.908253,32.72949 41.66934,34.8781752 C42.4283536,37.0268605 43.9231977,35.6647071 44.2624638,34.8519763 C44.6039917,34.040188 45.1287232,32.6505163 45.286105,32.2835435 C45.4427328,31.9167592 45.5217064,31.7066027 45.8095172,32.5713543 C46.0980818,33.4370482 46.5170755,35.5073253 46.5170755,35.6907175 C46.5170755,35.8741097 46.2277569,36.3990297 45.9146897,37.2110065 C45.5999261,38.0227949 45.4165339,38.5999242 45.7305436,39.0986454 C46.0451186,39.5960472 47.2774085,41.7185335 47.6703917,42.6362483 C47.9059931,43.1866133 48.1153957,43.2908434 48.7447343,43.1336501 C49.3738844,42.9770223 50.8941735,42.4521022 51.3391775,42.2426997 C51.7851239,42.0331086 51.574779,41.6655703 51.4435961,41.2213202 C51.2449369,40.5427881 50.448981,36.7644947 50.448981,36.2670929 C50.448981,35.7691257 50.5816717,35.1166039 49.9234955,35.8480993 C49.6892134,36.110465 49.3738844,35.8480993 49.4522926,35.480561 C49.5312662,35.1137767 50.3162902,30.0029215 50.3700074,29.3745253 C49.9234955,28.4046012 48.6135514,25.3380127 48.2473325,24.7878362 C47.8797943,24.2376597 47.7493653,24.2116493 47.1984349,24.5000254 C46.6482583,24.7878362 45.4187957,25.230013 44.970776,24.1854504 C44.8923678,24.0013043 44.7619389,23.5823107 45.0759485,23.5301014 L44.8395931,23.4511278 C44.8395931,23.4511278 44.655447,23.6085095 44.5777928,23.7134936 L44.5777928,23.7134936 Z M51.4434076,42.5570862 C50.9561838,42.8369808 49.2954763,43.5524552 48.6139284,43.6581932 C47.9144748,43.7661929 48.0899507,43.9467578 48.2211336,44.4716779 C48.3508087,44.9943361 48.7445458,46.566646 48.9539484,47.1175764 C49.1642934,47.6685069 49.4521041,47.6583289 50.0030345,47.6424965 C50.8417757,47.6162976 52.2567038,47.2487593 53.2788371,46.3050341 C52.989707,45.9642602 52.485143,44.3310709 52.3358659,43.6314289 C52.1777302,42.8986141 52.1777302,42.1380926 51.4434076,42.5570862 Z M36.4259825,27.4348656 C36.3737732,27.5406036 36.1903811,27.8546132 35.7721414,27.8546132 C35.3531477,27.8546132 35.0116199,27.7232418 34.7492541,28.0902146 C34.4874538,28.456999 33.0463268,30.2134549 32.7309978,31.2870436 C33.0463268,31.9423926 33.4660743,33.1219077 33.7798955,33.9606489 C34.8020288,33.0964628 38.0650147,29.9118851 38.6804057,29.2957401 C38.917515,29.0601387 38.9429599,28.8505476 38.602186,28.6149462 C38.2614121,28.3780254 37.0029233,27.5920589 36.7935208,27.4616299 C36.5839297,27.3296931 36.4789457,27.3296931 36.4259825,27.4348656 Z M28.171073,32.0477536 C27.9695867,32.8553954 27.5686872,34.2754124 26.9133382,35.3765194 C27.1749501,35.795513 27.3845412,36.1630513 27.6991162,36.2936687 C28.4326849,35.7695026 29.8217911,34.4842496 30.2145858,34.0130467 C30.608323,33.5418438 31.1062902,32.8335316 31.1062902,32.6769037 C31.1062902,32.5189565 30.922898,32.4675011 30.6872966,32.5189565 C30.4509412,32.5719197 29.4810171,32.1840255 28.5378574,31.9955443 C28.2762455,31.9425811 28.1970834,31.9425811 28.171073,32.0477536 L28.171073,32.0477536 Z M27.5952631,31.2615987 C27.3066984,31.2043004 26.3105755,30.1342928 25.9692361,29.5579174 C25.6292161,28.9809766 25.575499,29.0339398 25.4458239,29.4529334 C25.314641,29.8719271 24.8164853,30.7896418 24.4758999,31.2353998 C24.1351259,31.6805923 23.2441755,32.8339085 23.0078201,33.0962743 C22.7714647,33.3580746 23.0078201,33.4632471 23.2179766,33.6726497 C23.4275676,33.8822407 24.5019103,35.1921848 24.7375117,35.480561 C24.9738671,35.7691257 25.2362329,36.2940457 25.8640636,35.7169164 C26.4939677,35.1399755 27.2537352,34.0916433 27.5952631,33.0173007 C27.9350946,31.9422041 27.9605396,31.3790224 28.2491042,31.4442369 L28.2621094,31.2216407 L28.1838898,31.0912117 L28.026508,30.9600288 C28.0657121,31.0512537 28.0657121,31.1304158 28.001063,31.2353998 C27.9350946,31.3398183 27.7256921,31.2868551 27.5952631,31.2615987 L27.5952631,31.2615987 Z M43.6342561,7.14997635 C42.9282056,7.98362853 41.5100734,8.72160767 39.1265406,9.32474739 C36.7415,9.92788711 34.4608779,11.6052752 33.4917078,12.4172521 C32.5210298,13.2299828 30.0773715,15.2307104 28.9052072,15.7192535 C28.5911976,15.8506249 27.9220894,16.294875 28.7738358,16.4008014 C29.4031744,16.479775 29.8481784,16.1129907 31.2110857,15.1168677 C32.5747469,14.1209333 33.6323147,13.4024431 34.6712229,12.3912417 C35.6411469,11.447328 37.396849,10.5563964 39.2831684,10.0322868 C41.1708073,9.50742333 43.6493346,8.68391144 44.3678248,7.90897114 C44.7078448,7.54288418 44.735363,7.35873808 44.420788,7.04412532 C44.1062129,6.7302288 43.9226323,6.80925895 43.6342561,7.14997635 L43.6342561,7.14997635 Z M31.6042574,15.3920502 C31.3990014,15.5051389 31.3164467,15.6276517 31.0793374,16.3881732 C30.8444898,17.1479407 30.8705002,17.5929448 31.0670861,17.7770909 C31.2097663,17.9097816 31.4201113,17.921279 31.5258492,17.921279 C31.6042574,17.921279 31.683231,17.9482318 31.6707913,17.7248816 C31.6562782,17.5022853 31.6419536,16.5519633 32.3515852,16.1263728 C32.4827681,16.0473992 32.334245,15.4979767 31.8666232,15.5754424 C31.7092414,15.6023952 31.8666232,15.2478622 31.6042574,15.3920502 Z M23.5057873,18.3930473 C23.8733256,18.3930473 24.108927,18.3930473 24.0827282,18.8120409 C24.0567178,19.2317885 23.8733256,19.8081639 23.8471267,20.2017125 C23.8203624,20.5946958 23.8203624,20.7513236 24.0567178,20.7513236 C24.2915653,20.7513236 23.7159438,20.987679 23.4006148,21.0404537 C23.0867937,21.092663 22.6023971,21.2732279 22.3522826,19.9393468 C22.2740629,19.5195992 22.3000733,18.8650041 22.2480525,18.7076224 C22.588638,18.5504291 23.0570137,18.3930473 23.5057873,18.3930473 L23.5057873,18.3930473 Z M30.4726165,19.5122484 C30.5696843,20.0407496 30.7138724,20.0305716 30.6081345,20.1095453 C30.502962,20.1887073 30.3934544,19.9095667 29.9657907,19.9791163 C29.5598022,20.0443308 26.2578008,20.5554917 26.0221993,20.582256 C25.2886306,20.6599102 25.2486726,20.5417326 25.9302205,20.3981099 C26.6115799,20.2539218 29.1046202,19.7993053 29.8483669,19.6500282 L30.4726165,19.5122484 Z M26.4939677,59.5929561 C26.8347416,59.8023587 27.64653,60.038714 29.0362016,59.4615847 C30.4253077,58.8846439 31.9714187,59.2774386 32.2070202,60.2735616 C32.4433755,61.2704384 32.4514802,62.5541836 32.023628,63.1051141 C31.6568437,63.576317 31.3160697,63.5241077 30.8970761,63.3936787 C30.137497,63.15525 28.3808526,62.3453465 27.8828853,62.1091796 C27.3849181,61.8728242 26.5461769,61.6110239 25.9430372,61.6110239 C25.7074358,61.1130567 25.7334462,60.2475512 25.8908279,59.9335415 C26.0480212,59.6189665 26.0480212,59.3043914 26.1786387,59.383365 C26.3105755,59.4615847 26.4939677,59.5929561 26.4939677,59.5929561 L26.4939677,59.5929561 Z M31.9978061,64.231289 C32.33858,64.231289 32.9554789,64.3747232 33.1503684,64.9923759 C33.3069962,65.4897777 34.3298835,65.6202067 34.7756414,65.5941963 C35.220834,65.5695053 35.1426143,65.8043528 35.1156615,66.0667186 C35.090405,66.3285189 35.0112429,67.1158047 35.0112429,67.4296258 C35.0112429,67.7442009 35.090405,68.8439885 35.1426143,69.054145 C35.1948236,69.263736 35.0112429,69.3689085 34.7756414,69.4731386 C34.54004,69.5783111 33.6745345,69.8401114 33.1251119,69.4471282 C32.8350394,69.2405529 32.4950194,68.9497264 32.8357933,68.9229621 C33.1765673,68.8977056 32.4175536,65.9355357 32.2073971,65.4113696 C31.9978061,64.886638 31.3939124,64.231289 31.9978061,64.231289 Z M22.9814327,58.0466566 C23.1227936,58.093023 23.1917777,58.2308027 23.2961963,58.413441 C23.4011803,58.5968331 23.4368032,58.7557228 23.2699974,58.9376071 C22.9814327,59.2521821 22.6408473,60.6933091 22.6938105,61.7161964 C22.5104183,61.6634216 22.1174351,61.5850135 21.907844,61.6372228 C21.8288704,61.0602819 21.8810797,59.2521821 22.1434455,58.6752413 C22.4059997,58.0996198 22.6668577,57.9414841 22.9814327,58.0466566 Z M23.0338305,74.0334403 C23.6871062,74.7685169 24.9209039,75.8950688 25.8378647,76.2878635 C26.7555795,76.6808467 27.3587192,76.8120296 28.1706961,76.7338099 C28.8281184,76.6699148 28.6948622,76.9432125 28.1706961,77.0221861 C27.64653,77.1005943 26.4410045,77.1005943 25.6559804,76.6808467 C24.8686946,76.2610992 23.6217032,75.4860646 22.8244279,74.3487693 C22.6410357,74.0856496 22.8244279,73.7984043 23.0338305,74.0334403 Z M36.6881598,72.1991417 C36.1560775,72.4411515 35.1688132,72.9334643 34.2256534,73.1690657 C34.330072,73.6410225 34.3568363,73.8504251 34.3568363,73.9810426 C34.9324578,73.9810426 36.0437427,73.5786353 36.9507141,73.0116839 C37.1608706,72.8797471 37.2390902,72.7238732 37.1608706,72.5397271 C37.081143,72.3563349 36.9767245,72.0679588 36.6881598,72.1991417 Z M30.477894,70.049891 C30.3467111,69.9192735 31.0925311,69.7628342 31.2499128,69.7628342 C31.4340589,69.8802579 31.768236,70.1752309 31.8928221,70.3000055 C31.9719842,70.3774712 31.9327801,70.4296805 31.8530525,70.4833976 C31.7753983,70.534853 31.3166352,70.6537846 31.1062902,70.6667898 C30.8706887,70.4571988 30.5431085,70.1158594 30.477894,70.049891 Z M31.8668117,59.1475751 C31.6566552,58.9894394 31.6834195,58.9119736 31.788592,58.7538379 C31.8928221,58.5966447 31.9979946,58.4922261 32.1024131,58.4392629 C32.2068317,58.3870536 32.3647789,58.3610432 32.5476056,58.6226551 C32.7309978,58.8852093 33.7269323,60.5372467 33.9365233,60.9816853 C34.1466798,61.4274432 34.4090456,61.1388786 34.3040616,60.8772667 C34.199643,60.6149009 33.9894865,60.1697084 33.9103244,60.0385255 C34.199643,59.1475751 34.4874538,57.7846678 34.4874538,56.8937174 C34.4874538,56.0014475 34.2778627,55.1118164 34.1199155,54.7964875 C34.8282277,54.8226863 36.3737732,54.7964875 36.9769129,54.6130953 C37.5806181,54.4289492 37.081143,54.3774938 36.8455416,54.4036927 C36.6099401,54.4289492 34.9151175,54.4232948 33.674723,54.2725098 C31.5260377,54.0099556 29.4150487,52.8016028 28.7482024,51.9656889 C28.6422759,51.8352599 28.0131258,51.8867153 28.5378574,52.3072168 C29.0627774,52.7262104 30.3994858,53.9781023 32.3647789,54.3252846 C32.8099714,54.4036927 33.5167758,54.5341217 33.6225137,56.1593947 C33.7269323,57.7846678 33.5703044,58.8322461 33.5703044,58.9894394 C33.5703044,59.1475751 33.4660743,59.1997844 33.3341375,59.0156383 C33.2027661,58.8322461 32.7577621,58.2306142 32.5206528,58.0999968 C32.2858053,57.96806 32.1291774,57.9942589 31.919021,58.1514522 C31.7094299,58.3088339 31.3941009,58.6226551 31.263672,58.7800368 L31.8668117,59.1475751 L31.8668117,59.1475751 Z M27.6467184,64.27087 C27.4503211,64.27087 26.270806,64.3630373 26.0221993,64.27087 C25.7728387,64.1796452 25.6118758,63.8931538 25.7865979,63.7729028 C25.995435,63.6287147 26.4021773,63.8126723 26.8079773,63.8126723 C27.2147196,63.8126723 27.6467184,63.7084423 27.7518909,63.7729028 C27.8563095,63.8388712 28.0012515,63.8126723 28.0012515,64.3108281 L27.6467184,64.27087 Z M24.7899095,71.4650075 C24.4491355,71.2561704 24.0548329,70.2847385 23.9773672,68.3463982 C23.9519222,67.6910492 24.214288,66.5897538 24.4231251,66.0670955 C24.6325277,65.542364 24.2919422,65.7517665 24.214288,65.9351587 C24.1345605,66.1185509 23.8729486,66.8528735 23.7937865,67.4024846 C23.7163208,67.953415 23.584384,68.7653918 23.7937865,69.9447185 C24.0041315,71.1242336 24.1091155,71.4910179 24.1607594,71.7013629 L24.7899095,71.4650075 L24.7899095,71.4650075 Z" id="Shape" fill="#FFFFFF" fill-rule="nonzero"></path>
                            <path d="M36.7803271,8.87908368 C37.1346717,8.91823122 37.5276549,8.89212658 37.6196337,8.64348223 C37.7110471,8.39483788 37.6320735,8.23679642 37.5146497,8.18460599 C37.396472,8.13239671 37.3442627,8.14545845 37.396472,7.90912192 C37.4486813,7.67352047 37.6196337,7.70036019 37.6066285,7.33282192 C37.5928694,6.96599988 37.3180638,6.95295699 37.0687033,7.03268452 C36.8200966,7.11026336 36.7281178,7.22770598 36.4917624,7.54231873 C36.2569149,7.85693149 36.361145,7.33282192 36.4003491,7.24074887 C36.4372914,7.15593235 36.531532,6.55205755 36.2082868,6.44332277 C36.0264024,6.53466074 35.8465914,6.62528249 35.6739427,6.71445292 C35.6173983,6.82970915 35.5732937,6.96456743 35.5224038,7.09722047 C35.3912209,7.43791902 35.2317659,7.18203699 35.1158499,7.01819032 C35.1158499,7.01747409 35.1143421,7.01673901 35.1135882,7.01602278 C34.7641441,7.20959294 34.4582392,7.39079873 34.2256534,7.54231873 C34.2002085,7.55899932 34.1726902,7.57784743 34.1472453,7.59452801 C34.1785331,7.80110337 34.4271398,8.06280946 34.5662389,8.15850135 C34.7366258,8.27667904 34.6308879,8.49921875 34.4220508,8.49921875 C34.2118943,8.49921875 33.950094,8.35569034 33.6877282,8.66885179 C33.4253624,8.98418078 33.5955609,9.28575064 33.8456754,9.28575064 C34.0944705,9.28575064 34.3038731,9.37710745 34.3960404,9.66489934 C34.4872653,9.9534263 34.5662389,10.0723202 34.9070128,10.1107327 C35.2470328,10.1498802 35.4434302,9.88817413 35.5355975,9.73086775 C35.6275763,9.57356137 35.745754,9.35100281 35.8893766,9.40392832 C36.1031143,9.48150717 36.0763499,9.70623326 36.0111355,9.9454347 C36.2574803,9.80047384 36.5091027,9.66418311 36.7773114,9.5336976 C36.7345262,9.31185528 36.6025894,9.10742861 36.5055216,9.01028542 C36.3873439,8.89212658 36.425794,8.83993614 36.7803271,8.87908368 Z M39.702916,5.07886994 C39.5819111,5.10714212 39.4528015,5.14121951 39.3238804,5.17819951 C39.3860792,5.47758299 39.5072725,5.86251807 39.4413041,5.91761111 C39.3621421,5.98284444 39.0605722,6.0357888 38.8249707,6.10028706 C38.5893693,6.16625546 38.0254336,6.69110011 38.3139983,7.07024881 C38.601809,7.45082998 38.6937878,7.67338853 38.7467511,7.87055868 C38.7982064,8.06701259 39.2701632,8.30261405 39.5971781,7.90898999 C39.9255122,7.51679838 40.1741189,7.08400794 40.2538464,7.35875693 C40.3198148,7.59002332 40.3017206,8.14894535 40.2561082,8.44906391 C40.3241499,8.43528594 40.393134,8.42079173 40.4626836,8.40701376 C40.5938664,6.94047953 40.22859,5.89150647 39.702916,5.07886994 Z M32.5082131,12.1158707 C32.3255748,11.972248 32.2726116,11.7490863 32.4944539,11.6836834 C32.7183696,11.617715 33.0199394,11.5655811 33.5701159,11.3299796 C34.119727,11.0936619 33.8319163,10.6877112 33.5838751,10.5825953 C33.3345145,10.4774793 33.3069962,10.2425941 33.3345145,9.99249845 C33.3607134,9.7438541 33.294745,9.37776714 32.8097829,9.56115931 C32.3255748,9.7438541 32.4944539,10.2157732 32.3515852,10.3730796 C32.2066432,10.5304048 32.128989,10.4774793 32.1544339,10.2425941 C32.1811983,10.0062764 31.9717957,9.84897004 31.853618,9.79604453 C31.7606968,9.75618077 31.5599643,9.7083254 31.3880695,9.69454743 C30.8865211,10.1469022 30.4275695,10.6202915 30.0796333,11.0900431 C30.1580415,11.2517034 30.3414336,11.4314767 30.4377475,11.460484 C30.5696843,11.5003477 30.7660817,11.5924208 30.7517571,11.8540703 C30.7408252,12.0751587 30.2421041,12.0904257 29.9143353,12.0983419 C30.1456017,12.7246648 30.3812032,13.1691034 30.7095373,13.5243904 C30.7828565,13.5032805 30.8806782,13.4699193 31.0148768,13.413375 C31.4208652,13.2431765 31.5512942,12.6268431 31.6172626,12.4434509 C31.683231,12.2600588 31.853618,12.2992629 31.9717957,12.5356182 C32.0543504,12.7009162 32.0841305,12.8530205 32.0956278,13.0017321 C32.3268942,12.7704658 32.5509983,12.5544663 32.7713328,12.3507182 C32.7046104,12.2847498 32.6226211,12.2065301 32.5082131,12.1158707 L32.5082131,12.1158707 Z M39.4663721,27.7750741 C39.5447803,27.7618804 39.3351892,26.8326683 39.5070841,26.7927103 C39.6767171,26.7535062 39.7541829,27.3038712 40.1217211,27.2379028 C40.4892594,27.1724998 40.5806728,26.8064694 40.5284635,26.3997271 C40.4762542,25.9931732 40.7118557,26.2163349 40.8960017,25.9279587 C41.0778861,25.640148 40.6850913,25.2471648 40.2391449,25.5219703 C39.7941409,25.7965874 39.8731145,25.429803 40.1094699,25.2863689 C40.3458252,25.1412384 40.1746843,24.6180147 39.6767171,24.7876477 C39.3163411,24.9114798 39.1344568,24.6781401 38.9619965,24.5795645 C38.8285519,24.6310199 38.697369,24.6868103 38.5654322,24.7454279 C38.5364061,24.8470193 38.5595893,24.9702859 38.5893693,25.1022228 C38.6270655,25.270348 38.706793,25.7053625 38.4319875,25.5219703 C38.192051,25.3625152 37.8680519,25.2726097 37.7766385,25.5741796 C37.6846597,25.8757494 37.8680519,25.9025138 37.841853,26.085152 C37.8150887,26.2685442 37.3438858,26.3077483 37.566482,26.6875378 C37.7888898,27.0675158 38.1174125,26.8586787 38.3405742,26.7144906 C38.5631704,26.570114 38.7727615,26.740501 38.6943533,26.9368984 C38.6321545,27.0899451 38.5088878,27.6060065 38.5002177,27.9460265 C38.6044478,28.0150106 38.7139553,28.0888953 38.8285519,28.1701306 C38.9597348,28.0381938 39.2070221,27.8199326 39.4663721,27.7750741 Z M32.3255748,26.8716839 C32.5212183,26.8194746 32.9017617,27.2247091 33.2425357,26.9891077 C33.5838751,26.7535062 33.0983476,26.5179048 33.164316,26.3207535 C33.2295305,26.1243561 33.3867238,25.7443781 33.1505569,25.5609859 C32.9149554,25.3775937 32.6654064,25.5479807 32.4175536,25.8235402 C32.1674391,26.0981572 32.2596064,25.5734257 32.3907893,25.3515833 C32.5611763,25.0630187 32.3907893,24.8658674 32.1022246,24.8136581 C31.81366,24.7614488 31.7224351,25.1674372 31.5258492,24.9840451 C31.213536,24.6934071 30.7263122,24.8136581 30.8444898,25.2204004 C30.9626675,25.6269543 31.0923426,25.7575718 30.8444898,25.809781 C30.5958832,25.8619903 30.3595278,25.2072068 30.0717171,25.7321268 C29.7823985,26.2547851 30.2413501,26.4129208 30.202146,26.8064694 C30.162942,27.1994527 30.3203237,27.6184463 30.5559252,27.6574619 C30.7922806,27.6974199 31.0401333,27.4350541 31.1713162,27.2784263 C31.303253,27.1210445 31.6172626,27.0028668 31.5780585,27.3038712 C31.5505403,27.5117659 31.5367812,27.9439532 31.5288649,28.1925599 C32.0115652,27.9577124 32.5283806,27.7126869 32.8097829,27.6184463 C32.8214688,27.6142997 32.8329661,27.6099646 32.8444635,27.6054411 C32.7132806,27.5524779 32.5270612,27.4653996 32.3515852,27.3428868 C32.0892194,27.1594946 32.128989,26.9246471 32.3255748,26.8716839 Z M26.5197896,38.8097038 C27.1229293,38.6261231 27.1489397,39.0980799 27.0699661,39.4910632 C26.9917464,39.8840464 26.9917464,40.7225991 27.0177568,41.1417812 L28.0131258,41.1953098 C27.9609165,40.9321901 28.0131258,40.1716686 28.0398902,39.7274185 C28.0653351,39.2809067 28.511847,38.5993588 28.6692288,39.2809067 C28.826422,39.96302 29.507216,39.9890304 29.9791728,39.7004657 C30.4511297,39.4120896 30.792469,38.7835049 31.2898708,37.8918005 C31.788592,37.0008501 31.133243,36.7646832 30.7395058,36.8174579 C30.3467111,36.8696672 29.952974,36.9218764 30.8446783,36.1890617 C31.6732415,35.5061944 30.2784809,35.1631587 29.637645,35.0349915 C28.5813965,36.1440147 27.2831383,37.4004301 26.1268064,38.3899562 C25.9790371,38.5160501 25.8412574,38.637055 25.7093206,38.7544788 C25.8476658,38.8342063 26.1196441,38.9307087 26.5197896,38.8097038 Z M25.4712689,45.4142722 C25.9692361,45.256325 26.2839996,46.3314215 27.0175683,45.7020829 C27.7518909,45.0736867 27.2271594,44.5495206 27.2017144,44.0253545 C27.1749501,43.499869 27.7780898,43.2910319 27.5952631,42.6364368 C27.3148031,41.6374866 26.3884182,42.5834736 25.8120428,43.1336501 C25.2356674,43.6840151 25.209657,43.2380687 25.7865979,42.3486261 C26.3629733,41.4569217 25.4190596,41.1685455 24.8428727,41.4047124 C24.3302039,41.6135495 23.8597549,41.4090475 23.558939,41.1402733 C23.3370967,41.4946179 23.1748144,41.8223867 23.0080086,42.16448 C22.5100413,43.1866133 22.8506268,43.2120583 23.2181651,43.2120583 C23.584384,43.2120583 24.3709158,44.7591117 24.4753344,45.0461685 C24.5122767,45.1490792 24.7812393,45.5418739 25.1378457,46.0443647 C25.1167358,45.7963235 25.16461,45.5107745 25.4712689,45.4142722 Z M39.8077115,35.0877663 C39.3357547,34.9833477 38.7231909,34.9043741 38.6543953,35.8742981 C38.6281964,36.2410825 38.9942268,36.5302126 39.3357547,36.66083 C39.6765286,36.791259 39.6235654,37.0268605 39.2567811,36.8964315 C38.8905622,36.7644947 38.602186,36.6868404 38.3411396,37.446608 C38.077266,38.2063756 38.5499767,38.3121135 38.7863321,38.3643228 C39.0219336,38.4165321 39.2045718,38.4687413 39.1523625,38.7840703 C39.0993993,39.0986454 38.9427715,40.0150408 39.5453457,40.0940144 C40.1484855,40.1724226 40.6718976,39.4386654 40.8558553,39.0718811 C41.0400014,38.7050967 41.2480846,38.3375585 41.3018017,38.757306 C41.354011,39.1770535 41.2748489,39.3857022 41.0662002,39.857659 C40.8558553,40.3296159 40.8558553,40.5399608 41.1706188,40.513762 C41.4851939,40.4862437 42.00936,40.513762 42.1665533,40.1454698 C42.323935,39.7794393 42.5602904,39.0718811 42.5863008,38.5739138 C42.6015678,38.262166 42.8748655,38.227297 43.0771058,38.2453912 C43.1364773,37.741581 43.2086656,37.2392787 43.2938591,36.7390497 C42.2651289,36.8928503 41.3894454,35.6364349 41.0850484,34.5490871 C40.7348504,34.9296306 40.2201083,35.1797451 39.8077115,35.0877663 Z M34.9070128,34.9045626 C34.7228667,35.2185722 34.1994545,36.1102766 34.4343021,36.3986527 C34.6706574,36.6864635 34.9324578,36.1102766 35.1426143,36.3204331 C35.3527708,36.5300241 35.8239737,36.7648716 35.8239737,36.6082438 C35.8239737,36.450862 35.876183,36.136287 35.955345,35.7172933 C36.0343187,35.2975458 36.2169569,35.0619443 36.4003491,35.4027183 C36.5837412,35.7427383 36.8455416,36.0311145 37.5008906,35.8739212 C38.1562396,35.7172933 38.0778314,35.03518 37.9466485,34.5377782 C37.8147117,34.039811 38.2881764,33.8034556 38.5237778,33.6730266 C38.7593793,33.5418438 39.362519,33.0698869 38.9173265,32.6508933 C38.4715686,32.2311458 38.0778314,32.8342855 37.6850367,32.9117512 C37.2912995,32.9914788 37.4486813,32.6508933 38.2612236,32.0215547 C38.9629389,31.478729 38.3758201,30.9357147 37.9489103,30.7479875 C36.8200966,31.8832095 34.8214424,33.7259899 34.3822813,34.1449835 C34.2248995,34.2957684 34.0893815,34.4718098 33.9625337,34.6842281 C35.0172743,34.1934231 35.080227,34.6067623 34.9070128,34.9045626 Z M41.4062203,45.4404711 C41.7469942,45.7558 42.5602904,46.2009925 43.1359119,45.6760725 C43.7136066,45.1520949 43.004729,44.5749656 42.9270748,44.1567259 C42.8473472,43.7362244 43.3460684,43.4738586 43.0837026,42.7938186 C42.6285206,41.6071412 41.9571507,43.02942 41.5628481,43.4224032 C41.1706188,43.815198 41.2358333,43.1475977 41.5896124,42.7938186 C41.7737585,42.6096725 42.5864893,42.1117052 42.1137785,41.5615287 C41.6418217,41.0111637 40.9610278,41.3251734 40.6204423,41.5615287 C40.2789144,41.7976956 40.0173026,42.0855064 39.4931365,41.9283131 C38.9689703,41.7709313 38.5232124,41.718722 38.2092028,42.4792435 C37.8938738,43.2382572 38.4970135,43.02942 38.9944153,43.5788426 C39.4931365,44.1292076 39.1793153,44.1567259 38.7863321,44.025543 C38.3920295,43.8941716 38.2092028,43.3962044 37.6322619,43.4738586 C37.0551326,43.5528322 37.0551326,44.4713009 37.2392787,44.7069024 C37.4234248,44.9425038 37.7888898,45.0736867 37.5270895,45.5188792 C37.2662315,45.9646372 37.6582723,46.4888033 38.1294752,46.6982058 C38.602186,46.9077969 39.3082364,46.0690557 39.5721101,45.7282818 C39.8339104,45.3876963 40.0947683,45.4666699 40.042559,45.7282818 C39.9992084,45.9537053 39.8759417,46.5468555 39.858413,47.041807 C40.257993,46.9142053 40.6530495,46.7962161 41.0320851,46.6925514 C41.0313312,46.416992 40.9719597,45.9740612 40.8560437,45.5463975 C40.698662,44.9692681 41.0662002,45.125896 41.4062203,45.4404711 Z M34.5922493,48.2452592 C33.9630992,48.428086 33.8579267,48.1395213 33.438933,47.9828934 C33.0199394,47.8262656 32.9924212,48.1917306 33.2809858,48.6374885 C33.5701159,49.083435 33.8841256,49.5024286 33.5433516,49.5024286 C33.2025777,49.5024286 32.9409658,49.5552033 32.8880026,49.8177576 C32.8357933,50.0786155 32.2856168,49.7655483 32.1544339,49.2146178 C32.024005,48.6629335 31.8926336,47.6161091 31.6042574,48.1395213 C31.3164467,48.6629335 31.0538924,49.5291929 30.3203237,49.1362097 C29.5860011,48.7434149 30.0839684,48.2184949 29.717184,47.8509566 C29.3503997,47.4841723 29.0096257,47.0129694 29.3764101,46.3576204 C29.7439483,45.7022714 30.057958,46.2524479 30.3985434,46.2524479 C30.7393174,46.2524479 30.7922806,45.9378728 30.4777055,45.7022714 C30.162942,45.4666699 29.7693933,44.3393641 31.2112742,44.4185262 C31.7665397,44.4488717 32.3645904,44.2611444 32.8357933,43.9203705 C33.3069962,43.5790311 34.5402285,43.7624233 34.0420728,44.6286827 C33.5433516,45.4928688 33.7014873,45.676261 33.9891096,45.3614974 C34.2776742,45.0461685 34.6444586,44.4713009 35.1948236,44.6286827 C35.745754,44.7853105 35.5093986,45.2043042 35.1686247,45.676261 C34.8278507,46.1482178 35.0374418,46.4627929 35.2990536,46.6454311 C35.5616079,46.8295772 36.0443082,47.8204227 34.5922493,48.2452592 Z M37.2662315,42.0593075 C36.7935208,42.0855064 36.2165799,41.9543235 36.2165799,41.9543235 C36.1643707,42.4522907 35.680728,43.1656919 35.1952005,43.8941716 C35.1422373,43.9731452 34.8544266,43.9731452 34.7224898,43.8674073 C34.5926262,43.7629887 34.2258419,43.5788426 34.5128987,43.2642676 C34.8022173,42.9510119 35.2734202,42.2949089 35.1952005,42.0072867 C35.1160384,41.718722 34.9073898,41.4569217 34.5926262,41.8499049 C34.2780512,42.2428881 33.7800839,43.0554304 33.2299074,43.0821948 C32.6782231,43.1076397 32.1293659,42.6096725 32.3904123,42.1115168 C32.6527781,41.6143035 32.7309978,41.3519377 32.3642135,40.9052373 C31.9974291,40.4602333 32.1344549,39.8904547 32.9151439,39.543084 C33.1507453,39.4388539 33.569739,39.543084 33.8583036,39.7786854 C34.1461144,40.0150408 34.3042501,39.7786854 33.9105129,39.543084 C33.5169642,39.3074825 33.2029546,39.0191063 33.1507453,38.4949402 C33.1007978,37.996973 33.4132996,37.4735608 34.094659,37.7613715 C34.775453,38.0491823 35.1952005,37.8135808 35.4835767,37.5779794 C35.7713874,37.341624 37.0008501,37.0472164 36.8204736,38.1289098 C36.6885368,38.9139338 36.3230718,38.9406982 36.2165799,39.3596918 C36.1129153,39.7786854 36.4259825,39.5170736 36.6101286,39.2032524 C36.7935208,38.8879234 37.2132683,37.6011626 38.0774544,38.5731599 C38.2876109,38.8095153 38.2093913,39.2032524 37.9462716,39.6482565 C37.6844712,40.0942029 37.8940623,40.3558147 38.0512556,40.5914162 C38.2093913,40.8277716 38.5739138,41.9861768 37.2662315,42.0593075 Z" id="Shape" fill="#008348" fill-rule="nonzero"></path>
                            <path d="M58.8852093,21.2159297 L59.6855003,20.6484129 L61.420281,23.2247619 L62.4416604,22.5006173 L60.6554244,19.9762891 L61.4317783,19.4276204 L63.3326108,22.0923671 L64.3554981,21.3674685 L61.5326157,17.410872 L56.8886284,20.7019415 L59.4498989,24.3433976 L60.4720322,23.6190645 L58.8852093,21.2159297 Z M62.2414934,30.162942 L63.7602746,29.4604727 L62.7142041,27.1877668 L66.2714091,25.7061164 L65.6254842,24.2823297 L60.6009533,26.4679573 L62.2414934,30.162942 Z M63.146203,32.5658883 L63.3043386,33.9672457 L66.6766436,33.5706814 L66.8085804,35.0321643 L68.3179376,34.9205835 L67.89819,30.0193193 L66.3875135,30.1309002 L66.5179425,32.1695124 L63.146203,32.5658883 Z M63.316213,37.3459591 L63.3371344,39.0162791 L68.2941889,39.0010121 L68.273833,37.331446 L63.316213,37.3459591 Z M65.6445208,41.3770057 C64.8138843,41.2175506 63.8300126,41.3545764 63.1414909,41.8764808 C62.5230842,42.3461758 62.2352735,42.8173787 62.0714834,43.6728947 C61.9685727,44.215155 62.0518813,44.9268599 62.2316924,45.5503556 L63.5416364,45.111006 C63.4155425,44.8094361 63.3625793,44.3514269 63.4988512,43.8873863 C63.7642327,42.9913468 64.4919585,42.5876202 65.3806471,42.7188031 C66.3238069,42.8573367 66.8609782,43.7220883 66.6905912,44.7515724 C66.6246228,45.1618959 66.4203092,45.5169944 65.9534414,45.796135 L66.7646643,46.7734098 C67.4251023,46.3687408 67.9251428,45.5722194 68.0325771,45.0124303 C68.2144614,44.0692706 67.9897919,43.4184451 67.552704,42.6528347 C67.1271136,41.9060723 66.407304,41.5227016 65.6447092,41.3770057 L65.6445208,41.3770057 Z M64.7356646,48.3019921 C64.0433733,48.1244428 63.1002135,48.8849643 62.645597,49.3220521 C62.3832312,49.5742399 61.4675897,50.4970437 61.045015,50.3543634 C60.6665448,50.2275156 60.7818953,49.6496324 60.9102509,49.2719161 C61.0957164,48.7209857 61.3806999,48.2578875 61.8236306,47.9598987 L61.0029837,47.5959416 C60.604346,47.9293648 60.1599074,48.46729 59.9772692,49.0087964 C59.7661703,49.6337999 59.6792805,50.3652953 59.768432,50.8306553 C59.8830286,51.4300254 60.0924312,51.8120767 60.7702094,51.7504434 C61.2923022,51.7020037 62.6028118,50.8508228 63.3589982,50.1368562 C63.7425574,49.7759147 64.0693837,49.7367107 64.2397707,49.8317052 C64.5166495,49.9845634 64.4993092,50.4565202 64.3999796,50.7522472 C64.266535,51.1473037 64.0767345,51.7511973 63.7619709,51.9745475 L64.8821145,52.7262104 C65.3395582,52.2666933 65.5764791,51.5759098 65.7106776,50.9299849 C66.0361846,49.3699263 65.1908466,48.4194158 64.7356646,48.3019921 Z M58.5106972,15.3999665 C58.413441,14.6322827 57.9893584,13.7492484 57.5581135,13.3758672 C56.8912671,12.7966646 56.1017195,12.6415446 55.2622244,12.7502983 C54.410478,12.8618791 53.6181032,13.4084745 53.1708374,14.0442215 C52.6836136,14.7351934 52.4039076,15.6883426 52.5974777,16.5316073 C52.769938,17.2876053 53.0816859,17.7442951 53.7943331,18.2452781 C54.245934,18.5634343 54.9288012,18.7794337 55.571145,18.871601 L55.7094902,17.4971963 C55.3826639,17.4883377 54.9425604,17.3477308 54.5772839,17.0324018 C53.8689717,16.4213459 53.8356105,15.4557569 54.2851381,14.8373502 C54.8447386,14.0653313 55.8212595,13.9000334 56.6895923,14.478482 C57.0362091,14.7076751 57.1732349,15.0787945 57.2348683,15.6210549 L58.5106972,15.3999665 L58.5106972,15.3999665 Z M7.80966041,43.9580667 C7.84518911,43.5833662 7.82417346,42.8982371 8.23014304,42.8126667 C8.62161841,42.7301119 8.87964912,43.1099015 8.96239235,43.5000575 C9.08264334,44.0690821 9.24285232,44.5120128 9.01384771,44.9947131 L10.0693422,44.8838862 C10.2425564,44.3945891 10.1888393,43.739994 10.0706616,43.1817128 C9.93363578,42.5350339 9.72781435,42.0813598 9.25227638,41.6593505 C8.7948326,41.253362 8.45047752,41.1476241 7.78355577,41.288231 C7.37688882,41.3745554 6.65123634,42.1015273 6.62584793,43.5637641 C6.62151286,43.8413969 6.55554446,44.3714059 6.30616503,44.3836572 C5.98864966,44.400432 5.75448067,44.0227157 5.69069864,43.7173763 C5.60371459,43.3093146 5.72113835,42.4155369 5.87701227,42.0630771 L4.77221109,42.0581766 C4.6120021,42.6858189 4.55038761,43.5660259 4.68667834,44.2119508 C4.98751312,45.6349836 5.85017255,46.1003436 6.55045546,46.0234433 C7.29930997,45.9408885 7.6922178,45.1592572 7.80966041,43.9580667 Z M5.59943606,37.9541878 L9.51332279,37.9055596 L9.49447467,36.676097 L5.58058795,36.7247251 L5.56464244,35.0566669 L4.31195894,35.070426 L4.36198184,39.7411777 L5.61464649,39.7274185 L5.59943606,37.9541878 Z M12.667932,25.6689856 L9.64639049,23.9262888 L9.6543067,23.9117757 L13.6559503,23.8450534 L14.6106073,22.3713192 L9.67975166,19.5280809 L8.93449714,20.68724 L12.2988859,22.8004908 L7.7107832,22.9309198 L7.07066347,24.1690525 L11.9226775,26.9853381 L12.667932,25.6689856 Z M7.77392439,28.5289988 C8.64461311,28.5289988 9.3521714,29.2350492 9.3521714,30.1063976 C9.3521714,30.977746 8.64461311,31.6845504 7.77392439,31.6845504 C6.90182205,31.6845504 6.19577161,30.977746 6.19577161,30.1063976 C6.19577161,29.2350492 6.90182205,28.5289988 7.77392439,28.5289988 Z M7.77392439,33.1358553 C9.4471659,33.1358553 10.8034763,31.7795449 10.8034763,30.1063976 C10.8034763,28.4340043 9.4471659,27.0769399 7.77392439,27.0769399 C6.10006088,27.0769399 4.74446666,28.4340043 4.74446666,30.1063976 C4.74446666,31.7795449 6.10006088,33.1358553 7.77392439,33.1358553 Z M9.7263065,51.6166218 C8.85495809,51.6166218 8.14815373,50.9090635 8.14815373,50.0377151 C8.14815373,49.1663667 8.85495809,48.4603162 9.7263065,48.4603162 C10.5970895,48.4603162 11.3038938,49.1663667 11.3038938,50.0377151 C11.3038938,50.9090635 10.5970895,51.6166218 9.7263065,51.6166218 L9.7263065,51.6166218 Z M12.7557642,50.0377151 C12.7557642,48.3645678 11.3994538,47.0090113 9.7263065,47.0090113 C8.05259378,47.0090113 6.69690533,48.3645678 6.69690533,50.0377151 C6.69690533,51.7116163 8.05259378,53.0679267 9.7263065,53.0679267 C11.3994538,53.0679267 12.7557642,51.7116163 12.7557642,50.0377151 Z M15.4159873,57.1016121 L15.3115688,56.9762721 C14.9773917,56.5753727 13.8487665,55.3805906 14.3148804,54.9421834 C14.7404709,54.5420379 15.8133056,55.9040028 16.1171373,56.267206 L16.2468123,56.4253417 L15.4159873,57.1016121 L15.4159873,57.1016121 Z M13.5551128,58.7821101 C13.1549673,58.3028025 11.9616931,57.3647318 12.4713462,56.8848587 C12.9570621,56.4281689 14.1539175,57.88739 14.3026291,58.0658817 L13.5551128,58.7821101 Z M13.3709667,53.4980407 C12.9063607,53.9104375 12.6816911,54.8899741 13.1202868,55.5532393 C12.642487,55.3204651 11.6789713,55.2407376 11.2367945,55.6250507 C10.1466195,56.5717915 11.4688148,57.9395993 12.5548433,59.0241199 L14.068347,60.518964 L18.0911005,57.1915176 L16.4620578,55.2972819 C15.8909599,54.5795456 14.3120532,52.6658964 13.3709667,53.4980407 L13.3709667,53.4980407 Z" id="Shape" fill="#FFFFFF" fill-rule="nonzero"></path>
                            <path d="M31.2766772,69.1585635 C31.4470641,69.0803439 31.6834195,68.9751714 31.788592,69.054145 C31.8930106,69.1325531 32.5206528,69.5783111 32.9151439,69.9196505 C33.3071847,70.2596705 33.4385561,70.364843 33.1245465,70.5482352 C32.8099714,70.7308734 32.5206528,70.9150195 32.57437,70.7570723 C32.6265792,70.6011984 32.7047989,70.364843 32.4946424,70.1552519 C32.2858053,69.9450954 31.7710632,69.5477771 31.5514827,69.36872 C31.40786,69.2505424 31.2766772,69.1585635 31.2766772,69.1585635 L31.2766772,69.1585635 Z M29.7957807,69.5916933 C29.6644093,69.7098709 29.6383989,69.9064568 29.7957807,70.0628962 C29.952974,70.2202779 30.8309192,70.9538466 30.9751073,71.0989771 C31.1194839,71.2424113 31.3288864,71.2961284 31.5644879,71.2424113 C31.8008433,71.1894481 31.2898708,71.5309759 31.0925311,71.57018 C30.8976415,71.6084417 30.6742914,71.6084417 30.4648888,71.4127982 C30.2537899,71.2164009 29.0752172,70.1021002 28.8396157,69.879504 C28.6032603,69.6570962 28.9048302,69.6570962 29.1142328,69.6316513 C29.3245778,69.6056409 29.507216,69.6178921 29.7957807,69.5916933 Z M35.5225923,7.09723932 C35.5717859,6.96963757 35.6138172,6.829728 35.6682882,6.71737438 C35.4839537,6.81344323 35.30075,6.91181155 35.1188656,7.01242279 C35.2347816,7.17625062 35.3921633,7.43577033 35.5225923,7.09723932 Z M40.2536579,7.35885117 C40.1746843,7.08410218 39.9253238,7.51689262 39.5977435,7.90908423 C39.2707287,8.30270829 38.7980179,8.06710683 38.7465626,7.87065292 C38.6943533,7.67348277 38.6023745,7.45090537 38.3138098,7.07034305 C38.0252452,6.69119435 38.5893693,6.1663497 38.8249707,6.1003813 C39.0605722,6.0358642 39.3627075,5.98295753 39.4411157,5.91770535 C39.507838,5.86261231 39.3889064,5.47622593 39.3250113,5.17753983 C38.3826055,5.44650245 37.2336243,5.938721 36.2194072,6.43893116 C36.5283278,6.55709 36.4369144,7.15659203 36.400726,7.24067348 C36.3609565,7.33274653 36.2565379,7.85687494 36.4921394,7.54226219 C36.7284948,7.22764943 36.8204736,7.11020682 37.0683263,7.03264682 C37.3176869,6.95290044 37.5924924,6.96594334 37.6070055,7.33276538 C37.6192567,7.70030364 37.4490583,7.67348277 37.396849,7.90908423 C37.3438858,8.14540191 37.396849,8.13235901 37.5150267,8.18454945 C37.6324504,8.23675873 37.7106701,8.39478133 37.6192567,8.64342568 C37.5272779,8.89207003 37.1342947,8.91817467 36.7799501,8.87902714 C36.426171,8.8398796 36.3869669,8.89207003 36.5058985,9.01024772 C36.600893,9.10665584 36.7298141,9.31615265 36.7761805,9.53509237 C37.6286808,9.12260134 38.6604267,8.77754888 40.257993,8.4491393 C40.3015322,8.14685321 40.318307,7.58721495 40.2536579,7.35885117 L40.2536579,7.35885117 Z M31.9716072,12.5356182 C31.8534295,12.2992629 31.6830425,12.2602472 31.6178281,12.4436394 C31.5511057,12.6270316 31.4206768,13.2431765 31.0146883,13.4128096 C30.9146048,13.4557833 30.8120711,13.4923486 30.7072756,13.5223171 C30.8478825,13.6744214 31.0045104,13.8106933 31.1850753,13.9377296 C31.5054933,13.5990289 31.8055553,13.2902968 32.093366,13.0024861 C32.0824341,12.8567901 32.0520887,12.6973351 31.9716072,12.5356182 Z M35.8889997,9.40373984 C35.745377,9.35153056 35.6271993,9.57408912 35.5352205,9.73067927 C35.4438072,9.88798565 35.2474098,10.150408 34.9073898,10.1112604 C34.5658619,10.0721129 34.4868883,9.95395405 34.3956634,9.66542709 C34.3034961,9.3776352 34.0940936,9.28556215 33.8452984,9.28556215 C33.5959379,9.28556215 33.4255509,8.98399229 33.6881051,8.66937954 C33.9504709,8.35548301 34.2122713,8.49903026 34.4216738,8.49903026 C34.630511,8.49903026 34.7362489,8.27645286 34.5658619,8.15829402 C34.430344,8.06478851 34.1926692,7.79729605 34.1512034,7.59141808 C33.4038755,8.0829204 32.3323601,8.8433665 31.398059,9.68572651 C31.5669381,9.70023956 31.7640894,9.75678391 31.853241,9.79664767 C31.9714187,9.84883811 32.1810098,10.0061445 32.1548109,10.242481 C32.1288005,10.4773474 32.2070202,10.5309703 32.3512083,10.3729477 C32.4948309,10.2163764 32.3251979,9.74372216 32.809406,9.56104622 C33.2951219,9.3776352 33.3610903,9.74372216 33.334326,9.99236651 C33.3068078,10.242481 33.334326,10.4773474 33.5836866,10.5824633 C33.8315393,10.6875793 34.120104,11.09353 33.5699275,11.3298665 C33.0197509,11.565468 32.7181811,11.6184689 32.4948309,11.6844373 C32.2722347,11.7488979 32.3251979,11.9720596 32.5078361,12.1156822 C32.6201709,12.2040799 32.7006523,12.2896503 32.7658668,12.3556187 C33.458912,11.7119555 34.1142611,11.1856031 34.8544266,10.6875793 C35.2596611,10.4157329 35.6294611,10.1699723 36.0143396,9.94379492 C36.0774808,9.70819346 36.0999101,9.47984854 35.8889997,9.40373984 Z M30.7517571,11.8538819 C30.7662702,11.5921381 30.5698728,11.5000462 30.437936,11.4609363 C30.3421876,11.4312129 30.1623765,11.2456343 30.0834029,11.0861415 C29.9527855,11.2608636 29.8376235,11.4341155 29.7433829,11.6052752 C29.8006812,11.7813166 29.8579794,11.9445413 29.9137699,12.0981535 C30.2421041,12.0902372 30.7408252,12.0734624 30.7517571,11.8538819 L30.7517571,11.8538819 Z M41.8259678,24.0802779 C40.9676246,24.0259953 39.9462452,24.1999634 38.9704782,24.5761718 C39.1408652,24.6775747 39.322938,24.9088411 39.6765286,24.7878362 C40.1746843,24.6174492 40.3456368,25.1416153 40.1094699,25.2865573 C39.8731145,25.43018 39.7941409,25.7962104 40.2398988,25.5214049 C40.6849028,25.2467878 41.0778861,25.6395826 40.8960017,25.9281472 C40.7118557,26.2159579 40.4762542,25.9933617 40.5284635,26.3993501 C40.5806728,26.8060925 40.4892594,27.1728768 40.1217211,27.2380913 C39.7549368,27.3040597 39.6765286,26.7538832 39.5068956,26.7930873 C39.3351892,26.8321029 39.5453457,27.7622574 39.4663721,27.7752626 C39.2104147,27.8188017 38.9661431,28.0406441 38.8342063,28.1739003 C38.8451382,28.181251 38.8538084,28.1876594 38.8632324,28.1950101 C40.3066212,29.2309026 40.6718976,28.666967 40.8822426,28.1689997 C41.0916452,27.670844 41.5577591,26.1948481 41.694031,25.4171748 C41.7737585,24.9712284 41.8781771,24.5000254 41.8259678,24.0802779 Z M38.6941648,26.9372754 C38.7723845,26.7406895 38.5629819,26.5703025 38.3411396,26.7139252 C38.1170355,26.8588672 37.7887013,27.0677043 37.5661051,26.6877263 C37.3442627,26.3071828 37.8147117,26.2687327 37.8416645,26.0853405 C37.8676749,25.9019483 37.6842827,25.8759379 37.77645,25.5743681 C37.8676749,25.2727982 38.192428,25.3627037 38.4323645,25.5214049 C38.70717,25.705551 38.6266886,25.2705364 38.5889923,25.1024112 C38.5599662,24.9748095 38.5397987,24.8456999 38.5629819,24.7463703 C38.2808256,24.874726 38.0018735,25.0191026 37.737246,25.1806309 C36.3903596,26.004859 36.3483283,26.70092 36.6621494,26.9632858 C36.9441172,27.1973794 37.5204926,27.3076408 38.4998407,27.9469689 C38.5100187,27.6069489 38.6332854,27.0886257 38.6941648,26.9372754 L38.6941648,26.9372754 Z M34.4090456,26.1503665 C33.8515183,25.8725453 33.3071847,25.259416 32.9409658,24.5518578 C32.9409658,24.5518578 32.9671647,24.4474392 32.8097829,24.4474392 C32.6531551,24.4474392 32.0754603,24.394476 31.1062902,24.0537021 C30.1363661,23.7138705 30.0057487,23.9232731 29.8753197,24.3422667 C29.7433829,24.7612603 29.6382104,25.5217818 29.6122,26.7802705 C29.5860011,28.0380053 30.1363661,28.8237833 30.4777055,28.6926004 C30.6430035,28.6281399 31.0714212,28.4157216 31.5303728,28.1923714 C31.5367812,27.9422569 31.5505403,27.5095042 31.578247,27.3036827 C31.6172626,27.0028668 31.3034415,27.1210445 31.1715047,27.2782378 C31.0403218,27.4348656 30.7922806,27.6972314 30.5559252,27.6574619 C30.3203237,27.6182578 30.1631304,27.1992642 30.202146,26.8062809 C30.2413501,26.4127323 29.782587,26.2553505 30.0717171,25.7319383 C30.3595278,25.2072068 30.5958832,25.8625558 30.8444898,25.8095926 C31.0925311,25.7573833 30.9626675,25.6269543 30.8444898,25.220212 C30.7263122,24.8134696 31.213536,24.6932186 31.5260377,24.9838566 C31.7224351,25.1680027 31.8138485,24.7612603 32.1022246,24.8134696 C32.3907893,24.8664328 32.5611763,25.0628302 32.3907893,25.3513949 C32.2596064,25.5739911 32.1674391,26.0981572 32.4175536,25.8233517 C32.6655948,25.5477922 32.9149554,25.3775937 33.1505569,25.5615514 C33.3869122,25.7443781 33.2295305,26.1241676 33.164316,26.320565 C33.0983476,26.5177163 33.5840635,26.7540717 33.2425357,26.9889192 C32.9019502,27.2245206 32.5212183,26.8192861 32.3255748,26.8714954 C32.1291774,26.9244586 32.0892194,27.1600601 32.3515852,27.3434523 C32.5227261,27.4631378 32.7017832,27.5566245 32.83372,27.6095877 C33.3795615,27.4239337 34.0183241,27.0658195 34.2256534,26.9368984 L34.5662389,26.9636627 C34.5924378,26.5179048 34.5662389,26.2293401 34.4090456,26.1503665 L34.4090456,26.1503665 Z M32.4691975,31.9167592 C32.2597949,31.4448023 32.1864757,31.8072516 31.6044459,32.72949 C31.3100383,33.1956039 30.5662917,34.0596015 29.6355717,35.0361224 C30.2807427,35.1665514 31.6704143,35.5080792 30.8446783,36.1894386 C29.952974,36.9224419 30.3467111,36.8702326 30.7395058,36.8172694 C31.133243,36.7643062 31.788592,37.0006616 31.2898708,37.8923659 C30.792469,38.7840703 30.4511297,39.4119011 29.9791728,39.7010312 C29.507216,39.9888419 28.826422,39.9628315 28.6692288,39.2812836 C28.511847,38.5999242 28.0653351,39.2812836 28.0398902,39.7272301 C28.0131258,40.1722341 27.9609165,40.9327556 28.0131258,41.1951214 L27.0177568,41.1421581 C26.9917464,40.7224106 26.9917464,39.8836694 27.0699661,39.4908747 C27.1489397,39.0986454 27.1229293,38.6259346 26.5197896,38.8093268 C26.1260524,38.9297663 25.8565244,38.8281749 25.7164829,38.7476935 C24.5450724,39.7901828 23.9528646,40.5099923 23.5555463,41.1451738 C23.8563623,41.4118747 24.3334081,41.6126071 24.8423072,41.4047124 C25.4186826,41.168357 26.3631617,41.4569217 25.7862209,42.3484376 C25.2090916,43.2380687 25.2358559,43.6838266 25.8114774,43.1336501 C26.3886067,42.5832851 27.3149916,41.6372982 27.5948861,42.6362483 C27.7775244,43.2908434 27.1751386,43.5004344 27.201149,44.025166 C27.2273479,44.5493321 27.7520794,45.0734982 27.0177568,45.7026483 C26.2841881,46.331233 25.9696131,45.2561365 25.4714574,45.4142722 C25.1713953,45.5098321 25.1105159,45.7861455 25.1271023,46.031171 C25.7796241,46.9539748 26.7291922,48.2588299 27.0699661,48.8199383 C27.5948861,49.6861977 27.5948861,50.7350954 27.8035348,50.5771482 C28.0131258,50.419201 28.511847,49.9472441 28.6692288,49.8173806 C28.826422,49.6861977 28.9830499,49.5288159 28.9048302,49.2404398 C28.826422,48.952629 28.5248522,47.4063296 28.6170195,46.331233 C28.721438,45.0995086 29.2976249,43.749795 29.7173725,42.9770223 C30.1205337,42.2332756 31.3418916,39.857659 31.6304563,39.2283204 C31.919021,38.5999242 32.4431871,37.8661671 32.57437,37.2892262 C32.7047989,36.7120969 33.2029546,35.3761424 33.4131111,34.7469923 C33.3609018,34.2228262 33.0223897,33.1622427 32.4691975,31.9167592 L32.4691975,31.9167592 Z M36.4003491,26.0717699 C36.2431558,26.4915174 36.0343187,27.015495 35.9291462,27.2780493 C35.8239737,27.5404151 35.3412734,27.4382583 35.3782157,27.2510965 C35.4571893,26.8583017 34.8968348,27.1184058 34.9592221,26.8060925 C35.0114314,26.5435382 34.9070128,26.1239791 35.1948236,26.1239791 C35.4833882,26.1239791 36.0343187,26.0717699 36.4003491,26.0717699 Z" id="Shape" fill="#BB9753" fill-rule="nonzero"></path>
                            <path d="M35.5225923,7.09718277 C35.5717859,6.96958103 35.6138172,6.82967146 35.6682882,6.71731784 C35.4839537,6.81340553 35.30075,6.911755 35.1186772,7.01236625 C35.2347816,7.17619408 35.3919748,7.43571379 35.5225923,7.09718277 Z M37.2662315,42.0593075 C36.7935208,42.0855064 36.2165799,41.954135 36.2165799,41.954135 C36.1643707,42.4522907 35.680728,43.1655034 35.195012,43.8941716 C35.1422373,43.9731452 34.8544266,43.9731452 34.7224898,43.8672188 C34.5926262,43.7629887 34.2258419,43.5788426 34.5128987,43.2640791 C34.8022173,42.9510119 35.2734202,42.2949089 35.195012,42.0070982 C35.1160384,41.7185335 34.9072013,41.4569217 34.5926262,41.8499049 C34.2780512,42.2426997 33.7800839,43.0554304 33.2299074,43.0821948 C32.6782231,43.1076397 32.1293659,42.609484 32.3904123,42.1115168 C32.6527781,41.6143035 32.7309978,41.3517492 32.3642135,40.9052373 C31.9974291,40.4602333 32.1344549,39.8902663 32.9151439,39.543084 C33.1507453,39.4386654 33.569739,39.543084 33.8583036,39.7786854 C34.1461144,40.0150408 34.3042501,39.7786854 33.9105129,39.543084 C33.5169642,39.3074825 33.2029546,39.0189179 33.1507453,38.4949402 C33.1007978,37.9967845 33.4132996,37.4733723 34.094659,37.7611831 C34.775453,38.0489938 35.195012,37.8133923 35.4835767,37.5777909 C35.7713874,37.3414355 37.0008501,37.0472164 36.8204736,38.1287213 C36.6885368,38.9139338 36.3230718,38.9406982 36.2165799,39.3596918 C36.1129153,39.7786854 36.4259825,39.5170736 36.6101286,39.2030639 C36.7935208,38.887735 37.2132683,37.6009741 38.0774544,38.5731599 C38.2876109,38.8095153 38.2093913,39.2030639 37.9462716,39.6482565 C37.6844712,40.0940144 37.8940623,40.3558147 38.0512556,40.5914162 C38.2093913,40.8277716 38.5739138,41.9861768 37.2662315,42.0593075 Z M34.5926262,48.2450707 C33.9627222,48.4278975 33.8583036,48.1400867 33.4385561,47.982705 C33.0195625,47.8260771 32.9927981,48.1915421 33.2813628,48.6373 C33.569739,49.0832465 33.8845025,49.5028055 33.5437286,49.5028055 C33.2029546,49.5028055 32.9405889,49.5552033 32.8883796,49.8175691 C32.8361703,50.0791809 32.2859938,49.7653598 32.1548109,49.2144294 C32.023628,48.662745 31.8930106,47.6159206 31.6038805,48.1400867 C31.3160697,48.662745 31.0535155,49.5290044 30.3199468,49.1360212 C29.5863781,48.7432265 30.0843453,48.2183064 29.7168071,47.8507682 C29.3507766,47.4839838 29.0100027,47.0127809 29.376787,46.3574319 C29.7435714,45.7020829 30.0583349,46.2522594 30.3989204,46.2522594 C30.7396943,46.2522594 30.7919036,45.9384383 30.4780825,45.7020829 C30.162565,45.4664815 29.7697703,44.3399295 31.2108972,44.4183377 C31.7669167,44.4486832 32.3642135,44.2609559 32.8361703,43.920182 C33.3073732,43.5788426 34.5398515,43.7629887 34.0416958,44.6284942 C33.5437286,45.4926803 33.7011103,45.6760725 33.9887326,45.3620629 C34.2780512,45.04598 34.6440816,44.4711124 35.195012,44.6284942 C35.745377,44.7851221 35.5097756,45.2041157 35.1690016,45.6760725 C34.8282277,46.1485948 35.0378187,46.4626044 35.2994306,46.6452426 C35.5619849,46.8293887 36.0439312,47.8204227 34.5926262,48.2450707 Z M43.8964334,43.5526437 C43.2148855,42.4268457 43.0837026,41.9810878 42.9787186,40.8277716 C42.9127502,40.0998573 42.9721218,39.1538704 43.0772942,38.2448257 C42.8758079,38.2288048 42.6017563,38.267255 42.5864893,38.5731599 C42.5602904,39.0718811 42.3241235,39.7786854 42.1667417,40.1454698 C42.00936,40.513762 41.4853823,40.4862437 41.1706188,40.513762 C40.8560437,40.5399608 40.8560437,40.3296159 41.0662002,39.857659 C41.2750374,39.3858907 41.354011,39.1762996 41.3012362,38.757306 C41.248273,38.3375585 41.0401898,38.7050967 40.8560437,39.0718811 C40.6718976,39.4386654 40.1484855,40.1716686 39.5453457,40.0940144 C38.9429599,40.0150408 39.0995878,39.0986454 39.152551,38.7833164 C39.2047603,38.4687413 39.0219336,38.4165321 38.7863321,38.3635689 C38.5499767,38.3121135 38.0774544,38.2063756 38.3405742,37.446608 C38.602186,36.6860865 38.8907507,36.7644947 39.2567811,36.8956776 C39.6237539,37.0268605 39.6765286,36.791259 39.3351892,36.66083 C38.9944153,36.5304011 38.6283849,36.2410825 38.6543953,35.8742981 C38.7233794,34.9036202 39.3351892,34.9833477 39.8079,35.0877663 C40.2182235,35.1782372 40.7357928,34.9318923 41.0873101,34.5562494 C41.0801478,34.5323123 41.0712892,34.5085636 41.0662002,34.4838726 C40.3667466,31.8168642 41.694031,28.5350302 42.0608153,27.6180693 C42.4283536,26.7011085 43.8434702,24.119482 44.3284322,23.3461438 C44.0668203,23.2147724 43.3722673,22.8617472 42.9917238,22.6645959 C42.6124997,22.4689524 42.4023432,22.3767852 42.2971707,22.5211617 C42.1921867,22.6645959 42.0608153,22.7430041 41.8781771,23.0053698 C41.5098849,23.5308553 41.8259678,23.4511278 41.9303864,23.4511278 C42.0355589,23.4511278 42.4805629,24.0275032 42.5602904,24.15944 C42.6386986,24.2898689 42.5602904,24.3942875 42.3761443,24.8132811 C42.1356424,25.3621383 41.9833496,26.6227003 41.7737585,27.3824679 C41.1387655,29.6840113 40.1484855,29.4529334 39.7027275,29.1651227 C39.2567811,28.8758041 39.1263521,29.322316 38.6805942,29.9509007 C38.5739138,30.1001777 38.307213,30.3864806 37.9549417,30.7410137 C38.3818515,30.9317566 38.9597348,31.4811792 38.2616005,32.0211777 C37.4488698,32.6505163 37.2909226,32.9912903 37.6844712,32.9121282 C38.0774544,32.8339085 38.4710031,32.2307688 38.9169495,32.6505163 C39.3627075,33.0702639 38.7595678,33.5414668 38.5232124,33.6726497 C38.2876109,33.8038326 37.8149002,34.039434 37.9462716,34.5374013 C38.0774544,35.034803 38.1564281,35.7169164 37.5003251,35.8742981 C36.8457301,36.0314914 36.5841182,35.7431153 36.400726,35.4023413 C36.2165799,35.0615674 36.0337532,35.2971688 35.9547796,35.7169164 C35.8765599,36.13591 35.8243506,36.4504851 35.8243506,36.6078668 C35.8243506,36.7644947 35.3523938,36.5304011 35.1422373,36.3200561 C34.9326463,36.1098996 34.6710344,36.6860865 34.4339251,36.3984643 C34.1998315,36.1098996 34.7224898,35.2181952 34.9073898,34.9043741 C35.07985,34.6078932 35.0072848,34.1968158 33.9655494,34.6787621 C33.6285451,35.2436402 33.3610903,36.0620254 32.9405889,37.3414355 C32.3642135,39.0986454 31.0586044,41.4902829 30.5163441,42.3608773 C29.1049972,44.6300021 28.8526209,46.7771795 29.0629659,48.1138879 C29.2710491,49.443434 29.4551952,49.3448583 29.7435714,49.3448583 C30.032136,49.3448583 30.7396943,50.2358088 31.2108972,50.7874931 C31.6828541,51.3376697 31.8670002,51.1013143 32.1026016,50.9171682 C32.8601074,50.3285415 34.3817158,49.3448583 36.531155,48.3234789 C37.4481158,47.8877105 38.6689083,47.4231044 39.8599208,47.041807 C39.8782035,46.5481748 39.9992084,45.9529513 40.0427475,45.7288472 C40.0949568,45.4664815 39.8339104,45.3875078 39.5722985,45.7288472 C39.3084249,46.0688672 38.602186,46.9076084 38.1296637,46.6982058 C37.6584608,46.4886148 37.2662315,45.9644487 37.5272779,45.5186907 C37.7888898,45.0734982 37.4236133,44.9423153 37.2394672,44.7067139 C37.0553211,44.4711124 37.0553211,43.5526437 37.6322619,43.4736701 C38.2093913,43.3960159 38.3920295,43.8941716 38.7863321,44.0253545 C39.1793153,44.1565374 39.4931365,44.1290191 38.9944153,43.5788426 C38.497202,43.0292315 37.8940623,43.2380687 38.2093913,42.479055 C38.5232124,41.7185335 38.9691588,41.7714967 39.4931365,41.9281246 C40.0173026,42.0855064 40.2791029,41.7976956 40.6204423,41.5613403 C40.9612162,41.3249849 41.6418217,41.0111637 42.1137785,41.5613403 C42.5864893,42.1115168 41.7737585,42.609484 41.5896124,42.7936301 C41.2358333,43.1474092 41.1706188,43.815198 41.5628481,43.4222148 C41.9571507,43.0292315 42.6277667,41.6069527 43.0837026,42.7936301 C43.3462569,43.4736701 42.8473472,43.7360359 42.9272632,44.1565374 C43.004729,44.5747771 43.7137951,45.1519064 43.1359119,45.6760725 C42.5602904,46.2008041 41.7469942,45.7558 41.4062203,45.4404711 C41.0662002,45.1257075 40.698662,44.9692681 40.8560437,45.546209 C40.9713942,45.9702916 41.0300119,46.4168035 41.0315197,46.6923629 C42.1782391,46.3747722 43.1771893,46.1819559 43.685523,46.2270029 C44.4343586,46.2937253 44.9967864,46.5148137 44.970776,45.8332658 C44.9445771,45.1519064 44.5777928,44.6799496 43.8964334,43.5526437 Z M28.3653971,64.466325 C28.2500466,64.466325 27.9999321,64.4256131 27.9999321,64.3191212 L27.6976084,64.2857601 C27.8804351,64.3227024 28.0470524,64.5322934 27.8542362,64.6634763 C27.6448336,64.8099262 26.976291,64.8888998 26.2702405,64.8476224 C25.5626822,64.8099262 25.390222,64.4256131 25.3779707,64.1472264 C25.3693006,63.9630803 25.390222,63.8023059 25.390222,63.5369244 C25.390222,63.2730508 25.3270808,63.0338682 25.4837086,62.9279418 C25.6395826,62.8227693 25.6011324,63.0860775 25.704797,63.0860775 C26.1520628,63.0860775 27.6976084,63.2325273 28.0651466,63.286056 C28.4341927,63.3375113 28.4081823,63.1186847 28.326193,62.8729053 C28.301502,62.7931777 28.1978374,62.8227693 28.1588218,62.9279418 C28.1181098,63.0338682 27.7773359,62.9946641 27.7773359,62.9946641 C27.7773359,62.9946641 27.0959765,62.9279418 26.6530458,62.9004235 C26.20578,62.8729053 25.8621788,62.8227693 25.589635,62.7692406 C25.3127562,62.7142041 24.9704744,62.7292826 24.9995005,62.8619734 C25.0211759,62.9946641 25.1024112,64.6497172 25.1176782,64.8888998 C25.1291756,65.126763 25.1431232,65.2210036 25.2605469,65.2210036 C25.5626822,65.2210036 27.5962055,65.247014 28.0651466,65.247014 C28.5378574,65.247014 28.5131664,65.1932969 28.5240983,64.9294232 C28.5378574,64.6634763 28.486402,64.466325 28.3653971,64.466325" id="Shape" fill="#BB9753" fill-rule="nonzero"></path>
                        </g>
                    </g>
                </g>
            </g>
        </g>
    </g>
</svg>