<?xml version="1.0" encoding="UTF-8"?>
<svg width="80px" height="80px" viewBox="0 0 80 80" version="1.1" xmlns="http://www.w3.org/2000/svg" xmlns:xlink="http://www.w3.org/1999/xlink">
    <title>D2AA3C40-1F16-49C8-A517-0229FDD8E0DF</title>
    <g id="Specifications" stroke="none" stroke-width="1" fill="none" fill-rule="evenodd">
        <g id="Teams" transform="translate(-624.000000, -1797.000000)" fill-rule="nonzero">
            <g id="Group-6-Copy-15" transform="translate(624.000000, 1712.000000)">
                <g id="Group-3" transform="translate(0.000000, 48.000000)">
                    <g id="Assets-exportable/Logos/Club-logos/West-Conference/Phoenix-Suns/transparent" transform="translate(0.000000, 37.000000)">
                        <g id="Group">
                            <rect id="Rectangle" x="0" y="0" width="80" height="80" rx="20"></rect>
                        </g>
                        <g id="Group-2" transform="translate(0.000000, 8.000000)">
                            <polygon id="Path" fill="#FEFEFE" points="61.0877934 0 54.0313298 7.0194685 42.6795856 1.07718332 40.6286772 12.349492 29.110535 14.8427406 35.552655 18.7216255 28.3251489 22.3449077 34.2057755 22.8530704 7.56366548 43.5549772 28.1251189 32.6438116 5.86941595 49.5707722 29.6351934 37.1908513 3.46825484 56.8476052 30.6175667 42.3930734 0 64.5493219 36.2597267 44.7120765 12.9899404 63.4865522 47.4740604 43.6877434 47.0325209 46.797898 52.4491867 43.7931235 63.1531155 53.9051299 68.8322707 36.8583755 76.1846955 35.8068165 73.0188079 25.9840448 80 19.9171613 70.9406736 16.095771 73.4970222 5.25971673 64.9208748 9.18344427"></polygon>
                            <polygon id="Path" fill="#F9A01B" points="10.7527751 57.7559882 43.7236174 39.7167709 21.3655773 57.7559882 48.4940694 42.1795906 48.0493269 45.320014 52.5733046 42.8093088 62.7908513 52.4626395 68.2300986 36.1381713 75.1329763 35.1489115 72.0966518 25.7257194 78.5083429 20.1559482 70.0073069 16.569501 72.3429658 6.66681347 64.4995145 10.2532606 60.8088084 1.40549522 54.1794705 7.99975977 43.2724688 2.29097643 41.3206947 13.0166859 31.2487263 15.1966768 37.2078274 18.786327 31.2102898 21.7925429 36.3071318 22.2336019 15.3488214 38.5180321 36.4302888 27.3304439 13.817927 44.5290226 37.8876733 31.9924728 12.1749262 51.3071418 40.5112857 36.2214504"></polygon>
                            <path d="M71.0860918,25.8708173 C70.7132576,34.9232571 63.0650318,41.9587408 54.0023422,41.5814224 C44.9430159,41.2106701 37.9025674,33.5680496 38.2784445,24.5172114 C38.6512787,15.46317 46.2996647,8.43088934 55.358991,8.80340323 C64.4199189,9.18056153 71.4619689,16.8185376 71.0860918,25.8708173" id="Path" fill="#E55F1F"></path>
                            <path d="M56.6924178,39.3450578 C47.6345328,38.9711025 40.5924829,31.3283219 40.9653171,22.2776438 C41.1381212,18.0871027 42.8690456,14.3376207 45.575777,11.5455283 C41.3620139,14.356839 38.5000951,19.0667534 38.2776438,24.5183324 C37.9017667,33.5675692 44.9438166,41.2085882 54.0015415,41.5827036 C58.8712877,41.7840148 63.3297633,39.8421701 66.4732296,36.601011 C63.6832191,38.4629398 60.3030479,39.4938391 56.6924178,39.3450578 Z" id="Path" fill="#B85914"></path>
                            <path d="M71.09474,25.3855563 C71.1027476,24.7973175 71.0787248,24.2188479 71.0242731,23.6434213 C70.0772934,22.9850358 68.9511035,22.483119 67.6184776,22.310475 C67.3657575,22.2802062 67.1224864,22.264191 66.8777739,22.2449727 C66.718903,21.1682699 66.4748311,20.1058205 66.1482809,19.0677143 C66.3162805,19.082128 66.4890846,19.0885341 66.6602873,19.0981432 C67.8153045,19.1843051 68.9527051,19.3138682 70.0756919,19.4785046 C69.9205045,19.0597067 69.7428958,18.6521195 69.5556779,18.2509384 C68.2951204,18.0576348 67.0121415,17.9090136 65.7131475,17.8114809 L65.7003353,17.8114809 C65.2844202,16.7567189 64.7773785,15.7402332 64.1822531,14.7732346 C65.0204895,14.6005906 65.7692007,14.2570642 66.3755368,13.6848406 C66.0667634,13.371583 65.7435764,13.0679345 65.4075772,12.7786998 C64.8813173,13.2629998 64.1982684,13.5218057 63.4143236,13.627346 C63.2927681,13.4563035 63.1744157,13.2900656 63.0480557,13.1254292 C61.9329163,11.6774936 60.6467344,10.4388769 59.2309894,9.43360192 C57.9944547,9.07550173 56.7018668,8.85817527 55.3580301,8.80388369 C55.2843601,8.80068065 55.2108503,8.80388369 55.135739,8.79907913 C57.6312297,9.78033131 59.8597468,11.4281367 61.6513688,13.6321505 C59.9428657,13.4675141 57.973635,12.8952905 56.0250638,12.3248286 C55.4491567,12.1537861 54.8844602,11.9875482 54.338982,11.8373255 C51.0211101,10.9215755 48.4711676,10.7743957 46.5562284,10.9422351 C45.1340774,11.7510035 43.846294,12.7690906 42.7281117,13.9534157 C44.7964767,13.0935589 48.9653971,11.619999 54.0254041,13.020049 C54.5630349,13.1686702 55.1213253,13.3317051 55.6892248,13.4977829 C57.9255893,14.1563285 60.4324508,14.888384 62.6033131,14.9106451 C63.2016416,15.8009309 63.7182924,16.7407037 64.1454181,17.7203543 C63.7214954,17.7011361 63.2959712,17.6900856 62.8752515,17.6804765 C52.3313147,17.4998248 43.2928082,20.651619 38.2758821,25.6795956 C38.3047095,26.6784645 38.4182573,27.6550723 38.6182874,28.6058956 C40.0324308,26.5761273 42.1281818,24.7446274 44.8317101,23.223182 C49.9349582,20.3574195 56.7066713,18.8487863 63.9007057,18.9749862 C64.1470197,18.9781893 64.3965367,18.9877984 64.6446124,18.9974075 C65.0076773,20.0377559 65.2796156,21.1134978 65.4524198,22.2193484 C60.817937,22.4144137 57.813643,25.3024373 54.3646064,28.375757 C51.2690256,31.1455883 47.490556,33.9024473 41.9633852,35.5614634 C42.4832391,36.2023923 43.0495371,36.8000801 43.6622792,37.3530854 C48.8710675,35.2578149 52.3313147,31.9942345 55.2556929,29.3826335 C58.5735649,26.4162955 61.4242731,23.574716 65.6092087,23.4341024 C65.7163505,24.5896001 65.7211551,25.7675191 65.6156148,26.9566488 C65.0525199,33.3830739 61.3283419,38.8314499 56.2491167,41.5180021 C57.5497122,41.3982083 58.8070667,41.1216255 60.0037235,40.7093939 C60.4100295,40.373715 60.8083279,40.018978 61.1907712,39.6432611 C64.5212952,36.3670287 66.5898203,31.903108 67.0121415,27.0796457 C67.1176818,25.8712977 67.1176818,24.6727191 67.0201491,23.491597 C67.2281868,23.5140183 67.4360643,23.5332366 67.650508,23.5683099 C69.0774636,23.8016516 70.208458,24.5192933 71.09474,25.3855563" id="Path" fill="#051821"></path>
                        </g>
                    </g>
                </g>
            </g>
        </g>
    </g>
</svg>