<?xml version="1.0" encoding="UTF-8"?>
<svg width="80px" height="80px" viewBox="0 0 80 80" version="1.1" xmlns="http://www.w3.org/2000/svg" xmlns:xlink="http://www.w3.org/1999/xlink">
    <title>566B48EE-65B0-40F7-A11B-BF7352626BD1</title>
    <g id="Specifications" stroke="none" stroke-width="1" fill="none" fill-rule="evenodd">
        <g id="Teams" transform="translate(-624.000000, -997.000000)" fill-rule="nonzero">
            <g id="Group-6-Copy-7" transform="translate(624.000000, 912.000000)">
                <g id="Group-3" transform="translate(0.000000, 48.000000)">
                    <g id="Assets-exportable/Logos/Club-logos/Eastern-Conference/NY-Knicks/transparent" transform="translate(0.000000, 37.000000)">
                        <g id="Group">
                            <rect id="Rectangle" x="0" y="0" width="80" height="80" rx="20"></rect>
                        </g>
                        <g id="Group-23" transform="translate(0.000000, 8.000000)">
                            <path d="M39.8664583,64.836501 L34.5648796,57.9527198 C27.8187842,55.728435 23.1237671,49.6349093 22.6895664,42.5449378 L19.400162,38.2753257 C16.2729697,39.6230901 13.1407029,41.7578962 13.1407029,41.7578962 L3.27587264,31.8609279 L7.43367846,22.749479 L0,13.0974358 L11.827952,13.0974358 L14.1171894,8.11182386 L19.9745856,5.74900748 L20.6232649,3.98412623 L25.3707177,6.15107023 L26.4992674,2.20740468 L27.2731155,1.95080847 C31.0288586,0.699288792 35.3537818,0.0270980621 39.7835762,0.00172599121 C39.9102674,-0.00673136573 41.3177408,0.0186407051 41.3515702,0.0186407051 C41.5169961,0.0186407051 42.2081313,0.0558530757 42.2081313,0.0558530757 C45.9535564,0.23650222 49.4745233,0.85964028 52.6708968,1.91021316 L53.4565852,2.16866999 L54.4939646,5.9281343 L56.2037039,4.63771078 L65.7965456,8.04754795 L68.1126774,13.0991273 L80,13.0991273 L72.4851309,22.7899051 L76.5803523,31.7697576 L66.5617672,42.0821512 C66.5617672,42.0821512 62.8889063,39.4035371 60.3699671,38.4053999 L57.3508598,42.2983213 C57.0061379,49.5571016 52.0661957,55.9243073 45.1206759,58.0608049 L39.8664583,64.836501 Z" id="Path" fill="#FEFEFE"></path>
                            <polygon id="Path" fill="#B3B1B1" points="39.8754231 60.0665516 74.0517717 16.0169154 5.92539343 16.0152239"></polygon>
                            <path d="M74.0517717,16.0159005 L39.8754231,60.0655367 L5.92539343,16.0142091 L74.0517717,16.0159005 Z M3.11755092,14.6327844 L39.8720402,62.3236511 L76.8714545,14.6344758 L3.11755092,14.6327844 Z" id="Shape" fill="#006BB6"></path>
                            <path d="M69.1175805,19.0803392 L69.1057402,19.0515842 L69.0786767,19.0346695 L66.8926191,17.5652883 L67.7068934,16.0098112 L67.730574,15.9626192 L67.7085849,15.9135665 L64.6996264,9.31851955 L64.6793287,9.27792424 L64.6372111,9.26287014 L56.5242377,6.37485189 L56.4668968,6.35455424 L56.4195356,6.38990599 L54.2688298,8.03164812 L54.2451492,8.05008516 L54.2333089,8.0771487 L53.8650756,8.97904125 C53.8650756,8.97904125 50.5012464,8.13465873 45.5613042,7.64142567 C45.0577532,7.59085068 43.7130334,7.48107418 41.567402,7.31209619 L41.3595201,7.29518148 L41.1433501,7.27995823 L41.0926059,7.27488382 L41.057085,7.31040472 L39.4539085,8.90816859 L39.4555999,7.26828708 C39.4555999,7.26828708 34.9074025,7.52488329 31.9288905,7.93032898 C28.9503786,8.33391406 26.0224416,9.07190302 26.0224416,9.07190302 L25.4835388,7.91848868 L25.4666241,7.88296778 L25.4295809,7.8643616 L21.6011045,6.11301212 L21.4930195,6.06565092 L21.4524242,6.17542742 L21.0080747,7.38804326 L20.9067555,7.14497882 L20.8644687,7.04535115 L20.7648411,7.08577732 L15.2858269,9.28130718 L15.2454008,9.2982219 L15.2267946,9.33881721 L5.12025304,31.5341356 L13.4172585,39.8417974 L13.8042672,39.6205529 C14.0542666,39.4786385 14.4091373,39.2709258 14.8078171,39.0344581 C15.8113671,38.443458 17.1865334,37.6344272 17.8438391,37.316938 L17.9772962,37.2528313 C18.8270915,36.8423112 19.2545263,36.6345985 23.2873324,34.9103125 L23.6234277,34.7836213 C23.6285021,34.7836213 24.0779261,34.6078774 24.9074237,34.3326751 C27.1224054,33.598069 32.876622,31.8854542 38.4537414,31.8854542 L38.5161567,31.8854542 C38.7392618,31.8854542 38.9605063,31.8888372 39.1834422,31.8956031 C42.9713232,32.0003052 47.3977347,32.8042615 50.4439055,33.4595375 C53.3767478,34.0911329 55.5815807,34.6992169 56.2082709,34.8747916 L56.6306313,35.0048658 C59.4048135,36.0772586 62.7955371,37.8455228 65.9379526,39.8570206 L66.3368016,40.113786 L74.7351262,31.4666459 L69.1175805,19.0803392 L69.1175805,19.0803392 Z" id="Path" fill="#006BB6"></path>
                            <path d="M68.2150114,19.8496204 L60.1426333,14.4638064 L58.7387121,10.5235238 L61.2390451,11.4118845 L62.2493609,13.8743286 L66.0490823,15.0920188 L63.832409,10.1941943 L56.6605703,7.64734582 L55.3446056,8.66578074 L57.7283962,16.4110282 L65.4036168,21.8340547 L67.371982,26.7352622 L64.1805138,25.2963274 L63.0841021,22.2460971 L59.1678384,21.0926828 L61.2610342,27.9866127 C61.9064997,28.2247719 62.5484131,28.4696969 63.1837297,28.7264623 C64.925607,29.4323133 66.6336548,30.212589 68.3011073,31.0671204 C69.4567205,31.6565982 70.5937276,32.2848106 71.710437,32.9451611 L73.3797501,31.2327154 L68.2150114,19.8496204 L68.2150114,19.8496204 Z M13.7756813,23.501338 L16.4652899,21.0997869 L17.1073725,21.8479247 L14.4514241,29.4833957 C15.9059204,28.8419898 17.3840972,28.2560641 18.88291,27.7269718 L20.807297,21.4308079 L19.1466104,18.6879179 L22.5863866,15.4199952 L24.5968695,8.72345992 L22.1268138,7.61385469 L19.9067576,13.9269334 L16.3487476,16.989004 L19.5924823,8.80634202 L16.105514,10.1962241 L6.49744905,31.2668832 L8.00099797,32.7733076 C8.89307998,32.2548716 9.79700229,31.7548727 10.7127649,31.2787235 L13.7756813,23.501338 Z M38.1225513,8.4761668 L35.1761773,8.63144387 L33.7906931,24.4360451 C35.0427202,24.3179804 36.304727,24.2367898 37.5751912,24.1929807 L38.1225513,8.4761668 L38.1225513,8.4761668 Z M46.8647521,21.1557746 L43.443582,20.9514449 L42.8945304,11.2723382 L45.7935432,11.4125611 L45.4540649,8.74578734 L41.5564074,8.46889347 L39.8111472,10.2084027 L39.8077643,22.3144325 L41.6374289,24.1873988 C43.526295,24.2447397 45.3965549,24.3866541 47.2431342,24.6095901 L46.8647521,21.1557746 L46.8647521,21.1557746 Z M27.4789676,14.7144824 L28.71408,20.7236037 L27.9148598,25.2768755 C29.1110684,25.0471737 30.3157343,24.8496099 31.5320714,24.6890892 L31.5405287,24.6873977 L33.4446181,8.83881827 L30.7093397,9.23749807 L29.8104918,14.4257483 L28.79341,9.54145548 L25.5767389,10.3471033 L21.1012747,26.9876297 C22.3949121,26.5831989 23.7015737,26.2215623 25.0192299,25.9033965 L27.4789676,14.7144824 L27.4789676,14.7144824 Z M51.2566575,20.2812839 L52.2197813,18.9808807 L53.6253941,20.1393695 L54.9195388,26.0319484 C56.2777903,26.3731181 57.6209878,26.758097 58.945579,27.1872233 L56.5311728,18.5434662 L54.0409886,16.5082878 L55.4584416,14.6184069 L54.2808392,10.2307301 L51.2752637,9.56192229 L52.4579405,13.9800456 L50.5859891,16.4812243 L49.204057,9.21567809 L46.4214174,8.86266801 C46.4214174,8.86266801 47.8168813,19.5196144 48.4758786,24.7685884 C49.7361939,24.9477152 50.9846689,25.1655767 52.2213037,25.4172677 L51.2566575,20.2812839 Z" id="Shape" fill="#F26729"></path>
                            <path d="M34.2230332,27.4377302 C34.2230332,27.4377302 35.3820294,26.7587736 37.7017132,26.5021774 L37.6272885,24.6764032 C36.355302,24.71869 35.0914346,24.79802 33.8378852,24.9162538 C33.9476616,25.6307313 34.1115652,26.6946668 34.2230332,27.4377302 Z M41.5939581,26.3915552 C42.5366151,26.5013317 43.5452395,26.8103635 44.4322471,27.060363 C45.2329896,27.2528524 46.0963166,27.5974051 46.8025059,27.9115114 L47.1928975,25.0994402 C45.327712,24.8699075 43.5655371,24.731376 41.6580648,24.6721745 C41.6311704,25.217674 41.629479,25.987801 41.5939581,26.3915552 Z M29.3901611,30.8472291 C30.4698273,30.0449642 31.1185066,29.2190187 32.2555137,28.5266995 C32.0393436,27.5065731 31.7521318,26.1841808 31.5425585,25.1742032 C30.3059237,25.3379376 29.0809602,25.5422674 27.868006,25.7770436 C28.3326532,27.2904031 28.9255139,29.3186464 29.3901611,30.8472291 L29.3901611,30.8472291 Z M47.744148,28.4774777 C48.7965815,29.087084 49.6177909,29.7761894 50.5587564,30.6899223 L50.7446491,30.8318367 L52.2280695,25.9255548 C50.9508395,25.6603321 49.7089612,25.4306303 48.4046676,25.2465982 L47.744148,28.4774777 L47.744148,28.4774777 Z M52.4246185,32.7403239 L55.9606395,33.5730353 L58.9359376,27.6922967 C57.5639852,27.2447333 56.2410854,26.8765 54.8337812,26.5236591 L52.4246185,32.7403239 Z M23.977791,33.5723587 C24.9003195,33.2328804 26.1893898,32.7667108 27.3921951,32.4458387 L25.0961919,26.3776851 C23.7091853,26.7137805 22.499445,27.0667906 21.1479593,27.4940562 C22.002829,29.527374 22.9607092,31.6217539 23.977791,33.5723587 L23.977791,33.5723587 Z M18.6442434,35.7565557 C18.8487423,35.5809809 20.8558422,34.7146093 22.229317,34.1335889 C21.1851717,32.2453994 19.9299308,30.1613375 18.8824026,28.2393185 C17.3856195,28.7729777 16.0221244,29.3269346 14.5743941,29.9703703 L18.6442434,35.7565557 Z M13.6368115,38.4116583 C14.2755111,38.0283709 14.9529454,37.6347655 15.6980385,37.2041169 L11.0064043,31.671314 C10.1143223,32.1341005 9.23408061,32.6188762 8.3656792,33.122089 L13.6368115,38.4116583 Z M57.8329291,34.3000297 C60.6493982,35.3927202 64.5874818,37.6002595 66.1536152,38.6506632 C66.8767192,37.9598663 70.7946744,33.8473919 71.3335772,33.2834554 C68.0763107,31.3732767 64.6534492,29.7486184 61.0920562,28.4395887 L57.8329291,34.3000297 Z M41.0523489,26.2995391 L39.70746,26.2521779 L39.6837794,22.9859467 L41.0826263,24.4367217 L41.0523489,26.2995391 Z" id="Shape" fill="#B3B1B1"></path>
                            <path d="M40.0142929,25.6527205 C31.2729379,25.6527205 24.1890558,32.7359261 24.1873643,41.4742364 C24.1890558,50.2110244 31.2729379,57.29423 40.0142929,57.29423 C48.7539565,57.29423 55.8412216,50.2110244 55.8412216,41.4744056 C55.8412216,32.7360952 48.7539565,25.6527205 40.0142929,25.6527205" id="Path" fill="#006BB6"></path>
                            <path d="M40.9873964,26.8370887 C39.7725817,27.2609715 38.6036058,27.8773436 37.4446096,28.4143858 C36.6538467,27.9416196 36.2010398,27.8216942 35.6672115,27.4771415 C37.331281,26.8724405 39.1222109,26.7812702 40.9873964,26.8370887 Z M52.3249909,33.5537525 C48.5963113,29.7976711 43.0024463,30.0694906 38.256685,28.7403323 C38.256685,28.7403323 41.0493043,27.4111741 42.4904379,27.04311 C46.3677978,27.7034604 50.1218494,30.02399 52.3249909,33.5537525 Z M31.3625859,34.1183656 C27.7808953,39.6122647 27.2961196,46.3813641 30.1479403,52.3126776 C26.4613784,49.2169467 24.265172,43.2232178 25.9190927,37.4032031 C27.2741304,35.5099391 29.0176991,33.8362282 31.3625859,34.1183656" id="Shape" fill="#F26729"></path>
                            <path d="M35.197659,38.0305698 C37.1286427,43.7693939 37.5560776,50.1212073 42.5552213,55.9006267 C38.6575637,56.6910513 34.7954271,55.5241052 31.7172875,53.5733313 C27.902512,48.0100819 28.262288,39.7108775 32.075372,34.3166061 C33.9337916,34.8519568 34.9457989,37.2805714 35.197659,38.0305698 Z" id="Path" fill="#F26729"></path>
                            <path d="M32.51803,33.710721 C33.0975281,32.8932329 33.7512818,32.1214145 34.4862261,31.4018626 C42.5941251,33.6904234 50.3251642,42.0943298 51.6495863,50.3529389 C51.2627468,50.9762461 50.3370045,51.8460007 49.7152196,52.4674473 C47.6996623,54.2779982 45.4797753,55.2152425 43.3491979,55.7236988 C39.5631775,51.796948 38.316394,46.6998681 36.9782709,41.6755215 C35.9527318,37.8196433 35.2397766,34.9114966 32.521413,33.7308495 L32.51803,33.710721 Z" id="Path" fill="#F26729"></path>
                            <path d="M51.4614947,33.6743544 C47.545231,30.220539 42.0898975,30.6630279 37.5131142,29.0535928 C36.6296587,29.5957094 35.7646402,30.2357622 35.026313,30.8978041 C43.1340428,33.4395782 50.4917742,41.3637833 52.2438002,49.5532112 C53.5142644,47.7174573 54.282869,45.5860342 54.59207,43.3247061 C54.789803,39.8522845 54.7559735,36.6924468 51.4614947,33.6743544 L51.4614947,33.6743544 Z M33.8180949,31.1486493 C33.0359586,31.90017 32.4496946,32.6398505 31.83975,33.5028392 L31.8211438,33.4977648 C29.6755124,33.0182326 27.9826878,34.1278379 26.6227448,35.510954 C27.2714241,33.872764 28.6315362,31.9289251 30.0709784,30.6587992 C31.3987834,30.7163092 32.365121,30.6960116 33.8180949,31.1486493 Z M34.3930261,30.6461132 C35.1601083,29.9637736 35.90351,29.3676991 36.8258694,28.8137422 L34.7462053,27.783467 C33.3624125,28.3492642 31.8808528,29.0855617 30.863771,30.0162092 C32.4366703,30.2002413 33.1090301,30.296486 34.3930261,30.6461132 Z" id="Shape" fill="#F26729"></path>
                            <path d="M37.7725859,6.25847866 L37.1321948,6.89514849 L36.0357831,6.96094673 L35.6269544,6.60641433 L35.1115631,7.04382883 L33.9172152,7.15529679 L33.391675,6.65529785 L34.0811187,1.98040922 L34.9848719,1.85710096 L34.4967133,5.98479859 L35.1453925,5.91392594 L35.6489436,1.77777095 L36.5425479,1.68998359 L36.1692402,5.79738356 L36.8045568,5.73818206 L37.1305034,1.65107974 C37.5107461,1.61065358 37.7066185,1.61403652 38.0395001,1.59543033 L37.7725859,6.25847866 L37.7725859,6.25847866 Z M40.7050898,1.53183101 L40.7135472,4.47397635 L41.2896624,4.4705934 L41.2541415,1.54536278 C41.2541415,1.54536278 41.8607031,1.56396897 42.1326917,1.58764957 L42.2492341,4.88601878 L41.6934166,5.44166713 L41.511076,5.45012448 L41.5379704,6.86199565 L40.5564095,6.83324064 L40.5445692,5.419678 L40.3486968,5.40445476 L39.7539755,4.79823141 L39.7911879,1.51677692 C40.108677,1.51677692 40.7050898,1.53183101 40.7050898,1.53183101 Z M33.4231364,2.07699224 L33.2693816,3.0431607 L32.1763528,3.24918191 L31.9786198,4.3790848 C32.3789911,4.30635153 32.6240853,4.26761684 33.1004036,4.20334092 C33.0346054,4.62384071 33.0143077,4.7691381 32.9415745,5.16612644 L31.8434712,5.32309498 L31.63745,6.4039452 L32.7626168,6.24190224 C32.7626168,6.24190224 32.6511488,6.96974238 32.5936388,7.29399745 C31.8062589,7.39193364 31.0139737,7.50509308 30.2587317,7.6368587 C30.2587317,7.6368587 31.105144,3.71535143 31.3147173,2.50611853 L33.4231364,2.07699224 Z M29.3022046,7.80989622 L28.1618146,8.03452362 L28.6854942,5.89633464 L28.3307926,5.12959066 L27.4353276,8.20671541 L26.3220012,8.46009782 C26.7849569,6.79484424 27.2595838,5.12789919 27.7225395,3.4626456 C28.1059961,3.33426292 28.3915164,3.24647556 28.7294724,3.14684789 C28.8527807,3.4271247 29.1535243,3.99292188 29.1535243,3.99292188 L29.4238214,2.94928404 C29.4238214,2.94928404 30.1300107,2.76339133 30.4848814,2.68236985 L29.3022046,7.80989622 Z M43.8302524,2.66427111 L44.1157728,5.85624677 L44.6817391,5.90191649 L44.3811646,2.72516408 L43.8302524,2.66427111 Z M45.332279,2.43795223 C45.4454384,3.77725928 45.666852,5.0590563 45.8020006,6.30888451 L45.303524,7.06886261 L43.6917209,6.96246905 L43.1105313,6.32918217 C43.0075207,4.96281158 42.9366481,3.58476984 42.8520745,2.21332483 C43.0007548,2.01745245 43.2272428,1.86538917 43.404509,1.6745912 L44.7477065,1.80466535 L45.332279,2.43795223 Z M50.539812,2.91663864 C50.7407588,3.68338262 51.1326727,5.26423178 51.1326727,5.26423178 L51.5146069,5.34187032 L51.7003305,5.08679643 L51.2223207,3.12265985 C51.2223207,3.12265985 51.6952561,3.25442547 52.20219,3.40801108 L52.7089549,5.30973236 L52.4707957,5.65259361 L52.9134538,6.13906078 L53.5824307,8.45620744 L52.4809445,8.20959091 L52.0484353,6.58493264 L51.3625436,6.43117789 L51.7375428,8.04907028 L50.6208334,7.82951729 C50.230611,6.08662517 49.5244217,2.65479887 49.5244217,2.65479887 C49.5244217,2.65479887 50.0920795,2.77303272 50.539812,2.91663864 Z M47.246348,3.17052849 L47.437146,4.50137818 L48.0437076,4.56886789 L47.7869423,3.26846469 L47.246348,3.17052849 L47.246348,3.17052849 Z M48.7955667,3.10286964 L49.1638,5.01473975 L48.9510129,5.30854833 L49.3260121,5.75611166 L49.6504363,7.65445 L48.577536,7.46703497 L48.2852497,5.88618581 L47.6399534,5.81531316 L47.8679637,7.35725848 L46.7969241,7.22210991 L46.0856603,1.97804116 L48.1331865,2.3395086 L48.7955667,3.10286964 Z" id="Shape" fill="#006BB6"></path>
                        </g>
                    </g>
                </g>
            </g>
        </g>
    </g>
</svg>