<?xml version="1.0" encoding="UTF-8"?>
<svg width="80px" height="80px" viewBox="0 0 80 80" version="1.1" xmlns="http://www.w3.org/2000/svg" xmlns:xlink="http://www.w3.org/1999/xlink">
    <title>DC8FF55C-8131-41B7-989B-1C6C20D67E69</title>
    <g id="Specifications" stroke="none" stroke-width="1" fill="none" fill-rule="evenodd">
        <g id="Teams" transform="translate(-624.000000, -1997.000000)">
            <g id="Group-6-Copy-17" transform="translate(624.000000, 1912.000000)">
                <g id="Group-3" transform="translate(0.000000, 48.000000)">
                    <g id="Group" transform="translate(0.000000, 37.000000)">
                        <rect id="Rectangle" fill-rule="nonzero" x="0" y="0" width="80" height="80" rx="20"></rect>
                        <g id="Group-2" transform="translate(6.000000, 2.000000)">
                            <path d="M60.3581243,20.4206738 C59.2330429,18.7557202 57.9410298,17.1907359 56.5183168,15.7674538 C55.9010491,15.1501861 55.2568446,14.5577684 54.5898768,13.9922874 L68.5821642,0 L27.8180225,0 L12.0843344,15.7344469 L12.0866108,15.7344469 C12.0756085,15.7456389 12.0644165,15.7566412 12.0530347,15.7672641 C10.6303218,17.1907359 9.33887775,18.7557202 8.21379632,20.4206738 C7.07866105,22.1017514 6.10305933,23.8987328 5.31525573,25.7613486 C3.6749625,29.6377673 2.84409811,33.7554781 2.84409811,38.0002845 C2.84409811,42.245091 3.6749625,46.3622327 5.31525573,50.2386514 C6.10305933,52.1012672 7.07866105,53.8982486 8.21379632,55.5793262 C9.33887775,57.2442798 10.6303218,58.810592 12.0530347,60.2325462 C12.6729582,60.8524697 13.3184905,61.4462152 13.9879244,62.0120756 L0,76 L40.7523805,76 L56.5496165,60.2020053 L56.5480989,60.2020053 C57.9592405,58.7872595 59.2410101,57.2332775 60.3581243,55.5793262 C61.4934493,53.8982486 62.4688613,52.1012672 63.2568546,50.2386514 C64.8961994,46.3622327 65.7264947,42.245091 65.7264947,38.0002845 C65.7264947,33.7554781 64.8961994,29.6377673 63.2568546,25.7613486 C62.4688613,23.8987328 61.4934493,22.1017514 60.3581243,20.4206738 Z" id="Path" fill="#061922" fill-rule="nonzero"></path>
                            <path d="M60.3581243,20.4206738 C59.2330429,18.7557202 57.9410298,17.1907359 56.5183168,15.7674538 C55.9010491,15.1501861 55.2568446,14.5577684 54.5898768,13.9922874 L68.5821642,0 L27.8180225,0 L12.0843344,15.7344469 L12.0866108,15.7344469 C12.0756085,15.7456389 12.0644165,15.7566412 12.0530347,15.7672641 C10.6303218,17.1907359 9.33887775,18.7557202 8.21379632,20.4206738 C7.07866105,22.1017514 6.10305933,23.8987328 5.31525573,25.7613486 C3.6749625,29.6377673 2.84409811,33.7554781 2.84409811,38.0002845 C2.84409811,42.245091 3.6749625,46.3622327 5.31525573,50.2386514 C6.10305933,52.1012672 7.07866105,53.8982486 8.21379632,55.5793262 C9.33887775,57.2442798 10.6303218,58.810592 12.0530347,60.2325462 C12.6729582,60.8524697 13.3184905,61.4462152 13.9879244,62.0120756 L0,76 L40.7523805,76 L56.5496165,60.2020053 L56.5480989,60.2020053 C57.9592405,58.7872595 59.2410101,57.2332775 60.3581243,55.5793262 C61.4934493,53.8982486 62.4688613,52.1012672 63.2568546,50.2386514 C64.8961994,46.3622327 65.7264947,42.245091 65.7264947,38.0002845 C65.7264947,33.7554781 64.8961994,29.6377673 63.2568546,25.7613486 C62.4688613,23.8987328 61.4934493,22.1017514 60.3581243,20.4206738" id="Path" stroke="#FFFFFF" stroke-width="0.5"></path>
                            <path d="M54.6758086,17.5758169 C54.0592997,16.9593079 53.4224933,16.376375 52.7665278,15.8275872 L35.6575505,32.9359954 C36.500176,33.1731142 37.2953777,33.6225018 37.9585516,34.2835891 L37.9629146,34.2887109 C40.029263,36.3548695 40.029263,39.704505 37.9629146,41.7706637 L6.27302611,73.4607419 L9.98592762,73.4607419 L39.8198396,43.6268299 C42.9023844,40.5448541 42.9111104,35.5537873 39.8475351,32.4594814 L41.7037013,30.6035049 C45.7923887,34.7219744 45.7834731,41.3759082 41.6760058,45.4828064 L13.6973116,73.4607419 L17.4109719,73.4607419 L43.5327411,47.3389726 C48.6655102,42.2069623 48.6742362,33.8909203 43.5604366,28.7473387 L45.4173616,26.8906034 C51.5568424,33.060056 51.5465988,43.0380164 45.3889073,49.1957079 L21.1238734,73.4607419 L24.8375337,73.4607419 L47.2448838,51.0526329 C54.4284463,43.8696396 54.437931,32.2282431 47.2733381,25.0336784 L49.1302631,23.1775121 C57.3207269,31.397189 57.3112422,44.7006936 49.1018088,52.9093682 L28.5504352,73.4607419 L32.2633367,73.4607419 L50.9585441,54.7655344 C60.1930896,45.5325065 60.2018156,30.5661349 50.9862396,21.3207769 L52.854736,19.4515217 C63.1026325,29.72939 63.0931478,46.3677339 52.8277993,56.6347896 L36.0003295,73.4607419 L39.7139898,73.4607419 L54.6845346,58.4915249 L54.6758086,58.4827989 C65.9721498,47.1864578 65.9721498,28.8713992 54.6758086,17.5758169 Z" id="Path" fill="#FFFFFF" fill-rule="nonzero"></path>
                            <path d="M13.9122361,58.4505507 C14.528745,59.0670597 15.1655514,59.6499926 15.8215169,60.1987805 L32.9304942,43.0896134 C32.0886275,42.8524946 31.2932361,42.4038658 30.6300622,41.7427785 L30.6249404,41.7376567 C28.5587818,39.6714981 28.5587818,36.3212935 30.6249404,34.255704 L62.3588382,2.52199589 L58.6459367,2.52199589 L28.7682051,32.3989687 C25.6864191,35.4815135 25.6769343,40.4725803 28.7412684,43.5668862 L26.8851022,45.4228627 C22.7964148,41.3036344 22.804382,34.6497006 26.9120389,30.5435612 L54.9337939,2.52199589 L51.2201336,2.52199589 L25.0553036,28.6868259 C19.9232933,33.8186465 19.9145673,42.1354473 25.0283669,47.2782702 L23.1722007,49.1351952 C17.0319611,42.9657426 17.0414459,32.9877821 23.1991374,26.8299009 L47.5072321,2.52199589 L43.7941409,2.52199589 L21.3431609,24.9731656 C14.1594088,32.1567281 14.149924,43.7973657 21.3152757,50.9919305 L19.4585404,52.8488555 C11.2680766,44.6291786 11.2768025,31.3249152 19.4862359,23.1162406 L40.0806703,2.52199589 L36.3675791,2.52199589 L17.6295006,21.2602641 C8.39495511,30.4946199 8.38622914,45.4594739 17.6018051,54.7055908 L15.7333087,56.5740872 C5.4852225,46.2969776 5.49470726,29.657875 15.7610042,19.3917677 L32.6305863,2.52199589 L28.916926,2.52199589 L13.9040792,17.5348427 L13.9122361,17.5428099 C2.61589495,28.8391511 2.61589495,47.1542096 13.9122361,58.4505507" id="Path" fill="#E03A3E" fill-rule="nonzero"></path>
                        </g>
                    </g>
                </g>
            </g>
        </g>
    </g>
</svg>