<?xml version="1.0" encoding="UTF-8"?>
<svg width="80px" height="80px" viewBox="0 0 80 80" version="1.1" xmlns="http://www.w3.org/2000/svg" xmlns:xlink="http://www.w3.org/1999/xlink">
    <title>2178419F-2AB7-4FC4-88F4-60D3E20242E1</title>
    <g id="Specifications" stroke="none" stroke-width="1" fill="none" fill-rule="evenodd">
        <g id="Teams" transform="translate(-624.000000, -2397.000000)" fill-rule="nonzero">
            <g id="Group-6-Copy-21" transform="translate(624.000000, 2312.000000)">
                <g id="Group-3" transform="translate(0.000000, 48.000000)">
                    <g id="Assets-exportable/Logos/Club-logos/West-Conference/San-Antonio-Spurs/transparent" transform="translate(-0.000000, 37.000000)">
                        <g id="Group-2" transform="translate(7.400000, 0.000000)">
                            <polygon id="Path" fill="#FEFEFE" points="55.5016487 0 50.4927055 8.88226782 49.5683074 15.7295694 41.61689 29.8997509 33.1879967 29.8997509 40.5826118 16.815277 40.5826118 0 30.3290238 0 25.5225715 8.82495552 24.6598506 15.7339343 12.5753054 37.2865852 15.0490333 43.4840944 21.6073064 43.4840944 19.4617009 48.9196537 12.1748784 41.0373147 13.0706203 53.106488 0 53.6547503 10.4955521 61.0438619 3.10093702 72.0757206 15.2031313 68.1179457 20.143945 80 23.8720911 67.190701 37.4399241 70.690357 28.6477998 60.5153363 39.2862531 51.7277666 29.3828016 52.3422607 37.2197841 43.4840944 50.4333057 43.4840944 65.2225359 17.2557466 65.3633495 17.0023959 65.3633495 0"></polygon>
                            <path d="M56.1453683,1.10013047 L51.4489859,9.42521646 L50.6323805,16.0785672 L42.2606097,30.9998814 L31.2985885,30.9998814 L39.4809631,16.5234017 L39.4809631,1.10013047 L30.9816629,1.10013047 L26.4875815,9.35253232 L25.7282885,16.0785672 L13.7911991,37.3647729 L15.7961808,42.3818764 L23.2260942,42.3818764 L19.8433401,50.9513937 L13.5072945,44.0974499 L14.2534931,54.1580358 L3.28255248,54.618432 L12.0086348,60.7631835 L5.79366623,70.0352509 L15.8269244,66.7536473 L19.9623295,76.6908789 L23.1137469,65.8594236 L34.3048274,68.7423081 L27.0774048,60.3842012 L35.9708694,53.0393073 L26.7957775,53.6074961 L36.7256079,42.3818764 L49.7916736,42.3818764 L64.264168,16.7150753 L64.264168,1.10013047 L56.1453683,1.10013047 Z M56.2189064,1.88694105 L56.2189064,1.1006998 L56.2189064,1.88694105 L56.2189064,1.88694105 Z" id="Shape" fill="#FEFEFE"></path>
                            <polygon id="Path" fill="#2D2925" points="56.1453683 1.10013047 51.4489859 9.42521646 50.6323805 16.0785672 42.2606097 30.9998814 31.2985885 30.9998814 39.4809631 16.5234017 39.4809631 1.10013047 30.9816629 1.10013047 26.4875815 9.35253232 25.7282885 16.0785672 13.7911991 37.3647729 15.7961808 42.3818764 23.2260942 42.3818764 19.8433401 50.9513937 13.5072945 44.0974499 14.2534931 54.1580358 3.28255248 54.618432 12.0086348 60.7631835 5.79366623 70.0352509 15.8269244 66.7536473 19.9623295 76.6908789 23.1137469 65.8594236 34.3048274 68.7423081 27.0774048 60.3842012 35.9708694 53.0393073 26.7957775 53.6074961 36.7256079 42.3818764 49.7916736 42.3818764 64.264168 16.7150753 64.264168 1.10013047"></polygon>
                            <path d="M54.3870952,8.52529949 L58.3505634,8.52529949 L61.1104733,3.34081366 L57.2899063,3.34081366 L54.3870952,8.52529949 Z M29.4615585,8.5338394 L33.7311351,8.5228324 L36.451192,3.33834658 L32.3357134,3.34062389 L29.4615585,8.5338394 Z M28.4460681,15.0634563 L32.2930139,15.0744633 L32.65188,10.6190962 L28.930376,10.6190962 L28.4460681,15.0634563 Z M53.2886728,15.0634563 L57.1377061,15.0744633 L57.500937,10.6190962 L53.7705136,10.6190962 L53.2886728,15.0634563 Z M18.3909856,61.4881271 C17.4159174,61.4881271 16.6258807,60.6996086 16.6258807,59.7262484 C16.6258807,58.7506108 17.4159174,57.9620923 18.3909856,57.9620923 C19.3658641,57.9620923 20.1538133,58.7506108 20.1538133,59.7262484 C20.1538133,60.6996086 19.3658641,61.4881271 18.3909856,61.4881271 L18.3909856,61.4881271 Z M52.4635275,17.728668 L43.785838,33.0177678 L22.9575614,33.0177678 L31.6396157,17.728668 L27.5550706,17.728668 L17.08362,36.2331396 L28.6994188,36.2331396 L19.8896454,55.9491401 L16.2429131,51.8966671 L16.4454039,56.6737042 L10.5737398,56.9974617 L15.3033329,60.3297355 L11.9338631,65.3512039 L17.3698019,63.5737635 L19.608018,68.9630174 L21.318088,63.0915431 L27.3812359,64.6530186 L23.4659708,60.1226901 L28.2857075,56.1406239 L20.8491519,56.4689361 L34.5447041,36.2331396 L46.1846044,36.2331396 L56.4799431,17.728668 L52.4635275,17.728668 L52.4635275,17.728668 Z" id="Shape" fill="#C4CDD3"></path>
                        </g>
                    </g>
                </g>
            </g>
        </g>
    </g>
</svg>