<?xml version="1.0" encoding="UTF-8"?>
<svg width="328px" height="328px" viewBox="0 0 328 328" version="1.1" xmlns="http://www.w3.org/2000/svg" xmlns:xlink="http://www.w3.org/1999/xlink">
    <title>B05853F3-E7A3-4260-B474-8E00B1F4DB8E</title>
    <defs>
        <rect id="path-1" x="0" y="0" width="328" height="328"></rect>
    </defs>
    <g id="Specifications" stroke="none" stroke-width="1" fill="none" fill-rule="evenodd">
        <g id="Assets-Exportable" transform="translate(-748.000000, -1101.000000)">
            <g id="Group-4" transform="translate(44.000000, 957.000000)">
                <g id="Group-2" transform="translate(704.000000, 144.000000)">
                    <mask id="mask-2" fill="white">
                        <use xlink:href="#path-1"></use>
                    </mask>
                    <g id="Mask"></g>
                    <g id="Group" mask="url(#mask-2)">
                        <g transform="translate(58.311111, 36.444444)">
                            <circle id="Oval" fill="#FF8784" cx="27.1826067" cy="98.7479215" r="21.8666667"></circle>
                            <path d="M119.195899,0.985329801 C117.992497,1.47270652 116.66766,2.12582414 116.252487,2.43651996 C114.222019,3.95499108 111.112318,7.50283103 110.475609,9.02677214 C110.047307,10.0513026 109.602595,14.5881179 109.363556,20.3688106 L108.964792,30.003663 L110.741998,34.5536064 C111.719489,37.0561299 113.221554,40.6105339 114.079798,42.4528288 C114.938043,44.2945767 115.640392,46.1740676 115.640392,46.6291714 C115.640392,47.5415668 113.922809,48.8302981 111.81959,49.4954497 C109.806626,50.1321573 104.980436,53.8517552 103.288015,56.0709329 C101.814395,58.0023888 99.2374727,64.506215 99.2325497,66.304203 C99.2314557,66.8238527 98.5537214,67.6777192 97.7261089,68.2022919 C96.2218561,69.1562593 89.9844034,74.851073 88.3412123,76.7710419 C87.8620394,77.3306226 87.1946982,78.0805591 86.8582926,78.4372029 C86.5218869,78.7938467 86.0607651,79.6892852 85.8343066,80.4277348 C85.6073012,81.1656374 85.2052555,82.0408369 84.941054,82.3728657 C84.3032508,83.1742202 55.060576,83.3853621 54.1093413,82.5954945 C53.7439446,82.2924567 51.2545429,81.777183 48.5775199,81.4517182 C45.8999499,81.1257064 42.6633448,80.7313196 41.3850034,80.5754247 C39.8862206,80.3927268 39.0602491,80.5059557 39.0602491,80.8937785 C39.0602491,81.2252603 39.2445884,81.4998542 39.4704999,81.5047772 C39.6964113,81.5097002 40.7127392,82.2470557 41.7296141,83.1430412 C43.1184497,84.3672265 43.7633639,85.5569508 44.3196639,87.9205364 C45.2780097,91.9951371 45.2413607,98.1384905 44.2408958,100.914514 C43.807671,102.117913 43.4488383,103.427977 43.4444623,103.825099 C43.4400863,104.222768 43.0692196,104.91527 42.6212258,105.363262 C41.8986374,106.085849 41.6492049,106.009816 40.4332217,104.697564 C39.6778133,103.882534 39.0602491,102.774313 39.0602491,102.234424 C39.0602491,101.694535 38.8425427,101.117998 38.5761532,100.953351 C38.3103107,100.789251 37.926863,99.5497497 37.7244726,98.1992075 C37.5215352,96.8486653 37.1238655,95.600412 36.8405189,95.4248251 C36.5571724,95.2497852 36.325244,94.6371456 36.325244,94.0633429 C36.325244,92.6460667 33.115442,85.20523 32.3594866,84.8693722 C32.1335751,84.7687243 31.9492358,84.4547465 31.9492358,84.1708536 C31.9492358,83.466865 28.7438098,79.990135 26.8473572,78.6363108 C25.7035781,77.8196403 25.1412611,77.6921894 24.6867032,78.1467461 C24.2321453,78.6013028 24.3087255,78.7610268 24.9793487,78.7610268 C26.0432657,78.7610268 31.9492358,84.6363504 31.9492358,85.6953417 C31.9492358,86.0930105 32.1756942,86.4190223 32.4530237,86.4190223 C32.7298063,86.4190223 33.127476,87.2187359 33.3364304,88.1967713 C33.5453848,89.1748067 33.8910894,90.2206701 34.1044198,90.5215199 C34.3177502,90.8223698 34.9478954,92.6684937 35.5047424,94.6240176 C36.0615895,96.5795414 36.6982987,98.4256654 36.9192871,98.7265152 C37.1402755,99.027365 37.4963732,100.211072 37.7107976,101.35649 C37.941085,102.58888 38.8551237,104.240272 39.9474848,105.398817 C41.7498531,107.310034 42.233402,108.29901 41.3664054,108.29901 C41.130101,108.29901 40.5010498,109.037459 39.9677238,109.940009 C38.9295159,111.698066 37.938897,111.993993 36.7661268,110.897258 C36.3640811,110.521469 35.0972267,109.73379 33.9507125,109.147953 C32.8047454,108.562116 31.3316716,107.624012 30.6774584,107.063337 C28.1891508,104.932227 27.2236939,104.139624 24.8540855,102.282013 C22.1218154,100.139962 15.5392051,93.6317601 15.5386581,93.0716325 C15.5386581,92.8725246 14.6809605,91.7457052 13.6323595,90.5680149 C12.5843056,89.3903246 11.5832937,87.9752364 11.4082533,87.4227667 C11.0669247,86.3473654 10.0691948,86.0339345 10.0691948,87.002671 C10.0691948,88.689071 17.4427686,96.9252452 24.4826718,103.102513 C26.5399427,104.907612 28.5075054,106.638866 28.855398,106.949561 C29.2032907,107.260257 31.2725955,108.609158 33.4534886,109.94712 C36.893578,112.057444 38.462377,113.769006 36.9559362,113.769006 C36.7010337,113.769006 35.9292152,114.257477 35.240541,114.854801 C33.9961136,115.934578 31.9579878,115.907228 30.5308621,114.791896 C30.2015675,114.534806 28.4785143,114.084078 26.701855,113.790339 C24.9246486,113.497148 22.6091933,113.115889 21.5562163,112.943037 C18.8682533,112.503249 13.7444947,110.866626 13.0082313,110.213509 C12.6685437,109.912659 11.8376492,109.297284 11.1604619,108.846009 C10.4838216,108.394735 9.22407826,107.28706 8.36091065,106.384511 C6.66848948,104.613873 6.20463261,105.088669 7.75647452,107.003714 C9.02442289,108.567586 15.1803724,112.675007 16.2568704,112.675007 C16.7294793,112.675007 17.2551473,112.900371 17.4252646,113.175512 C17.5953819,113.4512 19.6406188,113.83574 21.9702961,114.031019 C24.2999735,114.225751 26.698026,114.60154 27.2997271,114.865741 C27.9014282,115.129942 29.2065727,115.506277 30.2004735,115.701556 C32.0197989,116.059294 32.2812654,116.886358 30.8224137,117.669661 C29.5347733,118.361616 26.2866812,119.689731 25.111723,120.00535 C24.5100219,120.166715 25.2353452,120.181484 26.723188,120.03817 C28.2110308,119.894856 29.5670463,119.552981 29.7371637,119.278387 C29.906734,119.003246 30.7201245,118.609407 31.544455,118.402641 C32.3687856,118.195875 33.0432378,117.768668 33.0432378,117.454143 C33.0432378,117.139072 33.4934197,117.288949 34.0437027,117.786719 C35.4855974,119.09186 36.7683148,118.994494 35.5709296,117.671302 C34.6935399,116.701472 34.743864,116.564722 36.5703004,114.960919 C38.3015587,113.441354 38.6620324,113.33086 40.1728492,113.85762 C41.0956399,114.179256 42.0025676,114.290844 42.188001,114.105958 C42.3728873,113.920525 42.219727,113.769006 41.8472193,113.769006 C41.4747116,113.769006 40.8101054,113.409081 40.3703166,112.969293 C39.6685142,112.266945 39.7232143,111.932729 40.8194044,110.240859 C41.9046544,108.565945 42.3564773,108.311591 44.2616818,108.305574 C45.8578308,108.300651 46.6411363,108.000895 47.1383602,107.20501 C47.9320587,105.93433 47.1766503,105.720453 46.1712624,106.93151 C45.2665227,108.021681 43.4362573,107.985579 43.4362573,106.877357 C43.4362573,106.396545 43.7830559,105.227059 44.2069817,104.279109 C45.9097959,100.47035 46.6252733,93.3730293 45.6379364,90.0784502 C45.2878558,88.9100589 45.1275845,87.8275465 45.2818387,87.6732926 C45.5788603,87.3762718 47.4572618,91.2441065 48.113663,93.5043092 C48.6666811,95.4078681 49.3329283,95.9258768 52.7352747,97.0964561 C54.3899528,97.6658828 55.9899308,98.2987614 56.2907813,98.5027923 C56.5916319,98.7068232 57.699309,99.054168 58.752286,99.2746089 C59.8052629,99.4950497 60.91294,99.8259846 61.2137906,100.009229 C63.7923534,101.581307 67.7045047,102.247552 74.4528563,102.263962 C78.4251778,102.273808 82.2470739,102.542932 82.9466882,102.861286 C85.3589627,103.960755 89.6540148,101.417754 95.9368685,95.1710172 C97.6008457,93.5163432 100.160263,91.1779196 101.624585,89.9745203 C107.0481,85.5159258 107.982378,84.6215814 107.982378,83.8880548 C107.982378,83.47507 108.166717,83.1359302 108.392629,83.1342892 C108.61854,83.1326482 109.779823,81.778824 110.974474,80.125791 C113.052531,77.2491196 113.999389,76.4805851 113.999389,77.6714034 C113.999389,77.9744412 115.845518,81.1722014 118.101897,84.7780233 C120.358276,88.3838452 122.204405,91.4820514 122.204405,91.6636553 C122.204405,91.8452592 121.725232,92.6663057 121.139941,93.4884462 C118.87645,96.6670614 117.463,103.841509 118.922399,104.743512 C119.686559,105.215572 119.624201,106.323247 118.567395,111.055341 C117.689458,114.98444 117.549426,115.220197 115.599914,116.05273 C113.357757,117.00998 109.808815,121.312132 109.278224,123.715649 C109.099901,124.523567 108.304562,125.778385 107.510863,126.5048 C102.969114,130.661998 94.9303867,139.90301 93.6077382,142.48649 C93.1460693,143.389039 91.7577807,145.217659 90.5226524,146.55015 C88.5299277,148.700406 88.3171443,149.183954 88.6294819,150.849568 C88.8231202,151.881209 88.7645911,152.88386 88.4992956,153.076404 C88.2340001,153.269495 87.5628299,154.288555 87.0081708,155.341529 C86.4535118,156.393957 85.5919852,157.993931 85.0936672,158.89648 C84.1872866,160.538573 80.4572866,164.496116 77.8765357,166.554476 C77.1222213,167.156176 75.0337714,168.895635 73.2352321,170.419576 C71.4372397,171.944064 68.9812051,173.783077 67.7778028,174.506757 C65.3217682,175.983656 62.8263496,178.071554 59.5809925,181.363398 C56.642503,184.344547 56.1595011,184.985083 53.0082282,190.075462 C51.5187444,192.482261 49.9860475,194.776925 49.6031468,195.174046 C49.2196991,195.571715 48.9062675,196.06675 48.9062675,196.274063 C48.9062675,196.481923 48.0480229,197.633357 46.998875,198.833474 C45.949727,200.033592 44.9487151,201.446492 44.7742218,201.972705 C44.5991815,202.498919 44.2272208,202.929955 43.9466092,202.929955 C43.6659977,202.929955 43.4362573,203.29918 43.4362573,203.750454 C43.4362573,204.201729 43.2459009,204.570954 43.0134255,204.570954 C42.7809501,204.570954 42.1043098,205.475144 41.5091727,206.580084 C40.1296361,209.142777 37.6008504,211.680309 36.4198752,211.68742 C35.9166342,211.690702 34.3970654,212.961382 33.0432378,214.511579 C30.0555182,217.931421 27.793122,220.173573 25.13415,222.348444 C24.030849,223.250993 22.5293312,224.905667 21.7979908,226.025922 C20.4091552,228.151016 14.3248628,232.435118 12.6674497,232.456998 C12.1412347,232.462468 11.7101979,232.692208 11.7101979,232.971177 C11.7101979,233.250147 10.9717465,233.638517 10.0691948,233.835437 C9.16664315,234.032357 8.42819177,234.393377 8.42819177,234.639526 C8.42819177,234.885676 7.86204571,235.224816 7.17008942,235.399856 C4.98153832,235.946856 1.4982358,239.655514 0.719306346,242.259232 L0,244.671501 L2.54738377,246.974369 C6.01372925,250.114148 14.6973705,255.441924 16.3465786,255.441924 C17.2830443,255.441924 18.1062809,254.823815 19.0750197,253.401616 C19.8380861,252.274796 20.4622143,251.662157 20.4622143,252.034116 C20.4622143,252.466246 21.3341339,252.706926 22.9045739,252.706926 C24.8792476,252.706926 25.4716497,252.471716 26.0000527,251.476177 C26.3588853,250.797897 27.0781917,249.944578 27.5983896,249.572618 C28.1185876,249.206128 29.0813094,247.871449 29.7382577,246.61335 C30.3952059,245.34978 31.9377488,243.435281 33.1657661,242.357692 C40.613185,235.821046 40.5366049,235.914036 40.4802638,233.430657 C40.4277517,231.074183 41.8674584,228.49672 44.866118,225.579024 C45.5137672,224.94888 46.2150225,223.841206 46.4245239,223.117525 C47.3183236,220.028618 48.5425118,218.171554 50.9701024,216.220406 C52.391758,215.077724 53.8817888,213.834394 54.2816466,213.45587 C54.6815043,213.077893 55.5277149,212.490962 56.1622361,212.151275 C56.7967573,211.811589 57.5773278,211.316554 57.8973234,211.050712 C60.3292899,209.030095 61.4123519,208.153802 62.7530514,207.122707 C63.599809,206.471231 65.0767118,205.265096 66.0350576,204.442409 C66.9934034,203.619721 68.5332113,202.583157 69.456549,202.138993 C72.2686812,200.786263 76.9810951,195.843027 80.1985551,190.870253 C81.9566164,188.153305 84.7966457,185.246002 92.461771,178.314969 C95.634924,175.446503 99.5837244,172.297973 100.009291,172.297973 C100.17175,172.297973 101.913949,171.313373 103.87987,170.109974 C106.886188,168.269867 107.923849,167.921975 110.402858,167.921975 C113.997201,167.921975 117.753457,166.127269 121.526123,162.606779 C125.096946,159.275004 129.029336,156.768105 132.597424,155.548842 C134.252102,154.983245 135.68798,154.336144 135.788081,154.110233 C135.888729,153.884322 136.428619,153.699983 136.988748,153.699983 C137.54833,153.699983 138.686093,153.115241 139.517534,152.400312 C140.81338,151.285527 141.265202,151.179956 142.692875,151.657487 C144.518217,152.267391 146.27245,153.59113 146.27245,154.358024 C146.27245,154.627148 146.760922,155.85735 147.3577,157.092475 C147.953931,158.327601 148.599939,160.178648 148.79303,161.205913 C149.046839,162.559737 149.714727,163.451347 151.222262,164.449074 C154.024001,166.302856 154.662351,168.015512 155.558339,176.079381 C155.839498,178.610896 156.266705,180.826245 156.507386,181.002379 C157.216846,181.522575 160.494476,188.419694 160.494476,189.39226 C160.494476,189.882918 160.707807,190.416243 160.968726,190.577608 C161.229646,190.738973 161.572068,192.014029 161.729605,193.411066 C162.09336,196.637817 163.810944,198.328046 167.249939,198.843867 C169.261262,199.145264 170.222343,198.987728 171.988062,198.067675 C173.206233,197.432608 174.771203,196.912958 175.465894,196.912958 C177.208093,196.912958 180.733514,200.026481 180.733514,201.565191 C180.733514,202.242376 181.10274,203.679891 181.554016,204.760216 C182.005292,205.839993 182.374517,207.458018 182.374517,208.355645 C182.374517,210.200675 183.757336,215.866497 184.436711,216.80679 C184.682315,217.147024 185.344733,218.762861 185.908144,220.397296 C187.497729,225.009597 190.396287,228.09194 193.14442,228.09194 C195.308357,228.09194 199.03945,224.720781 201.166737,220.843647 C202.756869,217.945096 204.495239,208.323372 203.70154,206.814747 C203.447732,206.33284 203.097104,205.569228 202.922064,205.117954 C202.74757,204.666679 202.155168,203.559004 201.605979,202.656455 C199.887302,199.831202 198.85894,195.218353 198.56903,189.034522 C198.415322,185.754712 198.031875,182.813494 197.716255,182.497876 C197.401182,182.182804 197.143545,181.528592 197.143545,181.044498 C197.143545,179.832893 193.957264,176.67397 192.734717,176.67397 C192.186622,176.67397 191.586015,176.42782 191.400034,176.12697 C190.938912,175.38141 188.060046,175.43611 186.813978,176.21449 C185.984177,176.732499 185.570644,176.636774 184.55541,175.690465 C183.452656,174.663199 183.352008,174.196061 183.663252,171.548036 C183.856343,169.90649 184.520402,167.382086 185.13906,165.938554 C185.774129,164.457279 186.128038,162.771973 185.951357,162.069079 C185.683873,161.002976 186.361608,158.999316 187.30245,158.075981 C187.86969,157.519135 190.394646,153.394211 190.742539,152.455559 C190.940553,151.92114 190.73871,149.582717 190.293998,147.259062 C189.246491,141.784689 189.25032,139.138305 190.306032,138.732978 C190.968997,138.478623 191.126534,137.220524 191.126534,132.178828 C191.126534,126.801821 191.30595,125.532782 192.425114,122.999079 C193.139497,121.382148 193.899829,118.777336 194.114253,117.210728 C194.463787,114.661163 194.881696,113.971396 198.082746,110.658219 C200.050308,108.621739 202.663879,105.350134 203.890256,103.388046 C205.116632,101.425959 206.295966,99.6947046 206.511484,99.5415447 C206.726456,99.3878378 207.072708,98.5859363 207.280021,97.7588727 C207.487881,96.9312622 207.876799,96.1195147 208.144283,95.9543208 C208.411766,95.7885799 208.630566,95.0638053 208.630566,94.3428597 C208.630566,93.6224611 209.184678,92.4677448 209.862413,91.7768842 C212.612734,88.9740578 213.805743,85.8835096 212.459574,85.0515231 C212.158723,84.8655432 211.912573,84.2009386 211.912573,83.575171 C211.912573,80.6109797 208.145377,75.4620717 203.170402,71.6259629 C201.821498,70.5861165 200.327091,69.3663072 199.848465,68.9150325 C197.545591,66.7423497 195.040326,64.6867249 193.181617,63.4450356 C192.055341,62.6929111 191.132551,61.8931975 191.130363,61.6672867 C191.128175,61.4413758 190.757308,61.2570369 190.306032,61.2570369 C189.854756,61.2570369 189.485531,61.027297 189.485531,60.7466862 C189.485531,60.4660753 188.931419,60.0640306 188.254778,59.8528887 C187.578138,59.6411998 186.900951,59.300419 186.750525,59.0952941 C186.6001,58.8896223 184.938311,57.7797599 183.057722,56.6294196 C179.529565,54.4704118 176.357506,51.7665924 176.357506,50.9181959 C176.357506,50.1890453 170.277043,44.3536527 169.142016,43.9937269 C168.59775,43.820875 168.152491,43.4500092 168.152491,43.1693984 C168.152491,42.8887875 167.82429,42.6590477 167.422791,42.6590477 C167.021293,42.6590477 165.338717,41.7105502 163.683492,40.5509109 C162.028267,39.3918186 159.095248,37.6436076 157.165428,36.6666661 C155.235609,35.6897247 153.195842,34.6482373 152.632978,34.3523105 C152.069567,34.0563836 150.223438,33.6784069 148.53047,33.513213 C146.836955,33.3474721 145.135782,32.9618373 144.749599,32.6566115 C144.26605,32.2742587 143.638093,32.3202067 142.734994,32.8032074 C139.128069,34.7335693 138.471668,30.0846189 141.446807,23.6797997 C142.722413,20.9327672 142.136028,19.1380613 139.962793,19.1380613 C138.629204,19.1380613 138.614435,19.0844553 138.614435,14.1877142 C138.614435,8.49508845 138.102989,7.15822123 134.776676,4.15300497 C130.351438,0.154984282 124.29012,-1.077406 119.195899,0.985329801 Z" id="Path" fill="#FFFFFF" opacity="0.5"></path>
                            <path d="M29.908375,77.4990985 C30.440607,77.6380364 31.1790583,77.6287374 31.549378,77.4788595 C31.9196977,77.3289816 31.4842849,77.2157526 30.5817332,77.2266926 C29.6791815,77.2376326 29.376143,77.3601606 29.908375,77.4990985 Z" id="Path" fill="#FFFFFF" opacity="0.5"></path>
                        </g>
                    </g>
                </g>
            </g>
        </g>
    </g>
</svg>