<?xml version="1.0" encoding="UTF-8"?>
<svg width="80px" height="80px" viewBox="0 0 80 80" version="1.1" xmlns="http://www.w3.org/2000/svg" xmlns:xlink="http://www.w3.org/1999/xlink">
    <title>F6AE1CA7-A4F4-456E-BFCC-87D09E2D0923</title>
    <g id="Specifications" stroke="none" stroke-width="1" fill="none" fill-rule="evenodd">
        <g id="Teams" transform="translate(-48.000000, -597.000000)" fill-rule="nonzero">
            <g id="Group-6" transform="translate(48.000000, 512.000000)">
                <g id="Group-3" transform="translate(0.000000, 48.000000)">
                    <g id="Group" transform="translate(0.000000, 37.000000)">
                        <rect id="Rectangle" x="0" y="0" width="80" height="80" rx="20"></rect>
                        <g id="Group-3" transform="translate(1.000000, 0.000000)">
                            <path d="M77.9849411,12.4371828 L77.9916164,8.89173204 L75.9099384,7.83443097 C75.2789056,7.51625488 60.2428023,0 39.4692028,0 L38.5302677,0 C17.6767722,0 2.71597566,7.51835228 2.09599898,7.83233357 L0.00785411508,8.88942489 L0.0143208974,12.3637736 C-0.153815443,21.2687193 0.948875245,43.8883762 14.7692235,61.5313142 C26.0495865,75.9425731 36.8605863,79.3613407 38.0540205,79.7017492 L39.0926692,80 L40.1267286,79.7084609 C40.5919197,79.5771635 51.6373925,76.3343681 63.2256578,61.5313142 C77.0593568,43.8839716 78.1576667,21.3398213 77.9849411,12.4371828 Z" id="Path" fill="#FEFEFE"></path>
                            <path d="M75.7710068,12.453962 C75.7776822,11.6682747 75.7776822,11.2253031 75.7776822,11.2253031 L75.7776822,10.2615462 L74.9094646,9.82088175 C74.300544,9.51151474 59.7183671,2.22681321 39.46962,2.22681321 L38.530685,2.22681321 C18.2950801,2.22681321 3.69746633,9.51151474 3.09063183,9.82088175 L2.22032809,10.2615462 L2.22032809,11.2253031 C2.22032809,11.2253031 2.22032809,11.6682747 2.22929814,12.4071899 C2.06533392,21.069466 3.1217141,43.0659843 16.5079535,60.1547884 C27.3654724,74.0251269 37.5385554,77.2412853 38.6612722,77.5617685 L39.0974671,77.6886614 L39.5292813,77.5640757 C39.9700655,77.4415873 50.3336057,74.3990939 61.4877622,60.1547884 C74.8873523,43.0592726 75.9414378,21.0916985 75.7710068,12.453962 Z" id="Path" fill="#2D2925"></path>
                            <path d="M39.0970499,75.3347456 C38.2732653,75.0966903 28.587277,72.1030664 18.1815985,58.8046898 C4.46534458,41.2995512 4.40547469,18.377239 4.50956903,12.9776836 C4.50289364,12.2188431 4.50289364,11.7913923 4.50289364,11.7913923 C4.50289364,11.7913923 4.51624442,11.7848903 4.54503203,11.7691598 L4.54503203,11.7246948 L4.85063964,11.579974 C5.57909138,11.2462771 7.20225374,10.5316918 9.55407644,9.68371157 C15.3979616,7.53366332 25.8655961,4.51570955 38.5344399,4.51570955 L39.4579381,4.51570955 C52.1046696,4.51570955 62.5435165,7.51814254 68.3961631,9.66588364 C70.7744788,10.5228827 72.4176673,11.24397 73.1507084,11.579974 L73.456316,11.7202903 L73.456316,11.7691598 C73.4805143,11.7848903 73.4982458,11.7913923 73.4982458,11.7913923 C73.4982458,11.7913923 73.4982458,12.2188431 73.4894843,12.9776836 C73.5956647,18.377239 73.5403842,41.2995512 59.8197495,58.8046898 C49.3873694,72.1297034 39.8897523,75.1143085 39.0968413,75.3347456 L39.0970499,75.3347456 Z M60.5283837,59.3944796 C73.6378031,42.6618147 74.6697764,21.1103654 74.4970507,12.6238517 C74.5037261,11.8337598 74.5037261,11.3974999 74.5037261,11.3951928 L74.5037261,11.0747095 L74.2179361,10.9301984 C73.6223663,10.625236 59.3435023,3.49406435 39.4666995,3.49406435 L38.5300591,3.49406435 C18.6686932,3.49406435 4.38106781,10.625236 3.77882263,10.9301984 L3.48865185,11.0747095 L3.48865185,11.3951928 C3.48865185,11.3974999 3.48865185,11.8337598 3.49970796,12.5749822 C3.3380384,21.0925374 4.37439242,42.6683166 17.4729643,59.3944796 C28.06013,72.9197953 37.8723248,76.0268887 38.9551979,76.3341583 L39.1014306,76.3742187 L39.243074,76.3341583 C39.6638321,76.2183816 49.6443719,73.2849532 60.5283837,59.3944796" id="Shape" fill="#FEFEFE"></path>
                            <path d="M64.3529639,22.6110575 C59.4811822,17.5454088 58.9187807,16.7240656 58.9187807,14.6407148 C58.9187807,12.5774991 59.8155774,12.3016905 60.6969373,12.3016905 C61.1531583,12.3016905 61.7176458,12.395025 62.3666187,12.5821133 C65.8920581,13.6014514 65.8920581,15.5354671 65.8920581,16.9688326 L65.8920581,19.0253366 C65.8920581,19.1878854 65.9982385,19.3347036 66.1511466,19.3881874 C67.0014242,19.6797265 67.4288577,19.831159 68.3212736,20.1627585 C68.4364241,20.2049163 68.569306,20.1893955 68.6711057,20.120391 C68.7752,20.0446747 68.8350699,19.9291078 68.8350699,19.8022149 L68.8350699,18.084022 C68.8350699,15.9138387 68.8350699,12.279458 62.5303744,10.4610093 C58.1214891,9.19019254 55.8716746,10.5499392 55.8716746,14.3959478 C55.8716746,17.5898737 57.8181761,19.5016569 61.0467693,22.6689458 L61.6978283,23.3099123 C65.5265806,27.0823021 66.3015515,28.3264818 66.3015515,30.7191996 C66.3015515,31.5759889 66.1732589,32.176895 65.909581,32.5531692 C65.6373504,32.9359453 65.2055362,33.1117077 64.5478018,33.1117077 C64.0363002,33.1117077 63.389622,32.9982382 62.6257073,32.7780108 C60.9470557,32.2926717 59.7292146,31.6317799 59.0072296,30.8104367 C58.1258698,29.8133311 58.1258698,28.9674483 58.1258698,27.2805067 L58.1258698,25.4553463 C58.1258698,25.3687235 58.0968736,25.2848274 58.0434705,25.2168715 C57.9898588,25.1489156 57.9151778,25.1013046 57.8313183,25.081589 C56.8880025,24.8678636 56.4363708,24.7743194 55.5328987,24.5941524 C55.422129,24.5740174 55.3046839,24.6029615 55.216235,24.6742732 C55.1275775,24.7476824 55.0787637,24.8567473 55.0787637,24.9702169 L55.0787637,28.2018961 C55.0787637,31.2399849 57.5480315,33.5546793 62.2293561,34.8968078 C63.5489969,35.2772767 64.6894452,35.4664625 65.6219135,35.4664625 C69.2867016,35.4664625 69.2867016,32.4996854 69.2867016,31.2332732 C69.2867016,27.892529 67.5949079,25.9784387 64.3529639,22.6110575 Z M54.5407691,8.8718067 C49.8859375,8.01501741 45.1293062,7.55191073 40.4037572,7.49863669 C40.2996628,7.49423214 40.2022439,7.53638995 40.1313179,7.60770167 C40.0583058,7.68341793 40.0184621,7.77905952 40.0184621,7.88141281 L40.0184621,9.35043416 C40.0184621,9.55954528 40.1845124,9.73090314 40.3947871,9.73530769 C42.6093471,9.75984731 43.7497955,9.80892655 45.8469104,9.97567012 L45.8469104,31.2244641 C45.8469104,31.4247661 45.9952292,31.5917195 46.1944478,31.6093376 C47.1202407,31.6829565 47.5695778,31.7274215 48.5020461,31.8274676 C48.5131022,31.8320819 48.5308337,31.8341793 48.5418898,31.8341793 C48.6370141,31.8341793 48.7256716,31.7985234 48.796389,31.7341331 C48.876285,31.6605143 48.9248902,31.558161 48.9248902,31.4469986 L48.9248902,10.2739209 C51.0286805,10.5121859 52.182271,10.6858509 54.4012118,11.0952641 C54.5140676,11.1174965 54.6315127,11.0841478 54.7155808,11.0107387 C54.7998576,10.939427 54.8507575,10.830362 54.8507575,10.7168925 L54.8507575,9.25017828 C54.8507575,9.06329964 54.7222562,8.90515542 54.5407691,8.8718067 Z M38.069666,7.53631155 C34.1103263,7.60098997 30.1155237,7.95482193 26.1981139,8.58697932 C26.0120374,8.61592349 25.8770694,8.77826251 25.8770694,8.9653509 L25.8770694,32.0034397 C25.8770694,32.1169093 25.9279693,32.2236671 26.0120374,32.2970762 C26.0829634,32.3549646 26.1714123,32.3862159 26.2600698,32.3862159 C26.2778013,32.3862159 26.2999135,32.3862159 26.317645,32.3839087 C30.1818604,31.7607702 34.1234685,31.4090356 38.0364976,31.3423382 C38.2423916,31.340031 38.4107366,31.1686732 38.4107366,30.9595621 L38.4107366,29.5238894 C38.4107366,29.4215361 38.3708929,29.3191829 38.2955861,29.2501783 C38.2246601,29.1790763 38.1161851,29.1390159 38.0210608,29.1411133 C34.3583587,29.2034062 32.4008011,29.3414153 28.8997686,29.7999077 L28.8997686,20.6835438 C31.8050227,20.3051722 33.3418223,20.1782793 36.382253,20.0671169 C36.5860609,20.0580981 36.7521112,19.8867402 36.7521112,19.6820336 L36.7521112,18.2776123 C36.7521112,18.1729519 36.7099728,18.0729057 36.63258,18.001594 C36.5593594,17.9302823 36.4598544,17.8881245 36.3534654,17.8948362 C33.3795799,18.0059986 31.7762351,18.1351986 28.9483738,18.502454 L28.9483738,10.4008138 C32.5113623,9.93120517 34.3737956,9.79990771 38.0830167,9.73992198 C38.2912054,9.73761483 38.4572557,9.56625697 38.4572557,9.35693611 L38.4572557,7.92147322 C38.4572557,7.81681279 38.4151173,7.71676664 38.3443999,7.64776207 C38.2711792,7.57435295 38.1693796,7.53429255 38.069666,7.53631155 Z M22.8963,9.1878854 C21.9817718,9.37266664 21.5411962,9.46830823 20.6464856,9.67532195 C20.4714652,9.71538236 20.3496394,9.87331683 20.3519341,10.0560007 L20.5357158,26.8129955 C20.5357158,27.9258778 20.5645035,28.947523 20.6087279,29.8622006 C18.3568274,24.0731574 16.0050047,18.0794077 13.617719,12.0122488 C13.5403262,11.823063 13.3321376,11.7230169 13.1372997,11.7897143 C11.8086888,12.2326859 11.1643052,12.4619321 9.85551194,12.9581778 C9.70927922,13.0116616 9.60977421,13.1584798 9.60977421,13.3143169 L9.60977421,36.3545031 C9.60977421,36.481396 9.6694355,36.5994798 9.77352983,36.6705818 C9.83548578,36.7150468 9.91308717,36.7395864 9.99277461,36.7395864 C10.034913,36.7395864 10.0835182,36.7307773 10.1256566,36.7129494 C10.9340043,36.4056798 11.3414116,36.2588615 12.2027453,35.9562062 C12.3556534,35.9027224 12.4597478,35.7580016 12.4574531,35.5956626 C12.4263708,30.1426234 12.3954972,24.6921012 12.3687956,19.2457737 C12.3687956,17.8101011 12.3510641,17.008893 12.3047536,15.9939595 C14.6563677,22.0078443 16.9462344,27.8948362 19.1184475,33.5280423 C19.1916681,33.7082092 19.3798307,33.8105625 19.5679932,33.7593859 C20.9631493,33.414363 21.6473766,33.2608331 23.0469134,32.9783128 C23.2219338,32.9403498 23.3525211,32.7845128 23.3525211,32.6020387 L23.3525211,9.56394983 C23.3525211,9.4483829 23.2993266,9.33931792 23.2129637,9.26569906 C23.1222202,9.19459709 23.004775,9.16565292 22.8963,9.1878854 Z M51.8470414,61.3373044 C51.6257105,61.4908343 51.4064658,61.6531734 51.1605194,61.8224338 C50.5184305,62.2719074 49.8938645,62.6525861 49.2252827,63.0531902 C48.9173804,63.2446831 48.5963359,63.4338689 48.2663214,63.6408826 C45.9854247,65.0608247 43.2528963,66.6321993 40.3230267,67.5334536 C39.4750438,67.7983556 38.6931889,67.9898486 37.9336549,68.1121272 C37.2273154,68.2146902 36.567495,68.2679643 35.9097607,68.2679643 L35.7835541,68.2679643 C34.9176311,68.2612526 34.0784096,68.1790344 33.2723565,68.029909 C36.3371941,69.1226562 39.7408077,69.358614 43.1310705,68.512941 C45.0708965,68.029909 46.8534338,67.2284911 48.427991,66.1804186 C49.9403836,64.9918201 51.1628141,63.3025714 51.946755,61.2636856 C51.9135867,61.2882252 51.8825044,61.3127648 51.8470414,61.3373044 Z M36.3305187,67.4065607 C38.2770202,67.1752171 39.8891265,66.6810688 41.7248582,65.755275 C41.9929168,65.6239775 42.256386,65.4859684 42.5175606,65.3479592 C42.7413947,65.2321826 42.9627255,65.1140987 43.186351,65.0006292 C44.7454714,64.1815932 46.4172389,63.2914552 48.4390471,62.2008054 C49.1499759,61.8180293 49.8606962,61.4084064 50.5495128,61.014514 L51.357652,60.5627333 C51.669935,60.3934729 51.9621918,60.2355384 52.259038,60.0551617 C52.2855309,60.0373338 52.3209939,60.0151013 52.3564569,59.9928688 C52.6155454,59.0425353 52.7838904,58.0097739 52.8612832,56.9193339 C50.874938,57.9185369 47.8897878,58.7954612 43.5119848,59.6790973 C37.9048673,60.7986912 32.4197843,60.2978313 27.5215096,58.2211922 C24.2307518,56.8278871 22.6762208,54.8982759 22.0228672,53.8344729 C22.1071439,54.5912161 22.2377312,55.3479592 22.4281884,56.1067998 C23.5087669,60.3978774 26.1286481,63.9034775 29.5608407,66.173707 L29.5454038,66.1447628 L30.0281179,66.4295902 C30.4180022,66.6632409 30.9028023,66.8658501 31.4720878,67.0304962 C32.5416101,67.3509795 33.593401,67.5091237 34.6963003,67.5091237 C35.2144773,67.5091237 35.7547665,67.4734678 36.3305187,67.4065607 Z M53.804599,60.1843618 C53.7914568,60.1153572 53.7758114,60.11305 53.7403484,60.11305 C53.6873625,60.11305 53.5699173,60.1375897 53.330855,60.2911196 C53.2887166,60.3244683 53.2421975,60.3534125 53.1933837,60.3867612 C53.15354,60.413608 53.1116102,60.440245 53.0761472,60.466882 C52.6510084,61.5998993 52.0863123,62.670414 51.4396341,63.6251521 C52.3785692,62.6236419 53.189003,61.5107597 53.8554988,60.3200638 L53.8333866,60.3200638 L53.804599,60.1843618 Z M54.4579526,55.9310374 C54.3980827,55.9734049 54.3428021,56.0155627 54.2829322,56.0600277 C54.189894,56.1290323 54.0947697,56.200344 53.9929701,56.2693485 C53.913074,57.3576912 53.7115607,58.4349176 53.4061617,59.4764881 C53.9418616,59.2873023 54.125852,59.5054323 54.1811326,59.630018 C54.1855133,59.647846 54.189894,59.667981 54.1944834,59.685809 C55.0779293,57.9430765 55.6603569,56.0489114 55.9017139,54.0769328 C55.6292746,54.7359369 55.1864043,55.4213683 54.4579526,55.9310374 Z M54.045956,54.9985318 C54.0880944,54.9672805 54.1302327,54.9362389 54.1677818,54.9093922 C55.6027817,53.907882 55.9726399,52.2809262 56.0235397,52.0139268 C56.0235397,50.6495658 55.8574894,49.2650698 55.5053627,47.882881 C55.4920119,47.8272998 55.4788698,47.773816 55.4611383,47.7182348 C55.3303424,48.9869542 54.708071,50.1621293 53.6097611,51.2125089 C53.9020179,52.4789211 54.045956,53.7499476 54.045956,54.9985318 Z M28.493613,57.0728638 C32.5372294,58.4126851 34.7826631,58.8422333 37.7344363,58.8422333 C38.808548,58.8422333 40.0307698,58.7776333 41.5875955,58.648643 C45.8990619,58.274676 50.4454185,56.8436176 52.8877761,55.6527119 C52.8833954,54.4599186 52.7749203,53.2513948 52.5646456,52.0493729 C51.840366,52.4900373 51.0211707,52.6970511 50.0113096,52.6970511 C48.9970678,52.6970511 47.7702566,52.5034607 45.7795307,52.0227359 C43.427708,51.4618902 40.0618521,49.4475439 37.0944335,47.6737699 C35.4668904,46.6965896 33.9300909,45.7752003 32.6567606,45.1453501 C27.8114718,42.7371115 25.0612118,43.0754226 24.3281708,43.2335668 C22.5986194,46.1246277 21.7285243,49.5255673 21.9521498,53.0286505 C22.2775749,53.4961618 23.9362003,55.563782 28.493613,57.0728638 L28.493613,57.0728638 Z M30.9649669,43.1377155 C32.6125361,43.8300684 34.773693,44.9939175 37.0568844,46.2292881 C40.6597166,48.1744201 44.3866693,50.1887663 46.908923,50.8186166 C49.1564427,51.3773648 51.0011445,51.3282856 52.296587,50.6738957 C52.2922063,50.6495658 52.2878256,50.6227191 52.2811502,50.6004866 C52.2657134,50.504845 52.2479819,50.4157054 52.2191943,50.3223709 C51.125265,45.7061957 45.3765042,35.5994379 35.4203713,35.5994379 C35.0019079,35.5994379 34.5721798,35.6216704 34.147041,35.6594236 C30.2982625,36.7813247 27.1295391,39.1560049 24.9836104,42.2297496 C25.3467933,42.1139729 25.8230405,42.0093125 26.4695101,42.0093125 C27.6852652,42.0093125 29.1978664,42.387684 30.9649669,43.1377155 Z M53.2797466,49.9484039 C53.5411297,49.6767901 53.7449377,49.3785394 53.9020179,49.067075 C55.1044222,46.7433617 54.0261384,44.1394354 53.5742981,43.2335668 C50.2261737,37.682579 43.9060413,34.4131465 37.3159729,35.0497085 C44.1386369,35.4190612 50.7487314,41.5554344 53.2797466,49.9484039 Z" id="Shape" fill="#FEFEFE"></path>
                            <path d="M45.7204953,55.4767398 C45.7204953,54.2281555 45.7204953,52.3719535 44.250241,50.9318763 C44.4144138,50.6432736 44.5479216,50.3383112 44.6486782,50.0216033 C44.8946246,49.2782835 44.9144421,48.463652 44.9010914,47.9338479 L44.8946246,44.4974621 L44.8946246,44.4439784 C44.8547808,43.1664499 44.662029,41.8155124 43.6233803,40.6426444 C42.6911207,39.5876505 41.2894977,39.0335165 39.5666218,39.0335165 L34.9251409,39.0446327 C34.4203147,39.0446327 33.9175745,39.2426276 33.5477163,39.6142875 C33.1912088,39.9771383 32.9786394,40.4712865 32.9786394,40.9941692 L33.0228639,63.5626494 C33.0228639,64.2325601 33.3639345,64.8556986 33.935306,65.2007215 C34.2496751,65.3922144 34.6084772,65.4989723 34.9870969,65.4989723 L39.7061791,65.4901632 C41.4113236,65.4857586 42.8373534,64.9983221 43.9511002,64.0345652 L43.9667456,64.0255464 C45.5233627,62.621125 45.6896216,60.9675322 45.7294653,59.3850413 L45.7294653,59.3672134 L45.7204953,55.4767398 Z" id="Path" fill="#FEFEFE"></path>
                            <path d="M39.467534,49.9010026 C39.0690967,50.0144721 38.8763449,50.0478208 38.0104219,50.0790721 L37.1490882,50.0813793 C37.0007694,50.0857838 36.9609257,50.0144721 36.9609257,49.9010026 C36.9609257,49.831998 36.9519557,42.6475523 36.9519557,42.6475523 C36.9519557,42.5317757 36.9917994,42.4627711 37.1136252,42.4493477 L38.5553005,42.4493477 C39.1930086,42.4694828 39.9016428,42.4894081 40.3578639,42.7721381 C40.5704333,42.9011284 40.6966398,43.0569655 40.7742412,43.2639792 C40.8361972,43.479802 40.8981531,43.853769 40.9336161,44.4926381 L40.9423775,47.3014808 C40.9336161,47.3480431 40.9336161,47.421662 40.9336161,47.5149964 C40.9115039,48.240698 40.8981531,49.4714543 39.467534,49.9010026 Z M41.0973717,61.6191954 C40.7498343,61.8662696 40.3290763,62.0109904 39.2482892,62.0510508 C39.2482892,62.0510508 37.3948259,62.0554553 37.2508879,62.0554553 C37.0848376,62.0554553 37.0185009,61.9531021 37.0185009,61.7928604 C37.0185009,60.4194807 37.0007694,52.8522589 37.0007694,52.7876589 C37.0007694,52.7165569 37.0185009,52.6207056 37.162439,52.6207056 C37.3019963,52.6207056 38.0946987,52.6118965 38.0946987,52.6118965 C39.0778582,52.660766 40.1054508,52.7364822 40.7742412,53.1616259 C41.1595363,53.3975838 41.4207108,53.7268761 41.5867611,54.1698477 C41.7352885,54.6239356 41.7640761,55.1245858 41.7640761,55.592097 L41.7705429,58.930534 C41.7705429,60.4530391 41.6754186,61.1697219 41.0973717,61.6191954 Z M44.5166307,55.6321574 C44.5166307,54.3680524 44.5166307,52.8256219 43.2101321,51.7372792 C42.9376928,51.5080331 42.609973,51.3098284 42.2223832,51.151894 C42.8269231,50.7422711 43.2410058,50.1791183 43.4692206,49.4714543 C43.6794953,48.8371995 43.6684392,48.0536096 43.6617638,47.7465498 L43.6530024,44.163136 C43.6175394,43.170435 43.5111504,42.0399346 42.7117726,41.1229498 C42.0054331,40.3349553 40.9336161,39.9299467 39.573923,39.9343157 L34.7353096,39.9477747 C34.5913715,39.9477747 34.4564035,40.0033558 34.3456338,40.1124208 C34.2371587,40.2147741 34.1883449,40.3527833 34.1883449,40.4951969 L34.2304833,64.045262 C34.2304833,64.2321406 34.3256076,64.419229 34.4895718,64.5148706 C34.5821928,64.5717102 34.6887904,64.6017031 34.7972655,64.6017031 L39.7222418,64.5882797 C40.2427134,64.5882797 41.8481443,64.5838752 43.1857252,63.4376442 C44.370398,62.3604178 44.4899292,61.0896011 44.5253922,59.6606401 L44.5166307,55.6321574 L44.5166307,55.6321574 Z" id="Shape" fill="#2D2925"></path>
                        </g>
                    </g>
                </g>
            </g>
        </g>
    </g>
</svg>