<?xml version="1.0" encoding="UTF-8"?>
<svg width="80px" height="80px" viewBox="0 0 80 80" version="1.1" xmlns="http://www.w3.org/2000/svg" xmlns:xlink="http://www.w3.org/1999/xlink">
    <title>A187C317-39F1-40C4-9CF7-D4E74A7378B3</title>
    <g id="iOS" stroke="none" stroke-width="1" fill="none" fill-rule="evenodd">
        <g id="Pick-teams" transform="translate(-110.000000, -233.000000)" fill-rule="nonzero">
            <g id="Group" transform="translate(8.000000, 195.000000)">
                <g id="Group-10" transform="translate(8.000000, 36.000000)">
                    <g id="Container/Player-&amp;-Team-tiles/Teams/Team-tile/Large/Unselected" transform="translate(92.000000, 0.000000)">
                        <g id="Assets-exportable/Logos/Club-logos/Eastern-Conference/Brooklyn-Nets" transform="translate(2.000000, 2.000000)">
                            <g id="Group" fill="#2D2925">
                                <rect id="Rectangle" x="0" y="0" width="80" height="80" rx="8"></rect>
                            </g>
                            <g id="Group" transform="translate(16.000000, 16.000000)">
                                <rect id="Rectangle" x="0" y="0" width="48" height="48" rx="20"></rect>
                                <g id="Group-3" transform="translate(0.600000, 0.000000)">
                                    <path d="M46.7909646,7.46230966 L46.7949699,5.33503922 L45.545963,4.70065858 C45.1673433,4.50975293 36.1456814,0 23.6815217,0 L23.1181606,0 C10.6060633,0 1.6295854,4.51101137 1.25759939,4.69940014 L0.00471246905,5.33365494 L0.00859253843,7.41826419 C-0.0922892656,12.7612316 0.569325147,26.3330257 8.86153408,36.9187885 C15.6297519,45.5655439 22.1163518,47.6168044 22.8324123,47.8210495 L23.4556015,48 L24.0760371,47.8250766 C24.3551518,47.7462981 30.9824355,45.8006208 37.9353947,36.9187885 C46.2356141,26.330383 46.8946,12.8038928 46.7909646,7.46230966 Z" id="Path" fill="#FEFEFE"></path>
                                    <path d="M45.4626041,7.4723772 C45.4666093,7.00096481 45.4666093,6.73518184 45.4666093,6.73518184 L45.4666093,6.15692772 L44.9456787,5.89252905 C44.5803264,5.70690885 35.8310203,1.33608792 23.681772,1.33608792 L23.118411,1.33608792 C10.977048,1.33608792 2.2184798,5.70690885 1.8543791,5.89252905 L1.33219685,6.15692772 L1.33219685,6.73518184 C1.33219685,6.73518184 1.33219685,7.00096481 1.33757889,7.44431394 C1.23920035,12.6416796 1.87302846,25.8395906 9.90477209,36.092873 C16.4192834,44.4150761 22.5231332,46.3447712 23.1967633,46.5370611 L23.4584803,46.6131969 L23.7175688,46.5384454 C23.9820393,46.4649524 30.2001634,44.6394564 36.8926573,36.092873 C44.9324114,25.8355636 45.5648627,12.6550191 45.4626041,7.4723772 Z" id="Path" fill="#2D2925"></path>
                                    <path d="M23.45823,45.2008474 C22.9639592,45.0580142 17.1523662,43.2618398 10.9089591,35.2828139 C2.67920675,24.7797307 2.64328482,11.0263434 2.70574142,7.78661018 C2.70173618,7.33130584 2.70173618,7.07483535 2.70173618,7.07483535 C2.70173618,7.07483535 2.70974665,7.07093418 2.72701922,7.06149587 L2.72701922,7.0348169 L2.91038379,6.9479844 C3.34745483,6.74776627 4.32135224,6.31901506 5.73244587,5.81022694 C9.23877696,4.52019799 15.5193577,2.70942573 23.1206639,2.70942573 L23.6747629,2.70942573 C31.2628018,2.70942573 37.5261099,4.51088552 41.0376979,5.79953018 C42.4646873,6.3137296 43.4506004,6.74638198 43.890425,6.9479844 L44.0737896,7.03217417 L44.0737896,7.06149587 C44.0883086,7.07093418 44.0989475,7.07483535 44.0989475,7.07483535 C44.0989475,7.07483535 44.0989475,7.33130584 44.0936906,7.78661018 C44.1573988,11.0263434 44.1242305,24.7797307 35.8918497,35.2828139 C29.6324217,43.2778221 23.9338514,45.0685851 23.4581048,45.2008474 L23.45823,45.2008474 Z M36.3170302,35.6366878 C44.1826819,25.5970888 44.8018658,12.6662192 44.6982304,7.574311 C44.7022357,7.10025588 44.7022357,6.83849994 44.7022357,6.83711565 L44.7022357,6.64482571 L44.5307616,6.55811905 C44.1734198,6.37514157 35.6061014,2.09643861 23.6800197,2.09643861 L23.1180355,2.09643861 C11.2012159,2.09643861 2.62864068,6.37514157 2.26729358,6.55811905 L2.09319111,6.64482571 L2.09319111,6.83711565 C2.09319111,6.83849994 2.09319111,7.10025588 2.09982477,7.5449893 C2.00282304,12.6555225 2.62463545,25.60099 10.4837786,35.6366878 C16.836078,43.7518772 22.7233949,45.6161332 23.3731188,45.800495 L23.4608584,45.8245312 L23.5458444,45.800495 C23.7982993,45.731029 29.7866231,43.9709719 36.3170302,35.6366878" id="Shape" fill="#FEFEFE"></path>
                                    <path d="M38.6117784,13.5666345 C35.6887093,10.5272453 35.3512684,10.0344394 35.3512684,8.78442888 C35.3512684,7.54649943 35.8893465,7.3810143 36.4181624,7.3810143 C36.691895,7.3810143 37.0305875,7.43701498 37.4199712,7.54926801 C39.5352349,8.16087084 39.5352349,9.32128026 39.5352349,10.1812996 L39.5352349,11.415202 C39.5352349,11.5127312 39.5989431,11.6008222 39.690688,11.6329125 C40.2008545,11.8078359 40.4573146,11.8986954 40.9927642,12.0976551 C41.0618544,12.1229498 41.1415836,12.1136373 41.2026634,12.0722346 C41.26512,12.0268048 41.3010419,11.9574647 41.3010419,11.8813289 L41.3010419,10.8504132 C41.3010419,9.5483032 41.3010419,7.36767482 37.5182246,6.27660556 C34.8728934,5.51411552 33.5230048,6.32996351 33.5230048,8.63756869 C33.5230048,10.5539242 34.6909057,11.7009942 36.6280616,13.6013675 L37.018697,13.9859474 C39.3159484,16.2493813 39.7809309,16.9958891 39.7809309,18.4315198 C39.7809309,18.9455934 39.7039553,19.306137 39.5457486,19.5319015 C39.3824102,19.7615672 39.1233217,19.8670246 38.7286811,19.8670246 C38.4217801,19.8670246 38.0337732,19.7989429 37.5754244,19.6668065 C36.5682334,19.375603 35.8375288,18.9790679 35.4043378,18.486262 C34.8755219,17.8879987 34.8755219,17.380469 34.8755219,16.368304 L34.8755219,15.2732078 C34.8755219,15.2212341 34.8581241,15.1708964 34.8260823,15.1301229 C34.7939153,15.0893494 34.7491067,15.0607828 34.698791,15.0489534 C34.1328015,14.9207182 33.8618225,14.8645916 33.3197392,14.7564915 C33.2532774,14.7444104 33.1828103,14.7617769 33.129741,14.8045639 C33.0765465,14.8486094 33.0472582,14.9140484 33.0472582,14.9821301 L33.0472582,16.9211376 C33.0472582,18.7439909 34.5288189,20.1328076 37.3376136,20.9380847 C38.1293981,21.166366 38.8136671,21.2798775 39.3731481,21.2798775 C41.572021,21.2798775 41.572021,19.4998112 41.572021,18.7399639 C41.572021,16.7355174 40.5569448,15.5870632 38.6117784,13.5666345 Z M32.7244615,5.32308402 C29.9315625,4.80901045 27.0775837,4.53114644 24.2422543,4.49918201 C24.1797977,4.49653928 24.1213463,4.52183397 24.0787907,4.564621 C24.0349835,4.61005076 24.0110773,4.66743571 24.0110773,4.72884769 L24.0110773,5.6102605 C24.0110773,5.73572717 24.1107074,5.83854189 24.2368723,5.84118461 C25.5656083,5.85590839 26.2498773,5.88535593 27.5081463,5.98540207 L27.5081463,18.7346785 C27.5081463,18.8548597 27.5971375,18.9550317 27.7166687,18.9656026 C28.2721444,19.0097739 28.5417467,19.0364529 29.1012276,19.0964806 C29.1078613,19.0992491 29.1185002,19.1005076 29.1251339,19.1005076 C29.1822084,19.1005076 29.2354029,19.0791141 29.2778334,19.0404799 C29.325771,18.9963086 29.3549341,18.9348966 29.3549341,18.8681992 L29.3549341,6.16435253 C30.6172083,6.30731155 31.3093626,6.41151055 32.6407271,6.65715844 C32.7084405,6.67049792 32.7789076,6.65048869 32.8293485,6.60644322 C32.8799146,6.56365619 32.9104545,6.49821721 32.9104545,6.43013549 L32.9104545,5.55010697 C32.9104545,5.43797978 32.8333537,5.34309325 32.7244615,5.32308402 Z M22.8417996,4.52178693 C20.4661958,4.56059398 18.0693142,4.77289316 15.7188683,5.15218759 C15.6072225,5.16955409 15.5262417,5.26695751 15.5262417,5.37921054 L15.5262417,19.2020638 C15.5262417,19.2701456 15.5567816,19.3342003 15.6072225,19.3782457 C15.6497781,19.4129787 15.7028474,19.4317295 15.7560419,19.4317295 C15.7666808,19.4317295 15.7799481,19.4317295 15.790587,19.4303452 C18.1091162,19.0564621 20.4740811,18.8454214 22.8218986,18.8054029 C22.945435,18.8040186 23.0464419,18.7012039 23.0464419,18.5757372 L23.0464419,17.7143337 C23.0464419,17.6529217 23.0225357,17.5915097 22.9773517,17.550107 C22.9347961,17.5074458 22.869711,17.4834095 22.8126365,17.484668 C20.6150152,17.5220437 19.4404807,17.6048492 17.3398612,17.8799446 L17.3398612,12.4101263 C19.0830136,12.1831033 20.0050934,12.1069676 21.8293518,12.0402701 C21.9516366,12.0348588 22.0512667,11.9320441 22.0512667,11.8092202 L22.0512667,10.9665674 C22.0512667,10.9037711 22.0259837,10.8437434 21.979548,10.8009564 C21.9356156,10.7581694 21.8759126,10.7328747 21.8120792,10.7369017 C20.027748,10.8035991 19.0657411,10.8811192 17.3690243,11.1014724 L17.3690243,6.24048828 C19.5068174,5.9587231 20.6242773,5.87994463 22.84981,5.84395319 C22.9747232,5.8425689 23.0743534,5.73975418 23.0743534,5.61416167 L23.0743534,4.75288393 C23.0743534,4.69008767 23.0490704,4.63005999 23.0066399,4.58865724 C22.9627075,4.54461177 22.9016277,4.52057553 22.8417996,4.52178693 Z M13.73778,5.51273124 C13.1890631,5.62359998 12.9247177,5.68098494 12.3878913,5.80519317 C12.2828791,5.82922941 12.2097836,5.9239901 12.2111604,6.0336004 L12.3214295,16.0877973 C12.3214295,16.7555267 12.3387021,17.3685138 12.3652367,17.9173204 C11.0140964,14.4438945 9.60300283,10.8476446 8.1706314,7.2073493 C8.12419574,7.09383783 7.99928253,7.03381014 7.8823798,7.0738286 C7.08521328,7.33961156 6.69858314,7.47715928 5.91330717,7.77490667 C5.82556753,7.80699694 5.76586453,7.89508788 5.76586453,7.98859013 L5.76586453,21.8127019 C5.76586453,21.8888376 5.8016613,21.9596879 5.8641179,22.0023491 C5.90129147,22.0290281 5.9478523,22.0437518 5.99566477,22.0437518 C6.0209478,22.0437518 6.0501109,22.0384664 6.07539393,22.0277696 C6.56040261,21.8434079 6.80484698,21.7553169 7.32164719,21.5737237 C7.41339206,21.5416335 7.47584866,21.454801 7.47447186,21.3573975 C7.45582249,18.0855741 7.43729829,14.8152607 7.42127736,11.5474642 C7.42127736,10.6860607 7.41063846,10.2053358 7.38285216,9.59637569 C8.79382061,13.2047066 10.1677407,16.7369017 11.4710685,20.1168254 C11.5150009,20.2249255 11.6278984,20.2863375 11.7407959,20.2556315 C12.5778896,20.0486178 12.9884259,19.9564999 13.8281481,19.7869877 C13.9331603,19.7642099 14.0115126,19.6707077 14.0115126,19.5612232 L14.0115126,5.7383699 C14.0115126,5.66902974 13.9795959,5.60359075 13.9277782,5.55941944 C13.8733321,5.51675825 13.802865,5.49939175 13.73778,5.51273124 Z M31.1082248,36.8023827 C30.9754263,36.8945006 30.8438795,36.991904 30.6963117,37.0934603 C30.3110583,37.3631444 29.9363187,37.5915517 29.5351696,37.8319141 C29.3504282,37.9468098 29.1578016,38.0603213 28.9597929,38.1845296 C27.5912548,39.0364948 25.9517378,39.9793196 24.193816,40.5200722 C23.6850263,40.6790134 23.2159134,40.7939091 22.760193,40.8672763 C22.3363892,40.9288141 21.940497,40.9607786 21.5458564,40.9607786 L21.4701325,40.9607786 C20.9505787,40.9567515 20.4470458,40.9074206 19.9634139,40.8179454 C21.8023165,41.4735937 23.8444846,41.6151684 25.8786423,41.1077646 C27.0425379,40.8179454 28.1120603,40.3370947 29.0567946,39.7082512 C29.9642302,38.9950921 30.6976885,37.9815428 31.168053,36.7582113 C31.148152,36.7729351 31.1295026,36.7876589 31.1082248,36.8023827 Z M21.7983112,40.4439364 C22.9662121,40.3051302 23.9334759,40.0086413 25.0349149,39.453165 C25.1957501,39.3743865 25.3538316,39.291581 25.5105363,39.2087755 C25.6448368,39.1393095 25.7776353,39.0684592 25.9118106,39.0003775 C26.8472828,38.5089559 27.8503433,37.9748731 29.0634283,37.3204832 C29.4899856,37.0908176 29.9164177,36.8450438 30.3297077,36.6087084 L30.8145912,36.33764 C31.001961,36.2360837 31.1773151,36.141323 31.3554228,36.033097 C31.3713186,36.0224003 31.3925964,36.0090608 31.4138742,35.9957213 C31.5693273,35.4255212 31.6703342,34.8058643 31.7167699,34.1516003 C30.5249628,34.7511221 28.7338727,35.2772767 26.1071909,35.8074584 C22.7429204,36.4792147 19.4518706,36.1786988 16.5129058,34.9327153 C14.5384511,34.0967322 13.6057325,32.9389656 13.2137203,32.3006838 C13.2642864,32.7547296 13.3426387,33.2087755 13.456913,33.6640799 C14.1052601,36.2387265 15.6771889,38.3420865 17.7365044,39.7042242 L17.7272423,39.6868577 L18.0168707,39.8577541 C18.2508013,39.9979445 18.5416814,40.11951 18.8832527,40.2182977 C19.5249661,40.4105877 20.1560406,40.5054742 20.8177802,40.5054742 C21.1286864,40.5054742 21.4528599,40.4840807 21.7983112,40.4439364 Z M32.2827594,36.1106171 C32.2748741,36.0692143 32.2654868,36.06783 32.244209,36.06783 C32.2124175,36.06783 32.1419504,36.0825538 31.998513,36.1746718 C31.97323,36.194681 31.9453185,36.2120475 31.9160302,36.2320567 C31.892124,36.2481648 31.8669661,36.264147 31.8456883,36.2801292 C31.5906051,36.9599396 31.2517874,37.6022484 30.8637805,38.1750912 C31.4271415,37.5741852 31.9134018,36.9064558 32.3132993,36.1920383 L32.3000319,36.1920383 L32.2827594,36.1106171 Z M32.6747715,33.5586224 C32.6388496,33.584043 32.6056813,33.6093376 32.5697593,33.6360166 C32.5139364,33.6774194 32.4568618,33.7202064 32.395782,33.7616091 C32.3478444,34.4146147 32.2269364,35.0609505 32.043697,35.6858929 C32.365117,35.5723814 32.4755112,35.7032594 32.5086795,35.7780108 C32.511308,35.7887076 32.5139364,35.8007886 32.51669,35.8114854 C33.0467576,34.7658459 33.3962141,33.6293469 33.5410283,32.4461597 C33.3775648,32.8415621 33.1118426,33.252821 32.6747715,33.5586224 Z M32.4275736,32.9991191 C32.4528566,32.9803683 32.4781396,32.9617434 32.5006691,32.9456353 C33.361669,32.3447292 33.5835839,31.3685557 33.6141238,31.2083561 C33.6141238,30.3897395 33.5144937,29.5590419 33.3032176,28.7297286 C33.2952072,28.6963799 33.2873219,28.6642896 33.276683,28.6309409 C33.1982054,29.3921725 32.8248426,30.0972776 32.1658566,30.7275053 C32.3412107,31.4873527 32.4275736,32.2499685 32.4275736,32.9991191 Z M17.0961678,34.2437183 C19.5223376,35.0476111 20.8695979,35.30534 22.6406618,35.30534 C23.2851288,35.30534 24.0184619,35.26658 24.9525573,35.1891858 C27.5394371,34.9648056 30.2672511,34.1061706 31.7326657,33.3916272 C31.7300372,32.6759512 31.6649522,31.9508369 31.5387874,31.2296237 C31.1042196,31.4940224 30.6127024,31.6182306 30.0067858,31.6182306 C29.3982407,31.6182306 28.662154,31.5020764 27.4677184,31.2136415 C26.0566248,30.8771341 24.0371113,29.6685264 22.2566601,28.6042619 C21.2801342,28.0179538 20.3580545,27.4651202 19.5940563,27.08721 C16.6868831,25.6422669 15.0367271,25.8452536 14.5969025,25.9401401 C13.5591716,27.6747766 13.0371146,29.7153404 13.1712899,31.8171903 C13.366545,32.0976971 14.3617202,33.3382692 17.0961678,34.2437183 L17.0961678,34.2437183 Z M18.5789801,25.8826293 C19.5675217,26.298041 20.8642158,26.9963505 22.2341306,27.7375729 C24.3958299,28.904652 26.6320016,30.1132598 28.1453538,30.4911699 C29.4938656,30.8264189 30.6006867,30.7969713 31.3779522,30.4043374 C31.3753238,30.3897395 31.3726954,30.3736314 31.3686901,30.360292 C31.359428,30.302907 31.3487891,30.2494232 31.3315166,30.1934225 C30.675159,27.4237174 27.2259025,21.3596627 21.2522228,21.3596627 C21.0011447,21.3596627 20.7433079,21.3730022 20.4882246,21.3956542 C18.1789575,22.0687948 16.2777235,23.4936029 14.9901663,25.3378497 C15.208076,25.2683837 15.4938243,25.2055875 15.8817061,25.2055875 C16.6111591,25.2055875 17.5187199,25.4326104 18.5789801,25.8826293 Z M31.9678479,29.9690423 C32.1246778,29.8060741 32.2469626,29.6271236 32.3412107,29.440245 C33.0626533,28.046017 32.415683,26.4836612 32.1445788,25.9401401 C30.1357042,22.6095474 26.3436248,20.6478879 22.3895837,21.0298251 C26.4831821,21.2514367 30.4492388,24.9332606 31.9678479,29.9690423 Z" id="Shape" fill="#FEFEFE"></path>
                                    <path d="M27.4322972,33.2860439 C27.4322972,32.5368933 27.4322972,31.4231721 26.5501446,30.5591258 C26.6486483,30.3859642 26.728753,30.2029867 26.7892069,30.012962 C26.9367747,29.5669701 26.9486653,29.0781912 26.9406548,28.7603087 L26.9367747,26.6984773 L26.9367747,26.666387 C26.9128685,25.89987 26.7972174,25.0893074 26.1740282,24.3855866 C25.6146724,23.7525903 24.7736986,23.4201099 23.7399731,23.4201099 L20.9550845,23.4267796 C20.6521888,23.4267796 20.3505447,23.5455766 20.1286298,23.7685725 C19.9147253,23.986283 19.7871837,24.2827719 19.7871837,24.5965015 L19.8137183,38.1375897 C19.8137183,38.5395361 20.0183607,38.9134192 20.3611836,39.1204329 C20.549805,39.2353287 20.7650863,39.2993834 20.9922581,39.2993834 L23.8237075,39.2940979 C24.8467941,39.2914552 25.702412,38.9989932 26.3706601,38.4207391 L26.3800474,38.4153278 C27.3140176,37.572675 27.413773,36.5805193 27.4376792,35.6310248 L27.4376792,35.620328 L27.4322972,33.2860439 Z" id="Path" fill="#FEFEFE"></path>
                                    <path d="M23.6805204,29.9406015 C23.441458,30.0086833 23.3258069,30.0286925 22.8062531,30.0474433 L22.2894529,30.0488276 C22.2004617,30.0514703 22.1765554,30.0086833 22.1765554,29.9406015 C22.1765554,29.8991988 22.1711734,25.5885314 22.1711734,25.5885314 C22.1711734,25.5190654 22.1950796,25.4776627 22.2681751,25.4696086 L23.1331803,25.4696086 C23.5158052,25.4816897 23.9409857,25.4936449 24.2147183,25.6632829 C24.34226,25.740677 24.4179839,25.8341793 24.4645447,25.9583875 C24.5017183,26.0878812 24.5388919,26.3122614 24.5601697,26.6955829 L24.5654265,28.3808885 C24.5601697,28.4088259 24.5601697,28.4529972 24.5601697,28.5089979 C24.5469023,28.9444188 24.5388919,29.6828726 23.6805204,29.9406015 Z M24.658423,36.9715173 C24.4499006,37.1197617 24.1974458,37.2065942 23.5489735,37.2306305 C23.5489735,37.2306305 22.4368956,37.2332732 22.3505327,37.2332732 C22.2509026,37.2332732 22.2111006,37.1718612 22.2111006,37.0757163 C22.2111006,36.2516884 22.2004617,31.7113553 22.2004617,31.6725953 C22.2004617,31.6299341 22.2111006,31.5724233 22.2974634,31.5724233 C22.3811978,31.5724233 22.8568192,31.5671379 22.8568192,31.5671379 C23.4467149,31.5964596 24.0632705,31.6418893 24.4645447,31.8969755 C24.6957218,32.0385503 24.8524265,32.2361257 24.9520567,32.5019086 C25.0411731,32.7743613 25.0584457,33.0747515 25.0584457,33.3552582 L25.0623257,35.3583204 C25.0623257,36.2718235 25.0052512,36.7018331 24.658423,36.9715173 Z M26.7099784,33.3792944 C26.7099784,32.6208314 26.7099784,31.6953731 25.9260792,31.0423675 C25.7626157,30.9048198 25.5659838,30.7858971 25.3334299,30.6911364 C25.6961538,30.4453626 25.9446035,30.107471 26.0815324,29.6828726 C26.2076972,29.3023197 26.2010635,28.8321658 26.1970583,28.6479299 L26.1918014,26.4978816 C26.1705236,25.902261 26.1066902,25.2239607 25.6270636,24.6737699 C25.2032599,24.2009732 24.5601697,23.957968 23.7443538,23.9605894 L20.8411857,23.9686648 C20.7548229,23.9686648 20.6738421,24.0020135 20.6073803,24.0674525 C20.5422952,24.1288645 20.513007,24.21167 20.513007,24.2971182 L20.53829,38.4271572 C20.53829,38.5392844 20.5953646,38.6515374 20.6937431,38.7089224 C20.7493157,38.7430261 20.8132743,38.7610219 20.8783593,38.7610219 L23.8333451,38.7529678 C24.1456281,38.7529678 25.1088866,38.7503251 25.9114351,38.0625865 C26.6222388,37.4162507 26.6939575,36.6537606 26.7152353,35.7963841 L26.7099784,33.3792944 L26.7099784,33.3792944 Z" id="Shape" fill="#2D2925"></path>
                                </g>
                            </g>
                        </g>
                    </g>
                </g>
            </g>
        </g>
    </g>
</svg>