<?xml version="1.0" encoding="UTF-8"?>
<svg width="80px" height="80px" viewBox="0 0 80 80" version="1.1" xmlns="http://www.w3.org/2000/svg" xmlns:xlink="http://www.w3.org/1999/xlink">
    <title>2673DEB4-51DD-458E-B85B-75BEC61B3FFF</title>
    <g id="Specifications" stroke="none" stroke-width="1" fill="none" fill-rule="evenodd">
        <g id="Teams" transform="translate(-48.000000, -2199.000000)" fill-rule="nonzero">
            <g id="Group-6-Copy-10" transform="translate(48.000000, 2114.000000)">
                <g id="Group-3" transform="translate(0.000000, 48.000000)">
                    <g id="Assets-exportable/Logos/Club-logos/West-Conference/Huston-Rockets/transparent" transform="translate(0.000000, 37.000000)">
                        <g id="Group" transform="translate(10.000000, 0.000000)">
                            <path d="M8.03628954,42.6321347 C9.79276883,41.6782251 14.5038482,40.9383233 18.8492568,40.2832171 C18.8382738,41.9329348 18.8125928,43.6968438 18.7647843,45.6251754 C11.0881218,44.7819038 8.30262833,43.2927324 8.03628954,42.6321347 L8.03628954,42.6321347 Z M26.6728982,17.3506236 C31.2424901,17.9689043 33.8571004,19.183015 34.073854,20.8049521 C34.2980373,22.4803506 33.9066856,23.8551692 32.9366245,24.9400677 C31.367503,26.3720627 28.9806293,27.1229475 26.9576497,27.5141376 C26.9797773,23.6208104 26.8878751,20.3399494 26.6728982,17.3506236 Z M26.8034026,35.4892804 C26.8437814,33.9429326 26.8860985,32.3487762 26.9154942,30.7211862 C30.6508594,31.2729226 32.8225947,32.3080744 32.7859307,33.562887 L32.6683475,46.1565609 C30.7023828,46.2064691 28.629818,46.1972627 26.6803279,46.1436396 L26.7077855,45.2948765 C26.623313,42.4459075 26.7115004,39.0671682 26.8034026,35.4892804 Z M40.6389679,45.68429 L40.7013128,40.3403936 C49.2067104,41.5010428 51.3527647,42.4181269 51.6191035,42.9293229 C51.6191035,42.9293229 51.6118353,42.9680866 51.5585353,43.0528821 C50.0243011,44.1710528 46.0022461,45.136107 40.6389679,45.68429 Z M59.7331495,43.2891791 C59.6981007,42.5491158 59.3343681,41.8571841 58.6508352,41.2298585 C56.0877483,38.8844943 48.8024375,37.4951394 40.7326468,37.72756 L40.8024214,31.7821804 C40.8006447,30.5477187 40.3963718,29.5274263 39.6044621,28.7485994 C39.0477188,28.202516 38.3183155,27.7929131 37.4215824,27.5215673 C38.2613006,27.017801 39.0845443,26.395967 39.7826136,25.6339376 C41.7579461,23.7960546 42.6655008,21.4802477 42.4836345,18.7530612 C42.3660514,17.0240395 41.6164587,15.5589339 40.2531077,14.4002229 C37.5558016,12.1010521 32.6573645,11.2023807 26.0720612,11.7909426 C25.5723327,8.31270984 24.870387,5.29770305 23.9314984,2.59248267 L23.0312119,0 L22.7206179,0.963115954 L22.5516729,0.474209029 L21.710178,3.09075749 C20.5416145,6.73502803 19.7644027,9.81657915 19.2866403,12.726601 C13.8755535,13.7045763 10.1639311,14.9149723 10.0022542,14.9666572 L2.28521294,17.5001868 L3.63386601,17.376466 L1.82408666,17.9706809 L9.89387743,17.2380474 C9.93797112,17.2325558 14.028024,16.9059718 18.7849737,16.8856209 C18.5186349,20.3528706 18.6031074,23.8459628 18.7097076,28.171182 C18.7757673,30.9259876 18.851195,34.02046 18.8566865,37.7422579 C11.5676609,37.6463178 3.54196378,38.7460757 1.19013896,41.5084725 C0.172269306,42.3756483 -0.0188033378,43.2521921 0.00138607933,43.840754 C0.161286263,48.4224595 13.5741659,50.1348451 18.887859,50.6331199 L19.3287958,64.7805713 L21.162641,64.8211117 L21.199305,64.3322047 L21.3243178,64.3357581 L21.4142819,67.9285052 L23.2499037,67.9745371 L23.2865677,67.4856302 L23.4942764,67.4911217 L23.5860171,70.8992568 L25.4234156,70.9049099 L25.4400516,70.426986 L25.8974631,70.426986 L26.5222044,51.0722801 C28.5506755,51.1276799 30.6618425,51.1257417 32.6885369,51.0648504 L33.3242613,71.2812406 L35.1598831,71.2996533 L35.1836259,70.8181761 L35.411524,75.6489383 L37.2471458,75.6544299 L37.2691119,75.1747293 L37.4509782,75.176506 L37.5797059,80 L39.4171043,79.9962851 L39.4280874,79.5183613 L39.8947052,79.5183613 L40.5672551,50.5943563 C50.0096032,49.6939082 56.7215345,47.7784979 58.4836668,45.5531396 C59.3122405,44.8520015 59.7331495,44.10467 59.7331495,43.3314961 L59.7331495,43.2891791 L59.7331495,43.2891791 Z" id="Shape" fill="#FEFEFE"></path>
                            <path d="M58.3394336,43.8089354 C58.3394336,47.1765302 45.2663823,50.191537 29.4887566,50.191537 C13.7091927,50.191537 1.03669939,47.174592 0.919116224,43.8089354 C0.812516101,40.7735777 9.74786757,38.7843548 19.9893936,39.1773216 C13.3362538,40.1811395 6.61866943,41.1295575 6.61866943,42.9361066 C6.61866943,45.663293 16.7059483,47.5879098 29.4887566,47.5879098 C42.2676885,47.5879098 52.5369952,45.663293 52.5369952,42.9361066 C52.5369952,41.1757509 46.3743775,40.1276779 38.965992,39.1792598 C49.3343075,38.6255852 58.2071526,40.8805009 58.3394336,43.8089354" id="Path" fill="#2D2925"></path>
                            <path d="M24.126932,56.9490157 L24.5053624,70.8750295 L25.3137466,45.8000965 C24.9886163,34.7821663 27.2173664,16.6989092 22.5852681,3.37453993 C17.6684182,18.6918469 20.3143624,22.1387457 19.6674935,46.2079227 L20.2463645,64.7524677 L21.0161466,54.6093045 C21.0418275,53.350777 21.9955756,53.467068 21.9955756,54.546475 L22.3336272,67.9041164 L23.1529945,57.0338112 C23.1402348,55.5687056 24.1655341,55.6352499 24.126932,56.9490157 Z" id="Path" fill="#2D2925"></path>
                            <path d="M39.2019659,49.8184366 L38.4982436,79.9751266 L38.0241961,62.2165153 C37.9983536,60.9562112 36.9493115,60.8990347 36.9069945,62.2165153 L36.3300617,75.6148586 L35.7623353,60.1037332 C35.764112,58.8563503 34.8142403,58.784476 34.8050339,60.1924051 L34.2410223,71.2526524 L33.5555513,49.4106103 L33.7044684,33.5711243 C33.8293198,29.3363537 21.4288182,29.3898152 21.4288182,29.3898152 C21.4288182,29.3898152 36.1940658,29.6979865 34.9851235,20.6822004 C34.1050264,14.1094953 9.81102007,16.3201557 9.81102007,16.3201557 C9.81102007,16.3201557 16.6791367,14.0633019 25.2929112,13.2237452 C34.948298,12.2845335 40.7728641,14.6150383 41.0889496,19.2909073 C41.645693,27.565015 30.9758283,28.7699194 30.9758283,28.7699194 C30.9758283,28.7699194 39.3948152,27.1294081 39.4095131,32.2610734 L39.2019659,49.8184366 Z" id="Path" fill="#2D2925"></path>
                            <path d="M58.8147733,43.3313346 C58.8147733,46.6989294 45.7434986,49.7158743 29.9658729,49.7158743 C14.1845324,49.7158743 1.51203903,46.6969912 1.39623253,43.3313346 C1.28785574,40.2977535 10.2249839,38.3049773 20.4647332,38.6998823 C13.8115934,39.7054768 7.09400907,40.6538948 7.09400907,42.4585057 C7.09400907,45.1876303 17.1832261,47.1140238 29.9658729,47.1140238 C42.7449663,47.1140238 53.0121733,45.1876303 53.0121733,42.4585057 C53.0121733,40.7000882 46.8514938,39.6520152 39.4413316,38.6998823 C49.8078705,38.1462077 58.680554,40.4011233 58.8147733,43.3313346 Z" id="Path" fill="#C21F32"></path>
                            <path d="M24.6032407,56.4714148 L24.9798944,70.3974287 L25.7884402,45.3224957 C25.4631483,34.3027888 27.6918985,16.2214698 23.063515,2.89693908 C18.1429502,18.2142461 20.7888945,21.6611449 20.1439637,45.7285452 L20.7226732,64.2730901 L21.4926168,54.1297655 C21.5165211,52.8731761 22.4701076,52.9876905 22.4701076,54.0708124 L22.8118741,67.4265156 L23.6294647,56.5563719 C23.6165435,55.0893281 24.638128,55.1576491 24.6032407,56.4714148 Z" id="Path" fill="#C21F32"></path>
                            <path d="M39.6774671,49.3411588 L38.9755214,79.4976873 L38.4996972,61.7392375 C38.475793,60.4789334 37.4265893,60.4198187 37.3824956,61.7392375 L36.8055629,75.1356426 L36.2378365,59.6264554 C36.2396131,58.3790725 35.2897414,58.3052599 35.2823117,59.7149658 L34.7165235,70.7753746 L34.0310524,48.9333325 L34.1799695,33.0938465 C34.3048209,28.8571377 21.9062576,28.9162523 21.9062576,28.9162523 C21.9062576,28.9162523 36.669567,29.2224854 35.4606247,20.2049226 C34.5785894,13.6322175 10.2882979,15.8446545 10.2882979,15.8446545 C10.2882979,15.8446545 17.1565761,13.5842474 25.7684123,12.7464674 C35.4257373,11.8053175 41.2501419,14.1359838 41.5662274,18.8154061 C42.1211941,27.0875756 31.4532676,28.2944182 31.4532676,28.2944182 C31.4532676,28.2944182 39.8703164,26.6503536 39.8850143,31.7836341 L39.6774671,49.3411588 Z" id="Path" fill="#C21F32"></path>
                        </g>
                    </g>
                </g>
            </g>
        </g>
    </g>
</svg>