<?xml version="1.0" encoding="UTF-8"?>
<svg width="328px" height="328px" viewBox="0 0 328 328" version="1.1" xmlns="http://www.w3.org/2000/svg" xmlns:xlink="http://www.w3.org/1999/xlink">
    <title>C72AB8AD-EB91-4CDD-8C5B-1D42E8E19F02</title>
    <defs>
        <rect id="path-1" x="0" y="0" width="328" height="328"></rect>
    </defs>
    <g id="Specifications" stroke="none" stroke-width="1" fill="none" fill-rule="evenodd">
        <g id="Assets-Exportable" transform="translate(-44.000000, -1101.000000)">
            <g id="Group-4" transform="translate(44.000000, 957.000000)">
                <g id="Group-2" transform="translate(0.000000, 144.000000)">
                    <mask id="mask-2" fill="white">
                        <use xlink:href="#path-1"></use>
                    </mask>
                    <g id="Mask"></g>
                    <g id="Group" mask="url(#mask-2)">
                        <g transform="translate(43.733333, 25.511111)">
                            <circle id="Oval" fill="#FF8784" cx="167.063798" cy="19.1333333" r="19.1333333"></circle>
                            <path d="M171.62179,2.56488151 C171.095575,2.70272543 170.664538,3.04350624 170.664538,3.32192908 C170.664538,3.60089891 170.286013,3.82899778 169.823798,3.82899778 C168.468876,3.82899778 162.84133,9.79840532 160.283553,13.9484919 C157.180416,18.984171 154.880277,21.8799873 153.983195,21.8799873 C152.878253,21.8799873 152.46472,18.0805275 153.142454,14.1536168 C153.736498,10.7129888 154.183397,9.37283957 155.715547,6.43435727 C156.398204,5.12429303 156.395469,4.97550912 155.690932,5.24572696 C154.747355,5.60784075 153.160505,8.73284994 153.160505,10.2294411 C153.160505,10.8010557 152.869501,11.5591973 152.51395,11.9147471 C152.107528,12.3211679 151.867395,14.4916626 151.867395,17.7676437 C151.867395,20.6311871 151.780422,22.9739867 151.674304,22.9739867 C151.568185,22.9739867 150.874041,22.5763179 150.132855,22.0905822 C149.060733,21.3882346 148.785591,21.3603376 148.788873,21.9538323 C148.793249,22.6911879 151.132226,24.0679861 152.380482,24.0679861 C152.734392,24.0679861 153.177462,24.8370676 153.365631,25.7773601 C153.864496,28.2722256 153.81636,28.4439835 152.613504,28.4439835 C152.011803,28.4439835 151.519502,28.6474674 151.519502,28.8963523 C151.519502,29.1452371 152.208177,29.2475261 153.049464,29.1239041 C154.356797,28.9319072 154.735321,29.1961081 155.647719,30.9372081 C156.447435,32.4627902 156.54316,33.0360459 156.028979,33.2176498 C155.651001,33.3511177 155.487995,33.6973685 155.667411,33.9872783 C155.868707,34.3127431 156.28224,34.2739061 156.749379,33.8860834 C157.330841,33.4041767 157.711007,33.4632526 158.389288,34.1415322 C160.035214,35.7880013 162.833125,37.7429781 163.542038,37.7429781 C163.930409,37.7429781 163.538209,37.1937905 162.670118,36.5220748 C161.802028,35.8509062 161.00997,35.1124567 160.909869,34.8810758 C160.809221,34.6502419 160.357945,34.46098 159.906669,34.46098 C159.455393,34.46098 159.189551,34.1530192 159.315361,33.7772304 C159.486572,33.2674267 161.82719,33.0934808 168.523576,33.0934808 C176.999357,33.0934808 177.616921,33.0218239 179.553305,31.8085786 C183.298074,29.4630439 181.549312,31.9261835 176.95505,35.4674595 C176.654199,35.6993873 175.625837,36.235447 174.669133,36.6588248 C173.359612,37.2386444 172.844337,37.8873861 172.581777,39.2887992 C172.389779,40.3122357 171.941239,41.499225 171.585141,41.9264317 C171.22959,42.3541855 170.688606,43.0029271 170.38338,43.3688699 C170.078153,43.7342657 168.976493,45.1411489 167.93555,46.4949731 C166.895154,47.8487973 165.913834,49.0795466 165.755751,49.2299715 C165.001984,49.9465411 161.912522,54.1294476 161.912522,54.4335795 C161.912522,54.6228414 161.536185,55.1539781 161.076704,55.6140048 C160.419209,56.2709514 160.072957,56.3103354 159.453752,55.7961557 C159.020527,55.4367769 155.878007,54.8974352 152.469096,54.5971324 C143.92494,53.8439138 142.669026,54.2415826 137.388825,59.3697046 C135.09525,61.5976343 132.568652,63.5624572 131.773859,63.7374971 C130.891,63.931135 129.953987,64.7505405 129.365961,65.8428989 C128.420743,67.5976738 128.424025,68.3694904 129.396593,73.1234646 C129.67064,74.4636139 129.488489,75.1468165 128.6018,76.0980489 C127.916408,76.8337635 127.451457,78.0601368 127.451457,79.1306152 C127.451457,80.5675833 127.12818,81.094891 125.837804,81.7622306 C124.950022,82.2211634 123.816089,82.5969522 123.317771,82.5969522 C120.948709,82.5969522 115.200822,86.1283821 111.297423,89.9814479 C109.053078,92.1962496 106.723948,94.1654485 106.120605,94.3568983 C105.51781,94.5478012 105.024415,94.933983 105.024415,95.2145939 C105.024415,95.4952047 104.754197,95.7249446 104.423261,95.7249446 C104.092873,95.7249446 103.04646,96.0651784 102.098507,96.4803511 C101.150554,96.8960709 99.3903048,97.6514774 98.1869026,98.1585461 C96.9835003,98.6656149 95.5065975,99.2952115 94.9048964,99.5566773 C94.3031953,99.8181432 93.1955182,100.206513 92.4433918,100.419843 C91.6912654,100.633173 90.1574745,101.386938 89.0355754,102.095303 C87.9131293,102.803667 86.8623404,103.38294 86.6998811,103.38294 C86.5374217,103.38294 85.4866328,103.950179 84.3641867,104.643774 C82.1663366,106.002522 79.1605659,106.994779 74.7249346,107.826219 C73.1884088,108.114487 70.6940841,108.581078 69.1821733,108.86333 C65.27221,109.593575 59.8656518,111.89152 56.210591,114.37654 C54.4842558,115.550401 52.7141605,116.510933 52.2771066,116.510933 C51.8405998,116.510933 51.3307949,116.757082 51.1448145,117.057932 C50.9588342,117.358782 50.3905001,117.606573 49.8817892,117.608214 C49.3730782,117.610402 48.3414343,117.930397 47.5893079,118.31986 C46.8371815,118.709324 43.6372255,119.838879 40.4780758,120.830042 C37.3191448,121.821752 34.2422641,122.824403 33.640563,123.059066 C31.1932804,124.013033 26.3512273,125.262927 25.113911,125.259645 C23.7868865,125.256363 23.1206393,124.968642 18.5980348,122.446973 C14.939692,120.407758 8.75201638,119.040259 8.75201638,120.271555 C8.75201638,120.534662 9.52328782,121.123781 10.4663176,121.580526 C12.1631148,122.402666 12.1685848,122.417435 10.9755755,123.055784 C10.178048,123.48299 8.59557409,123.574886 6.29598178,123.328737 C4.38530721,123.124159 2.54410176,123.128535 2.20496113,123.338036 C1.24333333,123.932077 2.62396391,125.262927 4.20151486,125.262927 C4.95090627,125.262927 5.38631908,125.502513 5.19650972,125.809927 C5.01052938,126.110777 3.76555505,126.356927 2.42923155,126.356927 C0.634521187,126.356927 0,126.571351 0,127.177426 C0,127.677384 0.509804954,127.997926 1.30514444,127.997926 C2.02280979,127.997926 3.3148262,128.36551 4.17689982,128.815143 L5.74351075,129.632361 L3.4187564,129.635643 C0.472061883,129.640019 0.388370727,130.607114 3.29404016,131.072064 C5.64614457,131.447853 6.82766678,132.373923 4.95528227,132.373923 C4.33607711,132.373923 3.82900717,132.716892 3.82900717,133.136441 C3.82900717,133.696569 4.95528227,133.981008 8.0682651,134.207466 C10.3995835,134.377036 13.2653218,134.680074 14.435904,134.880823 C15.6064862,135.082119 17.8218404,134.984753 19.3589132,134.664211 C25.7790642,133.326797 30.2015675,132.740413 36.9225691,132.337274 C48.0974718,131.666106 57.9155932,130.816068 62.084835,130.159122 C66.6320545,129.443099 72.25796,128.051532 73.0248555,127.454208 C73.325706,127.219545 74.6428845,126.850868 75.9524049,126.634803 C77.2619254,126.418738 81.0280274,124.888233 84.3215206,123.234106 C90.0754244,120.344306 93.1441001,119.227333 98.4604031,118.087933 C99.8142306,117.798023 101.349115,117.324321 101.871501,117.036052 C102.393887,116.747236 103.255414,116.503275 103.786005,116.493429 C104.316596,116.48413 105.228994,116.114905 105.812644,115.672929 C106.396841,115.2315 107.442707,114.869933 108.137398,114.869933 C109.238511,114.869933 109.400424,115.140698 109.400424,116.981352 C109.400424,120.632028 107.756138,135.668502 107.25071,136.641068 C105.77873,139.473432 105.469127,143.34619 105.257438,161.579877 C105.133269,172.27208 104.800692,181.268037 104.506952,181.877395 C102.81289,185.391321 102.28941,187.578225 102.28941,191.144116 C102.28941,193.309141 101.915809,196.337878 101.45961,197.874947 C100.165952,202.231253 101.157665,216.104259 102.89494,217.952024 C103.163518,218.238105 103.383412,220.375779 103.383412,222.702716 C103.383412,225.029653 103.666759,227.626807 104.01301,228.473563 C104.931425,230.719543 106.190075,241.999224 106.488737,250.662605 L106.748016,258.18385 L108.325567,258.18385 C109.718778,258.18385 109.97751,258.456256 110.532716,260.508599 C110.878967,261.787484 111.361969,263.325647 111.605932,263.927347 C111.850441,264.529047 112.210368,265.751591 112.406194,266.643748 C112.819727,268.52652 116.15698,273.271743 117.617473,274.053405 C118.697253,274.631037 128.438794,274.172651 129.365961,273.500389 C129.666811,273.282136 130.590149,272.941902 131.417215,272.744435 C132.24428,272.546968 132.921468,272.143282 132.921468,271.84845 C132.921468,271.55307 133.205908,271.311843 133.553801,271.311843 C133.901693,271.311843 135.172377,270.30591 136.37742,269.076255 C138.22136,267.195123 138.645833,266.979058 139.056084,267.712038 C139.324115,268.19121 140.10742,269.238714 140.796641,270.040069 C141.919634,271.345757 142.44202,271.501652 145.82741,271.541036 C149.3676,271.582608 149.845679,271.436012 153.434006,269.207535 C158.279888,266.19849 163.865862,260.430378 167.111767,255.08455 C168.49732,252.801374 169.92554,250.617204 170.284919,250.229928 C170.644299,249.843199 171.553415,248.716927 172.305541,247.727405 C176.079848,242.762288 179.152353,240.234603 186.087779,236.390289 C188.903193,234.829152 189.654226,234.662864 193.882544,234.662864 C196.637241,234.662864 198.56159,234.438047 198.56159,234.115864 C198.56159,233.815015 198.939021,233.568865 199.400143,233.568865 C199.861812,233.568865 201.523054,232.913012 203.0924,232.111658 C206.630402,230.305465 209.515286,229.581784 213.057118,229.612416 C217.307315,229.649612 220.005672,230.315858 221.967764,231.812449 C223.117013,232.689289 224.732307,233.279502 226.428011,233.442508 C229.542634,233.741717 229.621403,233.646539 231.107057,227.788172 C232.603652,221.887686 232.140889,220.432667 227.250153,215.667206 C225.018389,213.492882 222.573841,211.558144 221.817339,211.368336 C221.060837,211.178527 220.441631,210.849233 220.441631,210.635903 C220.441631,210.42312 218.841653,209.93082 216.886125,209.541904 C214.569028,209.08133 213.330618,208.572073 213.330618,208.08032 C213.330618,207.075482 215.035073,205.124881 215.913557,205.124881 C216.298099,205.124881 216.612624,204.878731 216.612624,204.577882 C216.612624,204.277032 216.945201,204.030882 217.351623,204.030882 C217.758044,204.030882 219.245887,203.416601 220.657697,202.666118 C222.069506,201.915087 224.203904,201.144364 225.400743,200.952915 C226.597581,200.762012 227.709087,200.391146 227.870452,200.130227 C228.031818,199.868761 229.951244,199.654884 232.135966,199.654884 C235.725934,199.654884 236.274576,199.505553 237.847204,198.101952 C238.803909,197.247539 239.586667,196.010225 239.586667,195.352185 C239.586667,193.617649 236.56394,190.563203 233.235438,188.934785 C230.802925,187.744513 229.510908,187.507115 224.986116,187.419048 C222.035592,187.361066 219.366774,187.155395 219.055531,186.96121 C218.744834,186.767025 211.852621,186.544396 203.739502,186.465628 C187.731517,186.31028 186.872179,186.44703 186.255161,189.256967 C186.086685,190.023861 186.206478,192.46895 186.521551,194.690862 C186.836623,196.912228 186.968451,199.127577 186.814196,199.613312 C186.659942,200.099048 185.679169,200.956744 184.634944,201.519606 C183.156401,202.315491 182.531725,203.161152 181.812966,205.337664 C180.730451,208.615833 179.995282,209.828531 177.461026,212.515394 C176.43157,213.606658 175.43931,215.098326 175.255518,215.829118 C175.072272,216.560457 174.7025,217.158874 174.434469,217.158874 C174.165892,217.158874 173.937792,217.466835 173.926852,217.842624 C173.898955,218.813548 171.850983,221.081956 169.318369,222.947225 C168.127,223.825159 165.629394,226.08208 163.767949,227.962118 C161.751704,229.999145 159.91925,231.380866 159.233858,231.380866 C158.235581,231.380866 158.074763,231.036803 158.015687,228.782617 C157.711554,217.185677 157.528309,214.799118 156.879018,214.016908 C155.970997,212.923456 155.923955,205.588737 156.817207,204.511695 C157.918867,203.184673 159.286917,198.483211 158.927537,197.26012 C158.740463,196.621771 158.365767,193.00665 158.096096,189.226335 C157.656854,183.074777 157.04476,180.28672 155.762042,178.595397 C154.705236,177.202188 150.613122,171.283105 149.879046,170.086269 C149.21991,169.010868 149.0941,167.051515 149.235773,160.0625 C149.332592,155.284458 149.607734,150.976836 149.84732,150.490006 C150.086907,150.003176 150.806213,148.496739 151.445657,147.142915 C152.588342,144.721894 153.711335,142.758165 154.25943,142.219918 C155.298732,141.199763 157.625128,136.990601 157.894799,135.64334 C158.073669,134.747355 158.435783,134.014922 158.698891,134.014922 C158.961998,134.014922 159.177517,133.530828 159.177517,132.939521 C159.177517,132.348214 159.580656,130.932579 160.074051,129.794273 C163.247204,122.466118 163.827572,119.685719 163.81882,111.861435 C163.81335,106.811534 163.575405,104.195782 162.998319,102.83594 C162.404823,101.437809 162.186022,98.7799378 162.186022,92.9773651 C162.186022,85.3762575 162.241816,84.9753068 163.477492,83.6783705 C167.658768,79.2914331 170.635547,73.9264602 170.656333,70.738546 C170.660709,70.0832404 170.9725,69.2107759 171.348289,68.7994322 C172.477847,67.5637599 175.667957,61.5598913 177.822594,56.6144672 C179.602535,52.5294736 182.129133,46.9834438 183.055752,45.1274739 C183.506481,44.2249244 184.015192,42.1868036 184.185856,40.5988635 C184.356521,39.0103764 184.707148,37.5805192 184.964786,37.4213423 C185.638144,37.0050756 185.562658,24.6149857 184.886565,24.6149857 C184.585714,24.6149857 184.335735,25.1690964 184.331359,25.845735 C184.326436,26.5223736 184.142096,27.3308392 183.921108,27.641535 C183.127957,28.7563203 177.929259,31.7259816 176.770164,31.7259816 C176.119779,31.7259816 175.587547,31.9907295 175.587547,32.3145533 C175.587547,32.8916379 173.721727,32.839126 163.143274,31.9644735 C160.130939,31.7150416 159.177517,31.8031086 159.177517,32.3304163 C159.177517,32.7122221 158.439065,32.3172883 157.536514,31.4524818 C155.638967,29.6348018 155.422902,28.4439835 156.989513,28.4439835 C157.591214,28.4439835 158.083515,28.1978337 158.083515,27.8969838 C158.083515,27.596134 158.545731,27.3499842 159.110783,27.3499842 C160.103589,27.3499842 162.51477,26.4890067 166.097627,24.8545716 C167.045579,24.4218949 168.091992,24.0679861 168.422381,24.0679861 C168.753317,24.0679861 169.023535,23.8218362 169.023535,23.5209864 C169.023535,23.2201366 169.373069,22.9739867 169.79973,22.9739867 C170.775579,22.9739867 173.938339,21.1995197 173.943262,20.649238 C173.944903,20.4233272 174.28842,20.2389883 174.706876,20.2389883 C176.028977,20.2389883 184.841711,13.4479872 184.266266,12.8725435 C184.015192,12.6214707 181.999493,14.0201489 179.956445,15.8629908 C178.884323,16.8306333 177.282704,17.9076756 176.134548,18.4338893 C175.683273,18.6412022 174.988581,19.1318609 174.591459,19.5246067 C174.193789,19.9173525 173.516602,20.2389883 173.087206,20.2389883 C172.657263,20.2389883 172.305541,20.4309852 172.305541,20.665648 C172.305541,20.9003109 171.074789,21.5698385 169.570536,22.1534872 C168.066283,22.7371358 166.835531,23.3869715 166.835531,23.5981133 C166.835531,23.8087082 166.043474,24.154959 165.075829,24.3677419 C164.107637,24.5799778 162.938696,24.9388096 162.477574,25.1647204 C157.588479,27.559485 155.587549,27.8663519 154.468932,26.3927347 C153.281393,24.8277686 153.594824,23.5866263 155.628574,21.8006724 C156.68538,20.8729609 158.342793,18.7883451 159.312079,17.1675851 C160.281365,15.547372 161.262685,14.2219918 161.493519,14.2219918 C161.723806,14.2219918 161.912522,13.89051 161.912522,13.4851832 C161.912522,13.0798564 162.415763,12.157068 163.030592,11.4339344 C166.856864,6.93650298 168.273597,5.47820183 168.820051,5.47437283 C169.159191,5.47218483 169.742841,5.10077205 170.117537,4.64949731 C170.492233,4.19822257 171.230684,3.82899778 171.75854,3.82899778 C172.286396,3.82899778 173.024848,3.459773 173.399543,3.00849826 C174.126508,2.13220477 173.692189,2.02389883 171.62179,2.56488151 Z" id="Path" fill="#FFFFFF" opacity="0.5"></path>
                        </g>
                    </g>
                </g>
            </g>
        </g>
    </g>
</svg>