<?xml version="1.0" encoding="UTF-8"?>
<svg width="70px" height="70px" viewBox="0 0 70 70" version="1.1" xmlns="http://www.w3.org/2000/svg" xmlns:xlink="http://www.w3.org/1999/xlink">
    <title>44BAA1E3-DE9B-45FF-8F3B-E0DE1D0AF2E7</title>
    <defs>
        <polygon id="path-1" points="70 40.8134552 70 -7.97135892e-15 -1.99283973e-15 -7.97135892e-15 -1.99283973e-15 40.8134552"></polygon>
    </defs>
    <g id="Specifications" stroke="none" stroke-width="1" fill="none" fill-rule="evenodd">
        <g id="Teams" transform="translate(-624.000000, -1397.000000)">
            <g id="Group-6-Copy-11" transform="translate(624.000000, 1312.000000)">
                <g id="Group-3" transform="translate(0.000000, 48.000000)">
                    <g id="Assets-exportable/Logos/Club-logos/Eastern-Conference/Orlando-Magic/transparent" transform="translate(0.000000, 37.000000)">
                        <g id="Group" fill-rule="nonzero">
                            <rect id="Rectangle" x="0" y="0" width="70" height="70" rx="20"></rect>
                        </g>
                        <g id="Group-20" transform="translate(0.000000, 14.000000)">
                            <g id="Clipped">
                                <mask id="mask-2" fill="white">
                                    <use xlink:href="#path-1"></use>
                                </mask>
                                <g id="Path"></g>
                                <path d="M60.6760062,10.0086144 C61.191505,9.78171634 61.7952108,9.52158296 62.3513774,9.28893537 L64.149453,8.53602101 L58.2552933,6.62407571 L56.838513,-0.000560934517 L53.2740546,5.33056071 L47.231107,3.79149663 L49.26169,6.43041307 C41.6517719,5.46350219 33.199891,6.1774316 25.608624,8.43771724 L26.109819,6.86247288 L24.8129384,7.2353541 C14.4761773,10.1993321 5.42914496,18.2488826 1.20025963,28.2420713 L-1.99283973e-15,31.0803999 L2.33545086,29.0715532 C7.38750759,24.7317431 12.6013939,20.2518396 20.1695224,17.8528629 L18.0608293,22.7576743 L19.8994325,21.7505164 C21.5603596,20.8399794 23.4350027,20.1404941 25.4352952,19.6578099 L28.1361949,20.5855956 C32.3650802,22.0351906 36.0349943,23.2909828 39.63984,25.5974053 C39.6124944,29.5310988 41.2083531,33.4330995 44.0550958,36.3624398 C46.8498118,39.2368085 50.4965873,40.8134552 54.3354829,40.8134552 L54.4496331,40.8134552 C63.2626155,40.7469845 68.4592531,34.2568319 69.6999,27.8576909 C70.8148976,22.104466 69.0455699,14.1749555 60.6760062,10.0086144" id="Path" fill="#FEFEFE" fill-rule="nonzero" mask="url(#mask-2)"></path>
                            </g>
                            <g id="Group-19" transform="translate(1.864827, 1.820934)" fill-rule="nonzero">
                                <path d="M25.3790615,17.6959414 C30.3877861,16.9270404 35.386554,17.1525361 39.7626846,19.0008154 L40.2957127,17.8273403 C33.2157374,15.5468611 24.3160906,15.6639562 17.6868263,19.2957267 L19.5745111,14.9052922 C11.2423898,17.1582857 5.63570909,21.86074 0,26.7035681 C4.10898557,16.9907065 13.0434103,9.00622437 23.147664,6.10857689 L22.6334273,7.72000152 C31.4811877,4.83104853 41.1925067,4.2834362 49.0552661,5.58256055 L47.2138583,3.18512642 L51.7243327,4.33546288 L54.6259068,0 L55.7725971,5.36155235 L60.2080466,6.80091032 C60.2080466,6.80091032 56.977204,8.15500624 57.1317415,8.21853207 C73.9301877,15.1422871 68.5532096,38.1477542 52.5793372,38.2704586 C44.5000571,38.3369293 38.2317541,31.0317389 38.504789,23.3897073 C34.3972057,20.6844603 30.2751784,19.3823911 25.3790615,17.6958012" id="Path" fill="#C4CDD3"></path>
                                <path d="M55.4702534,8.22498282 C56.3945333,7.82181114 58.1205288,7.06875655 58.1205288,7.06875655 L58.2489828,7.01252286 L58.114639,6.9676481 C58.114639,6.9676481 55.3387143,6.05430647 54.7423007,5.86064383 C54.6526914,5.23197647 54.2136199,2.21162457 54.2136199,2.21162457 L54.1934262,2.06564136 L53.1838844,3.70889903 C53.1838844,3.70889903 52.6047195,4.64103196 52.2928399,5.14965933 C51.6355649,4.98208015 48.7672262,4.25076177 48.7672262,4.25076177 L48.6156336,4.21317916 L48.7109925,4.33602382 C48.7137972,4.33896872 49.8794191,5.84045019 50.5856357,6.75379182 C47.6985057,6.12652679 44.367957,5.77538179 40.5492551,5.77538179 C39.2957066,5.77538179 37.9899913,5.8129644 36.6323896,5.89107453 C31.4256551,6.18879053 26.3057253,7.15990841 21.3922194,8.93596732 L21.9541356,7.26396176 L21.8544295,7.29425222 C14.1649989,9.69757616 5.75645025,16.9103526 2.03885674,24.0422143 L2.12257621,24.1057402 C7.3783924,19.173443 14.4914628,15.2339998 20.8680261,13.8003915 L19.192655,17.7065992 L19.3226515,17.6444757 C22.2891537,16.2108673 26.1844232,15.5764504 30.1157328,15.5764504 C34.1366517,15.5764504 38.1950129,16.2411578 41.3320392,17.3843423 L40.1289749,20.0072721 C37.2693307,18.695106 33.1328593,17.8106525 29.7012022,17.8106525 C29.0903445,17.8106525 28.5010828,17.8381383 27.9449162,17.8973169 L27.936362,18.0029129 C31.9889736,19.1473595 36.1860259,20.4408745 39.5122274,23.1085388 C39.492174,23.3909694 39.4819369,23.6738206 39.4819369,23.9569523 C39.4833392,30.9774685 45.5407309,37.3317347 52.6480517,37.3332772 C52.6957311,37.3332772 52.7448129,37.3317347 52.7924923,37.3317347 C60.6263635,37.2393207 66.4309139,30.0524874 66.4323168,22.5593839 C66.4338588,17.0403492 63.2766389,11.3521928 55.4702534,8.22498282 Z" id="Path" fill="#120C0D"></path>
                                <path d="M51.1970543,21.0848273 C48.3040345,21.0848273 45.4097526,20.0239599 42.502429,18.9546785 C41.7368937,20.5760597 41.3469039,22.2755511 41.3469039,24.0039305 C41.3469039,24.9230218 41.4567069,25.85235 41.6805197,26.7801357 C41.9203193,26.7858853 42.1615211,26.7888302 42.4027229,26.7888302 C48.0152935,26.7888302 53.9714364,25.2280299 58.7824315,22.3738548 C58.2278075,21.3420158 57.5403823,20.3780498 56.8268736,19.4502641 C54.9536328,20.6353785 53.0760447,21.0848273 51.1970543,21.0848273 Z" id="Path" fill="#C4CDD3"></path>
                                <path d="M42.200506,27.8794271 L42.0113309,27.8794271 C43.7662145,32.4215944 47.7913404,35.4318495 52.700499,35.4997225 C54.2719571,31.6267502 56.0152013,27.3953406 59.9999399,25.4169246 C59.7919734,24.7189818 59.5363275,24.0396901 59.2547384,23.3706355 C54.1231692,26.3707937 48.1322483,27.8794271 42.200506,27.8794271 Z M54.3318368,13.6252396 C52.58705,12.9589897 51.4749973,12.7522853 51.3710842,12.733494 C50.882931,12.7999647 50.2199064,12.8650331 49.6840737,12.9720314 C52.6507161,14.1542009 54.8401837,15.5876691 57.0412908,18.0430197 C58.1721348,17.1484693 59.1658303,16.1354216 59.8547981,14.8911286 C57.8371166,12.9271566 54.037206,10.521028 44.5597966,9.77526559 C48.5619242,10.7277324 52.2419351,12.0124127 54.3809186,13.5312831 L54.3318368,13.6252396 Z M27.7596676,12.309708 C28.347527,12.2966662 28.9815232,12.2895143 29.6531021,12.2895143 C36.3864198,12.292319 46.7780122,13.0843585 50.8076255,17.8720749 L50.7397524,17.9529897 C49.3459704,17.1755344 46.557004,15.8879093 44.818107,15.8893116 C44.7618733,15.8893116 44.7069017,15.8907139 44.6534727,15.8936588 C44.0555165,16.5541592 43.5269759,17.2853374 43.0532667,18.042599 C45.7468743,19.0354531 48.473577,20.0224173 51.175879,20.0210165 C52.8729864,20.0210165 54.5598567,19.6336897 56.2308806,18.6148924 C51.5601192,13.5221679 43.6554299,11.3010075 36.1986469,11.3010075 C33.2378943,11.3010075 30.3464171,11.6507501 27.7596676,12.309708 L27.7596676,12.309708 Z M59.6220103,21.8413878 C60.9246405,20.9539893 62.0497349,20.027606 63.0709161,18.8368822 C62.4282254,17.6143255 61.3175751,16.2414382 60.5203469,15.5346607 C59.7779501,16.8440221 58.8275868,17.924943 57.6722019,18.8758672 C58.3524752,19.7834592 59.0717335,20.8427841 59.6220103,21.8413878" id="Shape" fill="#C4CDD3"></path>
                                <path d="M53.8425617,35.4524638 C56.208303,35.1634423 58.3833266,34.3556966 60.2118329,32.8020482 C60.493422,31.7543628 60.6133218,30.670497 60.6133218,29.5836864 C60.6133218,28.5460978 60.5035189,27.5041619 60.3172886,26.4911142 C56.7483427,28.2064519 55.2666342,31.9739686 53.8425617,35.4524638 L53.8425617,35.4524638 Z M61.6667568,30.2816292 C61.6667568,30.6400664 61.6580623,30.9983633 61.6408136,31.3568004 C63.0287058,29.4780905 63.772505,27.8464722 64.1842309,25.4460932 C63.1717441,25.5357025 62.1679518,25.7062266 61.2132413,26.0227339 C61.5252611,27.437551 61.6667568,28.8537704 61.6667568,30.2816292 Z M60.1133889,22.8346625 C60.4254087,23.5515369 60.7041932,24.2783678 60.9467974,25.0227279 C62.05885,24.6599435 63.1334603,24.473573 64.2931925,24.402755 C64.294735,24.3202976 64.294735,24.2393828 64.294735,24.1570657 C64.294735,22.6208063 64.0679773,21.4386368 63.5681846,19.9689883 C62.5038113,21.0586036 61.3801193,21.9863893 60.1133889,22.8346625 Z" id="Shape" fill="#C4CDD3"></path>
                                <path d="M64.292912,24.4033159 C63.1331799,24.4741339 62.0601121,24.6605044 60.9465169,25.0232888 C60.7039127,24.2775264 60.4265306,23.5520978 60.1131084,22.8352235 C61.3798388,21.9855479 62.5049332,21.0577622 63.5679041,19.9681469 C64.0675565,21.4393379 64.2943143,22.6213672 64.2943143,24.1576266 C64.2943143,24.2385414 64.2943143,24.3208586 64.292912,24.4033159 Z" id="Path" fill="#C4CDD3"></path>
                                <path d="M64.292912,24.4033159 C63.1331799,24.4741339 62.0601121,24.6605044 60.9465169,25.0232888 C60.7039127,24.2775264 60.4265306,23.5520978 60.1131084,22.8353637 C61.3798388,21.9855479 62.5049332,21.0577622 63.5679041,19.9681469 C64.0675565,21.4393379 64.2943143,22.6213672 64.2943143,24.1576266 C64.2943143,24.2385414 64.2943143,24.3208586 64.292912,24.4033159 Z M60.5199262,15.5343803 C61.3171544,16.2410175 62.4292071,17.6154473 63.0718978,18.8366018 C62.0493142,20.0273255 60.9242198,20.9551112 59.6214493,21.8409671 C59.0711726,20.8423634 58.3519143,19.7831788 57.6717812,18.8755867 C58.8271661,17.9246625 59.7775294,16.8437417 60.5199262,15.5343803" id="Shape" fill="#C4CDD3"></path>
                                <path d="M60.5199262,15.5343803 C61.3171544,16.2410175 62.4292071,17.6154473 63.0718978,18.8366018 C62.0493142,20.0273255 60.9242198,20.9551112 59.6214493,21.8409671 C59.0711726,20.8423634 58.3519143,19.7831788 57.6717812,18.8755867 C58.8271661,17.9246625 59.7775294,16.8437417 60.5199262,15.5343803 L60.5199262,15.5343803 Z M44.5592357,9.77484489 C54.0366451,10.5220097 57.8365557,12.9281383 59.8556395,14.8907079 C59.1652693,16.1350009 58.1715738,17.1480486 57.0421322,18.042599 C54.8410251,15.5887909 52.6501552,14.15364 49.6849151,12.9716107 C50.2193454,12.8660148 50.8822298,12.799544 51.3703831,12.7330733 C51.4744364,12.7518646 52.5864891,12.958569 54.3312759,13.6248189 L54.38176,13.5308624 C52.2413741,12.011992 48.5613632,10.728714 44.5592357,9.77484489 Z" id="Shape" fill="#C4CDD3"></path>
                                <path d="M44.5592357,9.77484489 C54.0366451,10.5220097 57.8365557,12.9281383 59.8556395,14.8907079 C59.1652693,16.1350009 58.1715738,17.1480486 57.0421322,18.042599 C54.8410251,15.5887909 52.6501552,14.15364 49.6849151,12.9716107 C50.2193454,12.8660148 50.8822298,12.799544 51.3705233,12.7330733 C51.4744364,12.7518646 52.5864891,12.958569 54.3312759,13.6248189 L54.38176,13.5308624 C52.2413741,12.011992 48.5613632,10.728714 44.5592357,9.77484489 Z M42.4025827,26.7892509 C42.1613809,26.7892509 41.920179,26.786306 41.6805197,26.7805564 C41.4565666,25.8513684 41.3467637,24.9235827 41.3467637,24.0044915 C41.3467637,22.2745694 41.7367534,20.5750781 42.5036911,18.9550992 C45.4096124,20.0229783 48.3038943,21.085248 51.1969141,21.085248 C53.0759045,21.085248 54.9534925,20.6357992 56.8267333,19.4492825 C57.5401018,20.3784705 58.2276673,21.3424365 58.7822913,22.3742755 C53.9712962,25.2284506 48.015013,26.7892509 42.4025827,26.7892509 Z" id="Shape" fill="#C4CDD3"></path>
                                <path d="M42.4025827,26.7892509 C42.1613809,26.7892509 41.920179,26.786306 41.6805197,26.7805564 C41.4565666,25.8513684 41.3467637,24.9235827 41.3467637,24.0044915 C41.3467637,22.2745694 41.7367534,20.5750781 42.5036911,18.9550992 C45.4096124,20.0229783 48.3038943,21.085248 51.1969141,21.085248 C53.0759045,21.085248 54.9534925,20.6357992 56.8267333,19.4492825 C57.5401018,20.3784705 58.2276673,21.3424365 58.7822913,22.3742755 C53.9712962,25.2284506 48.015013,26.7892509 42.4025827,26.7892509 Z" id="Path" fill="#C4CDD3"></path>
                                <path d="M52.7006393,35.4993018 C47.7914806,35.4314288 43.7662145,32.4211737 42.0114711,27.8790064 L42.2006463,27.8790064 C48.1323886,27.8790064 54.1233094,26.3702328 59.2548786,23.3700745 C59.5364678,24.0406718 59.7921137,24.7184209 60.0000801,25.4165039 C56.0153416,27.3949199 54.2719571,31.6263295 52.7006393,35.4993018 Z" id="Path" fill="#C4CDD3"></path>
                                <path d="M52.7006393,35.4993018 C47.7914806,35.4314288 43.7662145,32.4211737 42.0114711,27.8790064 L42.2006463,27.8790064 C48.1323886,27.8790064 54.1233094,26.3702328 59.2548786,23.3700745 C59.5364678,24.0406718 59.7921137,24.7184209 60.0000801,25.4165039 C56.0153416,27.3949199 54.2719571,31.6263295 52.7006393,35.4993018 Z M61.6408136,31.3572211 C61.6580623,30.9973816 61.6667568,30.6389445 61.6667568,30.2820499 C61.6667568,28.8541911 61.5252611,27.4365693 61.2132413,26.0217522 C62.1679518,25.7052449 63.1717441,25.5361232 64.1842309,25.4451116 C63.772505,27.8468929 63.0287058,29.4785112 61.6408136,31.3572211 Z" id="Shape" fill="#C4CDD3"></path>
                                <path d="M61.6408136,31.3572211 C61.6580623,30.9973816 61.6667568,30.6389445 61.6667568,30.2820499 C61.6667568,28.8541911 61.5252611,27.4365693 61.2132413,26.0217522 C62.1679518,25.7052449 63.1717441,25.5361232 64.1842309,25.4451116 C63.772505,27.8468929 63.0287058,29.4785112 61.6408136,31.3572211 Z M56.2303197,18.6141912 C54.5592958,19.6329886 52.8738278,20.0217162 51.1753181,20.0217162 C48.473016,20.0217162 45.7463134,19.0361542 43.0527058,18.0418978 C43.526415,17.2846362 44.0549556,16.5548604 44.6529118,15.8929577 C44.7063408,15.8915553 44.7613123,15.8886104 44.817546,15.8886104 C46.556443,15.8872081 49.3454095,17.1762356 50.7391915,17.9536908 L50.8070646,17.8713737 C46.7789938,13.0835171 36.3858588,12.2916178 29.6525411,12.2886729 C28.9823646,12.2886729 28.346966,12.2973674 27.7591067,12.3090068 C30.3472585,11.6514513 33.2373334,11.301708 36.1994883,11.301708 C43.6564116,11.3003063 51.5609606,13.5214668 56.2303197,18.6141912" id="Shape" fill="#C4CDD3"></path>
                                <path d="M56.2303197,18.6141912 C54.5592958,19.6329886 52.8738278,20.0217162 51.1753181,20.0217162 C48.473016,20.0217162 45.7463134,19.0361542 43.0527058,18.0418978 C43.526415,17.2846362 44.0549556,16.5548604 44.6529118,15.8929577 C44.7063408,15.8915553 44.7613123,15.8886104 44.817546,15.8886104 C46.556443,15.8872081 49.3454095,17.1762356 50.7391915,17.9536908 L50.8070646,17.8713737 C46.7789938,13.0835171 36.3858588,12.2916178 29.6525411,12.2886729 C28.9823646,12.2886729 28.346966,12.2973674 27.7591067,12.3090068 C30.3472585,11.6514513 33.2373334,11.301708 36.1994883,11.301708 C43.6564116,11.3003063 51.5609606,13.5214668 56.2303197,18.6141912 L56.2303197,18.6141912 Z M60.2116927,32.8014873 C58.3831864,34.3551357 56.2081628,35.1642837 53.8424215,35.4519029 C55.266494,31.9734077 56.7482025,28.2074336 60.3171484,26.4905533 C60.5033786,27.503601 60.6131816,28.5455369 60.6131816,29.5831255 C60.6131816,30.6699361 60.4932818,31.7538018 60.2116927,32.8014873" id="Shape" fill="#C4CDD3"></path>
                                <path d="M60.2116927,32.8014873 C58.3831864,34.3549954 56.2081628,35.1642837 53.8424215,35.4519029 C55.266494,31.9734077 56.7482025,28.2074336 60.3171484,26.4905533 C60.5033786,27.503601 60.6131816,28.5455369 60.6131816,29.5831255 C60.6131816,30.6699361 60.4932818,31.7538018 60.2116927,32.8014873 L60.2116927,32.8014873 Z M50.848153,9.23887196 L52.9091667,8.51779064 L54.4733326,10.2938496 L54.2914496,7.97578766 L56.2873948,7.10437589 L54.1151759,6.39184882 L53.7786152,4.07673184 L52.6188831,5.95698434 L50.4193186,5.39478772 L51.8780288,7.27055274 L50.848153,9.23887196 Z" id="Shape" fill="#C4CDD3"></path>
                                <path d="M39.8684208,10.908774 L41.2997854,10.2019965 L42.4927529,11.2627237 L42.2602456,9.68467467 L43.638041,8.88267854 L42.0651806,8.61385068 L41.7258152,7.05739762 L40.9877656,8.47221471 L39.3976565,8.3103851 L40.5140564,9.45062474 L39.8684208,10.908774 Z M23.7739474,14.0765115 L24.7170186,13.6112163 L25.4998027,14.3091591 L25.3466675,13.2715704 L26.2522963,12.7426092 L25.2182135,12.5649332 L24.9942604,11.5416484 L24.5076497,12.4680317 L23.4633299,12.3653807 L24.1970323,13.1154904 L23.7739474,14.0765115 Z" id="Shape" fill="#FEFEFE"></path>
                                <path d="M59.4074528,28.3194803 L59.4060505,28.1273602 L58.0773368,30.3542702 L58.4586321,28.3932431 L58.3646755,28.3483684 C56.4178121,30.711305 55.6740129,32.4092538 55.0689048,34.50182 L55.0400167,34.6016664 L55.1381802,34.568431 C57.3233006,33.8096268 58.4513399,32.9324655 58.91355,32.5653338 L58.9236468,32.5566394 L58.9293964,32.5451402 C59.2543177,31.8399053 59.4074528,30.4106441 59.4088552,28.6591261 C59.4088552,28.5463783 59.4074528,28.4336304 59.4074528,28.3194803 Z M54.9649917,23.1628092 C52.8390499,23.5948691 50.357756,23.8492529 48.0844287,23.8492529 C47.7421184,23.8492529 47.4055577,23.8435033 47.0762891,23.8318639 L51.9536147,22.3881587 L51.9407132,22.282703 C48.7199675,22.1309702 46.2343264,22.070249 43.0872033,20.5947108 L43.0424688,20.5731148 L43.0177876,20.616447 C42.549828,21.4574281 42.2826829,22.6352503 42.2826829,23.828919 C42.2826829,24.5068083 42.3693473,25.1903071 42.5541753,25.8175721 L42.5658146,25.8551547 L42.6033973,25.856557 C42.6062019,25.856557 42.7174072,25.8593617 42.9239713,25.8593617 C44.3306549,25.8593617 50.109262,25.7048242 54.9996294,23.2639177 L54.9649917,23.1628092 Z M56.0407238,27.1213241 C53.581026,28.9494097 51.7295214,30.4278929 48.1029395,31.1113916 C51.4608337,29.3656231 53.7139675,28.1648026 55.8312148,26.0186671 L55.7662866,25.9348074 C52.0111105,28.1228727 47.1207432,29.0592126 43.6704349,29.1893495 L43.5764784,29.1922944 L43.6271028,29.2718068 C46.4679556,33.7690993 50.0613021,34.172271 51.2297287,34.172271 L51.2370209,34.172271 C51.4796251,34.172271 51.6153712,34.1564246 51.6183161,34.1564246 L51.642857,34.1519371 L51.6558987,34.1317435 C53.1810797,31.7198653 54.1500941,29.3974562 56.1129442,27.2008366 L56.0407238,27.1213241 L56.0407238,27.1213241 Z" id="Shape" fill="#0077C0"></path>
                                <path d="M53.5224083,12.1342757 C53.3448726,12.0404594 53.1628493,11.9522525 52.9736741,11.8669904 C55.8780528,12.7297077 57.8365557,13.851156 58.9313596,14.7037765 C58.7623781,14.9538131 58.5746053,15.1951551 58.3824852,15.4293453 C57.0377849,14.0347218 55.3956492,12.8988294 53.5224083,12.1342757 L53.5224083,12.1342757 Z M62.4698748,28.4082481 L62.4596378,28.2189327 C62.6171201,27.4371303 62.7051868,26.6523829 62.7326726,25.8777323 C62.9376942,25.822901 63.1486056,25.7809711 63.359517,25.7418459 C63.1341615,26.702867 62.8539747,27.5772237 62.4698748,28.4082481 Z M63.6830359,23.3097741 C63.3045454,23.3602582 62.9536808,23.4152298 62.6070233,23.490395 C62.5290534,22.9281984 62.4163056,22.3717513 62.2734075,21.824139 C62.6503555,21.5076317 63.0114571,21.1853748 63.3767657,20.8413817 C63.5862747,21.6492677 63.6743415,22.4079316 63.6830359,23.3097741 Z M62.3874174,18.5377639 C62.065441,18.8847019 61.7534212,19.1925147 61.4371944,19.4799937 C61.0847873,18.7227321 60.6730613,17.9959012 60.1965474,17.3094576 C60.4449012,17.0103392 60.6847007,16.7009838 60.9099159,16.3773246 C61.5165666,17.0493242 62.0437048,17.8354739 62.3874174,18.5377639 Z" id="Shape" fill="#FEFEFE"></path>
                            </g>
                        </g>
                    </g>
                </g>
            </g>
        </g>
    </g>
</svg>