<?xml version="1.0" encoding="UTF-8"?>
<svg width="80px" height="80px" viewBox="0 0 80 80" version="1.1" xmlns="http://www.w3.org/2000/svg" xmlns:xlink="http://www.w3.org/1999/xlink">
    <title>161D0B5A-2BD9-4F3E-8B2A-3A641D32D972</title>
    <g id="iOS" stroke="none" stroke-width="1" fill="none" fill-rule="evenodd">
        <g id="Explore-players---Empty-state" transform="translate(-16.000000, -220.000000)">
            <g id="Container/Player-&amp;-Team-tiles/Empty-State" transform="translate(0.000000, 208.000000)">
                <g id="Group-2" transform="translate(8.000000, 4.000000)">
                    <g id="Placeholder/Empty-state/Player" transform="translate(8.000000, 8.000000)">
                        <rect id="Mask" fill="#FF8784" opacity="0.5" x="0" y="0" width="80" height="80" rx="8"></rect>
                        <g id="directions_run" transform="translate(20.000000, 20.000000)" fill="#FFFFFF">
                            <path d="M28.5923385,14.8442056 L26.7764437,14.8442056 L26.1452258,15.4708136 C28.3750715,18.0710079 29.731275,21.4418844 29.731275,25.1352124 C29.731275,33.3451489 23.0760435,40 14.8656375,40 C6.65523156,40 0,33.3451489 0,25.1352124 C0,16.9252759 6.65523156,10.2704248 14.8656375,10.2704248 C18.5591767,10.2704248 21.9279588,11.6242639 24.5283019,13.8516952 L25.1595197,13.2250872 L25.1595197,11.41387 L36.5900515,0 L40,3.40975359 L28.5923385,14.8442056 L28.5923385,14.8442056 Z M15,14.1666667 C9.01518519,14.1666667 4.16666667,19.0151852 4.16666667,25 C4.16666667,30.9824074 9.01518519,35.8333333 15,35.8333333 C20.9824074,35.8333333 25.8333333,30.9824074 25.8333333,25 C25.8333333,19.0151852 20.9824074,14.1666667 15,14.1666667 L15,14.1666667 Z" id="Icon-Shape" fill-opacity="0.5" transform="translate(20.000000, 20.000000) scale(1, -1) translate(-20.000000, -20.000000) "></path>
                            <g id="Group" transform="translate(5.833333, 5.833333)" fill-rule="nonzero">
                                <path d="M13.75,8.40277778 L18.3333333,8.40277778 C18.1824417,7.00520833 17.6637517,5.703125 16.8810014,4.58333333 C15.2494856,5.30381944 14.061214,6.71006944 13.75,8.40277778 Z" id="Path"></path>
                                <path d="M4.58333333,8.40277778 C4.27211934,6.71006944 3.08384774,5.30381944 1.45233196,4.58333333 C0.669581619,5.703125 0.150891632,7.00520833 0,8.40277778 L4.58333333,8.40277778 Z" id="Path"></path>
                                <path d="M11.7362244,8.40277778 C12.0153616,5.97113594 13.3761555,3.90564867 15.2777778,2.76963066 C13.8820917,1.23929236 12.0153616,0.225325885 9.93055556,0 L9.93055556,8.40277778 L11.7362244,8.40277778 Z" id="Path"></path>
                                <path d="M6.59710894,8.40277778 L8.40277778,8.40277778 L8.40277778,0 C6.31797172,0.225325885 4.44251858,1.23929236 3.05555556,2.76963066 C4.95717781,3.90564867 6.31797172,5.97113594 6.59710894,8.40277778 Z" id="Path"></path>
                                <path d="M11.7362244,9.93055556 L9.93055556,9.93055556 L9.93055556,18.3333333 C12.0153616,18.1080074 13.8908148,17.094041 15.2777778,15.5637027 C13.3761555,14.4276847 12.0153616,12.3621974 11.7362244,9.93055556 Z" id="Path"></path>
                                <path d="M1.45233196,13.75 C3.07441701,13.0295139 4.27211934,11.6145833 4.58333333,9.93055556 L0,9.93055556 C0.150891632,11.328125 0.669581619,12.6302083 1.45233196,13.75 Z" id="Path"></path>
                                <path d="M13.75,9.93055556 C14.061214,11.6232639 15.2494856,13.0295139 16.8810014,13.75 C17.6637517,12.6302083 18.1824417,11.328125 18.3333333,9.93055556 L13.75,9.93055556 L13.75,9.93055556 Z" id="Path"></path>
                                <path d="M6.59710894,9.93055556 C6.31797172,12.3621974 4.95717781,14.4276847 3.05555556,15.5637027 C4.45124162,17.094041 6.31797172,18.1080074 8.40277778,18.3333333 L8.40277778,9.93055556 L6.59710894,9.93055556 Z" id="Path"></path>
                            </g>
                        </g>
                    </g>
                </g>
            </g>
        </g>
    </g>
</svg>