<?xml version="1.0" encoding="UTF-8"?>
<svg width="80px" height="81px" viewBox="0 0 80 81" version="1.1" xmlns="http://www.w3.org/2000/svg" xmlns:xlink="http://www.w3.org/1999/xlink">
    <title>01D68828-8FB3-4555-B30E-D87598C50E20</title>
    <g id="Specifications" stroke="none" stroke-width="1" fill="none" fill-rule="evenodd">
        <g id="Teams" transform="translate(-624.000000, -2997.000000)" fill-rule="nonzero">
            <g id="Group-6-Copy-25" transform="translate(624.000000, 2912.000000)">
                <g id="Group-3" transform="translate(0.000000, 48.000000)">
                    <g id="Group" transform="translate(0.000000, 37.000000)">
                        <rect id="Rectangle" x="0" y="0" width="80" height="80" rx="20"></rect>
                        <g id="Group-17">
                            <path d="M40.0678287,0.891910464 L39.9994774,0.891910464 C18.4266152,0.894418766 0.928280846,18.3764491 0.890447288,39.9660334 L0.890447288,40.0343846 C0.89295559,61.6289855 18.3710145,79.1440419 39.9564182,79.1693339 L40.0095106,79.1693339 C61.5873895,79.1616 79.0832155,61.674553 79.1110159,40.0772348 L79.1110159,40.0268597 C79.1059993,18.4422921 61.6404819,0.932252325 40.0678287,0.891910464 Z" id="Path" fill="#FEFEFE"></path>
                            <path d="M79.1103888,40.0554962 L79.1103888,40.0782799 C79.0850968,61.6755981 61.5892707,79.1626451 40.0113919,79.1676617 L39.9582995,79.1676617 C18.3728957,79.144878 0.892119489,61.6275223 0.889611187,40.0354298 L0.889611187,39.9670785 C0.927653771,18.3774943 18.4284964,0.892746565 39.9986413,0.892746565 L40.0669926,0.892746565 C61.6423631,0.933297451 79.1053722,18.4406199 79.1103888,40.0276958 L79.1103888,40.0554962 L79.1103888,40.0554962 Z M79.9974917,39.9417865 C79.9469076,17.8716533 62.0543518,0.00250830222 40.0013587,0 L39.9152403,0 C17.8572306,0.0505840948 0.00752490666,17.9575627 0.00250830222,40.0101377 L0,40.0529879 L0,40.0782799 C0.0278003496,62.1636719 17.9203562,80.0478668 39.9886081,80.058109 L40.0442088,80.058109 C62.1124608,80.0303087 79.9824419,62.1333633 79.9974917,40.0554962 C79.9974917,40.0404464 80,40.0251875 80,40.0024038 C79.9974917,40.0024038 80,39.987354 79.9974917,39.9417865 Z" id="Shape" fill="#C4CDD3"></path>
                            <path d="M26.9253702,31.1411991 C30.9896559,27.0767044 32.6984368,22.3243078 32.6984368,22.3243078 L33.6058151,19.0235911 L33.820693,18.2547965 L29.6577474,15.9229115 C29.6577474,15.9229115 27.231174,14.2358692 21.8019539,17.387342 C15.4425716,21.1380899 10.2712886,25.9891464 7.59702035,31.1361825 C6.11335958,33.986659 4.93801097,37.2696085 4.32891158,41.00029 C4.51849742,48.0645052 6.74775102,54.6176537 10.4608744,60.0834533 C9.40174379,49.905599 19.2315712,38.7568227 26.9253702,31.1411991 L26.9253702,31.1411991 Z M58.2559461,17.3862968 C52.826726,14.2348241 50.3976443,15.9218664 50.3976443,15.9218664 L46.237207,18.2537513 L46.4495766,19.0252633 L47.3569549,22.325771 C47.3569549,22.325771 49.0657358,27.0756593 53.1325298,31.140154 C60.8037541,38.7329938 70.5980472,49.8364117 69.6097761,59.9912732 C73.3379493,54.4598397 75.5519441,47.8280977 75.6809126,40.6829898 C75.0565544,37.0814859 73.9014812,33.9047211 72.4608796,31.1351374 C69.7841031,25.9906095 64.6101027,21.1370447 58.2559461,17.3862968 Z" id="Shape" fill="#002A5B"></path>
                            <path d="M45.1968887,11.2854788 C59.4626485,12.8991532 68.837219,21.0003423 73.6801235,28.185792 C70.0378597,17.8160526 61.7475028,9.63898738 51.3110843,6.15119314 C49.0084629,6.83157012 46.4556383,8.26297459 45.1968887,11.2854788 Z M34.8601752,11.2854788 C33.5939006,8.24792477 31.0208006,6.81631128 28.7106543,6.14095091 C18.2086019,9.64400398 9.88020244,17.8969454 6.26573894,28.3553115 C11.0733182,21.1293108 20.483423,12.9091864 34.8601752,11.2854788 Z M37.1954046,10.8828963 L40.0262327,6.71200771 L42.8622864,10.8828963 C43.9995924,7.77448273 45.7915653,6.05964011 47.5887639,5.12634266 C45.1546656,4.60022627 42.6296413,4.31448884 40.0389832,4.31175515 C37.4355745,4.30926321 34.8977997,4.59520967 32.45116,5.12111703 C34.2533751,6.05441448 36.0528729,7.76173219 37.1954046,10.8828963 Z" id="Shape" fill="#E21836"></path>
                            <path d="M59.4151998,42.1720852 C53.6145419,32.7784934 40.4407296,23.2937666 40.028741,22.9977869 C39.6167523,23.2937666 26.4431491,32.7784934 20.6422821,42.1720852 C12.8119897,54.8486266 13.8280611,62.1605366 15.8551874,66.3339334 C20.9002192,70.9776369 27.2874018,74.181993 34.3670848,75.3050853 L37.4203157,32.0069814 L39.9656154,29.4524847 L39.9984323,29.4171594 L39.9984323,29.4196677 L40.0009406,29.4171594 L40.0337576,29.4524847 L42.5765489,32.0069814 L45.6525636,75.2722684 L45.6097134,75.2950521 C52.7449971,74.1669432 59.1802555,70.9345777 64.2505794,66.2352735 C66.2446797,62.0468269 67.1901006,54.752475 59.4151998,42.1720852 Z" id="Path" fill="#002A5B"></path>
                            <path d="M42.577176,32.0059363 L40.0343846,29.4514395 L40.062185,78.4580212 L45.6101315,75.293798 L45.6506823,75.2710142 L42.577176,32.0059363 Z M40.012855,19.7100298 L38.9033494,20.5296176 L34.2500307,23.9643194 L35.4682295,19.5354938 L35.6780908,18.7692075 L36.0875711,17.2845016 L34.7353872,16.5535405 L30.3575637,14.1938552 C32.5667509,13.7055724 34.8238048,13.3895263 37.1036425,13.2427906 L38.2183738,13.1744394 L38.2637323,13.0810051 L38.7087469,12.1677741 L38.7793974,12.026264 L40.0281139,9.48681704 L41.3171722,12.1121734 L41.3449726,12.1677741 L41.7947948,13.0810051 L41.8378539,13.1744394 L42.9550936,13.2427906 C45.2324229,13.3895263 47.4919852,13.7055724 49.698455,14.1938552 L45.3233489,16.5535405 L43.9684476,17.2845016 L44.377928,18.7692075 L44.5902976,19.5354938 L45.8087054,23.9643194 L41.1553867,20.5296176 L40.045672,19.7100298 L40.045672,19.6872461 L40.0281139,19.6999966 L40.012855,19.6872461 L40.012855,19.7100298 L40.012855,19.7100298 Z" id="Shape" fill="#C4CDD3"></path>
                            <path d="M40.045254,19.6876641 L40.045254,19.7104479 L41.1547596,20.5298266 L45.8080783,23.9645284 L44.5898795,19.5359118 L44.3800182,18.7669082 L43.9705379,17.2849196 L45.3227218,16.5564668 L49.7005453,14.1940642 C47.4888498,13.7084987 45.2343042,13.3897353 42.9544665,13.2432086 L41.8397352,13.1723491 L41.7943767,13.0812141 L41.3443455,12.1707004 L41.3165451,12.1125914 L40.0274868,9.4897434 L38.7814877,12.026473 L38.7789794,12.026473 L38.7081198,12.1707004 L38.2633143,13.0812141 L38.2177468,13.1723491 L37.1032245,13.2432086 C34.8233868,13.3897353 32.5661238,13.7084987 30.3571457,14.1940642 L34.7347601,16.5564668 L36.0896614,17.2849196 L35.6776727,18.7669082 L35.4678114,19.5359118 L34.2496127,23.9645284 L38.9027223,20.5298266 L40.012437,19.7104479 L40.012437,19.6876641 L40.0274868,19.7002056 L40.045254,19.6876641 L40.045254,19.6876641 Z" id="Path" fill="#C4CDD3"></path>
                        </g>
                    </g>
                </g>
            </g>
        </g>
    </g>
</svg>