<?xml version="1.0" encoding="UTF-8"?>
<svg width="80px" height="80px" viewBox="0 0 80 80" version="1.1" xmlns="http://www.w3.org/2000/svg" xmlns:xlink="http://www.w3.org/1999/xlink">
    <title>6F459E43-B9E3-442F-818C-23B73ECCDFC0</title>
    <g id="Specifications" stroke="none" stroke-width="1" fill="none" fill-rule="evenodd">
        <g id="Teams" transform="translate(-624.000000, -397.000000)" fill-rule="nonzero">
            <g id="Group-6-Copy" transform="translate(624.000000, 312.000000)">
                <g id="Group-3" transform="translate(0.000000, 48.000000)">
                    <g id="Group" transform="translate(0.000000, 37.000000)">
                        <rect id="Rectangle" x="0" y="0" width="80" height="80" rx="20"></rect>
                        <g id="Group-13" transform="translate(10.000000, 0.000000)">
                            <path d="M16.122471,68.558102 C15.7651089,68.2642165 15.6157112,67.7890196 15.7414367,67.3439829 L19.9622718,52.3696716 C19.9857686,52.2823476 20.0199617,52.1981799 20.0639744,52.1190973 L18.1256623,49.0231286 C17.9482087,48.7401147 17.9026179,48.3966052 17.9957284,48.0769433 L18.2664679,47.1674061 L15.6113275,46.9966158 C13.1143523,46.813025 12.2242788,46.4845956 11.6308965,46.1584457 C9.12743334,44.77792 8.47338014,40.81555 8.33047039,39.6336951 L8.17248059,38.3029687 C8.09445012,37.7628926 8.23525567,37.235617 8.56000273,36.8554595 C8.81338259,36.5615739 9.16215252,36.3735994 9.53897834,36.3304634 C3.76524919,31.1194305 -1.45384987,24.6444791 0.369608372,15.5185958 C2.38139185,5.44003928 10.5460099,2.40246191 10.8925002,2.2770871 C11.0224341,2.22956741 11.1565764,2.20799944 11.2866856,2.20799944 C11.7068228,2.20799944 12.1073208,2.43490154 12.3152851,2.82365112 C12.4602991,3.09596872 12.4885303,3.4005506 12.4127794,3.67918077 C15.1089515,1.39788529 17.6860614,0.401900787 18.7667397,0.0561118028 C18.8836977,0.0171842396 19.0050395,0 19.1219975,0 C19.5701905,0 19.9903277,0.257062196 20.1853162,0.682635151 C20.4299286,1.21850287 20.2328359,1.85589788 19.7260761,2.16047976 C17.2638201,3.64463694 15.1198232,5.66466184 13.5020498,7.98944397 C15.4684177,7.53143138 16.7873958,7.48163215 17.2485647,7.48163215 C17.4067298,7.48163215 17.4868645,7.48812008 17.4868645,7.48812008 C18.0628872,7.52266391 18.5307194,7.97418857 18.5805186,8.54687966 C18.632422,9.1193954 18.2599799,9.64439145 17.6990373,9.78046257 C17.6687018,9.78905469 14.459282,10.5991688 10.9163477,13.1355977 C10.2470392,15.1707026 9.90931624,17.2966386 9.90931624,19.4550141 C9.90931624,23.5469673 11.221631,27.74904 13.5108172,30.9810798 C14.0565045,31.7524417 14.5957039,32.4242052 15.1610303,33.0379281 C14.9421942,28.8356801 16.1484227,22.2700731 23.7606901,19.2239036 C23.9037752,19.1655123 24.0508933,19.1395606 24.1960826,19.1395606 C24.6248119,19.1395606 25.0363569,19.377159 25.237658,19.7834435 C25.510677,20.3235196 25.3200722,20.9824826 24.8024408,21.2979361 L24.7461536,21.3302004 C23.5723649,22.0929702 22.5847971,23.0780831 21.8311455,24.2189062 C22.6584439,23.9639482 23.3708884,23.8796051 23.8516964,23.8234933 L23.9427028,23.8126216 C23.9881183,23.8061337 24.0358133,23.8040295 24.0812288,23.8040295 C24.5685247,23.8040295 25.0125094,24.1086114 25.1792666,24.5774957 C25.3633835,25.0895159 25.1641866,25.6599274 24.7049465,25.9515334 L24.666019,25.9752056 C24.6502375,25.9866033 24.6335793,25.9967736 24.6162197,26.005541 C22.1799154,27.4076347 20.824114,29.03891 20.5880937,30.8579845 C20.3282259,32.8455698 21.4304721,34.7165477 22.2209472,35.7730278 C24.2697294,33.4094934 25.6037875,29.3715478 25.9762296,27.8505673 C26.1061635,27.323467 26.578204,26.962598 27.1088112,26.962598 C27.1544021,26.962598 27.1998176,26.9647022 27.2452331,26.9711901 C27.8300232,27.0381736 28.2740079,27.5309053 28.2761121,28.1185011 C28.3064475,33.081064 26.9702852,36.4709183 25.6015079,38.6356064 C27.6523943,39.6726227 29.662249,39.7331182 30.0974661,39.7331182 C30.1472654,39.7331182 30.2165284,39.731014 30.2317838,39.731014 C30.2447596,39.731014 30.3184064,39.7331182 30.3703098,39.7331182 C30.8057023,39.7331182 32.8153816,39.6726227 34.866268,38.6356064 C33.4974907,36.4709183 32.1613284,33.081064 32.1916638,28.1185011 C32.193768,27.5309053 32.6356485,27.0381736 33.2202633,26.9711901 C33.2679583,26.9647022 33.3133738,26.962598 33.3589647,26.962598 C33.8895719,26.962598 34.3616124,27.323467 34.4894421,27.8505673 C34.8639884,29.3715478 36.1980465,33.4094934 38.2468287,35.7730278 C39.0350242,34.7186519 40.1374458,32.8455698 39.8796822,30.8579845 C39.6436619,29.03891 38.2880358,27.4076347 35.8515562,26.005541 C35.8364761,25.9969489 35.7779094,25.9601256 35.7779094,25.9601256 C35.3167405,25.6685195 35.1131599,25.0938996 35.2949972,24.581704 C35.4617545,24.1129951 35.8992512,23.8040295 36.3886513,23.8040295 C36.4342422,23.8040295 36.4796576,23.8061337 36.5250731,23.8126216 L36.6160795,23.8234933 C37.0946079,23.8796051 37.809332,23.9639482 38.6366304,24.2189062 C37.8829788,23.0780831 36.895411,22.0929702 35.7216223,21.33248 L35.6674393,21.2979361 C35.1477037,20.9824826 34.9570989,20.3235196 35.2278384,19.7834435 C35.431419,19.377159 35.842964,19.1395606 36.2716933,19.1395606 C36.4168826,19.1395606 36.564176,19.1655123 36.7070858,19.2239036 C44.3193532,22.2700731 45.5255816,28.8356801 45.3046414,33.0379281 C45.872072,32.4243806 46.4112714,31.7524417 46.957134,30.9810798 C49.2461449,27.74904 50.558635,23.5469673 50.558635,19.4550141 C50.558635,17.2945344 50.2207367,15.1707026 49.549324,13.1355977 C45.9869259,10.5798804 42.8011783,9.78905469 42.7687386,9.78046257 C42.207796,9.64439145 41.8353539,9.1193954 41.8851531,8.54687966 C41.9370565,7.97436392 42.4048887,7.52266391 42.9788072,7.48812008 C42.9788072,7.48812008 43.0610461,7.48163215 43.2192112,7.48163215 C43.6782759,7.48163215 44.9993581,7.53143138 46.9636219,7.98944397 C45.3479527,5.66466184 43.2039558,3.64463694 40.7416998,2.16047976 C40.23494,1.85589788 40.0378473,1.22060706 40.2824597,0.682635151 C40.3753949,0.479229866 40.5247926,0.306686072 40.7129425,0.185519648 C40.9010924,0.0645285732 41.1199284,0 41.3436742,0 C41.4627364,0 41.581974,0.0171842396 41.7010362,0.0561118028 C42.7817145,0.401900787 45.3588244,1.39788529 48.0549965,3.67918077 C47.9792456,3.4005506 48.0051973,3.09596872 48.1503866,2.82365112 C48.3581756,2.43490154 48.7611285,2.20799944 49.1812656,2.20799944 C49.3111995,2.20799944 49.4453418,2.22956741 49.5752757,2.2770871 C49.921766,2.40246191 58.0841045,5.44003928 60.0981675,15.5185958 C61.9218011,24.6444791 56.7025267,31.1194305 50.9287976,36.3304634 C51.3056234,36.3735994 51.6543933,36.5594697 51.9054936,36.8554595 C52.2325202,37.235617 52.3733258,37.7628926 52.2954707,38.3029687 L52.1352013,39.6336951 C51.9943958,40.81555 51.3403426,44.77792 48.8368794,46.1584457 C48.2434971,46.4845956 47.3511441,46.813025 44.8671447,46.9966158 L42.201308,47.1674061 L42.4720475,48.076768 C42.565158,48.3966052 42.517463,48.7401147 42.3421136,49.0231286 L40.4038015,52.1190973 C40.4471128,52.1969524 40.481832,52.2811201 40.5055041,52.3696716 L44.7265145,67.3439829 C44.8520647,67.7890196 44.702667,68.2642165 44.3453049,68.558102 L30.2338879,80 L16.122471,68.558102 L16.122471,68.558102 Z" id="Path" fill="#EDE0C5"></path>
                            <path d="M7.0337617,27.6909993 C7.0337617,27.6909993 5.3251573,19.9630013 6.59416079,15.389188 C6.25626253,15.7542654 5.91187634,16.1302145 5.5957214,16.5407074 C2.49887594,20.5376212 7.0337617,27.6909993 7.0337617,27.6909993 Z M53.4327868,27.6909993 C53.4327868,27.6909993 57.9699521,20.5376212 54.8731066,16.5407074 C54.5546721,16.1302145 54.2102859,15.7542654 53.872563,15.389188 C55.1436707,19.9630013 53.4327868,27.6909993 53.4327868,27.6909993 Z M1.51358775,15.7456733 C3.42138904,6.19632117 11.2870363,3.37267005 11.2870363,3.37267005 C8.40674737,5.49422224 5.46806705,9.48675235 4.25307117,15.091094 C5.43545207,13.6262253 6.53138571,12.5287135 7.81985298,11.6516158 C11.0099843,4.79861123 16.4521278,2.01809606 19.1225236,1.16467061 C15.6595486,3.25378316 12.7619,6.36272774 11.0012169,9.94266075 C15.0054954,8.51671956 17.4246155,8.6485823 17.4246155,8.6485823 C17.4246155,8.6485823 13.8425783,9.5170878 9.92930607,12.4121061 C9.16267856,14.617826 8.74254144,16.9880236 8.74254144,19.4530853 C8.74254144,23.7933332 10.143583,28.2417717 12.5583194,31.653194 C13.916225,33.5716916 15.2308193,34.8982097 16.8636728,36.1058409 C16.3221939,34.7491627 14.2670991,24.2772975 24.1943291,20.3042312 L24.1250661,20.3452629 C21.7797681,21.8620351 20.0515246,24.2211857 19.3497764,26.9995967 C21.1625383,25.2667941 23.0747233,25.087587 24.0817548,24.9665959 C24.0643952,24.9772923 24.0493152,24.9881639 24.0340598,24.996756 C14.8171701,30.3007242 22.1457223,37.4821582 22.1457223,37.4821582 C25.051963,35.0537446 26.7454873,29.6137053 27.1093373,28.1251644 C27.1461607,33.8741693 25.2295919,37.3157516 23.9258692,38.9966508 C26.8971645,41.0317558 30.2300303,40.8956847 30.2300303,40.8956847 L30.2365182,40.8956847 C30.2387977,40.8956847 33.5695593,41.0317558 36.5408546,38.9966508 C35.2371319,37.3157516 33.3226673,33.8741693 33.3572112,28.1251644 C33.7210611,29.6137053 35.416865,35.0537446 38.3210015,37.4821582 C38.3210015,37.4821582 45.6516579,30.3007242 36.4345929,24.996756 C36.4174086,24.9881639 36.4021532,24.9772923 36.3870732,24.9665959 C37.3918251,25.087587 39.3041855,25.2667941 41.1167721,26.9995967 C40.4151992,24.2211857 38.6869557,21.8620351 36.3414823,20.3452629 L36.2722193,20.3042312 C46.1996247,24.2772975 44.1443546,34.7491627 43.603051,36.1058409 C45.2380087,34.8982097 46.5504988,33.5716916 47.9082291,31.653194 C50.325245,28.2417717 51.7262866,23.7933332 51.7262866,19.4530853 C51.7262866,16.9880236 51.3061494,14.617826 50.5374177,12.4121061 C46.6241455,9.5170878 43.0442125,8.6485823 43.0442125,8.6485823 C43.0442125,8.6485823 45.4610531,8.51671956 49.4653316,9.94266075 C47.7046484,6.36272774 44.8092794,3.25378316 41.3442002,1.16467061 C44.0144207,2.01809606 49.4567395,4.79861123 52.6466955,11.6516158 C53.9353381,12.5287135 55.0333759,13.6262253 56.2157568,15.091094 C55.0007609,9.48675235 52.0598011,5.49422224 49.1795121,3.37267005 C49.1795121,3.37267005 57.0472636,6.19632117 58.9531361,15.7456733 C61.1751634,26.861246 52.2763576,33.8028021 45.0994826,39.748549 L50.5786248,37.5210858 C50.9489627,37.3632713 51.206551,37.7197566 51.137288,38.1476091 L50.9770186,39.4956952 C50.8882918,40.2388259 50.3424292,44.0002455 48.272079,45.138789 C47.823886,45.3872591 47.0528748,45.6681688 44.7810482,45.8366796 L40.6685791,46.1002297 L41.3527924,48.4076522 L37.3160742,54.8566519 L39.3820406,52.6831963 L43.603051,67.6596118 L32.0233284,77.1635484 L35.6355257,60.8130951 L30.234414,67.3678304 L24.8310227,60.8130951 L28.4433954,77.1635484 L16.8636728,67.6596118 L21.0845078,52.6831963 L23.1527538,54.8566519 L19.1158603,48.4076522 L19.7981447,46.1002297 L15.6855003,45.8366796 C13.413849,45.6681688 12.6428378,45.3872591 12.1944694,45.138789 C10.1241192,44.0002455 9.57843195,40.2388259 9.48970516,39.4956952 L9.32943583,38.1476091 C9.25999747,37.7197566 9.51776107,37.3632713 9.88809896,37.5210858 L15.3672412,39.748549 C8.19247042,33.8028021 -0.706335447,26.861246 1.51358775,15.7456733 Z" id="Shape" fill="#00471A"></path>
                            <path d="M11.2879131,39.4711463 C11.2879131,39.4711463 11.6863069,42.8241772 13.0983955,43.602027 C14.0491398,44.1247436 16.3749741,44.0751197 18.4063967,44.2306546 C16.1563134,43.3600449 12.8427361,40.9856389 11.2879131,39.4711463 Z M23.7468375,46.5596451 C24.9769134,47.5060057 26.0186641,46.9787301 26.5773273,46.4321661 C26.7614441,46.2550632 26.705157,45.9482018 26.4735204,45.8422908 C25.886626,45.5745323 24.7777165,45.0667204 23.6754703,44.5611882 C23.4545301,44.4617651 23.2011502,44.5980115 23.1622227,44.8377141 C23.0841922,45.3130863 23.0950638,46.056217 23.7468375,46.5596451 Z M25.9818407,53.0670361 L25.3191954,55.9792386 L26.9476651,58.172158 L28.6759087,58.172158 L27.0754949,55.8215995 L27.3288747,54.3718108 C28.0542951,55.145277 29.0874537,55.6292413 30.2330112,55.633625 C31.3808483,55.6292413 32.4117273,55.145277 33.1392519,54.3718108 L33.3926317,55.8215995 L31.7901137,58.172158 L33.5204614,58.172158 L35.1491065,55.9792386 L34.4862859,53.0670361 C32.9314629,52.07526 32.5719966,50.6687825 32.5719966,50.6687825 L31.4869346,47.1256729 L30.2330112,47.7327325 L28.9790878,47.1256729 L27.8963053,50.6687825 C27.8963053,50.6687825 27.5368391,52.07526 25.9818407,53.0670361 Z M33.8886952,46.4321661 C34.4473583,46.9787301 35.4912132,47.5060057 36.7191849,46.5596451 C37.3709586,46.056217 37.3839344,45.3130863 37.3060793,44.8377141 C37.2648722,44.5980115 37.0114923,44.4617651 36.7905521,44.5611882 C35.6883059,45.0667204 34.5816759,45.5745323 33.9947815,45.8422908 C33.7629696,45.9482018 33.7066825,46.2550632 33.8886952,46.4321661 Z M32.5805887,59.5225236 L27.8854337,59.5225236 L29.0138069,61.0499921 L31.454495,61.0499921 L32.5805887,59.5225236 Z M42.0617299,44.2306546 C44.0931525,44.0751197 46.4191621,44.1247436 47.3697311,43.602027 C48.7797155,42.8241772 49.1802135,39.4711463 49.1802135,39.4711463 C47.623111,40.9856389 44.309709,43.3600449 42.0617299,44.2306546 Z" id="Shape" fill="#FEFEFE"></path>
                        </g>
                    </g>
                </g>
            </g>
        </g>
    </g>
</svg>