<?xml version="1.0" encoding="UTF-8"?>
<svg width="80px" height="80px" viewBox="0 0 80 80" version="1.1" xmlns="http://www.w3.org/2000/svg" xmlns:xlink="http://www.w3.org/1999/xlink">
    <title>8DF25582-B97A-49E5-8CAA-8A8E6D5F250B</title>
    <defs>
        <polygon id="path-1" points="0 49.2 48 49.2 48 0 0 0"></polygon>
        <polygon id="path-3" points="0 49.2307692 48 49.2307692 48 0 0 0"></polygon>
        <polygon id="path-5" points="0 49.2307692 48 49.2307692 48 0 0 0"></polygon>
        <polygon id="path-7" points="0 49.2307692 48 49.2307692 48 0 0 0"></polygon>
        <polygon id="path-9" points="0 49.2307692 48 49.2307692 48 0 0 0"></polygon>
        <polygon id="path-11" points="0 49.2307692 48 49.2307692 48 0 0 0"></polygon>
        <polygon id="path-13" points="0 49.2307692 48 49.2307692 48 0 0 0"></polygon>
        <polygon id="path-15" points="0 49.2307692 48 49.2307692 48 0 0 0"></polygon>
        <polygon id="path-17" points="0 49.2307692 48 49.2307692 48 0 0 0"></polygon>
        <polygon id="path-19" points="0 49.2307692 48 49.2307692 48 0 0 0"></polygon>
        <polygon id="path-21" points="0 49.2307692 48 49.2307692 48 0 0 0"></polygon>
        <polygon id="path-23" points="0 49.2307692 48 49.2307692 48 0 0 0"></polygon>
        <polygon id="path-25" points="0 49.2307692 48 49.2307692 48 0 0 0"></polygon>
        <polygon id="path-27" points="0 49.2307692 48 49.2307692 48 0 0 0"></polygon>
        <polygon id="path-29" points="0 48 48 48 48 0 0 0"></polygon>
        <polygon id="path-31" points="0 48 48 48 48 0 0 0"></polygon>
        <polygon id="path-33" points="0 48 48 48 48 0 0 0"></polygon>
        <polygon id="path-35" points="0 48 48 48 48 0 0 0"></polygon>
    </defs>
    <g id="iOS" stroke="none" stroke-width="1" fill="none" fill-rule="evenodd">
        <g id="Pick-teams" transform="translate(-202.000000, -233.000000)">
            <g id="Group" transform="translate(8.000000, 195.000000)">
                <g id="Group-10" transform="translate(8.000000, 36.000000)">
                    <g id="Container/Player-&amp;-Team-tiles/Teams/Team-tile/Large/Unselected" transform="translate(184.000000, 0.000000)">
                        <g id="Group-9" transform="translate(2.000000, 2.000000)">
                            <rect id="Rectangle" fill="#008CA8" fill-rule="nonzero" x="0" y="0" width="80" height="80" rx="8"></rect>
                            <g id="Group-12" transform="translate(16.000000, 16.000000)">
                                <g id="Clipped">
                                    <mask id="mask-2" fill="white">
                                        <use xlink:href="#path-1"></use>
                                    </mask>
                                    <g id="Path"></g>
                                    <path d="M46.8497058,4.81042582 C46.8497058,4.81042582 46.46252,4.99784646 46.0253747,5.20988926 C46.6305755,3.07113522 46.9965732,1.35669164 47.0010339,1.33532995 L47.2847322,0.00112429903 L46.1521691,0.749570161 C46.0542575,0.813542776 36.5568305,7.10399583 29.3033415,12.8759222 L29.2977657,12.8635549 C29.2410037,12.6997445 29.1442073,12.4978204 28.9762632,12.2901624 C29.0285645,12.2531729 29.0808658,12.2161835 29.132052,12.1779573 C29.8540108,11.6596555 29.9841507,11.5608296 30.0186093,11.519343 C30.8508581,10.7900102 31.0488002,9.90574901 30.9665009,9.37058267 L30.706221,7.67513974 L26.2650704,11.0099231 C25.0958184,10.7080488 23.6573651,10.5117462 21.7505419,11.0087988 L17.3105065,7.67513974 L17.0491115,9.36945837 C16.965697,9.90574901 17.1647542,10.7900102 17.9502775,11.4733591 C18.0303465,11.5619539 18.1638319,11.6619041 18.9025182,12.1925732 C18.9470133,12.2251779 18.9926236,12.2587944 19.0382339,12.2901624 C18.8969424,12.46634 18.7879906,12.6593822 18.7156163,12.8658035 L18.7122708,12.8747979 C11.6034189,7.21844947 1.96358517,0.815791374 1.86344322,0.749570161 L0.733221972,0 L1.01357483,1.33420566 C1.03465148,1.43179481 1.43521928,3.32702568 1.9725065,5.20089487 C1.53971038,4.99110067 1.16590657,4.81042582 1.16590657,4.81042582 L0,4.247152 L0.39610714,5.48815327 C0.419525636,5.56336888 0.9845805,7.33166638 1.44514426,8.50880747 C2.12494976,10.3905467 3.41542043,13.3673533 4.574636,15.4263945 C5.17537619,16.4519801 6.11434638,17.3934681 7.29140462,18.1507959 C7.96329244,18.5817397 8.68424758,18.937468 9.43854619,19.2078619 C9.57537712,19.521991 9.83900248,20.1043779 10.153814,20.6654031 L7.87430215,20.6654031 L7.87430215,24.6431731 L4.55690486,26.2455241 L7.87653248,27.932085 L7.88099315,31.0649443 L10.8480051,32.8938415 L11.0404829,32.8703436 C11.0404829,32.8703436 12.8283178,32.6470579 13.8551631,32.5348528 L21.5236055,36.9995567 C23.0722372,44.1619036 23.4583079,46.1984589 23.4615419,46.2174595 L24.0211324,49.2 L24.5551856,46.2130748 C24.5596463,46.1917131 24.9468321,44.0429528 26.4920068,37.000681 L34.1605607,32.5348528 C35.1874061,32.6470579 36.9740143,32.8703436 36.9751295,32.8703436 L37.1676072,32.8938415 L40.1346192,31.0649443 L40.1379647,27.9332093 L43.458819,26.2455241 L40.1413102,24.6431731 L40.1413102,20.6654031 L37.8573377,20.6654031 C38.1754947,20.0987564 38.4392316,19.5208667 38.5760625,19.2078619 C39.5072265,18.8689981 42.0926285,17.7547054 43.4420915,15.4241459 C44.0917875,14.3009712 45.4913214,11.4161323 46.5671226,8.51667756 C46.6049267,8.41785167 47.1823599,6.90758079 47.6217355,5.48365607 L48,4.2550221 L46.8497058,4.81042582 L46.8497058,4.81042582 Z" id="Path" fill="#FEFEFE" fill-rule="nonzero" mask="url(#mask-2)"></path>
                                </g>
                                <path d="M12.1727114,21.7221041 L8.90081291,21.7221041 L8.90081291,25.3060234 L6.93388224,26.2783628 L8.90081291,27.3147148 L8.90081291,30.5000459 L11.0736033,31.8417234 C11.8745159,31.7361982 12.8957854,31.611548 14.0784194,31.4903853 L22.4766268,36.3755946 L24.0075274,43.4827957 C24.0174524,43.4659207 25.5538172,36.3755946 25.5538172,36.3755946 L33.937639,31.4903853 C35.1213882,31.611548 36.1426577,31.7361982 36.9425666,31.8417234 L39.1130152,30.5000459 L39.1130152,27.3147148 L41.0844065,26.3008628 L39.1130152,25.3060234 L39.1130152,21.7221041 L35.843347,21.7221041 C35.843347,21.7221041 36.3495211,21.2281156 36.9915224,20.114251 C37.2596084,19.6482751 37.5120821,19.0678865 37.8225445,18.3796102 C40.2066589,17.6475713 41.9654995,16.1116058 42.7196866,14.613778 C44.7612219,10.8411958 46.2975868,6.22879942 46.2975868,6.22879942 C46.2975868,6.22879942 45.4164938,6.65551274 44.352848,7.18538875 C45.2162099,4.52779617 45.7346508,2.27205435 45.7346508,2.27205435 C45.7346508,2.27205435 36.3172927,8.55969138 28.9815045,14.4666277 L28.3461941,14.0815395 C28.3484245,14.0209018 28.3662671,13.4809008 28.3662671,13.4360132 C28.3662671,13.4360132 28.4374148,12.8083745 27.3427673,12.4332988 C27.2748537,12.4097863 27.2115122,12.3884112 27.1480593,12.3670362 C27.678767,11.9650729 28.5042132,11.3498092 29.1060686,10.9332209 C30.0661154,10.2685697 29.952703,9.53765576 29.952703,9.53765576 L26.4728259,12.1514858 C23.783825,11.2712841 21.543344,12.1514858 21.543344,12.1514858 L18.0644706,9.53765576 C18.0644706,9.53765576 17.949943,10.2685697 18.9099898,10.9332209 C19.5129603,11.3498092 20.3372914,11.9650729 20.8691143,12.3670362 C20.8056613,12.3884112 20.7412047,12.4097863 20.6744062,12.4332988 C19.5786436,12.8083745 19.6520216,13.4360132 19.6520216,13.4360132 C19.6520216,13.4809008 19.6676339,14.0209018 19.6709794,14.0815395 L19.0345539,14.4666277 C11.6998808,8.55969138 2.28363795,2.27205435 2.28363795,2.27205435 C2.28363795,2.27205435 2.79984852,4.52779617 3.66321042,7.18538875 C2.5250715,6.61726267 1.71858309,6.22879942 1.71858309,6.22879942 C1.71858309,6.22879942 3.25494797,10.8411958 5.29748693,14.613778 C6.05055886,16.1116058 7.80951098,17.6475713 10.1935139,18.3796102 C10.1935139,18.3796102 10.5963121,19.3114495 10.944467,19.9807132 C11.3739176,20.8081523 12.1727114,21.7221041 12.1727114,21.7221041 Z" id="Path" fill="#1C1060" fill-rule="nonzero"></path>
                                <path d="M27.9574471,16.3508938 C27.9262224,16.4554065 27.8895335,16.5553067 27.8550748,16.6552069 C31.1525106,14.4814777 36.9130147,10.688758 43.3678214,6.45694986 C43.3678214,6.45694986 43.3755161,6.59847513 43.9473734,4.92435943 C37.1277958,9.08090488 31.0879425,13.7920764 27.9574471,16.3508938 Z M20.0586113,16.3512313 C16.9281159,13.7924139 10.8893778,9.08124238 4.06980013,4.92357192 C4.64054234,6.59881263 4.64834851,6.45616236 4.64834851,6.45616236 C11.1030437,10.6879705 16.8635478,14.4806902 20.1609836,16.6544194 C20.1254098,16.5556442 20.0909511,16.454619 20.0586113,16.3512313 Z M14.0715054,21.9073919 C14.0692751,21.9062669 12.4517261,20.7396397 11.5384047,18.6041606 L12.1847552,18.798336 C14.2950963,19.3620746 18.3302147,19.9234506 18.3302147,19.9234506 C16.3865911,19.9672132 14.7435047,20.121001 13.8056497,20.2265262 C13.6109416,19.9829632 13.3873508,19.6719002 13.301706,19.4405997 C13.301706,19.4405997 13.3739688,20.1872636 13.539794,20.6543645 C13.7500029,21.3370158 14.0692751,21.9051419 14.0715054,21.9073919 L14.0715054,21.9073919 Z M24.005074,19.7111627 C23.4410228,19.4933623 22.0203007,18.7781984 21.168202,16.9076574 C21.8668538,17.515046 22.7612173,17.7093339 23.4765966,17.0109326 C22.6033097,16.6314693 22.4953616,15.0595038 22.3263024,14.6474155 C21.9847269,13.8121014 21.4440941,13.3898881 21.0168739,13.2125878 C21.2135892,13.1453127 21.4113083,13.0809625 21.6098079,13.0194249 C22.0180703,13.2428503 22.7001062,13.7570888 22.9136606,14.7821908 C22.9136606,14.7821908 23.0026508,13.6123011 22.4286746,12.7914995 C23.5422799,12.5209365 24.6659217,12.557949 25.5825885,12.7903745 C25.0073857,13.6111761 25.0952608,14.7821908 25.0952608,14.7821908 C25.3100418,13.7559638 25.9941965,13.2406003 26.4035741,13.0182999 C26.5871305,13.0755625 26.7851841,13.1407002 26.9987385,13.2125878 C26.5705145,13.3898881 26.0297703,13.8121014 25.68931,14.6474155 C25.5213659,15.0595038 25.4123026,16.6314693 24.5412461,17.0109326 C24.74153,18.2078224 24.4945206,19.3238245 24.005074,19.7111627 Z M34.4716922,20.6539145 C34.6374059,20.1868136 34.7097802,19.4401497 34.7097802,19.4401497 C34.6240239,19.6714502 34.4004331,19.9825132 34.2047213,20.2260762 C33.2679815,20.121676 31.6236685,19.9678882 29.6812715,19.9241256 C29.6812715,19.9241256 33.7151632,19.3616246 35.8256158,18.797886 L36.4719663,18.6048356 C35.5596486,20.7403147 33.9420996,21.9069419 33.9398693,21.9069419 C33.9420996,21.9058169 34.2602566,21.3376908 34.4716922,20.6539145 L34.4716922,20.6539145 Z M18.9833678,32.0149738 L14.8737562,29.6211942 C14.577791,29.6493193 14.2874016,29.6773318 14.0081639,29.7065819 L19.7142479,33.0311882 C19.4361254,32.7212501 19.1913463,32.3799245 18.9833678,32.0149738 Z M29.0317985,32.0149738 L33.1412986,29.6211942 C33.4361486,29.6493193 33.7265379,29.6773318 34.0057756,29.7065819 L28.3008069,33.0311882 C28.5789294,32.7212501 28.8237084,32.3799245 29.0317985,32.0149738 Z M22.1804386,32.5739873 C20.3659512,32.1765241 19.6149981,31.2737099 19.6149981,31.2737099 C19.9865715,32.0372488 20.5483924,32.6907626 21.2370077,33.170126 C21.2370077,33.170126 22.0013428,32.9467006 22.1804386,32.5739873 Z M21.0696212,30.6179461 C20.9385892,30.4892459 20.8095644,30.3586331 20.6824354,30.2261079 C20.1038871,30.4292832 19.7746899,30.6560837 19.6010585,30.809984 C20.0027415,31.1961972 20.7680802,31.7093107 22.1420769,31.9978737 C21.9751364,31.5217728 21.5479161,31.095172 21.0696212,30.6179461" id="Shape" fill="#008CA8" fill-rule="nonzero"></path>
                                <path d="M23.971842,34.9381794 C23.3699867,34.9483044 22.9406476,35.1829798 22.7971257,35.2368674 C22.6469127,34.9505544 22.4711625,34.6597413 22.3053372,34.4026783 C22.822663,34.4665785 23.2776509,34.3689283 23.2776509,34.3689283 C23.060751,34.2971531 22.5022756,34.1062403 21.76805,33.6177643 C21.7669348,33.6177643 21.7658197,33.6166393 21.7658197,33.6166393 C21.8291611,33.5897518 21.8937293,33.5605017 21.9594126,33.5279892 C21.9594126,33.5279892 21.9605278,33.5268642 21.9605278,33.5257392 C22.1540091,33.428089 22.3487172,33.3011887 22.5022756,33.1417759 C22.685832,32.9508631 22.8115113,32.7139376 22.8115113,32.4197496 C22.8115113,31.5102978 22.2051953,31.2038472 21.523271,30.5245709 C21.38644,30.3886707 21.2395726,30.2482704 21.0904749,30.1001076 C21.7157487,29.9305698 22.5657286,29.7980445 23.7093319,29.777907 L23.9829937,33.6368894 L24.0230282,33.6368894 L24.3056114,29.777907 C25.4493261,29.7980445 26.2980794,29.9305698 26.9244684,30.1001076 C26.7753706,30.2482704 26.6285032,30.3886707 26.4916723,30.5245709 C25.8097479,31.2038472 25.2034319,31.5102978 25.2034319,32.4197496 C25.2034319,32.7139376 25.3291112,32.9508631 25.5126676,33.1417759 C25.666226,33.3011887 25.8598189,33.428089 26.0534118,33.5257392 L26.0556422,33.5279892 C26.121214,33.5605017 26.1857821,33.5897518 26.2480084,33.6166393 C26.2480084,33.6166393 26.2480084,33.6177643 26.2468932,33.6177643 C25.5126676,34.1062403 24.9541922,34.2970406 24.7372923,34.3689283 C24.7372923,34.3689283 25.1911651,34.4665785 25.709606,34.4026783 C25.5438923,34.6597413 25.3680305,34.9505544 25.2168139,35.2368674 C25.0744072,35.1829798 24.6449565,34.9483044 24.0431012,34.9381794 L23.971842,34.9381794 Z" id="Path" fill="#008CA8" fill-rule="nonzero"></path>
                                <path d="M26.7783816,33.169901 C27.4669969,32.6905376 28.0277026,32.0370238 28.4003912,31.2746099 C28.4003912,31.2746099 27.6494381,32.1762991 25.8349507,32.5737623 C26.0129313,32.9464756 26.7783816,33.169901 26.7783816,33.169901 Z M25.8727549,31.9979862 C27.2467515,31.7094232 28.0120903,31.1963097 28.4137732,30.8100965 C28.2402533,30.6550712 27.9109447,30.4282707 27.3323963,30.2262204 C27.2033715,30.3609956 27.0721164,30.4922834 26.9452105,30.6180586 C26.4658004,31.0952845 26.0396953,31.5218853 25.8727549,31.9979862" id="Shape" fill="#008CA8" fill-rule="nonzero"></path>
                                <path d="M22.7777218,17.1157828 C22.7777218,17.1157828 22.1124134,16.6723069 22.005692,15.7291051 C22.005692,15.7291051 21.1434453,17.1865454 22.7777218,17.1157828 Z M25.2855082,17.1157828 C25.2855082,17.1157828 25.9508165,16.6723069 26.0575379,15.7291051 C26.0575379,15.7291051 26.9208998,17.1865454 25.2855082,17.1157828 L25.2855082,17.1157828 Z M24.7966192,36.3493821 C24.6775194,36.2248443 24.5039995,36.0799441 23.9732918,36.0788118 C23.4726935,36.0776941 23.2980584,36.2068443 23.1523062,36.3269945 L24.0077504,39.7402511 L24.7966192,36.3493821 Z M30.45174,21.3554659 L30.45174,22.6051183 L30.0356714,22.6051183 L30.0356714,21.3554659 L29.6907504,21.3554659 L29.6907504,20.9983902 L30.7955458,20.9983902 L30.7955458,21.3554659 L30.45174,21.3554659 Z M28.5152534,21.3554659 L28.5152534,22.6051183 L28.0980696,22.6051183 L28.0980696,21.3554659 L27.7531486,21.3554659 L27.7531486,20.9983902 L28.8600629,20.9983902 L28.8600629,21.3554659 L28.5152534,21.3554659 Z" id="Shape" fill="#FEFEFE" fill-rule="nonzero"></path>
                                <g id="Clipped">
                                    <mask id="mask-4" fill="white">
                                        <use xlink:href="#path-3"></use>
                                    </mask>
                                    <g id="Path"></g>
                                    <path d="M21.9785934,21.6742915 L22.4225412,21.6742915 L22.4225412,21.3565909 L21.9785934,21.3565909 L21.9785934,21.6742915 Z M22.6638633,22.0358672 L22.812961,22.0358672 L22.812961,21.171303 L22.6394411,20.9983902 L21.5859433,20.9983902 L21.5859433,22.6051183 L21.9785934,22.6051183 L21.9785934,22.0358672 L22.2734435,22.0358672 L22.5003799,22.6051183 L22.889796,22.6051183 L22.6638633,22.0358672 Z" id="Shape" fill="#FEFEFE" fill-rule="nonzero" mask="url(#mask-4)"></path>
                                </g>
                                <g id="Clipped">
                                    <mask id="mask-6" fill="white">
                                        <use xlink:href="#path-5"></use>
                                    </mask>
                                    <g id="Path"></g>
                                    <polygon id="Path" fill="#FEFEFE" fill-rule="nonzero" mask="url(#mask-6)" points="32.8491249 21.3558034 32.8491249 20.9988402 31.680988 20.9988402 31.680988 22.6054558 32.8491249 22.6054558 32.8491249 22.2439926 32.0881353 22.2439926 32.0881353 21.9800671 32.8491249 21.9800671 32.8491249 21.6197289 32.0881353 21.6197289 32.0881353 21.3558034"></polygon>
                                </g>
                                <g id="Clipped">
                                    <mask id="mask-8" fill="white">
                                        <use xlink:href="#path-7"></use>
                                    </mask>
                                    <g id="Path"></g>
                                    <polygon id="Path" fill="#FEFEFE" fill-rule="nonzero" mask="url(#mask-8)" points="24.2220854 22.2444426 24.2220854 20.9981652 23.813823 20.9981652 23.813823 22.6048933 24.8094436 22.6048933 24.8094436 22.2444426"></polygon>
                                </g>
                                <g id="Clipped">
                                    <mask id="mask-10" fill="white">
                                        <use xlink:href="#path-9"></use>
                                    </mask>
                                    <g id="Path"></g>
                                    <path d="M25.9746811,22.2446676 L26.426435,22.2446676 L26.426435,21.3564784 L25.9746811,21.3564784 L25.9746811,22.2446676 Z M26.6411046,20.9983902 L25.5842613,20.9983902 L25.5842613,22.4243304 L25.7622419,22.6051183 L26.8168548,22.6051183 L26.8168548,21.176928 L26.6411046,20.9983902 Z" id="Shape" fill="#FEFEFE" fill-rule="nonzero" mask="url(#mask-10)"></path>
                                </g>
                                <g id="Clipped">
                                    <mask id="mask-12" fill="white">
                                        <use xlink:href="#path-11"></use>
                                    </mask>
                                    <g id="Path"></g>
                                    <path d="M19.7914174,21.7203041 L20.244175,21.7203041 L20.244175,21.3553534 L19.7914174,21.3553534 L19.7914174,21.7203041 L19.7914174,21.7203041 Z M20.6469731,22.6051183 L20.6447428,21.178053 L20.4689926,20.9983902 L19.3909611,20.9983902 L19.3909611,22.6051183 L19.7914174,22.6051183 L19.7914174,22.0830048 L20.2431713,22.0830048 L20.2431713,22.6051183 L20.6469731,22.6051183 Z" id="Shape" fill="#FEFEFE" fill-rule="nonzero" mask="url(#mask-12)"></path>
                                </g>
                                <g id="Clipped">
                                    <mask id="mask-14" fill="white">
                                        <use xlink:href="#path-13"></use>
                                    </mask>
                                    <g id="Path"></g>
                                    <polygon id="Path" fill="#FEFEFE" fill-rule="nonzero" mask="url(#mask-14)" points="18.1197828 20.9983902 18.1197828 21.7203041 17.6703707 21.7203041 17.6703707 20.9983902 17.2698029 20.9983902 17.2698029 22.6051183 17.6703707 22.6051183 17.6703707 22.0830048 18.1197828 22.0830048 18.1197828 22.6051183 18.5192355 22.6051183 18.5192355 20.9983902"></polygon>
                                </g>
                                <g id="Clipped">
                                    <mask id="mask-16" fill="white">
                                        <use xlink:href="#path-15"></use>
                                    </mask>
                                    <g id="Path"></g>
                                    <path d="M42.0106638,9.59300586 C42.7849239,7.75610235 43.3679329,6.45593736 43.3679329,6.45593736 C36.9131262,10.6877455 31.151507,14.4815902 27.8551863,16.6553194 C27.7295071,17.0090201 27.5859851,17.3312207 27.4290812,17.6265337 L40.4309189,10.4777076 L30.2815656,17.8757217 L30.7499355,17.7904466 L36.1132173,17.2672081 C36.1132173,17.2672081 39.7378429,16.9135074 41.7547331,14.1772771 C42.7037398,12.7075743 44.3201736,8.4129911 44.3201736,8.4129911 L42.0106638,9.59300586 Z" id="Path" fill="#FEFEFE" fill-rule="nonzero" mask="url(#mask-16)"></path>
                                </g>
                                <g id="Clipped">
                                    <mask id="mask-18" fill="white">
                                        <use xlink:href="#path-17"></use>
                                    </mask>
                                    <g id="Path"></g>
                                    <path d="M10.9450246,26.7123886 L12.1954608,26.1689001 L12.1954608,29.0331556 C12.5526486,28.983768 12.9219918,28.9376429 13.2957956,28.8927553 L13.2946804,22.6052102 L12.196576,22.6052102 C12.1943456,22.5973558 12.1943456,24.8586101 12.1954608,24.8698601 L10.9450246,25.4020986 L10.9461398,22.6052102 L9.84034068,22.6052102 L9.84034068,25.8601995 C9.84034068,25.8601995 8.93036482,26.3003003 8.93469843,26.3093004 L9.84034068,26.7662762 L9.84034068,29.4058688 C10.1951867,29.3407312 10.5701056,29.2789685 10.9450246,29.2184434 L10.9450246,26.7123886 L10.9450246,26.7123886 Z" id="Path" fill="#FEFEFE" fill-rule="nonzero" mask="url(#mask-18)"></path>
                                </g>
                                <g id="Clipped">
                                    <mask id="mask-20" fill="white">
                                        <use xlink:href="#path-19"></use>
                                    </mask>
                                    <g id="Path"></g>
                                    <path d="M19.5189822,24.6052596 L20.7649578,24.6052596 C20.7649578,24.9140727 20.7627274,25.3115359 20.7627274,25.591099 C20.3466588,25.596724 19.9350508,25.604599 19.5200974,25.611349 L19.5189822,24.6052596 Z M19.5200974,26.6937136 C19.7948744,26.6858386 20.0629604,26.6779636 20.3388526,26.6712136 C20.5413669,27.2034521 20.7504606,27.8074657 20.9529748,28.3408292 C21.3167421,28.3307042 21.6839665,28.3217042 22.0533096,28.3149542 C21.8507954,27.7794532 21.6449356,27.178702 21.4436481,26.6487135 C21.5827093,26.6464635 21.7228858,26.6430885 21.8641774,26.642076 L21.8630622,24.0708836 L21.3757344,23.5857826 L18.00046,23.5857826 L18.4176438,24.0876461 L18.4176438,28.4508545 C18.7814111,28.4306044 19.1474087,28.4114794 19.5200974,28.3947168 L19.5200974,26.6937136 Z" id="Shape" fill="#FEFEFE" fill-rule="nonzero" mask="url(#mask-20)"></path>
                                </g>
                                <g id="Clipped">
                                    <mask id="mask-22" fill="white">
                                        <use xlink:href="#path-21"></use>
                                    </mask>
                                    <g id="Path"></g>
                                    <path d="M23.817726,24.6052596 L25.0804291,24.6052596 L25.0804291,28.3003292 C25.4596972,28.3037042 25.853574,28.3093292 26.228493,28.3172042 L26.228493,24.0898961 L25.7256644,23.5857826 L22.2757853,23.5857826 L22.6907388,24.0876461 L22.6907388,28.3048292 C23.0645426,28.3003292 23.4383464,28.2970667 23.817726,28.2959417 L23.817726,24.6052596 Z" id="Path" fill="#FEFEFE" fill-rule="nonzero" mask="url(#mask-22)"></path>
                                </g>
                                <g id="Clipped">
                                    <mask id="mask-24" fill="white">
                                        <use xlink:href="#path-23"></use>
                                    </mask>
                                    <g id="Path"></g>
                                    <path d="M30.3488101,27.41529 C29.6357727,27.3771524 28.9337754,27.3445273 28.2206264,27.3198898 C28.2172809,27.0559643 28.2172809,26.7932763 28.2172809,26.5305883 C28.9279765,26.5506133 29.6385606,26.5755884 30.3488101,26.6057384 L30.3488101,25.4964863 C29.6346575,25.4773613 28.9270844,25.4604862 28.2150506,25.4482237 C28.2139354,25.2348108 28.2139354,24.8733476 28.2139354,24.6050346 L30.3488101,24.6050346 L30.3488101,23.5865701 L26.6453422,23.5865701 L27.055835,24.0851711 L27.055835,28.3393667 C28.1828223,28.3718793 29.2852759,28.4225044 30.3488101,28.4897795 L30.3488101,27.41529 L30.3488101,27.41529 Z" id="Path" fill="#FEFEFE" fill-rule="nonzero" mask="url(#mask-24)"></path>
                                </g>
                                <g id="Clipped">
                                    <mask id="mask-26" fill="white">
                                        <use xlink:href="#path-25"></use>
                                    </mask>
                                    <g id="Path"></g>
                                    <path d="M33.1230098,24.6052596 L34.071905,24.6052596 L34.071905,23.5857826 L30.9602559,23.5857826 L30.9602559,24.6052596 L31.9281089,24.6052596 L31.9281089,28.6057673 C32.3253312,28.6383923 32.7391695,28.6720299 33.1230098,28.7090425 L33.1230098,24.6052596 L33.1230098,24.6052596 Z" id="Path" fill="#FEFEFE" fill-rule="nonzero" mask="url(#mask-26)"></path>
                                </g>
                                <g id="Clipped">
                                    <mask id="mask-28" fill="white">
                                        <use xlink:href="#path-27"></use>
                                    </mask>
                                    <g id="Path"></g>
                                    <path d="M16.4953198,27.4698526 C16.071445,27.4968526 15.6564915,27.5237402 15.2326168,27.5552402 L15.2326168,24.6057096 L16.496435,24.6057096 L16.4953198,27.4698526 Z M17.6022341,24.0880961 L17.1038661,23.5861201 L13.71744,23.5861201 L14.1178963,24.0723461 L14.1190115,28.2243915 L14.5562683,28.74988 C15.5274668,28.6509923 16.5531969,28.5668422 17.6011189,28.4983295 L17.6022341,24.0880961 Z" id="Shape" fill="#FEFEFE" fill-rule="nonzero" mask="url(#mask-28)"></path>
                                </g>
                                <g id="Clipped">
                                    <mask id="mask-30" fill="white">
                                        <use xlink:href="#path-29"></use>
                                    </mask>
                                    <g id="Path"></g>
                                    <path d="M38.0591828,26.7440012 C38.3995316,26.5902134 38.7422223,26.4329381 39.0837978,26.2712753 C37.9856933,25.7581618 36.8865852,25.2910609 35.7873656,24.8599601 L35.7851353,23.5990577 L36.9510419,23.5990577 L36.9510419,24.0571585 L38.0591828,24.0571585 L38.0591828,22.6054558 L34.2654979,22.6054558 L34.6871424,23.0983192 L34.6871424,25.6975242 L36.9510419,26.6901136 L36.9510419,28.1429414 C36.9510419,28.1429414 36.4260215,28.0756662 35.7862505,27.9925286 L35.7862505,27.5265527 L34.6871424,27.3941399 L34.6871424,28.8773428 C35.8897379,29.0187555 37.0189555,29.1849184 38.0591828,29.3702062 C38.0580676,28.5797797 38.0591828,27.3323773 38.0591828,26.7440012 Z" id="Path" fill="#FEFEFE" fill-rule="nonzero" mask="url(#mask-30)"></path>
                                </g>
                                <g id="Clipped">
                                    <mask id="mask-32" fill="white">
                                        <use xlink:href="#path-31"></use>
                                    </mask>
                                    <g id="Path"></g>
                                    <polygon id="Path" fill="#FEFEFE" fill-rule="nonzero" mask="url(#mask-32)" points="15.9749831 22.1059548 15.9749831 22.2441051 15.619022 22.2441051 15.619022 21.3560284 15.9749831 21.3560284 15.9749831 21.4884411 16.3744357 21.4884411 16.3744357 20.9989527 15.2262603 20.9989527 15.2262603 22.4248929 15.4053561 22.6045558 16.3744357 22.6045558 16.3744357 22.1059548"></polygon>
                                </g>
                                <g id="Clipped">
                                    <mask id="mask-34" fill="white">
                                        <use xlink:href="#path-33"></use>
                                    </mask>
                                    <g id="Path"></g>
                                    <path d="M5.8970548,8.96681082 C5.12697023,7.22960132 4.54710531,6 4.54710531,6 C10.9671017,10.0021358 16.697649,13.5900777 19.9761928,15.6458324 C20.1011943,15.9803367 20.2439422,16.2850506 20.4,16.5643362 L7.46828022,9.80349723 L17.5628988,16.8 L17.0970548,16.719353 L11.7626968,16.2245121 C11.7626968,16.2245121 8.15772941,15.8900078 6.1516053,13.3022806 C5.20771653,11.9123427 3.6,7.85083884 3.6,7.85083884 L5.8970548,8.96681082 Z" id="Path" fill="#FEFEFE" fill-rule="nonzero" mask="url(#mask-34)"></path>
                                </g>
                                <g id="Clipped">
                                    <mask id="mask-36" fill="white">
                                        <use xlink:href="#path-35"></use>
                                    </mask>
                                    <g id="Path"></g>
                                    <path d="M12.1727114,21.7221041 L8.90081291,21.7221041 L8.90081291,25.3060234 L6.93388224,26.2783628 L8.90081291,27.3147148 L8.90081291,30.5000459 L11.0736033,31.8417234 C11.8745159,31.7361982 12.8957854,31.611548 14.0784194,31.4903853 L22.4767383,36.3755946 L24.0075274,43.4827957 C24.0174524,43.4660332 25.5538172,36.3755946 25.5538172,36.3755946 L33.937639,31.4903853 C35.1213882,31.6116605 36.1426577,31.7361982 36.9425666,31.8417234 L39.1130152,30.5000459 L39.1130152,27.3147148 L41.0844065,26.3008628 L39.1130152,25.3060234 L39.1130152,21.7221041 L35.843347,21.7221041 C35.843347,21.7221041 36.3495211,21.2281156 36.9915224,20.114251 C37.2596084,19.6483876 37.5121936,19.0678865 37.8225445,18.3796102 C40.2066589,17.6475713 41.9654995,16.1116058 42.7197982,14.613778 C44.7612219,10.8411958 46.2975868,6.22879942 46.2975868,6.22879942 C46.2975868,6.22879942 45.4164938,6.65551274 44.3529595,7.18538875 C45.2162099,4.52779617 45.7346508,2.27216685 45.7346508,2.27216685 C45.7346508,2.27216685 36.3172927,8.55969138 28.9815045,14.4667402 L28.3461941,14.0815395 C28.3484245,14.0209018 28.3662671,13.4809008 28.3662671,13.4360132 C28.3662671,13.4360132 28.4375263,12.8083745 27.3427673,12.4332988 C27.2749652,12.4097863 27.2115122,12.3884112 27.1480593,12.3670362 C27.678767,11.9650729 28.5042132,11.3498092 29.1060686,10.9333334 C30.066227,10.2685697 29.952703,9.53765576 29.952703,9.53765576 L26.4728259,12.1514858 C23.7839365,11.2712841 21.543344,12.1514858 21.543344,12.1514858 L18.0644706,9.53765576 C18.0644706,9.53765576 17.949943,10.2685697 18.9099898,10.9333334 C19.5129603,11.3498092 20.3374029,11.9651854 20.8691143,12.3670362 C20.8057728,12.3884112 20.7412047,12.4097863 20.6744062,12.4332988 C19.5786436,12.8083745 19.6520216,13.4360132 19.6520216,13.4360132 C19.6520216,13.4809008 19.6676339,14.0209018 19.6709794,14.0815395 L19.0346654,14.4667402 C11.6998808,8.55969138 2.28363795,2.27216685 2.28363795,2.27216685 C2.28363795,2.27216685 2.79984852,4.52779617 3.66321042,7.18538875 C2.5250715,6.61726267 1.71847157,6.22879942 1.71847157,6.22879942 C1.71847157,6.22879942 3.25483645,10.8411958 5.29737541,14.613778 C6.05055886,16.1116058 7.80951098,17.6475713 10.1935139,18.3796102 C10.1935139,18.3796102 10.5963121,19.311562 10.944467,19.9807132 C11.3739176,20.8081523 12.1727114,21.7221041 12.1727114,21.7221041 L12.1727114,21.7221041 Z M46.0472319,8.32276593 C45.015926,11.1061338 43.6465015,13.9681392 42.9622354,15.151529 C41.8085956,17.1433453 39.5112411,18.3313476 38.1640085,18.7691984 C38.1640085,18.7691984 37.5098518,20.3624265 36.8357337,21.2393657 L39.5858457,21.2393657 L39.5858457,25.0129604 L42.1980118,26.2749878 L39.5825002,27.6055278 L39.5791548,30.7706089 L37.0438237,32.3335744 C37.0438237,32.3335744 35.0234766,32.0808989 34.0400112,31.9776237 L26.0022257,36.6619077 C24.390141,44.0049092 24.0086425,46.1426383 24.0086425,46.1426383 C24.0086425,46.1426383 23.6303781,44.1261845 22.0149479,36.6619077 L13.9760472,31.9776237 C12.9925818,32.0808989 10.9723462,32.3335744 10.9723462,32.3335744 L8.43690365,30.7706089 L8.43244298,27.6055278 L5.81916181,26.2749878 L8.43021265,25.0129604 L8.43021265,21.2393657 L11.1803247,21.2393657 C10.5183619,20.4039391 9.85204993,18.7691984 9.85204993,18.7691984 C9.04321967,18.5020104 8.27899607,18.1314347 7.59138441,17.6879589 C6.50565831,16.9906825 5.61564393,16.1104808 5.05382305,15.151529 C3.9590641,13.2035878 2.67193893,10.2708197 1.96882645,8.32276593 C1.50380202,7.13487616 0.925365159,5.32047268 0.925365159,5.32047268 C0.925365159,5.32047268 2.42158405,6.04238657 2.88114416,6.269187 C2.16464969,4.10333285 1.55833366,1.22006484 1.55833366,1.22006484 L1.55833366,1.21893983 C1.55833366,1.21893983 11.8523241,8.04882791 19.0724696,13.8907391 L19.1869972,13.8199765 C19.1836517,13.6987012 19.1803062,13.576301 19.1803062,13.4494007 C19.1780758,13.3765006 19.1825365,13.2327253 19.242644,13.0553125 C19.3260584,12.8151245 19.5129603,12.5141865 19.9323744,12.255886 C19.4017782,11.8629227 18.4460805,11.1971464 18.3626661,11.1039963 C17.6640143,10.4919951 17.5460297,9.80259376 17.5994461,9.46351811 L17.7185459,8.68659163 L21.6356798,11.6304973 C23.7660938,11.0152336 25.2713456,11.3195467 26.3804902,11.6304973 L30.297624,8.68659163 L30.4166123,9.46351811 C30.4700287,9.80259376 30.3520441,10.4919951 29.6545075,11.1039963 C29.5733234,11.1915214 28.6132765,11.8629227 28.0847991,12.255886 C28.5019829,12.5141865 28.69,12.8151245 28.7734144,13.0553125 C28.8335219,13.2327253 28.8390977,13.3765006 28.8346371,13.4494007 C28.8346371,13.576301 28.8335219,13.6987012 28.8290612,13.8199765 L28.9437004,13.8907391 C36.3362506,7.91529015 46.4577247,1.21893983 46.4577247,1.21893983 L46.4577247,1.22006484 C46.4577247,1.22006484 45.953781,3.59359438 45.1350258,6.269187 C45.5243304,6.07838663 47.0908048,5.32047268 47.0908048,5.32047268 C46.646857,6.76216294 46.0472319,8.32276593 46.0472319,8.32276593" id="Shape" fill="#A0A0A4" fill-rule="nonzero" mask="url(#mask-36)"></path>
                                </g>
                            </g>
                        </g>
                    </g>
                </g>
            </g>
        </g>
    </g>
</svg>