<?xml version="1.0" encoding="UTF-8"?>
<svg width="80px" height="83px" viewBox="0 0 80 83" version="1.1" xmlns="http://www.w3.org/2000/svg" xmlns:xlink="http://www.w3.org/1999/xlink">
    <title>BC202D2A-8058-499A-979D-0CC7FF7C7A93</title>
    <defs>
        <polygon id="path-1" points="0 82 80 82 80 0 0 0"></polygon>
        <polygon id="path-3" points="0 82.0512821 80 82.0512821 80 0 0 0"></polygon>
        <polygon id="path-5" points="0 82.0512821 80 82.0512821 80 0 0 0"></polygon>
        <polygon id="path-7" points="0 82.0512821 80 82.0512821 80 0 0 0"></polygon>
        <polygon id="path-9" points="0 82.0512821 80 82.0512821 80 0 0 0"></polygon>
        <polygon id="path-11" points="0 82.0512821 80 82.0512821 80 0 0 0"></polygon>
        <polygon id="path-13" points="0 82.0512821 80 82.0512821 80 0 0 0"></polygon>
        <polygon id="path-15" points="0 82.0512821 80 82.0512821 80 0 0 0"></polygon>
        <polygon id="path-17" points="0 82.0512821 80 82.0512821 80 0 0 0"></polygon>
        <polygon id="path-19" points="0 82.0512821 80 82.0512821 80 0 0 0"></polygon>
        <polygon id="path-21" points="0 82.0512821 80 82.0512821 80 0 0 0"></polygon>
        <polygon id="path-23" points="0 82.0512821 80 82.0512821 80 0 0 0"></polygon>
        <polygon id="path-25" points="0 82.0512821 80 82.0512821 80 0 0 0"></polygon>
        <polygon id="path-27" points="0 82.0512821 80 82.0512821 80 0 0 0"></polygon>
        <polygon id="path-29" points="0 80 80 80 80 0 0 0"></polygon>
        <polygon id="path-31" points="0 80 80 80 80 0 0 0"></polygon>
        <polygon id="path-33" points="0 80 80 80 80 0 0 0"></polygon>
        <polygon id="path-35" points="0 80 80 80 80 0 0 0"></polygon>
    </defs>
    <g id="Specifications" stroke="none" stroke-width="1" fill="none" fill-rule="evenodd">
        <g id="Teams" transform="translate(-48.000000, -798.000000)">
            <g id="Group-6" transform="translate(48.000000, 713.000000)">
                <g id="Group-3" transform="translate(0.000000, 48.000000)">
                    <g id="Group-12" transform="translate(0.000000, 37.000000)">
                        <g id="Clipped">
                            <mask id="mask-2" fill="white">
                                <use xlink:href="#path-1"></use>
                            </mask>
                            <g id="Path"></g>
                            <path d="M78.0828429,8.01737636 C78.0828429,8.01737636 77.4375333,8.32974411 76.7089578,8.68314877 C77.7176259,5.1185587 78.327622,2.26115273 78.3350564,2.22554992 L78.807887,0.00187383171 L76.9202819,1.2492836 C76.7570958,1.35590463 60.9280509,11.8399931 48.8389026,21.4598703 L48.8296095,21.4392581 C48.7350062,21.1662409 48.5736788,20.8297007 48.293772,20.483604 C48.3809409,20.4219549 48.4681097,20.3603058 48.55342,20.2965956 C49.7566846,19.4327591 49.9735845,19.2680493 50.0310156,19.198905 C51.4180968,17.9833503 51.7480003,16.5095817 51.6108348,15.6176378 L51.177035,12.7918996 L43.7751174,18.3498718 C41.8263639,17.846748 39.4289418,17.519577 36.2509032,18.347998 L28.8508442,12.7918996 L28.4151858,15.615764 C28.2761617,16.5095817 28.6079237,17.9833503 29.9171292,19.1222652 C30.0505774,19.2699232 30.2730532,19.4365068 31.504197,20.3209554 C31.5783555,20.3752965 31.6543727,20.4313241 31.7303899,20.483604 C31.4949039,20.7772334 31.3133176,21.0989703 31.1926938,21.4430058 L31.187118,21.4579965 C19.3390315,12.0307491 3.27264195,1.35965229 3.10573869,1.2492836 L1.22203662,0 L1.68929138,2.22367609 C1.72441913,2.38632468 2.39203214,5.5450428 3.28751083,8.66815811 C2.56618397,8.31850112 1.94317762,8.01737636 1.94317762,8.01737636 L0,7.07858667 L0.660178566,9.14692212 C0.699209393,9.27228146 1.6409675,12.219444 2.40857377,14.1813458 C3.54158293,17.3175779 5.69236738,22.2789221 7.62439334,25.7106575 C8.62562699,27.4199668 10.1905773,28.9891135 12.152341,30.2513265 C13.2721541,30.9695662 14.473746,31.5624466 15.7309103,32.0131031 C15.9589619,32.5366517 16.3983375,33.5072965 16.9230233,34.4423385 L13.1238369,34.4423385 L13.1238369,41.0719551 L7.59484143,43.7425401 L13.1275541,46.553475 L13.1349886,51.7749071 L18.0800085,54.8230692 L18.4008048,54.7839061 C18.4008048,54.7839061 21.3805297,54.4117631 23.0919385,54.2247547 L35.8726759,61.6659278 C38.4537287,73.6031727 39.0971798,76.9974315 39.1025698,77.0290992 L40.0352207,82 L40.9253094,77.0217913 C40.9327438,76.9861885 41.5780535,73.4049213 44.1533447,61.6678016 L56.9342679,54.2247547 C58.6456768,54.4117631 61.6233572,54.7839061 61.6252158,54.7839061 L61.946012,54.8230692 L66.891032,51.7749071 L66.8966078,46.5553489 L72.431365,43.7425401 L66.9021836,41.0719551 L66.9021836,34.4423385 L63.0955628,34.4423385 C63.6258245,33.4979274 64.0653859,32.5347779 64.2934375,32.0131031 C65.8453775,31.4483302 70.1543809,29.5911756 72.4034858,25.7069099 C73.4863125,23.834952 75.8188691,19.0268872 77.6118709,14.1944626 C77.6748779,14.0297528 78.6372665,11.5126347 79.3695592,9.13942679 L80,7.0917035 L78.0828429,8.01737636 L78.0828429,8.01737636 Z" id="Path" fill="#FEFEFE" fill-rule="nonzero" mask="url(#mask-2)"></path>
                        </g>
                        <path d="M20.2878524,36.2035068 L14.8346882,36.2035068 L14.8346882,42.1767057 L11.5564704,43.7972713 L14.8346882,45.5245246 L14.8346882,50.8334098 L18.4560055,53.0695391 C19.7908598,52.8936637 21.4929756,52.6859133 23.4640324,52.4839755 L37.4610447,60.625991 L40.0125456,72.4713262 C40.0290873,72.4432012 42.5896954,60.625991 42.5896954,60.625991 L56.5627316,52.4839755 C58.535647,52.6859133 60.2377628,52.8936637 61.5709443,53.0695391 L65.1883586,50.8334098 L65.1883586,45.5245246 L68.4740108,43.8347714 L65.1883586,42.1767057 L65.1883586,36.2035068 L59.7389116,36.2035068 C59.7389116,36.2035068 60.5825351,35.3801927 61.6525374,33.5237517 C62.0993474,32.7471252 62.5201369,31.7798108 63.0375741,30.6326836 C67.0110982,29.4126188 69.9424992,26.8526764 71.1994777,24.3562966 C74.6020366,18.0686596 77.1626447,10.3813324 77.1626447,10.3813324 C77.1626447,10.3813324 75.6941563,11.0925212 73.9214133,11.9756479 C75.3603498,7.54632694 76.224418,3.78675725 76.224418,3.78675725 C76.224418,3.78675725 60.5288212,14.2661523 48.3025075,24.1110462 L47.2436569,23.4692324 C47.2473741,23.3681697 47.2771119,22.468168 47.2771119,22.3933554 C47.2771119,22.3933554 47.3956913,21.3472909 45.5712789,20.7221647 C45.4580895,20.6829771 45.3525204,20.647352 45.2467654,20.611727 C46.1312783,19.9417882 47.5070221,18.9163487 48.5101143,18.2220349 C50.1101924,17.1142828 49.9211717,15.8960929 49.9211717,15.8960929 L44.1213766,20.2524763 C39.6397083,18.7854735 35.9055733,20.2524763 35.9055733,20.2524763 L30.1074509,15.8960929 C30.1074509,15.8960929 29.9165716,17.1142828 31.5166497,18.2220349 C32.5216005,18.9163487 33.8954857,19.9417882 34.7818572,20.611727 C34.6761022,20.647352 34.5686745,20.6829771 34.4573437,20.7221647 C32.6310727,21.3472909 32.7533693,22.3933554 32.7533693,22.3933554 C32.7533693,22.468168 32.7793899,23.3681697 32.7849657,23.4692324 L31.7242565,24.1110462 C19.4998014,14.2661523 3.80606325,3.78675725 3.80606325,3.78675725 C3.80606325,3.78675725 4.66641421,7.54632694 6.10535071,11.9756479 C4.2084525,11.0287711 2.86430515,10.3813324 2.86430515,10.3813324 C2.86430515,10.3813324 5.42491328,18.0686596 8.82914488,24.3562966 C10.0842648,26.8526764 13.0158516,29.4126188 16.9891899,30.6326836 C16.9891899,30.6326836 17.6605201,32.1857491 18.2407784,33.3011887 C18.9565294,34.6802539 20.2878524,36.2035068 20.2878524,36.2035068 Z" id="Path" fill="#1C1060" fill-rule="nonzero"></path>
                        <path d="M46.5957452,27.2514897 C46.5437041,27.4256775 46.4825558,27.5921778 46.4251247,27.7586781 C51.9208511,24.1357962 61.5216911,17.8145966 72.2797023,10.7615831 C72.2797023,10.7615831 72.2925268,10.9974585 73.2456224,8.20726571 C61.8796596,15.1348415 51.8132375,22.986794 46.5957452,27.2514897 Z M33.4310188,27.2520522 C28.2135265,22.9873565 18.148963,15.135404 6.78300022,8.20595321 C7.73423724,10.9980211 7.74724751,10.7602706 7.74724751,10.7602706 C18.5050728,17.8132841 28.1059129,24.1344837 33.6016393,27.7573656 C33.5423496,27.5927403 33.4849185,27.424365 33.4310188,27.2520522 Z M23.452509,36.5123199 C23.4487918,36.5104449 20.7528768,34.5660662 19.2306745,31.0069343 L20.3079253,31.33056 C23.8251605,32.2701243 30.5503579,33.2057511 30.5503579,33.2057511 C27.3109851,33.2786887 24.5725079,33.5350017 23.0094162,33.710877 C22.6849027,33.3049387 22.3122513,32.7865003 22.16951,32.4009995 C22.16951,32.4009995 22.2899479,33.6454394 22.5663234,34.4239409 C22.9166715,35.5616931 23.4487918,36.5085699 23.452509,36.5123199 L23.452509,36.5123199 Z M40.0084567,32.8519379 C39.0683713,32.4889372 36.7005011,31.2969974 35.2803366,28.1794289 C36.4447563,29.1917434 37.9353622,29.5155565 39.127661,28.3515543 C37.6721829,27.7191156 37.4922693,25.099173 37.2105039,24.4123592 C36.6412114,23.0201691 35.7401569,22.3164802 35.0281231,22.0209796 C35.3559821,21.9088544 35.6855138,21.8016042 36.0163465,21.6990415 C36.6967839,22.0714172 37.8335103,22.9284814 38.1894343,24.6369847 C38.1894343,24.6369847 38.3377514,22.6871684 37.3811244,21.3191658 C39.2371332,20.8682274 41.1098695,20.9299151 42.6376476,21.3172908 C41.6789761,22.6852934 41.8254346,24.6369847 41.8254346,24.6369847 C42.1834031,22.9266064 43.3236608,22.0676672 44.0059568,21.6971665 C44.3118842,21.7926042 44.6419735,21.9011669 44.9978974,22.0209796 C44.2841909,22.3164802 43.3829505,23.0201691 42.8155166,24.4123592 C42.5356098,25.099173 42.3538377,27.7191156 40.9020768,28.3515543 C41.2358833,30.3463706 40.824201,32.2063741 40.0084567,32.8519379 Z M57.4528203,34.4231909 C57.7290099,33.6446894 57.8496337,32.4002495 57.8496337,32.4002495 C57.7067066,32.7857503 57.3340551,33.3041887 57.0078689,33.710127 C55.4466358,33.5361267 52.7061141,33.2798137 49.4687858,33.2068761 C49.4687858,33.2068761 56.1919387,32.2693743 59.7093597,31.32981 L60.7866106,31.0080594 C59.266081,34.5671912 56.570166,36.5115699 56.5664488,36.5115699 C56.570166,36.5096949 57.1004277,35.5628181 57.4528203,34.4231909 L57.4528203,34.4231909 Z M31.6389463,53.3582896 L24.7895936,49.368657 C24.2963183,49.4155321 23.8123361,49.4622197 23.3469399,49.5109698 L32.8570798,55.0519804 C32.3935423,54.5354169 31.9855772,53.9665408 31.6389463,53.3582896 Z M48.3863308,53.3582896 L55.2354976,49.368657 C55.7269143,49.4155321 56.2108966,49.4622197 56.6762927,49.5109698 L47.1680114,55.0519804 C47.631549,54.5354169 48.0395141,53.9665408 48.3863308,53.3582896 Z M36.9673976,54.2899789 C33.943252,53.6275401 32.6916634,52.1228498 32.6916634,52.1228498 C33.3109526,53.3954147 34.2473207,54.4846043 35.3950129,55.2835433 C35.3950129,55.2835433 36.6689047,54.9111676 36.9673976,54.2899789 Z M35.1160354,51.0299102 C34.8976486,50.8154098 34.6826074,50.5977218 34.4707257,50.3768464 C33.5064784,50.7154721 32.9578165,51.0934728 32.6684308,51.3499733 C33.3379024,51.993662 34.613467,52.8488512 36.9034614,53.3297896 C36.6252274,52.5362881 35.9131936,51.8252867 35.1160354,51.0299102" id="Shape" fill="#008CA8" fill-rule="nonzero"></path>
                        <path d="M39.9530701,58.230299 C38.9499778,58.247174 38.2344126,58.6382997 37.9952094,58.7281124 C37.7448546,58.250924 37.4519375,57.7662356 37.1755621,57.3377972 C38.0377716,57.4442975 38.7960848,57.2815471 38.7960848,57.2815471 C38.434585,57.1619219 37.5037927,56.8437338 36.2800834,56.0296072 C36.2782247,56.0296072 36.2763661,56.0277322 36.2763661,56.0277322 C36.3819352,55.9829197 36.4895488,55.9341696 36.599021,55.879982 C36.599021,55.879982 36.6008796,55.878107 36.6008796,55.876232 C36.9233486,55.7134816 37.247862,55.5019812 37.5037927,55.2362932 C37.8097201,54.9181051 38.0191855,54.5232294 38.0191855,54.0329159 C38.0191855,52.517163 37.0086588,52.006412 35.8721183,50.8742849 C35.6440667,50.6477844 35.3992877,50.413784 35.1507914,50.166846 C36.1929145,49.884283 37.6095477,49.6634076 39.5155531,49.629845 L39.9716562,56.0614823 L40.0383803,56.0614823 L40.5093523,49.629845 C42.4155436,49.6634076 43.8301323,49.884283 44.874114,50.166846 C44.6256177,50.413784 44.3808387,50.6477844 44.1527871,50.8742849 C43.0162466,52.006412 42.0057199,52.517163 42.0057199,54.0329159 C42.0057199,54.5232294 42.2151853,54.9181051 42.5211127,55.2362932 C42.7770434,55.5019812 43.0996982,55.7134816 43.422353,55.876232 L43.4260703,55.879982 C43.5353566,55.9341696 43.6429702,55.9829197 43.7466806,56.0277322 C43.7466806,56.0277322 43.7466806,56.0296072 43.744822,56.0296072 C42.5211127,56.8437338 41.5903204,57.1617344 41.2288205,57.2815471 C41.2288205,57.2815471 41.9852752,57.4442975 42.8493433,57.3377972 C42.5731538,57.7662356 42.2800508,58.250924 42.0280232,58.7281124 C41.7906786,58.6382997 41.0749276,58.247174 40.0718353,58.230299 L39.9530701,58.230299 Z" id="Path" fill="#008CA8" fill-rule="nonzero"></path>
                        <path d="M44.6306359,55.2831683 C45.7783281,54.4842293 46.7128377,53.3950397 47.3339854,52.1243498 C47.3339854,52.1243498 46.0823969,53.6271651 43.0582512,54.2896039 C43.3548855,54.9107926 44.6306359,55.2831683 44.6306359,55.2831683 Z M43.1212581,53.3299771 C45.4112525,52.8490387 46.6868171,51.9938495 47.3562887,51.3501608 C47.0670889,51.0917853 46.5182411,50.7137846 45.5539938,50.3770339 C45.3389525,50.6016594 45.120194,50.8204723 44.9086841,51.0300977 C44.1096673,51.8254742 43.3994921,52.5364756 43.1212581,53.3299771" id="Shape" fill="#008CA8" fill-rule="nonzero"></path>
                        <path d="M37.9628696,28.5263046 C37.9628696,28.5263046 36.8540224,27.7871782 36.6761533,26.2151752 C36.6761533,26.2151752 35.2390754,28.6442423 37.9628696,28.5263046 Z M42.1425136,28.5263046 C42.1425136,28.5263046 43.2513609,27.7871782 43.4292299,26.2151752 C43.4292299,26.2151752 44.8681664,28.6442423 42.1425136,28.5263046 L42.1425136,28.5263046 Z M41.3276986,60.5823035 C41.129199,60.3747406 40.8399992,60.1332401 39.9554863,60.1313529 C39.1211559,60.1294901 38.8300974,60.3447405 38.587177,60.5449909 L40.0129173,66.2337518 L41.3276986,60.5823035 Z M50.7529,35.5924431 L50.7529,37.6751971 L50.0594523,37.6751971 L50.0594523,35.5924431 L49.484584,35.5924431 L49.484584,34.997317 L51.3259097,34.997317 L51.3259097,35.5924431 L50.7529,35.5924431 Z M47.5254223,35.5924431 L47.5254223,37.6751971 L46.830116,37.6751971 L46.830116,35.5924431 L46.2552477,35.5924431 L46.2552477,34.997317 L48.1001048,34.997317 L48.1001048,35.5924431 L47.5254223,35.5924431 Z" id="Shape" fill="#FEFEFE" fill-rule="nonzero"></path>
                        <g id="Clipped">
                            <mask id="mask-4" fill="white">
                                <use xlink:href="#path-3"></use>
                            </mask>
                            <g id="Path"></g>
                            <path d="M36.6309891,36.1238191 L37.3709021,36.1238191 L37.3709021,35.5943181 L36.6309891,35.5943181 L36.6309891,36.1238191 Z M37.7731054,36.7264453 L38.0216017,36.7264453 L38.0216017,35.285505 L37.7324019,34.997317 L35.9765722,34.997317 L35.9765722,37.6751971 L36.6309891,37.6751971 L36.6309891,36.7264453 L37.1224058,36.7264453 L37.5006331,37.6751971 L38.14966,37.6751971 L37.7731054,36.7264453 Z" id="Shape" fill="#FEFEFE" fill-rule="nonzero" mask="url(#mask-4)"></path>
                        </g>
                        <g id="Clipped">
                            <mask id="mask-6" fill="white">
                                <use xlink:href="#path-5"></use>
                            </mask>
                            <g id="Path"></g>
                            <polygon id="Path" fill="#FEFEFE" fill-rule="nonzero" mask="url(#mask-6)" points="54.7485416 35.5930056 54.7485416 34.998067 52.8016467 34.998067 52.8016467 37.6757596 54.7485416 37.6757596 54.7485416 37.073321 53.4802255 37.073321 53.4802255 36.6334451 54.7485416 36.6334451 54.7485416 36.0328815 53.4802255 36.0328815 53.4802255 35.5930056"></polygon>
                        </g>
                        <g id="Clipped">
                            <mask id="mask-8" fill="white">
                                <use xlink:href="#path-7"></use>
                            </mask>
                            <g id="Path"></g>
                            <polygon id="Path" fill="#FEFEFE" fill-rule="nonzero" mask="url(#mask-8)" points="40.3701423 37.074071 40.3701423 34.996942 39.6897049 34.996942 39.6897049 37.6748221 41.3490727 37.6748221 41.3490727 37.074071"></polygon>
                        </g>
                        <g id="Clipped">
                            <mask id="mask-10" fill="white">
                                <use xlink:href="#path-9"></use>
                            </mask>
                            <g id="Path"></g>
                            <path d="M43.2911351,37.074446 L44.0440584,37.074446 L44.0440584,35.5941306 L43.2911351,35.5941306 L43.2911351,37.074446 Z M44.401841,34.997317 L42.6404355,34.997317 L42.6404355,37.373884 L42.9370698,37.6751971 L44.694758,37.6751971 L44.694758,35.2948801 L44.401841,34.997317 Z" id="Shape" fill="#FEFEFE" fill-rule="nonzero" mask="url(#mask-10)"></path>
                        </g>
                        <g id="Clipped">
                            <mask id="mask-12" fill="white">
                                <use xlink:href="#path-11"></use>
                            </mask>
                            <g id="Path"></g>
                            <path d="M32.9856957,36.2005068 L33.7402917,36.2005068 L33.7402917,35.5922556 L32.9856957,35.5922556 L32.9856957,36.2005068 L32.9856957,36.2005068 Z M34.4116219,37.6751971 L34.4079047,35.2967551 L34.1149876,34.997317 L32.3182685,34.997317 L32.3182685,37.6751971 L32.9856957,37.6751971 L32.9856957,36.8050079 L33.7386189,36.8050079 L33.7386189,37.6751971 L34.4116219,37.6751971 Z" id="Shape" fill="#FEFEFE" fill-rule="nonzero" mask="url(#mask-12)"></path>
                        </g>
                        <g id="Clipped">
                            <mask id="mask-14" fill="white">
                                <use xlink:href="#path-13"></use>
                            </mask>
                            <g id="Path"></g>
                            <polygon id="Path" fill="#FEFEFE" fill-rule="nonzero" mask="url(#mask-14)" points="30.199638 34.997317 30.199638 36.2005068 29.4506179 36.2005068 29.4506179 34.997317 28.7830049 34.997317 28.7830049 37.6751971 29.4506179 37.6751971 29.4506179 36.8050079 30.199638 36.8050079 30.199638 37.6751971 30.8653924 37.6751971 30.8653924 34.997317"></polygon>
                        </g>
                        <g id="Clipped">
                            <mask id="mask-16" fill="white">
                                <use xlink:href="#path-15"></use>
                            </mask>
                            <g id="Path"></g>
                            <path d="M70.017773,15.9883431 C71.3082065,12.9268372 72.2798882,10.7598956 72.2798882,10.7598956 C61.521877,17.8129091 51.9191783,24.1359837 46.4253106,27.7588656 C46.2158451,28.3483668 45.9766419,28.8853678 45.7151354,29.3775562 L67.3848649,17.4628459 L50.469276,29.7928695 L51.2498925,29.6507443 L60.1886955,28.7786801 C60.1886955,28.7786801 66.2297382,28.189179 69.5912218,23.6287952 C71.1728996,21.1792905 73.866956,14.0216518 73.866956,14.0216518 L70.017773,15.9883431 Z" id="Path" fill="#FEFEFE" fill-rule="nonzero" mask="url(#mask-16)"></path>
                        </g>
                        <g id="Clipped">
                            <mask id="mask-18" fill="white">
                                <use xlink:href="#path-17"></use>
                            </mask>
                            <g id="Path"></g>
                            <path d="M18.2417077,44.5206477 L20.325768,43.6148335 L20.325768,48.3885926 C20.9210811,48.30628 21.536653,48.2294048 22.1596593,48.1545922 L22.1578007,37.6753504 L20.3276266,37.6753504 C20.3239094,37.6622596 20.3239094,41.4310168 20.325768,41.4497668 L18.2417077,42.336831 L18.2435663,37.6753504 L16.4005678,37.6753504 L16.4005678,43.1003325 C16.4005678,43.1003325 14.8839414,43.8338339 14.8911641,43.8488339 L16.4005678,44.6104604 L16.4005678,49.0097813 C16.9919778,48.9012186 17.6168427,48.7982809 18.2417077,48.6974057 L18.2417077,44.5206477 L18.2417077,44.5206477 Z" id="Path" fill="#FEFEFE" fill-rule="nonzero" mask="url(#mask-18)"></path>
                        </g>
                        <g id="Clipped">
                            <mask id="mask-20" fill="white">
                                <use xlink:href="#path-19"></use>
                            </mask>
                            <g id="Path"></g>
                            <path d="M32.531637,41.008766 L34.6082629,41.008766 C34.6082629,41.5234545 34.6045457,42.1858932 34.6045457,42.6518316 C33.911098,42.6612067 33.2250847,42.6743317 32.5334957,42.6855817 L32.531637,41.008766 Z M32.5334957,44.4895227 C32.9914574,44.4763976 33.4382674,44.4632726 33.8980877,44.4520226 C34.2356114,45.3390868 34.584101,46.3457762 34.9216247,47.2347154 C35.5279036,47.2178404 36.1399441,47.2028403 36.755516,47.1915903 C36.4179923,46.2990886 36.0748927,45.2978367 35.7394135,44.4145225 C35.9711822,44.4107725 36.2048096,44.4051475 36.4402956,44.40346 L36.438437,40.1181393 L35.6262241,39.3096377 L30.0007667,39.3096377 L30.696073,40.1460768 L30.696073,47.4180908 C31.3023518,47.3843407 31.9123479,47.3524656 32.5334957,47.3245281 L32.5334957,44.4895227 Z" id="Shape" fill="#FEFEFE" fill-rule="nonzero" mask="url(#mask-20)"></path>
                        </g>
                        <g id="Clipped">
                            <mask id="mask-22" fill="white">
                                <use xlink:href="#path-21"></use>
                            </mask>
                            <g id="Path"></g>
                            <path d="M39.6962101,41.008766 L41.8007151,41.008766 L41.8007151,47.1672153 C42.4328286,47.1728403 43.08929,47.1822153 43.7141549,47.1953403 L43.7141549,40.1498268 L42.8761073,39.3096377 L37.1263089,39.3096377 L37.817898,40.1460768 L37.817898,47.1747153 C38.4409043,47.1672153 39.0639107,47.1617778 39.6962101,47.1599028 L39.6962101,41.008766 Z" id="Path" fill="#FEFEFE" fill-rule="nonzero" mask="url(#mask-22)"></path>
                        </g>
                        <g id="Clipped">
                            <mask id="mask-24" fill="white">
                                <use xlink:href="#path-23"></use>
                            </mask>
                            <g id="Path"></g>
                            <path d="M50.5813502,45.69215 C49.3929545,45.6285873 48.222959,45.5742122 47.0343773,45.5331497 C47.0288015,45.0932738 47.0288015,44.6554605 47.0288015,44.2176471 C48.2132942,44.2510222 49.397601,44.2926473 50.5813502,44.3428974 L50.5813502,42.4941438 C49.3910959,42.4622688 48.2118073,42.4341437 47.0250843,42.4137062 C47.0232257,42.058018 47.0232257,41.4555793 47.0232257,41.008391 L50.5813502,41.008391 L50.5813502,39.3109502 L44.4089037,39.3109502 L45.0930583,40.1419518 L45.0930583,47.2322779 C46.9713704,47.2864655 48.8087931,47.3708407 50.5813502,47.4829659 L50.5813502,45.69215 L50.5813502,45.69215 Z" id="Path" fill="#FEFEFE" fill-rule="nonzero" mask="url(#mask-24)"></path>
                        </g>
                        <g id="Clipped">
                            <mask id="mask-26" fill="white">
                                <use xlink:href="#path-25"></use>
                            </mask>
                            <g id="Path"></g>
                            <path d="M55.2050164,41.008766 L56.7865083,41.008766 L56.7865083,39.3096377 L51.6004266,39.3096377 L51.6004266,41.008766 L53.2135149,41.008766 L53.2135149,47.6762788 C53.8755521,47.7306539 54.5652825,47.7867165 55.2050164,47.8484041 L55.2050164,41.008766 L55.2050164,41.008766 Z" id="Path" fill="#FEFEFE" fill-rule="nonzero" mask="url(#mask-26)"></path>
                        </g>
                        <g id="Clipped">
                            <mask id="mask-28" fill="white">
                                <use xlink:href="#path-27"></use>
                            </mask>
                            <g id="Path"></g>
                            <path d="M27.4921996,45.7830876 C26.7857417,45.8280877 26.0941526,45.8729003 25.3876946,45.9254004 L25.3876946,41.009516 L27.4940583,41.009516 L27.4921996,45.7830876 Z M29.3370568,40.1468268 L28.5064436,39.3102002 L22.8624001,39.3102002 L23.5298272,40.1205768 L23.5316858,47.0406525 L24.2604471,47.9164667 C25.8791113,47.7516539 27.5886615,47.6114036 29.3351981,47.4972159 L29.3370568,40.1468268 Z" id="Shape" fill="#FEFEFE" fill-rule="nonzero" mask="url(#mask-28)"></path>
                        </g>
                        <g id="Clipped">
                            <mask id="mask-30" fill="white">
                                <use xlink:href="#path-29"></use>
                            </mask>
                            <g id="Path"></g>
                            <path d="M63.4319714,44.5733353 C63.9992194,44.3170223 64.5703705,44.0548968 65.139663,43.7854588 C63.3094889,42.9302697 61.4776421,42.1517682 59.6456094,41.4332668 L59.6418922,39.3317628 L61.5850698,39.3317628 L61.5850698,40.0952642 L63.4319714,40.0952642 L63.4319714,37.6757596 L57.1091632,37.6757596 L57.8119039,38.4971987 L57.8119039,42.829207 L61.5850698,44.4835226 L61.5850698,46.9049023 C61.5850698,46.9049023 60.7100358,46.7927771 59.6437508,46.6542143 L59.6437508,45.8775878 L57.8119039,45.6568999 L57.8119039,48.1289046 C59.8162299,48.3645926 61.6982592,48.6415306 63.4319714,48.9503437 C63.4301127,47.6329662 63.4319714,45.5539622 63.4319714,44.5733353 Z" id="Path" fill="#FEFEFE" fill-rule="nonzero" mask="url(#mask-30)"></path>
                        </g>
                        <g id="Clipped">
                            <mask id="mask-32" fill="white">
                                <use xlink:href="#path-31"></use>
                            </mask>
                            <g id="Path"></g>
                            <polygon id="Path" fill="#FEFEFE" fill-rule="nonzero" mask="url(#mask-32)" points="26.6249718 36.843258 26.6249718 37.0735085 26.0317033 37.0735085 26.0317033 35.5933806 26.6249718 35.5933806 26.6249718 35.8140686 27.2907262 35.8140686 27.2907262 34.9982545 25.3771005 34.9982545 25.3771005 37.3748215 25.6755934 37.6742596 27.2907262 37.6742596 27.2907262 36.843258"></polygon>
                        </g>
                        <g id="Clipped">
                            <mask id="mask-34" fill="white">
                                <use xlink:href="#path-33"></use>
                            </mask>
                            <g id="Path"></g>
                            <path d="M9.82842467,14.9446847 C8.54495039,12.0493355 7.57850885,10 7.57850885,10 C18.2785029,16.6702263 27.829415,22.6501295 33.2936547,26.0763873 C33.5019905,26.6338945 33.7399037,27.141751 34,27.6072269 L12.4471337,16.339162 L29.2714981,28 L28.4950913,27.8655883 L19.6044947,27.0408535 C19.6044947,27.0408535 13.5962157,26.4833463 10.2526755,22.1704676 C8.67952755,19.8539046 6,13.0847314 6,13.0847314 L9.82842467,14.9446847 Z" id="Path" fill="#FEFEFE" fill-rule="nonzero" mask="url(#mask-34)"></path>
                        </g>
                        <g id="Clipped">
                            <mask id="mask-36" fill="white">
                                <use xlink:href="#path-35"></use>
                            </mask>
                            <g id="Path"></g>
                            <path d="M20.2878524,36.2035068 L14.8346882,36.2035068 L14.8346882,42.1767057 L11.5564704,43.7972713 L14.8346882,45.5245246 L14.8346882,50.8334098 L18.4560055,53.0695391 C19.7908598,52.8936637 21.4929756,52.6859133 23.4640324,52.4839755 L37.4612305,60.625991 L40.0125456,72.4713262 C40.0290873,72.4433887 42.5896954,60.625991 42.5896954,60.625991 L56.5627316,52.4839755 C58.535647,52.6861008 60.2377628,52.8936637 61.5709443,53.0695391 L65.1883586,50.8334098 L65.1883586,45.5245246 L68.4740108,43.8347714 L65.1883586,42.1767057 L65.1883586,36.2035068 L59.7389116,36.2035068 C59.7389116,36.2035068 60.5825351,35.3801927 61.6525374,33.5237517 C62.0993474,32.7473127 62.5203227,31.7798108 63.0375741,30.6326836 C67.0110982,29.4126188 69.9424992,26.8526764 71.1996636,24.3562966 C74.6020366,18.0686596 77.1626447,10.3813324 77.1626447,10.3813324 C77.1626447,10.3813324 75.6941563,11.0925212 73.9215991,11.9756479 C75.3603498,7.54632694 76.224418,3.78694475 76.224418,3.78694475 C76.224418,3.78694475 60.5288212,14.2661523 48.3025075,24.1112337 L47.2436569,23.4692324 C47.2473741,23.3681697 47.2771119,22.468168 47.2771119,22.3933554 C47.2771119,22.3933554 47.3958771,21.3472909 45.5712789,20.7221647 C45.4582753,20.6829771 45.3525204,20.647352 45.2467654,20.611727 C46.1312783,19.9417882 47.5070221,18.9163487 48.5101143,18.2222224 C50.1103783,17.1142828 49.9211717,15.8960929 49.9211717,15.8960929 L44.1213766,20.2524763 C39.6398942,18.7854735 35.9055733,20.2524763 35.9055733,20.2524763 L30.1074509,15.8960929 C30.1074509,15.8960929 29.9165716,17.1142828 31.5166497,18.2222224 C32.5216005,18.9163487 33.8956715,19.9419757 34.7818572,20.611727 C34.6762881,20.647352 34.5686745,20.6829771 34.4573437,20.7221647 C32.6310727,21.3472909 32.7533693,22.3933554 32.7533693,22.3933554 C32.7533693,22.468168 32.7793899,23.3681697 32.7849657,23.4692324 L31.7244424,24.1112337 C19.4998014,14.2661523 3.80606325,3.78694475 3.80606325,3.78694475 C3.80606325,3.78694475 4.66641421,7.54632694 6.10535071,11.9756479 C4.2084525,11.0287711 2.86411929,10.3813324 2.86411929,10.3813324 C2.86411929,10.3813324 5.42472742,18.0686596 8.82895902,24.3562966 C10.0842648,26.8526764 13.0158516,29.4126188 16.9891899,30.6326836 C16.9891899,30.6326836 17.6605201,32.1859366 18.2407784,33.3011887 C18.9565294,34.6802539 20.2878524,36.2035068 20.2878524,36.2035068 L20.2878524,36.2035068 Z M76.7453866,13.8712766 C75.0265433,18.5102229 72.7441692,23.2802321 71.6037256,25.2525483 C69.6809927,28.5722422 65.8520685,30.552246 63.6066808,31.2819974 C63.6066808,31.2819974 62.5164197,33.9373775 61.3928894,35.3989428 L65.9764096,35.3989428 L65.9764096,41.6882673 L70.3300196,43.7916463 L65.9708337,46.0092131 L65.9652579,51.2843482 L61.7397062,53.8892906 C61.7397062,53.8892906 58.372461,53.4681648 56.7333521,53.2960395 L43.3370428,61.1031795 C40.650235,73.3415154 40.0144042,76.9043972 40.0144042,76.9043972 C40.0144042,76.9043972 39.3839634,73.5436408 36.6915798,61.1031795 L23.2934119,53.2960395 C21.654303,53.4681648 18.2872437,53.8892906 18.2872437,53.8892906 L14.0615061,51.2843482 L14.0540716,46.0092131 L9.69860302,43.7916463 L14.0503544,41.6882673 L14.0503544,35.3989428 L18.6338746,35.3989428 C17.5306032,34.0065651 16.4200832,31.2819974 16.4200832,31.2819974 C15.0720328,30.836684 13.7983268,30.2190578 12.6523073,29.4799314 C10.8427638,28.3178042 9.35940655,26.8508014 8.42303841,25.2525483 C6.59844016,22.0059796 4.45323154,17.1180328 3.28137742,13.8712766 C2.5063367,11.8914603 1.54227526,8.86745447 1.54227526,8.86745447 C1.54227526,8.86745447 4.03597341,10.0706443 4.80190693,10.448645 C3.60774948,6.83888809 2.59722277,2.03344139 2.59722277,2.03344139 L2.59722277,2.03156639 C2.59722277,2.03156639 19.7538735,13.4147132 31.7874493,23.1512318 L31.9783286,23.0332941 C31.9727528,22.8311687 31.9671769,22.6271683 31.9671769,22.4156679 C31.9634597,22.2941677 31.9708942,22.0545422 32.0710733,21.7588541 C32.2100974,21.3585409 32.5216005,20.8569774 33.2206241,20.4264766 C32.336297,19.7715378 30.7434676,18.6619107 30.6044435,18.5066604 C29.4400238,17.4866585 29.2433828,16.3376563 29.3324102,15.7725302 L29.5309099,14.4776527 L36.0594663,19.3841621 C39.6101564,18.3587226 42.1189093,18.8659111 43.9674836,19.3841621 L50.49604,14.4776527 L50.6943538,15.7725302 C50.7833812,16.3376563 50.5867402,17.4866585 49.4241791,18.5066604 C49.2888723,18.6525357 47.6887942,19.7715378 46.8079985,20.4264766 C47.5033048,20.8569774 47.8166666,21.3585409 47.9556907,21.7588541 C48.0558698,22.0545422 48.0651629,22.2941677 48.0577285,22.4156679 C48.0577285,22.6271683 48.0558698,22.8311687 48.0484354,23.0332941 L48.2395006,23.1512318 C60.5604176,13.1921503 77.4295412,2.03156639 77.4295412,2.03156639 L77.4295412,2.03344139 C77.4295412,2.03344139 76.589635,5.98932396 75.2250429,10.448645 C75.873884,10.1306444 78.4846746,8.86745447 78.4846746,8.86745447 C77.7447616,11.2702716 76.7453866,13.8712766 76.7453866,13.8712766" id="Shape" fill="#A0A0A4" fill-rule="nonzero" mask="url(#mask-36)"></path>
                        </g>
                    </g>
                </g>
            </g>
        </g>
    </g>
</svg>