<?xml version="1.0" encoding="UTF-8"?>
<svg width="328px" height="328px" viewBox="0 0 328 328" version="1.1" xmlns="http://www.w3.org/2000/svg" xmlns:xlink="http://www.w3.org/1999/xlink">
    <title>FDA353DE-9D7A-4DD1-9B26-214FFD9242AF</title>
    <defs>
        <rect id="path-1" x="0" y="0" width="328" height="328"></rect>
    </defs>
    <g id="Specifications" stroke="none" stroke-width="1" fill="none" fill-rule="evenodd">
        <g id="Assets-Exportable" transform="translate(-396.000000, -1101.000000)">
            <g id="Group-4" transform="translate(44.000000, 957.000000)">
                <g id="Assets-exportable/Graphics/Player-2/big" transform="translate(352.000000, 144.000000)">
                    <g id="Group-2" transform="translate(164.000000, 164.000000) scale(-1, 1) translate(-164.000000, -164.000000) ">
                        <mask id="mask-2" fill="white">
                            <use xlink:href="#path-1"></use>
                        </mask>
                        <g id="Mask"></g>
                        <g id="Group" mask="url(#mask-2)">
                            <g transform="translate(54.666667, 14.577778)">
                                <circle id="Oval" fill="#FF8784" cx="90.2" cy="19.1333333" r="19.1333333"></circle>
                                <path d="M90.3557152,3.88004094 C92.9140389,6.32731752 93.1771464,6.77804526 92.5929493,7.71396172 C92.0804094,8.53446124 92.0776744,8.944711 92.5820093,9.52835966 C92.940295,9.94298542 93.9642809,11.1272397 94.8575336,12.1588811 C96.5603478,14.125892 97.2654321,17.3581131 95.6802231,15.928256 C93.7088314,14.150507 93.1776934,13.8381702 92.1285455,13.8381702 C90.278041,13.8381702 90.787299,16.0704759 93.0852503,18.0292817 C94.2011323,18.9805142 96.0045947,20.5159423 97.0925798,21.4409188 C99.1307056,23.1732668 100.303476,26.6450738 99.2171317,27.7314151 C98.6750537,28.2734918 94.8405765,26.5362208 94.8405765,25.7479943 C94.8405765,25.5155194 94.56817,25.3251635 94.2355934,25.3251635 C93.9030168,25.3251635 92.6104534,24.543501 91.363838,23.5873455 C88.4231605,21.3331598 78.9775469,11.9444573 78.9775469,11.2760237 C78.9775469,10.9926778 78.2390955,10.0534794 77.3365438,9.18867286 C76.4339921,8.32386636 75.6955407,7.80421666 75.6955407,8.03395653 C75.6955407,9.17773287 85.8309227,20.949166 86.8155245,20.949166 C86.9670438,20.949166 88.146925,21.9337655 89.4373004,23.1371648 C90.7276758,24.3405641 92.0760334,25.3251635 92.433225,25.3251635 C92.7904167,25.3251635 93.2241885,25.6943883 93.3975878,26.145663 C93.5704402,26.5969378 94.0889971,26.9661626 94.550119,26.9661626 C95.0106939,26.9661626 95.3875776,27.1729284 95.3875776,27.4250953 C95.3875776,27.6778092 96.0439788,28.1837839 96.8464293,28.5491796 L98.305828,29.2143313 L97.1817409,30.3378686 C96.2173781,31.3022291 95.6610781,31.407253 93.2613846,31.0774122 C91.7232177,30.8657233 90.4645684,30.4696955 90.4645684,30.1967427 C90.4645684,29.9243369 89.4345654,29.701161 88.1759161,29.701161 C85.0793433,29.701161 79.595111,28.1050159 77.9491849,26.7249357 C77.2107336,26.1051851 75.7912659,24.7524548 74.79463,23.7186254 C73.7979942,22.684796 72.8237853,21.9972174 72.630147,22.1914023 C72.1422221,22.679326 77.2331606,27.5749732 79.4441387,28.7439115 C80.4396806,29.2701252 81.8350802,29.701161 82.5450875,29.701161 C83.2550949,29.701161 83.9656492,29.9112089 84.1242795,30.1672047 C84.2829098,30.4237476 86.0486291,30.7864084 88.0484648,30.9734822 C92.2975688,31.370057 93.8581627,32.2430685 92.3238248,33.3644179 C91.7877638,33.7566166 90.9245962,34.0771584 90.4054922,34.0771584 C89.8863883,34.0771584 89.3700193,34.3528463 89.2573371,34.6897981 C89.1342619,35.0595699 87.4336357,35.3303347 84.956815,35.3735477 C81.0550567,35.4413757 80.7706162,35.3609667 78.9720768,33.6838657 C76.7348427,31.5981559 75.858547,32.0450546 77.1418114,34.6175941 C77.6455994,35.6273555 78.3720167,39.1806655 78.7560114,42.5135346 C79.1394592,45.8458566 79.7083402,50.7879988 80.0190368,53.4956472 C80.3302804,56.2032956 80.8192993,59.2801688 81.1064748,60.3331432 C82.0774017,63.8935642 83.353555,70.0555156 83.353555,71.182335 C83.353555,71.7982566 83.5997055,72.4546562 83.9005561,72.6406361 C84.2014066,72.826616 84.4475571,73.3468127 84.4475571,73.7969934 C84.4475571,75.2131756 86.5009989,79.1942393 88.0090808,80.7023174 C90.0532236,82.7464553 95.8656565,84.7944221 101.95159,85.6149216 C107.892568,86.4157291 112.932088,86.4102591 121.012388,85.5941356 C124.124823,85.2796108 127.001502,85.1494249 127.404641,85.3042258 C127.808328,85.4590267 128.377209,86.611555 128.669308,87.8652783 C128.961406,89.1190016 129.633124,91.4984502 130.162074,93.1531242 C130.939909,95.5878198 131.163086,98.709547 131.334297,109.525919 C131.530123,121.947188 131.47597,122.930693 130.56029,123.467847 C128.976722,124.396652 122.964087,125.415713 115.900116,125.952866 C106.949538,126.632787 101.273309,127.510721 100.439679,128.344896 C100.056231,128.727796 99.5606484,130.110064 99.337472,131.416846 C99.1142955,132.723628 98.5651065,133.975164 98.1171127,134.198339 C97.6685718,134.422062 96.3174793,135.037437 95.1140771,135.565839 C93.9106748,136.094787 92.4988652,136.736965 91.9764792,136.993508 C91.4540932,137.250051 90.5854556,137.460099 90.0466596,137.460099 C89.5078636,137.460099 88.5812438,137.789939 87.9882947,138.193078 C86.8144305,138.990604 81.3559073,140.195097 78.9146417,140.195097 C77.0247532,140.195097 75.0643015,141.978863 73.8040112,144.844594 C71.6597672,149.722737 70.8835727,150.882924 67.0862916,154.889149 C64.9081335,157.186548 63.1232692,159.233421 63.1205342,159.437999 C63.1172522,159.64203 62.7994446,160.134329 62.4138089,160.531998 C61.1797746,161.805413 57.2194871,168.389102 54.0302524,174.470097 C50.5819579,181.04558 45.0966317,190.146561 44.4128804,190.427719 C44.1689179,190.528367 43.9692625,190.824294 43.9692625,191.085213 C43.9692625,191.764039 39.0418773,198.724063 38.5616104,198.724063 C38.341169,198.724063 37.6836738,198.362496 37.0994767,197.921068 C35.3895515,196.627413 33.6451652,196.937015 31.7618407,198.868471 C29.251106,201.443199 27.4897627,202.202434 25.0107541,201.776868 C21.1576789,201.116093 3.30084137,200.464616 2.05203804,200.939412 C1.37594477,201.196502 0.584434289,201.851807 0.293429745,202.396072 C-0.302252346,203.508669 0.0773648874,206.382059 0.820191731,206.382059 C1.08548723,206.382059 1.30319363,206.721745 1.30319363,207.136371 C1.30319363,208.630774 5.58510671,212.257929 9.82874065,214.358408 C13.8645142,216.356598 14.5198214,216.510852 19.5106588,216.63885 C25.2202555,216.784899 26.057167,217.08903 29.6613568,220.328363 C32.8044246,223.153069 37.3117131,224.883776 39.6178694,224.15189 C41.021474,223.706086 45.6102656,217.59227 45.6102656,216.167883 C45.6102656,215.599003 45.8564161,215.134054 46.1572666,215.134054 C46.4581172,215.134054 46.7042677,214.693719 46.7042677,214.154924 C46.7042677,212.45649 48.3737148,206.663763 48.9179808,206.473408 C49.2046093,206.37276 49.4392728,205.959775 49.4392728,205.554995 C49.4392728,205.150215 49.7554394,204.493816 50.1427161,204.096147 C50.5294458,203.699025 51.698387,202.142811 52.740971,200.638562 C53.7830079,199.134313 54.7612645,197.780489 54.9144248,197.630064 C55.0681321,197.479639 55.9077787,196.24889 56.7813393,194.895065 C58.4179664,192.357534 65.7866172,184.531609 66.5562476,184.512464 C68.1589606,184.473627 75.3914081,176.680523 78.5705781,171.566623 C83.9667432,162.886832 85.2494606,161.100331 86.52452,160.489332 C87.2186643,160.156756 90.6505487,159.887086 94.1896453,159.887086 C100.3538,159.887086 100.636052,159.937957 101.605338,161.228876 L102.612914,162.570666 L113.250443,162.596922 C121.753574,162.617708 124.21672,162.793295 125.528428,163.471574 C126.608208,164.029514 129.450425,164.431559 133.842297,164.647077 C137.701389,164.836339 140.678715,165.225802 140.902439,165.570959 C141.115769,165.899706 141.440688,167.524295 141.62448,169.181157 C142.079038,173.268339 142.823506,175.061404 145.208978,177.811171 C146.323219,179.095526 147.396982,181.010025 147.594996,182.066282 C147.793011,183.122538 148.496454,184.902475 149.158325,186.022183 C150.029698,187.496348 150.36118,188.942615 150.36118,191.265722 C150.36118,194.267657 150.466752,194.531858 152.002184,195.36822 C155.882609,197.482374 157.601833,199.24426 157.957931,201.471642 C158.165791,202.772955 158.741783,203.918372 159.393261,204.324793 C159.991133,204.698394 160.480699,205.349323 160.480699,205.770513 C160.480699,206.19225 161.4199,208.041109 162.568055,209.878481 C163.71621,211.715853 165.478101,214.874776 166.483489,216.897581 C168.108082,220.166451 171.603965,224.320913 175.856898,228.036682 C177.722719,229.666194 179.113742,231.383773 184.162015,238.28855 C186.618596,241.649316 188.879899,244.675865 189.186766,245.015005 C189.494181,245.354692 190.11448,246.184491 190.565756,246.860035 C191.017032,247.53558 191.632408,248.370301 191.933258,248.714911 C192.955603,249.886037 194.394763,252.768726 194.394763,253.645019 C194.394763,254.125285 194.5977,254.518031 194.844945,254.518031 C195.983801,254.518031 197.64012,266.807473 196.636373,267.811217 C194.916055,269.531531 197.053735,275.575878 200.829136,279.663606 C202.91868,281.922715 203.444895,283.645764 204.121535,290.4395 C204.461223,293.841838 204.911405,295.745397 205.52514,296.358037 C206.022364,296.855806 206.428785,297.441096 206.428785,297.665366 C206.428785,297.884166 207.382755,298.485865 208.548414,299.000045 C210.629753,299.919004 210.715632,299.913534 213.334673,298.546035 C218.017002,296.106417 220.650266,290.46138 220.650266,282.863554 C220.650266,278.739724 220.434747,277.649006 219.009809,274.569945 C217.548222,271.412116 217.368806,270.453226 217.368806,265.794429 C217.368806,261.325442 217.181184,260.223784 216.078977,258.225048 C214.676467,255.681499 210.266545,252.321827 206.85107,251.195008 C204.515923,250.424285 203.793334,249.453908 202.401764,245.219036 C201.858045,243.564362 201.21696,241.718238 200.976826,241.116539 C200.73724,240.514839 199.874072,238.176415 199.059041,235.920042 C196.927925,230.022291 192.753213,221.654837 191.13409,220.036265 C189.875987,218.779259 184.363858,215.134054 183.720038,215.134054 C183.573989,215.134054 182.962441,214.641754 182.36074,214.040054 C181.393643,213.072959 181.266738,212.216904 181.266738,206.655558 C181.266738,201.42843 181.405677,200.365062 182.08724,200.365062 C182.777555,200.365062 182.923604,198.998657 183.007296,191.749817 C183.154986,178.976828 182.832802,166.575798 182.265015,163.169084 C181.98878,161.51441 181.538598,158.806761 181.264003,157.152087 C180.989409,155.497413 180.529381,152.170561 180.242205,149.759386 C179.95503,147.348212 179.472575,144.763638 179.17063,144.01589 C178.355599,141.996914 176.887448,135.221229 176.889089,133.486693 C176.890183,132.655253 177.186658,131.501631 177.548225,130.922358 C178.064047,130.096389 178.055295,129.588226 177.5072,128.564243 C176.925191,127.477354 177.013258,125.804082 178.033415,118.548132 C178.815627,112.985692 179.391619,105.387866 179.626829,97.5291217 C179.855476,89.8809721 180.265179,84.3934713 180.708797,83.0336301 C181.202739,81.518441 181.43248,77.1457255 181.454907,68.8116383 C181.485539,57.5171889 181.413335,56.6140924 180.276666,54.1186798 C178.894942,51.0850196 174.294663,46.3042424 172.267477,45.7955327 C170.937171,45.4613159 170.907633,45.3431639 171.011016,40.7631356 C171.084861,37.4751205 170.916385,36.0058793 170.448152,35.8499844 C170.080567,35.7274565 169.779717,35.3303347 169.779717,34.9682209 C169.779717,34.1887464 165.366513,29.8592439 162.735985,28.0579739 C160.008091,26.189423 153.700075,25.8513772 150.70415,27.4130613 C147.355957,29.1579903 143.523668,33.081619 143.523668,34.764737 C143.523668,35.5469466 143.154442,36.556161 142.703166,37.0074357 C142.161088,37.5500594 141.882665,38.9126356 141.882665,41.0273364 C141.882665,44.1244486 140.878918,46.6581512 139.651994,46.6581512 C139.179933,46.6581512 134.911137,44.0806887 134.22465,43.3810761 C134.074225,43.2279161 130.258893,41.2565293 125.746134,39.0001556 C121.233376,36.7437819 117.459069,34.7133191 117.358968,34.4874082 C117.258319,34.2614973 116.912615,34.0771584 116.589884,34.0771584 C115.546206,34.0771584 112.366489,31.330126 111.523561,29.700067 C111.072832,28.8281495 110.703606,27.5279312 110.703606,26.8108147 C110.703606,26.0942451 110.531848,25.3355565 110.322347,25.1260556 C109.673603,24.477861 107.998139,17.505256 107.982823,15.3927433 C107.968601,13.3907244 105.734649,8.37090834 104.344719,7.217286 C103.938845,6.8803342 103.214068,6.75561827 102.734348,6.93941016 C101.969094,7.23314899 102.013948,7.52524682 103.10248,9.32542278 L104.343078,11.3766716 L103.147334,10.3346372 C102.489839,9.76138153 101.95159,8.96166799 101.95159,8.55688823 C101.95159,8.15210846 101.705439,7.82117365 101.404589,7.82117365 C101.103738,7.82117365 100.857588,7.46945286 100.857588,7.03951111 C100.857588,6.03248469 99.364275,4.53917555 98.3572461,4.53917555 C96.9503595,4.53917555 97.5323686,6.56033938 100.035992,10.3685512 C103.615567,15.81448 103.223914,16.7947035 99.1361756,12.6210959 C97.2873121,10.7334 95.1332221,8.20626143 94.3499166,7.00614413 C92.4840961,4.14588278 90.278588,1.99125103 88.7147121,1.50113931 C87.8225534,1.22107548 88.3006323,1.91412407 90.3557152,3.88004094 Z M100.050761,18.7387403 C99.5901864,19.4843009 98.1679838,17.8843268 98.1400867,16.5884846 C98.1269587,15.9955369 98.4289033,16.0896209 99.2827719,16.9434874 C99.9211221,17.581836 100.266827,18.3897545 100.050761,18.7387403 Z M100.500396,31.6714538 C101.017312,32.7550602 101.884309,33.7582576 102.426934,33.8999305 C102.969559,34.0416035 106.715422,37.6239044 110.751195,41.8598699 C123.232118,54.9616063 123.308698,55.0343573 129.848642,59.9704824 C131.50332,61.2198297 133.032735,62.488869 133.247706,62.7913598 C133.882775,63.6867983 132.546451,64.4389229 128.483328,65.4727523 C126.379015,66.008265 124.532886,66.6307506 124.38082,66.8561145 C123.639633,67.9550368 120.49766,68.4046706 116.6599,67.9599598 C111.105105,67.3172352 105.387303,67.3560722 102.772091,68.0551378 C97.4284384,69.4833539 97.21839,69.441782 95.9734157,66.7089715 C95.3503815,65.3414723 94.8405765,63.9592041 94.8405765,63.6375683 C94.8405765,63.3164795 94.6064601,62.6256189 94.3198316,62.1032342 C91.4163501,56.8049953 87.7295632,44.4433494 87.7295632,40.006635 C87.7295632,37.4970005 87.6529831,37.3591565 86.2575835,37.3591565 C84.8457738,37.3591565 84.8288168,37.3263366 85.8473327,36.556161 C86.4309828,36.1141853 87.5244379,35.7367555 88.2765643,35.7170635 C89.0286907,35.6973715 90.6286687,35.2056188 91.8320709,34.6241581 C94.8662856,33.158746 95.6567021,33.2637699 96.9656755,35.3079077 C97.6116837,36.3171221 98.1083607,36.7169789 98.1132837,36.2328842 C98.1182067,35.7641055 97.761015,34.902581 97.3195852,34.3183853 C96.2567622,32.9131431 96.2846592,32.1052246 97.4388314,30.8405613 C98.840248,29.3056802 99.4512482,29.4714211 100.500396,31.6714538 Z" id="Shape" fill="#FFFFFF" opacity="0.5"></path>
                            </g>
                        </g>
                    </g>
                </g>
            </g>
        </g>
    </g>
</svg>