<?xml version="1.0" encoding="UTF-8"?>
<svg width="80px" height="80px" viewBox="0 0 80 80" version="1.1" xmlns="http://www.w3.org/2000/svg" xmlns:xlink="http://www.w3.org/1999/xlink">
    <title>D303EA5E-C6E3-4B41-AAFD-8EB35254271C</title>
    <defs>
        <polygon id="path-1" points="80 0 80 80 0 80 0 0"></polygon>
    </defs>
    <g id="Specifications" stroke="none" stroke-width="1" fill="none" fill-rule="evenodd">
        <g id="Teams" transform="translate(-48.000000, -1799.000000)">
            <g id="Group-6-Copy-6" transform="translate(48.000000, 1714.000000)">
                <g id="Group-3" transform="translate(0.000000, 48.000000)">
                    <g id="Group-2" transform="translate(0.000000, 37.000000)">
                        <rect id="Rectangle" fill-rule="nonzero" x="0" y="0" width="80" height="80" rx="20"></rect>
                        <g id="Group-4">
                            <g id="Clipped">
                                <mask id="mask-2" fill="white">
                                    <use xlink:href="#path-1"></use>
                                </mask>
                                <g id="Path"></g>
                                <g id="Group" mask="url(#mask-2)">
                                    <g transform="translate(0.000000, -0.000000)" id="Path">
                                        <path d="M79.999922,39.9998527 C79.999922,62.0907173 62.0907173,79.999922 39.9998527,79.999922 C17.9074713,79.999922 0,62.0907173 0,39.9998527 C0,17.908338 17.9074713,0 39.9998527,0 C62.0907173,0 79.999922,17.908338 79.999922,39.9998527" stroke="none" fill="#B4B2B2" fill-rule="nonzero"></path>
                                        <path d="M39.9998527,0.25 C50.9763471,0.25 60.9139419,4.69918097 68.1073745,11.8925747 C75.3006812,19.0858424 79.749922,29.0232275 79.749922,39.9998527 C79.749922,50.9762512 75.3006023,60.9137675 68.1071849,68.1071849 C60.9137675,75.3006023 50.9762512,79.749922 39.9998527,79.749922 C29.0229047,79.749922 19.0856062,75.30077 11.8924626,68.1075875 C4.69905188,60.9141378 0.25,50.9764549 0.25,39.9998527 C0.25,29.0230237 4.69897293,19.0854721 11.892273,11.8921721 C19.0854318,4.69901324 29.0228088,0.25 39.9998527,0.25 Z" stroke="#FFFFFF" stroke-width="0.5" fill="none"></path>
                                    </g>
                                </g>
                            </g>
                            <g id="Group-3" transform="translate(1.130945, 0.730729)" fill-rule="nonzero">
                                <path d="M77.703909,38.8523878 C77.703909,60.3099368 60.3090702,77.7049923 38.8523878,77.7049923 C17.3939722,77.7049923 0,60.3099368 0,38.8523878 C0,17.3941888 17.3939722,0 38.8523878,0 C60.3090702,0 77.703909,17.3941888 77.703909,38.8523878 Z" id="Path" fill="#1D42BA"></path>
                                <path d="M38.8521712,71.9815348 C20.5540504,71.9815348 5.72150751,57.1492086 5.72150751,38.8523878 C5.72150751,20.5542671 20.5540504,5.72259084 38.8521712,5.72259084 C57.1496419,5.72259084 71.9830515,20.5542671 71.9830515,38.8523878 C71.9830515,57.1492086 57.1496419,71.9815348 38.8521712,71.9815348 Z" id="Path" fill="#C8102E"></path>
                                <path d="M38.8517378,70.0815879 C25.6192757,70.0815879 14.2910938,61.8058011 9.75020107,50.1625864 C15.3027088,57.7617242 26.2634246,62.9458993 38.8517378,62.9458993 C51.4409177,62.9458993 62.4009835,57.7617242 67.9543579,50.1625864 C63.4134652,61.8058011 52.0842,70.0815879 38.8517378,70.0815879 Z M38.8517378,7.62167114 C52.0842,7.62167114 63.4143319,15.8983246 67.9543579,27.5434893 C62.4009835,19.9443514 51.4417844,14.7593097 38.8517378,14.7593097 C26.2627746,14.7593097 15.3027088,19.9441348 9.75020107,27.5434893 C14.2902271,15.8983246 25.6192757,7.62167114 38.8517378,7.62167114 L38.8517378,7.62167114 Z M7.64615443,39.8267363 L13.743578,39.8267363 L13.743578,37.8776061 L7.64615443,37.8776061 C7.66933773,37.1400739 7.70855433,36.4057918 7.78200422,35.6825596 C9.94281742,24.804177 23.0485298,16.4092237 38.8519545,16.4092237 C54.6542959,16.4092237 67.7608749,24.804177 69.9225548,35.6834262 C69.9960047,36.4066584 70.0358713,37.1400739 70.0584046,37.8776061 L63.9601143,37.8776061 L63.9601143,39.8267363 L70.0584046,39.8267363 C70.0358713,40.5651351 69.9960047,41.2983339 69.9225548,42.0224328 C67.7608749,52.9008154 54.6542959,61.2949019 38.8517378,61.2949019 C23.0485298,61.2949019 9.94281742,52.901682 7.78178755,42.0224328 C7.70855433,41.2983339 7.66933773,40.5651351 7.64615443,39.8267363 Z M38.8519545,5.72172418 C20.5843837,5.72172418 5.72194084,20.5841671 5.72194084,38.8526045 C5.72194084,57.1199586 20.5843837,71.9817515 38.8517378,71.9817515 C57.1201753,71.9817515 71.9826182,57.1199586 71.9826182,38.8526045 C71.9826182,20.5841671 57.1201753,5.72172418 38.8517378,5.72172418" id="Shape" fill="#FEFEFE"></path>
                                <path d="M24.8524936,50.2427529 L27.1966065,50.2427529 L27.1966065,39.7177531 L24.8533602,39.7177531 L24.8524936,50.2427529 Z M33.8315792,39.7227364 L33.7607293,39.7227364 C33.102497,39.7177531 30.7098509,39.7086531 30.2507349,39.7177531 L30.1315685,39.7244698 C29.4241529,39.7244698 28.9750036,40.0603026 28.8649371,40.6693516 C28.8456538,40.7685848 28.8450038,40.844418 28.8456538,40.844418 C28.8432705,40.8660846 28.6831541,42.8386148 28.8775038,43.3952306 C29.19167,44.3011125 29.9224855,44.6360786 30.5950177,44.8445116 C30.6173343,44.8503616 30.6398676,44.8577282 30.6650009,44.8644449 C30.7074675,44.8752782 30.7523175,44.8869782 30.7950007,44.9051782 C30.8691006,44.9352948 30.9206672,44.9751614 30.9516505,45.0252113 L30.9616171,48.8153552 L29.0274369,48.8212052 L29.0350202,50.2236863 L31.5782495,50.2260696 L31.5799828,50.2260696 C32.4633314,50.1877197 33.0715138,49.801187 33.2974967,49.1336381 C33.36163,48.6194889 33.3698633,45.0902112 33.3191634,44.3535457 C33.3033467,44.0753461 33.1757303,43.8519632 32.9189807,43.6493802 C32.8190975,43.5720303 32.6958144,43.4918637 32.5382979,43.4045472 C32.3989815,43.331964 32.2490484,43.2578641 32.1040986,43.1911309 C31.5548495,42.9226813 30.9315005,42.6178318 30.9315005,41.9169163 L30.9332338,41.3178339 L32.7731642,41.3178339 C33.1508136,41.3178339 33.4515465,41.1328009 33.6474128,40.7844014 C33.7958293,40.5176852 33.8356959,40.2511856 33.8348292,40.236019 C33.8506458,40.0620359 33.8424125,39.9001862 33.8356959,39.7935863 L33.8315792,39.7227364 L33.8315792,39.7227364 Z M43.7694133,42.0867827 C43.7802466,41.8094498 43.8034299,41.6010168 43.8417799,41.4367837 L43.8833798,41.3960504 C43.988463,41.3793671 44.0900795,41.3726505 44.2142293,41.3726505 L44.2618958,41.3735171 C45.0559779,41.3826171 45.0785112,41.6209501 45.0785112,43.0585311 L45.0785112,47.4536074 C45.0785112,47.5851239 45.0785112,47.7086237 45.0700612,47.8386235 C45.0642112,47.9642899 45.0501279,48.0834564 45.026728,48.1943896 L44.9842614,48.2359895 C44.8451616,48.2559228 44.7110451,48.2667561 44.5658787,48.2667561 C44.2742458,48.2667561 44.0718795,48.2034895 43.9459964,48.0743564 C43.75923,47.8819567 43.7535967,47.5602072 43.76508,47.1892745 L43.76508,42.7510816 C43.76508,42.7510816 43.7609633,42.2577324 43.7694133,42.0867827 Z M44.5418287,39.7136365 C44.0142462,39.7136365 43.4643471,39.7309698 43.0219145,39.8559862 C41.874233,40.1326691 41.3161006,40.8994512 41.3161006,42.2000991 L41.3161006,48.4611058 C41.3161006,50.0650866 42.4635654,50.3944194 44.1860626,50.3944194 C46.273426,50.3944194 47.470074,49.6568872 47.470074,48.3727059 L47.4735407,41.846933 C47.4735407,39.7136365 46.1143929,39.7136365 44.5418287,39.7136365 Z M52.9034154,44.1906126 C51.7843338,40.1380858 49.9883867,39.6856865 49.2443545,39.6856865 C49.0508715,39.6856865 48.934305,39.7164531 48.9301884,39.7181865 L48.8742885,39.7331364 L48.8734218,50.2496863 L51.245918,50.2531529 L51.245918,46.0223097 L52.898432,50.2531529 L55.3101448,50.2531529 L55.3101448,39.7281531 L52.9034154,39.7281531 L52.9034154,44.1906126 L52.9034154,44.1906126 Z M21.0541163,44.3875623 L19.7357018,44.3892956 L19.7357018,41.3325672 C19.7357018,41.3325672 20.4524339,41.3184839 20.5590338,41.3325672 C20.8190334,41.3659338 21.0599663,41.4666837 21.0599663,41.7793332 C21.0599663,41.8809497 21.0541163,44.3875623 21.0541163,44.3875623 Z M22.0007315,39.7142865 L16.0874743,39.7216531 L16.014891,39.7225198 L16.011641,39.7942363 C16.0107744,39.806803 15.9607245,41.0467843 17.3441389,41.3349505 L17.3441389,50.2457863 L19.7690684,50.2457863 L19.7690684,45.7675101 L21.8091984,45.7675101 C22.8858134,45.7675101 23.5033124,45.0592279 23.5033124,43.8242299 L23.5091624,43.4474472 C23.5091624,40.4659019 23.3882626,39.8683362 22.0007315,39.7142865 Z M40.5881017,39.7305364 L35.1031938,39.7305364 L35.1031938,41.3854338 L36.6664413,41.3854338 L36.6664413,50.2613862 L39.0772875,50.2596529 L39.0790208,41.3754671 C39.1089208,41.3772005 39.1381707,41.3780671 39.166554,41.3780671 C39.5972866,41.3780671 39.9407028,41.246334 40.186619,40.9863344 C40.6240683,40.5263518 40.5931309,39.8321529 40.5924351,39.802253 L40.5881017,39.7305364 L40.5881017,39.7305364 Z M61.697468,39.7227364 L61.6266181,39.7227364 C60.9673025,39.7177531 58.5757396,39.7086531 58.115757,39.7177531 L57.9974572,39.7244698 C57.289825,39.7244698 56.8406757,40.0603026 56.7306092,40.6693516 C56.7115426,40.7685848 56.7115426,40.844418 56.7115426,40.844418 C56.7089426,40.8660846 56.5481762,42.8386148 56.7431759,43.3952306 C57.057342,44.3011125 57.7881575,44.6360786 58.4598231,44.8445116 C58.4832231,44.8503616 58.5057564,44.8577282 58.5298064,44.8644449 C58.5731396,44.8752782 58.6173395,44.8869782 58.6598061,44.9051782 C58.7341227,44.9352948 58.7865559,44.9751614 58.8173226,45.0252113 L58.8272892,48.8153552 L56.893109,48.8212052 L56.8998256,50.2236863 L59.4441382,50.2260696 L59.4465216,50.2260696 C60.3281368,50.1877197 60.9374025,49.801187 61.1631688,49.1336381 C61.227302,48.6194889 61.235752,45.0902112 61.1857021,44.3535457 C61.1681521,44.0753461 61.041619,43.8519632 60.7840027,43.6493802 C60.6841196,43.5720303 60.5614864,43.4918637 60.40397,43.4045472 C60.2640036,43.331964 60.1149371,43.2578641 59.9706374,43.1911309 C59.4198716,42.9226813 58.7982559,42.6178318 58.7982559,41.9169163 L58.7991226,41.3178339 L60.6381863,41.3178339 C61.0164857,41.3178339 61.3174352,41.1328009 61.5124349,40.7844014 C61.6606347,40.5176852 61.7015846,40.2511856 61.7007179,40.236019 C61.7165346,40.0620359 61.7089513,39.9001862 61.7015846,39.7935863 L61.697468,39.7227364 Z M40.1838024,28.927337 L40.5829017,28.9264704 L40.6461683,28.927337 C41.2595507,28.9373037 41.487917,28.9405537 41.4721003,30.0206353 C41.4738336,30.8823173 41.4721003,30.9364838 41.4545503,31.3613665 L41.452817,31.4423997 C41.4545503,31.5665495 41.4021171,31.7030493 41.3228172,31.7847325 C41.267134,31.8414991 41.2012674,31.8698823 41.1271675,31.8698823 L40.1838024,31.8698823 L40.1838024,28.927337 L40.1838024,28.927337 Z M40.1770857,33.2231802 L40.5837684,33.2231802 C40.9755011,33.2314135 41.6320001,33.3514466 41.6320001,34.0547455 C41.6320001,34.3905783 41.6621167,35.4431433 41.6738167,35.838126 L41.6788,35.9965091 C41.6811833,36.0547923 41.7069666,36.5698082 41.7320999,36.667308 C41.9004496,37.2806904 42.3771155,37.6481564 43.1211477,37.7281063 L43.8079799,37.7281063 L43.8079799,33.982379 C43.8079799,33.6606295 43.6329135,33.2106135 43.3804973,32.888864 L43.3304473,32.8206142 C43.7070134,32.3981148 43.8528298,31.9723655 43.8528298,31.3223666 L43.8554298,30.9564171 C43.8554298,28.0463718 43.7395134,27.4639727 42.3888155,27.3140396 L37.8353561,27.3140396 L37.8353561,37.5864065 L40.1770857,37.5864065 L40.1770857,33.2231802 Z M54.7166958,27.3140396 L52.4323828,27.3140396 L52.4250161,37.5805565 L54.7166958,37.5822899 L54.7166958,27.3140396 Z M32.7833475,37.5959398 L35.1341771,37.5926899 L35.1376438,28.9152037 C35.1666771,28.9160704 35.1950604,28.9167204 35.2234436,28.9167204 C35.6450763,28.9167204 35.9809091,28.7884539 36.2209754,28.5343043 C36.6467247,28.0860217 36.6159581,27.4102395 36.6142248,27.3827229 L36.6109748,27.3133896 L31.25845,27.3133896 L31.25845,28.9260371 L32.7833475,28.9260371 L32.7833475,37.5959398 Z M57.4445248,37.5959398 L59.796871,37.5926899 L59.796871,28.9152037 C59.8261209,28.9160704 59.8560209,28.9167204 59.8835375,28.9167204 C60.3069035,28.9167204 60.6427363,28.7875873 60.8836693,28.5343043 C61.3094186,28.0851551 61.2795186,27.4102395 61.2777853,27.3827229 L61.2736686,27.3133896 L55.9202772,27.3133896 L55.9202772,28.9260371 L57.4445248,28.9260371 L57.4445248,37.5959398 Z M30.0275686,35.9349758 L27.5658059,35.9349758 L27.5658059,33.4391965 L29.2534199,33.4391965 L29.2534199,31.2032001 L27.5658059,31.2032001 L27.5658059,28.8915871 L30.0275686,28.8915871 L30.0275686,27.3140396 L25.2817095,27.3140396 L25.2732596,37.5807732 L30.0275686,37.5807732 L30.0275686,35.9349758 Z M21.4833323,35.9349758 L20.1826844,35.9349758 L20.1826844,28.9240871 C20.9884664,28.8907204 21.1591995,28.9615703 21.1726328,28.968287 C21.4759656,29.0874535 21.4701156,29.6499192 21.4701156,29.6648692 C21.5550488,30.4767179 21.4926489,35.2890935 21.4833323,35.9349758 Z M22.295181,27.3140396 L16.440207,27.3140396 L16.431757,27.3766562 C16.4276404,27.4015728 16.3576572,27.9915552 16.7376899,28.4407045 C16.9784062,28.7275707 17.3458722,28.8874704 17.8342381,28.9191037 L17.8342381,37.5682066 L22.1942145,37.5682066 C23.1884962,37.5682066 23.8558285,36.7232079 23.8558285,35.4665433 L23.8575618,30.7016175 C23.8592952,28.0723718 23.8601618,27.3658229 22.295181,27.3140396 Z M47.4997573,29.6369192 C47.5114573,29.3652197 47.5348573,29.1619867 47.5723406,28.9994869 L47.6148071,28.9602703 C47.7172903,28.9444537 47.8189068,28.937737 47.94154,28.937737 L47.9881232,28.937737 C48.777222,28.9477037 48.7997553,29.18192 48.7997553,30.5878677 L48.7997553,34.8886942 C48.7997553,35.0178273 48.7997553,35.1387271 48.7915219,35.2661269 C48.7848053,35.3885434 48.770722,35.5053265 48.7490553,35.6136597 L48.7057221,35.654393 C48.568139,35.6751929 48.4348892,35.6853762 48.2905894,35.6853762 C48.0030732,35.6853762 47.8015735,35.6227597 47.6765571,35.4962265 C47.4906573,35.3077268 47.4848074,34.9935607 47.4965073,34.6302113 L47.4965073,30.2860515 C47.4965073,30.2860515 47.4923907,29.8035356 47.4997573,29.6369192 Z M48.2674061,27.314473 C47.7439403,27.314473 47.1981578,27.3302896 46.7581085,27.4535727 C45.618877,27.7244056 45.0657279,28.4745044 45.0657279,29.7469857 L45.0657279,35.8753926 C45.0657279,37.4453568 46.2047427,37.7662396 47.9140233,37.7662396 C49.9847034,37.7662396 51.1731181,37.0453907 51.1731181,35.7887261 L51.1763681,29.4011863 C51.1763681,27.314473 49.8280536,27.314473 48.2674061,27.314473 Z" id="Shape" fill="#FEFEFE"></path>
                            </g>
                        </g>
                    </g>
                </g>
            </g>
        </g>
    </g>
</svg>