<?xml version="1.0" encoding="UTF-8"?>
<svg width="80px" height="80px" viewBox="0 0 80 80" version="1.1" xmlns="http://www.w3.org/2000/svg" xmlns:xlink="http://www.w3.org/1999/xlink">
    <title>70109CCA-9116-4E69-A348-FCC1E33F39E3</title>
    <g id="Specifications" stroke="none" stroke-width="1" fill="none" fill-rule="evenodd">
        <g id="Teams" transform="translate(-48.000000, -2999.000000)" fill-rule="nonzero">
            <g id="Group-6-Copy-18" transform="translate(48.000000, 2914.000000)">
                <g id="Group-3" transform="translate(0.000000, 48.000000)">
                    <g id="Group" transform="translate(0.000000, 37.000000)">
                        <rect id="Rectangle" x="0" y="0" width="80" height="80" rx="20"></rect>
                        <g id="Group-2" transform="translate(0.000000, 2.000000)">
                            <path d="M74.0837836,17.2877529 C75.0543178,15.4559825 75.5168227,13.6196988 75.5168227,11.8634753 C75.5168227,7.86124818 73.2845548,4.28012218 70.147096,2.14498619 C65.7842053,-0.824699336 59.2278994,-1.23461562 54.5940205,4.30739761 C47.8287339,3.38278031 42.1562303,5.2439847 39.9999019,6.12994546 C37.8437697,5.2439847 32.1704812,3.38278031 25.4059795,4.30739761 C20.7721006,-1.23461562 14.2157947,-0.824699336 9.85290402,2.14498619 C6.71485652,4.28012218 4.48298107,7.86124818 4.48298107,11.8634753 C4.48298107,13.6196988 4.94568217,15.4559825 5.91621637,17.2877529 C2.41966382,22.3344915 0,28.319387 0,34.4145616 C0,41.7555755 3.13431921,45.5344974 4.3161889,47.1600343 C4.3161889,47.1600343 4.82421822,46.6522012 5.26258729,46.2144208 C8.58194769,54.6635234 14.2664211,59.2098855 21.127466,63.3539841 C21.127466,63.3539841 21.279345,62.5184535 21.4151334,61.7706359 C28.8022605,68.1729043 32.3223602,66.5985824 39.9999019,75.2829601 C47.6497757,66.6309597 51.2626903,68.1177647 58.5848666,61.7706359 C58.6812136,62.2982878 58.7769719,62.826136 58.8723378,63.3539841 C61.926793,61.509459 70.5440613,56.8875498 74.7380014,46.2144208 C75.1749969,46.6522012 75.6830262,47.1600343 75.6830262,47.1600343 C76.4074929,46.1645794 80,42.1562692 80,34.4145616 C80,28.3209568 77.5811211,22.3352764 74.0837836,17.2877529 Z" id="Path" fill="#707271"></path>
                            <path d="M71.9700363,17.391949 C79.0167111,6.57616357 63.0364514,-4.68564372 55.2937627,6.20941702 C47.4725835,4.82366843 40.8839004,7.67424472 40.0000981,8.08553459 C39.1170807,7.67424472 32.527024,4.82366843 24.7058448,6.20941702 C16.9631561,-4.68564372 0.983681348,6.57616357 8.0297675,17.391949 C0.000981130409,28.4169114 0.810021266,39.2878363 4.53301872,44.4016842 L6.07260856,42.8613095 C6.07260856,42.8613095 8.26052937,53.4877367 19.8243286,60.4673022 L20.2409166,58.1753816 C27.3594101,65.7791423 33.8629312,65.6078369 40.0000981,72.5518855 C46.1368726,65.6078369 52.6409823,65.7791423 59.758691,58.1753816 L60.1752789,60.4674985 C71.7390782,53.4877367 73.9275877,42.8613095 73.9275877,42.8613095 L75.4673737,44.4016842 C79.2009674,39.2727269 80.0054943,28.4259378 71.9700363,17.391949" id="Path" fill="#12173F"></path>
                            <path d="M40.0713282,57.8341445 C40.0713282,57.8341445 34.518915,57.917933 33.6984937,58.4310642 C33.6984937,58.4310642 32.7446387,60.0823067 40.0713282,60.0514992 C47.0404937,60.0197106 46.0124653,58.7495391 46.0630916,58.5615545 C46.0630916,58.5615545 43.7044541,57.8341445 40.0713282,57.8341445 Z M35.2575099,51.3822309 C35.2575099,51.3822309 36.1230632,48.8742653 37.0476805,49.6674111 C38.3313915,50.7662772 40.0000981,53.001881 40.0000981,53.2410806 L40.0000981,56.2274453 L37.9760261,56.3332112 C36.813779,56.3663734 33.0635061,57.2621454 33.0635061,57.2621454 C27.9004055,44.4772313 30.7631478,34.8025005 32.1420284,31.3504913 C27.0234711,32.4599536 26.197948,26.3165074 26.197948,26.3165074 C26.729132,26.2077982 27.5126627,26.4403261 28.3956801,26.862997 C29.7639646,27.517411 31.3730184,28.6282469 32.6559445,29.6244867 L32.6567295,29.6244867 C33.0085628,29.8980259 33.3552943,30.1780405 33.6967277,30.4645306 C37.1767972,33.3928124 40.0000981,32.798836 40.0000981,32.798836 L40.0000981,45.311977 C40.0000981,45.311977 29.8461833,44.5255029 35.2575099,51.3822309 L35.2575099,51.3822309 Z M44.77369,51.3843894 C51.2354149,44.8280835 40.6914026,45.2107244 40.0242339,45.3133506 C41.1064208,45.3745732 49.2808069,45.4199014 44.77369,51.3843894 Z" id="Shape" fill="#5D76A9"></path>
                            <path d="M49.0675091,31.5490721 C54.883454,47.2102682 47.5104552,57.2872624 47.4690515,57.3429906 C52.0464173,45.3582864 49.1045959,35.3905901 47.10152,31.6887851 C46.0729029,31.7914113 44.8380522,31.7317586 44.8380522,31.7317586 C44.8380522,31.7317586 46.383725,30.7771187 47.3852629,29.8668259 C47.454727,29.8034449 47.5332174,29.7326073 47.6199493,29.6554904 C48.4517517,28.9174841 50.0396131,27.6186637 51.9671419,26.8677065 C52.6712011,26.59299 53.4221583,26.3906809 54.1972514,26.3167036 C54.1972514,26.3167036 53.6425202,31.4782345 49.0675091,31.5490721 Z" id="Path" fill="#5D76A9"></path>
                            <path d="M13.0788608,16.2934754 C12.8690951,14.3137504 15.3701928,12.3514896 15.3701928,12.3514896 C14.338436,11.2865707 12.5384542,12.2096182 12.5384542,12.2096182 C14.1724288,9.01427264 17.8320452,10.5764285 17.8320452,10.5764285 C16.444923,8.87691438 13.5068299,8.98405382 13.5068299,8.98405382 C17.1423105,5.3809505 21.5309068,10.8882317 21.5309068,10.8882317 C17.6230644,11.7734076 13.0788608,16.2934754 13.0788608,16.2934754 Z M58.2750256,11.2836273 C58.2750256,11.2836273 60.6477914,5.35151659 67.9179677,6.78396699 C67.9179677,6.78396699 61.2433375,2.39164237 56.5988624,10.3319308 C56.5988624,10.3319308 49.9354171,7.20585307 39.9995094,11.5018307 C39.9995094,11.5018307 30.6622876,8.22034191 23.5655751,10.0784067 C23.5655751,10.0784067 19.4267746,2.89731699 13.5972901,5.85503272 C7.76937549,8.81117864 10.8100949,15.6533859 11.8253686,17.4270734 C11.8253686,17.4270734 2.16712085,27.2662416 5.79808827,39.4330436 L7.74151138,37.0088666 C7.74151138,37.0088666 10.5157557,50.2578554 17.6742794,54.4337427 L18.1038183,51.1763897 C18.1038183,51.1763897 25.5768924,60.1937631 34.3648775,64.0231151 C35.2009968,64.4147823 39.8562644,66.7288765 39.9995094,67.8707161 L39.9995094,61.5612627 C39.9995094,61.5612627 33.9037462,62.0685071 32.2954772,59.2548213 C31.2026942,57.3408321 24.1934985,44.8375024 27.6568889,31.742551 C27.6568889,31.742551 24.2849399,31.23825 23.6493636,25.5500483 C23.6493636,25.5500483 21.1355113,24.3257938 18.0102185,24.5795141 C18.0102185,24.5795141 23.5995222,22.8246643 28.8381699,24.8534457 C34.0750516,26.8806574 35.4780681,32.0427769 39.0268167,29.7612563 L39.9995094,15.2187451 L41.0705114,29.7612563 C44.6192601,32.0427769 46.0228652,26.8806574 51.2599431,24.8534457 C56.4983946,22.8246643 62.0892682,24.5795141 62.0892682,24.5795141 C62.0892682,24.5795141 59.8530757,23.0028376 56.2599799,22.2844539 C53.2606643,21.6843945 48.8524453,23.6119233 48.8524453,23.6119233 C48.8524453,23.6119233 49.4621198,19.4858775 51.4630371,17.2865756 C53.1813889,15.3953486 57.0727484,14.9779757 58.2750256,11.2836273 Z" id="Shape" fill="#5D76A9"></path>
                            <path d="M32.6557483,29.6244867 C32.0943455,29.4492568 31.1675697,30.0289086 30.650514,31.0349598 C28.915483,30.5337984 28.3215066,28.6598393 28.394699,26.8637819 L28.3954839,26.862997 C29.7637683,27.5172148 31.3728222,28.6282469 32.6557483,29.6244867 L32.6557483,29.6244867 Z M49.7109345,31.0355484 C49.1667995,29.9765163 48.1676163,29.3864645 47.6197531,29.6558829 C48.4513592,28.9176803 50.0400056,27.6188599 51.9669457,26.8679027 C52.0454361,28.6641562 51.4363504,30.5373304 49.7109345,31.0355484 Z" id="Shape" fill="#FFBB22"></path>
                        </g>
                    </g>
                </g>
            </g>
        </g>
    </g>
</svg>