<?xml version="1.0" encoding="UTF-8"?>
<svg width="80px" height="80px" viewBox="0 0 80 80" version="1.1" xmlns="http://www.w3.org/2000/svg" xmlns:xlink="http://www.w3.org/1999/xlink">
    <title>76874063-32D6-404E-A002-0B515C7357B9</title>
    <defs>
        <polygon id="path-1" points="80 -1.18212915e-14 0 -1.18212915e-14 0 80 80 80"></polygon>
    </defs>
    <g id="Specifications" stroke="none" stroke-width="1" fill="none" fill-rule="evenodd">
        <g id="Teams" transform="translate(-48.000000, -1999.000000)">
            <g id="Group-6-Copy-8" transform="translate(48.000000, 1914.000000)">
                <g id="Group-3" transform="translate(0.000000, 48.000000)">
                    <g id="Group" transform="translate(0.000000, 37.000000)">
                        <rect id="Rectangle" fill-rule="nonzero" x="0" y="0" width="80" height="80" rx="20"></rect>
                        <g id="Group-4">
                            <g id="Clipped">
                                <mask id="mask-2" fill="white">
                                    <use xlink:href="#path-1"></use>
                                </mask>
                                <g id="Path"></g>
                                <path d="M40.0009378,-0.000415924718 C17.9448932,-0.000415924718 -0.000416804516,17.9444481 -0.000416804516,40.0019756 C-0.000416804516,62.0574236 17.9448932,80 40.0009378,80 C62.0569824,80 80,62.0574236 80,40.0019756 C80,17.9444481 62.0569824,-0.000415924718 40.0009378,-0.000415924718 Z" id="Path" fill="#FEFEFE" fill-rule="nonzero" mask="url(#mask-2)"></path>
                            </g>
                            <g id="Group-2" transform="translate(0.986437, 0.984355)" fill-rule="nonzero">
                                <path d="M38.9045335,0 C17.4122171,0 0,17.4228785 0,38.905806 C0,60.3887336 17.4122171,77.8070369 38.9045335,77.8070369 C60.3901811,77.8070369 77.806983,60.3887336 77.806983,38.905806 C77.806983,17.4228785 60.3901811,0 38.9045335,0 Z" id="Path" fill="#0F4B90"></path>
                                <g id="Group-3" transform="translate(3.288125, 3.281184)">
                                    <path d="M65.6329567,51.088241 C59.7147494,49.7633128 54.2331448,47.7365117 49.231699,45.3324668 C48.4618611,44.9595903 47.7028601,44.5779794 46.9549044,44.1897137 C43.2939019,42.2924731 39.9179937,40.2064026 36.8471864,38.0743725 C36.2284401,37.6422268 35.6186551,37.210081 35.0286683,36.7779352 C34.9890719,36.7517319 34.9540603,36.7232411 34.9190487,36.6991175 C34.1292042,36.1222299 33.3681191,35.5453423 32.6245399,34.9684547 C31.4137228,34.027425 30.2620919,33.0930502 29.1740237,32.1717769 C27.9759191,31.1569206 26.801364,30.1148212 25.6511919,29.0461027 C24.694834,28.1597671 23.8043311,27.3021303 22.9861439,26.486294 C22.8106692,26.315141 22.6460314,26.1462755 22.4793096,25.9774101 C21.189508,24.6722383 20.0751811,23.4768707 19.1671725,22.4634701 C19.1409138,21.6913059 19.1211156,21.0156362 19.1036098,20.425647 C19.0575529,18.9495301 19.0354622,18.0873182 19.0354622,18.0873182 L17.9936594,17.6158675 L17.2696699,18.2474492 L17.0241721,18.4601947 C17.0241721,18.4601947 17.035009,19.0306355 17.0568912,20.0132576 C16.8332756,19.7391632 16.6621773,19.5241301 16.5152537,19.3421631 C16.5065008,18.5130171 16.501916,17.8745727 16.4975396,17.4513693 C16.4931631,17.0739176 16.4931631,16.8655393 16.4931631,16.8655393 L15.0499775,16.8655393 L15.0235104,17.7231761 L14.1548898,17.9382092 C14.1548898,17.9382092 14.1198782,19.7589196 14.0671524,22.6608264 C11.9964676,27.392178 9.8292925,31.1450667 7.8726037,34.0471815 C6.88123416,35.5168514 5.94238199,36.7648336 5.10002006,37.8090126 C4.12386388,39.0131146 3.27066504,39.9497771 2.61044668,40.6231592 C2.48748935,39.7742569 2.40204443,38.9145405 2.34494221,38.0479613 C2.29221644,37.2978411 2.25928888,36.5433537 2.25928888,35.7799238 C2.25928888,35.0123348 2.29221644,34.2555597 2.34494221,33.4987847 C2.86698986,25.7382534 6.01907402,18.6993514 10.9325741,13.2748613 C11.99876,12.0969624 13.1524749,10.9937221 14.3743373,9.97803398 C19.6629614,5.58025397 26.3268321,2.78357617 33.6246623,2.31857234 C34.3442753,2.27240469 35.0636799,2.23954664 35.7941298,2.23954664 C36.6431606,2.23954664 37.4809377,2.2834267 38.3145467,2.3447756 C45.6563499,2.88880513 52.3312658,5.79507909 57.5980077,10.3072384 C58.7681864,11.3085771 59.8683419,12.3887336 60.8903465,13.5404292 C65.6044056,18.8574028 68.6512466,25.6812717 69.2237276,33.1959915 C69.2893744,34.0515487 69.3312632,34.9112651 69.3312632,35.7799238 C69.3312632,36.4094259 69.3091726,37.0324811 69.276245,37.6509612 C69.0086565,42.4723605 67.7232314,47.0215371 65.6329567,51.088241 Z M3.39132995,44.4355252 C3.2575357,43.9330881 3.13687079,43.4264918 3.0270428,42.9176079 C3.3779922,42.4261929 3.77083046,41.8667741 4.21389366,41.226458 L3.39132995,44.4355252 Z M6.89873995,37.6707176 L4.92016891,48.894862 C4.53837597,47.9933452 4.19617947,47.0677047 3.89357939,46.1266751 L5.37865388,39.4935077 C5.75148552,38.9320093 6.14849182,38.3243433 6.54779055,37.6971288 C6.70784348,37.4492377 6.86351997,37.2080014 7.02586533,36.9490882 L6.89873995,37.6707176 Z M13.220414,28.6050145 L12.198201,34.3607887 L11.6674004,37.3681324 L8.49781047,55.2537271 C8.01515084,54.580345 7.55228943,53.8959408 7.12235557,53.1874131 L9.91036098,37.4710737 L10.4851344,34.2468253 L10.967794,31.5114964 L11.3076981,29.6009462 C12.2553032,27.8243238 13.1743571,25.9641005 14.025472,24.0624927 L13.220414,28.6050145 Z M28.8516254,34.9507779 L29.4220224,36.7517319 L34.6929323,53.3804021 C33.9691513,53.4286494 33.2605836,53.4748171 32.5566008,53.5251439 L27.2919429,36.7868776 L26.7063326,34.9222871 L26.4431205,34.0844067 L24.6379402,28.3483889 C25.0041029,28.7081638 25.3683901,29.0569167 25.7301764,29.4056696 C26.3860183,30.033092 27.0353997,30.6494924 27.6737358,31.2438489 L28.8516254,34.9507779 Z M31.6483837,34.9684547 L32.2033589,36.7165863 L34.9453074,45.3545108 L37.4392573,53.2028023 L37.4415497,53.2159039 L37.4392573,53.2159039 C36.7592407,53.2531292 36.085893,53.292642 35.4212982,53.3344425 L34.8048443,51.3800122 L30.1810234,36.7384223 L29.6170869,34.9574327 L28.7551352,32.2287586 C29.7071167,33.0930502 30.6459688,33.9242757 31.5673152,34.7205636 L31.6483837,34.9684547 Z M43.2630584,52.9395219 C42.5611596,52.9659332 41.8659296,52.9965036 41.1748677,53.0272821 L36.8755291,39.3947256 L36.7417349,38.9736018 C36.7834153,39.0087474 36.8250958,39.0351586 36.8667763,39.0680167 C37.7228927,39.734744 38.5879705,40.3898254 39.4618012,41.033261 L43.2630584,52.9395219 Z M49.152923,52.7727361 C48.396006,52.7881253 47.6413814,52.8035146 46.8934257,52.823271 L44.2019105,44.3498447 C45.2109943,45.0144924 46.1804816,45.6329724 47.1216262,46.2077804 L49.152923,52.7727361 Z M54.987561,50.4762078 C57.5627877,51.684885 59.5084312,52.4021472 60.6973661,52.7881253 C59.0216035,52.7486125 57.3566779,52.7267765 55.7005051,52.718042 L54.987561,50.4762078 Z M51.5043256,48.723709 C52.3623177,49.1851775 53.2296879,49.6291771 54.105811,50.055084 L54.950257,52.718042 C54.6957978,52.718042 54.4436311,52.7201217 54.1891719,52.7201217 C53.7110972,52.7201217 53.232814,52.7201217 52.7568232,52.7224092 L51.8794497,49.9234439 L51.5043256,48.723709 Z M48.0450566,46.762624 C48.8890857,47.2681805 49.7416594,47.7587637 50.6027775,48.2345815 L52.013244,52.7311437 C51.6270746,52.7355109 51.24549,52.7421657 50.8572366,52.7465329 C50.5392148,52.7509001 50.2189005,52.7531877 49.9008787,52.7575549 L48.6131611,48.6030908 L48.0450566,46.762624 L48.0450566,46.762624 Z M43.2784801,43.7313646 C43.3201606,43.7554883 43.3553806,43.7839791 43.397061,43.8103903 L43.2939019,43.7796119 L46.1585993,52.8430274 C45.4325259,52.8648635 44.7131213,52.8889871 43.9980931,52.9131107 L40.50152,41.7966908 C41.4514175,42.4810949 42.3725555,43.1193314 43.2741037,43.7269974 L43.2895254,43.7773243 L43.2939019,43.7796119 L43.2784801,43.7313646 L43.2784801,43.7313646 Z M32.5543083,35.5671783 C33.0148773,35.9577317 33.4669018,36.3326878 33.9164255,36.7034847 C34.2894655,37.0104371 34.6579207,37.3088631 35.0263759,37.6050015 C35.2501999,37.7848889 35.476108,37.9735108 35.699932,38.149031 L36.9413843,42.0556039 L40.4423338,53.0580605 C39.6766639,53.0929982 38.9199553,53.1347986 38.1719996,53.1743114 L37.2812883,50.3776336 L34.978235,43.1698663 L32.9183871,36.7099315 L32.5543083,35.5671783 Z M55.3956126,58.7368886 C51.4582688,58.5438996 45.7132437,58.3794013 37.7814538,58.3858482 C36.7417349,58.3881357 35.664712,58.392503 34.5483011,58.3991578 C32.0366371,58.4166266 29.3538748,58.447405 26.4408281,58.5020991 C29.1719397,58.3771137 31.89409,58.2849864 34.5547616,58.2192703 C35.6384533,58.1907795 36.7067233,58.1687355 37.7618639,58.148979 C44.2831874,58.0262812 50.2780868,58.0460377 54.8406374,58.1007318 C57.2424734,58.1292226 59.2495956,58.171023 60.7346701,58.2038811 C60.4845874,58.4802631 60.2257517,58.7499903 59.9669161,59.0176378 C58.8461288,58.9321653 57.3347956,58.8313035 55.3956126,58.7368886 L55.3956126,58.7368886 Z M21.0075728,59.6889403 C24.9076127,59.6011802 29.5887442,59.5375437 34.4955754,59.5462781 C35.6142787,59.5485657 36.7396509,59.5550125 37.8691911,59.5660345 C44.4499092,59.629671 51.1994331,59.8444961 56.8806871,60.3469332 C57.4137801,60.3951805 57.9533335,60.4411402 58.4666283,60.4937546 C58.2165456,60.7262565 57.9554175,60.9456568 57.6965819,61.1694243 C51.8202635,66.2451616 44.1691914,69.3225886 35.7941298,69.3225886 C30.7468355,69.3225886 25.9627533,68.1995919 21.6677912,66.2012816 C21.4331302,64.4049027 21.2115986,62.1894797 21.0075728,59.6889403 Z M18.5859386,64.5694009 C18.3248105,64.4157168 18.0703514,64.2512185 17.8158922,64.0890079 C17.7237784,62.7620001 17.6383335,61.3120865 17.5570566,59.7744128 C17.8027629,59.7656784 18.0595145,59.7613112 18.3116812,59.7523688 C18.403795,61.641083 18.4938248,63.2752512 18.5859386,64.5694009 Z M20.3517309,50.0463496 C20.2266896,47.9163991 20.1124851,45.740489 20.005158,43.5645788 L21.4966929,48.265152 L22.406994,51.1233867 L23.4137853,54.2885738 C22.4486744,54.3827807 21.525244,54.4771956 20.6301563,54.5714026 C20.617027,54.3981699 20.6082741,54.2205701 20.5951447,54.0473374 C20.5117838,52.7421657 20.4307154,51.4062155 20.3517309,50.0463496 Z M19.6102357,34.7336652 C19.5927299,34.2796834 19.5729317,33.8080247 19.5531335,33.3627773 L19.9897362,34.7490544 L20.6828821,36.9621898 L23.2187208,45.0365364 L24.0719196,47.7608433 L26.0438218,54.0450498 C25.3990252,54.1020315 24.7627731,54.1613008 24.1421512,54.2205701 L22.8917376,50.2459935 L21.9968583,47.4075152 L19.8646948,40.6231592 C19.809885,39.3993007 19.7550752,38.1883359 19.7046419,36.9973355 C19.672548,36.242848 19.6410792,35.4883606 19.6102357,34.7336652 L19.6102357,34.7336652 Z M11.7772284,55.6199488 L13.7424617,44.5187101 C13.7007812,48.4188362 13.676815,52.1827469 13.678899,55.3743452 C12.994506,55.4598178 12.3672152,55.5409231 11.7772284,55.6199488 Z M13.7249559,61.0246825 C13.3191967,60.6692749 12.9221904,60.3074204 12.536021,59.9301766 C12.8869704,59.9191546 13.2708474,59.906053 13.7074501,59.8906638 C13.7118266,60.2920311 13.7184954,60.6692749 13.7249559,61.0246825 L13.7249559,61.0246825 Z M12.9155215,34.4069563 L13.9639933,28.4800291 C13.9333582,30.3446196 13.9004306,32.3624784 13.8697955,34.4616504 C13.8566661,35.3785565 13.8435368,36.3108517 13.8324915,37.2518814 C13.8149857,38.425413 13.7995639,39.6097586 13.7841422,40.7986794 L13.6855679,40.7810026 L11.0334407,55.7208105 C10.2921539,55.8216723 9.6450649,55.9137996 9.08342082,55.9928253 L12.3957663,37.3263319 L12.9155215,34.4069563 L12.9155215,34.4069563 Z M20.5096998,24.1831109 C20.9483866,24.6437475 21.3914498,25.0977293 21.8278441,25.5473439 C22.295082,26.0256574 22.7558594,26.4950284 23.2164284,26.9533774 C23.2735306,27.0126467 23.3370933,27.0762832 23.3941955,27.1332649 L23.62448,27.8592615 L24.9801367,32.1081404 L25.8727235,34.9091854 L26.4760481,36.8043464 L26.5002227,36.8810845 L31.8238584,53.5777584 C31.1263361,53.6282933 30.4396506,53.6809078 29.7619265,53.7314426 L25.9737986,41.6321926 L25.1226838,38.9209873 L24.4755948,36.8503061 L23.8568485,34.8653054 L20.8694021,25.3281516 L20.5096998,24.1831109 Z M19.1738413,22.7770773 C19.2330276,22.8384262 19.2878374,22.8954079 19.3449396,22.9546772 L20.0314166,25.1372422 L23.0826341,34.8478365 L23.7209702,36.8700625 L24.8309206,40.4081261 L25.6622373,43.0492481 L29.0402295,53.7905039 C28.2680991,53.8520608 27.5136829,53.9156973 26.7698953,53.9791258 L24.5085223,46.6989875 L23.6682444,44.0033794 L21.4704342,36.9359866 L20.7968781,34.7775453 L19.4414298,30.4103357 C19.3668218,28.4099458 19.3009667,26.5827885 19.248241,24.9596423 C19.2219823,24.1831109 19.1957236,23.441725 19.1736329,22.7770773 L19.1738413,22.7770773 Z M16.5240066,19.8903518 C16.7059418,20.0943629 16.8880854,20.287352 17.0679365,20.4892834 C17.0985717,21.6846511 17.1402521,23.3649869 17.1886014,25.3763989 C17.2565406,28.0019237 17.3399015,31.1956016 17.4363917,34.6438255 C17.4584824,35.4442726 17.4803646,36.2582373 17.5045393,37.082808 C17.6558393,42.2835307 17.833398,47.8660722 18.019918,52.8276382 C18.0440927,53.5120423 18.0703514,54.187712 18.0968185,54.8457049 C17.8356904,54.8762754 17.5879002,54.9049742 17.333441,54.933465 C17.3157268,54.48593 17.3005135,54.0230058 17.2807152,53.569024 C17.0766894,48.2718068 16.9210129,42.4941966 16.8024321,37.1115068 C16.7849263,36.2669717 16.7697129,35.4334585 16.7519987,34.613047 C16.686352,31.3600998 16.6380027,28.3288405 16.5986146,25.7141297 C16.5633947,23.3891106 16.5415124,21.3841455 16.5240066,19.8903518 L16.5240066,19.8903518 Z M8.75664608,34.1172648 C9.2480586,33.2881189 9.7459316,32.4415041 10.2417206,31.5530889 L10.0397788,32.7155985 L9.77885915,34.1962905 L9.19762526,37.5149538 L6.61135323,52.2989979 C6.17704293,51.535776 5.77128373,50.7548774 5.39824369,49.9542223 L7.57875652,37.6247579 L7.96700992,35.431171 C8.06120774,35.2797744 8.15790639,35.1131965 8.25002019,34.9617999 C8.42028483,34.6812587 8.58929907,34.3996777 8.75664608,34.1172648 Z M35.7941298,0 C16.0259252,0 0,16.0189246 0,35.7886583 C0,55.5606795 16.0259252,71.5796041 35.7941298,71.5796041 C45.8449539,71.5796041 54.9196219,67.4340824 61.4213555,60.7636898 C61.6405947,60.6474388 61.9017227,60.331544 62.1320072,60.0179368 C67.9974888,53.6436825 71.5817992,45.1394778 71.5817992,35.7886583 C71.5817992,16.0189246 55.5623344,0 35.7941298,0 Z" id="Shape" fill="#FEC42F"></path>
                                    <path d="M2.25928888,35.7809636 C2.25928888,36.5443935 2.29200803,37.2988809 2.34473381,38.0469215 C2.82301699,38.0007539 3.75290786,37.9152813 5.09981166,37.8077648 C5.94217358,36.7658734 6.88102576,35.5178913 7.8723953,34.0459337 C4.8826565,33.8003301 2.99619926,33.5788502 2.34473381,33.4998245 C2.29200803,34.254312 2.25928888,35.0133746 2.25928888,35.7809636 Z M69.3310548,35.7809636 C69.3310548,34.9102252 69.2893744,34.0503009 69.2235192,33.1970313 C61.2323347,33.9494392 53.7896648,34.414443 46.9853311,34.6777233 C47.32982,29.4352002 49.8589898,24.7105034 53.4366314,20.1284687 C56.3275875,16.4169645 59.3723445,14.3991058 60.8901381,13.541469 C59.8681335,12.3876938 58.76902,11.3083692 57.5977993,10.3059906 C54.9829761,12.8876353 46.4391088,22.2471893 45.8316162,34.7259706 C42.6751556,34.8378543 39.6656186,34.905858 36.8050892,34.9410037 C36.6319069,15.4913241 38.1607459,3.49314374 38.3143383,2.34373578 C37.4807293,2.28217893 36.6450362,2.24058645 35.7939214,2.24058645 C35.0634715,2.24058645 34.3440669,2.27344451 33.6246623,2.31732456 C33.7890917,3.8812015 34.9648972,15.8138737 35.0217911,34.9584725 C34.2123567,34.9628397 33.4118836,34.9672069 32.6243315,34.9672069 C33.3679107,35.5440945 34.1289958,36.1209821 34.9188403,36.6978697 L35.0284599,36.6978697 L35.0284599,36.7768954 C35.6184467,37.2111208 36.2282317,37.6432666 36.8467696,38.0731248 C36.8403092,37.6081209 36.8336403,37.1497719 36.8248874,36.6935025 C39.6743715,36.6935025 42.6684867,36.7132589 45.8074415,36.7658734 C45.8578749,39.1480822 46.2088243,41.6309448 46.954696,44.1907535 C47.7026517,44.5790192 48.4616527,44.9606301 49.2314906,45.3335066 C47.8035184,42.3086941 47.0884902,39.4770786 46.9634488,36.7877094 C53.7875808,36.9149824 61.2588017,37.1826299 69.2760366,37.6499214 C69.3089642,37.0312333 69.3310548,36.4104657 69.3310548,35.7809636 L69.3310548,35.7809636 Z M14.3741289,9.97699416 C13.1522665,10.9947619 11.9985516,12.0959226 10.9323657,13.2759011 C11.7989022,13.7255157 13.7139106,14.839986 15.8898386,16.8665791 L16.4929547,16.8665791 C16.4929547,16.8665791 16.4929547,17.0728778 16.4973311,17.4501215 C16.7517903,17.7046675 17.0106259,17.9677398 17.2694615,18.2464094 L17.993451,17.6169073 L19.0352538,18.0862784 C19.0352538,18.0862784 19.0573445,18.9505699 19.1034014,20.4266868 C20.6080657,22.3831966 21.9176655,24.3684053 22.946339,26.4083081 L25.6028426,28.8693347 C23.093471,18.812275 16.1442977,11.6681441 14.3741289,9.97699416" id="Shape" fill="#FEFEFE"></path>
                                </g>
                            </g>
                        </g>
                    </g>
                </g>
            </g>
        </g>
    </g>
</svg>