<?xml version="1.0" encoding="UTF-8"?>
<svg width="80px" height="80px" viewBox="0 0 80 80" version="1.1" xmlns="http://www.w3.org/2000/svg" xmlns:xlink="http://www.w3.org/1999/xlink">
    <title>C97500E1-6646-4126-AE76-07B9C9BAD77B</title>
    <defs>
        <polygon id="path-1" points="80 46.921646 0 46.921646 0 9.09563829e-15 80 9.09563829e-15"></polygon>
    </defs>
    <g id="Specifications" stroke="none" stroke-width="1" fill="none" fill-rule="evenodd">
        <g id="Teams" transform="translate(-624.000000, -1197.000000)">
            <g id="Group-6-Copy-9" transform="translate(624.000000, 1112.000000)">
                <g id="Group-3" transform="translate(0.000000, 48.000000)">
                    <g id="Group" transform="translate(0.000000, 37.000000)">
                        <rect id="Rectangle" fill-rule="nonzero" x="0" y="0" width="80" height="80" rx="20"></rect>
                        <g id="Group-2" transform="translate(0.000000, 16.000000)">
                            <g id="Clipped">
                                <mask id="mask-2" fill="white">
                                    <use xlink:href="#path-1"></use>
                                </mask>
                                <g id="Path"></g>
                                <path d="M79.9817586,14.3222085 C79.9783984,14.3073274 79.9833587,14.2922862 79.9799985,14.2774051 C79.9700777,14.2391622 79.946876,14.2092399 79.933595,14.1725971 C79.9137534,14.1210732 79.8971122,14.0695493 79.86895,14.0229857 C79.842388,13.9813826 79.8092655,13.9481001 79.776143,13.9116173 C79.7396602,13.8733744 79.7081378,13.8333713 79.6649345,13.8000888 C79.6202911,13.7685664 79.5721275,13.7469648 79.5223637,13.723603 C79.4809205,13.7037615 79.4410775,13.6803997 79.3964341,13.6671187 C79.3399498,13.6522376 79.2820254,13.6504774 79.2221809,13.6472772 C79.1824979,13.6439169 79.1460151,13.6288758 79.1045719,13.632236 C74.2874058,14.0196255 69.3343894,14.7611218 64.3597713,15.8069613 C64.6508335,15.0241818 64.9271745,14.2359619 65.1887943,13.4426216 C69.8998724,12.5897568 74.6405527,11.8215384 79.2885859,11.1614883 C79.3250687,11.1565279 79.3532308,11.1365264 79.3881135,11.1266056 C79.4378773,11.1133246 79.4858809,11.1000436 79.5306843,11.078442 C79.578848,11.0534801 79.6202911,11.0235578 79.6633344,10.9918754 C79.7031774,10.9619531 79.7396602,10.933791 79.7727827,10.8987483 C79.8092655,10.8589053 79.8374276,10.815702 79.8655898,10.7691385 C79.8905517,10.7275353 79.9171137,10.6876923 79.9353551,10.6411287 C79.9551966,10.5912049 79.9635172,10.5380809 79.973438,10.4831967 C79.9799985,10.4465539 79.9982399,10.4150315 80,10.3767886 C80,10.3617475 79.9932795,10.3468664 79.9932795,10.3318252 C79.9932795,10.3169441 80,10.3019029 79.9982399,10.2852617 C79.9966397,10.2436585 79.9767982,10.2071757 79.9684776,10.1671727 C79.9585569,10.1174089 79.9502362,10.0674851 79.9319948,10.0209216 C79.9103932,9.9709978 79.8788708,9.92779451 79.8491085,9.88299111 C79.8225465,9.84138795 79.7993448,9.80138491 79.7644621,9.76650225 C79.7279793,9.72665923 79.6815758,9.69833707 79.6367724,9.66681468 C79.5970894,9.63849253 79.5622067,9.60857025 79.5174033,9.58856873 C79.4644393,9.56360683 79.407955,9.55368608 79.3516307,9.54200519 C79.3117877,9.53208444 79.276905,9.51208292 79.2354619,9.50888268 C75.1033079,9.18629816 70.8018609,9.10805221 66.4375293,9.25270321 C66.5551382,8.81042959 66.671307,8.3631956 66.7841156,7.90940111 C66.8769226,7.53529268 66.7010693,7.14614311 66.3596033,6.96996972 C56.7718347,2.01855341 49.1357343,1.81912766e-14 40.0056004,1.81912766e-14 C30.8738664,1.81912766e-14 23.2377661,2.01855341 13.645037,6.96996972 C13.3034111,7.14614311 13.1277177,7.53529268 13.2189246,7.90940111 L13.7992887,10.2537393 C14.671515,13.7703265 15.8869674,17.1305819 17.3875615,20.2996228 C11.3351015,22.8966201 5.61098643,25.8894876 0.384349211,29.2214208 C0.027842116,29.4492781 -0.10144771,29.9097931 0.0841663966,30.2906221 C0.228497366,30.5815242 0.521959669,30.7544973 0.828702981,30.7544973 C0.923270169,30.7544973 1.01943748,30.7378561 1.11224453,30.7045735 C6.10014361,28.8873154 11.2954185,27.144783 16.5535781,25.4904173 C15.5901449,27.5321724 14.6415928,29.5840084 13.7296835,31.6440049 L13.5819922,31.97315 C13.0779539,33.0837944 12.3863814,34.6067901 12.8772987,35.8854473 C13.1094763,36.4906133 13.5637508,36.9429677 14.3497306,37.2737128 C14.4458979,37.2986747 14.5404651,37.3202763 14.6366324,37.3369176 C10.9621131,39.9107132 7.5013701,42.6325201 4.30272701,45.4674555 C3.98590293,45.7484369 3.93117877,46.223993 4.1750373,46.5697793 C4.33584952,46.7976366 4.59122893,46.9222866 4.85316884,46.9222866 C4.99381953,46.9222866 5.13191003,46.8862834 5.25447934,46.8174781 C12.5158312,42.7872518 20.1900144,38.8699941 28.0682132,35.170513 C31.3961461,38.4027586 35.2532392,41.342342 39.579488,43.9410995 C39.8414279,44.0974314 40.1681728,44.0974314 40.4317128,43.9410995 C50.6297679,37.8108736 57.552854,30.513359 62.1410427,21.039519 C67.9331629,18.9444798 73.7435245,17.0008121 79.4146755,15.2566795 C79.4511583,15.2449986 79.4775603,15.2200367 79.5124429,15.2051556 C79.5572464,15.1851541 79.5986895,15.1653126 79.6385325,15.1385905 C79.6849361,15.105308 79.7230189,15.0670651 79.762862,15.0272221 C79.7943844,14.9923394 79.8259068,14.960657 79.8523088,14.920814 C79.8838312,14.8742504 79.9038327,14.8260868 79.9252743,14.7745629 C79.9435157,14.7313596 79.9635172,14.6879963 79.973438,14.6398326 C79.9849589,14.5849485 79.9849589,14.5300643 79.986719,14.47358 C79.986719,14.4369372 80,14.4020546 79.9950396,14.3655718 C79.9932795,14.3505306 79.9833587,14.3372496 79.9817586,14.3222085 L79.9817586,14.3222085 Z" id="Shape" fill="#FEFEFE" fill-rule="nonzero" mask="url(#mask-2)"></path>
                            </g>
                            <path d="M79.171457,14.4620591 C73.3991783,16.2361139 67.5208116,18.2047436 61.5645189,20.3645877 C62.0951192,19.2523432 62.592597,18.105056 63.0635128,16.9228861 L79.171457,14.4620591 Z M63.0638329,16.9228861 C68.5690512,15.6957529 73.9649813,14.8793708 79.1717771,14.4620591 L63.0638329,16.9228861 Z M4.85236878,46.0902229 C9.45719875,42.0084726 14.6491133,38.1244975 20.3383457,34.5496658 C21.408027,34.0059445 22.4791484,33.4673435 23.5553902,32.9335429 C23.9981439,32.7141663 24.8652498,32.2917342 25.9563727,31.7664142 C26.6893884,32.592717 27.4488061,33.3940579 28.2347858,34.1755573 C20.0648849,37.9963277 12.2479708,41.9851109 4.85236878,46.0902229 Z" id="Shape" fill="#0070B9" fill-rule="nonzero"></path>
                            <path d="M79.171457,10.3380657 C74.3874134,11.0181174 69.5140831,11.8077774 64.5676271,12.710726 C64.8412479,11.8626616 65.0982275,10.9965157 65.3468864,10.1151688" id="Path" fill="#EF5133" fill-rule="nonzero"></path>
                            <path d="M65.3470464,10.1146887 C70.1061281,9.91355343 74.7307995,9.99163936 79.171457,10.3375857 L65.3470464,10.1146887 Z" id="Path" fill="#ED2A37" fill-rule="nonzero"></path>
                            <path d="M0.829183018,29.9230742 C6.17358919,26.5162552 12.0933991,23.4137794 18.4857249,20.7185346 C18.6980611,21.1475272 18.9185578,21.5749197 19.1408147,21.9954317 C18.7991887,22.7004452 18.4559627,23.4036987 18.1176969,24.1120725 C12.1746853,25.9509323 6.40576684,27.8913997 0.829183018,29.9230742 Z" id="Path" fill="#EF5133" fill-rule="nonzero"></path>
                            <path d="M40.0043203,2.48658788 C49.013325,2.48658788 56.078982,4.59970958 64.0549482,8.5868926 C60.1532116,23.3347334 53.0113889,33.2409263 40.0059204,41.290018 C35.1193091,38.2589077 30.9653934,34.8804109 27.4947296,31.0295582 C29.0385269,30.2947824 30.7797793,29.4667195 32.3085354,28.7417044 C32.9271425,28.7983487 33.5207876,28.8282709 34.0729895,28.8431521 C34.0381069,29.6928167 33.7712066,30.316384 33.3433341,30.763618 C33.591993,31.0479596 33.8457723,31.3339014 34.0993916,31.6132826 C34.7743228,31.0079566 35.2071557,30.1168489 35.2418784,28.8465123 C36.8239186,28.8215504 38.3510747,28.6586581 39.7689424,28.3576752 C39.6892564,30.6804117 39.3658718,32.3914217 38.7059817,33.0697133 C38.6827799,33.0913149 38.671099,33.1079562 38.6595781,33.131158 C38.4954057,33.3041311 38.3477144,33.4503822 38.2200247,33.5619107 C38.8584732,33.4454219 39.4836408,33.2975706 40.1020878,33.1228373 C40.8981483,31.4718319 40.908069,28.5804121 40.9195899,28.078294 C42.3971422,27.7059457 43.710362,27.3318372 44.8926918,26.9262064 C44.9390954,28.2845496 45.4797765,29.5814482 46.5144151,30.0602046 C46.9803705,29.7310596 47.4314448,29.3803129 47.8676379,29.0177253 C47.605538,29.0577284 45.9705338,29.170697 45.9937355,26.5320964 C49.4544785,25.223517 51.7079298,23.6473972 53.6911205,21.2913781 C54.2151604,20.105848 54.6380725,18.8622335 54.9364952,17.5736556 C52.565275,21.3262608 50.3798289,23.5160272 46.1131046,25.2335978 C46.2342338,24.4770603 46.4531304,23.5725115 46.8062773,22.4884291 C48.0498918,21.9663094 49.3483905,21.3429021 50.13101,21.0203175 L51.9964317,19.0550482 C52.4657474,17.2393902 52.9317028,15.4221321 53.3976582,13.6064741 L51.9385073,14.0620287 L53.6530376,12.2546914 C54.0145051,10.8331433 54.367812,9.40823503 54.7209588,7.98668699 C53.8620135,8.11293658 53.0013081,8.24110632 52.1407627,8.37567655 C52.2850937,7.66410247 52.3878215,6.96084902 52.4425456,6.25743557 C52.0279541,6.15278761 51.6135226,6.0513399 51.1955709,5.95821282 C51.1077242,6.74803285 50.9534725,7.62409943 50.7196947,8.60017361 L50.6019257,8.618415 C49.7961045,8.75474536 48.9702817,9.02084558 48.2523072,9.62777171 L48.4827247,8.92771851 C47.0997396,9.17877759 45.7218749,9.43319692 44.3438501,9.70089727 L42.9709458,11.1474072 L43.0155892,11.0310784 L43.460103,9.87211028 C42.0969594,10.1530916 40.737336,10.4407935 39.3759526,10.7384161 C39.092251,8.89443598 38.8071093,7.22838936 38.5600506,5.87996688 C38.1736212,5.92493029 37.7873518,5.97981447 37.4042827,6.03469864 C37.6529416,7.39800225 37.9432037,9.10565203 38.2333057,10.9910753 L37.2682724,11.2088519 L36.0428993,12.5041503 C35.183954,11.5930411 33.4411015,12.1682848 32.341818,12.4459059 C31.1511675,12.7468888 29.9622771,13.0593925 28.7732268,13.3803769 C28.4184798,13.4784644 28.065173,13.5864726 27.7185866,13.7063217 C26.8281189,12.4193439 25.9907753,11.0909229 25.2993628,9.66089423 L25.1750333,9.39655414 C24.8150059,9.54296527 24.4573788,9.69481681 24.1021518,9.85210876 L24.2546434,10.1681328 C24.9278145,11.566319 25.7387561,12.8732984 26.6125826,14.1418748 C25.3308851,14.7137582 24.1469552,15.5069385 23.1204772,16.6407847 C23.1204772,16.6407847 21.4539505,18.3900376 21.2582556,18.6044539 C20.8254227,19.1032118 20.4524344,19.6336522 20.1223293,20.1740132 C18.3729163,16.6425448 16.9851309,12.8001728 15.9437717,8.58849273 C23.921338,4.60146971 30.9903553,2.48482885 40.0043203,2.48658788 L40.0043203,2.48658788 Z M40.8848672,24.8111656 C41.7138903,24.4453778 42.5430733,24.0829503 43.368896,23.7189226 L43.7569255,23.3148919 C43.9193379,23.341454 44.1067121,23.3464143 44.3172881,23.3264128 C44.6406727,23.2715286 45.0354227,23.1601602 45.4631352,23.0105488 C45.184554,24.0298263 45.0154212,24.9110132 44.9390954,25.6774715 C43.7601258,26.0947832 42.4369852,26.4888932 40.9328709,26.8695621 C40.9312708,26.211112 40.9146295,25.5228997 40.8848672,24.8111656 L40.8848672,24.8111656 Z M35.1474712,27.4033627 L35.9251303,27.0409351 L37.921602,25.4313728 L38.3659558,24.2010393 C38.6546178,24.7862038 38.8104696,25.0156612 39.0972114,25.6059461 L39.7539013,25.3166441 C39.7771031,25.9501322 39.7871838,26.5669791 39.7871838,27.1556638 C38.3461143,27.486409 36.789036,27.6643425 35.1821938,27.6893044 L35.1474712,27.4033627 Z" id="Shape" fill="#FEFEFE" fill-rule="nonzero"></path>
                            <path d="M44.8576492,5.50489837 C46.7611538,5.50489837 48.6400166,5.60474596 50.4921574,5.80428113 C51.9017045,6.10014361 53.2978106,6.45937091 54.6825559,6.87828275 C55.2097959,8.73218365 55.4949376,10.6908925 55.4949376,12.7126462 C55.4949376,14.3870134 55.302603,16.0114569 54.9361751,17.5726955 C52.5649549,21.3253007 50.3793488,23.5166673 46.1127846,25.2342378 C46.2339138,24.4777003 46.4544105,23.5715514 46.8059573,22.4890692 C48.0497318,21.9653494 49.3480705,21.3435421 50.1290898,21.0193575 L51.9961117,19.0540881 C52.4654274,17.2384301 52.9313828,15.421172 53.3973382,13.605514 L51.9381873,14.0610686 L53.6543177,12.2537313 C54.0141851,10.8321832 54.3690921,9.40887507 54.7206388,7.98732704 C53.8616935,8.11197651 53.0011481,8.23998624 52.1404427,8.37471648 C52.2847736,7.66474252 52.3875015,6.95972894 52.4422256,6.25647549 C52.0279541,6.1513475 51.6122425,6.05213996 51.1952508,5.95885287 C51.1090043,6.74691277 50.9531524,7.62489949 50.7193747,8.60081366 L50.6016057,8.61921506 C49.7940243,8.75554542 48.9699617,9.02148563 48.2519872,9.62665163 L48.4824047,8.92675843 C47.0995796,9.17781751 45.7215548,9.43383697 44.3435301,9.6999372 L42.9704658,11.1464471 L43.0170293,11.0299583 L43.4597829,9.87275033 C42.0983995,10.1521316 40.736856,10.4414335 39.3754725,10.7390562 C39.091931,8.89507603 38.8083894,7.22918942 38.5597305,5.88076694 C40.6242074,5.62970786 42.723407,5.50489837 44.8576492,5.50489837 Z M53.6908005,21.2904181 C52.3626996,24.2997668 50.3563071,26.9385273 47.868918,29.0167653 C47.605218,29.0567683 45.9686136,29.1697369 45.9934155,26.5311364 C49.4557586,25.2225569 51.7076098,23.6464371 53.6908005,21.2904181 Z M46.5140951,30.0592445 C44.5856285,31.420948 42.4265844,32.4667875 40.1035279,33.1218773 C40.8978282,31.4708718 40.907749,28.579452 40.92103,28.079094 C42.3968222,27.7065857 43.710042,27.3308771 44.8923718,26.9268464 C44.9387753,28.2835896 45.4794564,29.5804881 46.5140951,30.0592445 Z M38.2214648,33.5625508 C37.5697353,33.68384 36.9098451,33.7737668 36.2414744,33.8336114 C35.5050984,33.1148367 34.7906441,32.3741404 34.0990715,31.6121625 C34.7724027,31.0069965 35.2068357,30.1158888 35.2415584,28.8471524 C36.8235986,28.8205904 38.3507547,28.6592981 39.7686224,28.3567151 C39.6889364,30.6794516 39.3655518,32.3903017 38.7072618,33.0687532 C38.6824599,33.0903549 38.670779,33.1085963 38.6608582,33.1301979 C38.4933255,33.3047712 38.3473944,33.4494222 38.2214648,33.5625508 Z M33.3446142,30.762658 C32.8322553,30.1739732 32.3331773,29.5721675 31.8472204,28.960281 L32.3082154,28.7407443 C32.9268224,28.7989887 33.5204676,28.828911 34.0726695,28.842192 C34.039387,29.6918566 33.7707266,30.3170241 33.3446142,30.762658 Z M24.184718,15.6256676 C23.539709,13.9845828 22.9692657,12.3036551 22.4817086,10.5860845 C23.0172693,10.3316652 23.5595505,10.0873266 24.1034319,9.85114869 L24.2543233,10.1687728 C24.9276545,11.5671191 25.7384361,12.8721783 26.6122625,14.1409147 C25.7533173,14.5233438 24.9375753,15.0070605 24.184718,15.6256676 L24.184718,15.6256676 Z M25.1747133,9.39559407 C29.1476552,7.76459011 33.210364,6.64050468 37.4055628,6.03533869 C37.6526216,7.39880231 37.9428837,9.10469196 38.2329857,10.9917154 L37.2679524,11.2078918 L36.0425792,12.5047904 C35.1818738,11.5936811 33.4391814,12.1689248 32.3413379,12.4449458 C31.1508475,12.7492889 29.960197,13.0584324 28.7729067,13.3794168 C28.4181598,13.4775043 28.0648529,13.5855125 27.7182666,13.7052016 C26.8277989,12.4183838 25.9904553,11.0898028 25.2990427,9.65993415 L25.1747133,9.39559407 Z M40.8861473,24.8102056 C41.7135702,24.4444178 42.5427532,24.0819902 43.368576,23.7195627 L43.7566055,23.315532 C43.9190178,23.3404939 44.1063921,23.3488145 44.3169681,23.3254527 C44.6387525,23.2705686 45.0333425,23.1592001 45.4644153,23.0111889 C45.184234,24.0287062 45.0168613,24.9100532 44.9389354,25.6765114 C43.7598057,26.0954233 42.4366652,26.4879331 40.9325509,26.8703621 C40.9309508,26.210152 40.9143095,25.5235398 40.8861473,24.8102056 Z M35.1471512,27.4024026 L35.9248103,27.0415752 L37.921282,25.4304127 L38.3657958,24.2000792 C38.6542977,24.7870038 38.8117497,25.0147011 39.0970514,25.6065861 L39.7535813,25.315684 C39.776783,25.9507723 39.7868638,26.5676191 39.7868638,27.157904 C38.3457943,27.4854489 36.7887159,27.6633824 35.1818738,27.6883443 L35.1471512,27.4024026 L35.1471512,27.4024026 Z" id="Shape" fill="#EF5133" fill-rule="nonzero"></path>
                            <path d="M40.3936299,38.8363916 C36.5648589,36.2358739 33.1522796,33.1750013 30.2022954,29.7398602 L31.8472204,28.960121 C32.3330173,29.5720075 32.8322553,30.1722131 33.3446142,30.7624979 C33.5934331,31.0485997 33.8448122,31.3323013 34.0990715,31.6137626 C36.2845176,34.0195455 38.7039015,36.2225929 41.3404219,38.2013033 C41.026798,38.4158796 40.711094,38.6275757 40.3936299,38.8363916 L40.3936299,38.8363916 Z M22.3540189,17.447726 C21.2347338,14.9920194 20.2927422,12.4380653 19.5416452,9.7961045 C26.2175125,6.63698441 33.1306779,4.9328549 40.4681956,4.73491985 C43.8990163,4.76484213 47.2336698,5.12406943 50.4937575,5.80412111 C48.6398566,5.60618607 46.7611538,5.50473836 44.8574892,5.50473836 C42.7218069,5.50473836 40.6240474,5.63114797 38.5595705,5.88060693 C38.1733012,5.92541033 37.7886319,5.97869438 37.4055628,6.03517867 C33.2086039,6.64034467 29.1476552,7.76427008 25.1745533,9.39543405 C24.8146859,9.5434453 24.4581788,9.69465679 24.1016717,9.8525888 C23.5595505,10.0871666 23.0172693,10.3315052 22.4817086,10.5859245 C22.9691057,12.3034951 23.5379489,13.9844228 24.184558,15.6255075 C23.8147699,15.9280905 23.4582628,16.2673163 23.1217573,16.6396646 L22.3540189,17.447726 L22.3540189,17.447726 Z" id="Shape" fill="#FCB424" fill-rule="nonzero"></path>
                            <path d="M14.0242658,7.7092259 C22.6537217,3.25480737 30.223417,0.830623127 40.0051204,0.830623127 C49.7820234,0.830623127 57.3533189,3.25480737 65.9794144,7.7092259 C61.9714298,23.9002164 54.3188482,34.6227913 40.0051204,43.2271253 C34.6027898,39.9815986 29.881791,36.1790696 25.9568527,31.7664142 C24.8657298,32.2917342 23.9984639,32.7124061 23.5541101,32.9319428 C22.2026474,33.6068741 20.8511847,34.2853257 19.5064425,34.9719379 C17.9890472,35.7484769 16.3044391,36.9223261 14.5566263,36.4683716 C12.6464011,35.6371084 13.9048968,33.3042911 14.4886211,31.9792304 C15.974334,28.6223353 17.5248519,25.2936023 19.1416148,21.9947916 C17.1998672,18.3402739 15.6725511,14.3665319 14.6030298,10.0535641 L14.0242658,7.7092259 Z M40.0051204,2.4867479 C30.9895552,2.48498886 23.9221381,4.60162972 15.9428117,8.58865274 C16.9859309,12.7969726 18.3721163,16.6460651 20.1232894,20.1741732 C20.4516343,19.6338122 20.8246227,19.1035319 21.2590557,18.6030138 C21.4531504,18.3901977 23.1212772,16.6411047 23.1212772,16.6411047 C24.1459951,15.5054984 25.3316852,14.7123181 26.6117825,14.1420348 C25.7379561,12.8734584 24.9287746,11.5666391 24.2538433,10.1682928 L24.1029518,9.85242878 C24.4594589,9.69433677 24.815966,9.54312528 25.1758334,9.39511403 L25.3001628,9.66121425 C25.9915754,11.0893228 26.8273189,12.4179038 27.7195467,13.7064817 C28.066133,13.5867926 28.4175197,13.4786244 28.7741868,13.3805369 C29.9613171,13.0579524 31.1503674,12.7470488 32.342618,12.4444658 C33.4403015,12.1684448 35.1831539,11.5932011 36.0420992,12.5043103 L37.2690724,11.2091719 L38.2325057,10.9912353 C37.9440037,9.10581204 37.6521416,7.39832227 37.4050828,6.03485865 C37.7881519,5.97997448 38.1744213,5.92509031 38.5592505,5.8802869 C38.8079094,7.22870938 39.091451,8.89459599 39.3749925,10.7385761 C40.736376,10.4409535 42.0977594,10.1532516 43.460903,9.87227029 L43.0165493,11.0294782 L42.9699857,11.1459671 L44.3430501,9.69945716 C45.7210748,9.43335694 47.1006997,9.17733748 48.4819246,8.9262784 L48.2515071,9.62793172 C48.9694817,9.0210056 49.7953044,8.75506538 50.6011257,8.61873502 L50.7204948,8.60033363 C50.9526724,7.62441946 51.1085242,6.74819286 51.1947708,5.95837284 C51.6125626,6.05149991 52.0289142,6.15294762 52.4433457,6.25599546 C52.3870214,6.9592489 52.2841336,7.66426248 52.1399626,8.37423644 C53.000508,8.24126634 53.8628136,8.11325661 54.7201587,7.986847 C54.368612,9.40839504 54.013705,10.8317032 53.6538377,12.2548514 L51.9377073,14.0605886 L53.3968582,13.605034 C52.9325029,15.4222921 52.4649473,17.2379501 51.9973918,19.0552082 L50.1302099,21.0188774 C49.3491905,21.3430621 48.0490917,21.9666295 46.8054772,22.4885891 C46.4539305,23.5710714 46.2334337,24.4772203 46.1123045,25.2337578 C50.3788688,23.5161872 52.5644749,21.3248207 54.9356951,17.5722155 C54.6372724,18.8623935 54.2143603,20.1060081 53.6903205,21.2915382 C51.7071297,23.6475572 49.4552786,25.223837 45.9946956,26.5322565 C45.9697337,29.171017 47.6063381,29.0562883 47.868438,29.0162852 C47.4322449,29.3804729 46.9795704,29.7312196 46.513615,30.0587645 C45.4789764,29.5816082 44.9382953,28.2847096 44.8918918,26.9263664 C43.7095619,27.3319972 42.3979422,27.7061057 40.92055,28.078614 C40.907269,28.578972 40.8973482,31.4721519 40.1030478,33.1231574 C39.4826807,33.2982107 38.854633,33.4446218 38.2209848,33.5620707 C38.3469144,33.4507023 38.4946056,33.3042911 38.6603782,33.1297179 C38.6702989,33.1081162 38.6819798,33.091475 38.7067817,33.0698733 C39.3650717,32.3915818 39.6884563,30.6805717 39.7679824,28.3578352 C38.3502746,28.6588181 36.8231186,28.8201103 35.2428385,28.8466723 C35.2079558,30.1154088 34.7735228,31.0081166 34.1003516,31.6116825 C33.8449722,31.3358215 33.5929531,31.0481197 33.3441342,30.7621779 C33.7720067,30.3165441 34.038907,29.6929767 34.0720295,28.841712 C33.5198275,28.828431 32.9279425,28.7985087 32.3077354,28.7402643 C30.7788192,29.4652794 29.039487,30.2965425 27.4939295,31.0298783 C30.9645933,34.8805709 35.1201091,38.2590677 40.0051204,41.2885779 C53.0104288,33.2412463 60.1524116,23.3332933 64.0559082,8.58705262 C56.0781819,4.6000296 49.0142851,2.4867479 40.0051204,2.4867479 Z M40.8856673,24.8097255 C40.9155896,25.5230598 40.9304707,26.2114321 40.9320708,26.8698821 C42.4377853,26.487453 43.7593257,26.0949432 44.9382953,25.6760314 C45.0162212,24.9095731 45.183754,24.0282261 45.4639353,23.0107088 C45.0344626,23.1620803 44.6398726,23.2718487 44.3182482,23.3249727 C44.1075122,23.3465743 43.9201379,23.3400138 43.7559655,23.3132918 L43.3696961,23.7190827 C42.5422732,24.0815102 41.7130902,24.4439377 40.8856673,24.8097255 Z M35.1466711,27.4035227 L35.1813938,27.6894644 C36.7882359,27.6662626 38.3453142,27.486729 39.7879839,27.1558238 C39.7879839,26.5671391 39.7780631,25.9502922 39.7531012,25.315204 L39.0964113,25.6061061 C38.8112697,25.0159812 38.6536577,24.7865238 38.3669159,24.2011993 L37.920802,25.4315328 L35.9243302,27.0426952 L35.1466711,27.4035227 Z" id="Shape" fill="#081E3F" fill-rule="nonzero"></path>
                            <path d="M28.9241182,14.0594685 C26.894364,14.6131106 25.0836664,15.4826167 23.6344362,17.0904189 C22.8018929,18.0464915 22.2082478,19.1422548 21.6544457,20.26282 C20.0327225,23.5699513 18.4774043,26.9052448 16.9883311,30.2704606 C16.6003016,31.1482873 15.4062909,33.2831695 16.6764674,33.8352115 C18.0826543,34.2009993 19.8403879,33.0172293 21.0808021,32.3837412 C22.4289046,31.696969 23.7786072,31.0153172 25.1334301,30.341986 C27.4400054,29.1946988 29.5076826,27.803073 30.9106692,25.5667431 C31.4694317,24.6223513 31.8856233,23.6097943 32.2952544,22.5988375 C33.1756413,20.4257124 34.0728295,18.2525872 34.986499,16.0877827 C35.3297251,15.276521 35.9283306,14.2538833 35.7375961,13.3677359 C35.3529268,12.1788456 33.3498946,12.9054608 32.4776683,13.1232374 C31.2935783,13.4259804 30.1080482,13.736884 28.9241182,14.0594685 L28.9241182,14.0594685 Z M26.3588033,26.4762522 C25.2859217,26.9567687 24.2180006,27.4388854 23.1484793,27.9326829 C24.6989971,24.3280889 26.3074394,20.7482969 27.987247,17.196827 C28.9257184,16.8976042 29.8675499,16.6065421 30.8145019,16.31564 C29.2772651,19.6808557 27.7947524,23.0694333 26.3588033,26.4762522 Z M44.7152384,10.3350255 C43.2293654,12.2820534 41.7618939,14.2439625 40.3126638,16.2191527 C40.9891952,14.4118153 41.6756473,12.6062381 42.3672199,10.8072213 C40.8266228,11.1230854 39.2911461,11.460711 37.7572696,11.8098575 C37.3610794,12.7409683 36.9631292,13.6703189 36.5717395,14.6030298 C36.9034447,14.5099028 37.23659,14.4185358 37.5666951,14.3270089 C36.3578032,17.2566715 35.1821938,20.1962549 34.0280261,23.1409587 C33.5559903,24.3386497 33.0850745,25.5369808 32.6152788,26.7356319 C34.1557158,26.0074166 35.6961529,25.2841616 37.2417104,24.5724275 C37.9414435,22.6354803 38.6461371,20.7001332 39.3609114,18.7697465 C40.0158412,20.0866466 40.6675707,21.4067469 41.3141799,22.7302075 C42.3075354,22.2829735 43.3056912,21.8440601 44.3056072,21.408347 C43.697081,20.0184814 43.0802341,18.631816 42.4584268,17.2451506 C43.5644309,15.5624627 44.6787556,13.8864954 45.8046011,12.2170885 C46.1209452,12.1407627 46.4377693,12.065877 46.7547534,11.9927514 L47.4661674,9.81786616 C46.5491377,9.98587893 45.6305079,10.1554918 44.7152384,10.3350255 L44.7152384,10.3350255 Z M50.6780915,9.31254775 C49.8506687,9.45047824 49.1027718,9.71657846 48.4859249,10.3383857 C47.9802865,10.8870674 47.7116261,11.5371968 47.4860089,12.2321296 C46.8277189,14.3071673 46.1644685,16.3838052 45.5028182,18.460443 C45.2442386,19.2817854 44.8213264,20.776619 46.1329461,20.6652506 C46.5806601,20.591965 47.0018121,20.407471 47.421364,20.2261772 C48.7480248,19.6592541 50.0778859,19.0988915 51.4111072,18.5470096 C51.7509731,17.2451506 52.0892388,15.9399314 52.4225441,14.6329521 C51.7210508,14.8524888 51.0230778,15.0769859 50.3231846,15.3014829 C50.157412,15.8900076 49.9949996,16.4802925 49.8308271,17.0672171 C49.3448702,17.2467508 48.8590733,17.4229241 48.3732764,17.6042179 C48.9883631,15.4976578 49.6036099,13.3926978 50.2138963,11.2843776 C50.644969,11.1912505 51.0744417,11.0998836 51.5072746,11.0101168 C51.4043867,11.3791048 51.3048592,11.7482529 51.2021314,12.119001 C51.8304991,11.9677896 52.460627,11.8181782 53.0891548,11.6751273 C53.3282129,10.7254551 53.566311,9.77546294 53.8037691,8.82531072 C52.7624099,8.97988247 51.7194507,9.14117473 50.6780915,9.31254775 Z" id="Shape" fill="#FEFEFE" fill-rule="nonzero"></path>
                            <path d="M56.2778771,7.38696141 C56.9096051,7.59481721 57.49989,7.80587325 58.0903349,8.02701005 C59.5693273,8.57905201 60.8777467,9.14101472 61.9589489,9.66153428 C58.6191751,21.1555278 51.7791352,30.7940203 42.1267216,37.6542217 L41.3389818,38.2013033 C38.513487,36.0797021 36.8453602,34.4136554 36.8453602,34.4136554 L38.1752213,34.1941188 C42.2112081,33.5191875 46.1014237,31.6852881 49.3183082,28.6773795 C54.8003248,23.5480297 57.025774,16.2273133 55.8964081,9.32886899 C55.868246,9.17269712 55.8367236,9.01636524 55.8119217,8.86003336 L55.7986407,8.79186818 L55.7853597,8.71874262 L55.7687184,8.64225681 L55.7538373,8.57073138 L55.7405563,8.49088531 L55.724075,8.41615963 L55.7058336,8.3329533 L55.6875923,8.25486737 L55.670951,8.17998168 L55.6592701,8.11677688 L55.6360683,8.02877019 L55.6195871,7.94556386 L55.6029458,7.88411919 L55.5914249,7.82251451 L55.5763838,7.76266996 C55.5150991,7.51497114 55.460375,7.30375509 55.4006905,7.09925954 C55.6933527,7.19446678 55.9856949,7.29031406 56.2778771,7.38696141 Z M56.3839652,7.52153164 C56.97425,7.72442706 57.5829363,7.93900336 58.1633004,8.15677992 C57.5728555,7.93068273 56.9792104,7.7210668 56.3839652,7.52153164 Z" id="Shape" fill="#0070B9" fill-rule="nonzero"></path>
                        </g>
                    </g>
                </g>
            </g>
        </g>
    </g>
</svg>