<?xml version="1.0" encoding="UTF-8"?>
<svg width="80px" height="80px" viewBox="0 0 80 80" version="1.1" xmlns="http://www.w3.org/2000/svg" xmlns:xlink="http://www.w3.org/1999/xlink">
    <title>F70F6DF4-0C57-4116-B690-921860087C9F</title>
    <g id="Specifications" stroke="none" stroke-width="1" fill="none" fill-rule="evenodd">
        <g id="Teams" transform="translate(-624.000000, -1597.000000)" fill-rule="nonzero">
            <g id="Group-6-Copy-13" transform="translate(624.000000, 1512.000000)">
                <g id="Group-3" transform="translate(0.000000, 48.000000)">
                    <g id="Group" transform="translate(0.000000, 37.000000)">
                        <rect id="Rectangle" x="0" y="0" width="80" height="80" rx="20"></rect>
                        <g id="Group-15">
                            <path d="M80,40 C80,62.0913436 62.0913431,80 40,80 C17.9086562,80 0,62.0913436 0,40 C0,17.9086568 17.9086562,0 40,0 C50.6092083,-0.00180879914 60.7845674,4.21183893 68.2864647,11.7135352 C75.788362,19.2154324 80.0020097,29.3907916 80,40" id="Path" fill="#FFFFFF"></path>
                            <path d="M78.5277658,40.0000002 C78.5277658,55.5829979 69.1406939,69.63164 54.7440474,75.5949598 C40.3471999,81.5584806 23.7756767,78.2621893 12.7567436,67.2432563 C1.73801157,56.2245242 -1.55827967,39.653001 4.40504009,25.2561535 C10.3683599,10.859306 24.4170019,1.47243514 39.9999996,1.47243514 C61.2781265,1.47243514 78.5277658,18.7218733 78.5277658,40.0000002" id="Path" fill="#006BB6"></path>
                            <path d="M7.41665529,46.5694628 L8.20836027,49.0834981 L10.8751878,49.0834981 L8.7224257,50.6528351 L9.50005771,53.1250535 L7.41665529,51.6112042 L5.30571006,53.1248525 L6.09741504,50.652634 L3.93078106,49.0834981 L6.59720646,49.0834981 L7.41665529,46.5694628 Z M72.5970149,46.5694628 L73.3891219,49.0834981 L76.0694193,49.0834981 L73.9027853,50.6528351 L74.6946913,53.1250535 L72.5970149,51.6112042 L70.4999416,53.1248525 L71.2918476,50.652634 L69.1248115,49.0834981 L71.7779681,49.0834981 L72.5970149,46.5694628 Z M16.7777927,60.0417163 L17.5696987,62.5416786 L20.2361241,62.5416786 L18.0694901,64.1250886 L18.8609941,66.597307 L16.7777927,65.0832567 L14.6668475,66.597307 L15.4583514,64.1250886 L13.2917174,62.5416786 L15.9585449,62.5416786 L16.7777927,60.0417163 Z M64.1114171,60.0417163 L64.9029211,62.5416786 L67.5693465,62.5416786 L65.4165844,64.1250886 L66.2084904,66.597307 L64.1114171,65.0832567 L62.0000698,66.597307 L62.8058478,64.1250886 L60.6392138,62.5416786 L63.2917672,62.5416786 L64.1114171,60.0417163 Z M31.3748785,68.8053557 L32.1531136,71.319391 L34.8334109,71.319391 L32.6667769,72.888728 L33.4582809,75.3609464 L31.3748785,73.8472982 L29.2639332,75.3609464 L30.0554372,72.888728 L27.8888032,71.319391 L30.5556307,71.319391 L31.3748785,68.8053557 Z M49.1110403,68.8053557 L49.9027453,71.319391 L52.5695728,71.319391 L50.4029388,72.888728 L51.1944427,75.3609464 L49.1110403,73.8472982 L47.0000951,75.3609464 L47.791599,72.888728 L45.6251661,71.319391 L48.2917925,71.319391 L49.1110403,68.8053557 Z" id="Shape" fill="#FFFFFF"></path>
                            <path d="M68.888989,40.1805363 C68.888989,56.1354625 55.9549258,69.0695255 39.9999996,69.0695255 C24.0452745,69.0695255 11.1112115,56.1354625 11.1112115,40.1805363 C11.1112115,24.2258112 24.0452745,11.2917478 39.9999996,11.2917478 C47.6621277,11.2905419 55.0108307,14.3339218 60.4289234,19.7518136 C65.8468151,25.1697053 68.889994,32.5184082 68.888989,40.1805363" id="Path" fill="#FFFFFF"></path>
                            <path d="M12.8335418,45.8611904 C15.9740252,60.8625725 30.6776634,70.4806421 45.6806538,67.3471952 C52.9077261,65.8964732 59.2375461,61.576474 63.2222066,55.3751201 C67.2036503,49.1952777 68.6187878,41.7066492 67.1666585,34.5000832 C64.0233606,19.5057377 49.3339963,9.88686388 34.3334185,13.0000055 C27.1238369,14.5050089 20.8076877,18.8131466 16.7753802,24.9763025 C12.7428717,31.1394584 11.3249196,38.652212 12.8335418,45.8611904" id="Path" fill="#006BB6"></path>
                            <path d="M49.4445697,18.5556113 C49.5416731,19.6388277 49.0278087,20.6945014 47.9445923,21.6944863 C42.7361867,17.8750827 37.777878,15.9999602 32.9166727,15.9722164 C31.8981918,15.9728195 30.8813194,16.0516281 29.8751021,16.2084412 C31.4255411,15.5568628 33.0346845,15.0546589 34.6806187,14.7084638 C38.9561875,13.8094022 43.3897756,14.0052175 47.5694472,15.2778159 C48.4723286,16.1527525 49.3472651,17.2916577 49.4445697,18.5556113 L49.4445697,18.5556113 Z M44.0140123,63.3888713 C49.4861854,58.3612029 52.0277635,47.5971916 53.5416128,41.1666493 L53.7778376,40.1666644 C54.5556707,36.888869 55.9305997,34.4443945 57.4167051,32.9860329 C62.9027502,41.5138495 62.166734,50.3195068 60.777732,55.8471676 C55.8523942,62.3665707 48.1568931,66.2016556 39.9861277,66.20829 C41.452732,65.459206 42.8081599,64.5104869 44.0140123,63.3888713 Z M53.9583737,26.861075 C56.1804954,25.0000255 57.9583133,23.5834807 59.2222669,22.6528554 C61.9749395,25.6620581 63.9783271,29.2786099 65.0693842,33.2083858 C64.0416554,31.8334568 62.736086,30.5278874 61.3195413,30.2361749 C60.0972035,29.9860781 58.8473228,30.3332784 57.6666008,31.1668002 C56.5471967,29.6350581 55.3071672,28.1953934 53.9583737,26.861075 Z M14.4861153,39.0138872 C17.0140175,32.2361447 26.2778504,29.4583418 29.7639257,28.4167411 L29.9167179,28.3749243 C31.462533,27.9720353 33.0298595,27.6568008 34.6112591,27.4306281 C39.0973193,26.666667 44.638852,25.7221698 47.9862081,23.2222075 C49.4429613,24.3359824 50.8385977,25.5273597 52.1666838,26.7917154 C44.5972363,33.2222577 32.8889288,44.0276837 20.4027883,57.2916573 C17.4615379,53.9346513 15.4418659,49.8715843 14.5417991,45.5001183 C14.17168,43.7558744 13.9853137,41.9774533 13.9861153,40.1944082 C14.2778304,39.5000078 14.4861153,39.0138872 14.4861153,39.0138872 Z" id="Shape" fill="#FFFFFF"></path>
                            <path d="M53.0834371,26.0140834 C51.7581656,24.7473152 50.3673543,23.5513139 48.9166323,22.4307036 C50.1805859,21.1944938 50.7640109,19.8611806 50.6389626,18.4446359 C50.5525143,17.5982473 50.2565799,16.7866392 49.777898,16.0833928 C52.988143,17.4016279 55.9088871,19.3360579 58.3750742,21.7779189 C57.0695049,22.75016 55.277815,24.1807777 53.0834371,26.0140834 Z M46.9723512,22.4723194 C43.8334762,24.6389533 38.6389426,25.5279628 34.4027781,26.2362352 C32.775943,26.4758778 31.1625777,26.8005612 29.5695177,27.2084763 L29.4167255,27.2500921 C26.0695705,28.250077 17.6529303,30.7639112 14.1807269,36.8333813 C14.688158,32.9407983 16.0697214,29.2134722 18.2222824,25.9306508 C20.0724756,23.0875091 22.4371364,20.6146876 25.1944329,18.6390439 C31.3612076,16.0417771 38.2778704,16.2223131 46.9723512,22.4723194 L46.9723512,22.4723194 Z M61.0694445,31.4168969 C62.8888783,31.791841 64.8333604,34.8472834 65.7639857,36.5973576 C66.5749907,42.2770065 65.4652367,48.0648162 62.6110377,53.041822 C62.749958,52.1666844 62.8611344,51.2362601 62.944366,50.2640191 C63.4604418,43.8931864 61.8432567,37.5316016 58.3473304,32.180657 C59.2916266,31.5140004 60.2361238,31.2500317 61.0694445,31.4166959 L61.0694445,31.4168969 Z M53.0416203,27.6389081 C54.3930274,28.9629733 55.6246131,30.4038442 56.7223046,31.9446332 C54.9444867,33.6390186 53.4306374,36.4445653 52.6111885,39.8890248 L52.3749637,40.9028817 C50.8888583,47.2083756 48.4027679,57.750034 43.2084354,62.5139348 C41.4730373,64.1588637 39.3747578,65.3721546 37.0834775,66.0556988 C33.0364939,65.5977242 29.1541641,64.1942472 25.7501141,61.9584546 C24.1007622,60.8768465 22.5774639,59.6143002 21.2083652,58.1945387 C33.8195541,44.777974 45.5694773,33.9862188 53.0416203,27.6389081 Z" id="Shape" fill="#FFFFFF"></path>
                            <path d="M47.1806312,47.902776 L47.8889035,47.708368 C48.3195364,47.5973926 48.597377,47.4584723 48.597377,46.8334315 C48.597377,46.3195671 48.4584567,45.3889418 47.8334158,45.3889418 C47.1806312,45.3889418 47.1806312,46.5001032 47.1806312,47.0974002 L47.1806312,47.902776 L47.1806312,47.902776 Z M38.7223752,47.51396 C38.7223752,45.2918384 38.6389426,43.3751001 37.1389652,43.3751001 C35.9168284,43.3751001 35.6944755,45.2918384 35.6944755,47.51396 C35.6944755,49.7362828 35.6251159,51.6666919 37.1389652,51.6666919 C38.4029188,51.65282 38.7223752,49.7362828 38.7223752,47.51396 Z" id="Shape" fill="#FFFFFF"></path>
                            <path d="M47.1806312,47.902776 L47.8889035,47.708368 C48.3195364,47.5971916 48.5971759,47.4584723 48.5971759,46.8334315 C48.5971759,46.3195671 48.4582556,45.3889418 47.8334158,45.3889418 C47.1806312,45.3889418 47.1806312,46.5001032 47.1806312,47.0971991 L47.1806312,47.902776 L47.1806312,47.902776 Z M35.5139395,42.416731 L35.5416833,42.416731 C36.2638276,41.2916977 37.6389577,40.7500894 38.9861428,40.7500894 C42.0417863,40.7500894 43.9167077,43.388972 43.9167077,46.930535 C43.9167077,51.1250837 41.0695452,53.625046 37.5555251,53.625046 C32.1527115,53.625046 30.1806866,49.2640342 30.1806866,44.2084208 C30.1806866,38.3890474 32.7083927,33.5833298 39.0000147,33.5833298 C41.4583612,33.5833298 43.472203,35.1667398 43.472203,37.5834705 C43.481853,37.8958904 43.4267674,38.2071041 43.3103638,38.4974093 C43.1937593,38.7877145 43.0184503,39.050678 42.7954943,39.2698142 C42.5723372,39.4889504 42.3063581,39.6596354 42.0140424,39.7710129 C41.7217268,39.8823904 41.409709,39.9318468 41.0972891,39.9167687 C39.4029037,39.9167687 38.8610944,38.5000229 38.6111987,37.2501422 C38.5138942,36.7222049 38.7083022,35.5555558 37.8333657,35.5555558 C36.00006,35.5555558 35.7083475,39.1389356 35.6251159,40.4583769 L35.5139395,42.416731 L35.5139395,42.416731 Z" id="Shape" fill="#FFFFFF"></path>
                            <path d="M38.7221741,47.51396 C38.7221741,45.2918384 38.6389426,43.3751001 37.1389652,43.3751001 C35.9166274,43.3751001 35.6944755,45.2918384 35.6944755,47.51396 C35.6944755,49.7362828 35.6251159,51.6666919 37.1389652,51.6666919 C38.4027177,51.65282 38.7221741,49.7362828 38.7221741,47.51396 Z M5.95849474,33.8056827 C6.98622351,33.9307311 7.40278337,34.6528754 7.24999114,35.9861886 L7.13901573,36.9584297 L7.69449589,37.0277893 C8.40276828,37.1112219 8.66673695,37.09735 8.74996851,36.5277969 L9.40275319,36.6112295 L9.09736978,39.2501121 L8.4445851,39.1666795 C8.5000728,38.5834555 8.23610413,38.5138948 7.52783174,38.4306632 L5.47237421,38.1944384 C4.76390078,38.1112068 4.50013315,38.1250788 4.41670055,38.6944309 L3.76391587,38.6111993 L4.1111161,35.72222 C4.27778025,34.3056752 4.90282108,33.6806344 5.95849474,33.8056827 Z M6.5139749,36.6112295 C6.61127942,35.7362929 6.36118268,35.2640443 5.73614184,35.1944837 C5.19453361,35.125124 4.8057176,35.4723243 4.72228501,36.1251089 C4.6667973,36.5834856 4.83346145,36.6805891 5.33345391,36.7362779 L6.47235912,36.8749971 C6.48623105,36.7917656 6.50010298,36.708333 6.5139749,36.6112295 Z M9.81951409,30.8889596 C10.027794,30.3473513 9.80564217,30.208431 9.15285748,29.9305904 L7.24999114,29.1390865 C6.59720646,28.8612459 6.33343882,28.8057582 6.097214,29.3334945 L5.48624614,29.0833977 L6.5139749,26.6389232 L7.11127188,26.8890199 C6.90279091,27.4306281 7.12514381,27.5695484 7.77792849,27.847389 L8.26404902,28.055669 L9.02780911,26.2223633 L8.54168858,26.0140834 C7.8889039,25.7362428 7.62513626,25.6807551 7.38891144,26.2084914 L6.7918155,25.9583946 L7.81954427,23.51392 L8.43071317,23.7640168 C8.2222322,24.305625 8.4445851,24.4445453 9.09736978,24.7223859 L11.0000351,25.5140909 C11.6528198,25.7917305 11.9167884,25.8474192 12.1528122,25.3194819 L12.7639811,25.5695786 L11.7362524,28.0140532 L11.1389554,27.7639564 C11.3472353,27.2223482 11.1250835,27.0834279 10.4722988,26.8055873 L9.63897801,26.4583871 L8.87501688,28.2916928 L9.70833764,28.638893 C10.3611223,28.9167336 10.625091,28.9722213 10.8611148,28.444485 L11.4584118,28.6945817 L10.430683,31.1390563 L9.81951409,30.8889596 Z M12.3749641,17.9028266 C12.0416358,18.3750752 12.2221719,18.5694832 12.791725,19.000116 L14.4444946,20.2361247 C15.0140477,20.6667575 15.2500715,20.777934 15.6111436,20.3334292 L16.1388799,20.7222452 L14.555671,22.8333915 L14.0279347,22.4445755 C14.361263,21.9723269 14.1807269,21.7779189 13.5973019,21.3472861 L11.9445323,20.1112774 C11.3749792,19.6806445 11.1389554,19.5555962 10.7778832,20.0139728 L10.2501469,19.6251568 L11.8333558,17.5140106 L12.3749641,17.9028266 Z M18.3473307,18.208411 L17.9305698,17.7084186 C18.3612027,17.3196026 18.2222824,17.0972497 17.7639057,16.5556414 L16.4305925,14.9724325 C15.9722158,14.4306232 15.7778078,14.2500872 15.3194311,14.6111593 L14.9028713,14.1111669 L16.9305849,12.4167815 L17.3473458,12.9167815 C16.916713,13.3055899 17.0417614,13.5279428 17.5001381,14.083423 L18.9862435,15.847369 C19.3334437,16.250057 19.486236,16.3196177 19.9027958,15.9724174 C20.458477,15.5001688 20.6945008,14.6668481 20.5000928,13.6111744 L21.0833168,13.4863271 L21.6806138,15.4306081 L18.3473307,18.208411 Z M24.6389527,13.3612787 L24.3611121,12.7639817 C24.8611121,12.4583973 24.8333608,12.125069 24.8194888,11.5418449 L24.6805685,7.44460831 L25.7917299,6.94460831 L28.8471723,9.93069112 C29.1945736,10.2640194 29.3889816,10.4306836 29.8332853,10.2778914 L30.1111259,10.8751883 L27.6943952,11.9722767 L27.4306276,11.3890527 C27.451536,11.385635 27.470836,11.375985 27.4861153,11.3613089 C27.8194436,11.2085166 27.9444919,11.0695963 27.8471874,10.8613164 C27.8138144,10.788137 27.7667705,10.7221951 27.7084682,10.6669084 L27.152787,10.1112272 L25.5973219,10.8194996 L25.6944254,11.5834607 C25.7000546,11.6407578 25.7141275,11.6968486 25.7362422,11.7501249 C25.8472176,11.9863497 26.0695705,12.0002216 26.4445146,11.8335575 L26.7084832,12.4167815 L24.6389527,13.3612787 L24.6389527,13.3612787 Z M26.6111787,9.62510667 L25.4722735,8.4029699 L25.569578,10.1112272 L26.6111787,9.62510667 Z M32.8056972,9.40295482 C33.3750493,9.30565029 33.3889213,9.04188266 33.2918178,8.33340923 L33.0001053,6.29182363 C32.9028007,5.58355124 32.8195692,5.33345449 32.2361441,5.40281412 L32.1388396,4.75002944 L34.8056671,4.37508536 C36.8611246,4.08337283 38.0834624,4.88894974 38.3333581,6.58353616 C38.5695829,8.29179345 37.6250857,9.38908289 35.5694272,9.69466734 L32.9028007,10.0696114 L32.8056972,9.40295482 Z M34.7222345,8.45845761 C34.7917951,8.98619391 34.8888986,9.12511422 35.4443788,9.04188266 C36.5000524,8.88909043 37.0834775,8.05576967 36.8888685,6.77794416 C36.7083324,5.50011865 35.9307004,4.86120589 34.8611548,5.01399811 C34.3056746,5.09743071 34.2638578,5.25022294 34.3334185,5.77795925 L34.7222345,8.45845761 Z M42.1250178,8.62512176 C42.6943699,8.69448139 42.7916744,8.44458568 42.888979,7.73631329 L43.1804905,5.69452665 C43.277795,4.98625426 43.277795,4.72228559 42.7084429,4.62518211 L42.8055464,3.97239742 L47.208375,4.61131018 L47.6944955,6.31956748 L47.1667592,6.50010356 C46.7361264,5.61129509 46.1249575,5.09743071 45.3055087,4.98625426 C44.7777723,4.90282167 44.6806689,5.05561389 44.6111082,5.56947827 L44.5001328,6.33343941 L44.7500285,6.37505518 C45.3055087,6.45848778 45.4721728,6.30569555 45.5972212,5.65291087 L46.1529024,5.73614243 L45.8057022,8.1251293 L45.250021,8.04189775 C45.2638929,7.41685692 45.0833568,7.09740054 44.652724,7.04191283 L44.4028283,7.00009601 L44.2222922,8.23630575 C44.1527315,8.75017013 44.1945483,8.91683429 44.7361566,8.98619391 C45.5139896,9.09737036 46.4305419,8.72242628 47.1528873,7.86116063 L47.6110629,8.2085619 L46.5417184,9.9168192 L42.0279144,9.25016259 L42.1250178,8.62512176 Z M50.4304816,10.9722918 L50.6944503,10.3751959 C51.2360585,10.5973477 51.3749788,10.3751959 51.6666913,9.70853927 L52.5000121,7.81954485 C52.7917246,7.16676017 52.8610842,6.91686446 52.3333479,6.66676771 L52.5973166,6.06967177 L55.0138463,7.12514439 L54.7500787,7.72244137 C54.2082694,7.50008847 54.0695501,7.72244137 53.7778376,8.37522605 L52.8472123,10.4861713 C52.6389324,10.9722918 52.6528043,11.138956 53.1527968,11.3613089 C53.8194534,11.6528203 54.680518,11.5000281 55.5277107,10.8474445 L55.9028558,11.3056201 L54.4306223,12.708494 L50.4304816,10.9722918 Z M64.0277835,14.9028718 C63.3749988,15.7084487 62.541678,15.6807049 61.4862054,14.8335122 L60.7222443,14.2223433 L60.3750441,14.6529761 C59.9305393,15.2084563 59.791619,15.4444801 60.2361238,15.8196252 L59.8193629,16.3334896 L57.7639053,14.6668481 L58.1804652,14.1529837 C58.6388419,14.5001839 58.8471218,14.3335198 59.2916266,13.7778385 L60.583324,12.1668858 C61.0278287,11.6112046 61.1528771,11.3751808 60.7222443,11.0002367 L61.1388042,10.4861713 L63.4027427,12.319477 C64.5000321,13.1946145 64.6944401,14.0695511 64.0277835,14.9028718 Z M61.3472851,13.8612711 C62.0278137,14.4167513 62.5694219,14.4444952 62.9582379,13.9583746 C63.3056392,13.5279428 63.2222066,13.0279504 62.7083422,12.6111895 C62.34727,12.319477 62.1806059,12.4029096 61.8611495,12.7917256 L61.1388042,13.6807351 C61.2222368,13.7500947 61.2915964,13.8055824 61.3472851,13.8612711 L61.3472851,13.8612711 Z M64.4304714,19.7222603 C64.7776716,20.1945089 65.0138965,20.0835335 65.5971205,19.6667726 L67.2917069,18.4862516 C67.8749309,18.0833627 68.06954,17.8889546 67.7500836,17.4028341 L68.2916918,17.02789 L69.8055411,19.194524 L69.2778048,19.5696691 C68.9306046,19.0974205 68.6943797,19.2083959 68.1111557,19.6251568 L67.6805229,19.9307413 L68.8194281,21.555767 L69.2500609,21.2501826 C69.833285,20.8472936 70.027693,20.6528856 69.7082366,20.1667651 L70.2361739,19.791821 L71.7500232,21.958455 L71.208415,22.3333991 C70.8612148,21.8611504 70.6249899,21.9723269 70.0417659,22.3890878 L68.3471795,23.5696088 C67.7639555,23.9722967 67.5693465,24.1667047 67.8888028,24.6528253 L67.3471946,25.0279704 L65.8333453,22.8611354 L66.3610816,22.4861913 C66.7082818,22.9584399 66.9445067,22.8472634 67.5277307,22.4307036 L68.263948,21.9168392 L67.1250427,20.2918135 L66.3888255,20.8056778 C65.8056015,21.2083658 65.6111935,21.4029748 65.9306498,21.8888943 L65.4027125,22.2640394 L63.8888632,20.0974054 L64.4304714,19.7222603 Z M74.0555775,28.8196301 C73.8332246,28.2778208 73.569457,28.3335096 72.9028004,28.5834053 L70.9721902,29.3196226 C70.3055336,29.5695183 70.0833817,29.7084386 70.2639178,30.2639187 L69.6527489,30.5001436 L68.7082517,28.0279251 L69.3194206,27.7917003 C69.5415724,28.3335096 69.8055411,28.2639489 70.4721977,28.0140532 L72.4028079,27.2778359 C73.0694645,27.0279402 73.3054883,26.8890199 73.1110803,26.3474117 L73.7222492,26.1111868 L74.6667464,28.5834053 L74.0555775,28.8196301 Z M70.5972461,33.4027938 L71.2500308,33.3195622 C71.3889511,33.8889143 71.7222794,33.958475 72.2777595,34.1112672 L76.2360834,35.1806117 L76.3888756,36.3890776 L72.6388317,38.4306632 C72.2083999,38.666687 71.9999189,38.7917354 72.0137909,39.2778559 L71.3610062,39.3612885 L71.0138059,36.7362779 L71.6527187,36.6528453 L71.6527187,36.708534 C71.6945355,37.0696062 71.8055109,37.2362703 72.0278638,37.2085265 C72.1102912,37.1932472 72.190105,37.1651013 72.2638876,37.1250939 L72.9582881,36.7501498 L72.7361362,35.0557644 L71.9721751,34.9168441 C71.9126665,34.9051836 71.8521528,34.9005597 71.791639,34.9029722 C71.5417433,34.930716 71.4583107,35.1528679 71.4999265,35.5557569 L70.8612148,35.6389884 L70.5972461,33.4027938 Z M73.5972008,36.3750047 L75.0971782,35.6389884 L73.4444086,35.2363005 L73.5972008,36.3750047 L73.5972008,36.3750047 Z M56.2361841,43.5556362 C55.9722154,43.5558372 55.7114634,43.6129332 55.4718209,43.7233055 C55.2321784,43.8334768 55.0190734,43.9943107 54.8471821,44.1945489 C54.8055664,44.1111163 54.7778225,44.0278848 54.7362067,43.9583241 L54.4444942,43.388972 L50.2917623,44.6111088 L50.2917623,46.8889192 L51.0555224,46.8889192 C51.1250831,46.8889192 51.1666989,46.9027911 51.1805708,46.8889192 C51.2790816,47.2029474 51.3120525,47.5338632 51.2778753,47.8611603 L51.2778753,50.5000429 L50.5139142,50.6112193 L50.5139142,53.1111816 L56.263928,53.1111816 L56.263928,50.6112193 L55.5138388,50.5000429 L55.5138388,49.7222098 C55.5315305,49.1200878 55.6012922,48.5207804 55.7223197,47.9305199 C55.9649779,48.0065139 56.2178893,48.0441089 56.4722079,48.0416963 C57.4999367,48.0416963 58.222282,47.1110711 58.222282,45.7916298 C58.2361539,44.4583166 57.430577,43.5556362 56.2361841,43.5556362 L56.2361841,43.5556362 Z" id="Shape" fill="#FFFFFF"></path>
                            <path d="M63.4443584,46.2083907 C63.4027427,46.0921882 63.3794217,45.9705575 63.3749988,45.8473185 C63.3749988,45.1665889 63.0971582,43.58338 60.583324,43.58338 C59.1945231,43.58338 56.458336,44.6527246 56.458336,47.1388149 C56.435015,47.8893062 56.6704357,48.6247193 57.1249926,49.2222173 C56.8385072,49.4057691 56.605298,49.661495 56.4492891,49.9640638 C56.2932802,50.2664316 56.2196986,50.6045849 56.2361841,50.9443466 C56.2361841,51.8333561 56.6804878,53.3333334 59.6945155,53.3333334 C62.2777094,53.3333334 63.7499429,52.0000202 63.7499429,49.6667221 C63.7638148,47.4443994 63.5694068,46.7083831 63.4443584,46.2083907 Z M33.055593,32.8473136 C32.9781916,32.7568445 32.8824954,32.6840672 32.7745357,32.6338066 C32.6667769,32.583546 32.5495692,32.5568073 32.4305521,32.5556011 C32.055608,32.5556011 31.7500236,32.7916249 31.3889514,33.1806419 C30.7715502,33.825787 30.0268892,34.3354295 29.2020122,34.6774026 C28.3769341,35.0193757 27.4899351,35.1860399 26.5973068,35.1667398 C24.0973445,35.1667398 21.4584619,34.0139627 19.3611876,32.0139928 C19.2807706,31.934179 19.1852755,31.8710517 19.0805324,31.8280286 C18.9755883,31.7852066 18.8634066,31.763293 18.7500187,31.763884 C17.7222899,31.763884 17.4583212,33.4027938 17.4583212,33.4305376 L17.4583212,41.6666417 L18.1111059,41.7639463 C20.2984473,42.1406997 22.539869,42.0604838 24.6944405,41.5277214 C22.5832942,43.4167159 17.8334664,48.5555607 17.902826,53.4445099 C17.9166979,54.3471903 18.4721781,54.4444948 18.7084029,54.4444948 C18.9430194,54.440675 19.1669806,54.3461851 19.3334437,54.1805261 C19.3750595,54.1527823 19.4166753,54.1111665 19.4582911,54.0834226 C20.3597652,53.5205039 21.4106138,53.2444727 22.4723188,53.2917177 C23.4328994,53.2782478 24.3852372,53.4724548 25.2639936,53.8610697 C25.4216108,53.9481211 25.597724,53.9957682 25.777858,53.99999 C25.8922511,54.0005932 26.00584,53.9774733 26.1109852,53.9320377 C26.2161304,53.8866021 26.3108214,53.8200571 26.3888258,53.7360214 C26.4873366,53.6125813 26.5570983,53.468836 26.5930849,53.3150386 C26.6290715,53.1614422 26.6304788,53.0016135 26.5973068,52.8472129 C26.2501066,49.291577 27.0277386,45.4166857 28.5415879,43.180491 L28.7639408,42.8471627 C30.0556382,40.9444974 32.7361366,36.9723016 33.236129,33.6945063 C33.2719146,33.5487506 33.274126,33.3969635 33.2429645,33.2502026 C33.2116019,33.1034416 33.1476704,32.9657276 33.055593,32.8473136 Z M52.1805557,48.5833046 L52.1389399,47.9582637 C52.1170263,47.5644217 52.0565126,47.1737963 51.9584039,46.7916147 L51.93066,46.0694704 L51.7917397,46.2777503 C51.257369,44.6400589 49.7226113,43.5381455 48.00008,43.5556362 C45.3334536,43.5556362 43.472203,45.6665814 43.472203,48.6806091 C43.472203,51.0000353 44.8332601,53.3333334 47.8472878,53.3333334 C49.5356419,53.3564533 51.1122164,52.4917699 52.0000196,51.055523 L52.1111961,50.861115 L52.0277635,48.6249204 L52.1805557,48.5833046 L52.1805557,48.5833046 Z M48.9443762,50.0277942 C48.8153069,50.0239744 48.6896554,49.9843691 48.5816957,49.9132001 C48.4737359,49.8420311 48.3876897,49.742314 48.3334083,49.6249053 L49.8056418,49.2222173 C49.5778608,49.547906 49.2845399,49.8223289 48.9443762,50.0277942 L48.9443762,50.0277942 Z" id="Shape" fill="#FFFFFF"></path>
                            <path d="M42.2500662,41.2916977 C42.097274,41.0834177 41.9306098,40.833321 41.7916895,40.6250411 C43.2522626,40.3713255 44.3017039,39.0788239 44.250036,37.5973425 C44.250036,34.8750273 42.0001705,32.8334417 39.0138867,32.8334417 C33.0139772,32.8334417 29.4167255,37.09735 29.4167255,44.2222928 C29.4167255,50.6944509 32.3889363,54.402879 37.5557261,54.402879 C41.7500738,54.402879 44.6807662,51.3333636 44.6807662,46.9444069 C44.6945408,44.7500291 43.2223073,42.6666267 42.2500662,41.2916977 Z" id="Path" fill="#FFFFFF"></path>
                            <path d="M48.9584491,50.8056273 C48.0278238,50.8056273 47.4723437,49.9584346 47.3889111,49.097169 L51.3888507,48.0139525 C51.2778753,46.0555984 50.1389701,44.3334692 48.0139519,44.3334692 C45.7500134,44.3334692 44.250036,46.0972142 44.250036,48.694481 C44.250036,50.7221947 45.4166851,52.5693723 47.8611597,52.5693723 C49.2787097,52.5995287 50.6057906,51.8751729 51.347235,50.666707 L50.55553,49.7222098 C50.1805859,50.3333787 49.7222092,50.8056273 48.9584491,50.8056273 Z M47.1945031,47.1110711 C47.1945031,46.5139751 47.1945031,45.4028138 47.8472878,45.4028138 C48.4582556,45.4028138 48.6110478,46.333439 48.6110478,46.8473034 C48.6245177,46.9516444 48.616677,47.0575938 48.588129,47.1589192 C48.55938,47.2600435 48.5103256,47.3545334 48.4441827,47.4363577 C48.3780397,47.5181819 48.2958134,47.5855311 48.2027307,47.6347865 C48.1096481,47.6838409 48.0077196,47.7135951 47.9027755,47.72224 L47.1945031,47.916648 L47.1945031,47.1110711 Z" id="Shape" fill="#006BB6"></path>
                            <path d="M55.5277107,52.3472204 L51.3056192,52.3472204 L51.3056192,51.2778759 L52.0693793,51.1666995 L52.0693793,47.8611603 C52.0693793,46.6806393 51.916587,46.1110861 51.0693944,46.1110861 L51.0693944,45.1806619 L54.0695501,44.3055243 C54.38197,44.9910789 54.5520519,45.7329254 54.5695426,46.4862313 L54.5972864,46.4862313 C54.9028709,45.5833498 55.277815,44.3193963 56.250056,44.3193963 C57.1111206,44.3193963 57.4860647,44.9860529 57.4860647,45.7916298 C57.4860647,46.6110786 57.1249926,47.2777352 56.4999517,47.2777352 C56.1543599,47.2552185 55.8156034,47.1705796 55.4999668,47.0278395 C54.9583586,46.8473034 54.7778225,49.2222173 54.7778225,49.7222098 L54.7778225,51.1666995 L55.5277107,51.2778759 L55.5277107,52.3472204 L55.5277107,52.3472204 L55.5277107,52.3472204 Z" id="Path" fill="#006BB6"></path>
                            <path d="M62.6249096,45.8611904 C62.6249096,46.5139751 62.0555575,46.8473034 61.4584616,46.8473034 C60.7471736,46.8076981 60.1673673,46.2628732 60.0833315,45.555606 C59.7777471,45.555606 59.5555952,45.7083982 59.5555952,46.2361345 C59.5555952,47.4584723 63.0139266,46.5833348 63.0139266,49.680594 C63.0139266,52.0000202 61.3334132,52.5834453 59.7222594,52.5834453 C58.7361464,52.5834453 57.0278891,52.4583969 57.0278891,50.9584195 C57.0278891,50.277891 57.4028332,49.7638256 58.0833617,49.7638256 C59.1249624,49.7638256 59.3054985,50.7221947 59.4862356,51.4027232 C59.5099586,51.4730881 59.5580077,51.5323956 59.6215371,51.5705936 C59.6850665,51.6087917 59.7602564,51.6230657 59.8334358,51.6112042 C60.388916,51.6112042 60.7916039,51.3888513 60.7916039,51.0139072 C60.7916039,49.6251063 57.250041,50.1667145 57.250041,47.139016 C57.250041,45.2222777 59.5139795,44.3612131 60.6110678,44.3612131 C61.8472776,44.3612131 62.6249096,44.7777729 62.6249096,45.8611904 Z M39.0138867,40.7639614 C37.6667015,40.7639614 36.2917725,41.3055696 35.5694272,42.4306029 L35.5416833,42.4306029 L35.6806036,40.4861208 C35.7640362,39.1666795 36.0555477,35.5832997 37.8888534,35.5832997 C38.7639909,35.5832997 38.5695829,36.7499487 38.6666864,37.2778861 C38.9029112,38.5138948 39.4445195,39.9445125 41.1527768,39.9445125 C41.4649956,39.9585855 41.7766114,39.9081238 42.0683239,39.7965453 C42.3600364,39.6847657 42.6256134,39.5140807 42.8485694,39.2951456 C43.0713244,39.0762104 43.2466334,38.813649 43.3636401,38.5239469 C43.4804457,38.2342448 43.5363355,37.9234332 43.5278917,37.6112144 C43.5278917,35.1944837 41.5138489,33.6112747 39.0557035,33.6112747 C32.7638804,33.6112747 30.2361743,38.4167913 30.2361743,44.2361647 C30.2361743,49.291778 32.1945283,53.6527898 37.6112138,53.6527898 C41.1250329,53.6527898 43.9721954,51.1528275 43.9721954,46.9584799 C43.9444516,43.4028439 42.0695301,40.7639614 39.0138867,40.7639614 L39.0138867,40.7639614 Z M37.1389652,51.6666919 C35.6389878,51.6666919 35.6944755,49.7360817 35.6944755,47.51396 C35.6944755,45.2916373 35.9027555,43.3751001 37.1389652,43.3751001 C38.6528145,43.3751001 38.7221741,45.2916373 38.7221741,47.51396 C38.7362471,49.7360817 38.4167907,51.6666919 37.1389652,51.6666919 Z" id="Shape" fill="#006BB6"></path>
                            <path d="M18.2222824,33.5000983 L18.2222824,40.9999851 C22.4168311,41.625026 27.4306276,41.2084661 30.9862635,36.0278044 C31.1390557,35.8056526 31.2222824,35.9584448 31.1249828,36.1528528 C30.1388698,38.1666945 27.7916997,40.0279451 25.763986,41.625026 C23.8195039,43.1529482 18.5972265,48.6251214 18.6667871,53.4445099 C18.6667871,53.819454 18.6806591,53.7084786 19.0139874,53.4722537 C20.5973973,52.2917327 23.6944555,52.2639889 25.5973219,53.1666693 C25.8612906,53.2917177 25.8890344,53.2501019 25.8472176,52.9167736 C25.4861454,49.1806016 26.3194662,45.1111012 27.9167481,42.7361873 C29.0140375,41.0972897 31.9862484,36.8749971 32.5001128,33.5694579 C32.5556005,33.2222577 32.3750644,33.2779464 31.9444316,33.7361221 C28.5834047,37.291758 22.5139345,37.1944535 18.5833545,33.4446106 C18.3473307,33.1806419 18.2361543,33.2918184 18.2222824,33.5000983" id="Path" fill="#ED174C"></path>
                            <path d="M25.503234,36.1976853 C29.4764351,36.1976853 32.6973354,32.9767849 32.6973354,29.0035839 C32.6973354,25.0303829 29.4764351,21.8094826 25.503234,21.8094826 C21.530033,21.8094826 18.3091327,25.0303829 18.3091327,29.0035839 C18.3091327,32.9767849 21.530033,36.1976853 25.503234,36.1976853 Z" id="Path" fill="#FFFFFF"></path>
                            <path d="M25.5000174,22.0696314 L25.7360411,22.8335926 L26.555691,22.8335926 L25.8888334,23.3056401 L26.1248572,24.0557293 L25.5000174,23.5973526 L24.8474337,24.0557293 L25.0973294,23.3056401 L24.4304718,22.8335926 L25.2501217,22.8335926 L25.5000174,22.0696314 Z M30.2777901,24.8611052 L30.5276858,25.6111944 L31.3473357,25.6111944 L30.680478,26.0973149 L30.9165018,26.8474041 L30.2777901,26.3890275 L29.6388773,26.8474041 L29.8889741,26.0973149 L29.2225185,25.6113954 L30.0417663,25.6113954 L30.2777901,24.8611052 Z M28.2225336,22.7083431 L28.4724293,23.4584323 L29.291476,23.4584323 L28.6252215,23.9445529 L28.8612453,24.6946421 L28.2362045,24.2362654 L27.5970907,24.6946421 L27.8335165,23.9445529 L27.1668599,23.4584323 L27.9863088,23.4584323 L28.2225336,22.7083431 Z M31.069294,27.4861158 L31.3057199,28.250077 L32.1249677,28.250077 L31.4585121,28.7361975 L31.7084078,29.4862867 L31.069294,29.02791 L30.4305823,29.4862867 L30.6666061,28.7361975 L30.0140224,28.250077 L30.8193983,28.250077 L31.069294,27.4861158 Z M30.7222948,30.2777907 L30.9721905,31.0417518 L31.7779685,31.0417518 L31.1249828,31.5276713 L31.3610065,32.2777605 L30.7222948,31.8057129 L30.0835831,32.2777605 L30.3196069,31.5140004 L29.6666212,31.0417518 L30.486271,31.0417518 L30.7222948,30.2777907 Z M29.1807017,32.5001134 L29.4167255,33.2640745 L30.2363753,33.2640745 L29.5833896,33.749994 L29.8194134,34.5000832 L29.1943726,34.0417065 L28.5417889,34.5000832 L28.7916846,33.749994 L28.125028,33.2640745 L28.9444769,33.2640745 L29.1807017,32.5001134 Z M26.763971,33.749994 L27.0138667,34.5139551 L27.8194436,34.5139551 L27.152988,34.9998746 L27.4028837,35.7499638 L26.763971,35.2917882 L26.1248572,35.7501649 L26.361082,34.9998746 L25.7084983,34.5139551 L26.5138742,34.5139551 L26.763971,33.749994 Z M20.6249401,24.6112095 L20.3750444,25.3751706 L19.5696686,25.3751706 L20.2222522,25.8474192 L19.9862284,26.5975084 L20.6112692,26.1391317 L21.2638529,26.5975084 L21.0139572,25.8474192 L21.6806138,25.3751706 L20.861165,25.3751706 L20.6249401,24.6112095 Z M22.625111,22.7083431 L22.3752153,23.4584323 L21.5694373,23.4584323 L22.2224231,23.9445529 L21.9861982,24.6946421 L22.625111,24.2362654 L23.2638227,24.6946421 L23.0277989,23.9445529 L23.6807847,23.4584323 L22.8750067,23.4584323 L22.625111,22.7083431 Z M19.680644,27.1529886 L19.4446202,27.9169497 L18.6249703,27.9169497 L19.291828,28.3889973 L19.0556031,29.1529584 L19.680644,28.6809108 L20.3193557,29.1529584 L20.0833319,28.3889973 L20.7501895,27.9169497 L19.9444116,27.9169497 L19.680644,27.1529886 Z M19.9444116,29.9307915 L19.6945159,30.6947526 L18.8752681,30.6947526 L19.5417237,31.1806721 L19.3054988,31.9307613 L19.9305397,31.4723846 L20.5692514,31.9307613 L20.3332276,31.1806721 L20.9862133,30.6947526 L20.1804354,30.6947526 L19.9444116,29.9307915 Z M21.4723339,32.2084008 L21.236109,32.972362 L20.4166602,32.972362 L21.0833168,33.4582815 L20.8334211,34.2083707 L21.4723339,33.7361221 L22.1253196,34.2083707 L21.8750218,33.4582815 L22.5280075,32.972362 L21.7222296,32.972362 L21.4723339,32.2084008 Z M23.8888635,33.6528905 L23.6526387,34.4168516 L22.8333909,34.4168516 L23.4998465,34.9027711 L23.2638227,35.6528603 L23.8888635,35.1944837 L24.5418493,35.6528603 L24.2919536,34.8891003 L24.9582081,34.4168516 L24.1391613,34.4168516 L23.8888635,33.6528905 Z" id="Shape" fill="#006BB6"></path>
                        </g>
                    </g>
                </g>
            </g>
        </g>
    </g>
</svg>