<?xml version="1.0" encoding="UTF-8"?>
<svg width="80px" height="80px" viewBox="0 0 80 80" version="1.1" xmlns="http://www.w3.org/2000/svg" xmlns:xlink="http://www.w3.org/1999/xlink">
    <title>934F1A3C-8A71-4723-9CE3-F056CCF2747F</title>
    <defs>
        <polygon id="path-1" points="80 54.8148148 80 0 0 0 0 54.8148148"></polygon>
    </defs>
    <g id="Specifications" stroke="none" stroke-width="1" fill="none" fill-rule="evenodd">
        <g id="Teams" transform="translate(-624.000000, -2797.000000)">
            <g id="Group-6-Copy-24" transform="translate(624.000000, 2712.000000)">
                <g id="Group-3" transform="translate(0.000000, 48.000000)">
                    <g id="Assets-exportable/Logos/Club-logos/West-Conference/Utah-Jazz/transparent" transform="translate(0.000000, 37.000000)">
                        <g id="Group-2" transform="translate(0.000000, 12.000000)">
                            <g id="Clipped">
                                <mask id="mask-2" fill="white">
                                    <use xlink:href="#path-1"></use>
                                </mask>
                                <g id="Path"></g>
                                <path d="M41.4484298,1.48064684 L78.5186854,1.48064684 L71.802024,16.8847157 L40.4911007,16.8847157 C39.1316432,19.9947418 32.3996244,35.437037 31.62024,37.2278352 L31.62024,37.9469588 C31.62024,44.4275848 26.1500261,52.8217006 16.4330099,52.8217006 C8.06393323,52.8217006 1.2532916,45.9978717 1.2532916,37.6191132 C1.2532916,29.2345123 8.06393323,22.4181951 16.4330099,22.4181951 C21.7176004,22.4181951 26.6670005,25.2713198 29.2480334,29.449181 L41.4484298,1.48064684 Z" id="Path" stroke="#FFFFFF" fill="#FEFEFE" fill-rule="nonzero" mask="url(#mask-2)"></path>
                            </g>
                            <path d="M2.16204486,38.296505 C2.33815336,42.0658946 3.96953573,45.442337 6.49498174,47.9023474 C9.18318206,45.5247992 10.9427647,42.1158059 11.1303912,38.296505 L2.16204486,38.296505 Z" id="Path" fill="#0B223E" fill-rule="nonzero"></path>
                            <path d="M12.3898592,38.296505 C12.2022327,42.437976 10.3276369,46.1441002 7.44229525,48.7421596 C9.74172144,50.6135837 12.638748,51.7907564 15.8113719,51.9288054 L15.8113719,38.296505 L12.3898592,38.296505 Z" id="Path" fill="#F9A11A" fill-rule="nonzero"></path>
                            <path d="M2.15653625,37.0437141 L11.1343975,37.0437141 C10.9736463,33.1801774 9.21206051,29.7269484 6.49514867,27.3360459 C3.94666667,29.8170892 2.30960876,33.2376004 2.15653625,37.0437141 Z" id="Path" fill="#0B223E" fill-rule="nonzero"></path>
                            <path d="M7.44246218,26.4964006 C10.3546792,29.1136568 12.2311111,32.8581742 12.3900261,37.0438811 L15.8115389,37.0438811 L15.8115389,23.3040793 C12.638915,23.4421283 9.7457277,24.619301 7.44246218,26.4964006" id="Path" fill="#F9A11A" fill-rule="nonzero"></path>
                            <path d="M30.7113198,38.296505 L21.7448096,38.296505 C21.9324361,42.1158059 23.6901826,45.5247992 26.3783829,47.9023474 C28.9076682,45.442337 30.5352113,42.0658946 30.7113198,38.296505 Z" id="Path" fill="#0B223E" fill-rule="nonzero"></path>
                            <path d="M20.4880125,38.296505 L17.0644966,38.296505 L17.0644966,51.9288054 C20.2352843,51.7907564 23.1303078,50.6135837 25.4355764,48.7421596 C22.5500678,46.1441002 20.6736359,42.437976 20.4880125,38.296505 L20.4880125,38.296505 Z M25.4355764,26.4964006 C23.1303078,24.619301 20.2352843,23.4421283 17.0644966,23.3040793 L17.0644966,37.0438811 L20.4841732,37.0438811 C20.6430882,32.8581742 22.5251956,29.1136568 25.4355764,26.4964006" id="Shape" fill="#2B5134" fill-rule="nonzero"></path>
                            <path d="M42.0395201,2.38539384 L29.3451852,31.500386 C28.6041941,29.9357746 27.6007929,28.5265728 26.3792175,27.3377152 C23.6643088,29.7287846 21.9008868,33.1818466 21.7419718,37.0453834 L30.7159937,37.0453834 L39.8950026,15.9813041 L66.7122379,15.9813041 L72.6381638,2.38539384 L42.0395201,2.38539384 L42.0395201,2.38539384 Z" id="Path" fill="#0B223E" fill-rule="nonzero"></path>
                            <polygon id="Path" fill="#2B5134" fill-rule="nonzero" points="71.2112676 15.9799687 77.1391967 2.38405842 74.6117475 2.38405842 68.6858216 15.9799687"></polygon>
                        </g>
                    </g>
                </g>
            </g>
        </g>
    </g>
</svg>