<?xml version="1.0" encoding="UTF-8"?>
<svg width="80px" height="80px" viewBox="0 0 80 80" version="1.1" xmlns="http://www.w3.org/2000/svg" xmlns:xlink="http://www.w3.org/1999/xlink">
    <title>BD998E6F-E04D-4CAF-BD85-5D2CD8CF1884</title>
    <defs>
        <polygon id="path-1" points="0 80 80 80 80 0 0 0"></polygon>
    </defs>
    <g id="Specifications" stroke="none" stroke-width="1" fill="none" fill-rule="evenodd">
        <g id="Teams" transform="translate(-48.000000, -2599.000000)">
            <g id="Group-6-Copy-14" transform="translate(48.000000, 2514.000000)">
                <g id="Group-3" transform="translate(0.000000, 48.000000)">
                    <g id="Group-2" transform="translate(0.000000, 37.000000)">
                        <path d="M0,40 C0,17.9085633 17.9085633,0 40,0 C62.0914367,0 80,17.9085633 80,40 C80,62.0914367 62.0914367,80 40,80 C17.9085633,80 0,62.0914367 0,40 Z" id="Path" fill="#FFFFFF" fill-rule="nonzero"></path>
                        <path d="M67.490484,61.1296462 C63.132891,55.4780872 60.6576949,48.759906 60.3199035,41.6667013 L74.6504566,41.6667013 C74.3116251,48.765522 71.8405891,55.4855752 67.490484,61.1296462 L67.490484,61.1296462 Z M41.6667013,74.6496246 L41.6667013,64.7124405 L38.3328827,64.7124405 L38.3328827,74.6496246 C29.3059051,74.2201052 20.9345425,70.3492314 14.7182645,63.727978 C19.7982403,57.3841962 22.6642677,49.7639204 23.0153712,41.6667013 L23.0153712,38.3328827 C22.6642677,30.2356636 19.7982403,22.6153878 14.7182645,16.271606 C20.9345425,9.65056056 29.3059051,5.77864675 38.3328827,5.35016744 L38.3328827,15.1983277 L41.6667013,15.1983277 L41.6667013,5.35016744 C50.6936789,5.77864675 59.0658735,9.65056056 65.2821515,16.271814 C60.2013437,22.6153878 57.3361483,30.2358716 56.9850448,38.3328827 L56.9850448,41.6667013 C57.3361483,49.7639204 60.2013437,57.3841962 65.2821515,63.727978 C59.0658735,70.3492314 50.6936789,74.2201052 41.6667013,74.6496246 Z M12.51014,61.1296462 C8.15899495,55.4855752 5.6879589,48.765522 5.35016744,41.6667013 L19.6807205,41.6667013 C19.3427211,48.759906 16.866901,55.4789192 12.51014,61.1296462 L12.51014,61.1296462 Z M12.51014,18.8701458 C16.867525,24.5214968 19.3427211,31.240718 19.6807205,38.3328827 L5.35016744,38.3328827 C5.6879589,31.234062 8.15899495,24.5150488 12.51014,18.8701458 L12.51014,18.8701458 Z M67.490484,18.8701458 C71.8405891,24.5142168 74.3116251,31.23323 74.6504566,38.3328827 L60.3196955,38.3328827 C60.6576949,31.240718 63.132891,24.5214968 67.490484,18.8701458 L67.490484,18.8701458 Z M39.999792,1.96975685 C19.0300976,1.96975685 1.96975685,19.0300976 1.96975685,39.999792 C1.96975685,60.9703184 19.0300976,78.0300352 39.999792,78.0300352 C60.9703184,78.0300352 78.0300352,60.9703184 78.0300352,39.999792 C78.0300352,19.0300976 60.9703184,1.96975685 39.999792,1.96975685 Z" id="Shape" fill="#061922" fill-rule="nonzero"></path>
                        <polygon id="Path" fill="#C8102E" fill-rule="nonzero" points="31.863053 24.1358654 31.863053 55.8639266 48.8148179 55.8639266 48.8148179 51.5015496 36.4001498 51.5015496 36.4001498 24.1358654"></polygon>
                        <path d="M54.5774487,34.7656884 L54.5774487,21.6922853 C54.5774487,19.7329284 53.7889219,18.9337937 51.854941,18.9337937 L28.780706,18.9337937 C26.872101,18.9337937 26.0925183,19.7329284 26.0925183,21.6922853 L26.0925183,58.4366745 C26.0925183,60.3949914 26.872101,61.1941261 28.780706,61.1941261 L51.854941,61.1941261 C53.7889219,61.1941261 54.5774487,60.3949914 54.5774487,58.4366745 L54.5774487,45.3485034 L50.0052,45.3485034 L50.0052,57.1820205 L30.630655,57.1820205 L30.630655,22.9461073 L50.0052,22.9461073 L50.0052,34.7656884 L54.5774487,34.7656884 Z" id="Path" fill="#1D428A" fill-rule="nonzero"></path>
                        <g id="Clipped">
                            <mask id="mask-2" fill="white">
                                <use xlink:href="#path-1"></use>
                            </mask>
                            <g id="Path"></g>
                            <path d="M42.1763005,37.7796036 L44.386089,37.7796036 L44.386089,28.4980344 L42.1763005,28.4980344 L42.1763005,37.7796036 Z M48.8073299,50.2743516 L48.8146099,24.1356574 L37.7999875,24.1356574 L37.6930757,50.2743516 L42.1037086,50.2743516 L42.1746365,42.1257566 L44.4170809,42.1257566 L44.385257,50.2743516 L48.8073299,50.2743516 L48.8073299,50.2743516 Z" id="Shape" fill="#C8102E" fill-rule="nonzero" mask="url(#mask-2)"></path>
                        </g>
                    </g>
                </g>
            </g>
        </g>
    </g>
</svg>