<?xml version="1.0" encoding="UTF-8"?>
<svg width="80px" height="80px" viewBox="0 0 80 80" version="1.1" xmlns="http://www.w3.org/2000/svg" xmlns:xlink="http://www.w3.org/1999/xlink">
    <title>58965BBE-B037-494E-AAAC-9348C5298FBB</title>
    <g id="Specifications" stroke="none" stroke-width="1" fill="none" fill-rule="evenodd">
        <g id="Teams" transform="translate(-624.000000, -197.000000)" fill-rule="nonzero">
            <g id="Group-6" transform="translate(624.000000, 112.000000)">
                <g id="Group-3" transform="translate(0.000000, 48.000000)">
                    <g id="Assets-exportable/Logos/Club-logos/Eastern-Conference/Miami-Heat/transparent" transform="translate(-0.000000, 37.000000)">
                        <g id="Group-27" transform="translate(2.000000, 0.000000)">
                            <path d="M11.9179619,32.5270857 C11.8979192,32.5159729 11.8752968,32.5046617 11.8528728,32.4933505 C10.479058,31.7376829 10.086341,31.1504926 10.05717,31.0381744 C10.1625428,29.8235101 16.6883123,26.5303629 30.7116224,25.6597973 C29.8922548,26.7845673 29.2076295,28.2353777 28.9540204,30.0731503 L28.8014184,31.1798621 C28.7182712,31.751177 28.6105171,32.4123862 28.3771491,33.0265645 C28.0020935,34.0072656 26.920187,35.0330129 25.2387868,36.0024028 C19.3595418,35.2354239 14.6388019,34.0027014 11.9179619,32.5270857 Z M57.3689493,28.5030762 C57.7775416,28.3546414 58.0581388,27.9857375 58.1008039,27.5650402 C61.9954291,28.5278814 64.8553771,29.7425457 65.917241,30.9143465 C66.1011968,31.1191388 66.1484261,31.2382041 66.157356,31.2405854 C66.1103252,31.404697 65.6747447,32.0121284 64.2380237,32.7656131 C62.0583353,33.91499 58.709029,34.8845782 54.5516663,35.5908338 C55.2227976,34.7540033 55.689732,33.6226847 55.7413269,32.0299882 C55.783992,30.5926718 55.8828161,30.1541147 55.9344111,30.0326681 C56.2352494,29.4343651 56.9716681,28.6469467 57.3689493,28.5030762 Z M74.1512004,25.4663162 C71.4057535,22.4319376 65.7128456,19.8879094 58.0289678,18.2459992 C58.1502159,18.1582878 58.2936896,18.0570823 58.462167,17.9400015 C58.9896262,17.5756617 59.6450805,17.1190464 60.3007333,16.4959381 C62.9787099,13.9473458 61.2546447,10.3079171 59.8135579,8.5624201 L58.1389047,6.51548952 C57.8178254,6.12416163 57.2746893,5.99358671 56.814502,6.20056185 C56.3519333,6.407537 56.0848302,6.8978875 56.1612305,7.39954921 L56.5630758,10.0177947 C56.6865068,10.8230729 56.6573358,11.1806656 55.8536452,11.8577501 C55.8087972,11.2030896 55.7121559,10.5013982 55.5258188,9.73203803 C55.0477717,7.74821204 54.0375028,6.87308224 53.925383,6.77862378 C53.5999379,6.51767238 53.1621745,6.44801919 52.778189,6.61213083 C52.6458281,6.66610709 52.5267628,6.74707148 52.4257558,6.84391124 L52.385472,6.61213083 C52.0508986,4.66422287 52.508903,3.58449923 52.5110859,3.52159307 C52.6234041,3.45412275 52.7244112,3.36859419 52.8051771,3.2673887 C53.1913455,2.79509643 53.9591181,2.01680639 53.9634838,2.01005936 C54.2216571,1.74454378 54.3361582,1.37127413 54.266505,1.01130011 C54.1970502,0.649143216 53.9567368,0.343145449 53.6199805,0.192527871 C53.4022895,0.0980694164 52.749018,-0.106722864 51.3708374,0.0686999809 C48.7734283,0.428674008 46.1897118,1.94695476 46.272859,4.52709936 C46.3063958,5.63599399 46.6544633,6.65936006 46.9372433,7.4894435 C47.0517444,7.83135929 47.2132763,8.30821573 47.2672526,8.59833813 C47.1235805,8.66144273 46.8654072,8.74915415 46.4298268,8.82773723 C42.4117705,9.55879805 39.311509,11.4820992 37.6975792,14.2374682 C37.315975,14.8899459 37.0218837,15.5805245 36.8174883,16.3002741 C27.8832267,16.3969155 19.3954598,17.5621677 12.8248424,19.5999699 C4.81770238,22.0810919 0.393038169,25.6014553 0.0249280144,29.7717167 C-0.170339043,31.9514051 0.691693577,35.1455296 5.83908403,38.1033096 C5.93116118,38.2001494 6.03891526,38.2811138 6.16452913,38.3394557 L8.26563442,39.344962 C8.32179354,39.3743315 8.38251684,39.3967554 8.44304169,39.4124323 C10.0480416,40.1210692 11.8461258,40.7644186 13.8148702,41.3379164 C13.5140319,41.5718796 13.2266877,41.8080258 12.9528376,42.0509189 C7.99853131,46.1291032 5.15664154,52.1551954 5.15664154,58.5839267 C5.15664154,64.306204 7.37899498,69.686764 11.4151095,73.7288318 C15.4514225,77.7732808 20.8186868,80 26.5272716,80 C36.6246026,80 45.4286862,72.8201652 47.4266016,63.0534388 C49.1282429,57.9562542 48.9305945,52.5489046 48.8565756,50.5176509 C48.7218334,46.7252233 50.4526457,44.5544649 51.6514346,43.5108577 C58.0357148,42.6764085 63.5982462,41.2682632 67.7714843,39.4283077 C67.8320091,39.4124323 67.8927324,39.3900084 67.9486931,39.3608374 L68.6087116,39.0459097 C68.6176415,39.0413456 68.6267698,39.0391627 68.6356997,39.0345985 L70.0948447,38.3372729 C70.2137116,38.2811138 70.3192828,38.1977681 70.4067958,38.1033096 C73.953552,36.0452663 75.9492845,33.5506502 76.1872166,30.8760472 C76.355694,28.9686214 75.6708702,27.148907 74.1512004,25.4663162" id="Shape" fill="#FEFEFE"></path>
                            <path d="M8.93855169,30.9385564 C9.1651726,28.3496804 18.4766728,24.9305225 33.5259287,24.3975069 C32.1296899,25.4456782 30.4730949,27.2788866 30.0645026,30.2279352 L29.9119006,31.3435768 C29.8108935,32.0317741 29.6896454,32.733664 29.4247252,33.4286083 C28.8454726,34.9514532 27.2113016,36.2065997 25.4626296,37.1648768 C19.4037944,36.4000808 14.3395512,35.1225103 11.3831603,33.5165182 L11.3785961,33.5165182 C9.76010211,32.6370226 8.87108136,31.6989867 8.93855169,30.9387549 L8.93855169,30.9385564 Z M66.7493088,30.1604648 C67.3239973,30.7946859 67.2858964,31.204072 67.2745852,31.341394 C67.2118774,32.0722563 66.2958686,32.9541332 64.7648875,33.7615942 L64.7605218,33.7615942 C61.5413935,35.4576791 56.010216,36.7398137 49.4239216,37.414517 C49.7112658,37.2279814 50.027781,37.0636713 50.3689031,36.9241665 L50.4766572,36.8815014 C52.3690013,36.1099584 54.515153,35.2372099 54.61616,32.1016258 C54.6318369,31.6045282 54.6588251,30.072555 54.9326752,29.5260453 C55.2851084,28.8241555 56.1898061,27.735502 56.9865513,27.4475625 C56.9978625,27.4408154 55.6554015,27.179864 55.6554015,27.179864 C55.5835654,27.173117 55.5162935,27.1687513 55.4466403,27.1687513 C55.8978977,26.8403295 56.2189771,26.4490017 56.4545279,26.0372342 C61.8039325,27.1528759 65.4024821,28.6735379 66.7493088,30.1604648 Z M73.3199263,26.2217854 C70.4915306,23.097314 64.2552881,20.5624143 56.22116,19.0282581 C56.257078,18.1037162 56.8182724,17.7123884 57.8194129,17.0196269 C58.3425064,16.65747 58.9328717,16.2457026 59.5278012,15.6811347 C62.1204477,13.2137052 59.0765438,9.43477172 58.9463658,9.2750258 L57.2717126,7.22809521 L57.6735579,9.8463407 C57.9474081,11.6390669 57.2919537,12.2734864 55.3480146,13.6342041 C55.0987713,13.8052612 54.8878273,13.996361 54.7014901,14.198772 C54.7822561,13.0021659 54.8384152,11.6682379 54.4365699,9.99695827 C54.0325417,8.32349578 53.2131741,7.64641122 53.2131741,7.64641122 L52.9998489,10.0735569 C52.997666,10.087051 52.8113288,11.9674886 50.3059969,14.2416355 C50.5215051,13.9987423 50.7235192,13.7467208 50.9031093,13.4835865 C52.1310692,11.6930432 51.7764531,9.65524092 51.3656779,7.2977484 L51.2803478,6.80065086 C50.8582614,4.34215129 51.5137157,2.80799517 51.9358021,2.5561721 C52.3465774,2.05451039 53.1637621,1.22006123 53.1637621,1.22006123 C53.1637621,1.22006123 52.7305629,1.02658015 51.5250269,1.18394476 C49.9581279,1.40004824 47.3249992,2.34026706 47.394454,4.48840314 C47.423625,5.43298769 47.7290274,6.33054145 47.9961305,7.12232555 C48.2834747,7.96808592 48.555142,8.77118123 48.3148286,9.18275021 C48.1219428,9.50898907 47.5405074,9.76755917 46.6312455,9.93405212 C42.9386343,10.6065725 40.1100402,12.3385754 38.6667706,14.8083862 C38.188525,15.6249756 37.869827,16.4999069 37.7104779,17.4177018 C28.5515798,17.4446899 19.8798571,18.589701 13.1566376,20.6747325 C5.62059925,23.0119839 1.46780075,26.192416 1.14235566,29.8725253 C0.969512562,31.8091221 1.84265794,34.6029888 6.68028023,37.2887047 L6.64654507,37.3246227 L8.02035995,37.9814661 C8.0215506,37.9826568 8.02313813,37.9834506 8.02492411,37.983649 L8.74765036,38.3323118 L8.75896156,38.3210006 C10.988062,39.3197599 13.6033309,40.1835785 16.5170567,40.8943982 C15.4799981,41.48139 14.5237055,42.1562917 13.6660386,42.9210877 C8.97883544,46.7764214 6.27843491,52.4921501 6.27843491,58.5833314 C6.27843491,64.0043735 8.38410437,69.1013597 12.2092749,72.9344679 C16.0344454,76.7673777 21.1189297,78.8772144 26.5288591,78.8772144 C36.1030967,78.8772144 44.4358802,72.0773963 46.3619595,62.6974336 C47.9961305,57.7961114 47.8076105,52.5393794 47.7357744,50.5577362 C47.5740441,46.0521076 49.7807206,43.5598729 51.1837065,42.4374842 C57.5814808,41.625459 63.2430348,40.2218778 67.4587395,38.3390589 L67.4654865,38.3458059 L68.147929,38.0219483 L68.1524932,38.0173842 L69.6114397,37.3224398 L69.571156,37.2841405 C72.9631273,35.3856446 74.8576543,33.1543613 75.0685983,30.7766277 C75.2079047,29.1930594 74.6197222,27.6612846 73.3199263,26.2217854" id="Shape" fill="#2D2925"></path>
                            <path d="M7.05910626,60.0194571 C7.58894675,62.6892975 9.11318076,65.8879862 12.1414077,68.0226283 C13.0572181,68.6659776 14.053993,69.1878805 15.1112926,69.5905195 C14.4558383,68.4724966 13.6948127,67.3455437 12.9202931,66.1983497 C11.4702764,64.0591436 9.97283208,61.8435372 9.02328648,59.4638191 C8.04000572,57.0007554 7.77071974,54.4251749 8.19955319,51.8361005 C7.42721641,53.9393886 7.00076427,56.2111541 7.00076427,58.5843236 C7.00076427,59.0679271 7.02318823,59.5469664 7.05910626,60.0194571 Z" id="Path" fill="#8B2231"></path>
                            <path d="M10.3216933,58.941321 C11.2174611,61.1839155 12.672042,63.3320516 14.0774091,65.4127173 C15.1660627,67.0187095 16.2279265,68.591165 17.0359829,70.1790989 C17.9250036,70.3882569 18.8475611,70.5210147 19.7881768,70.5771738 C18.8162072,69.189468 17.9720344,67.6102655 17.2493082,65.8040452 C14.4387723,58.803999 14.8449833,50.1507314 18.3290318,45.1436396 C20.1316801,42.5613121 22.2843804,40.8047023 25.0568154,39.2907873 C27.4407007,37.9838474 28.9335809,37.5947024 30.4510679,36.6882188 C32.1009157,35.703152 32.9831895,34.0542963 31.8989017,30.3563272 C31.5802036,29.2766036 31.5240445,28.4240962 31.5891335,27.7605057 C31.2120934,28.4915665 30.9180022,29.3395097 30.7810771,30.3271562 L30.790007,30.3180279 C30.6193468,31.3640164 30.5475107,32.5133932 30.1030004,33.6853924 C28.6438554,37.513738 21.5795139,39.6394501 20.6478281,39.9228255 C17.9676687,40.7326679 15.8193342,41.9697561 14.1468639,43.46343 C9.30924159,47.7753791 8.44502611,54.2445926 10.3216933,58.941321" id="Path" fill="#8B2231"></path>
                            <path d="M39.7877702,24.3445228 C39.8596062,24.580669 39.9179482,24.8146323 39.9471192,25.0440314 C40.1310751,26.3823251 39.7270469,27.4620487 38.0906931,27.725183 C36.4047287,27.9974456 35.8300403,26.5285769 35.6998623,25.3295896 C35.6863682,24.9134564 35.7179205,24.580669 35.7514572,24.3399587 C35.4686772,24.3445228 35.18808,24.3488886 34.9074828,24.3580169 C34.3665296,24.6659991 33.663846,25.1474197 32.9881505,25.8379983 C32.6513942,26.5623121 32.2451832,27.5632542 32.8690852,29.9116184 C33.96905,34.0527088 33.5021156,36.5516906 30.1843616,37.9822599 C25.9527816,39.8065384 23.2501982,40.8773322 19.6224776,45.4480498 C17.8962295,47.623174 16.9534309,51.2266847 16.7984476,54.8548022 C16.6480285,58.3751656 17.3709532,62.1360409 18.607843,65.2176487 C19.4361405,67.2804547 20.4037443,69.0731809 21.5396271,70.5960258 C22.6731285,70.5531623 23.8203225,70.4069105 24.967318,70.1550874 C23.7080042,68.6749075 22.9828967,66.8754343 22.8527186,64.8554918 C22.4195195,58.1412023 26.0291818,55.3159817 31.5827833,50.8553994 L34.0678742,48.7658038 C43.9854166,40.3262584 41.0919319,31.742644 42.1829667,24.414176 C41.3995172,24.3826237 40.6003907,24.3601998 39.7877702,24.3445228 Z" id="Path" fill="#8B2231"></path>
                            <path d="M43.7609785,24.4856152 C43.4579574,25.9499197 43.3210323,27.4773288 43.2245894,29.0587141 C42.831674,35.4423991 43.0225754,42.6696615 34.9590778,49.8473134 L32.5190333,51.8243924 C27.1223995,56.1613452 24.0358306,58.8694849 24.2491559,64.7673835 C24.3186107,66.7131086 25.1379782,68.4157421 26.5050461,69.7542343 C28.0136032,69.2998018 29.5064833,68.6655808 30.940823,67.8468085 C37.9559508,63.8585186 42.3693039,57.8955309 44.0550698,50.2453883 C45.1236806,45.4093536 45.1012567,41.4752383 45.0831985,38.3124676 C45.0742686,36.7132225 45.2808468,33.5776383 45.2808468,33.5776383 C45.5052849,31.5981781 45.8239829,28.8223695 48.1159896,25.1851237 C48.1900085,25.0682413 48.2709729,24.9489776 48.3471746,24.8297139 C46.8858468,24.6858433 45.3570486,24.5711438 43.7609785,24.4856152 Z" id="Path" fill="#8B2231"></path>
                            <path d="M46.1216461,45.0081036 L46.1216461,44.9832983 C46.1216461,44.9946095 46.1194633,45.0081036 46.1194633,45.0192163 C45.8993909,46.1642274 45.8432318,47.4509262 45.7041239,48.7330608 C45.636852,49.2234113 45.571763,49.6980849 45.4999269,50.159066 C45.4751217,50.2896409 45.4505148,50.4200174 45.4213438,50.548211 C43.6500494,58.6031756 39.0662346,64.8745423 31.6943078,69.0672276 C30.428247,69.7871757 29.1419451,70.3787317 27.8510791,70.8375299 C30.0129076,72.2748463 32.533718,72.7179675 34.2667132,72.4570161 C40.8867427,71.4606382 44.112618,67.1328137 45.666023,62.5035557 C47.2597118,57.7530495 47.08925,52.682853 47.0128497,50.5843275 C46.7614236,43.5729701 52.1737343,40.9862769 52.1737343,40.9862769 C47.9647766,40.7566794 46.5842147,42.5944519 46.1216461,45.0081036" id="Path" fill="#8B2231"></path>
                            <path d="M41.7011492,70.8696775 C38.9940016,73.1370773 36.0757116,73.6341749 34.7489276,73.8389671 C32.142787,74.2392249 29.0562181,73.6184979 26.3264482,71.4612335 C26.2816002,71.4253155 26.2389352,71.3870162 26.1962701,71.3510981 C25.0266522,71.6638429 23.8548514,71.8730009 22.6876148,71.9696423 C25.3588443,74.844275 28.876628,76.4774537 33.5930021,76.7991284 C33.6130448,76.7991284 33.6356672,76.8013113 33.653527,76.8013113 L33.6580912,76.8013113 C36.8680911,75.5394178 39.6651329,73.452005 41.7864793,70.7954602 C41.7573083,70.8224483 41.7303202,70.8450707 41.7011492,70.8696775 Z M17.0653523,75.6983699 C17.1171457,74.2205714 16.7018063,72.7675781 16.0237296,71.3143863 C14.4052355,70.8464598 12.8182938,70.1493326 11.2916785,69.2202265 C10.4320272,68.6961408 9.65750753,67.8954268 8.97288218,67.150872 C8.97069931,67.1463078 8.96613515,67.1463078 8.96395228,67.1419421 C10.7237371,70.7611297 13.563444,73.7550261 17.0653523,75.7007512 L17.0653523,75.6983699 Z M30.5653705,77.7131529 C27.9254949,77.1013558 25.6672234,76.1633198 23.6849849,74.6585331 C22.6725332,73.8869901 21.7499757,73.0188058 20.9103671,72.0335406 C19.8417562,72.0200466 18.7800908,71.9166582 17.7295381,71.718613 C18.3131564,73.2279638 18.6072477,74.7664857 18.4185292,76.3816062 L18.4185292,76.383789 C20.890126,77.5153061 23.63339,78.1519084 26.5290576,78.1519084 C27.9231135,78.1519084 29.2834344,78.0034737 30.5945415,77.7244641 C30.5832303,77.7222812 30.5743004,77.7155342 30.5653705,77.7131529 L30.5653705,77.7131529 Z M53.2520688,29.657414 C52.7964457,31.1826403 51.2991998,31.0026532 50.8658022,30.1793168 C50.1768111,28.879124 50.4371672,27.8738162 51.1555277,27.1876033 C51.8715069,26.5015888 53.045689,26.1348678 54.1837546,25.6199104 C54.1887157,25.6165369 54.1940736,25.6135603 54.1994315,25.6107821 C52.8839587,25.3859472 51.4831556,25.1835362 50.0015867,25.0081133 C49.9813456,25.0327202 49.9613029,25.0553426 49.9410618,25.0777665 C49.8085025,25.2283841 49.6783245,25.3770173 49.5505277,25.532199 C47.1956149,29.081535 46.9015237,31.7110917 46.6703386,33.7334154 L46.5985026,34.3563253 C46.4683245,35.4181891 46.4750716,36.7564829 46.4818186,38.304133 C46.4840015,38.5154739 46.4861843,38.7359431 46.4861843,38.9607781 C46.4683245,39.5007391 46.4480834,40.0337547 46.4234766,40.5534746 C46.4369707,40.5578403 46.4459006,40.5602216 46.4570133,40.5624045 C46.4750716,40.3464995 46.4840015,40.2631538 46.4818186,40.3734876 C47.1485842,38.2477755 48.3719799,36.9543297 50.0958467,36.2526383 C51.963584,35.4945893 53.8065161,34.7950808 53.8918462,32.0778127 C53.9301456,30.9441128 54.0130944,29.8082301 54.2712676,29.2301681 C54.7427661,28.1796155 55.5867405,27.9008043 55.5867405,27.9008043 C54.6798599,27.8130929 53.6898321,28.1931095 53.2520688,29.657414 Z" id="Shape" fill="#8B2231"></path>
                            <path d="M55.5121262,18.8953019 C55.6490513,17.0779689 57.366568,16.7382359 59.027727,15.1546677 C61.1623691,13.1257954 58.3879496,9.73600687 58.3879496,9.73600687 C58.7380015,12.0145194 57.685266,12.8850851 55.7591867,14.227943 C55.1485803,14.6553873 54.7040699,15.2536903 54.643545,16.0071751 C54.5760747,16.8529355 54.520114,17.7661662 54.3359597,18.6907081 C54.7332409,18.7559955 55.123775,18.8256487 55.5121262,18.8953019 Z M49.6362547,15.727967 C49.1220912,16.110365 48.6416628,16.5040742 48.1927867,16.9067133 C47.8740886,17.2127111 47.5619391,17.5185104 47.2745949,17.8110141 C49.1490793,17.9729429 50.9717703,18.1842837 52.7295707,18.4408694 C53.8519594,16.3939388 54.3885469,14.0701815 53.7217813,10.1158251 C53.7217813,10.1158251 53.566798,12.7947939 49.6362547,15.727967 Z M39.1583117,17.4216706 C41.3020821,17.4419117 43.4055687,17.5296232 45.4572619,17.6689295 C45.5269151,17.6014592 45.5896228,17.531806 45.6614588,17.4643357 C47.0398379,15.9841558 49.1679313,14.7335735 50.3081798,13.0736051 C51.4464438,11.4112553 50.9884394,9.38238299 50.5665514,6.92368498 C49.8414439,2.68595326 51.6238511,1.90091618 51.6238511,1.90091618 C51.6238511,1.90091618 48.0501068,2.393648 48.1173786,4.46518541 C48.2094558,7.24535968 51.0692054,9.8614223 46.7614236,10.6464594 C42.0339367,11.5078967 39.0954056,14.069983 38.4488811,17.4192893 C38.6846304,17.4216706 38.9203796,17.4192893 39.1583117,17.4216706 Z" id="Shape" fill="#F9A11A"></path>
                            <path d="M39.1458099,18.5315575 C19.3420789,18.3358935 2.82018388,23.457685 2.24549547,29.9719448 C2.01649325,32.565385 4.35334779,34.9903479 8.49959769,36.9809209 C11.0632716,38.2112621 14.3159366,39.273126 18.0805823,40.109758 C18.8324795,39.7745892 19.6204932,39.4755369 20.4509735,39.2235154 C21.1066263,39.0256686 22.316528,38.6273953 23.6498607,38.0471505 C18.1051891,37.2351253 13.6156343,35.9889087 10.8545105,34.4930519 C8.81611289,33.3865386 7.71833102,32.1448862 7.83521344,30.8401291 C8.22118338,26.4674568 22.0853429,23.0550459 38.8046878,23.219356 C55.5218499,23.3858489 68.7640918,27.0635769 68.3779234,31.4384322 C68.2725506,32.6284896 67.1680217,33.7486955 65.2778604,34.7450734 C61.784882,36.582846 55.6161099,37.9977384 48.122935,38.6567647 C47.8647618,39.0121746 47.6357596,39.4056853 47.4494224,39.8533708 C50.8570707,38.5577421 54.7832483,40.4719149 54.7832483,40.4719149 C54.7832483,40.4719149 55.0459857,40.5731204 55.23014,40.6991311 C60.202306,39.8107057 64.4741698,38.5464309 67.6754383,37.0168389 C71.4623095,35.2106187 73.7588803,33.0354944 73.9652601,30.6782004 C74.5399485,24.1663218 58.9519222,18.7250386 39.1458099,18.5315575 Z" id="Path" fill="#FEFEFE"></path>
                        </g>
                    </g>
                </g>
            </g>
        </g>
    </g>
</svg>