<?xml version="1.0" encoding="UTF-8"?>
<svg width="80px" height="80px" viewBox="0 0 80 80" version="1.1" xmlns="http://www.w3.org/2000/svg" xmlns:xlink="http://www.w3.org/1999/xlink">
    <title>57C6ADC8-1F93-4A48-90AE-AB7C3628F738</title>
    <defs>
        <polygon id="path-1" points="0 48 48 48 48 0 0 0"></polygon>
    </defs>
    <g id="iOS" stroke="none" stroke-width="1" fill="none" fill-rule="evenodd">
        <g id="Pick-teams" transform="translate(-18.000000, -233.000000)">
            <g id="Group" transform="translate(8.000000, 195.000000)">
                <g id="Group-10" transform="translate(8.000000, 36.000000)">
                    <g id="Assets-exportable/Logos/Club-logos/Eastern-Conference/Atlanta-Hawks/big" transform="translate(2.000000, 2.000000)">
                        <g id="Group" fill="#E03A3E" fill-rule="nonzero">
                            <rect id="Rectangle" x="0" y="0" width="80" height="80" rx="8"></rect>
                        </g>
                        <g id="Group" transform="translate(16.000000, 16.000000)">
                            <rect id="Rectangle" fill-rule="nonzero" x="0" y="0" width="48" height="48" rx="12"></rect>
                            <g id="Group-11">
                                <g id="Clipped">
                                    <mask id="mask-2" fill="white">
                                        <use xlink:href="#path-1"></use>
                                    </mask>
                                    <g id="Path"></g>
                                    <path d="M41.6286216,7.55521929 C37.1344707,2.75283989 30.591288,-0.000876620835 23.674259,-0.000876620835 C23.0831273,-0.000876620835 22.4888718,0.0180333429 21.9009887,0.0592345222 C10.7400809,0.816634924 5.34417609,8.74504422 4.78478126,9.61803334 C3.96236965,10.663842 -3.1210908,20.2272744 1.62333207,33.4429596 L1.71217051,33.7281119 C1.75802665,33.8707506 6.37737598,48.0006262 22.8929555,48.0006262 L22.8960792,48.0006262 C23.7803404,48.0006262 24.7010865,47.9592997 25.6280801,47.8770226 C37.9616304,46.7947716 47.1369801,37.6812961 47.9420239,25.722059 C48.3999604,18.8504787 46.1576331,12.3986746 41.6286216,7.55521929 Z" id="Path" fill="#FEFEFE" fill-rule="nonzero" mask="url(#mask-2)"></path>
                                </g>
                                <g id="Group-10" transform="translate(3.147080, 1.555671)" fill="#E0393D" fill-rule="nonzero">
                                    <path d="M33.6221659,27.8658529 C35.2971017,24.1836697 34.4540736,20.1798918 31.6317349,17.0205504 C30.8473076,16.1444304 29.8695849,15.547076 28.9235991,14.9687567 C28.3087271,14.5931873 27.6716143,14.2050947 27.101224,13.7439921 C26.8333342,13.5269659 26.6130498,13.2354268 26.3801457,12.9248526 C26.09014,12.5398908 25.7621499,12.1025822 25.2914686,11.7619524 C22.6751701,9.87007943 19.5976864,9.17767421 16.5583119,8.27938831 C15.1225277,7.85635614 13.7248528,7.54265112 12.4096439,7.07516175 C14.0323513,5.94707596 16.1208669,5.21822836 18.398055,4.99644328 C19.1143852,4.92668931 19.8290912,4.89024693 20.5263043,4.89024693 C27.2406666,4.89024693 33.1038791,8.27137349 36.2130998,13.9340936 C39.3254442,19.6079594 39.1210283,26.492188 35.6743215,31.9029423 C32.1341531,37.4610941 25.8539872,40.4176857 18.7467865,39.8314768 C14.4950359,39.4828322 9.96440006,37.2266606 8.56997381,34.8388707 C9.43361846,34.3081394 17.1969242,30.1934064 22.5087386,31.8507207 C24.031612,31.8554795 21.5959892,35.5424215 21.5959892,35.5424215 C21.5959892,35.5424215 30.4607167,34.8104431 33.6221659,27.8658529 Z M37.3017769,7.06414137 C32.6745558,2.12075125 25.8223752,-0.417566996 18.8291276,0.0561839502 C7.72844507,0.811956342 2.80484592,9.06521628 2.80484592,9.06521628 C2.80484592,9.06521628 11.5998521,11.7302688 12.8121034,12.105713 C13.634515,12.3624377 19.1255057,13.7186954 21.6007372,15.0812146 C22.1173996,15.3648641 22.624441,15.9336658 23.1236106,16.4643971 C23.494458,16.8573736 23.8430646,17.229687 24.2059153,17.5276129 C24.8556479,18.0599722 25.4927608,18.5209495 26.1076328,18.9662729 C27.6336299,20.0689367 28.9504631,21.0196946 29.5622114,22.467747 C30.092993,23.7258231 30.1136095,25.0298592 29.6208123,26.2418502 C29.1929883,27.2970512 28.3879445,28.2366635 27.387981,28.8799779 C27.4894392,28.3459906 27.6257582,27.5823286 26.9046798,27.1069497 C26.5971814,26.9057026 24.9364897,26.514354 23.8256967,26.4035241 C23.2947902,26.3480465 17.3522353,26.0707839 9.10075542,30.5245186 C11.5761119,27.2257944 13.347758,26.6760279 13.347758,26.6760279 C13.2811604,26.2782925 0,31.6573632 0,31.6573632 C0,31.6573632 4.58124001,46.3307437 22.3138188,44.7716109 C33.850322,43.7559831 42.4456604,35.3206365 43.199975,24.0601914 C43.6309227,17.6274224 41.5360347,11.5907609 37.3017769,7.06414137 Z" id="Shape"></path>
                                    <path d="M20.4818226,16.7064696 C17.6309956,16.8190528 15.009949,13.393469 12.8103541,15.6369922 C13.2366787,15.7448166 14.103447,15.4137044 14.2381416,15.8144453 C13.1083565,20.2428833 20.4327178,21.3837427 20.4818226,16.7064696 Z" id="Path"></path>
                                </g>
                            </g>
                        </g>
                    </g>
                </g>
            </g>
        </g>
    </g>
</svg>