<?xml version="1.0" encoding="UTF-8"?>
<svg width="80px" height="80px" viewBox="0 0 80 80" version="1.1" xmlns="http://www.w3.org/2000/svg" xmlns:xlink="http://www.w3.org/1999/xlink">
    <title>66F38A71-0385-45F9-8BFD-A8B2899BDEA9</title>
    <defs>
        <polygon id="path-1" points="0 80 80 80 80 0 0 0"></polygon>
    </defs>
    <g id="Specifications" stroke="none" stroke-width="1" fill="none" fill-rule="evenodd">
        <g id="Teams" transform="translate(-48.000000, -197.000000)">
            <g id="Group-4" transform="translate(48.000000, 112.000000)">
                <g id="Group" transform="translate(0.000000, 48.000000)">
                    <g id="Group" transform="translate(0.000000, 37.000000)">
                        <rect id="Rectangle" fill-rule="nonzero" x="0" y="0" width="80" height="80" rx="12"></rect>
                        <g id="Group-11">
                            <g id="Clipped">
                                <mask id="mask-2" fill="white">
                                    <use xlink:href="#path-1"></use>
                                </mask>
                                <g id="Path"></g>
                                <path d="M69.3810359,12.5920321 C61.8907845,4.58806648 50.9854799,-0.00146103473 39.4570984,-0.00146103473 C38.4718788,-0.00146103473 37.4814529,0.0300555715 36.5016478,0.0987242036 C17.9001348,1.36105821 8.90696016,14.5750737 7.97463544,16.0300556 C6.60394942,17.77307 -5.201818,33.712124 2.70555344,55.7382661 L2.85361752,56.2135198 C2.93004441,56.451251 10.62896,80.0010436 38.1549258,80.0010436 L38.160132,80.0010436 C39.6339006,80.0010436 41.1684776,79.9321662 42.7134669,79.7950377 C63.269384,77.991286 78.5616335,62.8021602 79.9033731,42.8700984 C80.6666007,31.4174646 76.9293884,20.6644577 69.3810359,12.5920321 Z" id="Path" fill="#FEFEFE" fill-rule="nonzero" mask="url(#mask-2)"></path>
                            </g>
                            <g id="Group-10" transform="translate(5.245134, 2.592786)" fill="#E0393D" fill-rule="nonzero">
                                <path d="M56.0369431,46.4430881 C58.8285029,40.3061161 57.423456,33.6331531 52.7195581,28.3675839 C51.4121794,26.9073841 49.7826415,25.9117933 48.2059986,24.9479278 C47.1812119,24.3219788 46.1193571,23.6751578 45.1687066,22.9066536 C44.7222237,22.5449431 44.3550831,22.0590447 43.9669094,21.541421 C43.4835667,20.899818 42.9369166,20.1709704 42.1524477,19.603254 C37.7919502,16.4501324 32.6628106,15.2961237 27.5971866,13.7989805 C25.2042128,13.0939269 22.8747547,12.5710852 20.6827399,11.7919362 C23.3872521,9.91179327 26.8681116,8.69704726 30.6634249,8.32740547 C31.8573087,8.21114885 33.0484853,8.15041155 34.2105071,8.15041155 C45.401111,8.15041155 55.1731319,13.7856225 60.3551664,23.2234894 C65.542407,32.6799323 65.2017139,44.1536467 59.4572025,53.1715705 C53.5569219,62.4351568 43.0899786,67.3628095 31.2446441,66.3857947 C24.1583932,65.8047203 16.6073334,62.0444344 14.2832897,58.0647845 C15.7226974,57.1802323 28.6615403,50.322344 37.5145643,53.0845345 C40.0526867,53.0924659 35.9933153,59.2373692 35.9933153,59.2373692 C35.9933153,59.2373692 50.7678611,58.0174052 56.0369431,46.4430881 Z M62.1696281,11.773569 C54.457593,3.53458542 43.0372919,-0.695944993 31.3818793,0.093639917 C12.8807418,1.35326057 4.6747432,15.1086938 4.6747432,15.1086938 C4.6747432,15.1086938 19.3330869,19.5504481 21.3535056,20.1761884 C22.7241916,20.6040628 31.8758428,22.8644923 36.0012287,25.1353577 C36.8623327,25.6081068 37.7074016,26.5561096 38.539351,27.4406618 C39.15743,28.0956227 39.738441,28.7161451 40.3431921,29.2126882 C41.4260799,30.0999537 42.4879347,30.8682492 43.5127213,31.6104549 C46.0560499,33.4482278 48.2507718,35.0328243 49.2703523,37.446245 C50.1549883,39.5430385 50.1893492,41.7164321 49.3680204,43.7364169 C48.6549805,45.4950853 47.3132409,47.0611058 45.646635,48.1332966 C45.8157321,47.2433177 46.0429303,45.9705477 44.8411331,45.1782495 C44.3286356,44.8428377 41.5608161,44.19059 39.7094945,44.0058735 C38.8246503,43.9134108 28.9203921,43.4513064 15.1679257,50.8741977 C19.2935199,45.376324 22.2462633,44.4600466 22.2462633,44.4600466 C22.1352673,43.7971542 0,52.762272 0,52.762272 C0,52.762272 7.63540002,77.2179061 37.189698,74.6193515 C56.4172033,72.9266384 70.7427673,58.8677274 71.9999584,40.1003189 C72.7182045,29.3790374 69.2267244,19.3179348 62.1696281,11.773569 Z" id="Shape"></path>
                                <path d="M34.136371,27.8441161 C29.3849926,28.0317547 25.0165817,22.3224484 21.3505901,26.0616537 C22.0611311,26.241361 23.505745,25.6895073 23.730236,26.3574089 C21.8472608,33.7381389 34.0545296,35.6395712 34.136371,27.8441161 Z" id="Path"></path>
                            </g>
                        </g>
                    </g>
                </g>
            </g>
        </g>
    </g>
</svg>