<?xml version="1.0" encoding="UTF-8"?>
<svg width="80px" height="80px" viewBox="0 0 80 80" version="1.1" xmlns="http://www.w3.org/2000/svg" xmlns:xlink="http://www.w3.org/1999/xlink">
    <title>7DB78701-EF50-4890-A5F7-97D060B465DE</title>
    <g id="Specifications" stroke="none" stroke-width="1" fill="none" fill-rule="evenodd">
        <g id="Teams" transform="translate(-48.000000, -1599.000000)">
            <g id="Group-6-Copy-4" transform="translate(48.000000, 1514.000000)">
                <g id="Group-3" transform="translate(0.000000, 48.000000)">
                    <g id="Assets-exportable/Logos/Club-logos/West-Conference/Denver-Nuggets/transparent" transform="translate(0.000000, 37.000000)">
                        <g id="Group-2" transform="translate(2.000000, 2.000000)">
                            <path d="M38.0100837,0 C48.1353501,0 57.668224,3.95505485 64.8600477,11.1485082 C72.0392412,18.3260721 76,27.8746318 76,37.9913423 C76,58.9548645 58.965865,76 38.0100837,76 C27.8605757,76 18.3158865,72.0526862 11.1281371,64.8561771 C3.96524042,57.6753539 0,48.1337204 0,37.9913423 C0,27.8746318 3.96524042,18.3260721 11.1281371,11.1485082 C18.3158865,3.95505485 27.8605757,0 38.0100837,0" id="Path" fill="#FFC627" fill-rule="nonzero"></path>
                            <path d="M38.0100837,0 C48.1353501,0 57.668224,3.95505485 64.8600477,11.1485082 C72.0392412,18.3260721 76,27.8746318 76,37.9913423 C76,58.9548645 58.965865,76 38.0100837,76 C27.8605757,76 18.3158865,72.0526862 11.1281371,64.8561771 C3.96524042,57.6753539 0,48.1337204 0,37.9913423 C0,27.8746318 3.96524042,18.3260721 11.1281371,11.1485082 C18.3158865,3.95505485 27.8605757,0 38.0100837,0" id="Path" stroke="#FFFFFF"></path>
                            <path d="M38.0155839,72.9600163 C57.2858579,72.9600163 72.9606274,57.2844319 72.9606274,37.9899163 C72.9606274,18.730439 57.2858579,3.0399837 38.0155839,3.0399837 C18.7224943,3.0399837 3.0399837,18.730439 3.0399837,37.9899163 C3.0399837,57.2844319 18.7224943,72.9600163 38.0155839,72.9600163" id="Path" fill="#8B2332" fill-rule="nonzero"></path>
                            <path d="M5.70004584,37.9907311 C5.70004584,20.1896231 20.1949195,5.70024955 38.0119171,5.70024955 C55.8248404,5.70024955 70.3001579,20.1896231 70.3001579,37.9907311 C70.3001579,55.806099 55.8248404,70.299343 38.0119171,70.299343 C20.1949195,70.299343 5.70004584,55.806099 5.70004584,37.9907311" id="Path" fill="#0D2240" fill-rule="nonzero"></path>
                            <path d="M63.4884595,24.4447447 L64.2102086,24.0411926 L61.8846404,20.4338729 L61.2335791,20.9040386 C57.2777094,15.9139266 50.2559847,10.3493488 43.5726244,9.50720629 C48.6042935,11.8044586 54.265023,17.6719551 57.7220038,22.1951608 L54.0904425,24.8348518 L54.5267921,25.5054694 L38.1217175,36.1636445 L21.7168467,25.5054694 L22.1562519,24.8348518 L18.5035046,22.1951608 C21.9830973,17.6719551 27.6297708,11.8044586 32.6677549,9.50720629 C25.9923394,10.3485339 18.9642996,15.9004817 15.0404126,20.8859083 L14.3596094,20.3955752 L12.0334301,23.9949501 L12.758846,24.4147991 L12.7401046,24.4447447 C9.85127467,30.1187154 7.72880665,38.8901165 9.79647633,45.3070224 C9.74249284,39.7630194 12.7213632,32.137087 15.3969073,27.0608051 L19.3152942,29.2686282 L19.7204759,28.6497533 L34.9548217,38.225814 L14.8603318,51.2828933 L14.8297751,51.2429659 L12.1361006,51.9691967 L12.1650276,52.0358103 C12.0334301,52.5365327 12.2801245,53.4640302 12.8529606,54.3495632 C13.4241671,55.259949 14.1457125,55.8592677 14.6863623,55.9588825 L14.7326048,56.0332371 L16.5213937,53.8714528 L16.5057079,53.8315254 L56.5311075,28.6497533 L56.9220295,29.2686282 L60.851213,27.0608051 C63.5230904,32.137087 66.5058312,39.7630194 66.471404,45.3070224 C68.537444,38.8901165 66.3891047,30.1187154 63.4884595,24.4447447 Z" id="Path" fill="#FFC627" fill-rule="nonzero"></path>
                            <path d="M61.4228269,51.2429659 L61.3922702,51.2828933 L42.9013957,39.2716678 L39.6632009,41.1889985 L59.7422087,53.8317291 L59.7202079,53.8708417 L61.5043114,56.0332371 L61.5582949,55.9588825 C62.0981299,55.8592677 62.8204901,55.259949 63.3925115,54.3495632 C63.9480322,53.4634191 64.2112272,52.5357178 64.0796297,52.0358103 L64.1126309,51.9691967 L61.4228269,51.2429659 L61.4228269,51.2429659 Z M41.2935024,12.7413269 L39.9035802,14.5576168 L37.9791196,9.96474186 L37.9791196,31.1771993 L44.4414531,22.9059095 L50.9431029,24.5818424 L41.2935024,12.7413269 Z" id="Shape" fill="#FFC627" fill-rule="nonzero"></path>
                            <path d="M41.2932987,17.7141234 L41.2932987,12.7411231 L39.9033765,14.5582279 L41.2932987,17.7141234 Z M37.9791196,9.96433444 L26.2516639,24.2601822 L31.4275605,22.9440035 L37.9791196,31.1778105 L37.9791196,9.96433444 Z" id="Shape" fill="#FFFFFF" fill-rule="nonzero"></path>
                            <path d="M31.0957148,63.4621807 C32.7551471,61.8671213 34.8690592,60.8931775 37.1489961,60.6784658 L37.1489961,57.4989399 L28.3885954,57.4989399 C28.596992,59.8143225 29.5693061,61.8889184 31.0957148,63.4621807 L31.0957148,63.4621807 Z M37.1494035,66.4088647 L37.1494035,62.6481504 C35.4484141,62.8557322 33.8743369,63.5701477 32.5801591,64.7439322 C33.9268944,65.6418916 35.4789708,66.229395 37.1494035,66.4088647 Z" id="Shape" fill="#FFC627" fill-rule="nonzero"></path>
                            <path d="M39.0944389,46.9283606 L39.0944389,50.6782782 C40.7913541,50.4729372 42.3772465,49.7685036 43.6449419,48.5963487 C42.316948,47.6914632 40.7742423,47.0990707 39.0944389,46.9283606 L39.0944389,46.9283606 Z M45.1405903,49.8787114 C43.4778987,51.4544183 41.3703016,52.4479183 39.0950501,52.649185 L39.0950501,55.5410706 L47.839765,55.5410706 C47.5741254,53.3497482 46.590811,51.3721189 45.1405903,49.8787114 L45.1405903,49.8787114 Z M37.1494035,50.6776671 L37.1494035,46.9285643 C35.4789708,47.0992744 33.9268944,47.690852 32.6019562,48.5973673 C33.8743369,49.7687073 35.4484141,50.4723261 37.1494035,50.6776671 Z" id="Shape" fill="#FFFFFF" fill-rule="nonzero"></path>
                            <path d="M39.0944389,57.499551 L39.0944389,60.679077 C41.3696904,60.8929738 43.4929733,61.8669176 45.1399791,63.4627919 C46.6700547,61.8895295 47.6778145,59.8141188 47.859525,57.499551 L39.0944389,57.499551 Z" id="Path" fill="#FFC627" fill-rule="nonzero"></path>
                            <path d="M28.4087628,55.5416817 L37.1496072,55.5416817 L37.1496072,52.6495924 C34.8686518,52.4483257 32.7704254,51.453196 31.0953074,49.8785077 C29.6489572,51.3717115 28.6656427,53.3493408 28.4087628,55.5416817 Z" id="Path" fill="#FFFFFF" fill-rule="nonzero"></path>
                            <path d="M39.0944389,66.4088647 C40.7742423,66.229395 42.316948,65.6418916 43.6449419,64.7439322 C42.3772465,63.5701477 40.7915578,62.8557322 39.0944389,62.6479467 L39.0944389,66.4088647 Z" id="Path" fill="#FFC627" fill-rule="nonzero"></path>
                        </g>
                    </g>
                </g>
            </g>
        </g>
    </g>
</svg>