<?xml version="1.0" encoding="UTF-8"?>
<svg width="80px" height="80px" viewBox="0 0 80 80" version="1.1" xmlns="http://www.w3.org/2000/svg" xmlns:xlink="http://www.w3.org/1999/xlink">
    <title>3B4352B5-AF60-4FFC-954E-BAA3AC621C04</title>
    <g id="Specifications" stroke="none" stroke-width="1" fill="none" fill-rule="evenodd">
        <g id="Teams" transform="translate(-48.000000, -1199.000000)">
            <g id="Group-6" transform="translate(48.000000, 1114.000000)">
                <g id="Group-3" transform="translate(0.000000, 48.000000)">
                    <g id="Assets-exportable/Logos/Club-logos/Eastern-Conference/Cleveland-Cavaliers/transparent" transform="translate(0.000000, 37.000000)">
                        <g id="Group-30" transform="translate(2.000000, 6.000000)">
                            <path d="M55.8043261,13.561368 C54.7028643,13.4478111 52.3468595,14.0627438 48.6991951,15.5963639 C43.254884,17.8845556 36.8188559,22.7163416 32.7229828,27.1135618 C28.3319821,31.8293834 19.6103706,42.7304448 19.7275389,47.7993762 C19.7275389,47.9771348 19.8597544,48.6402189 20.5908522,48.9243118 L20.9118611,49.0242258 C23.565401,49.6369515 27.2883019,49.2268627 35.3963851,46.7029301 C35.3963851,46.7029301 47.7781002,42.9515397 63.1712801,36.2007222 L67.6044131,33.7347719 L65.3334757,45.187768 L65.0680415,45.41749 C53.6557734,55.3294427 35.9964712,64.6473283 21.0452804,65.347529 C17.588817,65.5080335 13.5521299,65.3314786 9.99595303,63.9102116 C5.31102858,62.0419397 2.42154711,59.19439 1.15717325,55.6370094 C0.650781693,54.6105834 -3.6465245,44.7259164 8.37967316,29.6312748 L0.548259471,31.5675605 L6.84464866,21.821128 C19.5919126,11.2769884 57.11324,-10.6079949 74.6365146,6.05858723 L76,7.44534573 L76,13.02428 C76,13.02428 48.0569767,29.3239088 48.2028351,29.0632897 C48.4546265,28.6028425 54.2917723,17.0868484 54.2917723,17.0868484 C55.0140423,15.6691928 55.5065904,14.504733 55.8043261,13.561368 Z" id="Path" fill="#FCB61A" fill-rule="nonzero"></path>
                            <path d="M55.8043261,13.561368 C54.7028643,13.4478111 52.3468595,14.0627438 48.6991951,15.5963639 C43.254884,17.8845556 36.8188559,22.7163416 32.7229828,27.1135618 C28.3319821,31.8293834 19.6103706,42.7304448 19.7275389,47.7993762 C19.7275389,47.9771348 19.8597544,48.6402189 20.5908522,48.9243118 L20.9118611,49.0242258 C23.565401,49.6369515 27.2883019,49.2268627 35.3963851,46.7029301 C35.3963851,46.7029301 47.7781002,42.9515397 63.1712801,36.2007222 L67.6044131,33.7347719 L65.3334757,45.187768 L65.0680415,45.41749 C53.6557734,55.3294427 35.9964712,64.6473283 21.0452804,65.347529 C17.588817,65.5080335 13.5521299,65.3314786 9.99595303,63.9102116 C5.31102858,62.0419397 2.42154711,59.19439 1.15717325,55.6370094 C0.650781693,54.6105834 -3.6465245,44.7259164 8.37967316,29.6312748 L0.548259471,31.5675605 L6.84464866,21.821128 C19.5919126,11.2769884 57.11324,-10.6079949 74.6365146,6.05858723 L76,7.44534573 L76,13.02428 C76,13.02428 48.0569767,29.3239088 48.2028351,29.0632897 C48.4546265,28.6028425 54.2917723,17.0868484 54.2917723,17.0868484 C55.0140423,15.6691928 55.5065904,14.504733 55.8043261,13.561368" id="Path" stroke="#FFFFFF" stroke-linecap="round"></path>
                            <path d="M56.7571207,11.682864 C54.960474,11.105048 51.7104594,12.116226 47.9133252,13.7190637 C42.154024,16.1392702 35.482255,21.1540313 31.2294888,25.7215869 C27.0952953,30.1681622 17.5390606,41.7607972 17.6873266,47.8495338 C17.6969569,48.1065416 17.7142111,48.3597373 17.7513277,48.6041054 C16.8302328,47.8411073 16.2694703,46.7308177 16.225131,45.1317921 C16.080677,39.0440587 25.6320965,27.4552357 29.7624781,23.0134755 C34.0190563,18.4449168 40.6956404,13.4313594 46.4501264,11.0061371 C52.4092556,8.4932392 57.0177398,7.42267448 56.7571207,11.682864 Z M74.1315275,8.35159402 L74.1758669,11.9486995 L53.0516747,24.7292681 C53.276381,24.4995461 55.6596715,19.8936701 55.8041255,19.5652379 L74.1315275,8.35159402 Z M11.8465694,26.6884256 C9.61174549,27.2255137 7.35063896,27.7848717 5.33791308,28.2812317 C5.6169902,27.9072564 7.68890211,25.0585029 8.16319277,24.440962 C10.6315507,23.8631459 13.164311,23.2937564 15.4573178,22.7614835 C14.3460251,23.8667573 13.1111439,25.1929254 11.8465694,26.6884256 Z M63.7356539,43.8770485 C52.5183987,53.6184652 35.2826276,62.6378125 20.9513853,63.3155426 C17.5938327,63.4686237 13.9054403,63.2736108 10.7577473,62.0092369 C6.45682977,60.29525 4.07373986,57.8082334 3.05754602,54.8928706 C4.38110589,56.6439742 6.40245889,58.1416814 9.29073658,59.3025299 C12.4470567,60.5532609 16.1354491,60.7558978 19.4930017,60.5927851 C34.9580074,59.8753302 53.7952116,49.4299008 64.8098299,38.8450332 L63.7356539,43.8770485 Z" id="Shape" fill="#000840" fill-rule="nonzero"></path>
                            <path d="M73.2106332,7.52579859 L56.106877,18.0133604 C63.4503572,3.62634282 50.2255925,7.00255406 41.3916279,12.2022966 C36.3670358,14.8423942 30.6077347,20.1867914 28.801257,22.1116411 C14.1042652,37.7606249 3.81071318,58.6749575 35.9916561,48.658075 C35.9916561,48.658075 48.5005709,44.8707717 64.0283739,38.0447178 C20.0722222,75.1772232 -21.4166951,59.6492195 19.4077337,20.6115263 C15.6922562,21.4609961 11.9408658,22.2685342 8.27093139,23.2947595 C21.3428156,12.4775617 57.2035237,-7.70306486 73.2106332,7.52579859 Z" id="Path" fill="#690031" fill-rule="nonzero"></path>
                        </g>
                    </g>
                </g>
            </g>
        </g>
    </g>
</svg>