<?xml version="1.0" encoding="UTF-8"?>
<svg width="80px" height="80px" viewBox="0 0 80 80" version="1.1" xmlns="http://www.w3.org/2000/svg" xmlns:xlink="http://www.w3.org/1999/xlink">
    <title>0108727A-25B9-4BEA-A679-1A6AD91166C3</title>
    <defs>
        <polygon id="path-1" points="1.18846872e-14 79.997282 70.1125099 79.997282 70.1125099 0 1.18846872e-14 0"></polygon>
        <polygon id="path-3" points="1.18846872e-14 79.997282 70.1125099 79.997282 70.1125099 0 1.18846872e-14 0"></polygon>
        <polygon id="path-5" points="1.18846872e-14 79.997282 70.1125099 79.997282 70.1125099 0 1.18846872e-14 0"></polygon>
        <polygon id="path-7" points="1.18846872e-14 79.997282 70.1125099 79.997282 70.1125099 0 1.18846872e-14 0"></polygon>
        <polygon id="path-9" points="1.18846872e-14 79.997282 70.1125099 79.997282 70.1125099 0 1.18846872e-14 0"></polygon>
        <polygon id="path-11" points="1.18846872e-14 79.997282 70.1125099 79.997282 70.1125099 0 1.18846872e-14 0"></polygon>
        <polygon id="path-13" points="1.18846872e-14 79.997282 70.1125099 79.997282 70.1125099 0 1.18846872e-14 0"></polygon>
        <polygon id="path-15" points="1.18846872e-14 79.997282 70.1125099 79.997282 70.1125099 0 1.18846872e-14 0"></polygon>
        <polygon id="path-17" points="1.18846872e-14 79.997282 70.1125099 79.997282 70.1125099 0 1.18846872e-14 0"></polygon>
        <polygon id="path-19" points="1.18846872e-14 79.997282 70.1125099 79.997282 70.1125099 0 1.18846872e-14 0"></polygon>
        <polygon id="path-21" points="1.18846872e-14 79.997282 70.1125099 79.997282 70.1125099 0 1.18846872e-14 0"></polygon>
        <polygon id="path-23" points="1.18846872e-14 79.997282 70.1125099 79.997282 70.1125099 0 1.18846872e-14 0"></polygon>
        <polygon id="path-25" points="1.18846872e-14 79.997282 70.1125099 79.997282 70.1125099 0 1.18846872e-14 0"></polygon>
    </defs>
    <g id="Specifications" stroke="none" stroke-width="1" fill="none" fill-rule="evenodd">
        <g id="Teams" transform="translate(-624.000000, -2197.000000)">
            <g id="Group-6-Copy-19" transform="translate(624.000000, 2112.000000)">
                <g id="Group-3" transform="translate(0.000000, 48.000000)">
                    <g id="Group" transform="translate(0.000000, 37.000000)">
                        <rect id="Rectangle" fill-rule="nonzero" x="0" y="0" width="80" height="80" rx="20"></rect>
                        <g id="Group-2" transform="translate(4.000000, 0.000000)">
                            <path d="M70.1123008,0 L60.0629846,10.07566 L51.7157694,1.70816422 L51.6758356,1.74558912 L51.6306748,1.70565529 L43.2809507,10.07566 L34.9205636,1.70021927 L26.5681214,10.07566 L18.2104523,1.70021927 L18.2077343,1.70565529 L9.85006521,10.078378 L0,0.199878212 C0,0.199878212 0.0850945946,41.3524186 0.0850945946,44.8113989 C0.0850945946,64.2138028 15.6222804,80 34.9763873,80 C54.3359303,80 70.080521,64.2138028 70.080521,44.8113989 C70.080521,41.3524186 70.1123008,0 70.1123008,0 Z" id="Path" fill="#FEFEFE" fill-rule="nonzero"></path>
                            <path d="M25.605528,54.8000826 C35.5486328,54.8000826 42.9432903,58.9571731 48.3431382,61.9898441 C52.0193501,64.0576218 54.9265746,65.6911453 57.4695857,65.6911453 C58.5894055,65.6911453 59.6161857,65.3794106 60.6136951,64.7346152 C63.7791304,60.7000442 65.9683822,55.9299381 66.9472837,50.9229471 L20.4716269,50.9229471 C20.7802254,52.3432114 21.1367028,53.7235419 21.5356229,55.0240047 C22.9002726,54.8747233 24.2674312,54.8000826 25.605528,54.8000826 Z M3.20850528,50.920229 C4.03582545,55.1224803 5.67164881,59.0717476 8.08168663,62.6639103 C9.53665784,60.1083545 12.4493183,56.9345561 18.1684277,55.5809875 C17.7293647,54.1099173 17.3383895,52.5458076 17.0059561,50.920229 L3.20850528,50.920229 Z M10.3635599,65.6884273 C16.5455672,72.9446754 25.4457927,77.1285279 34.8277331,77.1897876 C33.9418712,76.7367164 33.0773352,76.2384844 32.2447881,75.7028275 C28.2681316,73.1286638 22.799079,68.1162367 19.2694305,58.8212726 C13.7098473,60.0364318 11.3585603,63.1916223 10.3635599,65.6884273 Z" id="Shape" fill="#5C666F" fill-rule="nonzero"></path>
                            <path d="M22.6922403,58.3341217 C25.1980357,64.6445027 28.985686,69.4944764 33.9546249,72.7508605 C37.2398617,74.9091688 40.389198,75.887234 42.4640844,76.3296422 C47.6617542,75.1144831 52.5136096,72.606806 56.5302,69.0627311 C53.3620467,68.7135715 50.1115168,66.8883238 46.6801348,64.9589554 C41.3254476,61.9503284 34.6569167,58.2009393 25.6527796,58.2009393 C24.6793141,58.2009393 23.6870317,58.2515361 22.6922403,58.3341217 Z" id="Path" fill="#5C666F" fill-rule="nonzero"></path>
                            <path d="M36.2310621,34.5279158 C36.1752384,34.5279158 36.1221327,34.5331427 36.066309,34.5412968 L36.060873,34.5279158 L24.652134,34.5279158 L24.652134,48.31554 L29.4613376,48.31554 L29.4613376,37.23798 L33.0762898,37.23798 L33.0762898,48.31554 L37.6594805,48.31554 L37.6594805,36.4386762 C37.6594805,35.3859704 37.0184485,34.5279158 36.2310621,34.5279158 Z M39.9756425,34.5279158 L39.6883698,34.5279158 L39.6883698,46.3516738 C39.6883698,47.4068886 40.3241749,48.2597162 41.1088432,48.2597162 C41.1113521,48.2597162 41.1195062,48.2569982 41.1274511,48.2569982 L41.1274511,48.2597162 L52.6771084,48.2597162 L52.6771084,39.9294363 L48.0567019,39.9242094 L48.0567019,45.5814318 L44.4444677,45.5814318 L44.4444677,37.1714933 L52.6771084,37.1714933 L52.6771084,34.5279158 L39.9756425,34.5279158 Z M11.8509381,34.5306338 L9.23349528,40.0839447 L7.72249126,40.0839447 L7.72249126,34.5306338 L2.93461359,34.5306338 L2.93461359,48.310313 L7.72249126,48.310313 L7.72249126,42.7595111 L9.23349528,42.7595111 L11.8509381,48.310313 L16.6335888,48.310313 L13.2607486,41.4218324 L16.6335888,34.5306338 L11.8509381,34.5306338 Z" id="Shape" fill="#5A2C81" fill-rule="nonzero"></path>
                            <g id="Clipped" transform="translate(0.000209, 0.001464)">
                                <mask id="mask-2" fill="white">
                                    <use xlink:href="#path-1"></use>
                                </mask>
                                <g id="Path"></g>
                                <polygon id="Path" fill="#5A2C81" fill-rule="nonzero" mask="url(#mask-2)" points="17.9072898 48.307595 22.8628477 48.307595 22.8628477 34.5251978 17.9072898 34.5251978"></polygon>
                            </g>
                            <g id="Clipped" transform="translate(0.000209, 0.001464)">
                                <mask id="mask-4" fill="white">
                                    <use xlink:href="#path-3"></use>
                                </mask>
                                <g id="Path"></g>
                                <path d="M67.2404105,38.2375801 L67.2456375,34.5254069 L67.2404105,34.5254069 L67.2404105,34.5040809 L54.5309997,34.5254069 L54.5309997,40.8142528 C54.5309997,41.8642407 55.1693137,42.7222953 55.9514731,42.7222953 L62.4284889,42.7222953 L62.4284889,45.7282043 L54.5309997,45.7282043 L54.5309997,48.2597162 L67.2456375,48.2597162 L67.2456375,41.9735883 C67.2456375,40.9928051 66.6924181,40.1828384 65.9769544,40.0814357 L65.9769544,40.0707728 L59.3002694,40.0707728 L59.3002694,37.1821563 L62.6413299,37.1821563 L62.6413299,38.2375801 L67.2404105,38.2375801 Z" id="Path" fill="#5A2C81" fill-rule="nonzero" mask="url(#mask-4)"></path>
                            </g>
                            <g id="Clipped" transform="translate(0.000209, 0.001464)">
                                <mask id="mask-6" fill="white">
                                    <use xlink:href="#path-5"></use>
                                </mask>
                                <g id="Path"></g>
                                <polygon id="Path" fill="#5A2C81" fill-rule="nonzero" mask="url(#mask-6)" points="53.7195694 20.4975525 49.6605363 20.4975525 58.0315864 12.1087308 51.7034338 5.76636098 43.27656 14.1392927 34.9213999 5.76636098 20.2276333 20.4975525 16.1683911 20.4975525 24.5233422 12.0953499 18.2085706 5.76636098 9.85361953 14.1392927 2.93482266 7.26398403 2.93482266 31.9694329 67.2404105 31.9694329 67.2404105 6.94430433"></polygon>
                            </g>
                            <g id="Clipped" transform="translate(0.000209, 0.001464)">
                                <mask id="mask-8" fill="white">
                                    <use xlink:href="#path-7"></use>
                                </mask>
                                <g id="Path"></g>
                                <path d="M16.9835848,29.314147 C16.9835848,29.6712516 17.2762935,29.9616604 17.6300528,29.9616604 L21.245005,29.9616604 L21.245005,28.9917493 L18.3003557,28.9917493 L18.3003557,25.8365588 L21.245005,25.8365588 L21.245005,24.8666477 L16.9835848,24.8666477 L16.9835848,29.314147 L16.9835848,29.314147 Z" id="Path" fill="#FEFEFE" fill-rule="nonzero" mask="url(#mask-8)"></path>
                            </g>
                            <g id="Clipped" transform="translate(0.000209, 0.001464)">
                                <mask id="mask-10" fill="white">
                                    <use xlink:href="#path-9"></use>
                                </mask>
                                <g id="Path"></g>
                                <path d="M12.4062483,27.66327 L14.0368447,27.66327 L14.0368447,25.8380223 L12.4062483,25.8380223 L12.4062483,27.66327 L12.4062483,27.66327 Z M14.6299979,24.8733382 L11.0921954,24.8653932 L11.0921954,29.9658419 L12.4062483,29.9658419 L12.4062483,28.6306722 L14.0368447,28.6306722 L14.0368447,29.9656329 L15.3536156,29.9656329 L15.3536156,25.5181336 C15.3536156,25.1371941 15.0184642,24.8200234 14.6299979,24.8733382 Z" id="Shape" fill="#FEFEFE" fill-rule="nonzero" mask="url(#mask-10)"></path>
                            </g>
                            <g id="Clipped" transform="translate(0.000209, 0.001464)">
                                <mask id="mask-12" fill="white">
                                    <use xlink:href="#path-11"></use>
                                </mask>
                                <g id="Path"></g>
                                <path d="M61.9064221,28.9823408 L63.5315825,28.9823408 L63.5315825,25.8353043 L61.9064221,25.8353043 L61.9064221,28.9823408 Z M64.2073214,24.8653932 L61.2252472,24.8653932 C60.8714878,24.8653932 60.5789882,25.155802 60.5789882,25.5129066 L60.5789882,29.3128925 C60.5789882,29.6699971 60.8714878,29.9604059 61.2252472,29.9604059 L64.2073214,29.9604059 C64.5610807,29.9604059 64.8508623,29.6699971 64.8508623,29.3101745 L64.8508623,25.5129066 C64.8508623,25.155802 64.5610807,24.8653932 64.2073214,24.8653932 Z" id="Shape" fill="#FEFEFE" fill-rule="nonzero" mask="url(#mask-12)"></path>
                            </g>
                            <g id="Clipped" transform="translate(0.000209, 0.001464)">
                                <mask id="mask-14" fill="white">
                                    <use xlink:href="#path-13"></use>
                                </mask>
                                <g id="Path"></g>
                                <path d="M5.19536998,27.2528506 C5.19536998,27.6099552 5.48786958,27.9005731 5.84434693,27.9005731 L8.14001929,27.9005731 L8.14001929,28.9930037 L5.19536998,28.9930037 L5.19536998,29.9631239 L9.45658111,29.9631239 L9.45658111,27.5779664 C9.45658111,27.2476237 9.20924228,26.9703868 8.87680885,26.9331709 L8.84210196,26.9304529 L6.50942287,26.9304529 L6.50942287,25.8380223 L9.45658111,25.8380223 L9.45658111,24.8653932 L5.19536998,24.8653932 L5.19536998,27.2528506 Z" id="Path" fill="#FEFEFE" fill-rule="nonzero" mask="url(#mask-14)"></path>
                            </g>
                            <g id="Clipped" transform="translate(0.000209, 0.001464)">
                                <mask id="mask-16" fill="white">
                                    <use xlink:href="#path-15"></use>
                                </mask>
                                <g id="Path"></g>
                                <path d="M29.9756686,27.66327 L31.606265,27.66327 L31.606265,25.8380223 L29.9756686,25.8380223 L29.9756686,27.66327 L29.9756686,27.66327 Z M32.2711319,24.8653932 L28.6588977,24.8653932 L28.6588977,29.9658419 L29.9756686,29.9658419 L29.9756686,28.6306722 L31.606265,28.6306722 L31.606265,29.9656329 L32.9228268,29.9656329 L32.9228268,25.5181336 C32.9228268,25.161029 32.6303272,24.8653932 32.2711319,24.8653932 L32.2711319,24.8653932 Z" id="Shape" fill="#FEFEFE" fill-rule="nonzero" mask="url(#mask-16)"></path>
                            </g>
                            <g id="Clipped" transform="translate(0.000209, 0.001464)">
                                <mask id="mask-18" fill="white">
                                    <use xlink:href="#path-17"></use>
                                </mask>
                                <g id="Path"></g>
                                <polygon id="Path" fill="#FEFEFE" fill-rule="nonzero" mask="url(#mask-18)" points="54.8481704 25.8373951 56.3244676 25.8373951 56.3244676 29.9652147 57.6360115 29.9652147 57.6360115 25.8373951 59.1095907 25.8373951 59.1095907 24.867484 54.8481704 24.867484"></polygon>
                            </g>
                            <g id="Clipped" transform="translate(0.000209, 0.001464)">
                                <mask id="mask-20" fill="white">
                                    <use xlink:href="#path-19"></use>
                                </mask>
                                <g id="Path"></g>
                                <path d="M41.2094095,24.8666477 L34.6684159,24.8666477 L34.6684159,29.9616604 L35.9824688,29.9616604 L35.9824688,25.8365588 L37.5969663,25.8365588 L37.5969663,29.9616604 L38.9296271,29.9616604 L38.9296271,25.8365588 L40.5416156,25.8365588 L40.5416156,29.9616604 L41.8556685,29.9616604 L41.8556685,25.5141611 C41.8556685,25.1597745 41.5658869,24.8666477 41.2094095,24.8666477 Z" id="Path" fill="#FEFEFE" fill-rule="nonzero" mask="url(#mask-20)"></path>
                            </g>
                            <g id="Clipped" transform="translate(0.000209, 0.001464)">
                                <mask id="mask-22" fill="white">
                                    <use xlink:href="#path-21"></use>
                                </mask>
                                <g id="Path"></g>
                                <path d="M52.8663236,24.8666477 L49.2540894,24.8666477 L49.2540894,29.9616604 L50.5681423,29.9616604 L50.5681423,25.8365588 L52.1985297,25.8365588 L52.1985297,29.9616604 L53.5153006,29.9616604 L53.5153006,25.5141611 C53.5153006,25.1597745 53.222801,24.8666477 52.8663236,24.8666477 Z" id="Path" fill="#FEFEFE" fill-rule="nonzero" mask="url(#mask-22)"></path>
                            </g>
                            <g id="Clipped" transform="translate(0.000209, 0.001464)">
                                <mask id="mask-24" fill="white">
                                    <use xlink:href="#path-23"></use>
                                </mask>
                                <g id="Path"></g>
                                <path d="M43.6472547,29.314147 C43.6472547,29.6712516 43.9372453,29.9616604 44.2937227,29.9616604 L47.9059569,29.9616604 L47.9059569,28.9917493 L44.9640256,28.9917493 L44.9640256,27.8991096 L47.9059569,27.8991096 L47.9059569,26.9319165 L44.9640256,26.9319165 L44.9640256,25.8365588 L47.9059569,25.8365588 L47.9059569,24.8666477 L43.6472547,24.8666477 L43.6472547,29.314147 Z" id="Path" fill="#FEFEFE" fill-rule="nonzero" mask="url(#mask-24)"></path>
                            </g>
                            <g id="Clipped" transform="translate(0.000209, 0.001464)">
                                <mask id="mask-26" fill="white">
                                    <use xlink:href="#path-25"></use>
                                </mask>
                                <g id="Path"></g>
                                <path d="M24.0731981,27.1409941 L25.7037945,27.1409941 L25.7037945,25.8380223 L24.0731981,25.8380223 L24.0731981,27.1409941 Z M26.3155556,28.1111143 L27.0176383,28.1111143 L27.0176383,25.5156246 C27.0176383,25.1371941 26.6904318,24.8227414 26.2969477,24.8733382 L22.7591452,24.8653932 L22.7591452,29.9658419 L24.0731981,29.9658419 L24.0731981,28.1111143 L25.0253376,28.1111143 L25.8127239,29.9604059 L27.094788,29.9604059 L26.3155556,28.1111143 Z" id="Shape" fill="#FEFEFE" fill-rule="nonzero" mask="url(#mask-26)"></path>
                            </g>
                        </g>
                    </g>
                </g>
            </g>
        </g>
    </g>
</svg>